<?xml version="1.0" encoding="us-ascii" standalone="no"?><svg xmlns="http://www.w3.org/2000/svg" xmlns:xlink="http://www.w3.org/1999/xlink" contentStyleType="text/css" height="661px" preserveAspectRatio="none" style="width:1055px;height:661px;background:#FFFFFF;" version="1.1" viewBox="0 0 1055 661" width="1055px" zoomAndPan="magnify"><defs/><g><text fill="#000000" font-family="sans-serif" font-size="14" font-weight="bold" lengthAdjust="spacing" textLength="216.5625" x="412.4688" y="24.9659">&#22330;&#26223;&#22270;&#31995;&#32479;&#19982;&#28216;&#25103;&#23545;&#35937;&#20307;&#31995;&#30340;&#26725;&#26753;</text><!--class Node--><g id="elem_Node"><rect codeLine="5" fill="#F1F1F1" height="276.815" id="Node" rx="2.5" ry="2.5" style="stroke:#181818;stroke-width:0.5;" width="395" x="244" y="377.3379"/><ellipse cx="419.25" cy="393.3379" fill="#ADD1B2" rx="11" ry="11" style="stroke:#181818;stroke-width:1.0;"/><path d="M419.3594,388.8692 Q418.4375,388.8692 417.7031,389.1817 Q416.9844,389.4942 416.4844,390.0879 Q415.9844,390.666 415.7031,391.541 Q415.4375,392.416 415.4375,393.5098 Q415.4375,394.9473 415.875,395.9942 Q416.3281,397.041 417.1719,397.5879 Q418.0313,398.1348 419.3438,398.1348 Q420.125,398.1348 420.8125,398.0098 Q421.5156,397.8692 422.5156,397.5567 L422.5156,399.4317 Q421.6563,399.7598 420.8906,399.8848 Q420.1406,400.0098 419.125,400.0098 Q417.2031,400.0098 415.8906,399.2129 Q414.5938,398.4004 413.9375,396.9317 Q413.2813,395.4473 413.2813,393.4785 Q413.2813,392.0567 413.6719,390.8848 Q414.0781,389.6973 414.8594,388.8223 Q415.6406,387.9473 416.7813,387.4785 Q417.9219,386.9942 419.3906,386.9942 Q420.3438,386.9942 421.2344,387.1973 Q422.1406,387.3848 423.0781,387.8535 L422.25,389.6348 Q421.4688,389.2598 420.8125,389.0723 Q420.1563,388.8692 419.3594,388.8692 Z " fill="#000000"/><text fill="#000000" font-family="sans-serif" font-size="14" lengthAdjust="spacing" textLength="36" x="439.75" y="398.7699">Node</text><line style="stroke:#181818;stroke-width:0.5;" x1="245" x2="638" y1="409.3379" y2="409.3379"/><rect fill="none" height="6" style="stroke:#C82930;stroke-width:1.0;" width="6" x="252" y="421.3719"/><text fill="#000000" font-family="sans-serif" font-size="14" lengthAdjust="spacing" textLength="108" x="264" y="428.3039">Vector3 position</text><rect fill="none" height="6" style="stroke:#C82930;stroke-width:1.0;" width="6" x="252" y="440.4398"/><text fill="#000000" font-family="sans-serif" font-size="14" lengthAdjust="spacing" textLength="134" x="264" y="447.3718">Quaternion rotation</text><rect fill="none" height="6" style="stroke:#C82930;stroke-width:1.0;" width="6" x="252" y="459.5077"/><text fill="#000000" font-family="sans-serif" font-size="14" lengthAdjust="spacing" textLength="88" x="264" y="466.4397">Vector3 scale</text><rect fill="none" height="6" style="stroke:#C82930;stroke-width:1.0;" width="6" x="252" y="478.5756"/><text fill="#000000" font-family="sans-serif" font-size="14" lengthAdjust="spacing" textLength="236" x="264" y="485.5076">Node parent ' &#29238;&#33410;&#28857;&#65292;&#26500;&#24314;&#26641;&#29366;&#32467;&#26500;</text><rect fill="none" height="6" style="stroke:#C82930;stroke-width:1.0;" width="6" x="252" y="497.6435"/><text fill="#000000" font-family="sans-serif" font-size="14" lengthAdjust="spacing" textLength="216" x="264" y="504.5755">List&lt;Node&gt; children ' &#23376;&#33410;&#28857;&#21015;&#34920;</text><rect fill="none" height="6" style="stroke:#C82930;stroke-width:1.0;" width="6" x="252" y="516.7115"/><text fill="#000000" font-family="sans-serif" font-size="14" lengthAdjust="spacing" textLength="300" x="264" y="523.6434">boolean dirty_flag ' &#33039;&#26631;&#35760;&#65292;&#29992;&#20110;&#25353;&#38656;&#35745;&#31639;&#30697;&#38453;</text><line style="stroke:#181818;stroke-width:0.5;" x1="245" x2="638" y1="531.7454" y2="531.7454"/><ellipse cx="255" cy="546.7794" fill="#84BE84" rx="3" ry="3" style="stroke:#038048;stroke-width:1.0;"/><text fill="#000000" font-family="sans-serif" font-size="14" lengthAdjust="spacing" textLength="369" x="264" y="550.7114">model_matrix(): Matrix ' &#25353;&#38656;&#35745;&#31639;&#23436;&#25972;&#21464;&#25442;&#30697;&#38453; (&#19990;&#30028;&#21464;&#25442;)</text><ellipse cx="255" cy="565.8473" fill="#84BE84" rx="3" ry="3" style="stroke:#038048;stroke-width:1.0;"/><text fill="#000000" font-family="sans-serif" font-size="14" lengthAdjust="spacing" textLength="287" x="264" y="569.7793">world_position(): Vector3 ' &#33719;&#21462;&#19990;&#30028;&#31354;&#38388;&#20301;&#32622;</text><ellipse cx="255" cy="584.9152" fill="#84BE84" rx="3" ry="3" style="stroke:#038048;stroke-width:1.0;"/><text fill="#000000" font-family="sans-serif" font-size="14" lengthAdjust="spacing" textLength="313" x="264" y="588.8472">world_rotation(): Quaternion ' &#33719;&#21462;&#19990;&#30028;&#31354;&#38388;&#26059;&#36716;</text><ellipse cx="255" cy="603.9831" fill="#84BE84" rx="3" ry="3" style="stroke:#038048;stroke-width:1.0;"/><text fill="#000000" font-family="sans-serif" font-size="14" lengthAdjust="spacing" textLength="267" x="264" y="607.9151">world_scale(): Vector3 ' &#33719;&#21462;&#19990;&#30028;&#31354;&#38388;&#32553;&#25918;</text><ellipse cx="255" cy="623.051" fill="#84BE84" rx="3" ry="3" style="stroke:#038048;stroke-width:1.0;"/><text fill="#000000" font-family="sans-serif" font-size="14" lengthAdjust="spacing" textLength="269" x="264" y="626.983">look_at_point(point: Vector3) ' &#38754;&#21521;&#25351;&#23450;&#28857;</text><ellipse cx="255" cy="642.119" fill="#84BE84" rx="3" ry="3" style="stroke:#038048;stroke-width:1.0;"/><text fill="#000000" font-family="sans-serif" font-size="14" lengthAdjust="spacing" textLength="361" x="264" y="646.0509">look_at_direction(direction: Vector3) ' &#38754;&#21521;&#25351;&#23450;&#26041;&#21521;&#21521;&#37327;</text></g><!--class Component_base--><g id="elem_Component_base"><rect codeLine="24" fill="#F1F1F1" height="48" id="Component_base" rx="2.5" ry="2.5" style="stroke:#181818;stroke-width:0.5;" width="139" x="674" y="491.7479"/><ellipse cx="689" cy="507.7479" fill="#A9DCDF" rx="11" ry="11" style="stroke:#181818;stroke-width:1.0;"/><path d="M692.3438,512.9979 L690.875,509.2479 L686.4375,509.2479 L685,512.9979 L682.875,512.9979 L687.8281,500.2792 L689.5781,500.2792 L694.5,512.9979 L692.3438,512.9979 Z M689,504.0448 Q688.9531,503.8885 688.8281,503.5292 Q688.7031,503.1698 688.5938,502.7948 Q688.4844,502.4042 688.6875,502.3417 Q688.8438,502.5292 688.75,502.8885 Q688.6563,503.2323 688.5625,503.5292 Q688.4688,503.8104 688.3906,504.0448 L687.1563,507.3573 L690.2344,507.3573 L689,504.0448 Z " fill="#000000"/><text fill="#000000" font-family="sans-serif" font-size="14" font-style="italic" lengthAdjust="spacing" textLength="107" x="703" y="513.1799">Component_base</text><line style="stroke:#181818;stroke-width:0.5;" x1="675" x2="812" y1="523.7479" y2="523.7479"/><line style="stroke:#181818;stroke-width:0.5;" x1="675" x2="812" y1="531.7479" y2="531.7479"/></g><!--class Node_component--><g id="elem_Node_component"><rect codeLine="29" fill="#F1F1F1" height="105.2038" id="Node_component" rx="2.5" ry="2.5" style="stroke:#181818;stroke-width:0.5;" width="265" x="460" y="193.1379"/><ellipse cx="529.25" cy="209.1379" fill="#ADD1B2" rx="11" ry="11" style="stroke:#181818;stroke-width:1.0;"/><path d="M529.3594,204.6692 Q528.4375,204.6692 527.7031,204.9817 Q526.9844,205.2942 526.4844,205.8879 Q525.9844,206.466 525.7031,207.341 Q525.4375,208.216 525.4375,209.3098 Q525.4375,210.7473 525.875,211.7942 Q526.3281,212.841 527.1719,213.3879 Q528.0313,213.9348 529.3438,213.9348 Q530.125,213.9348 530.8125,213.8098 Q531.5156,213.6692 532.5156,213.3567 L532.5156,215.2317 Q531.6563,215.5598 530.8906,215.6848 Q530.1406,215.8098 529.125,215.8098 Q527.2031,215.8098 525.8906,215.0129 Q524.5938,214.2004 523.9375,212.7317 Q523.2813,211.2473 523.2813,209.2785 Q523.2813,207.8567 523.6719,206.6848 Q524.0781,205.4973 524.8594,204.6223 Q525.6406,203.7473 526.7813,203.2785 Q527.9219,202.7942 529.3906,202.7942 Q530.3438,202.7942 531.2344,202.9973 Q532.1406,203.1848 533.0781,203.6535 L532.25,205.4348 Q531.4688,205.0598 530.8125,204.8723 Q530.1563,204.6692 529.3594,204.6692 Z " fill="#000000"/><text fill="#000000" font-family="sans-serif" font-size="14" lengthAdjust="spacing" textLength="118" x="549.75" y="214.5699">Node_component</text><line style="stroke:#181818;stroke-width:0.5;" x1="461" x2="724" y1="225.1379" y2="225.1379"/><rect fill="none" height="6" style="stroke:#C82930;stroke-width:1.0;" width="6" x="468" y="237.1719"/><text fill="#000000" font-family="sans-serif" font-size="14" lengthAdjust="spacing" textLength="199" x="480" y="244.1039">Node node ' &#20851;&#32852;&#30340; Node &#23454;&#20363;</text><line style="stroke:#181818;stroke-width:0.5;" x1="461" x2="724" y1="252.2058" y2="252.2058"/><ellipse cx="471" cy="267.2398" fill="#84BE84" rx="3" ry="3" style="stroke:#038048;stroke-width:1.0;"/><text fill="#000000" font-family="sans-serif" font-size="14" lengthAdjust="spacing" textLength="239" x="480" y="271.1718">node(): Node ' &#33719;&#21462;&#20851;&#32852;&#30340; Node &#23454;&#20363;</text><ellipse cx="471" cy="286.3077" fill="#84BE84" rx="3" ry="3" style="stroke:#038048;stroke-width:1.0;"/><text fill="#000000" font-family="sans-serif" font-size="14" lengthAdjust="spacing" textLength="194" x="480" y="290.2397">on_attached_to_gameobject()</text></g><!--class GameObject--><g id="elem_GameObject"><rect codeLine="39" fill="#F1F1F1" height="67.0679" id="GameObject" rx="2.5" ry="2.5" style="stroke:#181818;stroke-width:0.5;" width="461" x="362" y="47.0679"/><ellipse cx="546.75" cy="63.0679" fill="#ADD1B2" rx="11" ry="11" style="stroke:#181818;stroke-width:1.0;"/><path d="M546.8594,58.5992 Q545.9375,58.5992 545.2031,58.9117 Q544.4844,59.2242 543.9844,59.8179 Q543.4844,60.396 543.2031,61.271 Q542.9375,62.146 542.9375,63.2398 Q542.9375,64.6773 543.375,65.7242 Q543.8281,66.771 544.6719,67.3179 Q545.5313,67.8648 546.8438,67.8648 Q547.625,67.8648 548.3125,67.7398 Q549.0156,67.5992 550.0156,67.2867 L550.0156,69.1617 Q549.1563,69.4898 548.3906,69.6148 Q547.6406,69.7398 546.625,69.7398 Q544.7031,69.7398 543.3906,68.9429 Q542.0938,68.1304 541.4375,66.6617 Q540.7813,65.1773 540.7813,63.2085 Q540.7813,61.7867 541.1719,60.6148 Q541.5781,59.4273 542.3594,58.5523 Q543.1406,57.6773 544.2813,57.2085 Q545.4219,56.7242 546.8906,56.7242 Q547.8438,56.7242 548.7344,56.9273 Q549.6406,57.1148 550.5781,57.5835 L549.75,59.3648 Q548.9688,58.9898 548.3125,58.8023 Q547.6563,58.5992 546.8594,58.5992 Z " fill="#000000"/><text fill="#000000" font-family="sans-serif" font-size="14" lengthAdjust="spacing" textLength="83" x="567.25" y="68.4999">GameObject</text><line style="stroke:#181818;stroke-width:0.5;" x1="363" x2="822" y1="79.0679" y2="79.0679"/><rect fill="none" height="6" style="stroke:#C82930;stroke-width:1.0;" width="6" x="370" y="91.1019"/><text fill="#000000" font-family="sans-serif" font-size="14" lengthAdjust="spacing" textLength="435" x="382" y="98.0339">List&lt;Component_base&gt; components ' &#28216;&#25103;&#23545;&#35937;&#21487;&#20197;&#25317;&#26377;&#30340;&#32452;&#20214;&#21015;&#34920;</text><line style="stroke:#181818;stroke-width:0.5;" x1="363" x2="822" y1="106.1358" y2="106.1358"/></g><g id="elem_GMN9"><path d="M6,484.1879 L6,547.306 A0,0 0 0 0 6,547.306 L209,547.306 A0,0 0 0 0 209,547.306 L209,519.7479 L243.74,515.7479 L209,511.7479 L209,494.1879 L199,484.1879 L6,484.1879 A0,0 0 0 0 6,484.1879 " fill="#FEFFDD" style="stroke:#181818;stroke-width:0.5;"/><path d="M199,484.1879 L199,494.1879 L209,494.1879 L199,484.1879 " fill="#FEFFDD" style="stroke:#181818;stroke-width:0.5;"/><text fill="#000000" font-family="sans-serif" font-size="13" lengthAdjust="spacing" textLength="156" x="12" y="503.0849">&#25903;&#25345;&#23618;&#32423;&#31354;&#38388;&#21464;&#25442;&#30340;&#33410;&#28857;&#65292;</text><text fill="#000000" font-family="sans-serif" font-size="13" lengthAdjust="spacing" textLength="104" x="12" y="520.7909">&#26500;&#24314;&#26641;&#29366;&#22330;&#26223;&#22270;&#12290;</text><text fill="#000000" font-family="sans-serif" font-size="13" lengthAdjust="spacing" textLength="182" x="12" y="538.497">&#25552;&#20379;&#19990;&#30028;&#22352;&#26631;&#36716;&#25442;&#21644;&#26397;&#21521;&#25511;&#21046;&#12290;</text></g><g id="elem_GMN12"><path d="M760.5,205.3279 L760.5,241.7379 L725.32,245.7379 L760.5,249.7379 L760.5,286.152 A0,0 0 0 0 760.5,286.152 L1004.5,286.152 A0,0 0 0 0 1004.5,286.152 L1004.5,215.3279 L994.5,205.3279 L760.5,205.3279 A0,0 0 0 0 760.5,205.3279 " fill="#FEFFDD" style="stroke:#181818;stroke-width:0.5;"/><path d="M994.5,205.3279 L994.5,215.3279 L1004.5,215.3279 L994.5,205.3279 " fill="#FEFFDD" style="stroke:#181818;stroke-width:0.5;"/><text fill="#000000" font-family="sans-serif" font-size="13" lengthAdjust="spacing" textLength="104" x="766.5" y="224.2249">&#26694;&#26550;&#23618;&#39044;&#21046;&#32452;&#20214;&#65292;</text><text fill="#000000" font-family="sans-serif" font-size="13" lengthAdjust="spacing" textLength="223" x="766.5" y="241.9309">&#26159; GameObject &#19982; Node &#20043;&#38388;&#30340;&#26725;&#26753;&#65292;</text><text fill="#000000" font-family="sans-serif" font-size="13" lengthAdjust="spacing" textLength="223" x="766.5" y="259.637">&#36127;&#36131;&#20026; GameObject &#32465;&#23450; Node &#23454;&#20363;&#65292;</text><text fill="#000000" font-family="sans-serif" font-size="13" lengthAdjust="spacing" textLength="130" x="766.5" y="277.343">&#23454;&#29616;&#31354;&#38388;&#23450;&#20301;&#21644;&#32452;&#32455;&#12290;</text></g><g id="elem_GMN15"><path d="M858.5,57.8979 L858.5,76.6079 L823.41,80.6079 L858.5,84.6079 L858.5,103.3099 A0,0 0 0 0 858.5,103.3099 L1048.5,103.3099 A0,0 0 0 0 1048.5,103.3099 L1048.5,67.8979 L1038.5,57.8979 L858.5,57.8979 A0,0 0 0 0 858.5,57.8979 " fill="#FEFFDD" style="stroke:#181818;stroke-width:0.5;"/><path d="M1038.5,57.8979 L1038.5,67.8979 L1048.5,67.8979 L1038.5,57.8979 " fill="#FEFFDD" style="stroke:#181818;stroke-width:0.5;"/><text fill="#000000" font-family="sans-serif" font-size="13" lengthAdjust="spacing" textLength="169" x="864.5" y="76.7949">&#28216;&#25103;&#23545;&#35937;&#20307;&#31995;&#20013;&#30340;&#22522;&#26412;&#23454;&#20307;&#65292;</text><text fill="#000000" font-family="sans-serif" font-size="13" lengthAdjust="spacing" textLength="117" x="864.5" y="94.5009">&#36890;&#36807;&#32452;&#20214;&#32452;&#21512;&#21151;&#33021;&#12290;</text></g><!--link Node_component to Component_base--><g id="link_Node_component_Component_base"><path codeLine="47" d="M621.79,298.7379 C654.56,356.8879 697.3452,432.8252 721.4452,475.6052 " fill="none" id="Node_component-to-Component_base" style="stroke:#181818;stroke-width:1.0;"/><polygon fill="none" points="730.28,491.2879,726.6728,472.6603,716.2176,478.5502,730.28,491.2879" style="stroke:#181818;stroke-width:1.0;"/></g><!--reverse link Node_component to Node--><g id="link_Node_component_Node"><path codeLine="53" d="M557.3172,309.1914 C544.5772,331.7914 534.88,349.0079 519.17,376.8879 " fill="none" id="Node_component-backto-Node" style="stroke:#181818;stroke-width:1.0;"/><polygon fill="#181818" points="563.21,298.7379,556.7791,302.0004,557.3172,309.1914,563.7481,305.9289,563.21,298.7379" style="stroke:#181818;stroke-width:1.0;"/><polygon fill="#000000" points="546.2054,342.5469,553.2062,336.1096,548.0854,333.224,546.2054,342.5469" style="stroke:#000000;stroke-width:1.0;"/><text fill="#000000" font-family="sans-serif" font-size="13" lengthAdjust="spacing" textLength="65" x="557.66" y="343.2349">&#32465;&#23450;&#24182;&#31649;&#29702;</text><text fill="#000000" font-family="sans-serif" font-size="13" lengthAdjust="spacing" textLength="7" x="552.2137" y="320.173">1</text><text fill="#000000" font-family="sans-serif" font-size="13" lengthAdjust="spacing" textLength="7" x="516.2262" y="365.7456">1</text></g><!--reverse link GameObject to Node_component--><g id="link_GameObject_Node_component"><path codeLine="59" d="M592.5,126.6179 C592.5,149.0579 592.5,167.1979 592.5,192.8279 " fill="none" id="GameObject-backto-Node_component" style="stroke:#181818;stroke-width:1.0;"/><polygon fill="#181818" points="592.5,114.6179,588.5,120.6179,592.5,126.6179,596.5,120.6179,592.5,114.6179" style="stroke:#181818;stroke-width:1.0;"/><polygon fill="#000000" points="597.5,158.9909,600.4389,149.9458,594.5611,149.9458,597.5,158.9909" style="stroke:#000000;stroke-width:1.0;"/><text fill="#000000" font-family="sans-serif" font-size="13" lengthAdjust="spacing" textLength="26" x="606.5" y="159.0349">&#21253;&#21547;</text><text fill="#000000" font-family="sans-serif" font-size="13" lengthAdjust="spacing" textLength="7" x="584.8766" y="136.151">1</text><text fill="#000000" font-family="sans-serif" font-size="13" lengthAdjust="spacing" textLength="20" x="571.0938" y="181.1385">0..1</text></g><!--SRC=[bLRFKo975BxFNz6r5p4fjdOhDolb9OTSaatbaYirmgWaE6F1f9AKIHKg2Y8o61LTGFbXB71NGGkN7HZH_sKptJDpsdyXhwTdiC7T96jPm7I_x_Lxt_lUwvb2TllE6hPn-SwkjqWjxJIE13MgnYI4AmFoiWCRLjUmZAgfvuckauo6EttxkcuEz-XwAKNgPwInAWXJ2BTBPdyBlL0Y4hAk3I4S4nC9zhWY8FYRGjRvm3cymTeHsMdWwnEIRBeRGVI355QL-1TeMKb4rQWYUylV_oogKbo61HHNL97RyG69i1YJl3Ntg6KnBiagFIlJixDhrbh__MsEdAImCI2rNIlRiumzUFGWtqGJwfSKDul2Yz5O1B00nPS51iMPGw35ivrJb9WaoYWIZQk_XUPZuWAOsYaDMBFRLt2AjTyo1tcIst8gIRjTjzg7LlNSENeZUDcJcexlrqcnJxe7xjBdQ0cEZeMMH3KU_JKmFOE-TNzHMyuBRkV8WSSQyuW2fbwq3d9iRTfpzeiIZqL2FeNKdSyIn9b_YxKYGx4gcCCTAFmOrEUOGZdgFuGcXzlsy68CxPRYlqwrRi_9_fs7YodAJo5HXP2ZiXfmFqVeQO0xnmrSs2MvD4WBgZ61WZg0AGrtzEkZQ20TViE_azQ4FpYrVgKiBIioA2Oq9oOaHB9343Uk3gY0nRc46XV3Ac9AdZ3rDKtgc-IaXw_NB2Db6Zs6fPhJ2kPTsKcMG1OaVuQrqx63gUX2OT_bHCDm6okyk6Nw0IusklRgFZGVMyNj4_DkUwGoNbyKG4loWW5PFJuCP-Y0KohWMuqveLcyDN2sPgUxVFEJmvwTVeMpBPmfGrzHBxZVOsvzCIeor4WLmujI9AGgeGLnILBcVeJg1AR7UFWQDhvpDoW7A41gVRBJ9ffctr-HV8iKBo4AqpYbuyaDmTGl8NGQz71lskECSxB2T_PuoQ37_US49OhB26iTqpWZssUaiWNUlL8-T3yGWpTwfb7aGLPPXvpP7CD_vXXdVdORNPYFB4VwF5bkeqcsxe742LK94tR1uE-paoQFlS5iPgKq-zkqnu0Uz_ZtjwN7nlPDrRuvDVN16FN6BiJAwm5OfsdqUwQ-JuffKha0ua7JE7FrBbdvP5cyInupZ_RzIrhAe_naN8ny05Wmz0gRffuqzLSJ4U5oZLp-HOuwK21SoB0i_qwkJTBsvFaJz5amw7wx7cQy34VkqIpbaMF0vv2dzV-msNZDk01UnjrbMRuGx1ZHfHHavgm3HvjWOB_PDWUGHy-x6K4lmnrxVOYpPGOt-rNm012hkSCdJPk2CSGvzrHSsNe66oHJVEup-10m9Oj3Z8XwzlIfnnMNt0p2kGrSUCt8ychUkO7YWU99j-MaiuAig1AAIVCgKkPTlDilPBz3SgjqA0wQ_AKFwOykPMR8tSoZDmuQfBlfZb3lgZikq8jsU45V7Q3PAiTqkEUREDEZvf8SGJGKWGKKZouiZY9wo8XvzGUsqqW1clNwA9xnSZtkBFQ-uvj_GZDHStYoybTyhI4L2C0oql-Mn8Dl5kEZzp1l9bO7qAPiCledmlrZtwTPZfv-ibKGsDXn_m00]--></g></svg>