<svg xmlns="http://www.w3.org/2000/svg" xmlns:xlink="http://www.w3.org/1999/xlink" contentStyleType="text/css" data-diagram-type="CLASS" height="1162px" preserveAspectRatio="none" style="width:2043px;height:1162px;background:#FFFFFF;" version="1.1" viewBox="0 0 2043 1162" width="2043px" zoomAndPan="magnify"><title>rhi_frame_buffer class diagram</title><defs/><g><text fill="#000000" font-family="sans-serif" font-size="14" font-weight="bold" lengthAdjust="spacing" textLength="217.0272" x="906.4705" y="24.9659">rhi_frame_buffer class diagram</text><!--class C_0010734468283113446611--><g class="entity" data-entity="C_0010734468283113446611" data-source-line="2" data-uid="ent0002" id="entity_C_0010734468283113446611"><rect fill="#F1F1F1" height="551.7658" rx="2.5" ry="2.5" style="stroke:#181818;stroke-width:0.5;" width="1829.655" x="9" y="604.1479"/><ellipse cx="883.9196" cy="620.1479" fill="#A9DCDF" rx="11" ry="11" style="stroke:#181818;stroke-width:1;"/><path d="M887.2634,625.3979 L885.7946,621.6479 L881.3571,621.6479 L879.9196,625.3979 L877.7946,625.3979 L882.7478,612.6792 L884.4978,612.6792 L889.4196,625.3979 L887.2634,625.3979 Z M883.9196,616.4448 Q883.8728,616.2885 883.7478,615.9292 Q883.6228,615.5698 883.5134,615.1948 Q883.404,614.8042 883.6071,614.7417 Q883.7634,614.9292 883.6696,615.2885 Q883.5759,615.6323 883.4821,615.9292 Q883.3884,616.2104 883.3103,616.4448 L882.0759,619.7573 L885.154,619.7573 L883.9196,616.4448 Z " fill="#000000"/><text fill="#000000" font-family="sans-serif" font-size="14" font-style="italic" lengthAdjust="spacing" textLength="71.3157" x="904.4196" y="625.5799">RHI_texture</text><line style="stroke:#181818;stroke-width:0.5;" x1="10" x2="1837.655" y1="636.1479" y2="636.1479"/><ellipse cx="20" cy="651.1819" fill="#84BE84" rx="3" ry="3" style="stroke:#038048;stroke-width:1;"/><text fill="#000000" font-family="sans-serif" font-size="14" lengthAdjust="spacing" textLength="1803.655" x="29" y="655.1139">RHI_texture(int width, int height, unsigned int mipmap_levels, Texture_type type, Texture_internal_format internal_format, const std::unordered_map&lt;Texture_wrap_target,Texture_wrap&gt; &amp; wraps, const std::unordered_map&lt;Texture_filter_target,Texture_filter&gt; &amp; filters) : void</text><ellipse cx="20" cy="670.2498" fill="#84BE84" rx="3" ry="3" style="stroke:#038048;stroke-width:1;"/><text fill="#000000" font-family="sans-serif" font-size="14" lengthAdjust="spacing" textLength="133.0275" x="29" y="674.1818">~RHI_texture() : void</text><line style="stroke:#181818;stroke-width:1;stroke-dasharray:1.0,2.0;" x1="10" x2="1837.655" y1="682.2838" y2="682.2838"/><ellipse cx="20" cy="697.3177" fill="#84BE84" rx="3" ry="3" style="stroke:#038048;stroke-width:1;"/><text fill="#000000" font-family="sans-serif" font-size="14" lengthAdjust="spacing" textLength="126.7555" x="29" y="701.2497">apply_filters() : void</text><ellipse cx="20" cy="716.3856" fill="#84BE84" rx="3" ry="3" style="stroke:#038048;stroke-width:1;"/><text fill="#000000" font-family="sans-serif" font-size="14" lengthAdjust="spacing" textLength="129.2335" x="29" y="720.3176">apply_wraps() : void</text><ellipse cx="20" cy="735.4535" fill="#84BE84" rx="3" ry="3" style="stroke:#038048;stroke-width:1;"/><text fill="#000000" font-family="sans-serif" font-size="14" font-style="italic" lengthAdjust="spacing" textLength="274.973" x="29" y="739.3855">bind_to_unit(unsigned int location) = 0 : void</text><ellipse cx="20" cy="754.5215" fill="#84BE84" rx="3" ry="3" style="stroke:#038048;stroke-width:1;"/><text fill="#000000" font-family="sans-serif" font-size="14" lengthAdjust="spacing" textLength="258.775" x="29" y="758.4534">border_color() const : const glm::vec4 &amp;</text><ellipse cx="20" cy="773.5894" fill="#84BE84" rx="3" ry="3" style="stroke:#038048;stroke-width:1;"/><text fill="#000000" font-family="sans-serif" font-size="14" lengthAdjust="spacing" textLength="524.424" x="29" y="777.5214">filters() const : const std::unordered_map&lt;Texture_filter_target,Texture_filter&gt; &amp;</text><ellipse cx="20" cy="792.6573" fill="#84BE84" rx="3" ry="3" style="stroke:#038048;stroke-width:1;"/><text fill="#000000" font-family="sans-serif" font-size="14" font-style="italic" lengthAdjust="spacing" textLength="181.2713" x="29" y="796.5893">generate_mipmap() = 0 : void</text><ellipse cx="20" cy="811.7252" fill="#84BE84" rx="3" ry="3" style="stroke:#038048;stroke-width:1;"/><text fill="#000000" font-family="sans-serif" font-size="14" lengthAdjust="spacing" textLength="118.4675" x="29" y="815.6572">height() const : int</text><ellipse cx="20" cy="830.7931" fill="#84BE84" rx="3" ry="3" style="stroke:#038048;stroke-width:1;"/><text fill="#000000" font-family="sans-serif" font-size="14" lengthAdjust="spacing" textLength="320.1508" x="29" y="834.7251">internal_format() const : Texture_internal_format</text><ellipse cx="20" cy="849.861" fill="#84BE84" rx="3" ry="3" style="stroke:#038048;stroke-width:1;"/><text fill="#000000" font-family="sans-serif" font-size="14" lengthAdjust="spacing" textLength="238.9371" x="29" y="853.793">mipmap_levels() const : unsigned int</text><ellipse cx="20" cy="868.929" fill="#84BE84" rx="3" ry="3" style="stroke:#038048;stroke-width:1;"/><text fill="#000000" font-family="sans-serif" font-size="14" font-style="italic" lengthAdjust="spacing" textLength="191.8973" x="29" y="872.8609">on_set_border_color() = 0 : void</text><ellipse cx="20" cy="887.9969" fill="#84BE84" rx="3" ry="3" style="stroke:#038048;stroke-width:1;"/><text fill="#000000" font-family="sans-serif" font-size="14" lengthAdjust="spacing" textLength="309.9028" x="29" y="891.9289">set_border_color(const glm::vec4 &amp; color) : void</text><ellipse cx="20" cy="907.0648" fill="#84BE84" rx="3" ry="3" style="stroke:#038048;stroke-width:1;"/><text fill="#000000" font-family="sans-serif" font-size="14" font-style="italic" lengthAdjust="spacing" textLength="405.9284" x="29" y="910.9968">set_filter(Texture_filter_target target, Texture_filter filter) = 0 : void</text><ellipse cx="20" cy="926.1327" fill="#84BE84" rx="3" ry="3" style="stroke:#038048;stroke-width:1;"/><text fill="#000000" font-family="sans-serif" font-size="14" font-style="italic" lengthAdjust="spacing" textLength="417.4083" x="29" y="930.0647">set_wrap(Texture_wrap_target target, Texture_wrap wrap) = 0 : void</text><ellipse cx="20" cy="945.2006" fill="#84BE84" rx="3" ry="3" style="stroke:#038048;stroke-width:1;"/><text fill="#000000" font-family="sans-serif" font-size="14" lengthAdjust="spacing" textLength="172.7593" x="29" y="949.1326">type() const : Texture_type</text><ellipse cx="20" cy="964.2685" fill="#84BE84" rx="3" ry="3" style="stroke:#038048;stroke-width:1;"/><text fill="#000000" font-family="sans-serif" font-size="14" lengthAdjust="spacing" textLength="112.9236" x="29" y="968.2005">width() const : int</text><ellipse cx="20" cy="983.3365" fill="#84BE84" rx="3" ry="3" style="stroke:#038048;stroke-width:1;"/><text fill="#000000" font-family="sans-serif" font-size="14" lengthAdjust="spacing" textLength="531.8579" x="29" y="987.2684">wraps() const : const std::unordered_map&lt;Texture_wrap_target,Texture_wrap&gt; &amp;</text><line style="stroke:#181818;stroke-width:0.5;" x1="10" x2="1837.655" y1="995.3704" y2="995.3704"/><polygon fill="none" points="20,1005.4044,24,1009.4044,20,1013.4044,16,1009.4044" style="stroke:#B38D22;stroke-width:1;"/><text fill="#000000" font-family="sans-serif" font-size="14" lengthAdjust="spacing" textLength="177.3093" x="29" y="1014.3364">m_border_color : glm::vec4</text><polygon fill="none" points="20,1024.4723,24,1028.4723,20,1032.4723,16,1028.4723" style="stroke:#B38D22;stroke-width:1;"/><text fill="#000000" font-family="sans-serif" font-size="14" lengthAdjust="spacing" textLength="442.9583" x="29" y="1033.4043">m_filters : std::unordered_map&lt;Texture_filter_target,Texture_filter&gt;</text><polygon fill="none" points="20,1043.5402,24,1047.5402,20,1051.5402,16,1047.5402" style="stroke:#B38D22;stroke-width:1;"/><text fill="#000000" font-family="sans-serif" font-size="14" lengthAdjust="spacing" textLength="90.1316" x="29" y="1052.4722">m_height : int</text><polygon fill="none" points="20,1062.6081,24,1066.6081,20,1070.6081,16,1066.6081" style="stroke:#B38D22;stroke-width:1;"/><text fill="#000000" font-family="sans-serif" font-size="14" lengthAdjust="spacing" textLength="291.8149" x="29" y="1071.5401">m_internal_format : Texture_internal_format</text><polygon fill="none" points="20,1081.676,24,1085.676,20,1089.676,16,1085.676" style="stroke:#B38D22;stroke-width:1;"/><text fill="#000000" font-family="sans-serif" font-size="14" lengthAdjust="spacing" textLength="210.6012" x="29" y="1090.608">m_mipmap_levels : unsigned int</text><polygon fill="none" points="20,1100.744,24,1104.744,20,1108.744,16,1104.744" style="stroke:#B38D22;stroke-width:1;"/><text fill="#000000" font-family="sans-serif" font-size="14" lengthAdjust="spacing" textLength="144.4234" x="29" y="1109.6759">m_type : Texture_type</text><polygon fill="none" points="20,1119.8119,24,1123.8119,20,1127.8119,16,1123.8119" style="stroke:#B38D22;stroke-width:1;"/><text fill="#000000" font-family="sans-serif" font-size="14" lengthAdjust="spacing" textLength="84.5877" x="29" y="1128.7439">m_width : int</text><polygon fill="none" points="20,1138.8798,24,1142.8798,20,1146.8798,16,1142.8798" style="stroke:#B38D22;stroke-width:1;"/><text fill="#000000" font-family="sans-serif" font-size="14" lengthAdjust="spacing" textLength="450.3922" x="29" y="1147.8118">m_wraps : std::unordered_map&lt;Texture_wrap_target,Texture_wrap&gt;</text></g><!--class C_0010729753107808637218--><g class="entity" data-entity="C_0010729753107808637218" data-source-line="33" data-uid="ent0003" id="entity_C_0010729753107808637218"><rect fill="#F1F1F1" height="151.3396" rx="2.5" ry="2.5" style="stroke:#181818;stroke-width:0.5;" width="234.7952" x="1443.43" y="47.0679"/><ellipse cx="1485.4974" cy="63.0679" fill="#A9DCDF" rx="11" ry="11" style="stroke:#181818;stroke-width:1;"/><path d="M1488.8411,68.3179 L1487.3724,64.5679 L1482.9349,64.5679 L1481.4974,68.3179 L1479.3724,68.3179 L1484.3255,55.5992 L1486.0755,55.5992 L1490.9974,68.3179 L1488.8411,68.3179 Z M1485.4974,59.3648 Q1485.4505,59.2085 1485.3255,58.8492 Q1485.2005,58.4898 1485.0911,58.1148 Q1484.9817,57.7242 1485.1849,57.6617 Q1485.3411,57.8492 1485.2474,58.2085 Q1485.1536,58.5523 1485.0599,58.8492 Q1484.9661,59.1304 1484.888,59.3648 L1483.6536,62.6773 L1486.7317,62.6773 L1485.4974,59.3648 Z " fill="#000000"/><text fill="#000000" font-family="sans-serif" font-size="14" font-style="italic" lengthAdjust="spacing" textLength="142.6455" x="1505.5123" y="68.4999">RHI_frame_buffer_base</text><line style="stroke:#181818;stroke-width:0.5;" x1="1444.43" x2="1677.2252" y1="79.0679" y2="79.0679"/><ellipse cx="1454.43" cy="94.1019" fill="#84BE84" rx="3" ry="3" style="stroke:#038048;stroke-width:1;"/><text fill="#000000" font-family="sans-serif" font-size="14" lengthAdjust="spacing" textLength="200.7872" x="1463.43" y="98.0339">RHI_frame_buffer_base() : void</text><ellipse cx="1454.43" cy="113.1698" fill="#84BE84" rx="3" ry="3" style="stroke:#038048;stroke-width:1;"/><text fill="#000000" font-family="sans-serif" font-size="14" lengthAdjust="spacing" textLength="208.7952" x="1463.43" y="117.1018">~RHI_frame_buffer_base() : void</text><line style="stroke:#181818;stroke-width:1;stroke-dasharray:1.0,2.0;" x1="1444.43" x2="1677.2252" y1="125.2038" y2="125.2038"/><ellipse cx="1454.43" cy="140.2377" fill="#84BE84" rx="3" ry="3" style="stroke:#038048;stroke-width:1;"/><text fill="#000000" font-family="sans-serif" font-size="14" font-style="italic" lengthAdjust="spacing" textLength="97.9156" x="1463.43" y="144.1697">height() = 0 : int</text><ellipse cx="1454.43" cy="159.3056" fill="#84BE84" rx="3" ry="3" style="stroke:#038048;stroke-width:1;"/><text fill="#000000" font-family="sans-serif" font-size="14" font-style="italic" lengthAdjust="spacing" textLength="151.1434" x="1463.43" y="163.2376">is_valid() const = 0 : bool</text><ellipse cx="1454.43" cy="178.3735" fill="#84BE84" rx="3" ry="3" style="stroke:#038048;stroke-width:1;"/><text fill="#000000" font-family="sans-serif" font-size="14" font-style="italic" lengthAdjust="spacing" textLength="92.9456" x="1463.43" y="182.3055">width() = 0 : int</text><line style="stroke:#181818;stroke-width:0.5;" x1="1444.43" x2="1677.2252" y1="190.4075" y2="190.4075"/></g><!--class C_0014412187074121619859--><g class="entity" data-entity="C_0014412187074121619859" data-source-line="43" data-uid="ent0004" id="entity_C_0014412187074121619859"><rect fill="#F1F1F1" height="265.7471" rx="2.5" ry="2.5" style="stroke:#181818;stroke-width:0.5;" width="1159.9119" x="343.87" y="259.4079"/><ellipse cx="861.4412" cy="275.4079" fill="#ADD1B2" rx="11" ry="11" style="stroke:#181818;stroke-width:1;"/><path d="M861.5505,270.9392 Q860.6287,270.9392 859.8943,271.2517 Q859.1755,271.5642 858.6755,272.1579 Q858.1755,272.736 857.8943,273.611 Q857.6287,274.486 857.6287,275.5798 Q857.6287,277.0173 858.0662,278.0642 Q858.5193,279.111 859.363,279.6579 Q860.2224,280.2048 861.5349,280.2048 Q862.3162,280.2048 863.0037,280.0798 Q863.7068,279.9392 864.7068,279.6267 L864.7068,281.5017 Q863.8474,281.8298 863.0818,281.9548 Q862.3318,282.0798 861.3162,282.0798 Q859.3943,282.0798 858.0818,281.2829 Q856.7849,280.4704 856.1287,279.0017 Q855.4724,277.5173 855.4724,275.5485 Q855.4724,274.1267 855.863,272.9548 Q856.2693,271.7673 857.0505,270.8923 Q857.8318,270.0173 858.9724,269.5485 Q860.113,269.0642 861.5818,269.0642 Q862.5349,269.0642 863.4255,269.2673 Q864.3318,269.4548 865.2693,269.9235 L864.4412,271.7048 Q863.6599,271.3298 863.0037,271.1423 Q862.3474,270.9392 861.5505,270.9392 Z " fill="#000000"/><text fill="#000000" font-family="sans-serif" font-size="14" lengthAdjust="spacing" textLength="116.2695" x="881.9412" y="280.8399">RHI_frame_buffer</text><line style="stroke:#181818;stroke-width:0.5;" x1="344.87" x2="1502.7819" y1="291.4079" y2="291.4079"/><ellipse cx="354.87" cy="306.4419" fill="#84BE84" rx="3" ry="3" style="stroke:#038048;stroke-width:1;"/><text fill="#000000" font-family="sans-serif" font-size="14" lengthAdjust="spacing" textLength="163.5054" x="363.87" y="310.3739">RHI_frame_buffer() : void</text><ellipse cx="354.87" cy="325.5098" fill="#84BE84" rx="3" ry="3" style="stroke:#038048;stroke-width:1;"/><text fill="#000000" font-family="sans-serif" font-size="14" lengthAdjust="spacing" textLength="1133.9119" x="363.87" y="329.4418">RHI_frame_buffer(int width, int height, const std::vector&lt;std::shared_ptr&lt;RHI_texture&gt;&gt; &amp; color_attachments, const std::shared_ptr&lt;RHI_texture&gt; &amp; depth_attachment) : void</text><ellipse cx="354.87" cy="344.5777" fill="#84BE84" rx="3" ry="3" style="stroke:#038048;stroke-width:1;"/><text fill="#000000" font-family="sans-serif" font-size="14" lengthAdjust="spacing" textLength="171.5133" x="363.87" y="348.5097">~RHI_frame_buffer() : void</text><line style="stroke:#181818;stroke-width:1;stroke-dasharray:1.0,2.0;" x1="344.87" x2="1502.7819" y1="356.6117" y2="356.6117"/><ellipse cx="354.87" cy="371.6456" fill="#84BE84" rx="3" ry="3" style="stroke:#038048;stroke-width:1;"/><text fill="#000000" font-family="sans-serif" font-size="14" lengthAdjust="spacing" textLength="511.4181" x="363.87" y="375.5776">color_attachments() const : const std::vector&lt;std::shared_ptr&lt;RHI_texture&gt;&gt; &amp;</text><ellipse cx="354.87" cy="390.7135" fill="#84BE84" rx="3" ry="3" style="stroke:#038048;stroke-width:1;"/><text fill="#000000" font-family="sans-serif" font-size="14" lengthAdjust="spacing" textLength="425.5563" x="363.87" y="394.6455">depth_attachment() const : const std::shared_ptr&lt;RHI_texture&gt; &amp;</text><ellipse cx="354.87" cy="409.7815" fill="#84BE84" rx="3" ry="3" style="stroke:#038048;stroke-width:1;"/><text fill="#000000" font-family="sans-serif" font-size="14" lengthAdjust="spacing" textLength="79.2257" x="363.87" y="413.7134">height() : int</text><ellipse cx="354.87" cy="428.8494" fill="#84BE84" rx="3" ry="3" style="stroke:#038048;stroke-width:1;"/><text fill="#000000" font-family="sans-serif" font-size="14" lengthAdjust="spacing" textLength="73.6817" x="363.87" y="432.7814">width() : int</text><line style="stroke:#181818;stroke-width:0.5;" x1="344.87" x2="1502.7819" y1="440.8833" y2="440.8833"/><polygon fill="none" points="354.87,450.9173,358.87,454.9173,354.87,458.9173,350.87,454.9173" style="stroke:#B38D22;stroke-width:1;"/><text fill="#000000" font-family="sans-serif" font-size="14" lengthAdjust="spacing" textLength="429.9524" x="363.87" y="459.8493">m_color_attachments : std::vector&lt;std::shared_ptr&lt;RHI_texture&gt;&gt;</text><polygon fill="none" points="354.87,469.9852,358.87,473.9852,354.87,477.9852,350.87,473.9852" style="stroke:#B38D22;stroke-width:1;"/><text fill="#000000" font-family="sans-serif" font-size="14" lengthAdjust="spacing" textLength="344.0906" x="363.87" y="478.9172">m_depth_attachment : std::shared_ptr&lt;RHI_texture&gt;</text><polygon fill="none" points="354.87,489.0531,358.87,493.0531,354.87,497.0531,350.87,493.0531" style="stroke:#B38D22;stroke-width:1;"/><text fill="#000000" font-family="sans-serif" font-size="14" lengthAdjust="spacing" textLength="90.1316" x="363.87" y="497.9851">m_height : int</text><polygon fill="none" points="354.87,508.121,358.87,512.121,354.87,516.121,350.87,512.121" style="stroke:#B38D22;stroke-width:1;"/><text fill="#000000" font-family="sans-serif" font-size="14" lengthAdjust="spacing" textLength="84.5877" x="363.87" y="517.053">m_width : int</text></g><!--class C_0016923041866925335297--><g class="entity" data-entity="C_0016923041866925335297" data-source-line="59" data-uid="ent0005" id="entity_C_0016923041866925335297"><rect fill="#F1F1F1" height="170.4075" rx="2.5" ry="2.5" style="stroke:#181818;stroke-width:0.5;" width="498.2883" x="1538.68" y="307.0779"/><ellipse cx="1723.3324" cy="323.0779" fill="#ADD1B2" rx="11" ry="11" style="stroke:#181818;stroke-width:1;"/><path d="M1723.4417,318.6092 Q1722.5199,318.6092 1721.7855,318.9217 Q1721.0667,319.2342 1720.5667,319.8279 Q1720.0667,320.406 1719.7855,321.281 Q1719.5199,322.156 1719.5199,323.2498 Q1719.5199,324.6873 1719.9574,325.7342 Q1720.4105,326.781 1721.2542,327.3279 Q1722.1136,327.8748 1723.4261,327.8748 Q1724.2074,327.8748 1724.8949,327.7498 Q1725.598,327.6092 1726.598,327.2967 L1726.598,329.1717 Q1725.7386,329.4998 1724.973,329.6248 Q1724.223,329.7498 1723.2074,329.7498 Q1721.2855,329.7498 1719.973,328.9529 Q1718.6761,328.1404 1718.0199,326.6717 Q1717.3636,325.1873 1717.3636,323.2185 Q1717.3636,321.7967 1717.7542,320.6248 Q1718.1605,319.4373 1718.9417,318.5623 Q1719.723,317.6873 1720.8636,317.2185 Q1722.0042,316.7342 1723.473,316.7342 Q1724.4261,316.7342 1725.3167,316.9373 Q1726.223,317.1248 1727.1605,317.5935 L1726.3324,319.3748 Q1725.5511,318.9998 1724.8949,318.8123 Q1724.2386,318.6092 1723.4417,318.6092 Z " fill="#000000"/><text fill="#000000" font-family="sans-serif" font-size="14" lengthAdjust="spacing" textLength="120.4835" x="1743.8324" y="328.5099">RHI_screen_buffer</text><line style="stroke:#181818;stroke-width:0.5;" x1="1539.68" x2="2035.9683" y1="339.0779" y2="339.0779"/><ellipse cx="1549.68" cy="354.1119" fill="#84BE84" rx="3" ry="3" style="stroke:#038048;stroke-width:1;"/><text fill="#000000" font-family="sans-serif" font-size="14" lengthAdjust="spacing" textLength="472.2883" x="1558.68" y="358.0439">RHI_screen_buffer(const std::shared_ptr&lt;RHI_window&gt; &amp; window) : void</text><ellipse cx="1549.68" cy="373.1798" fill="#84BE84" rx="3" ry="3" style="stroke:#038048;stroke-width:1;"/><text fill="#000000" font-family="sans-serif" font-size="14" lengthAdjust="spacing" textLength="175.7273" x="1558.68" y="377.1118">~RHI_screen_buffer() : void</text><line style="stroke:#181818;stroke-width:1;stroke-dasharray:1.0,2.0;" x1="1539.68" x2="2035.9683" y1="385.2138" y2="385.2138"/><ellipse cx="1549.68" cy="400.2477" fill="#84BE84" rx="3" ry="3" style="stroke:#038048;stroke-width:1;"/><text fill="#000000" font-family="sans-serif" font-size="14" lengthAdjust="spacing" textLength="79.2257" x="1558.68" y="404.1797">height() : int</text><ellipse cx="1549.68" cy="419.3156" fill="#84BE84" rx="3" ry="3" style="stroke:#038048;stroke-width:1;"/><text fill="#000000" font-family="sans-serif" font-size="14" lengthAdjust="spacing" textLength="73.6817" x="1558.68" y="423.2476">width() : int</text><ellipse cx="1549.68" cy="438.3835" fill="#84BE84" rx="3" ry="3" style="stroke:#038048;stroke-width:1;"/><text fill="#000000" font-family="sans-serif" font-size="14" lengthAdjust="spacing" textLength="359.6026" x="1558.68" y="442.3155">window() const : const std::shared_ptr&lt;RHI_window&gt; &amp;</text><line style="stroke:#181818;stroke-width:0.5;" x1="1539.68" x2="2035.9683" y1="450.4175" y2="450.4175"/><polygon fill="none" points="1549.68,460.4515,1553.68,464.4515,1549.68,468.4515,1545.68,464.4515" style="stroke:#B38D22;stroke-width:1;"/><text fill="#000000" font-family="sans-serif" font-size="14" lengthAdjust="spacing" textLength="278.1369" x="1558.68" y="469.3834">m_window : std::shared_ptr&lt;RHI_window&gt;</text></g><!--reverse link C_0014412187074121619859 to C_0010734468283113446611--><g class="link" data-entity-1="C_0014412187074121619859" data-entity-2="C_0010734468283113446611" data-source-line="70" data-uid="lnk6" id="link_C_0014412187074121619859_C_0010734468283113446611"><path codeLine="70" d="M923.83,537.3679 C923.83,562.0979 923.83,576.7679 923.83,603.9879" fill="none" id="C_0014412187074121619859-backto-C_0010734468283113446611" style="stroke:#181818;stroke-width:1;"/><polygon fill="none" points="923.83,525.3679,919.83,531.3679,923.83,537.3679,927.83,531.3679,923.83,525.3679" style="stroke:#181818;stroke-width:1;"/><polygon fill="none" points="929.83,560.5009,933.83,564.5009,929.83,568.5009,925.83,564.5009" style="stroke:#B38D22;stroke-width:1;"/><text fill="#000000" font-family="sans-serif" font-size="13" lengthAdjust="spacing" textLength="131.0791" x="936.83" y="570.0449">m_color_attachments</text></g><!--reverse link C_0010729753107808637218 to C_0014412187074121619859--><g class="link" data-entity-1="C_0010729753107808637218" data-entity-2="C_0014412187074121619859" data-source-line="71" data-uid="lnk7" id="link_C_0010729753107808637218_C_0014412187074121619859"><path codeLine="71" d="M1426.654,180.0874 C1368.504,204.5074 1311.85,228.3079 1238.85,258.9679" fill="none" id="C_0010729753107808637218-backto-C_0014412187074121619859" style="stroke:#181818;stroke-width:1;"/><polygon fill="none" points="1443.25,173.1179,1424.3309,174.5554,1428.9772,185.6194,1443.25,173.1179" style="stroke:#181818;stroke-width:1;"/></g><!--reverse link C_0010729753107808637218 to C_0016923041866925335297--><g class="link" data-entity-1="C_0010729753107808637218" data-entity-2="C_0016923041866925335297" data-source-line="72" data-uid="lnk8" id="link_C_0010729753107808637218_C_0016923041866925335297"><path codeLine="72" d="M1636.0047,212.3439 C1664.5947,246.0439 1686.83,272.2479 1716.31,306.9879" fill="none" id="C_0010729753107808637218-backto-C_0016923041866925335297" style="stroke:#181818;stroke-width:1;"/><polygon fill="none" points="1624.36,198.6179,1631.4293,216.2254,1640.58,208.4623,1624.36,198.6179" style="stroke:#181818;stroke-width:1;"/></g><!--SRC=[dLPBZziW4BxpAr0hxNhb9BBNpbFfNYhr8MqlLTKhmZPsBDac0f9qjTt-zeAVu4SKxSM66MOOllbcGAGY8v0TKXGpd1CKdEAOC1Xcc7COfJYHKe03BXWE1Vpmyzjt9CWVSMBa0yGSVaQEupfhp_TNcyUDvxfgj7BTpcHg1Nm5jkRDIWi1Bsaa3ZEeXWUI9WSnWwU2fqb1ebAOfySS7r56pYJZC_YhCaNYvKYW-dGYkPgm0cSefYp70lRcCnZIWWl8HRJRdGhA8i98XAJpVUFXmkHE0hE4Y9akUu9tKFtv3JxYD9FRzhrKKkMd6l47k8DdcaR0_gSZqeeN2s3Zup5xgKrvfwhbPK2TzBL1_mtQGLf4I51qAb9X6MXcDCGYfSK3_0ITrc5G7WI5DADCUgpEkAl_IPRlTcSI-l0Es5qmvgBt0s84df22C2m8gh9kcM5M_D3sbYS2TY_Dcdg26C0sEAKPw50PST42SI9G3oSzje5w01uivQFvKiOL8DOeQh063vhQcaj687stYYNM2By7BfMk9BbvBbLY8v0gCR3Bsktde-7bpGIvKdK08V0nDu2L7bjGbQvcf1I_buFAIqMj-WXotkybqsIIYmqwzMaazMMlwc4dnILwtPObRjUFCOaKUElrQxsnem1petC_RjTBJ_utpcRbhH_TpQ1p3rOqdNlWr-eriYiBP4lJsTbMSqMtVicb79rnbaOjawfb0QMPiQxXOET5SkODL9VP08iE1jztvRdMpbhzL-vsizpMHbFgCGoqumzK4xURLW-ImuAoVJdc1wpIVHHihrq8JqzDuq1O21mUSb88yngQC9Hs4JcAWsPt9LNcnJFOSBoSRmiVsFqunhrDdaDh_4sBgNFUvbkMpo3cffHkYL8vw4VPs4_OZ7KDlQ8D2lAG4L8CEBZQFdgExsvMSh3qlAKiEvs38-g6WuP3Qnh5Ytm9q4lvVYb7FGgORWmENCVShjpTbCasXZfJrNm2tdgnX6-o3EbyFlt2tC4nBe39lhR_stWRQmWtc8tb4Dn_hHyoaSHTKa8cjKZcfpoRmREyhEG333gBrSATkyjv4iH-44SXk7z-_lsZrPScxSpTBjp56bfVI4GPhgTpRn67lllm7m00]--></g></svg>