<svg xmlns="http://www.w3.org/2000/svg" xmlns:xlink="http://www.w3.org/1999/xlink" contentStyleType="text/css" data-diagram-type="CLASS" height="867px" preserveAspectRatio="none" style="width:2802px;height:867px;background:#FFFFFF;" version="1.1" viewBox="0 0 2802 867" width="2802px" zoomAndPan="magnify"><title>RHI_buffer class diagram</title><defs/><g><text fill="#000000" font-family="sans-serif" font-size="14" font-weight="bold" lengthAdjust="spacing" textLength="174.5304" x="1306.9987" y="24.9659">RHI_buffer class diagram</text><!--class C_0002032515534055210101--><g class="entity" data-entity="C_0002032515534055210101" data-source-line="2" data-uid="ent0002" id="entity_C_0002032515534055210101"><rect fill="#F1F1F1" height="124.2717" rx="2.5" ry="2.5" style="stroke:#181818;stroke-width:0.5;" width="107.9777" x="273.44" y="717.4979"/><ellipse cx="288.44" cy="733.4979" fill="#EB937F" rx="11" ry="11" style="stroke:#181818;stroke-width:1;"/><path d="M291.9088,739.9979 L284.5963,739.9979 L284.5963,727.326 L291.9088,727.326 L291.9088,729.201 L286.6431,729.201 L286.6431,732.4667 L291.5963,732.4667 L291.5963,734.326 L286.6431,734.326 L286.6431,738.1229 L291.9088,738.1229 L291.9088,739.9979 Z " fill="#000000"/><text fill="#000000" font-family="sans-serif" font-size="14" lengthAdjust="spacing" textLength="75.9777" x="302.44" y="738.9299">Buffer_type</text><line style="stroke:#181818;stroke-width:0.5;" x1="274.44" x2="380.4177" y1="749.4979" y2="749.4979"/><text fill="#000000" font-family="sans-serif" font-size="14" lengthAdjust="spacing" textLength="48.6638" x="279.44" y="768.4639">VERTEX</text><text fill="#000000" font-family="sans-serif" font-size="14" lengthAdjust="spacing" textLength="61.8097" x="279.44" y="787.5318">ELEMENT</text><text fill="#000000" font-family="sans-serif" font-size="14" lengthAdjust="spacing" textLength="65.2258" x="279.44" y="806.5997">UNIFORM</text><text fill="#000000" font-family="sans-serif" font-size="14" lengthAdjust="spacing" textLength="62.0338" x="279.44" y="825.6676">STORAGE</text><line style="stroke:#181818;stroke-width:0.5;" x1="274.44" x2="380.4177" y1="833.7696" y2="833.7696"/></g><!--class C_0010592841599701209546--><g class="entity" data-entity="C_0010592841599701209546" data-source-line="9" data-uid="ent0003" id="entity_C_0010592841599701209546"><rect fill="#F1F1F1" height="105.2038" rx="2.5" ry="2.5" style="stroke:#181818;stroke-width:0.5;" width="118.9957" x="415.93" y="727.0279"/><ellipse cx="430.93" cy="743.0279" fill="#EB937F" rx="11" ry="11" style="stroke:#181818;stroke-width:1;"/><path d="M434.3988,749.5279 L427.0863,749.5279 L427.0863,736.856 L434.3988,736.856 L434.3988,738.731 L429.1331,738.731 L429.1331,741.9967 L434.0863,741.9967 L434.0863,743.856 L429.1331,743.856 L429.1331,747.6529 L434.3988,747.6529 L434.3988,749.5279 Z " fill="#000000"/><text fill="#000000" font-family="sans-serif" font-size="14" lengthAdjust="spacing" textLength="86.9957" x="444.93" y="748.4599">Buffer_usage</text><line style="stroke:#181818;stroke-width:0.5;" x1="416.93" x2="533.9257" y1="759.0279" y2="759.0279"/><text fill="#000000" font-family="sans-serif" font-size="14" lengthAdjust="spacing" textLength="45.7938" x="421.93" y="777.9939">STATIC</text><text fill="#000000" font-family="sans-serif" font-size="14" lengthAdjust="spacing" textLength="64.0217" x="421.93" y="797.0618">DYNAMIC</text><text fill="#000000" font-family="sans-serif" font-size="14" lengthAdjust="spacing" textLength="53.6058" x="421.93" y="816.1297">STREAM</text><line style="stroke:#181818;stroke-width:0.5;" x1="416.93" x2="533.9257" y1="824.2317" y2="824.2317"/></g><!--class C_0009796764016695142166--><g class="entity" data-entity="C_0009796764016695142166" data-source-line="15" data-uid="ent0004" id="entity_C_0009796764016695142166"><rect fill="#F1F1F1" height="86.1358" rx="2.5" ry="2.5" style="stroke:#181818;stroke-width:0.5;" width="157.3415" x="1294.75" y="443.4879"/><ellipse cx="1309.75" cy="459.4879" fill="#EB937F" rx="11" ry="11" style="stroke:#181818;stroke-width:1;"/><path d="M1313.2188,465.9879 L1305.9063,465.9879 L1305.9063,453.316 L1313.2188,453.316 L1313.2188,455.191 L1307.9531,455.191 L1307.9531,458.4567 L1312.9063,458.4567 L1312.9063,460.316 L1307.9531,460.316 L1307.9531,464.1129 L1313.2188,464.1129 L1313.2188,465.9879 Z " fill="#000000"/><text fill="#000000" font-family="sans-serif" font-size="14" lengthAdjust="spacing" textLength="125.3415" x="1323.75" y="464.9199">Buffer_iterate_type</text><line style="stroke:#181818;stroke-width:0.5;" x1="1295.75" x2="1451.0915" y1="475.4879" y2="475.4879"/><text fill="#000000" font-family="sans-serif" font-size="14" lengthAdjust="spacing" textLength="79.8417" x="1300.75" y="494.4539">PER_VERTEX</text><text fill="#000000" font-family="sans-serif" font-size="14" lengthAdjust="spacing" textLength="98.2516" x="1300.75" y="513.5218">PER_INSTANCE</text><line style="stroke:#181818;stroke-width:0.5;" x1="1295.75" x2="1451.0915" y1="521.6238" y2="521.6238"/></g><!--class C_0013782537434528127808--><g class="entity" data-entity="C_0013782537434528127808" data-source-line="20" data-uid="ent0005" id="entity_C_0013782537434528127808"><rect fill="#F1F1F1" height="124.2717" rx="2.5" ry="2.5" style="stroke:#181818;stroke-width:0.5;" width="143.5656" x="1769.64" y="424.4179"/><ellipse cx="1784.64" cy="440.4179" fill="#EB937F" rx="11" ry="11" style="stroke:#181818;stroke-width:1;"/><path d="M1788.1088,446.9179 L1780.7963,446.9179 L1780.7963,434.246 L1788.1088,434.246 L1788.1088,436.121 L1782.8431,436.121 L1782.8431,439.3867 L1787.7963,439.3867 L1787.7963,441.246 L1782.8431,441.246 L1782.8431,445.0429 L1788.1088,445.0429 L1788.1088,446.9179 Z " fill="#000000"/><text fill="#000000" font-family="sans-serif" font-size="14" lengthAdjust="spacing" textLength="111.5656" x="1798.64" y="445.8499">Buffer_data_type</text><line style="stroke:#181818;stroke-width:0.5;" x1="1770.64" x2="1912.2056" y1="456.4179" y2="456.4179"/><text fill="#000000" font-family="sans-serif" font-size="14" lengthAdjust="spacing" textLength="42.2658" x="1775.64" y="475.3839">FLOAT</text><text fill="#000000" font-family="sans-serif" font-size="14" lengthAdjust="spacing" textLength="23.1699" x="1775.64" y="494.4518">INT</text><text fill="#000000" font-family="sans-serif" font-size="14" lengthAdjust="spacing" textLength="33.4039" x="1775.64" y="513.5197">UINT</text><text fill="#000000" font-family="sans-serif" font-size="14" lengthAdjust="spacing" textLength="38.3038" x="1775.64" y="532.5876">BOOL</text><line style="stroke:#181818;stroke-width:0.5;" x1="1770.64" x2="1912.2056" y1="540.6896" y2="540.6896"/></g><!--class C_0005950535501858680113--><g class="entity" data-entity="C_0005950535501858680113" data-source-line="27" data-uid="ent0006" id="entity_C_0005950535501858680113"><rect fill="#F1F1F1" height="162.4075" rx="2.5" ry="2.5" style="stroke:#181818;stroke-width:0.5;" width="272.385" x="570.23" y="698.4279"/><ellipse cx="623.5488" cy="714.4279" fill="#ADD1B2" rx="11" ry="11" style="stroke:#181818;stroke-width:1;"/><path d="M623.6582,709.9592 Q622.7363,709.9592 622.0019,710.2717 Q621.2832,710.5842 620.7832,711.1779 Q620.2832,711.756 620.0019,712.631 Q619.7363,713.506 619.7363,714.5998 Q619.7363,716.0373 620.1738,717.0842 Q620.6269,718.131 621.4707,718.6779 Q622.3301,719.2248 623.6426,719.2248 Q624.4238,719.2248 625.1113,719.0998 Q625.8144,718.9592 626.8144,718.6467 L626.8144,720.5217 Q625.9551,720.8498 625.1894,720.9748 Q624.4394,721.0998 623.4238,721.0998 Q621.5019,721.0998 620.1894,720.3029 Q618.8926,719.4904 618.2363,718.0217 Q617.5801,716.5373 617.5801,714.5685 Q617.5801,713.1467 617.9707,711.9748 Q618.3769,710.7873 619.1582,709.9123 Q619.9394,709.0373 621.0801,708.5685 Q622.2207,708.0842 623.6894,708.0842 Q624.6426,708.0842 625.5332,708.2873 Q626.4394,708.4748 627.3769,708.9435 L626.5488,710.7248 Q625.7676,710.3498 625.1113,710.1623 Q624.4551,709.9592 623.6582,709.9592 Z " fill="#000000"/><text fill="#000000" font-family="sans-serif" font-size="14" lengthAdjust="spacing" textLength="157.2474" x="644.0488" y="719.8599">RHI_buffer_access_flags</text><line style="stroke:#181818;stroke-width:0.5;" x1="571.23" x2="841.615" y1="730.4279" y2="730.4279"/><ellipse cx="581.23" cy="745.4619" fill="#84BE84" rx="3" ry="3" style="stroke:#038048;stroke-width:1;"/><text fill="#000000" font-family="sans-serif" font-size="14" lengthAdjust="spacing" text-decoration="underline" textLength="240.9111" x="590.23" y="749.3939">read_only() : RHI_buffer_access_flags</text><ellipse cx="581.23" cy="764.5298" fill="#84BE84" rx="3" ry="3" style="stroke:#038048;stroke-width:1;"/><text fill="#000000" font-family="sans-serif" font-size="14" lengthAdjust="spacing" text-decoration="underline" textLength="246.385" x="590.23" y="768.4618">read_write() : RHI_buffer_access_flags</text><ellipse cx="581.23" cy="783.5977" fill="#84BE84" rx="3" ry="3" style="stroke:#038048;stroke-width:1;"/><text fill="#000000" font-family="sans-serif" font-size="14" lengthAdjust="spacing" text-decoration="underline" textLength="244.117" x="590.23" y="787.5297">write_only() : RHI_buffer_access_flags</text><line style="stroke:#181818;stroke-width:0.5;" x1="571.23" x2="841.615" y1="795.6317" y2="795.6317"/><ellipse cx="581.23" cy="810.6656" fill="none" rx="3" ry="3" style="stroke:#038048;stroke-width:1;"/><text fill="#000000" font-family="sans-serif" font-size="14" lengthAdjust="spacing" textLength="151.4094" x="590.23" y="814.5976">is_buffer_discard : bool</text><ellipse cx="581.23" cy="829.7335" fill="none" rx="3" ry="3" style="stroke:#038048;stroke-width:1;"/><text fill="#000000" font-family="sans-serif" font-size="14" lengthAdjust="spacing" textLength="86.8697" x="590.23" y="833.6655">is_read : bool</text><ellipse cx="581.23" cy="848.8015" fill="none" rx="3" ry="3" style="stroke:#038048;stroke-width:1;"/><text fill="#000000" font-family="sans-serif" font-size="14" lengthAdjust="spacing" textLength="90.0757" x="590.23" y="852.7334">is_write : bool</text></g><!--class C_0017791414552427487908--><g class="entity" data-entity="C_0017791414552427487908" data-source-line="37" data-uid="ent0007" id="entity_C_0017791414552427487908"><rect fill="#F1F1F1" height="265.7471" rx="2.5" ry="2.5" style="stroke:#181818;stroke-width:0.5;" width="662.4797" x="144.19" y="353.6879"/><ellipse cx="438.539" cy="369.6879" fill="#A9DCDF" rx="11" ry="11" style="stroke:#181818;stroke-width:1;"/><path d="M441.8827,374.9379 L440.414,371.1879 L435.9765,371.1879 L434.539,374.9379 L432.414,374.9379 L437.3671,362.2192 L439.1171,362.2192 L444.039,374.9379 L441.8827,374.9379 Z M438.539,365.9848 Q438.4921,365.8285 438.3671,365.4692 Q438.2421,365.1098 438.1327,364.7348 Q438.0233,364.3442 438.2265,364.2817 Q438.3827,364.4692 438.289,364.8285 Q438.1952,365.1723 438.1015,365.4692 Q438.0077,365.7504 437.9296,365.9848 L436.6952,369.2973 L439.7733,369.2973 L438.539,365.9848 Z " fill="#000000"/><text fill="#000000" font-family="sans-serif" font-size="14" font-style="italic" lengthAdjust="spacing" textLength="65.2818" x="459.039" y="375.1199">RHI_buffer</text><line style="stroke:#181818;stroke-width:0.5;" x1="145.19" x2="805.6697" y1="385.6879" y2="385.6879"/><ellipse cx="155.19" cy="400.7219" fill="#84BE84" rx="3" ry="3" style="stroke:#038048;stroke-width:1;"/><text fill="#000000" font-family="sans-serif" font-size="14" lengthAdjust="spacing" textLength="636.4797" x="164.19" y="404.6539">RHI_buffer(Buffer_type type, Buffer_usage usage, unsigned int data_size, const void * data) : void</text><ellipse cx="155.19" cy="419.7898" fill="#84BE84" rx="3" ry="3" style="stroke:#038048;stroke-width:1;"/><text fill="#000000" font-family="sans-serif" font-size="14" lengthAdjust="spacing" textLength="125.8595" x="164.19" y="423.7218">~RHI_buffer() : void</text><line style="stroke:#181818;stroke-width:1;stroke-dasharray:1.0,2.0;" x1="145.19" x2="805.6697" y1="431.8238" y2="431.8238"/><ellipse cx="155.19" cy="446.8577" fill="#84BE84" rx="3" ry="3" style="stroke:#038048;stroke-width:1;"/><text fill="#000000" font-family="sans-serif" font-size="14" lengthAdjust="spacing" textLength="201.4032" x="164.19" y="450.7897">data_size() const : unsigned int</text><ellipse cx="155.19" cy="465.9256" fill="#84BE84" rx="3" ry="3" style="stroke:#038048;stroke-width:1;"/><text fill="#000000" font-family="sans-serif" font-size="14" font-style="italic" lengthAdjust="spacing" textLength="602.0676" x="164.19" y="469.8576">map_buffer(std::function&lt;void (void *)&gt; accessor, const RHI_buffer_access_flags &amp; flags) = 0 : void</text><ellipse cx="155.19" cy="484.9935" fill="#84BE84" rx="3" ry="3" style="stroke:#038048;stroke-width:1;"/><text fill="#000000" font-family="sans-serif" font-size="14" font-style="italic" lengthAdjust="spacing" textLength="415.4203" x="164.19" y="488.9255">reallocate_data(const void * data, unsigned int data_size) = 0 : void</text><ellipse cx="155.19" cy="504.0615" fill="#84BE84" rx="3" ry="3" style="stroke:#038048;stroke-width:1;"/><text fill="#000000" font-family="sans-serif" font-size="14" font-style="italic" lengthAdjust="spacing" textLength="532.6978" x="164.19" y="507.9934">subsitute_data(const void * data, unsigned int data_size, unsigned int offset) = 0 : void</text><ellipse cx="155.19" cy="523.1294" fill="#84BE84" rx="3" ry="3" style="stroke:#038048;stroke-width:1;"/><text fill="#000000" font-family="sans-serif" font-size="14" lengthAdjust="spacing" textLength="163.3513" x="164.19" y="527.0614">type() const : Buffer_type</text><ellipse cx="155.19" cy="542.1973" fill="#84BE84" rx="3" ry="3" style="stroke:#038048;stroke-width:1;"/><text fill="#000000" font-family="sans-serif" font-size="14" lengthAdjust="spacing" textLength="185.3873" x="164.19" y="546.1293">usage() const : Buffer_usage</text><line style="stroke:#181818;stroke-width:0.5;" x1="145.19" x2="805.6697" y1="554.2313" y2="554.2313"/><polygon fill="none" points="155.19,564.2652,159.19,568.2652,155.19,572.2652,151.19,568.2652" style="stroke:#B38D22;stroke-width:1;"/><text fill="#000000" font-family="sans-serif" font-size="14" lengthAdjust="spacing" textLength="173.0673" x="164.19" y="573.1972">m_data_size : unsigned int</text><polygon fill="none" points="155.19,583.3331,159.19,587.3331,155.19,591.3331,151.19,587.3331" style="stroke:#B38D22;stroke-width:1;"/><text fill="#000000" font-family="sans-serif" font-size="14" lengthAdjust="spacing" textLength="135.0155" x="164.19" y="592.2651">m_type : Buffer_type</text><polygon fill="none" points="155.19,602.401,159.19,606.401,155.19,610.401,151.19,606.401" style="stroke:#B38D22;stroke-width:1;"/><text fill="#000000" font-family="sans-serif" font-size="14" lengthAdjust="spacing" textLength="157.0514" x="164.19" y="611.333">m_usage : Buffer_usage</text></g><!--class C_0000365570118619516250--><g class="entity" data-entity="C_0000365570118619516250" data-source-line="53" data-uid="ent0008" id="entity_C_0000365570118619516250"><rect fill="#F1F1F1" height="227.6113" rx="2.5" ry="2.5" style="stroke:#181818;stroke-width:0.5;" width="788.5915" x="979.13" y="47.0679"/><ellipse cx="1307.814" cy="63.0679" fill="#ADD1B2" rx="11" ry="11" style="stroke:#181818;stroke-width:1;"/><path d="M1307.9234,58.5992 Q1307.0015,58.5992 1306.2671,58.9117 Q1305.5484,59.2242 1305.0484,59.8179 Q1304.5484,60.396 1304.2671,61.271 Q1304.0015,62.146 1304.0015,63.2398 Q1304.0015,64.6773 1304.439,65.7242 Q1304.8921,66.771 1305.7359,67.3179 Q1306.5952,67.8648 1307.9077,67.8648 Q1308.689,67.8648 1309.3765,67.7398 Q1310.0796,67.5992 1311.0796,67.2867 L1311.0796,69.1617 Q1310.2202,69.4898 1309.4546,69.6148 Q1308.7046,69.7398 1307.689,69.7398 Q1305.7671,69.7398 1304.4546,68.9429 Q1303.1577,68.1304 1302.5015,66.6617 Q1301.8452,65.1773 1301.8452,63.2085 Q1301.8452,61.7867 1302.2359,60.6148 Q1302.6421,59.4273 1303.4234,58.5523 Q1304.2046,57.6773 1305.3452,57.2085 Q1306.4859,56.7242 1307.9546,56.7242 Q1308.9077,56.7242 1309.7984,56.9273 Q1310.7046,57.1148 1311.6421,57.5835 L1310.814,59.3648 Q1310.0327,58.9898 1309.3765,58.8023 Q1308.7202,58.5992 1307.9234,58.5992 Z " fill="#000000"/><text fill="#000000" font-family="sans-serif" font-size="14" lengthAdjust="spacing" textLength="122.7235" x="1328.314" y="68.4999">IRHI_vertex_buffer</text><line style="stroke:#181818;stroke-width:0.5;" x1="980.13" x2="1766.7215" y1="79.0679" y2="79.0679"/><ellipse cx="990.13" cy="94.1019" fill="#84BE84" rx="3" ry="3" style="stroke:#038048;stroke-width:1;"/><text fill="#000000" font-family="sans-serif" font-size="14" lengthAdjust="spacing" textLength="762.5915" x="999.13" y="98.0339">IRHI_vertex_buffer(Buffer_data_type data_type, Buffer_iterate_type iterate_type, unsigned int unit_data_count) : void</text><ellipse cx="990.13" cy="113.1698" fill="#84BE84" rx="3" ry="3" style="stroke:#038048;stroke-width:1;"/><text fill="#000000" font-family="sans-serif" font-size="14" lengthAdjust="spacing" textLength="177.9673" x="999.13" y="117.1018">~IRHI_vertex_buffer() : void</text><line style="stroke:#181818;stroke-width:1;stroke-dasharray:1.0,2.0;" x1="980.13" x2="1766.7215" y1="125.2038" y2="125.2038"/><ellipse cx="990.13" cy="140.2377" fill="#84BE84" rx="3" ry="3" style="stroke:#038048;stroke-width:1;"/><text fill="#000000" font-family="sans-serif" font-size="14" lengthAdjust="spacing" textLength="281.3149" x="999.13" y="144.1697">buffer_data_type() const : Buffer_data_type</text><ellipse cx="990.13" cy="159.3056" fill="#84BE84" rx="3" ry="3" style="stroke:#038048;stroke-width:1;"/><text fill="#000000" font-family="sans-serif" font-size="14" lengthAdjust="spacing" textLength="262.079" x="999.13" y="163.2376">iterate_type() const : Buffer_iterate_type</text><ellipse cx="990.13" cy="178.3735" fill="#84BE84" rx="3" ry="3" style="stroke:#038048;stroke-width:1;"/><text fill="#000000" font-family="sans-serif" font-size="14" lengthAdjust="spacing" textLength="246.343" x="999.13" y="182.3055">unit_data_count() const : unsigned int</text><ellipse cx="990.13" cy="197.4415" fill="#84BE84" rx="3" ry="3" style="stroke:#038048;stroke-width:1;"/><text fill="#000000" font-family="sans-serif" font-size="14" lengthAdjust="spacing" textLength="233.5891" x="999.13" y="201.3734">unit_data_size() const : unsigned int</text><line style="stroke:#181818;stroke-width:0.5;" x1="980.13" x2="1766.7215" y1="209.4754" y2="209.4754"/><polygon fill="none" points="990.13,219.5094,994.13,223.5094,990.13,227.5094,986.13,223.5094" style="stroke:#B38D22;stroke-width:1;"/><text fill="#000000" font-family="sans-serif" font-size="14" lengthAdjust="spacing" textLength="206.1912" x="999.13" y="228.4414">m_data_type : Buffer_data_type</text><polygon fill="none" points="990.13,238.5773,994.13,242.5773,990.13,246.5773,986.13,242.5773" style="stroke:#B38D22;stroke-width:1;"/><text fill="#000000" font-family="sans-serif" font-size="14" lengthAdjust="spacing" textLength="233.7431" x="999.13" y="247.5093">m_iterate_type : Buffer_iterate_type</text><polygon fill="none" points="990.13,257.6452,994.13,261.6452,990.13,265.6452,986.13,261.6452" style="stroke:#B38D22;stroke-width:1;"/><text fill="#000000" font-family="sans-serif" font-size="14" lengthAdjust="spacing" textLength="218.0071" x="999.13" y="266.5772">m_unit_data_count : unsigned int</text></g><!--class C_0000963699493091773110--><g class="entity" data-entity="C_0000963699493091773110" data-source-line="67" data-uid="ent0009" id="entity_C_0000963699493091773110"><rect fill="#F1F1F1" height="151.3396" rx="2.5" ry="2.5" style="stroke:#181818;stroke-width:0.5;" width="368.0327" x="1802.41" y="85.2079"/><ellipse cx="1914.3396" cy="101.2079" fill="#ADD1B2" rx="11" ry="11" style="stroke:#181818;stroke-width:1;"/><path d="M1914.449,96.7392 Q1913.5271,96.7392 1912.7928,97.0517 Q1912.074,97.3642 1911.574,97.9579 Q1911.074,98.536 1910.7928,99.411 Q1910.5271,100.286 1910.5271,101.3798 Q1910.5271,102.8173 1910.9646,103.8642 Q1911.4178,104.911 1912.2615,105.4579 Q1913.1209,106.0048 1914.4334,106.0048 Q1915.2146,106.0048 1915.9021,105.8798 Q1916.6053,105.7392 1917.6053,105.4267 L1917.6053,107.3017 Q1916.7459,107.6298 1915.9803,107.7548 Q1915.2303,107.8798 1914.2146,107.8798 Q1912.2928,107.8798 1910.9803,107.0829 Q1909.6834,106.2704 1909.0271,104.8017 Q1908.3709,103.3173 1908.3709,101.3485 Q1908.3709,99.9267 1908.7615,98.7548 Q1909.1678,97.5673 1909.949,96.6923 Q1910.7303,95.8173 1911.8709,95.3485 Q1913.0115,94.8642 1914.4803,94.8642 Q1915.4334,94.8642 1916.324,95.0673 Q1917.2303,95.2548 1918.1678,95.7235 L1917.3396,97.5048 Q1916.5584,97.1298 1915.9021,96.9423 Q1915.2459,96.7392 1914.449,96.7392 Z " fill="#000000"/><text fill="#000000" font-family="sans-serif" font-size="14" lengthAdjust="spacing" textLength="135.6735" x="1934.8396" y="106.6399">IRHI_element_buffer</text><line style="stroke:#181818;stroke-width:0.5;" x1="1803.41" x2="2169.4427" y1="117.2079" y2="117.2079"/><ellipse cx="1813.41" cy="132.2419" fill="#84BE84" rx="3" ry="3" style="stroke:#038048;stroke-width:1;"/><text fill="#000000" font-family="sans-serif" font-size="14" lengthAdjust="spacing" textLength="342.0327" x="1822.41" y="136.1739">IRHI_element_buffer(unsigned int data_count) : void</text><ellipse cx="1813.41" cy="151.3098" fill="#84BE84" rx="3" ry="3" style="stroke:#038048;stroke-width:1;"/><text fill="#000000" font-family="sans-serif" font-size="14" lengthAdjust="spacing" textLength="190.9172" x="1822.41" y="155.2418">~IRHI_element_buffer() : void</text><line style="stroke:#181818;stroke-width:1;stroke-dasharray:1.0,2.0;" x1="1803.41" x2="2169.4427" y1="163.3438" y2="163.3438"/><ellipse cx="1813.41" cy="178.3777" fill="#84BE84" rx="3" ry="3" style="stroke:#038048;stroke-width:1;"/><text fill="#000000" font-family="sans-serif" font-size="14" lengthAdjust="spacing" textLength="262.723" x="1822.41" y="182.3097">attribute_type() const : Buffer_data_type</text><ellipse cx="1813.41" cy="197.4456" fill="#84BE84" rx="3" ry="3" style="stroke:#038048;stroke-width:1;"/><text fill="#000000" font-family="sans-serif" font-size="14" lengthAdjust="spacing" textLength="214.1572" x="1822.41" y="201.3776">data_count() const : unsigned int</text><line style="stroke:#181818;stroke-width:0.5;" x1="1803.41" x2="2169.4427" y1="209.4796" y2="209.4796"/><polygon fill="none" points="1813.41,219.5135,1817.41,223.5135,1813.41,227.5135,1809.41,223.5135" style="stroke:#B38D22;stroke-width:1;"/><text fill="#000000" font-family="sans-serif" font-size="14" lengthAdjust="spacing" textLength="185.8213" x="1822.41" y="228.4455">m_data_count : unsigned int</text></g><!--class C_0016650475817225599687--><g class="entity" data-entity="C_0016650475817225599687" data-source-line="77" data-uid="ent0010" id="entity_C_0016650475817225599687"><rect fill="#F1F1F1" height="170.4075" rx="2.5" ry="2.5" style="stroke:#181818;stroke-width:0.5;" width="590.1977" x="2205.33" y="75.6779"/><ellipse cx="2432.7661" cy="91.6779" fill="#A9DCDF" rx="11" ry="11" style="stroke:#181818;stroke-width:1;"/><path d="M2436.1098,96.9279 L2434.6411,93.1779 L2430.2036,93.1779 L2428.7661,96.9279 L2426.6411,96.9279 L2431.5942,84.2092 L2433.3442,84.2092 L2438.2661,96.9279 L2436.1098,96.9279 Z M2432.7661,87.9748 Q2432.7192,87.8185 2432.5942,87.4592 Q2432.4692,87.0998 2432.3598,86.7248 Q2432.2505,86.3342 2432.4536,86.2717 Q2432.6098,86.4592 2432.5161,86.8185 Q2432.4223,87.1623 2432.3286,87.4592 Q2432.2348,87.7404 2432.1567,87.9748 L2430.9223,91.2873 L2434.0005,91.2873 L2432.7661,87.9748 Z " fill="#000000"/><text fill="#000000" font-family="sans-serif" font-size="14" font-style="italic" lengthAdjust="spacing" textLength="126.8255" x="2453.2661" y="97.1099">IRHI_memory_buffer</text><line style="stroke:#181818;stroke-width:0.5;" x1="2206.33" x2="2794.5277" y1="107.6779" y2="107.6779"/><ellipse cx="2216.33" cy="122.7119" fill="#84BE84" rx="3" ry="3" style="stroke:#038048;stroke-width:1;"/><text fill="#000000" font-family="sans-serif" font-size="14" lengthAdjust="spacing" textLength="184.2813" x="2225.33" y="126.6439">IRHI_memory_buffer() : void</text><ellipse cx="2216.33" cy="141.7798" fill="#84BE84" rx="3" ry="3" style="stroke:#038048;stroke-width:1;"/><text fill="#000000" font-family="sans-serif" font-size="14" lengthAdjust="spacing" textLength="192.2892" x="2225.33" y="145.7118">~IRHI_memory_buffer() : void</text><line style="stroke:#181818;stroke-width:1;stroke-dasharray:1.0,2.0;" x1="2206.33" x2="2794.5277" y1="153.8138" y2="153.8138"/><ellipse cx="2216.33" cy="168.8477" fill="#84BE84" rx="3" ry="3" style="stroke:#038048;stroke-width:1;"/><text fill="#000000" font-family="sans-serif" font-size="14" lengthAdjust="spacing" textLength="143.0234" x="2225.33" y="172.7797">alignment() const : int</text><ellipse cx="2216.33" cy="187.9156" fill="#84BE84" rx="3" ry="3" style="stroke:#038048;stroke-width:1;"/><text fill="#000000" font-family="sans-serif" font-size="14" font-style="italic" lengthAdjust="spacing" textLength="283.7789" x="2225.33" y="191.8476">bind_memory(unsigned int position) = 0 : void</text><ellipse cx="2216.33" cy="206.9835" fill="#84BE84" rx="3" ry="3" style="stroke:#038048;stroke-width:1;"/><text fill="#000000" font-family="sans-serif" font-size="14" font-style="italic" lengthAdjust="spacing" textLength="564.1977" x="2225.33" y="210.9155">bind_partial_memory(unsigned int position, unsigned int offset, unsigned int size) = 0 : void</text><line style="stroke:#181818;stroke-width:0.5;" x1="2206.33" x2="2794.5277" y1="219.0175" y2="219.0175"/><polygon fill="none" points="2216.33,229.0515,2220.33,233.0515,2216.33,237.0515,2212.33,233.0515" style="stroke:#B38D22;stroke-width:1;"/><text fill="#000000" font-family="sans-serif" font-size="14" lengthAdjust="spacing" textLength="114.6875" x="2225.33" y="237.9834">m_alignment : int</text></g><!--class C_0000165747513007540689--><g class="entity" data-entity="C_0000165747513007540689" data-source-line="88" data-uid="ent0011" id="entity_C_0000165747513007540689"><rect fill="#F1F1F1" height="132.2717" rx="2.5" ry="2.5" style="stroke:#181818;stroke-width:0.5;" width="936.8502" x="7" y="94.7379"/><ellipse cx="387.0214" cy="110.7379" fill="#A9DCDF" rx="11" ry="11" style="stroke:#181818;stroke-width:1;"/><path d="M390.3651,115.9879 L388.8964,112.2379 L384.4589,112.2379 L383.0214,115.9879 L380.8964,115.9879 L385.8495,103.2692 L387.5995,103.2692 L392.5214,115.9879 L390.3651,115.9879 Z M387.0214,107.0348 Q386.9745,106.8785 386.8495,106.5192 Q386.7245,106.1598 386.6151,105.7848 Q386.5058,105.3942 386.7089,105.3317 Q386.8651,105.5192 386.7714,105.8785 Q386.6776,106.2223 386.5839,106.5192 Q386.4901,106.8004 386.412,107.0348 L385.1776,110.3473 L388.2558,110.3473 L387.0214,107.0348 Z " fill="#000000"/><text fill="#000000" font-family="sans-serif" font-size="14" font-style="italic" lengthAdjust="spacing" textLength="168.3074" x="407.5214" y="116.1699">RHI_memory_buffer_binder</text><line style="stroke:#181818;stroke-width:0.5;" x1="8" x2="942.8502" y1="126.7379" y2="126.7379"/><ellipse cx="18" cy="141.7719" fill="#84BE84" rx="3" ry="3" style="stroke:#038048;stroke-width:1;"/><text fill="#000000" font-family="sans-serif" font-size="14" lengthAdjust="spacing" textLength="228.9131" x="27" y="145.7039">RHI_memory_buffer_binder() : void</text><ellipse cx="18" cy="160.8398" fill="#84BE84" rx="3" ry="3" style="stroke:#038048;stroke-width:1;"/><text fill="#000000" font-family="sans-serif" font-size="14" lengthAdjust="spacing" textLength="236.9211" x="27" y="164.7718">~RHI_memory_buffer_binder() : void</text><line style="stroke:#181818;stroke-width:1;stroke-dasharray:1.0,2.0;" x1="8" x2="942.8502" y1="172.8738" y2="172.8738"/><ellipse cx="18" cy="187.9077" fill="#84BE84" rx="3" ry="3" style="stroke:#038048;stroke-width:1;"/><text fill="#000000" font-family="sans-serif" font-size="14" font-style="italic" lengthAdjust="spacing" textLength="910.8502" x="27" y="191.8397">bind_memory_bufer_partial(const std::shared_ptr&lt;RHI_buffer&gt; &amp; buffer, unsigned int binding_point, unsigned int offset, unsigned int size) = 0 : void</text><ellipse cx="18" cy="206.9756" fill="#84BE84" rx="3" ry="3" style="stroke:#038048;stroke-width:1;"/><text fill="#000000" font-family="sans-serif" font-size="14" font-style="italic" lengthAdjust="spacing" textLength="634.8832" x="27" y="210.9076">bind_memory_buffer(const std::shared_ptr&lt;RHI_buffer&gt; &amp; buffer, unsigned int binding_point) = 0 : void</text><line style="stroke:#181818;stroke-width:0.5;" x1="8" x2="942.8502" y1="219.0096" y2="219.0096"/></g><!--link C_0017791414552427487908 to C_0005950535501858680113--><g class="link" data-entity-1="C_0017791414552427487908" data-entity-2="C_0005950535501858680113" data-source-line="97" data-uid="lnk12" id="link_C_0017791414552427487908_C_0005950535501858680113"><path codeLine="97" d="M580.45,619.8979 C601.66,646.6279 619.62,669.2582 638.89,693.5382" fill="none" id="C_0017791414552427487908-to-C_0005950535501858680113" style="stroke:#181818;stroke-width:1;stroke-dasharray:7.0,7.0;"/><polygon fill="#181818" points="642.62,698.2379,640.1582,688.7017,639.5117,694.3215,633.8919,693.675,642.62,698.2379" style="stroke:#181818;stroke-width:1;"/></g><!--reverse link C_0017791414552427487908 to C_0002032515534055210101--><g class="link" data-entity-1="C_0017791414552427487908" data-entity-2="C_0002032515534055210101" data-source-line="98" data-uid="lnk13" id="link_C_0017791414552427487908_C_0002032515534055210101"><path codeLine="98" d="M402.7004,630.5942 C385.4404,664.5342 373.13,688.7379 358.69,717.1479" fill="none" id="C_0017791414552427487908-backto-C_0002032515534055210101" style="stroke:#181818;stroke-width:1;"/><polygon fill="none" points="408.14,619.8979,401.8548,623.4329,402.7004,630.5942,408.9857,627.0593,408.14,619.8979" style="stroke:#181818;stroke-width:1;"/><polygon fill="none" points="398.56,654.7809,402.56,658.7809,398.56,662.7809,394.56,658.7809" style="stroke:#B38D22;stroke-width:1;"/><text fill="#000000" font-family="sans-serif" font-size="13" lengthAdjust="spacing" textLength="44.577" x="405.56" y="664.3249">m_type</text></g><!--reverse link C_0017791414552427487908 to C_0010592841599701209546--><g class="link" data-entity-1="C_0017791414552427487908" data-entity-2="C_0010592841599701209546" data-source-line="99" data-uid="lnk14" id="link_C_0017791414552427487908_C_0010592841599701209546"><path codeLine="99" d="M475.43,631.8979 C475.43,669.7379 475.43,696.7879 475.43,726.6779" fill="none" id="C_0017791414552427487908-backto-C_0010592841599701209546" style="stroke:#181818;stroke-width:1;"/><polygon fill="none" points="475.43,619.8979,471.43,625.8979,475.43,631.8979,479.43,625.8979,475.43,619.8979" style="stroke:#181818;stroke-width:1;"/><polygon fill="none" points="481.43,654.7809,485.43,658.7809,481.43,662.7809,477.43,658.7809" style="stroke:#B38D22;stroke-width:1;"/><text fill="#000000" font-family="sans-serif" font-size="13" lengthAdjust="spacing" textLength="54.808" x="488.43" y="664.3249">m_usage</text></g><!--reverse link C_0000365570118619516250 to C_0013782537434528127808--><g class="link" data-entity-1="C_0000365570118619516250" data-entity-2="C_0013782537434528127808" data-source-line="100" data-uid="lnk15" id="link_C_0000365570118619516250_C_0013782537434528127808"><path codeLine="100" d="M1546.9797,281.9136 C1626.3197,336.7836 1707.68,393.0579 1769.4,435.7379" fill="none" id="C_0000365570118619516250-backto-C_0013782537434528127808" style="stroke:#181818;stroke-width:1;"/><polygon fill="none" points="1537.11,275.0879,1539.7696,281.7906,1546.9797,281.9136,1544.3201,275.2109,1537.11,275.0879" style="stroke:#181818;stroke-width:1;"/><polygon fill="none" points="1599.39,310.0409,1603.39,314.0409,1599.39,318.0409,1595.39,314.0409" style="stroke:#B38D22;stroke-width:1;"/><text fill="#000000" font-family="sans-serif" font-size="13" lengthAdjust="spacing" textLength="77.6231" x="1606.39" y="319.5849">m_data_type</text></g><!--reverse link C_0000365570118619516250 to C_0009796764016695142166--><g class="link" data-entity-1="C_0000365570118619516250" data-entity-2="C_0009796764016695142166" data-source-line="101" data-uid="lnk16" id="link_C_0000365570118619516250_C_0009796764016695142166"><path codeLine="101" d="M1373.43,287.0879 C1373.43,345.2379 1373.43,400.6279 1373.43,443.1779" fill="none" id="C_0000365570118619516250-backto-C_0009796764016695142166" style="stroke:#181818;stroke-width:1;"/><polygon fill="none" points="1373.43,275.0879,1369.43,281.0879,1373.43,287.0879,1377.43,281.0879,1373.43,275.0879" style="stroke:#181818;stroke-width:1;"/><polygon fill="none" points="1379.43,310.0409,1383.43,314.0409,1379.43,318.0409,1375.43,314.0409" style="stroke:#B38D22;stroke-width:1;"/><text fill="#000000" font-family="sans-serif" font-size="13" lengthAdjust="spacing" textLength="90.4151" x="1386.43" y="319.5849">m_iterate_type</text></g><!--link C_0000963699493091773110 to C_0013782537434528127808--><g class="link" data-entity-1="C_0000963699493091773110" data-entity-2="C_0013782537434528127808" data-source-line="102" data-uid="lnk17" id="link_C_0000963699493091773110_C_0013782537434528127808"><path codeLine="102" d="M1952.79,236.9479 C1927.32,293.8179 1895.2028,365.5022 1871.3728,418.7022" fill="none" id="C_0000963699493091773110-to-C_0013782537434528127808" style="stroke:#181818;stroke-width:1;stroke-dasharray:7.0,7.0;"/><polygon fill="#181818" points="1868.92,424.1779,1876.2497,417.5995,1870.964,419.6148,1868.9486,414.3291,1868.92,424.1779" style="stroke:#181818;stroke-width:1;"/></g><!--link C_0000165747513007540689 to C_0017791414552427487908--><g class="link" data-entity-1="C_0000165747513007540689" data-entity-2="C_0017791414552427487908" data-source-line="103" data-uid="lnk18" id="link_C_0000165747513007540689_C_0017791414552427487908"><path codeLine="103" d="M475.43,227.3779 C475.43,263.5879 475.43,303.9079 475.43,347.2879" fill="none" id="C_0000165747513007540689-to-C_0017791414552427487908" style="stroke:#181818;stroke-width:1;stroke-dasharray:7.0,7.0;"/><polygon fill="#181818" points="475.43,353.2879,479.43,344.2879,475.43,348.2879,471.43,344.2879,475.43,353.2879" style="stroke:#181818;stroke-width:1;"/></g><!--SRC=[hLTjRzis4FwkNq5amEhKiK5AebwCBe2REPq1lmoELsoV15gING6o58XKkop8Vdj9ofQf5oRRC1YGH1xldkDpnpkQ9IoDmUQNUR0hz_ku065AA0LHGWu5EHfnLXx1rKSf2jZJOtm520Lt0OJGX9Q94SQM3J4s4UI_QhbE2fwDpxFDTlQxCLlCbhFLrlXjDRzVRvR6mtQzcNwQ6IzDl9AImmKGGUoRdesmxxiGcT37jdC1x9Dom8VjT3k_Ctx-OpLTylV3TZERBjiu2OiBmkBM_dpNTrp7XiXnV8niax-L_VL8EToliqrmsgFudAyu_kgkix68CD94GvRhcTXoRSl6feTCruEUihaUAKUxNwodMsCkY1IFZ-lrWYDL0RowX3GWOHXJ6knJSg2N_M4VGsnX3967FSU325adNPsOGpvJHbWIle1X4PCeoBFqQN0D9a23rbx_hU1S_qC5kVPjX20mXWazYwA4XgI8-FfTdgTI8e3LiRHxddWno8woWeHCPUmI5jVraOridiAswTgUw_Emr1gw5PoduSNOG3azG3nkW9hVG3vlG9dHv9354KWo1cI2qEGlFX_c6MNWQvv4uBsS5sI8eJ7yMm6fPyTZOrYhy-bAVzAmRpoVzy1vFfB7in7AeibaNsOXI_BiWyGSLCZNjw1YFI_EBca20du4ydqDVWBmx9IAn-EHfdae3fpmSz3Pe8uBhKLQxcZ2odzji3MVx_SqPWsKeOYNGg8IIcCe0zSLoccHbZySWngg7G0ka_dGDCbdgvne6QiFzLoG_ZKkMFndErKXj1oCUUr3deDuIN9C3DNpt2CMUTgrE6WNAL1_rPchLaoW3bgKbbd2AaDXNcPCITqUt4OAxrfET7ckHVnKAnvq5wfI7hMcIxeJegnxxI0fOMx6y-8TbpVewlTBXBxfMHkgcGHn6X_ZZ7Mpm7Sin_Tjtu8-hqqMGiqiw8hhB6YQ77JFJ6yCMrgD81B6YcHNQYEZXF3jY2XKQ_Yvb7BfsJ4-viLJfwGx3eQsYptacYRcrmN7SriblMT5JLB3wA1DXaOgkKYvgu8fPN_jKhnBikXaeqd_OyuB7A_9sX8eDHz9mHAIlcgXj-Qr9Zl5jgA-ti79ytRlR6m-41ur4XCvsEMi8Wj25zlGyVmcxNqhpfsqp_IWrGXVNyD3e65QQ7254tcdxY4x8Vr2YfZJoeeFbsPtonjSzTLYJPXCiaFmcFFHVwBv5GT5Elq_dhK3-s9ehp7ZyQt-ggZLoaSZ_L-02JXrlhVrUs_qKhzgYjgkLXlekpLB0vUwywQHtek-DD8etzhYUkQmzuAlJVjQg-_-QRpx56SIEmBV4lP5_6NB3gFocDu0tb4fF-K0Zfqn6Y4yEkpszcuVXSQxnUBpifPBbNg4_34Qks1m7qTvGKx3aJNUXpQw_Wu0]--></g></svg>