<svg xmlns="http://www.w3.org/2000/svg" xmlns:xlink="http://www.w3.org/1999/xlink" contentStyleType="text/css" data-diagram-type="CLASS" height="1191px" preserveAspectRatio="none" style="width:2044px;height:1191px;background:#FFFFFF;" version="1.1" viewBox="0 0 2044 1191" width="2044px" zoomAndPan="magnify"><title>rhi_shader_program class diagram</title><defs/><g><text fill="#000000" font-family="sans-serif" font-size="14" font-weight="bold" lengthAdjust="spacing" textLength="241.5902" x="894.5363" y="24.9659">rhi_shader_program class diagram</text><!--class C_0016054929592142948558--><g class="entity" data-entity="C_0016054929592142948558" data-source-line="2" data-uid="ent0002" id="entity_C_0016054929592142948558"><rect fill="#F1F1F1" height="314.9508" rx="2.5" ry="2.5" style="stroke:#181818;stroke-width:0.5;" width="157.1595" x="666.2" y="870.0379"/><ellipse cx="681.2" cy="886.0379" fill="#EB937F" rx="11" ry="11" style="stroke:#181818;stroke-width:1;"/><path d="M684.6688,892.5379 L677.3563,892.5379 L677.3563,879.866 L684.6688,879.866 L684.6688,881.741 L679.4031,881.741 L679.4031,885.0067 L684.3563,885.0067 L684.3563,886.866 L679.4031,886.866 L679.4031,890.6629 L684.6688,890.6629 L684.6688,892.5379 Z " fill="#000000"/><text fill="#000000" font-family="sans-serif" font-size="14" lengthAdjust="spacing" textLength="125.1595" x="695.2" y="891.4699">Uniform_data_type</text><line style="stroke:#181818;stroke-width:0.5;" x1="667.2" x2="822.3595" y1="902.0379" y2="902.0379"/><text fill="#000000" font-family="sans-serif" font-size="14" lengthAdjust="spacing" textLength="42.2658" x="672.2" y="921.0039">FLOAT</text><text fill="#000000" font-family="sans-serif" font-size="14" lengthAdjust="spacing" textLength="23.1699" x="672.2" y="940.0718">INT</text><text fill="#000000" font-family="sans-serif" font-size="14" lengthAdjust="spacing" textLength="38.3038" x="672.2" y="959.1397">BOOL</text><text fill="#000000" font-family="sans-serif" font-size="14" lengthAdjust="spacing" textLength="33.0399" x="672.2" y="978.2076">VEC2</text><text fill="#000000" font-family="sans-serif" font-size="14" lengthAdjust="spacing" textLength="33.0399" x="672.2" y="997.2755">VEC3</text><text fill="#000000" font-family="sans-serif" font-size="14" lengthAdjust="spacing" textLength="33.0399" x="672.2" y="1016.3434">VEC4</text><text fill="#000000" font-family="sans-serif" font-size="14" lengthAdjust="spacing" textLength="37.7858" x="672.2" y="1035.4114">IVEC2</text><text fill="#000000" font-family="sans-serif" font-size="14" lengthAdjust="spacing" textLength="37.7858" x="672.2" y="1054.4793">IVEC3</text><text fill="#000000" font-family="sans-serif" font-size="14" lengthAdjust="spacing" textLength="37.7858" x="672.2" y="1073.5472">IVEC4</text><text fill="#000000" font-family="sans-serif" font-size="14" lengthAdjust="spacing" textLength="37.4359" x="672.2" y="1092.6151">MAT2</text><text fill="#000000" font-family="sans-serif" font-size="14" lengthAdjust="spacing" textLength="37.4359" x="672.2" y="1111.683">MAT3</text><text fill="#000000" font-family="sans-serif" font-size="14" lengthAdjust="spacing" textLength="37.4359" x="672.2" y="1130.7509">MAT4</text><text fill="#000000" font-family="sans-serif" font-size="14" lengthAdjust="spacing" textLength="61.6278" x="672.2" y="1149.8189">SAMPLER</text><text fill="#000000" font-family="sans-serif" font-size="14" lengthAdjust="spacing" textLength="74.7737" x="672.2" y="1168.8868">UNKNOWN</text><line style="stroke:#181818;stroke-width:0.5;" x1="667.2" x2="822.3595" y1="1176.9888" y2="1176.9888"/></g><!--class C_0014986503219425241571--><g class="entity" data-entity="C_0014986503219425241571" data-source-line="19" data-uid="ent0003" id="entity_C_0014986503219425241571"><rect fill="#F1F1F1" height="181.4754" rx="2.5" ry="2.5" style="stroke:#181818;stroke-width:0.5;" width="193.0753" x="153.24" y="936.7779"/><ellipse cx="204.8298" cy="952.7779" fill="#EB937F" rx="11" ry="11" style="stroke:#181818;stroke-width:1;"/><path d="M208.2985,959.2779 L200.986,959.2779 L200.986,946.606 L208.2985,946.606 L208.2985,948.481 L203.0329,948.481 L203.0329,951.7467 L207.986,951.7467 L207.986,953.606 L203.0329,953.606 L203.0329,957.4029 L208.2985,957.4029 L208.2985,959.2779 Z " fill="#000000"/><text fill="#000000" font-family="sans-serif" font-size="14" lengthAdjust="spacing" textLength="81.3957" x="225.3298" y="958.2099">Shader_type</text><line style="stroke:#181818;stroke-width:0.5;" x1="154.24" x2="345.3153" y1="968.7779" y2="968.7779"/><text fill="#000000" font-family="sans-serif" font-size="14" lengthAdjust="spacing" textLength="48.6638" x="159.24" y="987.7439">VERTEX</text><text fill="#000000" font-family="sans-serif" font-size="14" lengthAdjust="spacing" textLength="74.0177" x="159.24" y="1006.8118">FRAGMENT</text><text fill="#000000" font-family="sans-serif" font-size="14" lengthAdjust="spacing" textLength="73.8077" x="159.24" y="1025.8797">GEOMETRY</text><text fill="#000000" font-family="sans-serif" font-size="14" lengthAdjust="spacing" textLength="66.7517" x="159.24" y="1044.9476">COMPUTE</text><text fill="#000000" font-family="sans-serif" font-size="14" lengthAdjust="spacing" textLength="160.5094" x="159.24" y="1064.0155">TESSELATION_CONTROL</text><text fill="#000000" font-family="sans-serif" font-size="14" lengthAdjust="spacing" textLength="181.0753" x="159.24" y="1083.0834">TESSELATION_EVALUATION</text><text fill="#000000" font-family="sans-serif" font-size="14" lengthAdjust="spacing" textLength="74.7737" x="159.24" y="1102.1514">UNKNOWN</text><line style="stroke:#181818;stroke-width:0.5;" x1="154.24" x2="345.3153" y1="1110.2533" y2="1110.2533"/></g><!--class C_0003924358758461557054--><g class="entity" data-entity="C_0003924358758461557054" data-source-line="29" data-uid="ent0004" id="entity_C_0003924358758461557054"><rect fill="#F1F1F1" height="151.3396" rx="2.5" ry="2.5" style="stroke:#181818;stroke-width:0.5;" width="462.5744" x="253.49" y="582.4979"/><ellipse cx="427.9154" cy="598.4979" fill="#A9DCDF" rx="11" ry="11" style="stroke:#181818;stroke-width:1;"/><path d="M431.2591,603.7479 L429.7904,599.9979 L425.3529,599.9979 L423.9154,603.7479 L421.7904,603.7479 L426.7435,591.0292 L428.4935,591.0292 L433.4154,603.7479 L431.2591,603.7479 Z M427.9154,594.7948 Q427.8685,594.6385 427.7435,594.2792 Q427.6185,593.9198 427.5091,593.5448 Q427.3998,593.1542 427.6029,593.0917 Q427.7591,593.2792 427.6654,593.6385 Q427.5716,593.9823 427.4779,594.2792 Q427.3841,594.5604 427.306,594.7948 L426.0716,598.1073 L429.1498,598.1073 L427.9154,594.7948 Z " fill="#000000"/><text fill="#000000" font-family="sans-serif" font-size="14" font-style="italic" lengthAdjust="spacing" textLength="105.2236" x="448.4154" y="603.9299">RHI_shader_code</text><line style="stroke:#181818;stroke-width:0.5;" x1="254.49" x2="715.0644" y1="614.4979" y2="614.4979"/><ellipse cx="264.49" cy="629.5319" fill="#84BE84" rx="3" ry="3" style="stroke:#038048;stroke-width:1;"/><text fill="#000000" font-family="sans-serif" font-size="14" lengthAdjust="spacing" textLength="436.5744" x="273.49" y="633.4639">RHI_shader_code(Shader_type type, const std::string &amp; code) : void</text><ellipse cx="264.49" cy="648.5998" fill="#84BE84" rx="3" ry="3" style="stroke:#038048;stroke-width:1;"/><text fill="#000000" font-family="sans-serif" font-size="14" lengthAdjust="spacing" textLength="168.6993" x="273.49" y="652.5318">~RHI_shader_code() : void</text><line style="stroke:#181818;stroke-width:1;stroke-dasharray:1.0,2.0;" x1="254.49" x2="715.0644" y1="660.6338" y2="660.6338"/><ellipse cx="264.49" cy="675.6677" fill="#84BE84" rx="3" ry="3" style="stroke:#038048;stroke-width:1;"/><text fill="#000000" font-family="sans-serif" font-size="14" font-style="italic" lengthAdjust="spacing" textLength="118.2576" x="273.49" y="679.5997">compile() = 0 : bool</text><ellipse cx="264.49" cy="694.7356" fill="#84BE84" rx="3" ry="3" style="stroke:#038048;stroke-width:1;"/><text fill="#000000" font-family="sans-serif" font-size="14" lengthAdjust="spacing" textLength="273.6149" x="273.49" y="698.6676">shader_type() const : const Shader_type &amp;</text><line style="stroke:#181818;stroke-width:0.5;" x1="254.49" x2="715.0644" y1="706.7696" y2="706.7696"/><polygon fill="none" points="264.49,716.8035,268.49,720.8035,264.49,724.8035,260.49,720.8035" style="stroke:#B38D22;stroke-width:1;"/><text fill="#000000" font-family="sans-serif" font-size="14" lengthAdjust="spacing" textLength="192.1493" x="273.49" y="725.7355">m_shader_type : Shader_type</text></g><!--class C_0003654959318505322393--><g class="entity" data-entity="C_0003654959318505322393" data-source-line="39" data-uid="ent0005" id="entity_C_0003654959318505322393"><rect fill="#F1F1F1" height="86.1358" rx="2.5" ry="2.5" style="stroke:#181818;stroke-width:0.5;" width="162.3115" x="1476.62" y="984.4479"/><ellipse cx="1491.62" cy="1000.4479" fill="#EB937F" rx="11" ry="11" style="stroke:#181818;stroke-width:1;"/><path d="M1495.0888,1006.9479 L1487.7763,1006.9479 L1487.7763,994.276 L1495.0888,994.276 L1495.0888,996.151 L1489.8231,996.151 L1489.8231,999.4167 L1494.7763,999.4167 L1494.7763,1001.276 L1489.8231,1001.276 L1489.8231,1005.0729 L1495.0888,1005.0729 L1495.0888,1006.9479 Z " fill="#000000"/><text fill="#000000" font-family="sans-serif" font-size="14" lengthAdjust="spacing" textLength="130.3115" x="1505.62" y="1005.8799">Uniform_entry_type</text><line style="stroke:#181818;stroke-width:0.5;" x1="1477.62" x2="1637.9315" y1="1016.4479" y2="1016.4479"/><text fill="#000000" font-family="sans-serif" font-size="14" lengthAdjust="spacing" textLength="48.3838" x="1482.62" y="1035.4139">SINGLE</text><text fill="#000000" font-family="sans-serif" font-size="14" lengthAdjust="spacing" textLength="43.2318" x="1482.62" y="1054.4818">ARRAY</text><line style="stroke:#181818;stroke-width:0.5;" x1="1477.62" x2="1637.9315" y1="1062.5838" y2="1062.5838"/></g><!--class C_0017511763741744628446--><g class="entity" data-entity="C_0017511763741744628446" data-source-line="44" data-uid="ent0006" id="entity_C_0017511763741744628446"><rect fill="#F1F1F1" height="265.7471" rx="2.5" ry="2.5" style="stroke:#181818;stroke-width:0.5;" width="609.7838" x="844.89" y="525.2879"/><ellipse cx="1083.8551" cy="541.2879" fill="#A9DCDF" rx="11" ry="11" style="stroke:#181818;stroke-width:1;"/><path d="M1087.1989,546.5379 L1085.7301,542.7879 L1081.2926,542.7879 L1079.8551,546.5379 L1077.7301,546.5379 L1082.6832,533.8192 L1084.4332,533.8192 L1089.3551,546.5379 L1087.1989,546.5379 Z M1083.8551,537.5848 Q1083.8082,537.4285 1083.6832,537.0692 Q1083.5582,536.7098 1083.4489,536.3348 Q1083.3395,535.9442 1083.5426,535.8817 Q1083.6989,536.0692 1083.6051,536.4285 Q1083.5114,536.7723 1083.4176,537.0692 Q1083.3239,537.3504 1083.2457,537.5848 L1082.0114,540.8973 L1085.0895,540.8973 L1083.8551,537.5848 Z " fill="#000000"/><text fill="#000000" font-family="sans-serif" font-size="14" font-style="italic" lengthAdjust="spacing" textLength="123.3535" x="1104.3551" y="546.7199">Uniform_entry_base</text><line style="stroke:#181818;stroke-width:0.5;" x1="845.89" x2="1453.6738" y1="557.2879" y2="557.2879"/><ellipse cx="855.89" cy="572.3219" fill="#84BE84" rx="3" ry="3" style="stroke:#038048;stroke-width:1;"/><text fill="#000000" font-family="sans-serif" font-size="14" lengthAdjust="spacing" textLength="583.7838" x="864.89" y="576.2539">Uniform_entry_base(Uniform_data_type data_type, Uniform_entry_type entry_type) : void</text><ellipse cx="855.89" cy="591.3898" fill="#84BE84" rx="3" ry="3" style="stroke:#038048;stroke-width:1;"/><text fill="#000000" font-family="sans-serif" font-size="14" lengthAdjust="spacing" textLength="187.9213" x="864.89" y="595.3218">~Uniform_entry_base() : void</text><line style="stroke:#181818;stroke-width:1;stroke-dasharray:1.0,2.0;" x1="845.89" x2="1453.6738" y1="603.4238" y2="603.4238"/><ellipse cx="855.89" cy="618.4577" fill="#84BE84" rx="3" ry="3" style="stroke:#038048;stroke-width:1;"/><text fill="#000000" font-family="sans-serif" font-size="14" font-style="italic" lengthAdjust="spacing" textLength="225.1051" x="864.89" y="622.3897">data_count() const = 0 : unsigned int</text><ellipse cx="855.89" cy="637.5256" fill="#84BE84" rx="3" ry="3" style="stroke:#038048;stroke-width:1;"/><text fill="#000000" font-family="sans-serif" font-size="14" font-style="italic" lengthAdjust="spacing" textLength="205.3232" x="864.89" y="641.4576">data_ptr() const = 0 : const void *</text><ellipse cx="855.89" cy="656.5935" fill="#84BE84" rx="3" ry="3" style="stroke:#038048;stroke-width:1;"/><text fill="#000000" font-family="sans-serif" font-size="14" lengthAdjust="spacing" textLength="248.1211" x="864.89" y="660.5255">data_type() const : Uniform_data_type</text><ellipse cx="855.89" cy="675.6615" fill="#84BE84" rx="3" ry="3" style="stroke:#038048;stroke-width:1;"/><text fill="#000000" font-family="sans-serif" font-size="14" lengthAdjust="spacing" textLength="258.425" x="864.89" y="679.5934">entry_type() const : Uniform_entry_type</text><ellipse cx="855.89" cy="694.7294" fill="#84BE84" rx="3" ry="3" style="stroke:#038048;stroke-width:1;"/><text fill="#000000" font-family="sans-serif" font-size="14" lengthAdjust="spacing" textLength="190.3153" x="864.89" y="698.6614">is_need_update() const : bool</text><ellipse cx="855.89" cy="713.7973" fill="#84BE84" rx="3" ry="3" style="stroke:#038048;stroke-width:1;"/><text fill="#000000" font-family="sans-serif" font-size="14" lengthAdjust="spacing" textLength="164.9613" x="864.89" y="717.7293">is_need_update() : bool &amp;</text><line style="stroke:#181818;stroke-width:0.5;" x1="845.89" x2="1453.6738" y1="725.8313" y2="725.8313"/><polygon fill="none" points="855.89,735.8652,859.89,739.8652,855.89,743.8652,851.89,739.8652" style="stroke:#B38D22;stroke-width:1;"/><text fill="#000000" font-family="sans-serif" font-size="14" lengthAdjust="spacing" textLength="219.7852" x="864.89" y="744.7972">m_data_type : Uniform_data_type</text><polygon fill="none" points="855.89,754.9331,859.89,758.9331,855.89,762.9331,851.89,758.9331" style="stroke:#B38D22;stroke-width:1;"/><text fill="#000000" font-family="sans-serif" font-size="14" lengthAdjust="spacing" textLength="230.0891" x="864.89" y="763.8651">m_entry_type : Uniform_entry_type</text><polygon fill="none" points="855.89,774.001,859.89,778.001,855.89,782.001,851.89,778.001" style="stroke:#B38D22;stroke-width:1;"/><text fill="#000000" font-family="sans-serif" font-size="14" lengthAdjust="spacing" textLength="161.9794" x="864.89" y="782.933">m_is_need_update : bool</text></g><!--class C_0014133446175598414415--><g class="entity" data-entity="C_0014133446175598414415" data-source-line="60" data-uid="ent0007" id="entity_C_0014133446175598414415"><rect fill="#F1F1F1" height="227.6113" rx="2.5" ry="2.5" style="stroke:#181818;stroke-width:0.5;" width="359.7727" x="1673.89" y="913.7079"/><ellipse cx="1796.8225" cy="929.7079" fill="#ADD1B2" rx="11" ry="11" style="stroke:#181818;stroke-width:1;"/><path d="M1796.9319,925.2392 Q1796.01,925.2392 1795.2756,925.5517 Q1794.5569,925.8642 1794.0569,926.4579 Q1793.5569,927.036 1793.2756,927.911 Q1793.01,928.786 1793.01,929.8798 Q1793.01,931.3173 1793.4475,932.3642 Q1793.9006,933.411 1794.7444,933.9579 Q1795.6038,934.5048 1796.9163,934.5048 Q1797.6975,934.5048 1798.385,934.3798 Q1799.0881,934.2392 1800.0881,933.9267 L1800.0881,935.8017 Q1799.2288,936.1298 1798.4631,936.2548 Q1797.7131,936.3798 1796.6975,936.3798 Q1794.7756,936.3798 1793.4631,935.5829 Q1792.1663,934.7704 1791.51,933.3017 Q1790.8538,931.8173 1790.8538,929.8485 Q1790.8538,928.4267 1791.2444,927.2548 Q1791.6506,926.0673 1792.4319,925.1923 Q1793.2131,924.3173 1794.3538,923.8485 Q1795.4944,923.3642 1796.9631,923.3642 Q1797.9163,923.3642 1798.8069,923.5673 Q1799.7131,923.7548 1800.6506,924.2235 L1799.8225,926.0048 Q1799.0413,925.6298 1798.385,925.4423 Q1797.7288,925.2392 1796.9319,925.2392 Z " fill="#000000"/><text fill="#000000" font-family="sans-serif" font-size="14" lengthAdjust="spacing" textLength="95.3956" x="1817.3225" y="935.1399">Uniform_entry</text><rect fill="#FFFFFF" height="18.3441" style="stroke:#181818;stroke-width:1;stroke-dasharray:2.0,2.0;" width="8.012" x="2028.6507" y="910.7079"/><text fill="#000000" font-family="sans-serif" font-size="12" font-style="italic" lengthAdjust="spacing" textLength="6.012" x="2029.6507" y="924.536">T</text><line style="stroke:#181818;stroke-width:0.5;" x1="1674.89" x2="2032.6627" y1="945.7079" y2="945.7079"/><ellipse cx="1684.89" cy="960.7419" fill="#84BE84" rx="3" ry="3" style="stroke:#038048;stroke-width:1;"/><text fill="#000000" font-family="sans-serif" font-size="14" lengthAdjust="spacing" textLength="236.5571" x="1693.89" y="964.6739">Uniform_entry(const T &amp; data) : void</text><ellipse cx="1684.89" cy="979.8098" fill="#84BE84" rx="3" ry="3" style="stroke:#038048;stroke-width:1;"/><text fill="#000000" font-family="sans-serif" font-size="14" lengthAdjust="spacing" textLength="150.6394" x="1693.89" y="983.7418">~Uniform_entry() : void</text><line style="stroke:#181818;stroke-width:1;stroke-dasharray:1.0,2.0;" x1="1674.89" x2="2032.6627" y1="991.8438" y2="991.8438"/><ellipse cx="1684.89" cy="1006.8777" fill="#84BE84" rx="3" ry="3" style="stroke:#038048;stroke-width:1;"/><text fill="#000000" font-family="sans-serif" font-size="14" lengthAdjust="spacing" text-decoration="underline" textLength="173.8653" x="1693.89" y="1010.8097">create(const T &amp; data) : Ptr</text><ellipse cx="1684.89" cy="1025.9456" fill="#84BE84" rx="3" ry="3" style="stroke:#038048;stroke-width:1;"/><text fill="#000000" font-family="sans-serif" font-size="14" lengthAdjust="spacing" textLength="135.0715" x="1693.89" y="1029.8776">data() const : const T</text><ellipse cx="1684.89" cy="1045.0135" fill="#84BE84" rx="3" ry="3" style="stroke:#038048;stroke-width:1;"/><text fill="#000000" font-family="sans-serif" font-size="14" lengthAdjust="spacing" textLength="214.1572" x="1693.89" y="1048.9455">data_count() const : unsigned int</text><ellipse cx="1684.89" cy="1064.0815" fill="#84BE84" rx="3" ry="3" style="stroke:#038048;stroke-width:1;"/><text fill="#000000" font-family="sans-serif" font-size="14" lengthAdjust="spacing" textLength="192.1073" x="1693.89" y="1068.0134">data_ptr() const : const void *</text><ellipse cx="1684.89" cy="1083.1494" fill="#84BE84" rx="3" ry="3" style="stroke:#038048;stroke-width:1;"/><text fill="#000000" font-family="sans-serif" font-size="14" lengthAdjust="spacing" textLength="333.7727" x="1693.89" y="1087.0814">data_ptr_typed() const : const std::unique_ptr&lt;T&gt; &amp;</text><ellipse cx="1684.89" cy="1102.2173" fill="#84BE84" rx="3" ry="3" style="stroke:#038048;stroke-width:1;"/><text fill="#000000" font-family="sans-serif" font-size="14" lengthAdjust="spacing" textLength="186.8993" x="1693.89" y="1106.1493">modify(const T &amp; data) : void</text><line style="stroke:#181818;stroke-width:0.5;" x1="1674.89" x2="2032.6627" y1="1114.2513" y2="1114.2513"/><polygon fill="none" points="1684.89,1124.2852,1688.89,1128.2852,1684.89,1132.2852,1680.89,1128.2852" style="stroke:#B38D22;stroke-width:1;"/><text fill="#000000" font-family="sans-serif" font-size="14" lengthAdjust="spacing" textLength="183.1193" x="1693.89" y="1133.2172">m_data : std::unique_ptr&lt;T&gt;</text></g><!--class C_0006056365484271039216--><g class="entity" data-entity="C_0006056365484271039216" data-source-line="74" data-uid="ent0008" id="entity_C_0006056365484271039216"><rect fill="#F1F1F1" height="265.7471" rx="2.5" ry="2.5" style="stroke:#181818;stroke-width:0.5;" width="583.8279" x="857.86" y="894.6379"/><ellipse cx="1072.5062" cy="910.6379" fill="#ADD1B2" rx="11" ry="11" style="stroke:#181818;stroke-width:1;"/><path d="M1072.6156,906.1692 Q1071.6937,906.1692 1070.9593,906.4817 Q1070.2406,906.7942 1069.7406,907.3879 Q1069.2406,907.966 1068.9593,908.841 Q1068.6937,909.716 1068.6937,910.8098 Q1068.6937,912.2473 1069.1312,913.2942 Q1069.5843,914.341 1070.4281,914.8879 Q1071.2874,915.4348 1072.5999,915.4348 Q1073.3812,915.4348 1074.0687,915.3098 Q1074.7718,915.1692 1075.7718,914.8567 L1075.7718,916.7317 Q1074.9124,917.0598 1074.1468,917.1848 Q1073.3968,917.3098 1072.3812,917.3098 Q1070.4593,917.3098 1069.1468,916.5129 Q1067.8499,915.7004 1067.1937,914.2317 Q1066.5374,912.7473 1066.5374,910.7785 Q1066.5374,909.3567 1066.9281,908.1848 Q1067.3343,906.9973 1068.1156,906.1223 Q1068.8968,905.2473 1070.0374,904.7785 Q1071.1781,904.2942 1072.6468,904.2942 Q1073.5999,904.2942 1074.4906,904.4973 Q1075.3968,904.6848 1076.3343,905.1535 L1075.5062,906.9348 Q1074.7249,906.5598 1074.0687,906.3723 Q1073.4124,906.1692 1072.6156,906.1692 Z " fill="#000000"/><text fill="#000000" font-family="sans-serif" font-size="14" lengthAdjust="spacing" textLength="136.0235" x="1093.0062" y="916.0699">Uniform_entry_array</text><rect fill="#FFFFFF" height="18.3441" style="stroke:#181818;stroke-width:1;stroke-dasharray:2.0,2.0;" width="8.012" x="1436.6758" y="891.6379"/><text fill="#000000" font-family="sans-serif" font-size="12" font-style="italic" lengthAdjust="spacing" textLength="6.012" x="1437.6758" y="905.466">T</text><line style="stroke:#181818;stroke-width:0.5;" x1="858.86" x2="1440.6879" y1="926.6379" y2="926.6379"/><ellipse cx="868.86" cy="941.6719" fill="#84BE84" rx="3" ry="3" style="stroke:#038048;stroke-width:1;"/><text fill="#000000" font-family="sans-serif" font-size="14" lengthAdjust="spacing" textLength="405.5786" x="877.86" y="945.6039">Uniform_entry_array(const T * data, unsigned int count) : void</text><ellipse cx="868.86" cy="960.7398" fill="#84BE84" rx="3" ry="3" style="stroke:#038048;stroke-width:1;"/><text fill="#000000" font-family="sans-serif" font-size="14" lengthAdjust="spacing" textLength="191.2673" x="877.86" y="964.6718">~Uniform_entry_array() : void</text><line style="stroke:#181818;stroke-width:1;stroke-dasharray:1.0,2.0;" x1="858.86" x2="1440.6879" y1="972.7738" y2="972.7738"/><ellipse cx="868.86" cy="987.8077" fill="#84BE84" rx="3" ry="3" style="stroke:#038048;stroke-width:1;"/><text fill="#000000" font-family="sans-serif" font-size="14" lengthAdjust="spacing" text-decoration="underline" textLength="557.8279" x="877.86" y="991.7397">create(const T * data, unsigned int count) : std::shared_ptr&lt;Uniform_entry_array&lt;T&gt;&gt;</text><ellipse cx="868.86" cy="1006.8756" fill="#84BE84" rx="3" ry="3" style="stroke:#038048;stroke-width:1;"/><text fill="#000000" font-family="sans-serif" font-size="14" lengthAdjust="spacing" textLength="257.235" x="877.86" y="1010.8076">data(unsigned int index) const : const T</text><ellipse cx="868.86" cy="1025.9435" fill="#84BE84" rx="3" ry="3" style="stroke:#038048;stroke-width:1;"/><text fill="#000000" font-family="sans-serif" font-size="14" lengthAdjust="spacing" textLength="214.1572" x="877.86" y="1029.8755">data_count() const : unsigned int</text><ellipse cx="868.86" cy="1045.0115" fill="#84BE84" rx="3" ry="3" style="stroke:#038048;stroke-width:1;"/><text fill="#000000" font-family="sans-serif" font-size="14" lengthAdjust="spacing" textLength="192.1073" x="877.86" y="1048.9434">data_ptr() const : const void *</text><ellipse cx="868.86" cy="1064.0794" fill="#84BE84" rx="3" ry="3" style="stroke:#038048;stroke-width:1;"/><text fill="#000000" font-family="sans-serif" font-size="14" lengthAdjust="spacing" textLength="342.9847" x="877.86" y="1068.0114">data_ptr_typed() const : const std::unique_ptr&lt;T[]&gt; &amp;</text><ellipse cx="868.86" cy="1083.1473" fill="#84BE84" rx="3" ry="3" style="stroke:#038048;stroke-width:1;"/><text fill="#000000" font-family="sans-serif" font-size="14" lengthAdjust="spacing" textLength="316.4548" x="877.86" y="1087.0793">modify(const T &amp; data, unsigned int index) : void</text><ellipse cx="868.86" cy="1102.2152" fill="#84BE84" rx="3" ry="3" style="stroke:#038048;stroke-width:1;"/><text fill="#000000" font-family="sans-serif" font-size="14" lengthAdjust="spacing" textLength="469.7262" x="877.86" y="1106.1472">modify(const T * data, unsigned int count, unsigned int offset = 0) : void</text><line style="stroke:#181818;stroke-width:0.5;" x1="858.86" x2="1440.6879" y1="1114.2492" y2="1114.2492"/><polygon fill="none" points="868.86,1124.2831,872.86,1128.2831,868.86,1132.2831,864.86,1128.2831" style="stroke:#B38D22;stroke-width:1;"/><text fill="#000000" font-family="sans-serif" font-size="14" lengthAdjust="spacing" textLength="150.2334" x="877.86" y="1133.2151">m_count : unsigned int</text><polygon fill="none" points="868.86,1143.351,872.86,1147.351,868.86,1151.351,864.86,1147.351" style="stroke:#B38D22;stroke-width:1;"/><text fill="#000000" font-family="sans-serif" font-size="14" lengthAdjust="spacing" textLength="192.3313" x="877.86" y="1152.283">m_data : std::unique_ptr&lt;T[]&gt;</text></g><!--class C_0003140125259210553215--><g class="entity" data-entity="C_0003140125259210553215" data-source-line="90" data-uid="ent0009" id="entity_C_0003140125259210553215"><rect fill="#F1F1F1" height="399.2225" rx="2.5" ry="2.5" style="stroke:#181818;stroke-width:0.5;" width="1377.5553" x="9" y="47.0679"/><ellipse cx="627.8539" cy="63.0679" fill="#A9DCDF" rx="11" ry="11" style="stroke:#181818;stroke-width:1;"/><path d="M631.1976,68.3179 L629.7289,64.5679 L625.2914,64.5679 L623.8539,68.3179 L621.7289,68.3179 L626.682,55.5992 L628.432,55.5992 L633.3539,68.3179 L631.1976,68.3179 Z M627.8539,59.3648 Q627.807,59.2085 627.682,58.8492 Q627.557,58.4898 627.4476,58.1148 Q627.3383,57.7242 627.5414,57.6617 Q627.6976,57.8492 627.6039,58.2085 Q627.5101,58.5523 627.4164,58.8492 Q627.3226,59.1304 627.2445,59.3648 L626.0101,62.6773 L629.0883,62.6773 L627.8539,59.3648 Z " fill="#000000"/><text fill="#000000" font-family="sans-serif" font-size="14" font-style="italic" lengthAdjust="spacing" textLength="131.3475" x="648.3539" y="68.4999">RHI_shader_program</text><line style="stroke:#181818;stroke-width:0.5;" x1="10" x2="1385.5553" y1="79.0679" y2="79.0679"/><ellipse cx="20" cy="94.1019" fill="#84BE84" rx="3" ry="3" style="stroke:#038048;stroke-width:1;"/><text fill="#000000" font-family="sans-serif" font-size="14" lengthAdjust="spacing" textLength="1351.5553" x="29" y="98.0339">RHI_shader_program(const std::unordered_map&lt;Shader_type,std::shared_ptr&lt;RHI_shader_code&gt;&gt; &amp; shaders, const std::unordered_map&lt;std::string,std::shared_ptr&lt;Uniform_entry_base&gt;&gt; &amp; uniforms) : void</text><ellipse cx="20" cy="113.1698" fill="#84BE84" rx="3" ry="3" style="stroke:#038048;stroke-width:1;"/><text fill="#000000" font-family="sans-serif" font-size="14" lengthAdjust="spacing" textLength="195.2013" x="29" y="117.1018">~RHI_shader_program() : void</text><line style="stroke:#181818;stroke-width:1;stroke-dasharray:1.0,2.0;" x1="10" x2="1385.5553" y1="125.2038" y2="125.2038"/><ellipse cx="20" cy="140.2377" fill="#84BE84" rx="3" ry="3" style="stroke:#038048;stroke-width:1;"/><text fill="#000000" font-family="sans-serif" font-size="14" font-style="italic" lengthAdjust="spacing" textLength="439.1362" x="29" y="144.1697">attach_code(const std::shared_ptr&lt;RHI_shader_code&gt; &amp; code) = 0 : void</text><ellipse cx="20" cy="159.3056" fill="#84BE84" rx="3" ry="3" style="stroke:#038048;stroke-width:1;"/><text fill="#000000" font-family="sans-serif" font-size="14" lengthAdjust="spacing" textLength="613.8696" x="29" y="163.2376">codes() const : const std::unordered_map&lt;Shader_type,std::shared_ptr&lt;RHI_shader_code&gt;&gt; &amp;</text><ellipse cx="20" cy="178.3735" fill="#84BE84" rx="3" ry="3" style="stroke:#038048;stroke-width:1;"/><text fill="#000000" font-family="sans-serif" font-size="14" font-style="italic" lengthAdjust="spacing" textLength="441.6282" x="29" y="182.3055">detach_code(const std::shared_ptr&lt;RHI_shader_code&gt; &amp; code) = 0 : void</text><ellipse cx="20" cy="197.4415" fill="#84BE84" rx="3" ry="3" style="stroke:#038048;stroke-width:1;"/><text fill="#000000" font-family="sans-serif" font-size="14" lengthAdjust="spacing" textLength="292.4169" x="29" y="201.3734">get_uniform&lt;T&gt;(const std::string &amp; name) : T</text><ellipse cx="20" cy="216.5094" fill="#84BE84" rx="3" ry="3" style="stroke:#038048;stroke-width:1;"/><text fill="#000000" font-family="sans-serif" font-size="14" lengthAdjust="spacing" textLength="462.6003" x="29" y="220.4414">get_uniform_array&lt;T&gt;(const std::string &amp; name, unsigned int index) : T</text><ellipse cx="20" cy="235.5773" fill="#84BE84" rx="3" ry="3" style="stroke:#038048;stroke-width:1;"/><text fill="#000000" font-family="sans-serif" font-size="14" lengthAdjust="spacing" textLength="541.2098" x="29" y="239.5093">get_uniform_entry&lt;T&gt;(const std::string &amp; name) : typename Uniform_entry&lt;T&gt;::Ptr</text><ellipse cx="20" cy="254.6452" fill="#84BE84" rx="3" ry="3" style="stroke:#038048;stroke-width:1;"/><text fill="#000000" font-family="sans-serif" font-size="14" lengthAdjust="spacing" textLength="622.4656" x="29" y="258.5772">get_uniform_entry_array&lt;T&gt;(const std::string &amp; name) : typename Uniform_entry_array&lt;T&gt;::Ptr</text><ellipse cx="20" cy="273.7131" fill="#84BE84" rx="3" ry="3" style="stroke:#038048;stroke-width:1;"/><text fill="#000000" font-family="sans-serif" font-size="14" font-style="italic" lengthAdjust="spacing" textLength="91.7276" x="29" y="277.6451">link() = 0 : bool</text><ellipse cx="20" cy="292.781" fill="#84BE84" rx="3" ry="3" style="stroke:#038048;stroke-width:1;"/><text fill="#000000" font-family="sans-serif" font-size="14" lengthAdjust="spacing" textLength="437.9323" x="29" y="296.713">modify_uniform&lt;T&gt;(const std::string &amp; name, const T &amp; data) : void</text><ellipse cx="20" cy="311.849" fill="#84BE84" rx="3" ry="3" style="stroke:#038048;stroke-width:1;"/><text fill="#000000" font-family="sans-serif" font-size="14" lengthAdjust="spacing" textLength="761.3873" x="29" y="315.7809">modify_uniform_array&lt;T&gt;(const std::string &amp; name, const T * data, unsigned int count, unsigned int offset = 0) : void</text><ellipse cx="20" cy="330.9169" fill="#84BE84" rx="3" ry="3" style="stroke:#038048;stroke-width:1;"/><text fill="#000000" font-family="sans-serif" font-size="14" font-style="italic" lengthAdjust="spacing" textLength="560.2077" x="29" y="334.8489">set_uniform(const std::string &amp; name, Uniform_data_type type, const void * data) = 0 : void</text><ellipse cx="20" cy="349.9848" fill="#84BE84" rx="3" ry="3" style="stroke:#038048;stroke-width:1;"/><text fill="#000000" font-family="sans-serif" font-size="14" font-style="italic" lengthAdjust="spacing" textLength="722.4531" x="29" y="353.9168">set_uniform_array(const std::string &amp; name, Uniform_data_type type, const void * data, unsigned int count) = 0 : void</text><ellipse cx="20" cy="369.0527" fill="#84BE84" rx="3" ry="3" style="stroke:#038048;stroke-width:1;"/><text fill="#000000" font-family="sans-serif" font-size="14" lengthAdjust="spacing" textLength="639.3636" x="29" y="372.9847">uniforms() const : const std::unordered_map&lt;std::string,std::shared_ptr&lt;Uniform_entry_base&gt;&gt; &amp;</text><ellipse cx="20" cy="388.1206" fill="#84BE84" rx="3" ry="3" style="stroke:#038048;stroke-width:1;"/><text fill="#000000" font-family="sans-serif" font-size="14" font-style="italic" lengthAdjust="spacing" textLength="173.5853" x="29" y="392.0526">update_uniforms() = 0 : void</text><line style="stroke:#181818;stroke-width:0.5;" x1="10" x2="1385.5553" y1="400.1546" y2="400.1546"/><polygon fill="none" points="20,410.1885,24,414.1885,20,418.1885,16,414.1885" style="stroke:#B38D22;stroke-width:1;"/><text fill="#000000" font-family="sans-serif" font-size="14" lengthAdjust="spacing" textLength="532.4039" x="29" y="419.1205">m_codes : std::unordered_map&lt;Shader_type,std::shared_ptr&lt;RHI_shader_code&gt;&gt;</text><polygon fill="none" points="20,429.2565,24,433.2565,20,437.2565,16,433.2565" style="stroke:#B38D22;stroke-width:1;"/><text fill="#000000" font-family="sans-serif" font-size="14" lengthAdjust="spacing" textLength="557.8978" x="29" y="438.1884">m_uniforms : std::unordered_map&lt;std::string,std::shared_ptr&lt;Uniform_entry_base&gt;&gt;</text></g><!--reverse link C_0003924358758461557054 to C_0014986503219425241571--><g class="link" data-entity-1="C_0003924358758461557054" data-entity-2="C_0014986503219425241571" data-source-line="113" data-uid="lnk10" id="link_C_0003924358758461557054_C_0014986503219425241571"><path codeLine="113" d="M430.473,744.0562 C392.963,802.6862 347.1,874.3779 307.3,936.5879" fill="none" id="C_0003924358758461557054-backto-C_0014986503219425241571" style="stroke:#181818;stroke-width:1;"/><polygon fill="none" points="436.94,733.9479,430.3371,736.8464,430.473,744.0562,437.0759,741.1577,436.94,733.9479" style="stroke:#181818;stroke-width:1;"/><polygon fill="none" points="380.32,826.3909,384.32,830.3909,380.32,834.3909,376.32,830.3909" style="stroke:#B38D22;stroke-width:1;"/><text fill="#000000" font-family="sans-serif" font-size="13" lengthAdjust="spacing" textLength="92.5991" x="387.32" y="835.9349">m_shader_type</text></g><!--reverse link C_0017511763741744628446 to C_0003654959318505322393--><g class="link" data-entity-1="C_0017511763741744628446" data-entity-2="C_0003654959318505322393" data-source-line="114" data-uid="lnk11" id="link_C_0017511763741744628446_C_0003654959318505322393"><path codeLine="114" d="M1377.8004,798.6274 C1409.9504,822.7374 1431.71,842.0079 1458.78,870.0379 C1491.61,904.0279 1519.38,950.5779 1537.07,984.0579" fill="none" id="C_0017511763741744628446-backto-C_0003654959318505322393" style="stroke:#181818;stroke-width:1;"/><polygon fill="none" points="1368.2,791.4279,1370.6003,798.2278,1377.8004,798.6274,1375.4,791.8276,1368.2,791.4279" style="stroke:#181818;stroke-width:1;"/><polygon fill="none" points="1428.06,826.3909,1432.06,830.3909,1428.06,834.3909,1424.06,830.3909" style="stroke:#B38D22;stroke-width:1;"/><text fill="#000000" font-family="sans-serif" font-size="13" lengthAdjust="spacing" textLength="82.4071" x="1435.06" y="835.9349">m_entry_type</text></g><!--reverse link C_0017511763741744628446 to C_0016054929592142948558--><g class="link" data-entity-1="C_0017511763741744628446" data-entity-2="C_0016054929592142948558" data-source-line="115" data-uid="lnk12" id="link_C_0017511763741744628446_C_0016054929592142948558"><path codeLine="115" d="M921.0244,798.6171 C889.0644,822.6871 867.54,841.9379 840.78,870.0379 C834.84,876.2679 829.09,882.9279 823.55,889.8479" fill="none" id="C_0017511763741744628446-backto-C_0016054929592142948558" style="stroke:#181818;stroke-width:1;"/><polygon fill="none" points="930.61,791.3979,923.4108,791.8123,921.0244,798.6171,928.2236,798.2027,930.61,791.3979" style="stroke:#181818;stroke-width:1;"/><polygon fill="none" points="898.87,826.3909,902.87,830.3909,898.87,834.3909,894.87,830.3909" style="stroke:#B38D22;stroke-width:1;"/><text fill="#000000" font-family="sans-serif" font-size="13" lengthAdjust="spacing" textLength="77.6231" x="905.87" y="835.9349">m_data_type</text></g><!--reverse link C_0017511763741744628446 to C_0014133446175598414415--><g class="link" data-entity-1="C_0017511763741744628446" data-entity-2="C_0014133446175598414415" data-source-line="116" data-uid="lnk13" id="link_C_0017511763741744628446_C_0014133446175598414415"><path codeLine="116" d="M1471.5714,777.1026 C1539.7214,806.2326 1593.85,832.9379 1656.78,870.0379 C1678.51,882.8479 1700.46,897.8379 1721.42,913.3779" fill="none" id="C_0017511763741744628446-backto-C_0014133446175598414415" style="stroke:#181818;stroke-width:1;"/><polygon fill="none" points="1455.02,770.0279,1469.2131,782.6198,1473.9296,771.5855,1455.02,770.0279" style="stroke:#181818;stroke-width:1;"/></g><!--reverse link C_0017511763741744628446 to C_0006056365484271039216--><g class="link" data-entity-1="C_0017511763741744628446" data-entity-2="C_0006056365484271039216" data-source-line="117" data-uid="lnk14" id="link_C_0017511763741744628446_C_0006056365484271039216"><path codeLine="117" d="M1149.78,809.5279 C1149.78,842.9379 1149.78,860.8079 1149.78,894.2179" fill="none" id="C_0017511763741744628446-backto-C_0006056365484271039216" style="stroke:#181818;stroke-width:1;"/><polygon fill="none" points="1149.78,791.5279,1143.78,809.5279,1155.78,809.5279,1149.78,791.5279" style="stroke:#181818;stroke-width:1;"/></g><!--link C_0003140125259210553215 to C_0016054929592142948558--><g class="link" data-entity-1="C_0003140125259210553215" data-entity-2="C_0016054929592142948558" data-source-line="118" data-uid="lnk15" id="link_C_0003140125259210553215_C_0016054929592142948558"><path codeLine="118" d="M726.17,446.4479 C729.18,472.9079 731.85,499.7279 733.78,525.2879 C742.48,640.3979 745.0885,764.758 745.6085,863.678" fill="none" id="C_0003140125259210553215-to-C_0016054929592142948558" style="stroke:#181818;stroke-width:1;stroke-dasharray:7.0,7.0;"/><polygon fill="#181818" points="745.64,869.6779,749.5926,860.657,745.6137,864.678,741.5927,860.6991,745.64,869.6779" style="stroke:#181818;stroke-width:1;"/></g><!--reverse link C_0003140125259210553215 to C_0014986503219425241571--><g class="link" data-entity-1="C_0003140125259210553215" data-entity-2="C_0014986503219425241571" data-source-line="119" data-uid="lnk16" id="link_C_0003140125259210553215_C_0014986503219425241571"><path codeLine="119" d="M223.6982,455.0833 C199.2682,478.5633 186.28,496.3279 168.78,525.2879 C91.71,652.7679 151.69,830.3779 201.37,936.3679" fill="none" id="C_0003140125259210553215-backto-C_0014986503219425241571" style="stroke:#181818;stroke-width:1;"/><polygon fill="none" points="232.35,446.7679,225.2523,448.0417,223.6982,455.0833,230.7959,453.8096,232.35,446.7679" style="stroke:#181818;stroke-width:1;"/><polygon fill="none" points="174.78,654.0209,178.78,658.0209,174.78,662.0209,170.78,658.0209" style="stroke:#B38D22;stroke-width:1;"/><text fill="#000000" font-family="sans-serif" font-size="13" lengthAdjust="spacing" textLength="53.586" x="181.78" y="663.5649">m_codes</text></g><!--reverse link C_0003140125259210553215 to C_0003924358758461557054--><g class="link" data-entity-1="C_0003140125259210553215" data-entity-2="C_0003924358758461557054" data-source-line="120" data-uid="lnk17" id="link_C_0003140125259210553215_C_0003924358758461557054"><path codeLine="120" d="M588.7011,457.3731 C563.6011,505.6131 543.83,543.6479 523.87,582.0079" fill="none" id="C_0003140125259210553215-backto-C_0003924358758461557054" style="stroke:#181818;stroke-width:1;"/><polygon fill="none" points="594.24,446.7279,587.9222,450.2042,588.7011,457.3731,595.019,453.8968,594.24,446.7279" style="stroke:#181818;stroke-width:1;"/><polygon fill="none" points="584.52,481.6409,588.52,485.6409,584.52,489.6409,580.52,485.6409" style="stroke:#B38D22;stroke-width:1;"/><text fill="#000000" font-family="sans-serif" font-size="13" lengthAdjust="spacing" textLength="53.586" x="591.52" y="491.1849">m_codes</text></g><!--reverse link C_0003140125259210553215 to C_0017511763741744628446--><g class="link" data-entity-1="C_0003140125259210553215" data-entity-2="C_0017511763741744628446" data-source-line="121" data-uid="lnk18" id="link_C_0003140125259210553215_C_0017511763741744628446"><path codeLine="121" d="M926.3835,454.7843 C955.7035,481.3443 976.28,499.9879 1003.91,525.0179" fill="none" id="C_0003140125259210553215-backto-C_0017511763741744628446" style="stroke:#181818;stroke-width:1;"/><polygon fill="none" points="917.49,446.7279,919.2513,453.7206,926.3835,454.7843,924.6222,447.7916,917.49,446.7279" style="stroke:#181818;stroke-width:1;"/><polygon fill="none" points="970.26,481.6409,974.26,485.6409,970.26,489.6409,966.26,485.6409" style="stroke:#B38D22;stroke-width:1;"/><text fill="#000000" font-family="sans-serif" font-size="13" lengthAdjust="spacing" textLength="73.4371" x="977.26" y="491.1849">m_uniforms</text></g><!--SRC=[pLXRRzis57xdho1Ie7Nh2qHTRCl80dY1aXdp9R2LRCKm2B8asy9ioPNaRaMN_VQHeYwKHDh9seUzo19v-F5SFfvpwCHFzXwCThuLxspNYwnZ56uZ-m2TlHt7qFLjyWMyu7I0Lu-1lmcZW-NQYMqbNuxU5RHZU6j94kfBcghBkgRBI9LrTQXfGxf8D0k_WhlfOco2oTm4FouMK_1atChaeP272YRfzoGTcAGZix4fauT27YfOZMSFKsC97kS_pnU_pC5pfkMA6bBLJzM7VKrIPAIhiYQhI1iWHZ_EBDRloLYQng_WRZc-dnbOotjZCJFCvKTmkvWzF9e6C8tLofYEpSbYRjqkvkOIMy6E6K_ZwMFwoYXfh-Caifq4NYr_ckHUTqAtL5PIT5bLjE506wfzf6a3xBrocKW2Azok8ROOLq3ow40d3E84neax6c4yFzZ2jv28leSZ-3dqNT3-fmvIJFLwu6kknZDiE-7XwE_9_0zGmZBhCDo3TbnkYMVeTgFibrNdBR0iyEPWCV9OZf4eufcppWkIw4irh9BInyJIT0KDDKbJP5dHbJAil5difTLaVZyrm7Yv77-inAEwqTgE6VuCD8G6VMMWee6gzkKXVbH3mfCW8Mc2jXh721Pl7TYq5fQlJ9GukA90fUXEU0gI8Y8qOgSWzhU1vq8_I9ehZabKawVlP0lu0RGBfPauDqm3xL9xZbmv2Tf-R0MUvrgd8rxD2bDYDQRfH46aqfiyDTvKFCfL08jKzyYtVWOq6LO9SctUCEa5AGeEE2Q1fWzLfE8KaYqIJJUuqQBcclX04hL5eQv6EKxin7V8OOmyufKcnaCIqL0rJgC9UCoeiQ991IuDi43gHBSXbgQQK-1_Edb42diDHwnz25r_8pIv32WUQG880cBPKMHNmYBXkjCdIM2eoWD4aYRgCs7XJJUFR8fQQFeXrRHJSH9CFIWycnJWHM4xZqwpziwEC4E99_ZMtsJXhc3uWUlzzJyXm6-_YobGCprJEtTiROdOMxMnSBE9lJI9rIYM2jSjFaCzhBgeWcTz4rEQa2eXt4sGfaVISFd1AQ5Mn9iIjIAUWROgdWmZF8KfSB2FrqozxDJfKQlZDzZha7x77IX4P5g3pdd2aPgJWfxeSCpl8N8RHDN9JXBRsT5MW-rEn8OKBGkjIdHBCXABoFSDBglMHU-xwBhr4Yjp6ZwmBLvF5jY7jDgR5UdYa0lNY0vG3IUlO6Vt9YuYxx1UzqQZjAeq02-h9uOjrb9mrkjxF_YZrcNIJF0I9-PKRzRLAiPBNFiz4WzhM5mwyCokpNQHRULf5ivCOqWcsATIphvfDtwLOccUvuMNdChNfvsAXRHXivWT6KNoN8yJH9dK_tDA85ZvFdourzg2IuhmKXTsk-8hwWXMBr10U179ORXNeXI6QOGled3lyobAsN0BGQx_BapYDCsNbt6REc4zxVLkn7zG25TTzdhAfii0t9Y-1e3hYnGWvo00x-wzm8im_rtufv_io5ytmRPxEkmxy3CkzduOGAdNxw4kqhhRzKPTRrm7l9jEdsR5VBga-49w3_K6i7NdkM5aPvzTfRTnLFJ-Nm00]--></g></svg>