<svg xmlns="http://www.w3.org/2000/svg" xmlns:xlink="http://www.w3.org/1999/xlink" contentStyleType="text/css" data-diagram-type="CLASS" height="770px" preserveAspectRatio="none" style="width:1491px;height:770px;background:#FFFFFF;" version="1.1" viewBox="0 0 1491 770" width="1491px" zoomAndPan="magnify"><title>rhi_renderer class diagram</title><defs/><g><text fill="#000000" font-family="sans-serif" font-size="14" font-weight="bold" lengthAdjust="spacing" textLength="187.3473" x="645.2503" y="24.9659">rhi_renderer class diagram</text><!--class C_0013741543183434560393--><g class="entity" data-entity="C_0013741543183434560393" data-source-line="2" data-uid="ent0002" id="entity_C_0013741543183434560393"><rect fill="#F1F1F1" height="181.4754" rx="2.5" ry="2.5" style="stroke:#181818;stroke-width:0.5;" width="241.0531" x="626.4" y="582.4879"/><ellipse cx="706.2907" cy="598.4879" fill="#ADD1B2" rx="11" ry="11" style="stroke:#181818;stroke-width:1;"/><path d="M706.4001,594.0192 Q705.4782,594.0192 704.7438,594.3317 Q704.0251,594.6442 703.5251,595.2379 Q703.0251,595.816 702.7438,596.691 Q702.4782,597.566 702.4782,598.6598 Q702.4782,600.0973 702.9157,601.1442 Q703.3688,602.191 704.2126,602.7379 Q705.072,603.2848 706.3845,603.2848 Q707.1657,603.2848 707.8532,603.1598 Q708.5563,603.0192 709.5563,602.7067 L709.5563,604.5817 Q708.697,604.9098 707.9313,605.0348 Q707.1813,605.1598 706.1657,605.1598 Q704.2438,605.1598 702.9313,604.3629 Q701.6345,603.5504 700.9782,602.0817 Q700.322,600.5973 700.322,598.6285 Q700.322,597.2067 700.7126,596.0348 Q701.1188,594.8473 701.9001,593.9723 Q702.6813,593.0973 703.822,592.6285 Q704.9626,592.1442 706.4313,592.1442 Q707.3845,592.1442 708.2751,592.3473 Q709.1813,592.5348 710.1188,593.0035 L709.2907,594.7848 Q708.5095,594.4098 707.8532,594.2223 Q707.197,594.0192 706.4001,594.0192 Z " fill="#000000"/><text fill="#000000" font-family="sans-serif" font-size="14" lengthAdjust="spacing" textLength="72.7717" x="726.7907" y="603.9199">Clear_state</text><line style="stroke:#181818;stroke-width:0.5;" x1="627.4" x2="866.4531" y1="614.4879" y2="614.4879"/><ellipse cx="637.4" cy="629.5219" fill="#84BE84" rx="3" ry="3" style="stroke:#038048;stroke-width:1;"/><text fill="#000000" font-family="sans-serif" font-size="14" lengthAdjust="spacing" text-decoration="underline" textLength="145.3334" x="646.4" y="633.4539">enabled() : Clear_state</text><line style="stroke:#181818;stroke-width:0.5;" x1="627.4" x2="866.4531" y1="641.5558" y2="641.5558"/><ellipse cx="637.4" cy="656.5898" fill="none" rx="3" ry="3" style="stroke:#038048;stroke-width:1;"/><text fill="#000000" font-family="sans-serif" font-size="14" lengthAdjust="spacing" textLength="73.2477" x="646.4" y="660.5218">color : bool</text><ellipse cx="637.4" cy="675.6577" fill="none" rx="3" ry="3" style="stroke:#038048;stroke-width:1;"/><text fill="#000000" font-family="sans-serif" font-size="14" lengthAdjust="spacing" textLength="186.0592" x="646.4" y="679.5897">color_clear_value : glm::vec4</text><ellipse cx="637.4" cy="694.7256" fill="none" rx="3" ry="3" style="stroke:#038048;stroke-width:1;"/><text fill="#000000" font-family="sans-serif" font-size="14" lengthAdjust="spacing" textLength="79.0157" x="646.4" y="698.6576">depth : bool</text><ellipse cx="637.4" cy="713.7935" fill="none" rx="3" ry="3" style="stroke:#038048;stroke-width:1;"/><text fill="#000000" font-family="sans-serif" font-size="14" lengthAdjust="spacing" textLength="159.0814" x="646.4" y="717.7255">depth_clear_value : float</text><ellipse cx="637.4" cy="732.8615" fill="none" rx="3" ry="3" style="stroke:#038048;stroke-width:1;"/><text fill="#000000" font-family="sans-serif" font-size="14" lengthAdjust="spacing" textLength="82.4457" x="646.4" y="736.7934">stencil : bool</text><ellipse cx="637.4" cy="751.9294" fill="none" rx="3" ry="3" style="stroke:#038048;stroke-width:1;"/><text fill="#000000" font-family="sans-serif" font-size="14" lengthAdjust="spacing" textLength="215.0531" x="646.4" y="755.8614">stencil_clear_value : unsigned int</text></g><!--class C_0010445000104793355249--><g class="entity" data-entity="C_0010445000104793355249" data-source-line="13" data-uid="ent0003" id="entity_C_0010445000104793355249"><rect fill="#F1F1F1" height="456.4263" rx="2.5" ry="2.5" style="stroke:#181818;stroke-width:0.5;" width="1475.848" x="9" y="47.0679"/><ellipse cx="701.9272" cy="63.0679" fill="#A9DCDF" rx="11" ry="11" style="stroke:#181818;stroke-width:1;"/><path d="M705.2709,68.3179 L703.8022,64.5679 L699.3647,64.5679 L697.9272,68.3179 L695.8022,68.3179 L700.7553,55.5992 L702.5053,55.5992 L707.4272,68.3179 L705.2709,68.3179 Z M701.9272,59.3648 Q701.8803,59.2085 701.7553,58.8492 Q701.6303,58.4898 701.5209,58.1148 Q701.4115,57.7242 701.6147,57.6617 Q701.7709,57.8492 701.6772,58.2085 Q701.5834,58.5523 701.4897,58.8492 Q701.3959,59.1304 701.3178,59.3648 L700.0834,62.6773 L703.1615,62.6773 L701.9272,59.3648 Z " fill="#000000"/><text fill="#000000" font-family="sans-serif" font-size="14" font-style="italic" lengthAdjust="spacing" textLength="81.4937" x="722.4272" y="68.4999">RHI_renderer</text><line style="stroke:#181818;stroke-width:0.5;" x1="10" x2="1483.848" y1="79.0679" y2="79.0679"/><ellipse cx="20" cy="94.1019" fill="#84BE84" rx="3" ry="3" style="stroke:#038048;stroke-width:1;"/><text fill="#000000" font-family="sans-serif" font-size="14" lengthAdjust="spacing" textLength="335.7607" x="29" y="98.0339">RHI_renderer(const Clear_state &amp; clear_state) : void</text><ellipse cx="20" cy="113.1698" fill="#84BE84" rx="3" ry="3" style="stroke:#038048;stroke-width:1;"/><text fill="#000000" font-family="sans-serif" font-size="14" lengthAdjust="spacing" textLength="143.5834" x="29" y="117.1018">~RHI_renderer() : void</text><line style="stroke:#181818;stroke-width:1;stroke-dasharray:1.0,2.0;" x1="10" x2="1483.848" y1="125.2038" y2="125.2038"/><ellipse cx="20" cy="140.2377" fill="#84BE84" rx="3" ry="3" style="stroke:#038048;stroke-width:1;"/><text fill="#000000" font-family="sans-serif" font-size="14" font-style="italic" lengthAdjust="spacing" textLength="174.2433" x="29" y="144.1697">apply_clear_state() = 0 : void</text><ellipse cx="20" cy="159.3056" fill="#84BE84" rx="3" ry="3" style="stroke:#038048;stroke-width:1;"/><text fill="#000000" font-family="sans-serif" font-size="14" lengthAdjust="spacing" textLength="455.3062" x="29" y="163.2376">change_clear_state(std::function&lt;void (Clear_state &amp;)&gt; changer) : void</text><ellipse cx="20" cy="178.3735" fill="#84BE84" rx="3" ry="3" style="stroke:#038048;stroke-width:1;"/><text fill="#000000" font-family="sans-serif" font-size="14" font-style="italic" lengthAdjust="spacing" textLength="483.6279" x="29" y="182.3055">clear(const std::shared_ptr&lt;RHI_frame_buffer_base&gt; &amp; frame_buffer) = 0 : void</text><ellipse cx="20" cy="197.4415" fill="#84BE84" rx="3" ry="3" style="stroke:#038048;stroke-width:1;"/><text fill="#000000" font-family="sans-serif" font-size="14" lengthAdjust="spacing" textLength="176.7353" x="29" y="201.3734">clear_state() : Clear_state &amp;</text><ellipse cx="20" cy="216.5094" fill="#84BE84" rx="3" ry="3" style="stroke:#038048;stroke-width:1;"/><text fill="#000000" font-family="sans-serif" font-size="14" font-style="italic" lengthAdjust="spacing" textLength="1203.9529" x="29" y="220.4414">draw(const std::shared_ptr&lt;RHI_shader_program&gt; &amp; shader_program, const std::shared_ptr&lt;RHI_geometry&gt; &amp; geometry, const std::shared_ptr&lt;RHI_frame_buffer_base&gt; &amp; frame_buffer) = 0 : void</text><ellipse cx="20" cy="235.5773" fill="#84BE84" rx="3" ry="3" style="stroke:#038048;stroke-width:1;"/><text fill="#000000" font-family="sans-serif" font-size="14" font-style="italic" lengthAdjust="spacing" textLength="1449.848" x="29" y="239.5093">draw_instanced(const std::shared_ptr&lt;RHI_shader_program&gt; &amp; shader_program, const std::shared_ptr&lt;RHI_geometry&gt; &amp; geometry, const std::shared_ptr&lt;RHI_frame_buffer_base&gt; &amp; frame_buffer, unsigned int instance_count) = 0 : void</text><ellipse cx="20" cy="254.6452" fill="#84BE84" rx="3" ry="3" style="stroke:#038048;stroke-width:1;"/><text fill="#000000" font-family="sans-serif" font-size="14" lengthAdjust="spacing" textLength="466.6322" x="29" y="258.5772">frame_buffer() const : const std::shared_ptr&lt;RHI_frame_buffer_base&gt; &amp;</text><ellipse cx="20" cy="273.7131" fill="#84BE84" rx="3" ry="3" style="stroke:#038048;stroke-width:1;"/><text fill="#000000" font-family="sans-serif" font-size="14" lengthAdjust="spacing" textLength="384.7745" x="29" y="277.6451">geometry() const : const std::shared_ptr&lt;RHI_geometry&gt; &amp;</text><ellipse cx="20" cy="292.781" fill="#84BE84" rx="3" ry="3" style="stroke:#038048;stroke-width:1;"/><text fill="#000000" font-family="sans-serif" font-size="14" font-style="italic" lengthAdjust="spacing" textLength="219.7152" x="29" y="296.713">get_viewport() const = 0 : glm::ivec4</text><ellipse cx="20" cy="311.849" fill="#84BE84" rx="3" ry="3" style="stroke:#038048;stroke-width:1;"/><text fill="#000000" font-family="sans-serif" font-size="14" lengthAdjust="spacing" textLength="68.1657" x="29" y="315.7809">init() : void</text><ellipse cx="20" cy="330.9169" fill="#84BE84" rx="3" ry="3" style="stroke:#038048;stroke-width:1;"/><text fill="#000000" font-family="sans-serif" font-size="14" lengthAdjust="spacing" textLength="570.9318" x="29" y="334.8489">set_frame_buffer(const std::shared_ptr&lt;RHI_frame_buffer_base&gt; &amp; frame_buffer) : void</text><ellipse cx="20" cy="349.9848" fill="#84BE84" rx="3" ry="3" style="stroke:#038048;stroke-width:1;"/><text fill="#000000" font-family="sans-serif" font-size="14" lengthAdjust="spacing" textLength="466.7861" x="29" y="353.9168">set_geometry(const std::shared_ptr&lt;RHI_geometry&gt; &amp; geometry) : void</text><ellipse cx="20" cy="369.0527" fill="#84BE84" rx="3" ry="3" style="stroke:#038048;stroke-width:1;"/><text fill="#000000" font-family="sans-serif" font-size="14" lengthAdjust="spacing" textLength="604.7138" x="29" y="372.9847">set_shader_program(const std::shared_ptr&lt;RHI_shader_program&gt; &amp; shader_program) : void</text><ellipse cx="20" cy="388.1206" fill="#84BE84" rx="3" ry="3" style="stroke:#038048;stroke-width:1;"/><text fill="#000000" font-family="sans-serif" font-size="14" font-style="italic" lengthAdjust="spacing" textLength="313.9628" x="29" y="392.0526">set_viewport(const glm::ivec4 &amp; viewport) = 0 : void</text><ellipse cx="20" cy="407.1885" fill="#84BE84" rx="3" ry="3" style="stroke:#038048;stroke-width:1;"/><text fill="#000000" font-family="sans-serif" font-size="14" lengthAdjust="spacing" textLength="476.7262" x="29" y="411.1205">shader_program() const : const std::shared_ptr&lt;RHI_shader_program&gt; &amp;</text><line style="stroke:#181818;stroke-width:0.5;" x1="10" x2="1483.848" y1="419.2225" y2="419.2225"/><polygon fill="none" points="20,429.2565,24,433.2565,20,437.2565,16,433.2565" style="stroke:#B38D22;stroke-width:1;"/><text fill="#000000" font-family="sans-serif" font-size="14" lengthAdjust="spacing" textLength="173.7533" x="29" y="438.1884">m_clear_state : Clear_state</text><polygon fill="none" points="20,448.3244,24,452.3244,20,456.3244,16,452.3244" style="stroke:#B38D22;stroke-width:1;"/><text fill="#000000" font-family="sans-serif" font-size="14" lengthAdjust="spacing" textLength="385.1666" x="29" y="457.2564">m_frame_buffer : std::shared_ptr&lt;RHI_frame_buffer_base&gt;</text><polygon fill="none" points="20,467.3923,24,471.3923,20,475.3923,16,471.3923" style="stroke:#B38D22;stroke-width:1;"/><text fill="#000000" font-family="sans-serif" font-size="14" lengthAdjust="spacing" textLength="303.3089" x="29" y="476.3243">m_geometry : std::shared_ptr&lt;RHI_geometry&gt;</text><polygon fill="none" points="20,486.4602,24,490.4602,20,494.4602,16,490.4602" style="stroke:#B38D22;stroke-width:1;"/><text fill="#000000" font-family="sans-serif" font-size="14" lengthAdjust="spacing" textLength="395.2605" x="29" y="495.3922">m_shader_program : std::shared_ptr&lt;RHI_shader_program&gt;</text></g><!--reverse link C_0010445000104793355249 to C_0013741543183434560393--><g class="link" data-entity-1="C_0010445000104793355249" data-entity-2="C_0013741543183434560393" data-source-line="39" data-uid="lnk4" id="link_C_0010445000104793355249_C_0013741543183434560393"><path codeLine="39" d="M746.92,515.7379 C746.92,543.4879 746.92,558.4479 746.92,582.3679" fill="none" id="C_0010445000104793355249-backto-C_0013741543183434560393" style="stroke:#181818;stroke-width:1;"/><polygon fill="none" points="746.92,503.7379,742.92,509.7379,746.92,515.7379,750.92,509.7379,746.92,503.7379" style="stroke:#181818;stroke-width:1;"/><polygon fill="none" points="752.92,538.8409,756.92,542.8409,752.92,546.8409,748.92,542.8409" style="stroke:#B38D22;stroke-width:1;"/><text fill="#000000" font-family="sans-serif" font-size="13" lengthAdjust="spacing" textLength="83.5251" x="759.92" y="548.3849">m_clear_state</text></g><!--SRC=[rLLDZvim4BtxLrXRgPk8WA2GJOEsUrcf7zBkfOTUBMC6OedOo7OIhQBjRwyX2S6qh1BjgISOpvitCyyVOxYf0AiL9mf43WeKPXNL6kUSbegkqS6wUQo0Ag8DDN23gSQF90oZU954yoIEFiT9dCplmdWP7_5ZRhn7-uQ4irViWQ1P1VbaYbFSuqU488_9IYgxdabP7It2MioMLXkmdh9Qf-aMM8Ay76gpwi2jDG0NbQG6UTg0OBpge4Tx0Du8pKi1EUR2e5T4CsqKPGRV_Fp-evFfh4AO9FEm_IwMSJoVVqgMvvWnX1N2wzDDc1JQz6N07p4xMur6MybpvFrsmhhr843xKrQhBQthweNq22po2mux5hQYeWG7e4sUfiL6CCEbk6zWUEBKCtt0Xp3LPUsdRBcEVRHSUaKLvAGswhwfkR372KYsAGfG9ACQ7coB_SL1XKxjgIkDapXNTFT6NcjQhKYjP7EWcwJkoWoFnvOWrs3KInDr-dyBVrsFmoO8jxnKC7id_fDsPivbmQVw2PCROTpzx8VP3JqaJQzCZhnJsHTHzFfrn2x1a2s7NIsLwOWEnRRF2Z-yArnmSxvXdhPHJXVlEWTzrgwfwxRE9N6FmJjEq3zlj-vBTk0-IsKfJZvtqmSrNR9dVrNNp8CFw_vJDPWNrjcNrdelsv8cy2JbI52dUeDrAnk969HlvyVe292-FpueK-psZD3jDn2Wx6-ETzpEEpjfHUblrjKCRq5f-sZZCBWB8Z-Q-sLM95cHCtJxzFJhkVEt8PqLBOCeME39LyYbeaVJZuE29T7q3m00]--></g></svg>