<svg xmlns="http://www.w3.org/2000/svg" xmlns:xlink="http://www.w3.org/1999/xlink" contentStyleType="text/css" data-diagram-type="CLASS" height="828px" preserveAspectRatio="none" style="width:1299px;height:828px;background:#FFFFFF;" version="1.1" viewBox="0 0 1299 828" width="1299px" zoomAndPan="magnify"><title>rhi_window class diagram</title><defs/><g><text fill="#000000" font-family="sans-serif" font-size="14" font-weight="bold" lengthAdjust="spacing" textLength="179.5284" x="552.8544" y="24.9659">rhi_window class diagram</text><!--class C_0016292333850286079981--><g class="entity" data-entity="C_0016292333850286079981" data-source-line="2" data-uid="ent0002" id="entity_C_0016292333850286079981"><rect fill="#F1F1F1" height="48" rx="2.5" ry="2.5" style="stroke:#181818;stroke-width:0.5;" width="103.6261" x="7" y="773.1779"/><ellipse cx="22" cy="789.1779" fill="#ADD1B2" rx="11" ry="11" style="stroke:#181818;stroke-width:1;"/><path d="M22.1094,784.7092 Q21.1875,784.7092 20.4531,785.0217 Q19.7344,785.3342 19.2344,785.9279 Q18.7344,786.506 18.4531,787.381 Q18.1875,788.256 18.1875,789.3498 Q18.1875,790.7873 18.625,791.8342 Q19.0781,792.881 19.9219,793.4279 Q20.7813,793.9748 22.0938,793.9748 Q22.875,793.9748 23.5625,793.8498 Q24.2656,793.7092 25.2656,793.3967 L25.2656,795.2717 Q24.4063,795.5998 23.6406,795.7248 Q22.8906,795.8498 21.875,795.8498 Q19.9531,795.8498 18.6406,795.0529 Q17.3438,794.2404 16.6875,792.7717 Q16.0313,791.2873 16.0313,789.3185 Q16.0313,787.8967 16.4219,786.7248 Q16.8281,785.5373 17.6094,784.6623 Q18.3906,783.7873 19.5313,783.3185 Q20.6719,782.8342 22.1406,782.8342 Q23.0938,782.8342 23.9844,783.0373 Q24.8906,783.2248 25.8281,783.6935 L25,785.4748 Q24.2188,785.0998 23.5625,784.9123 Q22.9063,784.7092 22.1094,784.7092 Z " fill="#000000"/><text fill="#000000" font-family="sans-serif" font-size="14" lengthAdjust="spacing" textLength="36.4978" x="36" y="794.6099">Event</text><rect fill="#FFFFFF" height="18.3441" style="stroke:#181818;stroke-width:1;stroke-dasharray:2.0,2.0;" width="33.1282" x="80.4978" y="770.1779"/><text fill="#000000" font-family="sans-serif" font-size="12" font-style="italic" lengthAdjust="spacing" textLength="31.1282" x="81.4978" y="784.006">int,int</text><line style="stroke:#181818;stroke-width:0.5;" x1="8" x2="109.6261" y1="805.1779" y2="805.1779"/><line style="stroke:#181818;stroke-width:0.5;" x1="8" x2="109.6261" y1="813.1779" y2="813.1779"/></g><!--class C_0014847333669851370870--><g class="entity" data-entity="C_0014847333669851370870" data-source-line="6" data-uid="ent0003" id="entity_C_0014847333669851370870"><rect fill="#F1F1F1" height="48" rx="2.5" ry="2.5" style="stroke:#181818;stroke-width:0.5;" width="276.1872" x="145.72" y="773.1779"/><ellipse cx="160.72" cy="789.1779" fill="#ADD1B2" rx="11" ry="11" style="stroke:#181818;stroke-width:1;"/><path d="M160.8294,784.7092 Q159.9075,784.7092 159.1731,785.0217 Q158.4544,785.3342 157.9544,785.9279 Q157.4544,786.506 157.1731,787.381 Q156.9075,788.256 156.9075,789.3498 Q156.9075,790.7873 157.345,791.8342 Q157.7981,792.881 158.6419,793.4279 Q159.5013,793.9748 160.8138,793.9748 Q161.595,793.9748 162.2825,793.8498 Q162.9856,793.7092 163.9856,793.3967 L163.9856,795.2717 Q163.1263,795.5998 162.3606,795.7248 Q161.6106,795.8498 160.595,795.8498 Q158.6731,795.8498 157.3606,795.0529 Q156.0638,794.2404 155.4075,792.7717 Q154.7513,791.2873 154.7513,789.3185 Q154.7513,787.8967 155.1419,786.7248 Q155.5481,785.5373 156.3294,784.6623 Q157.1106,783.7873 158.2513,783.3185 Q159.3919,782.8342 160.8606,782.8342 Q161.8138,782.8342 162.7044,783.0373 Q163.6106,783.2248 164.5481,783.6935 L163.72,785.4748 Q162.9388,785.0998 162.2825,784.9123 Q161.6263,784.7092 160.8294,784.7092 Z " fill="#000000"/><text fill="#000000" font-family="sans-serif" font-size="14" lengthAdjust="spacing" textLength="36.4978" x="174.72" y="794.6099">Event</text><rect fill="#FFFFFF" height="18.3441" style="stroke:#181818;stroke-width:1;stroke-dasharray:2.0,2.0;" width="205.6893" x="219.2178" y="770.1779"/><text fill="#000000" font-family="sans-serif" font-size="12" font-style="italic" lengthAdjust="spacing" textLength="203.6893" x="220.2178" y="784.006">Mouse_button,Key_action,unsigned int</text><line style="stroke:#181818;stroke-width:0.5;" x1="146.72" x2="420.9072" y1="805.1779" y2="805.1779"/><line style="stroke:#181818;stroke-width:0.5;" x1="146.72" x2="420.9072" y1="813.1779" y2="813.1779"/></g><!--class C_0007753529789918665902--><g class="entity" data-entity="C_0007753529789918665902" data-source-line="10" data-uid="ent0004" id="entity_C_0007753529789918665902"><rect fill="#F1F1F1" height="48" rx="2.5" ry="2.5" style="stroke:#181818;stroke-width:0.5;" width="148.9383" x="508.34" y="773.1779"/><ellipse cx="523.34" cy="789.1779" fill="#ADD1B2" rx="11" ry="11" style="stroke:#181818;stroke-width:1;"/><path d="M523.4494,784.7092 Q522.5275,784.7092 521.7931,785.0217 Q521.0744,785.3342 520.5744,785.9279 Q520.0744,786.506 519.7931,787.381 Q519.5275,788.256 519.5275,789.3498 Q519.5275,790.7873 519.965,791.8342 Q520.4181,792.881 521.2619,793.4279 Q522.1212,793.9748 523.4337,793.9748 Q524.215,793.9748 524.9025,793.8498 Q525.6056,793.7092 526.6056,793.3967 L526.6056,795.2717 Q525.7462,795.5998 524.9806,795.7248 Q524.2306,795.8498 523.215,795.8498 Q521.2931,795.8498 519.9806,795.0529 Q518.6837,794.2404 518.0275,792.7717 Q517.3712,791.2873 517.3712,789.3185 Q517.3712,787.8967 517.7619,786.7248 Q518.1681,785.5373 518.9494,784.6623 Q519.7306,783.7873 520.8712,783.3185 Q522.0119,782.8342 523.4806,782.8342 Q524.4337,782.8342 525.3244,783.0373 Q526.2306,783.2248 527.1681,783.6935 L526.34,785.4748 Q525.5587,785.0998 524.9025,784.9123 Q524.2462,784.7092 523.4494,784.7092 Z " fill="#000000"/><text fill="#000000" font-family="sans-serif" font-size="14" lengthAdjust="spacing" textLength="36.4978" x="537.34" y="794.6099">Event</text><rect fill="#FFFFFF" height="18.3441" style="stroke:#181818;stroke-width:1;stroke-dasharray:2.0,2.0;" width="78.4405" x="581.8378" y="770.1779"/><text fill="#000000" font-family="sans-serif" font-size="12" font-style="italic" lengthAdjust="spacing" textLength="76.4405" x="582.8378" y="784.006">double,double</text><line style="stroke:#181818;stroke-width:0.5;" x1="509.34" x2="656.2783" y1="805.1779" y2="805.1779"/><line style="stroke:#181818;stroke-width:0.5;" x1="509.34" x2="656.2783" y1="813.1779" y2="813.1779"/></g><!--class C_0013094731928571238521--><g class="entity" data-entity="C_0013094731928571238521" data-source-line="14" data-uid="ent0005" id="entity_C_0013094731928571238521"><rect fill="#F1F1F1" height="48" rx="2.5" ry="2.5" style="stroke:#181818;stroke-width:0.5;" width="249.115" x="743.26" y="773.1779"/><ellipse cx="758.26" cy="789.1779" fill="#ADD1B2" rx="11" ry="11" style="stroke:#181818;stroke-width:1;"/><path d="M758.3694,784.7092 Q757.4475,784.7092 756.7131,785.0217 Q755.9944,785.3342 755.4944,785.9279 Q754.9944,786.506 754.7131,787.381 Q754.4475,788.256 754.4475,789.3498 Q754.4475,790.7873 754.885,791.8342 Q755.3381,792.881 756.1819,793.4279 Q757.0413,793.9748 758.3538,793.9748 Q759.135,793.9748 759.8225,793.8498 Q760.5256,793.7092 761.5256,793.3967 L761.5256,795.2717 Q760.6663,795.5998 759.9006,795.7248 Q759.1506,795.8498 758.135,795.8498 Q756.2131,795.8498 754.9006,795.0529 Q753.6038,794.2404 752.9475,792.7717 Q752.2913,791.2873 752.2913,789.3185 Q752.2913,787.8967 752.6819,786.7248 Q753.0881,785.5373 753.8694,784.6623 Q754.6506,783.7873 755.7913,783.3185 Q756.9319,782.8342 758.4006,782.8342 Q759.3538,782.8342 760.2444,783.0373 Q761.1506,783.2248 762.0881,783.6935 L761.26,785.4748 Q760.4788,785.0998 759.8225,784.9123 Q759.1663,784.7092 758.3694,784.7092 Z " fill="#000000"/><text fill="#000000" font-family="sans-serif" font-size="14" lengthAdjust="spacing" textLength="36.4978" x="772.26" y="794.6099">Event</text><rect fill="#FFFFFF" height="18.3441" style="stroke:#181818;stroke-width:1;stroke-dasharray:2.0,2.0;" width="178.6172" x="816.7578" y="770.1779"/><text fill="#000000" font-family="sans-serif" font-size="12" font-style="italic" lengthAdjust="spacing" textLength="176.6172" x="817.7578" y="784.006">Key_code,Key_action,unsigned int</text><line style="stroke:#181818;stroke-width:0.5;" x1="744.26" x2="991.375" y1="805.1779" y2="805.1779"/><line style="stroke:#181818;stroke-width:0.5;" x1="744.26" x2="991.375" y1="813.1779" y2="813.1779"/></g><!--class C_0017328016858130017764--><g class="entity" data-entity="C_0017328016858130017764" data-source-line="18" data-uid="ent0006" id="entity_C_0017328016858130017764"><rect fill="#F1F1F1" height="48" rx="2.5" ry="2.5" style="stroke:#181818;stroke-width:0.5;" width="146.9944" x="1065.32" y="773.1779"/><ellipse cx="1080.32" cy="789.1779" fill="#ADD1B2" rx="11" ry="11" style="stroke:#181818;stroke-width:1;"/><path d="M1080.4294,784.7092 Q1079.5075,784.7092 1078.7731,785.0217 Q1078.0544,785.3342 1077.5544,785.9279 Q1077.0544,786.506 1076.7731,787.381 Q1076.5075,788.256 1076.5075,789.3498 Q1076.5075,790.7873 1076.945,791.8342 Q1077.3981,792.881 1078.2419,793.4279 Q1079.1013,793.9748 1080.4138,793.9748 Q1081.195,793.9748 1081.8825,793.8498 Q1082.5856,793.7092 1083.5856,793.3967 L1083.5856,795.2717 Q1082.7263,795.5998 1081.9606,795.7248 Q1081.2106,795.8498 1080.195,795.8498 Q1078.2731,795.8498 1076.9606,795.0529 Q1075.6638,794.2404 1075.0075,792.7717 Q1074.3513,791.2873 1074.3513,789.3185 Q1074.3513,787.8967 1074.7419,786.7248 Q1075.1481,785.5373 1075.9294,784.6623 Q1076.7106,783.7873 1077.8513,783.3185 Q1078.9919,782.8342 1080.4606,782.8342 Q1081.4138,782.8342 1082.3044,783.0373 Q1083.2106,783.2248 1084.1481,783.6935 L1083.32,785.4748 Q1082.5388,785.0998 1081.8825,784.9123 Q1081.2263,784.7092 1080.4294,784.7092 Z " fill="#000000"/><text fill="#000000" font-family="sans-serif" font-size="14" lengthAdjust="spacing" textLength="36.4978" x="1094.32" y="794.6099">Event</text><rect fill="#FFFFFF" height="18.3441" style="stroke:#181818;stroke-width:1;stroke-dasharray:2.0,2.0;" width="76.4965" x="1138.8178" y="770.1779"/><text fill="#000000" font-family="sans-serif" font-size="12" font-style="italic" lengthAdjust="spacing" textLength="74.4965" x="1139.8178" y="784.006">RHI_window *</text><line style="stroke:#181818;stroke-width:0.5;" x1="1066.32" x2="1211.3144" y1="805.1779" y2="805.1779"/><line style="stroke:#181818;stroke-width:0.5;" x1="1066.32" x2="1211.3144" y1="813.1779" y2="813.1779"/></g><!--class C_0006962593096431523184--><g class="entity" data-entity="C_0006962593096431523184" data-source-line="22" data-uid="ent0007" id="entity_C_0006962593096431523184"><rect fill="#F1F1F1" height="647.1054" rx="2.5" ry="2.5" style="stroke:#181818;stroke-width:0.5;" width="385.8967" x="483.86" y="47.0679"/><ellipse cx="634.7795" cy="63.0679" fill="#A9DCDF" rx="11" ry="11" style="stroke:#181818;stroke-width:1;"/><path d="M638.1232,68.3179 L636.6545,64.5679 L632.217,64.5679 L630.7795,68.3179 L628.6545,68.3179 L633.6076,55.5992 L635.3576,55.5992 L640.2795,68.3179 L638.1232,68.3179 Z M634.7795,59.3648 Q634.7326,59.2085 634.6076,58.8492 Q634.4826,58.4898 634.3732,58.1148 Q634.2638,57.7242 634.467,57.6617 Q634.6232,57.8492 634.5295,58.2085 Q634.4357,58.5523 634.342,58.8492 Q634.2482,59.1304 634.1701,59.3648 L632.9357,62.6773 L636.0138,62.6773 L634.7795,59.3648 Z " fill="#000000"/><text fill="#000000" font-family="sans-serif" font-size="14" font-style="italic" lengthAdjust="spacing" textLength="75.5577" x="655.2795" y="68.4999">RHI_window</text><line style="stroke:#181818;stroke-width:0.5;" x1="484.86" x2="868.7567" y1="79.0679" y2="79.0679"/><ellipse cx="494.86" cy="94.1019" fill="#84BE84" rx="3" ry="3" style="stroke:#038048;stroke-width:1;"/><text fill="#000000" font-family="sans-serif" font-size="14" lengthAdjust="spacing" textLength="359.8967" x="503.86" y="98.0339">RHI_window(int width, int height, std::string title) : void</text><ellipse cx="494.86" cy="113.1698" fill="#84BE84" rx="3" ry="3" style="stroke:#038048;stroke-width:1;"/><text fill="#000000" font-family="sans-serif" font-size="14" lengthAdjust="spacing" textLength="267.3569" x="503.86" y="117.1018">~RHI_window() constexpr = default : void</text><line style="stroke:#181818;stroke-width:1;stroke-dasharray:1.0,2.0;" x1="484.86" x2="868.7567" y1="125.2038" y2="125.2038"/><ellipse cx="494.86" cy="140.2377" fill="#84BE84" rx="3" ry="3" style="stroke:#038048;stroke-width:1;"/><text fill="#000000" font-family="sans-serif" font-size="14" font-style="italic" lengthAdjust="spacing" textLength="131.8935" x="503.86" y="144.1697">deactivate() = 0 : void</text><ellipse cx="494.86" cy="159.3056" fill="#84BE84" rx="3" ry="3" style="stroke:#038048;stroke-width:1;"/><text fill="#000000" font-family="sans-serif" font-size="14" lengthAdjust="spacing" textLength="304.4428" x="503.86" y="163.2376">frame_begin_event() : Event&lt;RHI_window *&gt; &amp;</text><ellipse cx="494.86" cy="178.3735" fill="#84BE84" rx="3" ry="3" style="stroke:#038048;stroke-width:1;"/><text fill="#000000" font-family="sans-serif" font-size="14" lengthAdjust="spacing" textLength="292.2208" x="503.86" y="182.3055">frame_end_event() : Event&lt;RHI_window *&gt; &amp;</text><ellipse cx="494.86" cy="197.4415" fill="#84BE84" rx="3" ry="3" style="stroke:#038048;stroke-width:1;"/><text fill="#000000" font-family="sans-serif" font-size="14" lengthAdjust="spacing" textLength="132.3555" x="503.86" y="201.3734">height() : const int &amp;</text><ellipse cx="494.86" cy="216.5094" fill="#84BE84" rx="3" ry="3" style="stroke:#038048;stroke-width:1;"/><text fill="#000000" font-family="sans-serif" font-size="14" lengthAdjust="spacing" textLength="253.567" x="503.86" y="220.4414">imgui() : std::shared_ptr&lt;RHI_imgui&gt; &amp;</text><ellipse cx="494.86" cy="235.5773" fill="#84BE84" rx="3" ry="3" style="stroke:#038048;stroke-width:1;"/><text fill="#000000" font-family="sans-serif" font-size="14" font-style="italic" lengthAdjust="spacing" textLength="120.7355" x="503.86" y="239.5093">is_active() = 0 : bool</text><ellipse cx="494.86" cy="254.6452" fill="#84BE84" rx="3" ry="3" style="stroke:#038048;stroke-width:1;"/><text fill="#000000" font-family="sans-serif" font-size="14" lengthAdjust="spacing" textLength="165.1853" x="503.86" y="258.5772">key_event() : Key_event &amp;</text><ellipse cx="494.86" cy="273.7131" fill="#84BE84" rx="3" ry="3" style="stroke:#038048;stroke-width:1;"/><text fill="#000000" font-family="sans-serif" font-size="14" lengthAdjust="spacing" textLength="309.6228" x="503.86" y="277.6451">mouse_button_event() : Mouse_button_event &amp;</text><ellipse cx="494.86" cy="292.781" fill="#84BE84" rx="3" ry="3" style="stroke:#038048;stroke-width:1;"/><text fill="#000000" font-family="sans-serif" font-size="14" lengthAdjust="spacing" textLength="293.7748" x="503.86" y="296.713">mouse_move_event() : Mouse_move_event &amp;</text><ellipse cx="494.86" cy="311.849" fill="#84BE84" rx="3" ry="3" style="stroke:#038048;stroke-width:1;"/><text fill="#000000" font-family="sans-serif" font-size="14" lengthAdjust="spacing" textLength="290.4428" x="503.86" y="315.7809">mouse_scroll_event() : Mouse_scroll_event &amp;</text><ellipse cx="494.86" cy="330.9169" fill="#84BE84" rx="3" ry="3" style="stroke:#038048;stroke-width:1;"/><text fill="#000000" font-family="sans-serif" font-size="14" lengthAdjust="spacing" textLength="153.6074" x="503.86" y="334.8489">on_frame_begin() : void</text><ellipse cx="494.86" cy="349.9848" fill="#84BE84" rx="3" ry="3" style="stroke:#038048;stroke-width:1;"/><text fill="#000000" font-family="sans-serif" font-size="14" lengthAdjust="spacing" textLength="141.3854" x="503.86" y="353.9168">on_frame_end() : void</text><rect fill="#F24D5C" height="6" style="stroke:#C82930;stroke-width:1;" width="6" x="491.86" y="366.0527"/><text fill="#000000" font-family="sans-serif" font-size="14" font-style="italic" lengthAdjust="spacing" textLength="136.1775" x="503.86" y="372.9847">poll_events() = 0 : void</text><ellipse cx="494.86" cy="388.1206" fill="#84BE84" rx="3" ry="3" style="stroke:#038048;stroke-width:1;"/><text fill="#000000" font-family="sans-serif" font-size="14" font-style="italic" lengthAdjust="spacing" textLength="333.9547" x="503.86" y="392.0526">set_viewport(int x, int y, int width, int height) = 0 : void</text><rect fill="#F24D5C" height="6" style="stroke:#C82930;stroke-width:1;" width="6" x="491.86" y="404.1885"/><text fill="#000000" font-family="sans-serif" font-size="14" font-style="italic" lengthAdjust="spacing" textLength="149.6034" x="503.86" y="411.1205">swap_buffers() = 0 : void</text><ellipse cx="494.86" cy="426.2565" fill="#84BE84" rx="3" ry="3" style="stroke:#038048;stroke-width:1;"/><text fill="#000000" font-family="sans-serif" font-size="14" lengthAdjust="spacing" textLength="164.0794" x="503.86" y="430.1884">title() : const std::string &amp;</text><ellipse cx="494.86" cy="445.3244" fill="#84BE84" rx="3" ry="3" style="stroke:#038048;stroke-width:1;"/><text fill="#000000" font-family="sans-serif" font-size="14" lengthAdjust="spacing" textLength="126.8115" x="503.86" y="449.2564">width() : const int &amp;</text><ellipse cx="494.86" cy="464.3923" fill="#84BE84" rx="3" ry="3" style="stroke:#038048;stroke-width:1;"/><text fill="#000000" font-family="sans-serif" font-size="14" lengthAdjust="spacing" textLength="313.0667" x="503.86" y="468.3243">window_resize_event() : Window_resize_event &amp;</text><line style="stroke:#181818;stroke-width:0.5;" x1="484.86" x2="868.7567" y1="476.4263" y2="476.4263"/><polygon fill="none" points="494.86,486.4602,498.86,490.4602,494.86,494.4602,490.86,490.4602" style="stroke:#B38D22;stroke-width:1;"/><text fill="#000000" font-family="sans-serif" font-size="14" lengthAdjust="spacing" textLength="301.4608" x="503.86" y="495.3922">m_frame_begin_event : Event&lt;RHI_window *&gt;</text><polygon fill="none" points="494.86,505.5281,498.86,509.5281,494.86,513.5281,490.86,509.5281" style="stroke:#B38D22;stroke-width:1;"/><text fill="#000000" font-family="sans-serif" font-size="14" lengthAdjust="spacing" textLength="289.2388" x="503.86" y="514.4601">m_frame_end_event : Event&lt;RHI_window *&gt;</text><polygon fill="none" points="494.86,524.596,498.86,528.596,494.86,532.596,490.86,528.596" style="stroke:#B38D22;stroke-width:1;"/><text fill="#000000" font-family="sans-serif" font-size="14" lengthAdjust="spacing" textLength="90.1316" x="503.86" y="533.528">m_height : int</text><polygon fill="none" points="494.86,543.664,498.86,547.664,494.86,551.664,490.86,547.664" style="stroke:#B38D22;stroke-width:1;"/><text fill="#000000" font-family="sans-serif" font-size="14" lengthAdjust="spacing" textLength="250.585" x="503.86" y="552.5959">m_imgui : std::shared_ptr&lt;RHI_imgui&gt;</text><polygon fill="none" points="494.86,562.7319,498.86,566.7319,494.86,570.7319,490.86,566.7319" style="stroke:#B38D22;stroke-width:1;"/><text fill="#000000" font-family="sans-serif" font-size="14" lengthAdjust="spacing" textLength="162.2033" x="503.86" y="571.6639">m_key_event : Key_event</text><polygon fill="none" points="494.86,581.7998,498.86,585.7998,494.86,589.7998,490.86,585.7998" style="stroke:#B38D22;stroke-width:1;"/><text fill="#000000" font-family="sans-serif" font-size="14" lengthAdjust="spacing" textLength="306.6408" x="503.86" y="590.7318">m_mouse_button_event : Mouse_button_event</text><polygon fill="none" points="494.86,600.8677,498.86,604.8677,494.86,608.8677,490.86,604.8677" style="stroke:#B38D22;stroke-width:1;"/><text fill="#000000" font-family="sans-serif" font-size="14" lengthAdjust="spacing" textLength="290.7928" x="503.86" y="609.7997">m_mouse_move_event : Mouse_move_event</text><polygon fill="none" points="494.86,619.9356,498.86,623.9356,494.86,627.9356,490.86,623.9356" style="stroke:#B38D22;stroke-width:1;"/><text fill="#000000" font-family="sans-serif" font-size="14" lengthAdjust="spacing" textLength="287.4608" x="503.86" y="628.8676">m_mouse_scroll_event : Mouse_scroll_event</text><polygon fill="none" points="494.86,639.0035,498.86,643.0035,494.86,647.0035,490.86,643.0035" style="stroke:#B38D22;stroke-width:1;"/><text fill="#000000" font-family="sans-serif" font-size="14" lengthAdjust="spacing" textLength="121.8555" x="503.86" y="647.9355">m_title : std::string</text><polygon fill="none" points="494.86,658.0715,498.86,662.0715,494.86,666.0715,490.86,662.0715" style="stroke:#B38D22;stroke-width:1;"/><text fill="#000000" font-family="sans-serif" font-size="14" lengthAdjust="spacing" textLength="84.5877" x="503.86" y="667.0034">m_width : int</text><polygon fill="none" points="494.86,677.1394,498.86,681.1394,494.86,685.1394,490.86,681.1394" style="stroke:#B38D22;stroke-width:1;"/><text fill="#000000" font-family="sans-serif" font-size="14" lengthAdjust="spacing" textLength="310.0847" x="503.86" y="686.0714">m_window_resize_event : Window_resize_event</text></g><!--reverse link C_0006962593096431523184 to C_0016292333850286079981--><g class="link" data-entity-1="C_0006962593096431523184" data-entity-2="C_0016292333850286079981" data-source-line="58" data-uid="lnk8" id="link_C_0006962593096431523184_C_0016292333850286079981"><path codeLine="58" d="M473.3364,489.5119 C366.0464,554.7419 242.55,635.2979 131.81,724.1779 C113.21,739.1079 94.08,758.1379 80.07,772.8779" fill="none" id="C_0006962593096431523184-backto-C_0016292333850286079981" style="stroke:#181818;stroke-width:1;"/><polygon fill="none" points="483.59,483.2779,476.3852,482.977,473.3364,489.5119,480.5412,489.8128,483.59,483.2779" style="stroke:#181818;stroke-width:1;"/><polygon fill="none" points="137.81,729.5309,141.81,733.5309,137.81,737.5309,133.81,733.5309" style="stroke:#B38D22;stroke-width:1;"/><text fill="#000000" font-family="sans-serif" font-size="13" lengthAdjust="spacing" textLength="146.8741" x="144.81" y="739.0749">m_window_resize_event</text></g><!--reverse link C_0006962593096431523184 to C_0013094731928571238521--><g class="link" data-entity-1="C_0006962593096431523184" data-entity-2="C_0013094731928571238521" data-source-line="59" data-uid="lnk9" id="link_C_0006962593096431523184_C_0013094731928571238521"><path codeLine="59" d="M826.9835,705.4314 C841.6235,737.9714 849.18,754.7579 857.39,772.9979" fill="none" id="C_0006962593096431523184-backto-C_0013094731928571238521" style="stroke:#181818;stroke-width:1;"/><polygon fill="none" points="822.06,694.4879,820.874,701.6008,826.9835,705.4314,828.1696,698.3185,822.06,694.4879" style="stroke:#181818;stroke-width:1;"/><polygon fill="none" points="846.09,729.5309,850.09,733.5309,846.09,737.5309,842.09,733.5309" style="stroke:#B38D22;stroke-width:1;"/><text fill="#000000" font-family="sans-serif" font-size="13" lengthAdjust="spacing" textLength="78.5981" x="853.09" y="739.0749">m_key_event</text></g><!--reverse link C_0006962593096431523184 to C_0014847333669851370870--><g class="link" data-entity-1="C_0006962593096431523184" data-entity-2="C_0014847333669851370870" data-source-line="60" data-uid="lnk10" id="link_C_0006962593096431523184_C_0014847333669851370870"><path codeLine="60" d="M474.5733,534.3275 C412.6533,591.3575 356.85,651.7479 309.81,724.1779 C300.11,739.1179 293.44,758.1379 289.29,772.8879" fill="none" id="C_0006962593096431523184-backto-C_0014847333669851370870" style="stroke:#181818;stroke-width:1;"/><polygon fill="none" points="483.4,526.1979,476.2768,527.3205,474.5733,534.3275,481.6965,533.2049,483.4,526.1979" style="stroke:#181818;stroke-width:1;"/><polygon fill="none" points="315.81,729.5309,319.81,733.5309,315.81,737.5309,311.81,733.5309" style="stroke:#B38D22;stroke-width:1;"/><text fill="#000000" font-family="sans-serif" font-size="13" lengthAdjust="spacing" textLength="146.3931" x="322.81" y="739.0749">m_mouse_button_event</text></g><!--reverse link C_0006962593096431523184 to C_0007753529789918665902--><g class="link" data-entity-1="C_0006962593096431523184" data-entity-2="C_0007753529789918665902" data-source-line="61" data-uid="lnk11" id="link_C_0006962593096431523184_C_0007753529789918665902"><path codeLine="61" d="M485.7365,706.0854 C482.5565,715.9154 483.36,714.3479 480.81,724.1779 C478.69,732.3479 476.43,735.9579 480.81,743.1779 C488.38,755.6279 499.92,765.2879 512.56,772.7379" fill="none" id="C_0006962593096431523184-backto-C_0007753529789918665902" style="stroke:#181818;stroke-width:1;"/><polygon fill="none" points="489.43,694.6679,483.7774,699.1455,485.7365,706.0854,491.389,701.6078,489.43,694.6679" style="stroke:#181818;stroke-width:1;"/><polygon fill="none" points="486.81,729.5309,490.81,733.5309,486.81,737.5309,482.81,733.5309" style="stroke:#B38D22;stroke-width:1;"/><text fill="#000000" font-family="sans-serif" font-size="13" lengthAdjust="spacing" textLength="139.0351" x="493.81" y="739.0749">m_mouse_move_event</text></g><!--reverse link C_0006962593096431523184 to C_0007753529789918665902--><g class="link" data-entity-1="C_0006962593096431523184" data-entity-2="C_0007753529789918665902" data-source-line="62" data-uid="lnk12" id="link_C_0006962593096431523184_C_0007753529789918665902"><path codeLine="62" d="M653.6271,705.7655 C648.1771,722.6155 645.43,727.5879 637.81,743.1779 C632.34,754.3779 623.48,764.4979 614.44,772.8279" fill="none" id="C_0006962593096431523184-backto-C_0007753529789918665902-1" style="stroke:#181818;stroke-width:1;"/><polygon fill="none" points="657.32,694.3479,651.6677,698.8257,653.6271,705.7655,659.2794,701.2877,657.32,694.3479" style="stroke:#181818;stroke-width:1;"/><polygon fill="none" points="652.05,729.5309,656.05,733.5309,652.05,737.5309,648.05,733.5309" style="stroke:#B38D22;stroke-width:1;"/><text fill="#000000" font-family="sans-serif" font-size="13" lengthAdjust="spacing" textLength="137.4881" x="659.05" y="739.0749">m_mouse_scroll_event</text></g><!--reverse link C_0006962593096431523184 to C_0017328016858130017764--><g class="link" data-entity-1="C_0006962593096431523184" data-entity-2="C_0017328016858130017764" data-source-line="63" data-uid="lnk13" id="link_C_0006962593096431523184_C_0017328016858130017764"><path codeLine="63" d="M878.2502,639.8802 C916.9802,681.0702 951.58,711.6679 996.81,743.1779 C1017.22,757.3979 1041.91,768.3379 1064.94,776.4879" fill="none" id="C_0006962593096431523184-backto-C_0017328016858130017764" style="stroke:#181818;stroke-width:1;"/><polygon fill="none" points="870.03,631.1379,871.226,638.2491,878.2502,639.8802,877.0542,632.769,870.03,631.1379" style="stroke:#181818;stroke-width:1;"/><polygon fill="none" points="1002.81,729.5309,1006.81,733.5309,1002.81,737.5309,998.81,733.5309" style="stroke:#B38D22;stroke-width:1;"/><text fill="#000000" font-family="sans-serif" font-size="13" lengthAdjust="spacing" textLength="123.4481" x="1009.81" y="739.0749">m_frame_end_event</text></g><!--reverse link C_0006962593096431523184 to C_0017328016858130017764--><g class="link" data-entity-1="C_0006962593096431523184" data-entity-2="C_0017328016858130017764" data-source-line="64" data-uid="lnk14" id="link_C_0006962593096431523184_C_0017328016858130017764"><path codeLine="64" d="M880.3823,471.3212 C979.6323,530.6012 1081.06,611.3179 1137.81,724.1779 C1145.34,739.1479 1145.26,758.1679 1143.48,772.9079" fill="none" id="C_0006962593096431523184-backto-C_0017328016858130017764-1" style="stroke:#181818;stroke-width:1;"/><polygon fill="none" points="870.08,465.1679,873.18,471.6787,880.3823,471.3212,877.2822,464.8105,870.08,465.1679" style="stroke:#181818;stroke-width:1;"/><polygon fill="none" points="1149.44,729.5309,1153.44,733.5309,1149.44,737.5309,1145.44,733.5309" style="stroke:#B38D22;stroke-width:1;"/><text fill="#000000" font-family="sans-serif" font-size="13" lengthAdjust="spacing" textLength="134.7971" x="1156.44" y="739.0749">m_frame_begin_event</text></g><!--SRC=[fLN9Rjim4BthAuWKQ9pQ4hGlHjDBqGr9BZsqHq4MAPceB1aIPMT1-kqTKh58HtGJ80T3vipZc-sHP9HL1BLhckvfZPizogkiwn2cMTbc6sDOdNtPaPfzf3LRmE_J6Sewz3crRITq4zVpl3YmtJYqeoI9dQSjfzpemKXJu_6O-ARfEvAkUiQQUd55xj8iPnJ-zdL7ovfWT1pLZ_q8QCCmYGF7Y-muijMe6hSsAcxwLKKMmqVIsr4KU86RH76IE74O1edjAlGwjvQUrv4tcBoY8CzE86KdSUCWSbpebtlKHerR6_7dzn-7ANvGs2FFZM4MSH034ooZq5VPDUu3UxRgM0kfepD9BViK9g4R991Sw7jEu7fExCiTfn10FPTaC-W3sbFCrWlU4hGcj5op1UeONYw1YTObOboX5sY9TWt5nlolili2vKtTCNAxRT4bmgJ8-eeTa9PbF1pIUKHpJFWCTXaZiEqIsIDX0Je7yP6IrYdXVPpnO9gEelS7CAdnoz2X5e4GMOe2mKutPK-5UQXodRK4frlM2WhXvVlLt6ad1BIJgQ-QfZBcVq1PCe-hmuf7sIX7Ii7SJCmIl6bsP0ALHWdiyhQfgWbKDNCmH51wEvCZ71tGHsbM2ZQt8r5tF2srAnrXwOwI_RPfcH3IxI2Yk-4paTKf8hFRPrleIL6GzbcukH2VCaDLc52YY34TyQ23j2KTlLTR-djg1pWSjNURT293lR8aT1JXQU1GD_WXBxuMulgly3XgL9MgAUwOQaghA0bLn3FLauGT2KUd9WuLanXp5nFWPZ41MQ6cy_g-m-rsyefgJFFq-xL4-Z2leDFTuu9kxFWhI7Ilco2PJkTbDkrZfh0fqteprz50NwvJzom9jcVgVpkLSkOCu_mRgKaBhmI62mIK1GzbNPhzfbgW7LmFy8WZsmejntG2irmL_gh0kN5-VVthPlIBBUFAIIp7Yj3iAy5DcpqjJSygSj-v-0S0]--></g></svg>