<svg xmlns="http://www.w3.org/2000/svg" xmlns:xlink="http://www.w3.org/1999/xlink" contentStyleType="text/css" data-diagram-type="CLASS" height="607px" preserveAspectRatio="none" style="width:1107px;height:607px;background:#FFFFFF;" version="1.1" viewBox="0 0 1107 607" width="1107px" zoomAndPan="magnify"><title>rhi_geometry class diagram</title><defs/><g><text fill="#000000" font-family="sans-serif" font-size="14" font-weight="bold" lengthAdjust="spacing" textLength="192.9893" x="450.0634" y="24.9659">rhi_geometry class diagram</text><!--class C_0012787197714378433781--><g class="entity" data-entity="C_0012787197714378433781" data-source-line="2" data-uid="ent0002" id="entity_C_0012787197714378433781"><rect fill="#F1F1F1" height="181.4754" rx="2.5" ry="2.5" style="stroke:#181818;stroke-width:0.5;" width="121.7456" x="280.69" y="376.7479"/><ellipse cx="300.4617" cy="392.7479" fill="#EB937F" rx="11" ry="11" style="stroke:#181818;stroke-width:1;"/><path d="M303.9305,399.2479 L296.618,399.2479 L296.618,386.576 L303.9305,386.576 L303.9305,388.451 L298.6649,388.451 L298.6649,391.7167 L303.618,391.7167 L303.618,393.576 L298.6649,393.576 L298.6649,397.3729 L303.9305,397.3729 L303.9305,399.2479 Z " fill="#000000"/><text fill="#000000" font-family="sans-serif" font-size="14" lengthAdjust="spacing" textLength="79.1417" x="315.5221" y="398.1799">Draw_mode</text><line style="stroke:#181818;stroke-width:0.5;" x1="281.69" x2="401.4356" y1="408.7479" y2="408.7479"/><text fill="#000000" font-family="sans-serif" font-size="14" lengthAdjust="spacing" textLength="50.2598" x="286.69" y="427.7139">POINTS</text><text fill="#000000" font-family="sans-serif" font-size="14" lengthAdjust="spacing" textLength="38.1918" x="286.69" y="446.7818">LINES</text><text fill="#000000" font-family="sans-serif" font-size="14" lengthAdjust="spacing" textLength="74.3957" x="286.69" y="465.8497">LINE_LOOP</text><text fill="#000000" font-family="sans-serif" font-size="14" lengthAdjust="spacing" textLength="74.1157" x="286.69" y="484.9176">LINE_STRIP</text><text fill="#000000" font-family="sans-serif" font-size="14" lengthAdjust="spacing" textLength="73.8217" x="286.69" y="503.9855">TRIANGLES</text><text fill="#000000" font-family="sans-serif" font-size="14" lengthAdjust="spacing" textLength="109.7456" x="286.69" y="523.0534">TRIANGLE_STRIP</text><text fill="#000000" font-family="sans-serif" font-size="14" lengthAdjust="spacing" textLength="99.2036" x="286.69" y="542.1214">TRIANGLE_FAN</text><line style="stroke:#181818;stroke-width:0.5;" x1="281.69" x2="401.4356" y1="550.2233" y2="550.2233"/></g><!--class C_0017791414552427487908--><g class="entity" data-entity="C_0017791414552427487908" data-source-line="12" data-uid="ent0003" id="entity_C_0017791414552427487908"><rect fill="#F1F1F1" height="265.7471" rx="2.5" ry="2.5" style="stroke:#181818;stroke-width:0.5;" width="662.4797" x="437.32" y="334.6079"/><ellipse cx="731.669" cy="350.6079" fill="#A9DCDF" rx="11" ry="11" style="stroke:#181818;stroke-width:1;"/><path d="M735.0127,355.8579 L733.544,352.1079 L729.1065,352.1079 L727.669,355.8579 L725.544,355.8579 L730.4971,343.1392 L732.2471,343.1392 L737.169,355.8579 L735.0127,355.8579 Z M731.669,346.9048 Q731.6221,346.7485 731.4971,346.3892 Q731.3721,346.0298 731.2627,345.6548 Q731.1533,345.2642 731.3565,345.2017 Q731.5127,345.3892 731.419,345.7485 Q731.3252,346.0923 731.2315,346.3892 Q731.1377,346.6704 731.0596,346.9048 L729.8252,350.2173 L732.9033,350.2173 L731.669,346.9048 Z " fill="#000000"/><text fill="#000000" font-family="sans-serif" font-size="14" font-style="italic" lengthAdjust="spacing" textLength="65.2818" x="752.169" y="356.0399">RHI_buffer</text><line style="stroke:#181818;stroke-width:0.5;" x1="438.32" x2="1098.7997" y1="366.6079" y2="366.6079"/><ellipse cx="448.32" cy="381.6419" fill="#84BE84" rx="3" ry="3" style="stroke:#038048;stroke-width:1;"/><text fill="#000000" font-family="sans-serif" font-size="14" lengthAdjust="spacing" textLength="636.4797" x="457.32" y="385.5739">RHI_buffer(Buffer_type type, Buffer_usage usage, unsigned int data_size, const void * data) : void</text><ellipse cx="448.32" cy="400.7098" fill="#84BE84" rx="3" ry="3" style="stroke:#038048;stroke-width:1;"/><text fill="#000000" font-family="sans-serif" font-size="14" lengthAdjust="spacing" textLength="125.8595" x="457.32" y="404.6418">~RHI_buffer() : void</text><line style="stroke:#181818;stroke-width:1;stroke-dasharray:1.0,2.0;" x1="438.32" x2="1098.7997" y1="412.7438" y2="412.7438"/><ellipse cx="448.32" cy="427.7777" fill="#84BE84" rx="3" ry="3" style="stroke:#038048;stroke-width:1;"/><text fill="#000000" font-family="sans-serif" font-size="14" lengthAdjust="spacing" textLength="201.4032" x="457.32" y="431.7097">data_size() const : unsigned int</text><ellipse cx="448.32" cy="446.8456" fill="#84BE84" rx="3" ry="3" style="stroke:#038048;stroke-width:1;"/><text fill="#000000" font-family="sans-serif" font-size="14" font-style="italic" lengthAdjust="spacing" textLength="602.0676" x="457.32" y="450.7776">map_buffer(std::function&lt;void (void *)&gt; accessor, const RHI_buffer_access_flags &amp; flags) = 0 : void</text><ellipse cx="448.32" cy="465.9135" fill="#84BE84" rx="3" ry="3" style="stroke:#038048;stroke-width:1;"/><text fill="#000000" font-family="sans-serif" font-size="14" font-style="italic" lengthAdjust="spacing" textLength="415.4203" x="457.32" y="469.8455">reallocate_data(const void * data, unsigned int data_size) = 0 : void</text><ellipse cx="448.32" cy="484.9815" fill="#84BE84" rx="3" ry="3" style="stroke:#038048;stroke-width:1;"/><text fill="#000000" font-family="sans-serif" font-size="14" font-style="italic" lengthAdjust="spacing" textLength="532.6978" x="457.32" y="488.9134">subsitute_data(const void * data, unsigned int data_size, unsigned int offset) = 0 : void</text><ellipse cx="448.32" cy="504.0494" fill="#84BE84" rx="3" ry="3" style="stroke:#038048;stroke-width:1;"/><text fill="#000000" font-family="sans-serif" font-size="14" lengthAdjust="spacing" textLength="163.3513" x="457.32" y="507.9814">type() const : Buffer_type</text><ellipse cx="448.32" cy="523.1173" fill="#84BE84" rx="3" ry="3" style="stroke:#038048;stroke-width:1;"/><text fill="#000000" font-family="sans-serif" font-size="14" lengthAdjust="spacing" textLength="185.3873" x="457.32" y="527.0493">usage() const : Buffer_usage</text><line style="stroke:#181818;stroke-width:0.5;" x1="438.32" x2="1098.7997" y1="535.1513" y2="535.1513"/><polygon fill="none" points="448.32,545.1852,452.32,549.1852,448.32,553.1852,444.32,549.1852" style="stroke:#B38D22;stroke-width:1;"/><text fill="#000000" font-family="sans-serif" font-size="14" lengthAdjust="spacing" textLength="173.0673" x="457.32" y="554.1172">m_data_size : unsigned int</text><polygon fill="none" points="448.32,564.2531,452.32,568.2531,448.32,572.2531,444.32,568.2531" style="stroke:#B38D22;stroke-width:1;"/><text fill="#000000" font-family="sans-serif" font-size="14" lengthAdjust="spacing" textLength="135.0155" x="457.32" y="573.1851">m_type : Buffer_type</text><polygon fill="none" points="448.32,583.321,452.32,587.321,448.32,591.321,444.32,587.321" style="stroke:#B38D22;stroke-width:1;"/><text fill="#000000" font-family="sans-serif" font-size="14" lengthAdjust="spacing" textLength="157.0514" x="457.32" y="592.253">m_usage : Buffer_usage</text></g><!--class C_0001135025639073477914--><g class="entity" data-entity="C_0001135025639073477914" data-source-line="28" data-uid="ent0004" id="entity_C_0001135025639073477914"><rect fill="#F1F1F1" height="208.5433" rx="2.5" ry="2.5" style="stroke:#181818;stroke-width:0.5;" width="1091.1161" x="9" y="47.0679"/><ellipse cx="507.0202" cy="63.0679" fill="#A9DCDF" rx="11" ry="11" style="stroke:#181818;stroke-width:1;"/><path d="M510.364,68.3179 L508.8952,64.5679 L504.4577,64.5679 L503.0202,68.3179 L500.8952,68.3179 L505.8483,55.5992 L507.5983,55.5992 L512.5202,68.3179 L510.364,68.3179 Z M507.0202,59.3648 Q506.9733,59.2085 506.8483,58.8492 Q506.7233,58.4898 506.614,58.1148 Q506.5046,57.7242 506.7077,57.6617 Q506.864,57.8492 506.7702,58.2085 Q506.6765,58.5523 506.5827,58.8492 Q506.489,59.1304 506.4108,59.3648 L505.1765,62.6773 L508.2546,62.6773 L507.0202,59.3648 Z " fill="#000000"/><text fill="#000000" font-family="sans-serif" font-size="14" font-style="italic" lengthAdjust="spacing" textLength="86.5757" x="527.5202" y="68.4999">RHI_geometry</text><line style="stroke:#181818;stroke-width:0.5;" x1="10" x2="1099.1161" y1="79.0679" y2="79.0679"/><ellipse cx="20" cy="94.1019" fill="#84BE84" rx="3" ry="3" style="stroke:#038048;stroke-width:1;"/><text fill="#000000" font-family="sans-serif" font-size="14" lengthAdjust="spacing" textLength="1065.1161" x="29" y="98.0339">RHI_geometry(const std::unordered_map&lt;unsigned int,std::shared_ptr&lt;RHI_buffer&gt;&gt; &amp; vertex_buffers, const std::shared_ptr&lt;RHI_buffer&gt; &amp; element_buffer) : void</text><ellipse cx="20" cy="113.1698" fill="#84BE84" rx="3" ry="3" style="stroke:#038048;stroke-width:1;"/><text fill="#000000" font-family="sans-serif" font-size="14" lengthAdjust="spacing" textLength="149.2254" x="29" y="117.1018">~RHI_geometry() : void</text><line style="stroke:#181818;stroke-width:1;stroke-dasharray:1.0,2.0;" x1="10" x2="1099.1161" y1="125.2038" y2="125.2038"/><ellipse cx="20" cy="140.2377" fill="#84BE84" rx="3" ry="3" style="stroke:#038048;stroke-width:1;"/><text fill="#000000" font-family="sans-serif" font-size="14" font-style="italic" lengthAdjust="spacing" textLength="145.3055" x="29" y="144.1697">bind_buffers() = 0 : void</text><ellipse cx="20" cy="159.3056" fill="#84BE84" rx="3" ry="3" style="stroke:#038048;stroke-width:1;"/><text fill="#000000" font-family="sans-serif" font-size="14" font-style="italic" lengthAdjust="spacing" textLength="570.1476" x="29" y="163.2376">bind_vertex_buffer(unsigned int location, const std::shared_ptr&lt;RHI_buffer&gt; &amp; vbo) = 0 : void</text><ellipse cx="20" cy="178.3735" fill="#84BE84" rx="3" ry="3" style="stroke:#038048;stroke-width:1;"/><text fill="#000000" font-family="sans-serif" font-size="14" font-style="italic" lengthAdjust="spacing" textLength="376.4585" x="29" y="182.3055">draw(Draw_mode mode = Draw_mode::TRIANGLES) = 0 : void</text><ellipse cx="20" cy="197.4415" fill="#84BE84" rx="3" ry="3" style="stroke:#038048;stroke-width:1;"/><text fill="#000000" font-family="sans-serif" font-size="14" font-style="italic" lengthAdjust="spacing" textLength="622.3535" x="29" y="201.3734">draw_instanced(unsigned int instance_count, Draw_mode mode = Draw_mode::TRIANGLES) = 0 : void</text><line style="stroke:#181818;stroke-width:0.5;" x1="10" x2="1099.1161" y1="209.4754" y2="209.4754"/><polygon fill="none" points="20,219.5094,24,223.5094,20,227.5094,16,223.5094" style="stroke:#B38D22;stroke-width:1;"/><text fill="#000000" font-family="sans-serif" font-size="14" lengthAdjust="spacing" textLength="316.8887" x="29" y="228.4414">m_element_buffer : std::shared_ptr&lt;RHI_buffer&gt;</text><polygon fill="none" points="20,238.5773,24,242.5773,20,246.5773,16,242.5773" style="stroke:#B38D22;stroke-width:1;"/><text fill="#000000" font-family="sans-serif" font-size="14" lengthAdjust="spacing" textLength="546.7539" x="29" y="247.5093">m_vertex_buffers : std::unordered_map&lt;unsigned int,std::shared_ptr&lt;RHI_buffer&gt;&gt;</text></g><!--link C_0001135025639073477914 to C_0012787197714378433781--><g class="link" data-entity-1="C_0001135025639073477914" data-entity-2="C_0012787197714378433781" data-source-line="41" data-uid="lnk5" id="link_C_0001135025639073477914_C_0012787197714378433781"><path codeLine="41" d="M474.86,256.0779 C456.2,281.4079 436.76,308.6879 419.56,334.6079 C410.73,347.9079 404.8705,357.0871 396.3105,371.2071" fill="none" id="C_0001135025639073477914-to-C_0012787197714378433781" style="stroke:#181818;stroke-width:1;stroke-dasharray:7.0,7.0;"/><polygon fill="#181818" points="393.2,376.3379,401.2862,370.7154,395.792,372.0623,394.4452,366.5681,393.2,376.3379" style="stroke:#181818;stroke-width:1;"/></g><!--reverse link C_0001135025639073477914 to C_0017791414552427487908--><g class="link" data-entity-1="C_0001135025639073477914" data-entity-2="C_0017791414552427487908" data-source-line="42" data-uid="lnk6" id="link_C_0001135025639073477914_C_0017791414552427487908"><path codeLine="42" d="M631.9757,265.9856 C649.0257,291.0156 660.71,308.1579 678.51,334.2879" fill="none" id="C_0001135025639073477914-backto-C_0017791414552427487908" style="stroke:#181818;stroke-width:1;"/><polygon fill="none" points="625.22,256.0679,625.292,263.2787,631.9757,265.9856,631.9038,258.7748,625.22,256.0679" style="stroke:#181818;stroke-width:1;"/><polygon fill="none" points="661.14,290.9609,665.14,294.9609,661.14,298.9609,657.14,294.9609" style="stroke:#B38D22;stroke-width:1;"/><text fill="#000000" font-family="sans-serif" font-size="13" lengthAdjust="spacing" textLength="105.8071" x="668.14" y="300.5049">m_vertex_buffers</text></g><!--SRC=[dLLTRvim57tthxZgf9Ki2OA4b0IraRgjxI9bQTLMUxKCDXI9ZyesxRgg- -qp9X18HxNkvOBF_JhsFHWPouG1lujnnFAKIVu4GKA401gJY9CKiQn8uU0h9uyupIax02BW2xOiU-BENNlXkhOpTUVEL1cx2kxpmZEwkbnjRc_GUhKvgonUNrvULMytjzUhAwJCwUPYhTprsvu3dvzkq0iYlf2S118Ehh-ji5-48UCxRgwxi1tRcSqcpiHrvkx2ckyo-Y8Kl-6kcF5PFx1ykcTGcX5iaKAGY86s8oWo4KSPen1d4YYH18lubyA3F1CI7lAOmYUD3y3JIpJytMhIeAQ9XaswWgjyhrCVFTTxU85XIkxh8a9IpmkBB91ndXthdaRLUR044WHCY9pNb7RDSUN2OK8Y0Hz1FmTm0bPDgjsFCv8aUK0amoLFuzK6-ywYjw8eV17Bujq5z_0y30MJdIx3SbwjGsoD4Wtru5uxDOmmHXzItBJQ7u3oQJrqIogqqiHUiNsLrbzOerFBjgSpQp8xcYuiT-feJNPr-hU8MgTrkUt9QHKKMSufuunYfO_ZDlUHzeixKZhl9J_U2M6vLDD_O5oodrj4r6fv8qdbi8IbB9DRP4_X3Rssnjlpz-ECrlsCNfNeg0uvepD-hKcb-tzZ_E3dlPsekkECvg83RKwW0JolkPlUB85ZHODa0QDTeZMCWxnGuu3tTwh4sJrqvNjZnsLyTx1r_7yAHMcwLvQckUp_C_HcvUDn_utimQiD87HumJB6rKL4uJ6MT-N_Ael6HPgCIX4BfGMmp2FJ7jkpSUI7ZX_I01skrp- -DtwTqgpiXMcRBXZdZEQSR9VZgHa6ZZtu0m00]--></g></svg>