<?xml version="1.0" encoding="us-ascii" standalone="no"?><svg xmlns="http://www.w3.org/2000/svg" xmlns:xlink="http://www.w3.org/1999/xlink" contentStyleType="text/css" height="696px" preserveAspectRatio="none" style="width:901px;height:696px;background:#FFFFFF;" version="1.1" viewBox="0 0 901 696" width="901px" zoomAndPan="magnify"><defs/><g><!--cluster Swap_data: ????????--><g id="cluster_Swap_data: &#28210;&#26579;&#25968;&#25454;&#26680;&#24515;&#36733;&#20307;"><path d="M8.5,6.602 L209.375,6.602 A3.75,3.75 0 0 1 211.875,9.102 L218.875,31.6699 L891.5,31.6699 A2.5,2.5 0 0 1 894,34.1699 L894,687.102 A2.5,2.5 0 0 1 891.5,689.602 L8.5,689.602 A2.5,2.5 0 0 1 6,687.102 L6,9.102 A2.5,2.5 0 0 1 8.5,6.602 " fill="none" style="stroke:#000000;stroke-width:1.5;"/><line style="stroke:#000000;stroke-width:1.5;" x1="6" x2="218.875" y1="31.6699" y2="31.6699"/><text fill="#000000" font-family="sans-serif" font-size="14" font-weight="bold" lengthAdjust="spacing" textLength="199.875" x="10" y="23.5679">Swap_data: &#28210;&#26579;&#25968;&#25454;&#26680;&#24515;&#36733;&#20307;</text></g><!--class Swap_data--><g id="elem_Swap_data"><rect codeLine="14" fill="#F1F1F1" height="257.7471" id="Swap_data" rx="2.5" ry="2.5" style="stroke:#181818;stroke-width:0.5;" width="546" x="22" y="230.732"/><ellipse cx="254.75" cy="246.732" fill="#ADD1B2" rx="11" ry="11" style="stroke:#181818;stroke-width:1.0;"/><path d="M254.8594,242.2632 Q253.9375,242.2632 253.2031,242.5757 Q252.4844,242.8882 251.9844,243.482 Q251.4844,244.0601 251.2031,244.9351 Q250.9375,245.8101 250.9375,246.9039 Q250.9375,248.3414 251.375,249.3882 Q251.8281,250.4351 252.6719,250.982 Q253.5313,251.5289 254.8438,251.5289 Q255.625,251.5289 256.3125,251.4039 Q257.0156,251.2632 258.0156,250.9507 L258.0156,252.8257 Q257.1563,253.1539 256.3906,253.2789 Q255.6406,253.4039 254.625,253.4039 Q252.7031,253.4039 251.3906,252.607 Q250.0938,251.7945 249.4375,250.3257 Q248.7813,248.8414 248.7813,246.8726 Q248.7813,245.4507 249.1719,244.2789 Q249.5781,243.0914 250.3594,242.2164 Q251.1406,241.3414 252.2813,240.8726 Q253.4219,240.3882 254.8906,240.3882 Q255.8438,240.3882 256.7344,240.5914 Q257.6406,240.7789 258.5781,241.2476 L257.75,243.0289 Q256.9688,242.6539 256.3125,242.4664 Q255.6563,242.2632 254.8594,242.2632 Z " fill="#000000"/><text fill="#000000" font-family="sans-serif" font-size="14" lengthAdjust="spacing" textLength="72" x="275.25" y="252.164">Swap_data</text><line style="stroke:#181818;stroke-width:0.5;" x1="23" x2="567" y1="262.732" y2="262.732"/><ellipse cx="33" cy="277.7659" fill="none" rx="3" ry="3" style="stroke:#038048;stroke-width:1.0;"/><text fill="#000000" font-family="sans-serif" font-size="14" lengthAdjust="spacing" textLength="146" x="42" y="281.6979">Swap_camera camera</text><ellipse cx="33" cy="296.8339" fill="none" rx="3" ry="3" style="stroke:#038048;stroke-width:1.0;"/><text fill="#000000" font-family="sans-serif" font-size="14" lengthAdjust="spacing" textLength="246" x="42" y="300.7658">"List&lt;"&lt;Swap_object&gt; render_objects</text><ellipse cx="33" cy="315.9018" fill="none" rx="3" ry="3" style="stroke:#038048;stroke-width:1.0;"/><text fill="#000000" font-family="sans-serif" font-size="14" lengthAdjust="spacing" textLength="330" x="42" y="319.8338">"List&lt;"&lt;Swap_directional_light&gt; directional_lights</text><ellipse cx="33" cy="334.9697" fill="none" rx="3" ry="3" style="stroke:#038048;stroke-width:1.0;"/><text fill="#000000" font-family="sans-serif" font-size="14" lengthAdjust="spacing" textLength="256" x="42" y="338.9017">"List&lt;"&lt;Swap_point_light&gt; point_lights</text><ellipse cx="33" cy="354.0376" fill="none" rx="3" ry="3" style="stroke:#038048;stroke-width:1.0;"/><text fill="#000000" font-family="sans-serif" font-size="14" lengthAdjust="spacing" textLength="244" x="42" y="357.9696">"List&lt;"&lt;Swap_spot_light&gt; spot_lights</text><ellipse cx="33" cy="373.1055" fill="none" rx="3" ry="3" style="stroke:#038048;stroke-width:1.0;"/><text fill="#000000" font-family="sans-serif" font-size="14" lengthAdjust="spacing" textLength="233" x="42" y="377.0375">"std::shared_ptr&lt;"&lt;Skybox&gt; skybox</text><ellipse cx="33" cy="392.1734" fill="none" rx="3" ry="3" style="stroke:#038048;stroke-width:1.0;"/><text fill="#000000" font-family="sans-serif" font-size="14" lengthAdjust="spacing" textLength="353" x="42" y="396.1054">"List&lt;"&lt;Swap_DL_Shadow_caster&gt; dl_shadow_casters</text><ellipse cx="33" cy="411.2414" fill="none" rx="3" ry="3" style="stroke:#038048;stroke-width:1.0;"/><text fill="#000000" font-family="sans-serif" font-size="14" lengthAdjust="spacing" textLength="321" x="42" y="415.1733">bool enable_csm_shadow ' &#25511;&#21046;&#26159;&#21542;&#21551;&#29992;&#32423;&#32852;&#38452;&#24433;</text><ellipse cx="33" cy="430.3093" fill="none" rx="3" ry="3" style="stroke:#038048;stroke-width:1.0;"/><text fill="#000000" font-family="sans-serif" font-size="14" lengthAdjust="spacing" textLength="379" x="42" y="434.2413">"List&lt;"&lt;Swap_CSM_shadow_caster&gt; csm_shadow_casters</text><line style="stroke:#181818;stroke-width:0.5;" x1="23" x2="567" y1="442.3432" y2="442.3432"/><ellipse cx="33" cy="457.3772" fill="#84BE84" rx="3" ry="3" style="stroke:#038048;stroke-width:1.0;"/><text fill="#000000" font-family="sans-serif" font-size="14" lengthAdjust="spacing" textLength="206" x="42" y="461.3092">clear() ' &#37325;&#32622;&#25152;&#26377;&#21521;&#37327;&#21644;&#20849;&#20139;&#25351;&#38024;</text><ellipse cx="33" cy="476.4451" fill="#84BE84" rx="3" ry="3" style="stroke:#038048;stroke-width:1.0;"/><text fill="#000000" font-family="sans-serif" font-size="14" lengthAdjust="spacing" textLength="520" x="42" y="480.3771">get_shadow_casters(): "List&lt;"&lt;Swap_shadow_caster_object&gt; ' &#31579;&#36873;&#25237;&#23556;&#38452;&#24433;&#23545;&#35937;</text></g><!--class Swap_camera--><g id="elem_Swap_camera"><rect codeLine="34" fill="#F1F1F1" height="48" id="Swap_camera" rx="2.5" ry="2.5" style="stroke:#181818;stroke-width:0.5;" width="124" x="711.5" y="625.602"/><ellipse cx="726.5" cy="641.602" fill="#F1F1F1" rx="11" ry="11" style="stroke:#181818;stroke-width:1.0;"/><path d="M731.0625,644.5864 Q731.0625,645.7582 730.4844,646.5864 Q729.9219,647.4145 728.875,647.852 Q727.8438,648.2739 726.4688,648.2739 Q725.7656,648.2739 725.125,648.1957 Q724.5,648.1332 723.9688,648.0082 Q723.4375,647.8676 722.8594,647.602 L722.8594,645.5551 Q723.8438,645.9926 724.7188,646.2114 Q725.5938,646.4145 726.5313,646.4145 Q727.3906,646.4145 727.9375,646.2114 Q728.4844,645.9926 728.7344,645.6176 Q729,645.2426 729,644.727 Q729,644.2114 728.7813,643.8676 Q728.5781,643.5239 727.9844,643.1957 Q727.4063,642.8676 726.3125,642.477 Q725.5156,642.1645 724.8906,641.8364 Q724.2813,641.4926 723.8594,641.0395 Q723.4375,640.5707 723.2188,639.977 Q723.0156,639.3832 723.0156,638.6176 Q723.0156,637.5707 723.5469,636.8207 Q724.0938,636.0551 725.0313,635.6645 Q725.9688,635.2582 727.1563,635.2582 Q728.2031,635.2582 729.0469,635.4614 Q729.9063,635.6489 730.8438,636.0707 L730.1875,637.8832 Q729.3125,637.4926 728.5938,637.3207 Q727.8906,637.1332 727.125,637.1332 Q726.4219,637.1332 725.9688,637.3364 Q725.5313,637.5239 725.3125,637.8676 Q725.0938,638.1957 725.0938,638.6332 Q725.0938,639.1801 725.3125,639.5239 Q725.5313,639.8676 726.0625,640.1801 Q726.6094,640.477 727.5781,640.8364 Q728.6719,641.2426 729.4375,641.727 Q730.2188,642.1957 730.6406,642.8832 Q731.0625,643.5551 731.0625,644.5864 Z " fill="#000000"/><text fill="#000000" font-family="sans-serif" font-size="14" lengthAdjust="spacing" textLength="92" x="740.5" y="647.034">Swap_camera</text><line style="stroke:#181818;stroke-width:0.5;" x1="712.5" x2="834.5" y1="657.602" y2="657.602"/><line style="stroke:#181818;stroke-width:0.5;" x1="712.5" x2="834.5" y1="665.602" y2="665.602"/></g><!--class Swap_object--><g id="elem_Swap_object"><rect codeLine="38" fill="#F1F1F1" height="48" id="Swap_object" rx="2.5" ry="2.5" style="stroke:#181818;stroke-width:0.5;" width="115" x="716" y="542.602"/><ellipse cx="731" cy="558.602" fill="#F1F1F1" rx="11" ry="11" style="stroke:#181818;stroke-width:1.0;"/><path d="M735.5625,561.5864 Q735.5625,562.7582 734.9844,563.5864 Q734.4219,564.4145 733.375,564.852 Q732.3438,565.2739 730.9688,565.2739 Q730.2656,565.2739 729.625,565.1957 Q729,565.1332 728.4688,565.0082 Q727.9375,564.8676 727.3594,564.602 L727.3594,562.5551 Q728.3438,562.9926 729.2188,563.2114 Q730.0938,563.4145 731.0313,563.4145 Q731.8906,563.4145 732.4375,563.2114 Q732.9844,562.9926 733.2344,562.6176 Q733.5,562.2426 733.5,561.727 Q733.5,561.2114 733.2813,560.8676 Q733.0781,560.5239 732.4844,560.1957 Q731.9063,559.8676 730.8125,559.477 Q730.0156,559.1645 729.3906,558.8364 Q728.7813,558.4926 728.3594,558.0395 Q727.9375,557.5707 727.7188,556.977 Q727.5156,556.3832 727.5156,555.6176 Q727.5156,554.5707 728.0469,553.8207 Q728.5938,553.0551 729.5313,552.6645 Q730.4688,552.2582 731.6563,552.2582 Q732.7031,552.2582 733.5469,552.4614 Q734.4063,552.6489 735.3438,553.0707 L734.6875,554.8832 Q733.8125,554.4926 733.0938,554.3207 Q732.3906,554.1332 731.625,554.1332 Q730.9219,554.1332 730.4688,554.3364 Q730.0313,554.5239 729.8125,554.8676 Q729.5938,555.1957 729.5938,555.6332 Q729.5938,556.1801 729.8125,556.5239 Q730.0313,556.8676 730.5625,557.1801 Q731.1094,557.477 732.0781,557.8364 Q733.1719,558.2426 733.9375,558.727 Q734.7188,559.1957 735.1406,559.8832 Q735.5625,560.5551 735.5625,561.5864 Z " fill="#000000"/><text fill="#000000" font-family="sans-serif" font-size="14" lengthAdjust="spacing" textLength="83" x="745" y="564.034">Swap_object</text><line style="stroke:#181818;stroke-width:0.5;" x1="717" x2="830" y1="574.602" y2="574.602"/><line style="stroke:#181818;stroke-width:0.5;" x1="717" x2="830" y1="582.602" y2="582.602"/></g><!--class Swap_directional_light--><g id="elem_Swap_directional_light"><rect codeLine="42" fill="#F1F1F1" height="48" id="Swap_directional_light" rx="2.5" ry="2.5" style="stroke:#181818;stroke-width:0.5;" width="183" x="682" y="459.602"/><ellipse cx="697" cy="475.602" fill="#F1F1F1" rx="11" ry="11" style="stroke:#181818;stroke-width:1.0;"/><path d="M701.5625,478.5864 Q701.5625,479.7582 700.9844,480.5864 Q700.4219,481.4145 699.375,481.852 Q698.3438,482.2739 696.9688,482.2739 Q696.2656,482.2739 695.625,482.1957 Q695,482.1332 694.4688,482.0082 Q693.9375,481.8676 693.3594,481.602 L693.3594,479.5551 Q694.3438,479.9926 695.2188,480.2114 Q696.0938,480.4145 697.0313,480.4145 Q697.8906,480.4145 698.4375,480.2114 Q698.9844,479.9926 699.2344,479.6176 Q699.5,479.2426 699.5,478.727 Q699.5,478.2114 699.2813,477.8676 Q699.0781,477.5239 698.4844,477.1957 Q697.9063,476.8676 696.8125,476.477 Q696.0156,476.1645 695.3906,475.8364 Q694.7813,475.4926 694.3594,475.0395 Q693.9375,474.5707 693.7188,473.977 Q693.5156,473.3832 693.5156,472.6176 Q693.5156,471.5707 694.0469,470.8207 Q694.5938,470.0551 695.5313,469.6645 Q696.4688,469.2582 697.6563,469.2582 Q698.7031,469.2582 699.5469,469.4614 Q700.4063,469.6489 701.3438,470.0707 L700.6875,471.8832 Q699.8125,471.4926 699.0938,471.3207 Q698.3906,471.1332 697.625,471.1332 Q696.9219,471.1332 696.4688,471.3364 Q696.0313,471.5239 695.8125,471.8676 Q695.5938,472.1957 695.5938,472.6332 Q695.5938,473.1801 695.8125,473.5239 Q696.0313,473.8676 696.5625,474.1801 Q697.1094,474.477 698.0781,474.8364 Q699.1719,475.2426 699.9375,475.727 Q700.7188,476.1957 701.1406,476.8832 Q701.5625,477.5551 701.5625,478.5864 Z " fill="#000000"/><text fill="#000000" font-family="sans-serif" font-size="14" lengthAdjust="spacing" textLength="151" x="711" y="481.034">Swap_directional_light</text><line style="stroke:#181818;stroke-width:0.5;" x1="683" x2="864" y1="491.602" y2="491.602"/><line style="stroke:#181818;stroke-width:0.5;" x1="683" x2="864" y1="499.602" y2="499.602"/></g><!--class Swap_point_light--><g id="elem_Swap_point_light"><rect codeLine="46" fill="#F1F1F1" height="48" id="Swap_point_light" rx="2.5" ry="2.5" style="stroke:#181818;stroke-width:0.5;" width="146" x="700.5" y="376.602"/><ellipse cx="715.5" cy="392.602" fill="#F1F1F1" rx="11" ry="11" style="stroke:#181818;stroke-width:1.0;"/><path d="M720.0625,395.5864 Q720.0625,396.7582 719.4844,397.5864 Q718.9219,398.4145 717.875,398.852 Q716.8438,399.2739 715.4688,399.2739 Q714.7656,399.2739 714.125,399.1957 Q713.5,399.1332 712.9688,399.0082 Q712.4375,398.8676 711.8594,398.602 L711.8594,396.5551 Q712.8438,396.9926 713.7188,397.2114 Q714.5938,397.4145 715.5313,397.4145 Q716.3906,397.4145 716.9375,397.2114 Q717.4844,396.9926 717.7344,396.6176 Q718,396.2426 718,395.727 Q718,395.2114 717.7813,394.8676 Q717.5781,394.5239 716.9844,394.1957 Q716.4063,393.8676 715.3125,393.477 Q714.5156,393.1645 713.8906,392.8364 Q713.2813,392.4926 712.8594,392.0395 Q712.4375,391.5707 712.2188,390.977 Q712.0156,390.3832 712.0156,389.6176 Q712.0156,388.5707 712.5469,387.8207 Q713.0938,387.0551 714.0313,386.6645 Q714.9688,386.2582 716.1563,386.2582 Q717.2031,386.2582 718.0469,386.4614 Q718.9063,386.6489 719.8438,387.0707 L719.1875,388.8832 Q718.3125,388.4926 717.5938,388.3207 Q716.8906,388.1332 716.125,388.1332 Q715.4219,388.1332 714.9688,388.3364 Q714.5313,388.5239 714.3125,388.8676 Q714.0938,389.1957 714.0938,389.6332 Q714.0938,390.1801 714.3125,390.5239 Q714.5313,390.8676 715.0625,391.1801 Q715.6094,391.477 716.5781,391.8364 Q717.6719,392.2426 718.4375,392.727 Q719.2188,393.1957 719.6406,393.8832 Q720.0625,394.5551 720.0625,395.5864 Z " fill="#000000"/><text fill="#000000" font-family="sans-serif" font-size="14" lengthAdjust="spacing" textLength="114" x="729.5" y="398.034">Swap_point_light</text><line style="stroke:#181818;stroke-width:0.5;" x1="701.5" x2="845.5" y1="408.602" y2="408.602"/><line style="stroke:#181818;stroke-width:0.5;" x1="701.5" x2="845.5" y1="416.602" y2="416.602"/></g><!--class Swap_DL_Shadow_caster--><g id="elem_Swap_DL_Shadow_caster"><rect codeLine="51" fill="#F1F1F1" height="48" id="Swap_DL_Shadow_caster" rx="2.5" ry="2.5" style="stroke:#181818;stroke-width:0.5;" width="197" x="675" y="293.602"/><ellipse cx="690" cy="309.602" fill="#F1F1F1" rx="11" ry="11" style="stroke:#181818;stroke-width:1.0;"/><path d="M694.5625,312.5864 Q694.5625,313.7582 693.9844,314.5864 Q693.4219,315.4145 692.375,315.852 Q691.3438,316.2739 689.9688,316.2739 Q689.2656,316.2739 688.625,316.1957 Q688,316.1332 687.4688,316.0082 Q686.9375,315.8676 686.3594,315.602 L686.3594,313.5551 Q687.3438,313.9926 688.2188,314.2114 Q689.0938,314.4145 690.0313,314.4145 Q690.8906,314.4145 691.4375,314.2114 Q691.9844,313.9926 692.2344,313.6176 Q692.5,313.2426 692.5,312.727 Q692.5,312.2114 692.2813,311.8676 Q692.0781,311.5239 691.4844,311.1957 Q690.9063,310.8676 689.8125,310.477 Q689.0156,310.1645 688.3906,309.8364 Q687.7813,309.4926 687.3594,309.0395 Q686.9375,308.5707 686.7188,307.977 Q686.5156,307.3832 686.5156,306.6176 Q686.5156,305.5707 687.0469,304.8207 Q687.5938,304.0551 688.5313,303.6645 Q689.4688,303.2582 690.6563,303.2582 Q691.7031,303.2582 692.5469,303.4614 Q693.4063,303.6489 694.3438,304.0707 L693.6875,305.8832 Q692.8125,305.4926 692.0938,305.3207 Q691.3906,305.1332 690.625,305.1332 Q689.9219,305.1332 689.4688,305.3364 Q689.0313,305.5239 688.8125,305.8676 Q688.5938,306.1957 688.5938,306.6332 Q688.5938,307.1801 688.8125,307.5239 Q689.0313,307.8676 689.5625,308.1801 Q690.1094,308.477 691.0781,308.8364 Q692.1719,309.2426 692.9375,309.727 Q693.7188,310.1957 694.1406,310.8832 Q694.5625,311.5551 694.5625,312.5864 Z " fill="#000000"/><text fill="#000000" font-family="sans-serif" font-size="14" lengthAdjust="spacing" textLength="165" x="704" y="315.034">Swap_DL_Shadow_caster</text><line style="stroke:#181818;stroke-width:0.5;" x1="676" x2="871" y1="325.602" y2="325.602"/><line style="stroke:#181818;stroke-width:0.5;" x1="676" x2="871" y1="333.602" y2="333.602"/></g><!--class Swap_CSM_shadow_caster--><g id="elem_Swap_CSM_shadow_caster"><rect codeLine="55" fill="#F1F1F1" height="48" id="Swap_CSM_shadow_caster" rx="2.5" ry="2.5" style="stroke:#181818;stroke-width:0.5;" width="209" x="669" y="210.602"/><ellipse cx="684" cy="226.602" fill="#F1F1F1" rx="11" ry="11" style="stroke:#181818;stroke-width:1.0;"/><path d="M688.5625,229.5864 Q688.5625,230.7582 687.9844,231.5864 Q687.4219,232.4145 686.375,232.852 Q685.3438,233.2739 683.9688,233.2739 Q683.2656,233.2739 682.625,233.1957 Q682,233.1332 681.4688,233.0082 Q680.9375,232.8676 680.3594,232.602 L680.3594,230.5551 Q681.3438,230.9926 682.2188,231.2114 Q683.0938,231.4145 684.0313,231.4145 Q684.8906,231.4145 685.4375,231.2114 Q685.9844,230.9926 686.2344,230.6176 Q686.5,230.2426 686.5,229.727 Q686.5,229.2114 686.2813,228.8676 Q686.0781,228.5239 685.4844,228.1957 Q684.9063,227.8676 683.8125,227.477 Q683.0156,227.1645 682.3906,226.8364 Q681.7813,226.4926 681.3594,226.0395 Q680.9375,225.5707 680.7188,224.977 Q680.5156,224.3832 680.5156,223.6176 Q680.5156,222.5707 681.0469,221.8207 Q681.5938,221.0551 682.5313,220.6645 Q683.4688,220.2582 684.6563,220.2582 Q685.7031,220.2582 686.5469,220.4614 Q687.4063,220.6489 688.3438,221.0707 L687.6875,222.8832 Q686.8125,222.4926 686.0938,222.3207 Q685.3906,222.1332 684.625,222.1332 Q683.9219,222.1332 683.4688,222.3364 Q683.0313,222.5239 682.8125,222.8676 Q682.5938,223.1957 682.5938,223.6332 Q682.5938,224.1801 682.8125,224.5239 Q683.0313,224.8676 683.5625,225.1801 Q684.1094,225.477 685.0781,225.8364 Q686.1719,226.2426 686.9375,226.727 Q687.7188,227.1957 688.1406,227.8832 Q688.5625,228.5551 688.5625,229.5864 Z " fill="#000000"/><text fill="#000000" font-family="sans-serif" font-size="14" lengthAdjust="spacing" textLength="177" x="698" y="232.034">Swap_CSM_shadow_caster</text><line style="stroke:#181818;stroke-width:0.5;" x1="670" x2="877" y1="242.602" y2="242.602"/><line style="stroke:#181818;stroke-width:0.5;" x1="670" x2="877" y1="250.602" y2="250.602"/></g><!--class Swap_spot_light--><g id="elem_Swap_spot_light"><rect fill="#F1F1F1" height="48" id="Swap_spot_light" rx="2.5" ry="2.5" style="stroke:#181818;stroke-width:0.5;" width="140" x="703.5" y="127.602"/><ellipse cx="718.5" cy="143.602" fill="#ADD1B2" rx="11" ry="11" style="stroke:#181818;stroke-width:1.0;"/><path d="M718.6094,139.1332 Q717.6875,139.1332 716.9531,139.4457 Q716.2344,139.7582 715.7344,140.352 Q715.2344,140.9301 714.9531,141.8051 Q714.6875,142.6801 714.6875,143.7739 Q714.6875,145.2114 715.125,146.2582 Q715.5781,147.3051 716.4219,147.852 Q717.2813,148.3989 718.5938,148.3989 Q719.375,148.3989 720.0625,148.2739 Q720.7656,148.1332 721.7656,147.8207 L721.7656,149.6957 Q720.9063,150.0239 720.1406,150.1489 Q719.3906,150.2739 718.375,150.2739 Q716.4531,150.2739 715.1406,149.477 Q713.8438,148.6645 713.1875,147.1957 Q712.5313,145.7114 712.5313,143.7426 Q712.5313,142.3207 712.9219,141.1489 Q713.3281,139.9614 714.1094,139.0864 Q714.8906,138.2114 716.0313,137.7426 Q717.1719,137.2582 718.6406,137.2582 Q719.5938,137.2582 720.4844,137.4614 Q721.3906,137.6489 722.3281,138.1176 L721.5,139.8989 Q720.7188,139.5239 720.0625,139.3364 Q719.4063,139.1332 718.6094,139.1332 Z " fill="#000000"/><text fill="#000000" font-family="sans-serif" font-size="14" lengthAdjust="spacing" textLength="108" x="732.5" y="149.034">Swap_spot_light</text><line style="stroke:#181818;stroke-width:0.5;" x1="704.5" x2="842.5" y1="159.602" y2="159.602"/><line style="stroke:#181818;stroke-width:0.5;" x1="704.5" x2="842.5" y1="167.602" y2="167.602"/></g><!--class Skybox--><g id="elem_Skybox"><rect fill="#F1F1F1" height="48" id="Skybox" rx="2.5" ry="2.5" style="stroke:#181818;stroke-width:0.5;" width="78" x="734.5" y="44.602"/><ellipse cx="749.5" cy="60.602" fill="#ADD1B2" rx="11" ry="11" style="stroke:#181818;stroke-width:1.0;"/><path d="M749.6094,56.1332 Q748.6875,56.1332 747.9531,56.4457 Q747.2344,56.7582 746.7344,57.352 Q746.2344,57.9301 745.9531,58.8051 Q745.6875,59.6801 745.6875,60.7739 Q745.6875,62.2114 746.125,63.2582 Q746.5781,64.3051 747.4219,64.852 Q748.2813,65.3989 749.5938,65.3989 Q750.375,65.3989 751.0625,65.2739 Q751.7656,65.1332 752.7656,64.8207 L752.7656,66.6957 Q751.9063,67.0239 751.1406,67.1489 Q750.3906,67.2739 749.375,67.2739 Q747.4531,67.2739 746.1406,66.477 Q744.8438,65.6645 744.1875,64.1957 Q743.5313,62.7114 743.5313,60.7426 Q743.5313,59.3207 743.9219,58.1489 Q744.3281,56.9614 745.1094,56.0864 Q745.8906,55.2114 747.0313,54.7426 Q748.1719,54.2582 749.6406,54.2582 Q750.5938,54.2582 751.4844,54.4614 Q752.3906,54.6489 753.3281,55.1176 L752.5,56.8989 Q751.7188,56.5239 751.0625,56.3364 Q750.4063,56.1332 749.6094,56.1332 Z " fill="#000000"/><text fill="#000000" font-family="sans-serif" font-size="14" lengthAdjust="spacing" textLength="46" x="763.5" y="66.034">Skybox</text><line style="stroke:#181818;stroke-width:0.5;" x1="735.5" x2="811.5" y1="76.602" y2="76.602"/><line style="stroke:#181818;stroke-width:0.5;" x1="735.5" x2="811.5" y1="84.602" y2="84.602"/></g><!--reverse link Swap_data to Swap_camera--><g id="link_Swap_data_Swap_camera"><path codeLine="65" d="M482.8529,495.5701 C543.3629,536.7201 602.63,573.802 669,608.602 C682.27,615.562 696.99,622.062 711.06,627.742 " fill="none" id="Swap_data-backto-Swap_camera" style="stroke:#181818;stroke-width:1.0;"/><polygon fill="#181818" points="472.93,488.822,475.6421,495.5036,482.8529,495.5701,480.1408,488.8884,472.93,488.822" style="stroke:#181818;stroke-width:1.0;"/><polygon fill="#000000" points="607.3267,566.2609,600.9726,559.1845,598.0267,564.2708,607.3267,566.2609" style="stroke:#000000;stroke-width:1.0;"/><text fill="#000000" font-family="sans-serif" font-size="13" lengthAdjust="spacing" textLength="26" x="612" y="568.799">&#21253;&#21547;</text></g><!--reverse link Swap_data to Swap_object--><g id="link_Swap_data_Swap_object"><path codeLine="66" d="M579.4061,487.2067 C613.1861,501.9667 636.33,511.872 669,525.602 C684.06,531.932 700.45,538.552 715.66,544.572 " fill="none" id="Swap_data-backto-Swap_object" style="stroke:#181818;stroke-width:1.0;"/><polygon fill="#181818" points="568.41,482.402,572.3065,488.4697,579.4061,487.2067,575.5096,481.139,568.41,482.402" style="stroke:#181818;stroke-width:1.0;"/><polygon fill="#000000" points="607.6082,492.1951,600.4123,485.9767,598.1315,491.394,607.6082,492.1951" style="stroke:#000000;stroke-width:1.0;"/><text fill="#000000" font-family="sans-serif" font-size="13" lengthAdjust="spacing" textLength="26" x="612" y="495.299">&#21253;&#21547;</text><text fill="#000000" font-family="sans-serif" font-size="13" lengthAdjust="spacing" textLength="20" x="687.816" y="556.9454">0..*</text></g><!--reverse link Swap_data to Swap_directional_light--><g id="link_Swap_data_Swap_directional_light"><path codeLine="67" d="M579.9628,433.4956 C620.7128,444.1056 648.5,451.332 681.63,459.952 " fill="none" id="Swap_data-backto-Swap_directional_light" style="stroke:#181818;stroke-width:1.0;"/><polygon fill="#181818" points="568.35,430.472,573.1485,435.8547,579.9628,433.4956,575.1643,428.1128,568.35,430.472" style="stroke:#181818;stroke-width:1.0;"/><polygon fill="#000000" points="607.8388,432.0642,599.8254,426.9421,598.3452,432.6305,607.8388,432.0642" style="stroke:#000000;stroke-width:1.0;"/><text fill="#000000" font-family="sans-serif" font-size="13" lengthAdjust="spacing" textLength="26" x="612" y="435.849">&#21253;&#21547;</text><text fill="#000000" font-family="sans-serif" font-size="13" lengthAdjust="spacing" textLength="20" x="654.1489" y="472.7623">0..*</text></g><!--reverse link Swap_data to Swap_point_light--><g id="link_Swap_data_Swap_point_light"><path codeLine="68" d="M580.4057,384.0922 C590.3857,384.9522 588.3,384.772 598,385.602 C631.63,388.492 668.9,391.702 700.33,394.402 " fill="none" id="Swap_data-backto-Swap_point_light" style="stroke:#181818;stroke-width:1.0;"/><polygon fill="#181818" points="568.45,383.062,574.0844,387.5623,580.4057,384.0922,574.7713,379.5919,568.45,383.062" style="stroke:#181818;stroke-width:1.0;"/><polygon fill="#000000" points="607.9816,376.8833,599.2215,373.1804,598.7181,379.0366,607.9816,376.8833" style="stroke:#000000;stroke-width:1.0;"/><text fill="#000000" font-family="sans-serif" font-size="13" lengthAdjust="spacing" textLength="26" x="612" y="381.499">&#21253;&#21547;</text><text fill="#000000" font-family="sans-serif" font-size="13" lengthAdjust="spacing" textLength="20" x="672.4029" y="408.5519">0..*</text></g><!--reverse link Swap_data to Swap_spot_light--><g id="link_Swap_data_Swap_spot_light"><path codeLine="69" d="M579.3559,231.1739 C613.1459,216.3239 636.31,206.382 669,192.602 C682,187.122 696,181.432 709.38,176.102 " fill="none" id="Swap_data-backto-Swap_spot_light" style="stroke:#181818;stroke-width:1.0;"/><polygon fill="#181818" points="568.37,236.002,575.4723,237.2499,579.3559,231.1739,572.2536,229.926,568.37,236.002" style="stroke:#181818;stroke-width:1.0;"/><polygon fill="#000000" points="607.6041,194.4649,598.129,195.2864,600.4215,200.6988,607.6041,194.4649" style="stroke:#000000;stroke-width:1.0;"/><text fill="#000000" font-family="sans-serif" font-size="13" lengthAdjust="spacing" textLength="26" x="612" y="201.459">&#21253;&#21547;</text><text fill="#000000" font-family="sans-serif" font-size="13" lengthAdjust="spacing" textLength="20" x="675.7141" y="196.1485">0..*</text></g><!--reverse link Swap_data to Skybox--><g id="link_Swap_data_Skybox"><path codeLine="70" d="M481.8376,223.6916 C542.5676,182.1916 602.23,144.682 669,109.602 C689.87,98.632 714.36,88.812 734.27,81.522 " fill="none" id="Swap_data-backto-Skybox" style="stroke:#181818;stroke-width:1.0;"/><polygon fill="#181818" points="471.93,230.462,479.1406,230.3793,481.8376,223.6916,474.627,223.7742,471.93,230.462" style="stroke:#181818;stroke-width:1.0;"/><polygon fill="#000000" points="607.3566,115.3614,598.0333,117.2393,600.9177,122.3607,607.3566,115.3614" style="stroke:#000000;stroke-width:1.0;"/><text fill="#000000" font-family="sans-serif" font-size="13" lengthAdjust="spacing" textLength="26" x="612" y="122.859">&#21253;&#21547;</text><text fill="#000000" font-family="sans-serif" font-size="13" lengthAdjust="spacing" textLength="20" x="706.424" y="98.8891">0..1</text></g><!--reverse link Swap_data to Swap_DL_Shadow_caster--><g id="link_Swap_data_Swap_DL_Shadow_caster"><path codeLine="71" d="M580.3038,334.5396 C618.2438,331.1996 643.05,329.012 674.68,326.222 " fill="none" id="Swap_data-backto-Swap_DL_Shadow_caster" style="stroke:#181818;stroke-width:1.0;"/><polygon fill="#181818" points="568.35,335.592,574.6777,339.0504,580.3038,334.5396,573.9761,331.0812,568.35,335.592" style="stroke:#181818;stroke-width:1.0;"/><polygon fill="#000000" points="607.9807,320.426,598.7125,318.2925,599.2286,324.1477,607.9807,320.426" style="stroke:#000000;stroke-width:1.0;"/><text fill="#000000" font-family="sans-serif" font-size="13" lengthAdjust="spacing" textLength="26" x="612" y="325.909">&#21253;&#21547;</text><text fill="#000000" font-family="sans-serif" font-size="13" lengthAdjust="spacing" textLength="20" x="647.0286" y="341.3476">0..*</text></g><!--reverse link Swap_data to Swap_CSM_shadow_caster--><g id="link_Swap_data_Swap_CSM_shadow_caster"><path codeLine="72" d="M579.957,285.116 C619.777,274.666 646.69,267.602 679.34,259.042 " fill="none" id="Swap_data-backto-Swap_CSM_shadow_caster" style="stroke:#181818;stroke-width:1.0;"/><polygon fill="#181818" points="568.35,288.162,575.1688,290.508,579.957,285.116,573.1381,282.77,568.35,288.162" style="stroke:#181818;stroke-width:1.0;"/><polygon fill="#000000" points="607.8363,261.1261,598.3415,260.5788,599.8331,266.2642,607.8363,261.1261" style="stroke:#000000;stroke-width:1.0;"/><text fill="#000000" font-family="sans-serif" font-size="13" lengthAdjust="spacing" textLength="26" x="612" y="267.439">&#21253;&#21547;</text><text fill="#000000" font-family="sans-serif" font-size="13" lengthAdjust="spacing" textLength="20" x="640.7865" y="278.8693">0..*</text></g><!--SRC=[hLTDJ-D66BxpAwOvDB0LsLQzHIqNgAfAq4EfzXeDZW4NOqVse0LLAoM5463vo1B88kW2srrWfTNoKIWD2O4VqypOEVKlzBN7s1DiTXEfESJs-7c_dtdViIgF4aHqP2XZumIb5KEMYA9hNN4q88ygcenCWhKqDjA8p6Ha4utg1iA46Ch85F4U9Lqp5PF8cZJJzLcQImrXW4nx5t_r2IZNZQ_lhlvwlww27lVVNpF7iI6dKnbYe9X9qibaiF1Dp4SDWc4KS_vX4Pp-jfqVuDX-XTxEiirJjdBSgBvbAtzOjHBRdKFT_ReXem5CCFfkMXh7sfYCXean9P4fGpPxsZQHmT841jdOy5ESIQL1NnAnofzihyIDSWViUhrHByNGhrrT27wIYaqJ-HAmZBpV5tnLmfEoWH6_22_T1BW8VUGNI6uVCcGjBHlUena9zOkDrPJgbByFXPQY9JEwef4x6U4X6crcT1ySt8jOeRJ34pCZ-ZG0tMkale71rF0uJkjF8Hr0EmFSLbEck2Bg7j5r5SaQ7b7bb6HEUa0455WzeWkNREk45WzfySJQU6TLZ-pSHdFhWjRF8Ytt3m-r6kf3WKhVjYyADifNx7nJq2MfCZQwU-1Lix1YrO_POfRzlaYBBvg5DRg-JFDdZUfxjbnehYy8KcCokMUakoSfPbXyvrCWZgmFEyti8blQfATpF2nwScMVlNPLF-EEjajeZWsuIUVppTbtz3Hdlya_flbpo9orFSTt4N2w8zqks7HtMGlF0_wB7ej07ciRm12psv0Hc1sWxy0Xz7rQXaNkIuJe567bVwWHhmaK1wfadTSwhqoWy55lRqk1aeWkvsdnFUgB0CQ-J2GUnLhgr3O-NAwsHSMgjIqKzALFotm5CcvtQbzzY1jjIuOv8eZoydGzwsJo_Qn84oaOsKIU9adKg2mrAizPkS2d4gTA1zhyCTUgbbQEsCu5Av_w-fqP5qV1a1lKnnGfHGGf7y1xtWzQPWgw7i54Hefm7qUqNgABAs02MZPR-Dk-AT7yWRLqoRAv5Wr-KZz7gclDzBCCxJTRiszUqBFVeFVokGptZUlzPdQTfwAPtMxcIgYRNc-2dPuMpQEgZk6m9Ai4GmYJZbDke5bmYYlsegyTi5S7xELby-M5fy2jLP26d_YO_aWUX2YycIw6uRlEi-2TBQh5plts3YUVz1lo_xOCNQLnyyh-g_pOsgauRUMirXAMM3mn7CZxnh6ri_LFDjUytcVx1Ul3uWFrYwD48X4stYunELfa9V9cqzLpY2heXfqfzk0Hx7KshXYsi4qVbEdjxHEsFaYuDQDNbutROxPnvOj6iUH1MVkaHjVAJdUu2-r7tJ-ggzXGo8ptHeDr56jKgknaxHvpsLgnSRD3R_FsOOuNA8QmjslxkGUEreT3IoJ2u91Pbt9G1Aksnrtug76UXR3rgEo0-IYuIwGu-bxMO7gfhYScqZLapa1hdOITOIfZphSFTp58BvmIsUjvjdlfD8dAAbtQisVhphrBffRFYEsvrgCzvWTwvujY22kQvqYW6ZmDlVSzQE4lFsirglDYhi3UlHx-x_KoFTwrLa-vb_RH6pjxwFhXQFFo8RWINRnex0EfZWB_1m00]--></g></svg>