<?xml version="1.0" encoding="us-ascii" standalone="no"?><svg xmlns="http://www.w3.org/2000/svg" xmlns:xlink="http://www.w3.org/1999/xlink" contentStyleType="text/css" height="819px" preserveAspectRatio="none" style="width:2144px;height:819px;background:#FFFFFF;" version="1.1" viewBox="0 0 2144 819" width="2144px" zoomAndPan="magnify"><defs/><g><!--class Buffer_data_type--><g id="elem_Buffer_data_type"><rect codeLine="6" fill="#F1F1F1" height="135.3396" id="Buffer_data_type" rx="2.5" ry="2.5" style="stroke:#181818;stroke-width:0.5;" width="145" x="930" y="131.416"/><ellipse cx="945" cy="147.416" fill="#EB937F" rx="11" ry="11" style="stroke:#181818;stroke-width:1.0;"/><path d="M948.4688,153.916 L941.1563,153.916 L941.1563,141.2441 L948.4688,141.2441 L948.4688,143.1191 L943.2031,143.1191 L943.2031,146.3848 L948.1563,146.3848 L948.1563,148.2441 L943.2031,148.2441 L943.2031,152.041 L948.4688,152.041 L948.4688,153.916 Z " fill="#000000"/><text fill="#000000" font-family="sans-serif" font-size="14" lengthAdjust="spacing" textLength="113" x="959" y="152.848">Buffer_data_type</text><line style="stroke:#181818;stroke-width:0.5;" x1="931" x2="1074" y1="163.416" y2="163.416"/><text fill="#000000" font-family="sans-serif" font-size="14" lengthAdjust="spacing" textLength="42" x="936" y="182.382">FLOAT</text><text fill="#000000" font-family="sans-serif" font-size="14" lengthAdjust="spacing" textLength="24" x="936" y="201.4499">INT</text><text fill="#000000" font-family="sans-serif" font-size="14" lengthAdjust="spacing" textLength="103" x="936" y="220.5178">UNSIGNED_INT</text><text fill="#000000" font-family="sans-serif" font-size="14" lengthAdjust="spacing" textLength="38" x="936" y="239.5857">BOOL</text><text fill="#000000" font-family="sans-serif" font-size="14" lengthAdjust="spacing" textLength="76" x="936" y="258.6536">UNKNOWN</text></g><!--class Buffer_usage--><g id="elem_Buffer_usage"><rect codeLine="14" fill="#F1F1F1" height="78.1358" id="Buffer_usage" rx="2.5" ry="2.5" style="stroke:#181818;stroke-width:0.5;" width="121" x="942" y="302.016"/><ellipse cx="957" cy="318.016" fill="#EB937F" rx="11" ry="11" style="stroke:#181818;stroke-width:1.0;"/><path d="M960.4688,324.516 L953.1563,324.516 L953.1563,311.8441 L960.4688,311.8441 L960.4688,313.7191 L955.2031,313.7191 L955.2031,316.9848 L960.1563,316.9848 L960.1563,318.8441 L955.2031,318.8441 L955.2031,322.641 L960.4688,322.641 L960.4688,324.516 Z " fill="#000000"/><text fill="#000000" font-family="sans-serif" font-size="14" lengthAdjust="spacing" textLength="89" x="971" y="323.448">Buffer_usage</text><line style="stroke:#181818;stroke-width:0.5;" x1="943" x2="1062" y1="334.016" y2="334.016"/><text fill="#000000" font-family="sans-serif" font-size="14" lengthAdjust="spacing" textLength="47" x="948" y="352.982">STATIC</text><text fill="#000000" font-family="sans-serif" font-size="14" lengthAdjust="spacing" textLength="65" x="948" y="372.0499">DYNAMIC</text></g><!--class Buffer_iterate_type--><g id="elem_Buffer_iterate_type"><rect codeLine="19" fill="#F1F1F1" height="78.1358" id="Buffer_iterate_type" rx="2.5" ry="2.5" style="stroke:#181818;stroke-width:0.5;" width="159" x="1705" y="361.016"/><ellipse cx="1720" cy="377.016" fill="#EB937F" rx="11" ry="11" style="stroke:#181818;stroke-width:1.0;"/><path d="M1723.4688,383.516 L1716.1563,383.516 L1716.1563,370.8441 L1723.4688,370.8441 L1723.4688,372.7191 L1718.2031,372.7191 L1718.2031,375.9848 L1723.1563,375.9848 L1723.1563,377.8441 L1718.2031,377.8441 L1718.2031,381.641 L1723.4688,381.641 L1723.4688,383.516 Z " fill="#000000"/><text fill="#000000" font-family="sans-serif" font-size="14" lengthAdjust="spacing" textLength="127" x="1734" y="382.448">Buffer_iterate_type</text><line style="stroke:#181818;stroke-width:0.5;" x1="1706" x2="1863" y1="393.016" y2="393.016"/><text fill="#000000" font-family="sans-serif" font-size="14" lengthAdjust="spacing" textLength="80" x="1711" y="411.982">PER_VERTEX</text><text fill="#000000" font-family="sans-serif" font-size="14" lengthAdjust="spacing" textLength="100" x="1711" y="431.0499">PER_INSTANCE</text></g><!--class RHI_linker--><g id="elem_RHI_linker"><rect codeLine="25" fill="#F1F1F1" height="86.1358" id="RHI_linker" rx="2.5" ry="2.5" style="stroke:#181818;stroke-width:0.5;" width="226" x="889.5" y="10.016"/><ellipse cx="960.75" cy="26.016" fill="#A9DCDF" rx="11" ry="11" style="stroke:#181818;stroke-width:1.0;"/><path d="M964.0938,31.266 L962.625,27.516 L958.1875,27.516 L956.75,31.266 L954.625,31.266 L959.5781,18.5473 L961.3281,18.5473 L966.25,31.266 L964.0938,31.266 Z M960.75,22.3129 Q960.7031,22.1566 960.5781,21.7973 Q960.4531,21.4379 960.3438,21.0629 Q960.2344,20.6723 960.4375,20.6098 Q960.5938,20.7973 960.5,21.1566 Q960.4063,21.5004 960.3125,21.7973 Q960.2188,22.0785 960.1406,22.3129 L958.9063,25.6254 L961.9844,25.6254 L960.75,22.3129 Z " fill="#000000"/><text fill="#000000" font-family="sans-serif" font-size="14" font-style="italic" lengthAdjust="spacing" textLength="65" x="981.25" y="31.448">RHI_linker</text><rect fill="#FFFFFF" height="18.3441" style="stroke:#181818;stroke-width:1.0;stroke-dasharray:2.0,2.0;" width="8" x="1110.5" y="7.016"/><text fill="#000000" font-family="sans-serif" font-size="12" font-style="italic" lengthAdjust="spacing" textLength="6" x="1111.5" y="20.8441">T</text><line style="stroke:#181818;stroke-width:0.5;" x1="890.5" x2="1114.5" y1="42.016" y2="42.016"/><polygon fill="none" points="900.5,52.05,904.5,56.05,900.5,60.05,896.5,56.05" style="stroke:#B38D22;stroke-width:1.0;"/><text fill="#000000" font-family="sans-serif" font-size="14" lengthAdjust="spacing" textLength="104" x="909.5" y="60.982">rhi_resource : T</text><line style="stroke:#181818;stroke-width:0.5;" x1="890.5" x2="1114.5" y1="69.0839" y2="69.0839"/><ellipse cx="900.5" cy="84.1179" fill="#84BE84" rx="3" ry="3" style="stroke:#038048;stroke-width:1.0;"/><text fill="#000000" font-family="sans-serif" font-size="14" lengthAdjust="spacing" textLength="200" x="909.5" y="88.0499">link(device : RHI_device) : void</text></g><!--class Attribute_base--><g id="elem_Attribute_base"><rect codeLine="30" fill="#F1F1F1" height="200.5433" id="Attribute_base" rx="2.5" ry="2.5" style="stroke:#181818;stroke-width:0.5;" width="472" x="9" y="169.816"/><ellipse cx="195.25" cy="185.816" fill="#A9DCDF" rx="11" ry="11" style="stroke:#181818;stroke-width:1.0;"/><path d="M198.5938,191.066 L197.125,187.316 L192.6875,187.316 L191.25,191.066 L189.125,191.066 L194.0781,178.3473 L195.8281,178.3473 L200.75,191.066 L198.5938,191.066 Z M195.25,182.1129 Q195.2031,181.9566 195.0781,181.5973 Q194.9531,181.2379 194.8438,180.8629 Q194.7344,180.4723 194.9375,180.4098 Q195.0938,180.5973 195,180.9566 Q194.9063,181.3004 194.8125,181.5973 Q194.7188,181.8785 194.6406,182.1129 L193.4063,185.4254 L196.4844,185.4254 L195.25,182.1129 Z " fill="#000000"/><text fill="#000000" font-family="sans-serif" font-size="14" font-style="italic" lengthAdjust="spacing" textLength="91" x="215.75" y="191.248">Attribute_base</text><line style="stroke:#181818;stroke-width:0.5;" x1="10" x2="480" y1="201.816" y2="201.816"/><polygon fill="none" points="20,211.85,24,215.85,20,219.85,16,215.85" style="stroke:#B38D22;stroke-width:1.0;"/><text fill="#000000" font-family="sans-serif" font-size="14" lengthAdjust="spacing" textLength="142" x="29" y="220.782">usage : Buffer_usage</text><polygon fill="none" points="20,230.9179,24,234.9179,20,238.9179,16,234.9179" style="stroke:#B38D22;stroke-width:1.0;"/><text fill="#000000" font-family="sans-serif" font-size="14" lengthAdjust="spacing" textLength="190" x="29" y="239.8499">data_type : Buffer_data_type</text><line style="stroke:#181818;stroke-width:0.5;" x1="10" x2="480" y1="247.9519" y2="247.9519"/><ellipse cx="20" cy="262.9858" fill="#84BE84" rx="3" ry="3" style="stroke:#038048;stroke-width:1.0;"/><text fill="#000000" font-family="sans-serif" font-size="14" lengthAdjust="spacing" textLength="446" x="29" y="266.9178">Attribute_base(usage : Buffer_usage, data_type : Buffer_data_type)</text><ellipse cx="20" cy="282.0537" fill="#84BE84" rx="3" ry="3" style="stroke:#038048;stroke-width:1.0;"/><text fill="#000000" font-family="sans-serif" font-size="14" font-style="italic" lengthAdjust="spacing" textLength="109" x="29" y="285.9857">data_ptr() : void*</text><ellipse cx="20" cy="301.1217" fill="#84BE84" rx="3" ry="3" style="stroke:#038048;stroke-width:1.0;"/><text fill="#000000" font-family="sans-serif" font-size="14" font-style="italic" lengthAdjust="spacing" textLength="124" x="29" y="305.0536">data_count() : size_t</text><ellipse cx="20" cy="320.1896" fill="#84BE84" rx="3" ry="3" style="stroke:#038048;stroke-width:1.0;"/><text fill="#000000" font-family="sans-serif" font-size="14" font-style="italic" lengthAdjust="spacing" textLength="112" x="29" y="324.1215">data_size() : size_t</text><ellipse cx="20" cy="339.2575" fill="#84BE84" rx="3" ry="3" style="stroke:#038048;stroke-width:1.0;"/><text fill="#000000" font-family="sans-serif" font-size="14" lengthAdjust="spacing" textLength="178" x="29" y="343.1895">get_usage() : Buffer_usage</text><ellipse cx="20" cy="358.3254" fill="#84BE84" rx="3" ry="3" style="stroke:#038048;stroke-width:1.0;"/><text fill="#000000" font-family="sans-serif" font-size="14" lengthAdjust="spacing" textLength="226" x="29" y="362.2574">get_data_type() : Buffer_data_type</text></g><!--class Vertex_attribute_base--><g id="elem_Vertex_attribute_base"><rect codeLine="42" fill="#F1F1F1" height="181.4754" id="Vertex_attribute_base" rx="2.5" ry="2.5" style="stroke:#181818;stroke-width:0.5;" width="745" x="630" y="415.346"/><ellipse cx="929.75" cy="431.346" fill="#A9DCDF" rx="11" ry="11" style="stroke:#181818;stroke-width:1.0;"/><path d="M933.0938,436.596 L931.625,432.846 L927.1875,432.846 L925.75,436.596 L923.625,436.596 L928.5781,423.8773 L930.3281,423.8773 L935.25,436.596 L933.0938,436.596 Z M929.75,427.6429 Q929.7031,427.4866 929.5781,427.1273 Q929.4531,426.7679 929.3438,426.3929 Q929.2344,426.0023 929.4375,425.9398 Q929.5938,426.1273 929.5,426.4866 Q929.4063,426.8304 929.3125,427.1273 Q929.2188,427.4085 929.1406,427.6429 L927.9063,430.9554 L930.9844,430.9554 L929.75,427.6429 Z " fill="#000000"/><text fill="#000000" font-family="sans-serif" font-size="14" font-style="italic" lengthAdjust="spacing" textLength="137" x="950.25" y="436.778">Vertex_attribute_base</text><line style="stroke:#181818;stroke-width:0.5;" x1="631" x2="1374" y1="447.346" y2="447.346"/><polygon fill="none" points="641,457.38,645,461.38,641,465.38,637,461.38" style="stroke:#B38D22;stroke-width:1.0;"/><text fill="#000000" font-family="sans-serif" font-size="14" lengthAdjust="spacing" textLength="218" x="650" y="466.312">iterate_type : Buffer_iterate_type</text><line style="stroke:#181818;stroke-width:0.5;" x1="631" x2="1374" y1="474.4139" y2="474.4139"/><ellipse cx="641" cy="489.4479" fill="#84BE84" rx="3" ry="3" style="stroke:#038048;stroke-width:1.0;"/><text fill="#000000" font-family="sans-serif" font-size="14" lengthAdjust="spacing" textLength="719" x="650" y="493.3799">Vertex_attribute_base(usage : Buffer_usage, data_type : Buffer_data_type, iterate_type : Buffer_iterate_type)</text><ellipse cx="641" cy="508.5158" fill="#84BE84" rx="3" ry="3" style="stroke:#038048;stroke-width:1.0;"/><text fill="#000000" font-family="sans-serif" font-size="14" font-style="italic" lengthAdjust="spacing" textLength="155" x="650" y="512.4478">unit_data_count() : size_t</text><ellipse cx="641" cy="527.5837" fill="#84BE84" rx="3" ry="3" style="stroke:#038048;stroke-width:1.0;"/><text fill="#000000" font-family="sans-serif" font-size="14" font-style="italic" lengthAdjust="spacing" textLength="120" x="650" y="531.5157">unit_count() : size_t</text><ellipse cx="641" cy="546.6517" fill="#84BE84" rx="3" ry="3" style="stroke:#038048;stroke-width:1.0;"/><text fill="#000000" font-family="sans-serif" font-size="14" font-style="italic" lengthAdjust="spacing" textLength="346" x="650" y="550.5836">unit_data_size() : size_t ' Size of one vertex unit in bytes</text><ellipse cx="641" cy="565.7196" fill="#84BE84" rx="3" ry="3" style="stroke:#038048;stroke-width:1.0;"/><text fill="#000000" font-family="sans-serif" font-size="14" lengthAdjust="spacing" textLength="254" x="650" y="569.6515">get_iterate_type() : Buffer_iterate_type</text><ellipse cx="641" cy="584.7875" fill="#84BE84" rx="3" ry="3" style="stroke:#038048;stroke-width:1.0;"/><text fill="#000000" font-family="sans-serif" font-size="14" lengthAdjust="spacing" textLength="381" x="650" y="588.7195">link(device : RHI_device) : void ' Overrides RHI_linker::link</text></g><!--class Element_atrribute--><g id="elem_Element_atrribute"><rect codeLine="54" fill="#F1F1F1" height="181.4754" id="Element_atrribute" rx="2.5" ry="2.5" style="stroke:#181818;stroke-width:0.5;" width="625" x="690" y="631.346"/><ellipse cx="937.75" cy="647.346" fill="#ADD1B2" rx="11" ry="11" style="stroke:#181818;stroke-width:1.0;"/><path d="M937.8594,642.8773 Q936.9375,642.8773 936.2031,643.1898 Q935.4844,643.5023 934.9844,644.096 Q934.4844,644.6741 934.2031,645.5491 Q933.9375,646.4241 933.9375,647.5179 Q933.9375,648.9554 934.375,650.0023 Q934.8281,651.0491 935.6719,651.596 Q936.5313,652.1429 937.8438,652.1429 Q938.625,652.1429 939.3125,652.0179 Q940.0156,651.8773 941.0156,651.5648 L941.0156,653.4398 Q940.1563,653.7679 939.3906,653.8929 Q938.6406,654.0179 937.625,654.0179 Q935.7031,654.0179 934.3906,653.221 Q933.0938,652.4085 932.4375,650.9398 Q931.7813,649.4554 931.7813,647.4866 Q931.7813,646.0648 932.1719,644.8929 Q932.5781,643.7054 933.3594,642.8304 Q934.1406,641.9554 935.2813,641.4866 Q936.4219,641.0023 937.8906,641.0023 Q938.8438,641.0023 939.7344,641.2054 Q940.6406,641.3929 941.5781,641.8616 L940.75,643.6429 Q939.9688,643.2679 939.3125,643.0804 Q938.6563,642.8773 937.8594,642.8773 Z " fill="#000000"/><text fill="#000000" font-family="sans-serif" font-size="14" lengthAdjust="spacing" textLength="121" x="958.25" y="652.778">Element_atrribute</text><line style="stroke:#181818;stroke-width:0.5;" x1="691" x2="1314" y1="663.346" y2="663.346"/><rect fill="none" height="6" style="stroke:#C82930;stroke-width:1.0;" width="6" x="698" y="675.38"/><text fill="#000000" font-family="sans-serif" font-size="14" lengthAdjust="spacing" textLength="214" x="710" y="682.312">data : std::vector&lt;unsigned int&gt;</text><line style="stroke:#181818;stroke-width:0.5;" x1="691" x2="1314" y1="690.4139" y2="690.4139"/><ellipse cx="701" cy="705.4479" fill="#84BE84" rx="3" ry="3" style="stroke:#038048;stroke-width:1.0;"/><text fill="#000000" font-family="sans-serif" font-size="14" lengthAdjust="spacing" textLength="537" x="710" y="709.3799">Element_atrribute(usage : Buffer_usage, initial_data : std::vector&lt;unsigned int&gt;)</text><ellipse cx="701" cy="724.5158" fill="#84BE84" rx="3" ry="3" style="stroke:#038048;stroke-width:1.0;"/><text fill="#000000" font-family="sans-serif" font-size="14" lengthAdjust="spacing" text-decoration="underline" textLength="599" x="710" y="728.4478">create(usage : Buffer_usage, initial_data : std::vector&lt;unsigned int&gt;) : Element_atrribute*</text><ellipse cx="701" cy="743.5837" fill="#84BE84" rx="3" ry="3" style="stroke:#038048;stroke-width:1.0;"/><text fill="#000000" font-family="sans-serif" font-size="14" lengthAdjust="spacing" textLength="112" x="710" y="747.5157">data_ptr() : void*</text><ellipse cx="701" cy="762.6517" fill="#84BE84" rx="3" ry="3" style="stroke:#038048;stroke-width:1.0;"/><text fill="#000000" font-family="sans-serif" font-size="14" lengthAdjust="spacing" textLength="131" x="710" y="766.5836">data_count() : size_t</text><ellipse cx="701" cy="781.7196" fill="#84BE84" rx="3" ry="3" style="stroke:#038048;stroke-width:1.0;"/><text fill="#000000" font-family="sans-serif" font-size="14" lengthAdjust="spacing" textLength="119" x="710" y="785.6515">data_size() : size_t</text><ellipse cx="701" cy="800.7875" fill="#84BE84" rx="3" ry="3" style="stroke:#038048;stroke-width:1.0;"/><text fill="#000000" font-family="sans-serif" font-size="14" lengthAdjust="spacing" textLength="381" x="710" y="804.7195">link(device : RHI_device) : void ' Overrides RHI_linker::link</text></g><!--class Vertex_attribute_T_UDC--><g id="elem_Vertex_attribute_T_UDC"><rect codeLine="66" fill="#F1F1F1" height="276.815" id="Vertex_attribute_T_UDC" rx="2.5" ry="2.5" style="stroke:#181818;stroke-width:0.5;" width="697" x="1436" y="473.676"/><ellipse cx="1667.75" cy="489.676" fill="#ADD1B2" rx="11" ry="11" style="stroke:#181818;stroke-width:1.0;"/><path d="M1667.8594,485.2073 Q1666.9375,485.2073 1666.2031,485.5198 Q1665.4844,485.8323 1664.9844,486.426 Q1664.4844,487.0041 1664.2031,487.8791 Q1663.9375,488.7541 1663.9375,489.8479 Q1663.9375,491.2854 1664.375,492.3323 Q1664.8281,493.3791 1665.6719,493.926 Q1666.5313,494.4729 1667.8438,494.4729 Q1668.625,494.4729 1669.3125,494.3479 Q1670.0156,494.2073 1671.0156,493.8948 L1671.0156,495.7698 Q1670.1563,496.0979 1669.3906,496.2229 Q1668.6406,496.3479 1667.625,496.3479 Q1665.7031,496.3479 1664.3906,495.551 Q1663.0938,494.7385 1662.4375,493.2698 Q1661.7813,491.7854 1661.7813,489.8166 Q1661.7813,488.3948 1662.1719,487.2229 Q1662.5781,486.0354 1663.3594,485.1604 Q1664.1406,484.2854 1665.2813,483.8166 Q1666.4219,483.3323 1667.8906,483.3323 Q1668.8438,483.3323 1669.7344,483.5354 Q1670.6406,483.7229 1671.5781,484.1916 L1670.75,485.9729 Q1669.9688,485.5979 1669.3125,485.4104 Q1668.6563,485.2073 1667.8594,485.2073 Z " fill="#000000"/><text fill="#000000" font-family="sans-serif" font-size="14" lengthAdjust="spacing" textLength="107" x="1688.25" y="495.108">Vertex_attribute</text><rect fill="#FFFFFF" height="18.3441" style="stroke:#181818;stroke-width:1.0;stroke-dasharray:2.0,2.0;" width="116" x="2020" y="470.676"/><text fill="#000000" font-family="sans-serif" font-size="12" font-style="italic" lengthAdjust="spacing" textLength="114" x="2021" y="484.5041">T, UNIT_DATA_COUNT</text><line style="stroke:#181818;stroke-width:0.5;" x1="1437" x2="2132" y1="505.676" y2="505.676"/><rect fill="none" height="6" style="stroke:#C82930;stroke-width:1.0;" width="6" x="1444" y="517.71"/><text fill="#000000" font-family="sans-serif" font-size="14" lengthAdjust="spacing" textLength="136" x="1456" y="524.642">data : std::vector&lt;T&gt;</text><line style="stroke:#181818;stroke-width:0.5;" x1="1437" x2="2132" y1="532.7439" y2="532.7439"/><ellipse cx="1447" cy="547.7779" fill="#84BE84" rx="3" ry="3" style="stroke:#038048;stroke-width:1.0;"/><text fill="#000000" font-family="sans-serif" font-size="14" lengthAdjust="spacing" textLength="671" x="1456" y="551.7099">Vertex_attribute(usage : Buffer_usage, iterate_type : Buffer_iterate_type, initial_data : std::vector&lt;T&gt;)</text><ellipse cx="1447" cy="566.8458" fill="#84BE84" rx="3" ry="3" style="stroke:#038048;stroke-width:1.0;"/><text fill="#000000" font-family="sans-serif" font-size="14" lengthAdjust="spacing" textLength="112" x="1456" y="570.7778">data_ptr() : void*</text><ellipse cx="1447" cy="585.9137" fill="#84BE84" rx="3" ry="3" style="stroke:#038048;stroke-width:1.0;"/><text fill="#000000" font-family="sans-serif" font-size="14" lengthAdjust="spacing" textLength="328" x="1456" y="589.8457">data_count() : size_t ' Total number of T elements</text><ellipse cx="1447" cy="604.9817" fill="#84BE84" rx="3" ry="3" style="stroke:#038048;stroke-width:1.0;"/><text fill="#000000" font-family="sans-serif" font-size="14" lengthAdjust="spacing" textLength="250" x="1456" y="608.9136">data_size() : size_t ' Total size in bytes</text><ellipse cx="1447" cy="624.0496" fill="#84BE84" rx="3" ry="3" style="stroke:#038048;stroke-width:1.0;"/><text fill="#000000" font-family="sans-serif" font-size="14" lengthAdjust="spacing" textLength="363" x="1456" y="627.9815">unit_data_count() : size_t ' Returns UNIT_DATA_COUNT</text><ellipse cx="1447" cy="643.1175" fill="#84BE84" rx="3" ry="3" style="stroke:#038048;stroke-width:1.0;"/><text fill="#000000" font-family="sans-serif" font-size="14" lengthAdjust="spacing" textLength="268" x="1456" y="647.0495">unit_count() : size_t ' Number of vertices</text><ellipse cx="1447" cy="662.1854" fill="#84BE84" rx="3" ry="3" style="stroke:#038048;stroke-width:1.0;"/><text fill="#000000" font-family="sans-serif" font-size="14" lengthAdjust="spacing" textLength="369" x="1456" y="666.1174">unit_data_size() : size_t ' Size of one vertex unit in bytes</text><ellipse cx="1447" cy="681.2533" fill="#84BE84" rx="3" ry="3" style="stroke:#038048;stroke-width:1.0;"/><text fill="#000000" font-family="sans-serif" font-size="14" lengthAdjust="spacing" textLength="185" x="1456" y="685.1853">unit_data(index : size_t) : T*</text><ellipse cx="1447" cy="700.3212" fill="#84BE84" rx="3" ry="3" style="stroke:#038048;stroke-width:1.0;"/><text fill="#000000" font-family="sans-serif" font-size="14" lengthAdjust="spacing" textLength="255" x="1456" y="704.2532">get_unit(index : size_t) : std::vector&lt;T&gt;</text><ellipse cx="1447" cy="719.3892" fill="#84BE84" rx="3" ry="3" style="stroke:#038048;stroke-width:1.0;"/><text fill="#000000" font-family="sans-serif" font-size="14" lengthAdjust="spacing" textLength="427" x="1456" y="723.3211">set_unit(index : size_t, unit_values : const std::vector&lt;T&gt;&amp;) : void</text><ellipse cx="1447" cy="738.4571" fill="#84BE84" rx="3" ry="3" style="stroke:#038048;stroke-width:1.0;"/><text fill="#000000" font-family="sans-serif" font-size="14" lengthAdjust="spacing" textLength="282" x="1456" y="742.389">apply(func : std::function&lt;void(T&amp;)&gt;) : void</text></g><!--reverse link RHI_linker to Attribute_base--><g id="link_RHI_linker_Attribute_base"><path codeLine="40" d="M871.2731,67.1808 C796.8431,76.6208 715.41,90.056 630,114.086 C577.18,128.956 521.76,148.796 469.98,169.346 " fill="none" id="RHI_linker-backto-Attribute_base" style="stroke:#181818;stroke-width:1.0;"/><polygon fill="none" points="889.13,64.916,870.5181,61.2285,872.028,73.1331,889.13,64.916" style="stroke:#181818;stroke-width:1.0;"/><polygon fill="#000000" points="520.8454,113.2654,511.3549,112.649,512.8051,118.3451,520.8454,113.2654" style="stroke:#000000;stroke-width:1.0;"/><text fill="#000000" font-family="sans-serif" font-size="13" lengthAdjust="spacing" textLength="74" x="525" y="119.543">RHI_buffer &gt;</text></g><!--link Attribute_base to RHI_linker--><g id="link_Attribute_base_RHI_linker"><path codeLine="89" d="M372.78,169.366 C414.55,141.246 462.73,113.836 511,97.086 C635.39,53.936 769.6312,46.5722 871.1912,47.7222 " fill="none" id="Attribute_base-to-RHI_linker" style="stroke:#181818;stroke-width:1.0;"/><polygon fill="none" points="889.19,47.926,871.2591,41.7226,871.1232,53.7218,889.19,47.926" style="stroke:#181818;stroke-width:1.0;"/></g><!--reverse link Attribute_base to Vertex_attribute_base--><g id="link_Attribute_base_Vertex_attribute_base"><path d="M498.4485,355.8015 C547.4585,372.0215 581.78,383.046 630,398.086 C647.79,403.636 666.09,409.256 684.58,414.856 " fill="none" id="Attribute_base-backto-Vertex_attribute_base" style="stroke:#181818;stroke-width:1.0;"/><polygon fill="none" points="481.36,350.146,496.5633,361.4977,500.3336,350.1053,481.36,350.146" style="stroke:#181818;stroke-width:1.0;"/></g><!--reverse link Attribute_base to Element_atrribute--><g id="link_Attribute_base_Element_atrribute"><path d="M346.4582,383.6227 C418.8882,460.4427 515.55,550.566 630,614.086 C648.94,624.596 669,634.176 689.61,642.886 " fill="none" id="Attribute_base-backto-Element_atrribute" style="stroke:#181818;stroke-width:1.0;"/><polygon fill="none" points="334.11,370.526,342.0927,387.7387,350.8238,379.5066,334.11,370.526" style="stroke:#181818;stroke-width:1.0;"/></g><!--reverse link Vertex_attribute_base to Vertex_attribute_T_UDC--><g id="link_Vertex_attribute_base_Vertex_attribute_T_UDC"><path d="M1393.0564,559.0274 C1413.1664,561.7574 1415.51,562.076 1435.53,564.796 " fill="none" id="Vertex_attribute_base-backto-Vertex_attribute_T_UDC" style="stroke:#181818;stroke-width:1.0;"/><polygon fill="none" points="1375.22,556.606,1392.2493,564.9728,1393.8635,553.0819,1375.22,556.606" style="stroke:#181818;stroke-width:1.0;"/></g><!--reverse link Attribute_base to Buffer_usage--><g id="link_Attribute_base_Buffer_usage"><path codeLine="85" d="M493.3674,293.3389 C654.2474,308.4589 843.53,326.246 941.85,335.486 " fill="none" id="Attribute_base-backto-Buffer_usage" style="stroke:#181818;stroke-width:1.0;"/><polygon fill="#181818" points="481.42,292.216,487.0194,296.7599,493.3674,293.3389,487.768,288.795,481.42,292.216" style="stroke:#181818;stroke-width:1.0;"/><text fill="#000000" font-family="sans-serif" font-size="13" lengthAdjust="spacing" textLength="7" x="489.2924" y="307.1296">1</text><text fill="#000000" font-family="sans-serif" font-size="13" lengthAdjust="spacing" textLength="7" x="927.0317" y="349.7798">1</text></g><!--reverse link Attribute_base to Buffer_data_type--><g id="link_Attribute_base_Buffer_data_type"><path codeLine="86" d="M493.3674,246.8432 C647.9674,232.3132 827.88,215.406 929.87,205.816 " fill="none" id="Attribute_base-backto-Buffer_data_type" style="stroke:#181818;stroke-width:1.0;"/><polygon fill="#181818" points="481.42,247.966,487.768,251.387,493.3674,246.8432,487.0194,243.4221,481.42,247.966" style="stroke:#181818;stroke-width:1.0;"/><text fill="#000000" font-family="sans-serif" font-size="13" lengthAdjust="spacing" textLength="7" x="489.2924" y="261.4277">1</text><text fill="#000000" font-family="sans-serif" font-size="13" lengthAdjust="spacing" textLength="7" x="915.0191" y="221.3201">1</text></g><!--reverse link Vertex_attribute_base to Buffer_iterate_type--><g id="link_Vertex_attribute_base_Buffer_iterate_type"><path codeLine="87" d="M1387.1107,453.9598 C1511.3007,437.0798 1626.08,421.486 1704.7,410.796 " fill="none" id="Vertex_attribute_base-backto-Buffer_iterate_type" style="stroke:#181818;stroke-width:1.0;"/><polygon fill="#181818" points="1375.22,455.576,1381.7041,458.7315,1387.1107,453.9598,1380.6266,450.8044,1375.22,455.576" style="stroke:#181818;stroke-width:1.0;"/><text fill="#000000" font-family="sans-serif" font-size="13" lengthAdjust="spacing" textLength="7" x="1382.862" y="468.6269">1</text><text fill="#000000" font-family="sans-serif" font-size="13" lengthAdjust="spacing" textLength="7" x="1690.0208" y="426.4967">1</text></g><!--SRC=[fLPRZzeu57xFhpXYfGvCeTA-HWY90NQBTXf6JAQxVOfCOi1gneviXtOwdV- -ntOW8PUXbnUmutF_pldiAxXB2TSF7svXbXAbOCx8Jf976C4zUynIjcKqWJk2dwYcKdbUIhSQj039TdiD2PCqranmpxk2qMW42vu_AhFoAAxW9jzkgOmIeacadp8Apnx0NxUhQOZ_oy3yFWJtox-3nJnosvlLwjP-_ITO_HjuBzwPeLoHdJDo7qx3vGmNyq_1z0EkQf8CmoMQbbxl5kleus8TBluhDii0RGIpXT5qmTyGHLqTgCk1R9IM9DOGs-Aito-ZbF7FL8x3YJNw1yWzYoHL8fSn1HzC2c_12FKJUc3scr5pcm7k3e8bncNDzbHhoJOvHhmnKJZZBbt_B7jxK1RKRzJOHd1khjzcQFYgbO4rytoCyiK9PrhsZqbSjqh48kVQoYZs3SlVAcIEwZ8xgbrSzg2MiJi-1LSLAVD-yKg0OFmT0QqLrOUn1MDZDM7I0E4ZbPf-ZSYv6lsgAKyw83hhCx-j-spuhPP_0PRX3pXiG9TpLXJl4ZfMyeU4sd24AsIDRnJ45WIdSB0vMt5W73PFcgeJbjM0gt0sAdTfbj3f2Zr9bj3gXFg- -JU3LWptJF1O8ed18gMFbEiIJZlghW6ACyH95cUlW3-oI9diTUBx1oH28SSvLsp7aJGPrnERGCDc1-mCwyH86bqoQk2zgZG9Kw2eusIQ8HMPtAeAS634bjorVHb7MUDdfObcyGjWXSZl1uY7ZQGTMtIGI7TlTjB5RxU5wugGuYs7AHS3sjeKlVhmZiCXNb3BC9fFmsaqMpq4uQG7f8K_mkXXFZlrK3kzTBPIEB58rpmPl0deOzpPyMvkfPak92zooAjeXsqzMCWZGWdUMuplkdiE3I2SI0cnu4WgkJ7wq-s1_aEXIGfuwM-GpP5qGg2kxLHdxvoqpFQSbRfP4fNMLEUIgpeOfMABJd0Ap30XzcRTpo_Ivyb0d_449Oxwnb9uNLwcADOYqUYmjuO-sgI7pjE1f3dEaE_Ggkc_EJrfZ26IPUbJVvlp-EZ8hCtxS6na-k6RmQJw1Yg6S4snbL58xLdc7burjktzsODh53J_Po-3otBbyw1z-bfKpgwWkelHwFkamYUUJU8Mru1Jk1SuvLnymQb4ta3cYINBi50A-bYyc6Ow9-aGr5vyuGPJBX3J0HfeZ-tTkqc5sR1klToyJ1r9Hwu_YWdh3tfefdbzlMwY69UA3PFDU-HCG7xHJvYJQM45Mo7nYKG9ntvEXVWCR0kSqeGcthuX_Jy0]--></g></svg>