<?xml version="1.0" encoding="us-ascii" standalone="no"?><svg xmlns="http://www.w3.org/2000/svg" xmlns:xlink="http://www.w3.org/1999/xlink" contentStyleType="text/css" height="872px" preserveAspectRatio="none" style="width:823px;height:872px;background:#FFFFFF;" version="1.1" viewBox="0 0 823 872" width="823px" zoomAndPan="magnify"><defs/><g><!--class RHI_linker_RHI_buffer--><g id="elem_RHI_linker_RHI_buffer"><rect codeLine="6" fill="#F1F1F1" height="67.0679" id="RHI_linker_RHI_buffer" rx="2.5" ry="2.5" style="stroke:#181818;stroke-width:0.5;" width="219" x="190" y="10.016"/><ellipse cx="232.45" cy="26.016" fill="#B4A7E5" rx="11" ry="11" style="stroke:#181818;stroke-width:1.0;"/><path d="M234.5438,32.516 L229.6375,32.516 L229.6375,31.141 L231.0594,30.8285 L231.0594,21.5473 L229.6375,21.2035 L229.6375,19.8441 L234.5438,19.8441 L234.5438,21.2035 L233.1219,21.5473 L233.1219,30.8285 L234.5438,31.141 L234.5438,32.516 Z " fill="#000000"/><text fill="#000000" font-family="sans-serif" font-size="14" font-style="italic" lengthAdjust="spacing" textLength="65" x="252.55" y="31.448">RHI_linker</text><rect fill="#FFFFFF" height="18.3441" style="stroke:#181818;stroke-width:1.0;stroke-dasharray:2.0,2.0;" width="59" x="353" y="7.016"/><text fill="#000000" font-family="sans-serif" font-size="12" font-style="italic" lengthAdjust="spacing" textLength="57" x="354" y="20.8441">RHI_buffer</text><line style="stroke:#181818;stroke-width:0.5;" x1="191" x2="408" y1="42.016" y2="42.016"/><line style="stroke:#181818;stroke-width:0.5;" x1="191" x2="408" y1="50.016" y2="50.016"/><ellipse cx="201" cy="65.05" fill="#84BE84" rx="3" ry="3" style="stroke:#038048;stroke-width:1.0;"/><text fill="#000000" font-family="sans-serif" font-size="14" lengthAdjust="spacing" textLength="193" x="210" y="68.982">link(device: RHI_Device): void</text></g><!--class Memory_buffer--><g id="elem_Memory_buffer"><rect codeLine="10" fill="#F1F1F1" height="124.2717" id="Memory_buffer" rx="2.5" ry="2.5" style="stroke:#181818;stroke-width:0.5;" width="164" x="652" y="328.416"/><ellipse cx="683.65" cy="344.416" fill="#A9DCDF" rx="11" ry="11" style="stroke:#181818;stroke-width:1.0;"/><path d="M686.9938,349.666 L685.525,345.916 L681.0875,345.916 L679.65,349.666 L677.525,349.666 L682.4781,336.9473 L684.2281,336.9473 L689.15,349.666 L686.9938,349.666 Z M683.65,340.7129 Q683.6031,340.5566 683.4781,340.1973 Q683.3531,339.8379 683.2438,339.4629 Q683.1344,339.0723 683.3375,339.0098 Q683.4938,339.1973 683.4,339.5566 Q683.3063,339.9004 683.2125,340.1973 Q683.1188,340.4785 683.0406,340.7129 L681.8063,344.0254 L684.8844,344.0254 L683.65,340.7129 Z " fill="#000000"/><text fill="#000000" font-family="sans-serif" font-size="14" font-style="italic" lengthAdjust="spacing" textLength="95" x="701.35" y="349.848">Memory_buffer</text><line style="stroke:#181818;stroke-width:0.5;" x1="653" x2="815" y1="360.416" y2="360.416"/><polygon fill="none" points="663,370.45,667,374.45,663,378.45,659,374.45" style="stroke:#B38D22;stroke-width:1.0;"/><text fill="#000000" font-family="sans-serif" font-size="14" lengthAdjust="spacing" textLength="114" x="672" y="379.382">type: Buffer_type</text><polygon fill="none" points="663,389.5179,667,393.5179,663,397.5179,659,393.5179" style="stroke:#B38D22;stroke-width:1.0;"/><text fill="#000000" font-family="sans-serif" font-size="14" lengthAdjust="spacing" textLength="138" x="672" y="398.4499">usage: Buffer_usage</text><line style="stroke:#181818;stroke-width:0.5;" x1="653" x2="815" y1="406.5519" y2="406.5519"/><ellipse cx="663" cy="421.5858" fill="#84BE84" rx="3" ry="3" style="stroke:#038048;stroke-width:1.0;"/><text fill="#000000" font-family="sans-serif" font-size="14" font-style="italic" lengthAdjust="spacing" textLength="127" x="672" y="425.5178">pull_from_rhi(): void</text><ellipse cx="663" cy="440.6537" fill="#84BE84" rx="3" ry="3" style="stroke:#038048;stroke-width:1.0;"/><text fill="#000000" font-family="sans-serif" font-size="14" font-style="italic" lengthAdjust="spacing" textLength="116" x="672" y="444.5857">push_to_rhi(): void</text></g><!--class Uniform_buffer_T--><g id="elem_Uniform_buffer_T"><rect codeLine="18" fill="#F1F1F1" height="162.4075" id="Uniform_buffer_T" rx="2.5" ry="2.5" style="stroke:#181818;stroke-width:0.5;" width="473" x="63" y="112.346"/><ellipse cx="238.75" cy="128.346" fill="#ADD1B2" rx="11" ry="11" style="stroke:#181818;stroke-width:1.0;"/><path d="M238.8594,123.8773 Q237.9375,123.8773 237.2031,124.1898 Q236.4844,124.5023 235.9844,125.096 Q235.4844,125.6741 235.2031,126.5491 Q234.9375,127.4241 234.9375,128.5179 Q234.9375,129.9554 235.375,131.0023 Q235.8281,132.0491 236.6719,132.596 Q237.5313,133.1429 238.8438,133.1429 Q239.625,133.1429 240.3125,133.0179 Q241.0156,132.8773 242.0156,132.5648 L242.0156,134.4398 Q241.1563,134.7679 240.3906,134.8929 Q239.6406,135.0179 238.625,135.0179 Q236.7031,135.0179 235.3906,134.221 Q234.0938,133.4085 233.4375,131.9398 Q232.7813,130.4554 232.7813,128.4866 Q232.7813,127.0648 233.1719,125.8929 Q233.5781,124.7054 234.3594,123.8304 Q235.1406,122.9554 236.2813,122.4866 Q237.4219,122.0023 238.8906,122.0023 Q239.8438,122.0023 240.7344,122.2054 Q241.6406,122.3929 242.5781,122.8616 L241.75,124.6429 Q240.9688,124.2679 240.3125,124.0804 Q239.6563,123.8773 238.8594,123.8773 Z " fill="#000000"/><text fill="#000000" font-family="sans-serif" font-size="14" lengthAdjust="spacing" textLength="103" x="259.25" y="133.778">Uniform_buffer</text><rect fill="#FFFFFF" height="18.3441" style="stroke:#181818;stroke-width:1.0;stroke-dasharray:2.0,2.0;" width="8" x="531" y="109.346"/><text fill="#000000" font-family="sans-serif" font-size="12" font-style="italic" lengthAdjust="spacing" textLength="6" x="532" y="123.1741">T</text><line style="stroke:#181818;stroke-width:0.5;" x1="64" x2="535" y1="144.346" y2="144.346"/><rect fill="none" height="6" style="stroke:#C82930;stroke-width:1.0;" width="6" x="71" y="156.38"/><text fill="#000000" font-family="sans-serif" font-size="14" lengthAdjust="spacing" textLength="65" x="83" y="163.312">m_data: T</text><line style="stroke:#181818;stroke-width:0.5;" x1="64" x2="535" y1="171.4139" y2="171.4139"/><ellipse cx="74" cy="186.4479" fill="#84BE84" rx="3" ry="3" style="stroke:#038048;stroke-width:1.0;"/><text fill="#000000" font-family="sans-serif" font-size="14" lengthAdjust="spacing" textLength="361" x="83" y="190.3799">Uniform_buffer() ' Sets type=UNIFORM, usage=STATIC</text><ellipse cx="74" cy="205.5158" fill="#84BE84" rx="3" ry="3" style="stroke:#038048;stroke-width:1.0;"/><text fill="#000000" font-family="sans-serif" font-size="14" lengthAdjust="spacing" text-decoration="underline" textLength="197" x="83" y="209.4478">create(...): Uniform_buffer&lt;T&gt;</text><ellipse cx="74" cy="224.5837" fill="#84BE84" rx="3" ry="3" style="stroke:#038048;stroke-width:1.0;"/><text fill="#000000" font-family="sans-serif" font-size="14" lengthAdjust="spacing" textLength="447" x="83" y="228.5157">link(device: RHI_Device): void ' Calls device-&gt;create_memory_buffer</text><ellipse cx="74" cy="243.6517" fill="#84BE84" rx="3" ry="3" style="stroke:#038048;stroke-width:1.0;"/><text fill="#000000" font-family="sans-serif" font-size="14" lengthAdjust="spacing" textLength="278" x="83" y="247.5836">push_to_rhi(): void ' Writes m_data to GPU</text><ellipse cx="74" cy="262.7196" fill="#84BE84" rx="3" ry="3" style="stroke:#038048;stroke-width:1.0;"/><text fill="#000000" font-family="sans-serif" font-size="14" lengthAdjust="spacing" textLength="323" x="83" y="266.6515">pull_from_rhi(): void ' Reads from GPU to m_data</text></g><!--class Uniform_buffer_array_T--><g id="elem_Uniform_buffer_array_T"><rect codeLine="28" fill="#F1F1F1" height="162.4075" id="Uniform_buffer_array_T" rx="2.5" ry="2.5" style="stroke:#181818;stroke-width:0.5;" width="570" x="14.5" y="309.346"/><ellipse cx="218.25" cy="325.346" fill="#ADD1B2" rx="11" ry="11" style="stroke:#181818;stroke-width:1.0;"/><path d="M218.3594,320.8773 Q217.4375,320.8773 216.7031,321.1898 Q215.9844,321.5023 215.4844,322.096 Q214.9844,322.6741 214.7031,323.5491 Q214.4375,324.4241 214.4375,325.5179 Q214.4375,326.9554 214.875,328.0023 Q215.3281,329.0491 216.1719,329.596 Q217.0313,330.1429 218.3438,330.1429 Q219.125,330.1429 219.8125,330.0179 Q220.5156,329.8773 221.5156,329.5648 L221.5156,331.4398 Q220.6563,331.7679 219.8906,331.8929 Q219.1406,332.0179 218.125,332.0179 Q216.2031,332.0179 214.8906,331.221 Q213.5938,330.4085 212.9375,328.9398 Q212.2813,327.4554 212.2813,325.4866 Q212.2813,324.0648 212.6719,322.8929 Q213.0781,321.7054 213.8594,320.8304 Q214.6406,319.9554 215.7813,319.4866 Q216.9219,319.0023 218.3906,319.0023 Q219.3438,319.0023 220.2344,319.2054 Q221.1406,319.3929 222.0781,319.8616 L221.25,321.6429 Q220.4688,321.2679 219.8125,321.0804 Q219.1563,320.8773 218.3594,320.8773 Z " fill="#000000"/><text fill="#000000" font-family="sans-serif" font-size="14" lengthAdjust="spacing" textLength="144" x="238.75" y="330.778">Uniform_buffer_array</text><rect fill="#FFFFFF" height="18.3441" style="stroke:#181818;stroke-width:1.0;stroke-dasharray:2.0,2.0;" width="8" x="579.5" y="306.346"/><text fill="#000000" font-family="sans-serif" font-size="12" font-style="italic" lengthAdjust="spacing" textLength="6" x="580.5" y="320.1741">T</text><line style="stroke:#181818;stroke-width:0.5;" x1="15.5" x2="583.5" y1="341.346" y2="341.346"/><rect fill="none" height="6" style="stroke:#C82930;stroke-width:1.0;" width="6" x="22.5" y="353.38"/><text fill="#000000" font-family="sans-serif" font-size="14" lengthAdjust="spacing" textLength="132" x="34.5" y="360.312">data: std::vector&lt;T&gt;</text><line style="stroke:#181818;stroke-width:0.5;" x1="15.5" x2="583.5" y1="368.4139" y2="368.4139"/><ellipse cx="25.5" cy="383.4479" fill="#84BE84" rx="3" ry="3" style="stroke:#038048;stroke-width:1.0;"/><text fill="#000000" font-family="sans-serif" font-size="14" lengthAdjust="spacing" textLength="402" x="34.5" y="387.3799">Uniform_buffer_array() ' Sets type=UNIFORM, usage=STATIC</text><ellipse cx="25.5" cy="402.5158" fill="#84BE84" rx="3" ry="3" style="stroke:#038048;stroke-width:1.0;"/><text fill="#000000" font-family="sans-serif" font-size="14" lengthAdjust="spacing" text-decoration="underline" textLength="238" x="34.5" y="406.4478">create(...): Uniform_buffer_array&lt;T&gt;</text><ellipse cx="25.5" cy="421.5837" fill="#84BE84" rx="3" ry="3" style="stroke:#038048;stroke-width:1.0;"/><text fill="#000000" font-family="sans-serif" font-size="14" lengthAdjust="spacing" textLength="544" x="34.5" y="425.5157">link(device: RHI_Device): void ' Calls device-&gt;create_memory_buffer with total size</text><ellipse cx="25.5" cy="440.6517" fill="#84BE84" rx="3" ry="3" style="stroke:#038048;stroke-width:1.0;"/><text fill="#000000" font-family="sans-serif" font-size="14" lengthAdjust="spacing" textLength="333" x="34.5" y="444.5836">push_to_rhi(): void ' Writes std::vector data to GPU</text><ellipse cx="25.5" cy="459.7196" fill="#84BE84" rx="3" ry="3" style="stroke:#038048;stroke-width:1.0;"/><text fill="#000000" font-family="sans-serif" font-size="14" lengthAdjust="spacing" textLength="344" x="34.5" y="463.6515">pull_from_rhi(): void ' Reads from GPU to std::vector</text></g><!--class Storage_buffer_T--><g id="elem_Storage_buffer_T"><rect codeLine="38" fill="#F1F1F1" height="162.4075" id="Storage_buffer_T" rx="2.5" ry="2.5" style="stroke:#181818;stroke-width:0.5;" width="585" x="7" y="506.346"/><ellipse cx="240.25" cy="522.346" fill="#ADD1B2" rx="11" ry="11" style="stroke:#181818;stroke-width:1.0;"/><path d="M240.3594,517.8773 Q239.4375,517.8773 238.7031,518.1898 Q237.9844,518.5023 237.4844,519.096 Q236.9844,519.6741 236.7031,520.5491 Q236.4375,521.4241 236.4375,522.5179 Q236.4375,523.9554 236.875,525.0023 Q237.3281,526.0491 238.1719,526.596 Q239.0313,527.1429 240.3438,527.1429 Q241.125,527.1429 241.8125,527.0179 Q242.5156,526.8773 243.5156,526.5648 L243.5156,528.4398 Q242.6563,528.7679 241.8906,528.8929 Q241.1406,529.0179 240.125,529.0179 Q238.2031,529.0179 236.8906,528.221 Q235.5938,527.4085 234.9375,525.9398 Q234.2813,524.4554 234.2813,522.4866 Q234.2813,521.0648 234.6719,519.8929 Q235.0781,518.7054 235.8594,517.8304 Q236.6406,516.9554 237.7813,516.4866 Q238.9219,516.0023 240.3906,516.0023 Q241.3438,516.0023 242.2344,516.2054 Q243.1406,516.3929 244.0781,516.8616 L243.25,518.6429 Q242.4688,518.2679 241.8125,518.0804 Q241.1563,517.8773 240.3594,517.8773 Z " fill="#000000"/><text fill="#000000" font-family="sans-serif" font-size="14" lengthAdjust="spacing" textLength="100" x="260.75" y="527.778">Storage_buffer</text><rect fill="#FFFFFF" height="18.3441" style="stroke:#181818;stroke-width:1.0;stroke-dasharray:2.0,2.0;" width="8" x="587" y="503.346"/><text fill="#000000" font-family="sans-serif" font-size="12" font-style="italic" lengthAdjust="spacing" textLength="6" x="588" y="517.1741">T</text><line style="stroke:#181818;stroke-width:0.5;" x1="8" x2="591" y1="538.346" y2="538.346"/><rect fill="none" height="6" style="stroke:#C82930;stroke-width:1.0;" width="6" x="15" y="550.38"/><text fill="#000000" font-family="sans-serif" font-size="14" lengthAdjust="spacing" textLength="306" x="27" y="557.312">m_data: T ' Implied, similar to Uniform_buffer</text><line style="stroke:#181818;stroke-width:0.5;" x1="8" x2="591" y1="565.4139" y2="565.4139"/><ellipse cx="18" cy="580.4479" fill="#84BE84" rx="3" ry="3" style="stroke:#038048;stroke-width:1.0;"/><text fill="#000000" font-family="sans-serif" font-size="14" lengthAdjust="spacing" textLength="373" x="27" y="584.3799">Storage_buffer() ' Sets type=STORAGE, usage=DYNAMIC</text><ellipse cx="18" cy="599.5158" fill="#84BE84" rx="3" ry="3" style="stroke:#038048;stroke-width:1.0;"/><text fill="#000000" font-family="sans-serif" font-size="14" lengthAdjust="spacing" text-decoration="underline" textLength="194" x="27" y="603.4478">create(...): Storage_buffer&lt;T&gt;</text><ellipse cx="18" cy="618.5837" fill="#84BE84" rx="3" ry="3" style="stroke:#038048;stroke-width:1.0;"/><text fill="#000000" font-family="sans-serif" font-size="14" lengthAdjust="spacing" textLength="559" x="27" y="622.5157">link(device: RHI_Device): void ' Calls device-&gt;create_memory_buffer (type=STORAGE)</text><ellipse cx="18" cy="637.6517" fill="#84BE84" rx="3" ry="3" style="stroke:#038048;stroke-width:1.0;"/><text fill="#000000" font-family="sans-serif" font-size="14" lengthAdjust="spacing" textLength="122" x="27" y="641.5836">push_to_rhi(): void</text><ellipse cx="18" cy="656.7196" fill="#84BE84" rx="3" ry="3" style="stroke:#038048;stroke-width:1.0;"/><text fill="#000000" font-family="sans-serif" font-size="14" lengthAdjust="spacing" textLength="133" x="27" y="660.6515">pull_from_rhi(): void</text></g><!--class Storage_buffer_array_T--><g id="elem_Storage_buffer_array_T"><rect codeLine="48" fill="#F1F1F1" height="162.4075" id="Storage_buffer_array_T" rx="2.5" ry="2.5" style="stroke:#181818;stroke-width:0.5;" width="585" x="7" y="703.346"/><ellipse cx="219.75" cy="719.346" fill="#ADD1B2" rx="11" ry="11" style="stroke:#181818;stroke-width:1.0;"/><path d="M219.8594,714.8773 Q218.9375,714.8773 218.2031,715.1898 Q217.4844,715.5023 216.9844,716.096 Q216.4844,716.6741 216.2031,717.5491 Q215.9375,718.4241 215.9375,719.5179 Q215.9375,720.9554 216.375,722.0023 Q216.8281,723.0491 217.6719,723.596 Q218.5313,724.1429 219.8438,724.1429 Q220.625,724.1429 221.3125,724.0179 Q222.0156,723.8773 223.0156,723.5648 L223.0156,725.4398 Q222.1563,725.7679 221.3906,725.8929 Q220.6406,726.0179 219.625,726.0179 Q217.7031,726.0179 216.3906,725.221 Q215.0938,724.4085 214.4375,722.9398 Q213.7813,721.4554 213.7813,719.4866 Q213.7813,718.0648 214.1719,716.8929 Q214.5781,715.7054 215.3594,714.8304 Q216.1406,713.9554 217.2813,713.4866 Q218.4219,713.0023 219.8906,713.0023 Q220.8438,713.0023 221.7344,713.2054 Q222.6406,713.3929 223.5781,713.8616 L222.75,715.6429 Q221.9688,715.2679 221.3125,715.0804 Q220.6563,714.8773 219.8594,714.8773 Z " fill="#000000"/><text fill="#000000" font-family="sans-serif" font-size="14" lengthAdjust="spacing" textLength="141" x="240.25" y="724.778">Storage_buffer_array</text><rect fill="#FFFFFF" height="18.3441" style="stroke:#181818;stroke-width:1.0;stroke-dasharray:2.0,2.0;" width="8" x="587" y="700.346"/><text fill="#000000" font-family="sans-serif" font-size="12" font-style="italic" lengthAdjust="spacing" textLength="6" x="588" y="714.1741">T</text><line style="stroke:#181818;stroke-width:0.5;" x1="8" x2="591" y1="735.346" y2="735.346"/><rect fill="none" height="6" style="stroke:#C82930;stroke-width:1.0;" width="6" x="15" y="747.38"/><text fill="#000000" font-family="sans-serif" font-size="14" lengthAdjust="spacing" textLength="414" x="27" y="754.312">data: std::vector&lt;T&gt; ' Implied, similar to Uniform_buffer_array</text><line style="stroke:#181818;stroke-width:0.5;" x1="8" x2="591" y1="762.4139" y2="762.4139"/><ellipse cx="18" cy="777.4479" fill="#84BE84" rx="3" ry="3" style="stroke:#038048;stroke-width:1.0;"/><text fill="#000000" font-family="sans-serif" font-size="14" lengthAdjust="spacing" textLength="414" x="27" y="781.3799">Storage_buffer_array() ' Sets type=STORAGE, usage=DYNAMIC</text><ellipse cx="18" cy="796.5158" fill="#84BE84" rx="3" ry="3" style="stroke:#038048;stroke-width:1.0;"/><text fill="#000000" font-family="sans-serif" font-size="14" lengthAdjust="spacing" text-decoration="underline" textLength="235" x="27" y="800.4478">create(...): Storage_buffer_array&lt;T&gt;</text><ellipse cx="18" cy="815.5837" fill="#84BE84" rx="3" ry="3" style="stroke:#038048;stroke-width:1.0;"/><text fill="#000000" font-family="sans-serif" font-size="14" lengthAdjust="spacing" textLength="559" x="27" y="819.5157">link(device: RHI_Device): void ' Calls device-&gt;create_memory_buffer (type=STORAGE)</text><ellipse cx="18" cy="834.6517" fill="#84BE84" rx="3" ry="3" style="stroke:#038048;stroke-width:1.0;"/><text fill="#000000" font-family="sans-serif" font-size="14" lengthAdjust="spacing" textLength="122" x="27" y="838.5836">push_to_rhi(): void</text><ellipse cx="18" cy="853.7196" fill="#84BE84" rx="3" ry="3" style="stroke:#038048;stroke-width:1.0;"/><text fill="#000000" font-family="sans-serif" font-size="14" lengthAdjust="spacing" textLength="133" x="27" y="857.6515">pull_from_rhi(): void</text></g><!--reverse link RHI_linker_RHI_buffer to Memory_buffer--><g id="link_RHI_linker_RHI_buffer_Memory_buffer"><path codeLine="16" d="M427.4164,40.2574 C486.7264,43.2974 540.35,55.316 592,94.556 C667.35,151.806 704.3,259.526 720.94,328.026 " fill="none" id="RHI_linker_RHI_buffer-backto-Memory_buffer" style="stroke:#181818;stroke-width:1.0;stroke-dasharray:7.0,7.0;"/><polygon fill="none" points="409.44,39.336,427.1093,46.2496,427.7235,34.2653,409.44,39.336" style="stroke:#181818;stroke-width:1.0;"/></g><!--link Uniform_buffer_T to Memory_buffer--><g id="link_Uniform_buffer_T_Memory_buffer"><path codeLine="26" d="M536.41,266.266 C555.5,274.136 574.25,282.576 592,291.556 C612.42,301.876 618.3966,304.6795 637.5266,317.8295 " fill="none" id="Uniform_buffer_T-to-Memory_buffer" style="stroke:#181818;stroke-width:1.0;"/><polygon fill="none" points="652.36,328.026,640.9254,312.885,634.1277,322.774,652.36,328.026" style="stroke:#181818;stroke-width:1.0;"/></g><!--link Uniform_buffer_array_T to Memory_buffer--><g id="link_Uniform_buffer_array_T_Memory_buffer"><path codeLine="36" d="M584.76,390.556 C608.73,390.556 613.45,390.556 633.58,390.556 " fill="none" id="Uniform_buffer_array_T-to-Memory_buffer" style="stroke:#181818;stroke-width:1.0;"/><polygon fill="none" points="651.58,390.556,633.58,384.556,633.58,396.556,651.58,390.556" style="stroke:#181818;stroke-width:1.0;"/></g><!--link Storage_buffer_T to Memory_buffer--><g id="link_Storage_buffer_T_Memory_buffer"><path codeLine="46" d="M557.38,505.886 C569.21,500.666 580.8,495.216 592,489.556 C612.42,479.226 618.3929,476.4173 637.5229,463.2773 " fill="none" id="Storage_buffer_T-to-Memory_buffer" style="stroke:#181818;stroke-width:1.0;"/><polygon fill="none" points="652.36,453.086,634.1259,458.3316,640.92,468.223,652.36,453.086" style="stroke:#181818;stroke-width:1.0;"/></g><!--link Storage_buffer_array_T to Memory_buffer--><g id="link_Storage_buffer_array_T_Memory_buffer"><path codeLine="56" d="M571.21,703.066 C578.45,697.896 585.41,692.396 592,686.556 C662.07,624.436 695.5328,537.2805 713.9128,470.5105 " fill="none" id="Storage_buffer_array_T-to-Memory_buffer" style="stroke:#181818;stroke-width:1.0;"/><polygon fill="none" points="718.69,453.156,708.1279,468.9181,719.6976,472.1029,718.69,453.156" style="stroke:#181818;stroke-width:1.0;"/></g><!--SRC=[hLDRRzem57xthpYY3mMjv0T4BH9hjuu7sWc2fZrPRk8q5auSsGScrl7VvpXSaYPGjEKjFjVladDjbYBBcMOfI95ntEGSbCP44I9vZ80Aj7XD42AXUOX2POGGaI7NCGivz6RV9jGsBhc-BJvVLd7CzQW7pC0nHOyfU2C0dufTotx4roBalYjySDy37zPAH6HB27ing5c844fc34nvglIcEkGA2h0-V7OXMZnST6NOwp7iNcxbstxY5lALb3JMAgKw4VtzqaQHIIYgMicMr75ugzpxCsfdIaY9lBV8HAnqkWlV1gKwzIWD7ASXf3HYo7m879nwKNy0rp3dQ1ppkyNJvElpR7fJChwR1-DWSb-oCCXGX5i8DMV8-vxdMGOD71SuOHVUCoaDb1N3KJcHfbKPt9mMkMpp3osGcnshucTw_BxObRTOO1jcd4K6YaHHMdIKlLRwXcB3eTM-PiW9pIdJccrEAEzo1_rBzGr6lh-s_xiwwDJMrQaX1v1TsGA_12PMGMGIZFZDFxQfGXl-tR3AbAPhUxNFU3UtZLQ_T_TIZpRlnKAPfBaKFBgnR5CXcIx0rDSx9lL9xpoS1y-pyUENlOSFFv_6qxCcDj1sPb-_2cXmohtJvbZn6w9TB7lzPDfoPq_c8ZVAEIsUj5xNVphJ_Nbrxy-vu_WB]--></g></svg>