<?xml version="1.0" encoding="us-ascii" standalone="no"?><svg xmlns="http://www.w3.org/2000/svg" xmlns:xlink="http://www.w3.org/1999/xlink" contentStyleType="text/css" height="535px" preserveAspectRatio="none" style="width:950px;height:535px;background:#FFFFFF;" version="1.1" viewBox="0 0 950 535" width="950px" zoomAndPan="magnify"><defs/><g><!--class Editor--><g id="elem_Editor"><rect codeLine="4" fill="#F1F1F1" height="97.4648" id="Editor" rx="2.5" ry="2.5" style="stroke:#181818;stroke-width:0.5;" width="191" x="557.5" y="7"/><ellipse cx="628.25" cy="23" fill="#ADD1B2" rx="11" ry="11" style="stroke:#181818;stroke-width:1.0;"/><path d="M630.7231,29.1431 Q630.1421,29.4419 629.5029,29.5913 Q628.8638,29.7407 628.1582,29.7407 Q625.6514,29.7407 624.3315,28.0889 Q623.0117,26.437 623.0117,23.3159 Q623.0117,20.1865 624.3315,18.5347 Q625.6514,16.8828 628.1582,16.8828 Q628.8638,16.8828 629.5112,17.0322 Q630.1587,17.1816 630.7231,17.4805 L630.7231,20.2031 Q630.0923,19.6221 629.4988,19.3523 Q628.9053,19.0825 628.2744,19.0825 Q626.9297,19.0825 626.2449,20.1492 Q625.5601,21.2158 625.5601,23.3159 Q625.5601,25.4077 626.2449,26.4744 Q626.9297,27.541 628.2744,27.541 Q628.9053,27.541 629.4988,27.2712 Q630.0923,27.0015 630.7231,26.4204 Z " fill="#000000"/><text fill="#000000" font-family="sans-serif" font-size="14" lengthAdjust="spacing" textLength="41" x="648.75" y="28.291">Editor</text><line style="stroke:#181818;stroke-width:0.5;" x1="558.5" x2="747.5" y1="39" y2="39"/><line style="stroke:#181818;stroke-width:0.5;" x1="558.5" x2="747.5" y1="47" y2="47"/><ellipse cx="568.5" cy="60.7441" fill="#84BE84" rx="3" ry="3" style="stroke:#038048;stroke-width:1.0;"/><text fill="#000000" font-family="sans-serif" font-size="14" lengthAdjust="spacing" textLength="34" x="577.5" y="64.5352">run()</text><ellipse cx="568.5" cy="77.2324" fill="#84BE84" rx="3" ry="3" style="stroke:#038048;stroke-width:1.0;"/><text fill="#000000" font-family="sans-serif" font-size="14" lengthAdjust="spacing" textLength="165" x="577.5" y="81.0234">add_panel(name, panel)</text><ellipse cx="568.5" cy="93.7207" fill="#84BE84" rx="3" ry="3" style="stroke:#038048;stroke-width:1.0;"/><text fill="#000000" font-family="sans-serif" font-size="14" lengthAdjust="spacing" textLength="115" x="577.5" y="97.5117">get_panel(name)</text></g><!--class Panel--><g id="elem_Panel"><rect codeLine="10" fill="#F1F1F1" height="97.4648" id="Panel" rx="2.5" ry="2.5" style="stroke:#181818;stroke-width:0.5;" width="192" x="356" y="181.47"/><ellipse cx="429.25" cy="197.47" fill="#A9DCDF" rx="11" ry="11" style="stroke:#181818;stroke-width:1.0;"/><path d="M429.1133,192.8181 L427.9595,197.8899 L430.2754,197.8899 Z M427.6191,190.5769 L430.6157,190.5769 L433.9609,202.97 L431.5122,202.97 L430.7485,199.907 L427.4697,199.907 L426.7227,202.97 L424.2739,202.97 Z " fill="#000000"/><text fill="#000000" font-family="sans-serif" font-size="14" font-style="italic" lengthAdjust="spacing" textLength="37" x="449.75" y="202.761">Panel</text><line style="stroke:#181818;stroke-width:0.5;" x1="357" x2="547" y1="213.47" y2="213.47"/><line style="stroke:#181818;stroke-width:0.5;" x1="357" x2="547" y1="221.47" y2="221.47"/><ellipse cx="367" cy="235.2141" fill="#84BE84" rx="3" ry="3" style="stroke:#038048;stroke-width:1.0;"/><text fill="#000000" font-family="sans-serif" font-size="14" lengthAdjust="spacing" textLength="166" x="376" y="239.0052">Panel(RHI_imgui* imgui)</text><ellipse cx="367" cy="251.7024" fill="#84BE84" rx="3" ry="3" style="stroke:#038048;stroke-width:1.0;"/><text fill="#000000" font-family="sans-serif" font-size="14" lengthAdjust="spacing" textLength="56" x="376" y="255.4934">render()</text><polygon fill="#FFFF44" points="367,263.1907,371,267.1907,367,271.1907,363,267.1907" style="stroke:#B38D22;stroke-width:1.0;"/><text fill="#000000" font-family="sans-serif" font-size="14" font-style="italic" lengthAdjust="spacing" textLength="89" x="376" y="271.9817">draw_panel()</text></g><!--class Shadow_settings_panel--><g id="elem_Shadow_settings_panel"><rect codeLine="18" fill="#F1F1F1" height="48" id="Shadow_settings_panel" rx="2.5" ry="2.5" style="stroke:#181818;stroke-width:0.5;" width="192" x="7" y="355.93"/><ellipse cx="22" cy="371.93" fill="#ADD1B2" rx="11" ry="11" style="stroke:#181818;stroke-width:1.0;"/><path d="M24.4731,378.0731 Q23.8921,378.3719 23.2529,378.5213 Q22.6138,378.6707 21.9082,378.6707 Q19.4014,378.6707 18.0815,377.0189 Q16.7617,375.367 16.7617,372.2459 Q16.7617,369.1165 18.0815,367.4647 Q19.4014,365.8128 21.9082,365.8128 Q22.6138,365.8128 23.2612,365.9622 Q23.9087,366.1116 24.4731,366.4105 L24.4731,369.1331 Q23.8423,368.5521 23.2488,368.2823 Q22.6553,368.0125 22.0244,368.0125 Q20.6797,368.0125 19.9949,369.0792 Q19.3101,370.1458 19.3101,372.2459 Q19.3101,374.3377 19.9949,375.4044 Q20.6797,376.471 22.0244,376.471 Q22.6553,376.471 23.2488,376.2012 Q23.8423,375.9315 24.4731,375.3504 Z " fill="#000000"/><text fill="#000000" font-family="sans-serif" font-size="14" lengthAdjust="spacing" textLength="160" x="36" y="377.221">Shadow_settings_panel</text><line style="stroke:#181818;stroke-width:0.5;" x1="8" x2="198" y1="387.93" y2="387.93"/><line style="stroke:#181818;stroke-width:0.5;" x1="8" x2="198" y1="395.93" y2="395.93"/></g><!--class Phong_material_settings_panel--><g id="elem_Phong_material_settings_panel"><rect codeLine="22" fill="#F1F1F1" height="48" id="Phong_material_settings_panel" rx="2.5" ry="2.5" style="stroke:#181818;stroke-width:0.5;" width="245" x="234.5" y="355.93"/><ellipse cx="249.5" cy="371.93" fill="#ADD1B2" rx="11" ry="11" style="stroke:#181818;stroke-width:1.0;"/><path d="M251.9731,378.0731 Q251.3921,378.3719 250.7529,378.5213 Q250.1138,378.6707 249.4082,378.6707 Q246.9014,378.6707 245.5815,377.0189 Q244.2617,375.367 244.2617,372.2459 Q244.2617,369.1165 245.5815,367.4647 Q246.9014,365.8128 249.4082,365.8128 Q250.1138,365.8128 250.7612,365.9622 Q251.4087,366.1116 251.9731,366.4105 L251.9731,369.1331 Q251.3423,368.5521 250.7488,368.2823 Q250.1553,368.0125 249.5244,368.0125 Q248.1797,368.0125 247.4949,369.0792 Q246.8101,370.1458 246.8101,372.2459 Q246.8101,374.3377 247.4949,375.4044 Q248.1797,376.471 249.5244,376.471 Q250.1553,376.471 250.7488,376.2012 Q251.3423,375.9315 251.9731,375.3504 Z " fill="#000000"/><text fill="#000000" font-family="sans-serif" font-size="14" lengthAdjust="spacing" textLength="213" x="263.5" y="377.221">Phong_material_settings_panel</text><line style="stroke:#181818;stroke-width:0.5;" x1="235.5" x2="478.5" y1="387.93" y2="387.93"/><line style="stroke:#181818;stroke-width:0.5;" x1="235.5" x2="478.5" y1="395.93" y2="395.93"/></g><!--class Parallax_settings_panel--><g id="elem_Parallax_settings_panel"><rect codeLine="26" fill="#F1F1F1" height="48" id="Parallax_settings_panel" rx="2.5" ry="2.5" style="stroke:#181818;stroke-width:0.5;" width="193" x="514.5" y="355.93"/><ellipse cx="529.5" cy="371.93" fill="#ADD1B2" rx="11" ry="11" style="stroke:#181818;stroke-width:1.0;"/><path d="M531.9731,378.0731 Q531.3921,378.3719 530.7529,378.5213 Q530.1138,378.6707 529.4082,378.6707 Q526.9014,378.6707 525.5815,377.0189 Q524.2617,375.367 524.2617,372.2459 Q524.2617,369.1165 525.5815,367.4647 Q526.9014,365.8128 529.4082,365.8128 Q530.1138,365.8128 530.7612,365.9622 Q531.4087,366.1116 531.9731,366.4105 L531.9731,369.1331 Q531.3423,368.5521 530.7488,368.2823 Q530.1553,368.0125 529.5244,368.0125 Q528.1797,368.0125 527.4949,369.0792 Q526.8101,370.1458 526.8101,372.2459 Q526.8101,374.3377 527.4949,375.4044 Q528.1797,376.471 529.5244,376.471 Q530.1553,376.471 530.7488,376.2012 Q531.3423,375.9315 531.9731,375.3504 Z " fill="#000000"/><text fill="#000000" font-family="sans-serif" font-size="14" lengthAdjust="spacing" textLength="161" x="543.5" y="377.221">Parallax_settings_panel</text><line style="stroke:#181818;stroke-width:0.5;" x1="515.5" x2="706.5" y1="387.93" y2="387.93"/><line style="stroke:#181818;stroke-width:0.5;" x1="515.5" x2="706.5" y1="395.93" y2="395.93"/></g><!--class Engine_runtime--><g id="elem_Engine_runtime"><rect codeLine="31" fill="#F1F1F1" height="64.4883" id="Engine_runtime" rx="2.5" ry="2.5" style="stroke:#181818;stroke-width:0.5;" width="140" x="583" y="197.95"/><ellipse cx="598" cy="213.95" fill="#ADD1B2" rx="11" ry="11" style="stroke:#181818;stroke-width:1.0;"/><path d="M600.4731,220.0931 Q599.8921,220.3919 599.2529,220.5413 Q598.6138,220.6907 597.9082,220.6907 Q595.4014,220.6907 594.0815,219.0389 Q592.7617,217.387 592.7617,214.2659 Q592.7617,211.1365 594.0815,209.4847 Q595.4014,207.8328 597.9082,207.8328 Q598.6138,207.8328 599.2612,207.9822 Q599.9087,208.1316 600.4731,208.4305 L600.4731,211.1531 Q599.8423,210.5721 599.2488,210.3023 Q598.6553,210.0325 598.0244,210.0325 Q596.6797,210.0325 595.9949,211.0992 Q595.3101,212.1658 595.3101,214.2659 Q595.3101,216.3577 595.9949,217.4244 Q596.6797,218.491 598.0244,218.491 Q598.6553,218.491 599.2488,218.2212 Q599.8423,217.9515 600.4731,217.3704 Z " fill="#000000"/><text fill="#000000" font-family="sans-serif" font-size="14" lengthAdjust="spacing" textLength="108" x="612" y="219.241">Engine_runtime</text><line style="stroke:#181818;stroke-width:0.5;" x1="584" x2="722" y1="229.95" y2="229.95"/><line style="stroke:#181818;stroke-width:0.5;" x1="584" x2="722" y1="237.95" y2="237.95"/><ellipse cx="594" cy="251.6941" fill="#84BE84" rx="3" ry="3" style="stroke:#038048;stroke-width:1.0;"/><text fill="#000000" font-family="sans-serif" font-size="14" lengthAdjust="spacing" textLength="34" x="603" y="255.4852">tick()</text></g><!--class RHI_imgui--><g id="elem_RHI_imgui"><rect codeLine="35" fill="#F1F1F1" height="48" id="RHI_imgui" rx="2.5" ry="2.5" style="stroke:#181818;stroke-width:0.5;" width="101" x="742.5" y="355.93"/><ellipse cx="757.5" cy="371.93" fill="#B4A7E5" rx="11" ry="11" style="stroke:#181818;stroke-width:1.0;"/><path d="M753.9277,368.1951 L753.9277,366.0369 L761.3071,366.0369 L761.3071,368.1951 L758.8418,368.1951 L758.8418,376.2718 L761.3071,376.2718 L761.3071,378.43 L753.9277,378.43 L753.9277,376.2718 L756.3931,376.2718 L756.3931,368.1951 Z " fill="#000000"/><text fill="#000000" font-family="sans-serif" font-size="14" font-style="italic" lengthAdjust="spacing" textLength="69" x="771.5" y="377.221">RHI_imgui</text><line style="stroke:#181818;stroke-width:0.5;" x1="743.5" x2="842.5" y1="387.93" y2="387.93"/><line style="stroke:#181818;stroke-width:0.5;" x1="743.5" x2="842.5" y1="395.93" y2="395.93"/></g><!--class Shadow_settings--><g id="elem_Shadow_settings"><rect codeLine="40" fill="#F1F1F1" height="48" id="Shadow_settings" rx="2.5" ry="2.5" style="stroke:#181818;stroke-width:0.5;" width="147" x="29.5" y="480.93"/><ellipse cx="44.5" cy="496.93" fill="#ADD1B2" rx="11" ry="11" style="stroke:#181818;stroke-width:1.0;"/><path d="M46.9731,503.0731 Q46.3921,503.3719 45.7529,503.5213 Q45.1138,503.6707 44.4082,503.6707 Q41.9014,503.6707 40.5815,502.0189 Q39.2617,500.367 39.2617,497.2459 Q39.2617,494.1165 40.5815,492.4647 Q41.9014,490.8128 44.4082,490.8128 Q45.1138,490.8128 45.7612,490.9622 Q46.4087,491.1116 46.9731,491.4105 L46.9731,494.1331 Q46.3423,493.5521 45.7488,493.2823 Q45.1553,493.0125 44.5244,493.0125 Q43.1797,493.0125 42.4949,494.0792 Q41.8101,495.1458 41.8101,497.2459 Q41.8101,499.3377 42.4949,500.4044 Q43.1797,501.471 44.5244,501.471 Q45.1553,501.471 45.7488,501.2012 Q46.3423,500.9315 46.9731,500.3504 Z " fill="#000000"/><text fill="#000000" font-family="sans-serif" font-size="14" lengthAdjust="spacing" textLength="115" x="58.5" y="502.221">Shadow_settings</text><line style="stroke:#181818;stroke-width:0.5;" x1="30.5" x2="175.5" y1="512.93" y2="512.93"/><line style="stroke:#181818;stroke-width:0.5;" x1="30.5" x2="175.5" y1="520.93" y2="520.93"/></g><!--class Phong_material_settings--><g id="elem_Phong_material_settings"><rect codeLine="41" fill="#F1F1F1" height="48" id="Phong_material_settings" rx="2.5" ry="2.5" style="stroke:#181818;stroke-width:0.5;" width="200" x="257" y="480.93"/><ellipse cx="272" cy="496.93" fill="#ADD1B2" rx="11" ry="11" style="stroke:#181818;stroke-width:1.0;"/><path d="M274.4731,503.0731 Q273.8921,503.3719 273.2529,503.5213 Q272.6138,503.6707 271.9082,503.6707 Q269.4014,503.6707 268.0815,502.0189 Q266.7617,500.367 266.7617,497.2459 Q266.7617,494.1165 268.0815,492.4647 Q269.4014,490.8128 271.9082,490.8128 Q272.6138,490.8128 273.2612,490.9622 Q273.9087,491.1116 274.4731,491.4105 L274.4731,494.1331 Q273.8423,493.5521 273.2488,493.2823 Q272.6553,493.0125 272.0244,493.0125 Q270.6797,493.0125 269.9949,494.0792 Q269.3101,495.1458 269.3101,497.2459 Q269.3101,499.3377 269.9949,500.4044 Q270.6797,501.471 272.0244,501.471 Q272.6553,501.471 273.2488,501.2012 Q273.8423,500.9315 274.4731,500.3504 Z " fill="#000000"/><text fill="#000000" font-family="sans-serif" font-size="14" lengthAdjust="spacing" textLength="168" x="286" y="502.221">Phong_material_settings</text><line style="stroke:#181818;stroke-width:0.5;" x1="258" x2="456" y1="512.93" y2="512.93"/><line style="stroke:#181818;stroke-width:0.5;" x1="258" x2="456" y1="520.93" y2="520.93"/></g><!--class Parallax_settings--><g id="elem_Parallax_settings"><rect codeLine="42" fill="#F1F1F1" height="48" id="Parallax_settings" rx="2.5" ry="2.5" style="stroke:#181818;stroke-width:0.5;" width="148" x="537" y="480.93"/><ellipse cx="552" cy="496.93" fill="#ADD1B2" rx="11" ry="11" style="stroke:#181818;stroke-width:1.0;"/><path d="M554.4731,503.0731 Q553.8921,503.3719 553.2529,503.5213 Q552.6138,503.6707 551.9082,503.6707 Q549.4014,503.6707 548.0815,502.0189 Q546.7617,500.367 546.7617,497.2459 Q546.7617,494.1165 548.0815,492.4647 Q549.4014,490.8128 551.9082,490.8128 Q552.6138,490.8128 553.2612,490.9622 Q553.9087,491.1116 554.4731,491.4105 L554.4731,494.1331 Q553.8423,493.5521 553.2488,493.2823 Q552.6553,493.0125 552.0244,493.0125 Q550.6797,493.0125 549.9949,494.0792 Q549.3101,495.1458 549.3101,497.2459 Q549.3101,499.3377 549.9949,500.4044 Q550.6797,501.471 552.0244,501.471 Q552.6553,501.471 553.2488,501.2012 Q553.8423,500.9315 554.4731,500.3504 Z " fill="#000000"/><text fill="#000000" font-family="sans-serif" font-size="14" lengthAdjust="spacing" textLength="116" x="566" y="502.221">Parallax_settings</text><line style="stroke:#181818;stroke-width:0.5;" x1="538" x2="684" y1="512.93" y2="512.93"/><line style="stroke:#181818;stroke-width:0.5;" x1="538" x2="684" y1="520.93" y2="520.93"/></g><!--reverse link Panel to Shadow_settings_panel--><g id="link_Panel_Shadow_settings_panel"><path d="M339.1341,278.977 C275.6841,305.837 211.41,333.04 158.47,355.45 " fill="none" id="Panel-backto-Shadow_settings_panel" style="stroke:#181818;stroke-width:1.0;"/><polygon fill="none" points="355.71,271.96,336.7951,273.4517,341.4731,284.5023,355.71,271.96" style="stroke:#181818;stroke-width:1.0;"/></g><!--reverse link Panel to Phong_material_settings_panel--><g id="link_Panel_Phong_material_settings_panel"><path d="M411.4237,294.2995 C394.9537,319.9095 385.16,335.14 372.01,355.59 " fill="none" id="Panel-backto-Phong_material_settings_panel" style="stroke:#181818;stroke-width:1.0;"/><polygon fill="none" points="421.16,279.16,406.3772,291.054,416.4702,297.5449,421.16,279.16" style="stroke:#181818;stroke-width:1.0;"/></g><!--reverse link Panel to Parallax_settings_panel--><g id="link_Panel_Parallax_settings_panel"><path d="M516.8081,291.4105 C544.3781,317.0205 563.87,335.14 585.88,355.59 " fill="none" id="Panel-backto-Parallax_settings_panel" style="stroke:#181818;stroke-width:1.0;"/><polygon fill="none" points="503.62,279.16,512.7246,295.8065,520.8916,287.0145,503.62,279.16" style="stroke:#181818;stroke-width:1.0;"/></g><!--reverse link Editor to Panel--><g id="link_Editor_Panel"><path codeLine="47" d="M587.9031,112.5844 C560.1431,136.4044 535.81,157.29 508.04,181.12 " fill="none" id="Editor-backto-Panel" style="stroke:#181818;stroke-width:1.0;"/><polygon fill="#181818" points="597.01,104.77,589.8518,105.6415,587.9031,112.5844,595.0613,111.7128,597.01,104.77" style="stroke:#181818;stroke-width:1.0;"/><polygon fill="#000000" points="559.7356,146.3815,568.5136,142.7212,564.6858,138.2607,559.7356,146.3815" style="stroke:#000000;stroke-width:1.0;"/><text fill="#000000" font-family="sans-serif" font-size="13" lengthAdjust="spacing" textLength="56" x="572.53" y="148.0384">manages</text><text fill="#000000" font-family="sans-serif" font-size="13" lengthAdjust="spacing" textLength="8" x="580.9488" y="124.9565">1</text><text fill="#000000" font-family="sans-serif" font-size="13" lengthAdjust="spacing" textLength="22" x="492.3738" y="170.7533">0..*</text></g><!--link Editor to Engine_runtime--><g id="link_Editor_Engine_runtime"><path codeLine="48" d="M653,104.77 C653,134.38 653,165.5 653,191.46 " fill="none" id="Editor-to-Engine_runtime" style="stroke:#181818;stroke-width:1.0;"/><polygon fill="#181818" points="653,197.46,657,188.46,653,192.46,649,188.46,653,197.46" style="stroke:#181818;stroke-width:1.0;"/><polygon fill="#000000" points="658,148.1253,660.9389,139.0802,655.0611,139.0802,658,148.1253" style="stroke:#000000;stroke-width:1.0;"/><text fill="#000000" font-family="sans-serif" font-size="13" lengthAdjust="spacing" textLength="29" x="667" y="148.0384">uses</text><text fill="#000000" font-family="sans-serif" font-size="13" lengthAdjust="spacing" textLength="8" x="644.4625" y="124.9565">1</text><text fill="#000000" font-family="sans-serif" font-size="13" lengthAdjust="spacing" textLength="8" x="644.2125" y="187.1378">1</text></g><!--link Editor to RHI_imgui--><g id="link_Editor_RHI_imgui"><path codeLine="49" d="M692.33,104.69 C708.98,126.94 727.41,154.42 740,181.47 C767.71,241 782.0545,311.6932 788.4345,349.6132 " fill="none" id="Editor-to-RHI_imgui" style="stroke:#181818;stroke-width:1.0;"/><polygon fill="#181818" points="789.43,355.53,791.8813,345.9911,788.6004,350.5993,783.9922,347.3184,789.43,355.53" style="stroke:#181818;stroke-width:1.0;"/><polygon fill="#000000" points="779.8964,235.0098,779.3283,225.5162,773.8566,227.6632,779.8964,235.0098" style="stroke:#000000;stroke-width:1.0;"/><text fill="#000000" font-family="sans-serif" font-size="13" lengthAdjust="spacing" textLength="155" x="787.07" y="235.2684">uses for main UI context</text><text fill="#000000" font-family="sans-serif" font-size="13" lengthAdjust="spacing" textLength="8" x="689.0775" y="124.8657">1</text><text fill="#000000" font-family="sans-serif" font-size="13" lengthAdjust="spacing" textLength="8" x="779.5848" y="345.3606">1</text></g><!--link Panel to RHI_imgui--><g id="link_Panel_RHI_imgui"><path codeLine="55" d="M548.35,272.94 C611.37,300.24 685.6743,332.4353 736.6743,354.5253 " fill="none" id="Panel-to-RHI_imgui" style="stroke:#181818;stroke-width:1.0;stroke-dasharray:7.0,7.0;"/><polygon fill="#181818" points="742.18,356.91,735.5112,349.6624,737.5919,354.9227,732.3316,357.0034,742.18,356.91" style="stroke:#181818;stroke-width:1.0;"/><polygon fill="#000000" points="672.658,319.5729,665.5265,313.2805,663.19,318.674,672.658,319.5729" style="stroke:#000000;stroke-width:1.0;"/><text fill="#000000" font-family="sans-serif" font-size="13" lengthAdjust="spacing" textLength="29" x="677.07" y="322.4984">uses</text></g><!--reverse link Shadow_settings_panel to Shadow_settings--><g id="link_Shadow_settings_panel_Shadow_settings"><path codeLine="58" d="M103,416.35 C103,438.24 103,458.73 103,480.59 " fill="none" id="Shadow_settings_panel-backto-Shadow_settings" style="stroke:#181818;stroke-width:1.0;"/><polygon fill="none" points="103,404.35,99,410.35,103,416.35,107,410.35,103,404.35" style="stroke:#181818;stroke-width:1.0;"/><polygon fill="#000000" points="108,447.5853,110.9389,438.5402,105.0611,438.5402,108,447.5853" style="stroke:#000000;stroke-width:1.0;"/><text fill="#000000" font-family="sans-serif" font-size="13" lengthAdjust="spacing" textLength="77" x="117" y="447.4984">manipulates</text><text fill="#000000" font-family="sans-serif" font-size="13" lengthAdjust="spacing" textLength="8" x="94.075" y="424.3358">1</text><text fill="#000000" font-family="sans-serif" font-size="13" lengthAdjust="spacing" textLength="8" x="93.975" y="470.0391">1</text></g><!--reverse link Phong_material_settings_panel to Phong_material_settings--><g id="link_Phong_material_settings_panel_Phong_material_settings"><path codeLine="59" d="M357,416.35 C357,438.24 357,458.73 357,480.59 " fill="none" id="Phong_material_settings_panel-backto-Phong_material_settings" style="stroke:#181818;stroke-width:1.0;"/><polygon fill="none" points="357,404.35,353,410.35,357,416.35,361,410.35,357,404.35" style="stroke:#181818;stroke-width:1.0;"/><polygon fill="#000000" points="362,447.5853,364.9389,438.5402,359.0611,438.5402,362,447.5853" style="stroke:#000000;stroke-width:1.0;"/><text fill="#000000" font-family="sans-serif" font-size="13" lengthAdjust="spacing" textLength="77" x="371" y="447.4984">manipulates</text><text fill="#000000" font-family="sans-serif" font-size="13" lengthAdjust="spacing" textLength="8" x="348.075" y="424.3358">1</text><text fill="#000000" font-family="sans-serif" font-size="13" lengthAdjust="spacing" textLength="8" x="347.975" y="470.0391">1</text></g><!--reverse link Parallax_settings_panel to Parallax_settings--><g id="link_Parallax_settings_panel_Parallax_settings"><path codeLine="60" d="M611,416.35 C611,438.24 611,458.73 611,480.59 " fill="none" id="Parallax_settings_panel-backto-Parallax_settings" style="stroke:#181818;stroke-width:1.0;"/><polygon fill="none" points="611,404.35,607,410.35,611,416.35,615,410.35,611,404.35" style="stroke:#181818;stroke-width:1.0;"/><polygon fill="#000000" points="616,447.5853,618.9389,438.5402,613.0611,438.5402,616,447.5853" style="stroke:#000000;stroke-width:1.0;"/><text fill="#000000" font-family="sans-serif" font-size="13" lengthAdjust="spacing" textLength="77" x="625" y="447.4984">manipulates</text><text fill="#000000" font-family="sans-serif" font-size="13" lengthAdjust="spacing" textLength="8" x="602.075" y="424.3358">1</text><text fill="#000000" font-family="sans-serif" font-size="13" lengthAdjust="spacing" textLength="8" x="601.975" y="470.0391">1</text></g><!--SRC=[bLDDQzj04BthLmpgmOvRc_QQWw4aeV6XfCIqLpDQZQLfLYknkyOsnl-z-rLLaUj03c85C_FUs_TcpGkh3ZKs82GQyzLQpSNEqagqwXSRBYJ15gMXB9l0NQi9xdmVcIpqmqF9jjLmoW0-WjwfwKtumxBSTAX8JXKsz0d2VonLP0Ubc-oSPLWOgr7Og05- -6g23F_JvyVLXfjgnpC8HqJIf4hIWV43dFw2dA7Kk4yK0JueLqAJfOJzSC2ca_qbrZMMxNvZo5fMbOcpG0Vh28Po9l0T5NSxYPOkfZnJqb-tgjeqhaapolV2NfaUmBkufCJ3ku77Snvo0a-s9XsZNH-DfMQSiAfOqSPbQxcX58jbyHBDPUM4Rb4Gz24bxbLVsReDMJNVN2L6viWZzpefWNkq24_5RnBsIYXmEhzjxw1XV55VScpFv8pWLfcQEmEFNDNIVRu3xibmfNnJNEY90U4TqMGwDy05IxRiF4dxdd_9OJQVG_vviPZboV9RQ51XvQnU3llcysKuHqRUmivSQ_rdPUho3ZR82dwkd31dxC6wIIStC3kr8VoaymYeIYYfysOhuMNxD5pCR56vF51gml88fcxt2eeZv6btyXxIf7berK2Db-7MXNLuOzuuWHtsvaGR5elbvGMMhrvX5ocYNM0w4hnb0NrUfLk7xF-lqjlJUkVTELwH442_xylixOSuHBgsKnU8LzxUAwoBzHkZ_040]--></g></svg>