<?xml version="1.0" encoding="us-ascii" standalone="no"?><svg xmlns="http://www.w3.org/2000/svg" xmlns:xlink="http://www.w3.org/1999/xlink" contentStyleType="text/css" height="1070px" preserveAspectRatio="none" style="width:1392px;height:1070px;background:#FFFFFF;" version="1.1" viewBox="0 0 1392 1070" width="1392px" zoomAndPan="magnify"><defs/><g><!--class Editor--><g id="elem_Editor"><rect codeLine="6" fill="#F1F1F1" height="418.2904" id="Editor" rx="2.5" ry="2.5" style="stroke:#181818;stroke-width:0.5;" width="539" x="685" y="7"/><ellipse cx="930.25" cy="23" fill="#ADD1B2" rx="11" ry="11" style="stroke:#181818;stroke-width:1.0;"/><path d="M930.3594,18.5313 Q929.4375,18.5313 928.7031,18.8438 Q927.9844,19.1563 927.4844,19.75 Q926.9844,20.3281 926.7031,21.2031 Q926.4375,22.0781 926.4375,23.1719 Q926.4375,24.6094 926.875,25.6563 Q927.3281,26.7031 928.1719,27.25 Q929.0313,27.7969 930.3438,27.7969 Q931.125,27.7969 931.8125,27.6719 Q932.5156,27.5313 933.5156,27.2188 L933.5156,29.0938 Q932.6563,29.4219 931.8906,29.5469 Q931.1406,29.6719 930.125,29.6719 Q928.2031,29.6719 926.8906,28.875 Q925.5938,28.0625 924.9375,26.5938 Q924.2813,25.1094 924.2813,23.1406 Q924.2813,21.7188 924.6719,20.5469 Q925.0781,19.3594 925.8594,18.4844 Q926.6406,17.6094 927.7813,17.1406 Q928.9219,16.6563 930.3906,16.6563 Q931.3438,16.6563 932.2344,16.8594 Q933.1406,17.0469 934.0781,17.5156 L933.25,19.2969 Q932.4688,18.9219 931.8125,18.7344 Q931.1563,18.5313 930.3594,18.5313 Z " fill="#000000"/><text fill="#000000" font-family="sans-serif" font-size="14" lengthAdjust="spacing" textLength="40" x="950.75" y="28.432">Editor</text><line style="stroke:#181818;stroke-width:0.5;" x1="686" x2="1223" y1="39" y2="39"/><rect fill="none" height="6" style="stroke:#C82930;stroke-width:1.0;" width="6" x="693" y="74.1019"/><text fill="#000000" font-family="sans-serif" font-size="14" lengthAdjust="spacing" textLength="482" x="705" y="81.0339">std::unordered_map&lt;std::string, std::shared_ptr&lt;Panel&gt;&gt; m_panel_map</text><rect fill="none" height="6" style="stroke:#C82930;stroke-width:1.0;" width="6" x="693" y="93.1698"/><text fill="#000000" font-family="sans-serif" font-size="14" lengthAdjust="spacing" textLength="245" x="705" y="100.1018">Engine_runtime* m_engine_runtime</text><rect fill="none" height="6" style="stroke:#C82930;stroke-width:1.0;" width="6" x="693" y="112.2377"/><text fill="#000000" font-family="sans-serif" font-size="14" lengthAdjust="spacing" textLength="139" x="705" y="119.1697">RHI_imgui* m_imgui</text><text fill="#000000" font-family="sans-serif" font-size="14" lengthAdjust="spacing" textLength="4" x="705" y="138.2376">&#160;</text><line style="stroke:#181818;stroke-width:1.0;" x1="686" x2="921" y1="56.534" y2="56.534"/><text fill="#000000" font-family="sans-serif" font-size="14" lengthAdjust="spacing" textLength="67" x="921" y="61.4659">Attributes</text><line style="stroke:#181818;stroke-width:1.0;" x1="988" x2="1223" y1="56.534" y2="56.534"/><ellipse cx="696" cy="176.4415" fill="#84BE84" rx="3" ry="3" style="stroke:#038048;stroke-width:1.0;"/><text fill="#000000" font-family="sans-serif" font-size="14" lengthAdjust="spacing" textLength="349" x="705" y="180.3734">Editor(Engine_runtime* runtime, RHI_imgui* imgui)</text><text fill="#000000" font-family="sans-serif" font-size="14" lengthAdjust="spacing" textLength="4" x="705" y="199.4414">&#160;</text><line style="stroke:#181818;stroke-width:1.0;" x1="686" x2="915" y1="155.8735" y2="155.8735"/><text fill="#000000" font-family="sans-serif" font-size="14" lengthAdjust="spacing" textLength="79" x="915" y="160.8055">Constructor</text><line style="stroke:#181818;stroke-width:1.0;" x1="994" x2="1223" y1="155.8735" y2="155.8735"/><ellipse cx="696" cy="237.6452" fill="#84BE84" rx="3" ry="3" style="stroke:#038048;stroke-width:1.0;"/><text fill="#000000" font-family="sans-serif" font-size="14" lengthAdjust="spacing" textLength="64" x="705" y="241.5772">void run()</text><rect fill="#F24D5C" height="6" style="stroke:#C82930;stroke-width:1.0;" width="6" x="693" y="253.7131"/><text fill="#000000" font-family="sans-serif" font-size="14" lengthAdjust="spacing" textLength="63" x="705" y="260.6451">void tick()</text><rect fill="#F24D5C" height="6" style="stroke:#C82930;stroke-width:1.0;" width="6" x="693" y="272.781"/><text fill="#000000" font-family="sans-serif" font-size="14" lengthAdjust="spacing" textLength="123" x="705" y="279.713">void runtime_tick()</text><rect fill="#F24D5C" height="6" style="stroke:#C82930;stroke-width:1.0;" width="6" x="693" y="291.849"/><text fill="#000000" font-family="sans-serif" font-size="14" lengthAdjust="spacing" textLength="109" x="705" y="298.7809">void editor_tick()</text><ellipse cx="696" cy="313.9169" fill="#84BE84" rx="3" ry="3" style="stroke:#038048;stroke-width:1.0;"/><text fill="#000000" font-family="sans-serif" font-size="14" lengthAdjust="spacing" textLength="476" x="705" y="317.8489">void add_panel(const std::string&amp; name, std::shared_ptr&lt;Panel&gt; panel)</text><ellipse cx="696" cy="332.9848" fill="#84BE84" rx="3" ry="3" style="stroke:#038048;stroke-width:1.0;"/><text fill="#000000" font-family="sans-serif" font-size="14" lengthAdjust="spacing" textLength="394" x="705" y="336.9168">std::shared_ptr&lt;Panel&gt; get_panel(const std::string&amp; name)</text><ellipse cx="696" cy="352.0527" fill="#84BE84" rx="3" ry="3" style="stroke:#038048;stroke-width:1.0;"/><text fill="#000000" font-family="sans-serif" font-size="14" lengthAdjust="spacing" textLength="295" x="705" y="355.9847">void remove_panel(const std::string&amp; name)</text><text fill="#000000" font-family="sans-serif" font-size="14" lengthAdjust="spacing" textLength="4" x="705" y="375.0526">&#160;</text><line style="stroke:#181818;stroke-width:1.0;" x1="686" x2="925" y1="217.0773" y2="217.0773"/><text fill="#000000" font-family="sans-serif" font-size="14" lengthAdjust="spacing" textLength="59" x="925" y="222.0093">Methods</text><line style="stroke:#181818;stroke-width:1.0;" x1="984" x2="1223" y1="217.0773" y2="217.0773"/><ellipse cx="696" cy="413.2565" fill="#84BE84" rx="3" ry="3" style="stroke:#038048;stroke-width:1.0;"/><text fill="#000000" font-family="sans-serif" font-size="14" lengthAdjust="spacing" text-decoration="underline" textLength="513" x="705" y="417.1884">std::shared_ptr&lt;Editor&gt; create(Engine_runtime* runtime, RHI_imgui* imgui)</text><line style="stroke:#181818;stroke-width:1.0;" x1="686" x2="882" y1="392.6885" y2="392.6885"/><text fill="#000000" font-family="sans-serif" font-size="14" lengthAdjust="spacing" textLength="145" x="882" y="397.6205">Static Factory Method</text><line style="stroke:#181818;stroke-width:1.0;" x1="1027" x2="1223" y1="392.6885" y2="392.6885"/></g><!--class Panel--><g id="elem_Panel"><rect codeLine="28" fill="#F1F1F1" height="322.9508" id="Panel" rx="2.5" ry="2.5" style="stroke:#181818;stroke-width:0.5;" width="656" x="23.5" y="504.29"/><ellipse cx="329.75" cy="520.29" fill="#A9DCDF" rx="11" ry="11" style="stroke:#181818;stroke-width:1.0;"/><path d="M333.0938,525.54 L331.625,521.79 L327.1875,521.79 L325.75,525.54 L323.625,525.54 L328.5781,512.8213 L330.3281,512.8213 L335.25,525.54 L333.0938,525.54 Z M329.75,516.5869 Q329.7031,516.4306 329.5781,516.0713 Q329.4531,515.7119 329.3438,515.3369 Q329.2344,514.9463 329.4375,514.8838 Q329.5938,515.0713 329.5,515.4306 Q329.4063,515.7744 329.3125,516.0713 Q329.2188,516.3525 329.1406,516.5869 L327.9063,519.8994 L330.9844,519.8994 L329.75,516.5869 Z " fill="#000000"/><text fill="#000000" font-family="sans-serif" font-size="14" font-style="italic" lengthAdjust="spacing" textLength="35" x="350.25" y="525.722">Panel</text><line style="stroke:#181818;stroke-width:0.5;" x1="24.5" x2="678.5" y1="536.29" y2="536.29"/><polygon fill="none" points="34.5,569.3919,38.5,573.3919,34.5,577.3919,30.5,573.3919" style="stroke:#B38D22;stroke-width:1.0;"/><text fill="#000000" font-family="sans-serif" font-size="14" lengthAdjust="spacing" textLength="406" x="43.5" y="578.3239">RHI_imgui* m_imgui ' Injected dependency for UI rendering</text><text fill="#000000" font-family="sans-serif" font-size="14" lengthAdjust="spacing" textLength="4" x="43.5" y="597.3918">&#160;</text><line style="stroke:#181818;stroke-width:1.0;" x1="24.5" x2="318" y1="553.824" y2="553.824"/><text fill="#000000" font-family="sans-serif" font-size="14" lengthAdjust="spacing" textLength="67" x="318" y="558.7559">Attributes</text><line style="stroke:#181818;stroke-width:1.0;" x1="385" x2="678.5" y1="553.824" y2="553.824"/><ellipse cx="34.5" cy="635.5956" fill="#84BE84" rx="3" ry="3" style="stroke:#038048;stroke-width:1.0;"/><text fill="#000000" font-family="sans-serif" font-size="14" lengthAdjust="spacing" textLength="165" x="43.5" y="639.5276">Panel(RHI_imgui* imgui)</text><text fill="#000000" font-family="sans-serif" font-size="14" lengthAdjust="spacing" textLength="4" x="43.5" y="658.5955">&#160;</text><line style="stroke:#181818;stroke-width:1.0;" x1="24.5" x2="312" y1="615.0277" y2="615.0277"/><text fill="#000000" font-family="sans-serif" font-size="14" lengthAdjust="spacing" textLength="79" x="312" y="619.9597">Constructor</text><line style="stroke:#181818;stroke-width:1.0;" x1="391" x2="678.5" y1="615.0277" y2="615.0277"/><ellipse cx="34.5" cy="696.7994" fill="#84BE84" rx="3" ry="3" style="stroke:#038048;stroke-width:1.0;"/><text fill="#000000" font-family="sans-serif" font-size="14" lengthAdjust="spacing" textLength="554" x="43.5" y="700.7314">void render() ' Defines the rendering loop (begin_render, draw_panel, end_render)</text><polygon fill="#FFFF44" points="34.5,710.8673,38.5,714.8673,34.5,718.8673,30.5,714.8673" style="stroke:#B38D22;stroke-width:1.0;"/><text fill="#000000" font-family="sans-serif" font-size="14" lengthAdjust="spacing" textLength="630" x="43.5" y="719.7993">virtual void draw_panel() = 0 ' Implemented by derived classes to provide specific UI elements</text><polygon fill="#FFFF44" points="34.5,729.9352,38.5,733.9352,34.5,737.9352,30.5,733.9352" style="stroke:#B38D22;stroke-width:1.0;"/><text fill="#000000" font-family="sans-serif" font-size="14" lengthAdjust="spacing" textLength="337" x="43.5" y="738.8672">void begin_render() ' Part of render() internal logic</text><polygon fill="#FFFF44" points="34.5,749.0031,38.5,753.0031,34.5,757.0031,30.5,753.0031" style="stroke:#B38D22;stroke-width:1.0;"/><text fill="#000000" font-family="sans-serif" font-size="14" lengthAdjust="spacing" textLength="324" x="43.5" y="757.9351">void end_render() ' Part of render() internal logic</text><text fill="#000000" font-family="sans-serif" font-size="14" lengthAdjust="spacing" textLength="4" x="43.5" y="777.003">&#160;</text><line style="stroke:#181818;stroke-width:1.0;" x1="24.5" x2="230" y1="676.2315" y2="676.2315"/><text fill="#000000" font-family="sans-serif" font-size="14" lengthAdjust="spacing" textLength="243" x="230" y="681.1634">Methods (Template Method Pattern)</text><line style="stroke:#181818;stroke-width:1.0;" x1="473" x2="678.5" y1="676.2315" y2="676.2315"/><ellipse cx="34.5" cy="815.2069" fill="#84BE84" rx="3" ry="3" style="stroke:#038048;stroke-width:1.0;"/><text fill="#000000" font-family="sans-serif" font-size="14" lengthAdjust="spacing" text-decoration="underline" textLength="406" x="43.5" y="819.1389">std::shared_ptr&lt;Panel&gt; create(...) ' Generic factory for panels</text><line style="stroke:#181818;stroke-width:1.0;" x1="24.5" x2="279" y1="794.639" y2="794.639"/><text fill="#000000" font-family="sans-serif" font-size="14" lengthAdjust="spacing" textLength="145" x="279" y="799.5709">Static Factory Method</text><line style="stroke:#181818;stroke-width:1.0;" x1="424" x2="678.5" y1="794.639" y2="794.639"/></g><!--class Shadow_settings_panel--><g id="elem_Shadow_settings_panel"><rect codeLine="46" fill="#F1F1F1" height="48" id="Shadow_settings_panel" rx="2.5" ry="2.5" style="stroke:#181818;stroke-width:0.5;" width="189" x="7" y="888.24"/><ellipse cx="22" cy="904.24" fill="#ADD1B2" rx="11" ry="11" style="stroke:#181818;stroke-width:1.0;"/><path d="M22.1094,899.7713 Q21.1875,899.7713 20.4531,900.0838 Q19.7344,900.3963 19.2344,900.99 Q18.7344,901.5681 18.4531,902.4431 Q18.1875,903.3181 18.1875,904.4119 Q18.1875,905.8494 18.625,906.8963 Q19.0781,907.9431 19.9219,908.49 Q20.7813,909.0369 22.0938,909.0369 Q22.875,909.0369 23.5625,908.9119 Q24.2656,908.7713 25.2656,908.4588 L25.2656,910.3338 Q24.4063,910.6619 23.6406,910.7869 Q22.8906,910.9119 21.875,910.9119 Q19.9531,910.9119 18.6406,910.115 Q17.3438,909.3025 16.6875,907.8338 Q16.0313,906.3494 16.0313,904.3806 Q16.0313,902.9588 16.4219,901.7869 Q16.8281,900.5994 17.6094,899.7244 Q18.3906,898.8494 19.5313,898.3806 Q20.6719,897.8963 22.1406,897.8963 Q23.0938,897.8963 23.9844,898.0994 Q24.8906,898.2869 25.8281,898.7556 L25,900.5369 Q24.2188,900.1619 23.5625,899.9744 Q22.9063,899.7713 22.1094,899.7713 Z " fill="#000000"/><text fill="#000000" font-family="sans-serif" font-size="14" lengthAdjust="spacing" textLength="157" x="36" y="909.672">Shadow_settings_panel</text><line style="stroke:#181818;stroke-width:0.5;" x1="8" x2="195" y1="920.24" y2="920.24"/><line style="stroke:#181818;stroke-width:0.5;" x1="8" x2="195" y1="928.24" y2="928.24"/></g><!--class Phong_material_settings_panel--><g id="elem_Phong_material_settings_panel"><rect codeLine="50" fill="#F1F1F1" height="48" id="Phong_material_settings_panel" rx="2.5" ry="2.5" style="stroke:#181818;stroke-width:0.5;" width="241" x="231" y="888.24"/><ellipse cx="246" cy="904.24" fill="#ADD1B2" rx="11" ry="11" style="stroke:#181818;stroke-width:1.0;"/><path d="M246.1094,899.7713 Q245.1875,899.7713 244.4531,900.0838 Q243.7344,900.3963 243.2344,900.99 Q242.7344,901.5681 242.4531,902.4431 Q242.1875,903.3181 242.1875,904.4119 Q242.1875,905.8494 242.625,906.8963 Q243.0781,907.9431 243.9219,908.49 Q244.7813,909.0369 246.0938,909.0369 Q246.875,909.0369 247.5625,908.9119 Q248.2656,908.7713 249.2656,908.4588 L249.2656,910.3338 Q248.4063,910.6619 247.6406,910.7869 Q246.8906,910.9119 245.875,910.9119 Q243.9531,910.9119 242.6406,910.115 Q241.3438,909.3025 240.6875,907.8338 Q240.0313,906.3494 240.0313,904.3806 Q240.0313,902.9588 240.4219,901.7869 Q240.8281,900.5994 241.6094,899.7244 Q242.3906,898.8494 243.5313,898.3806 Q244.6719,897.8963 246.1406,897.8963 Q247.0938,897.8963 247.9844,898.0994 Q248.8906,898.2869 249.8281,898.7556 L249,900.5369 Q248.2188,900.1619 247.5625,899.9744 Q246.9063,899.7713 246.1094,899.7713 Z " fill="#000000"/><text fill="#000000" font-family="sans-serif" font-size="14" lengthAdjust="spacing" textLength="209" x="260" y="909.672">Phong_material_settings_panel</text><line style="stroke:#181818;stroke-width:0.5;" x1="232" x2="471" y1="920.24" y2="920.24"/><line style="stroke:#181818;stroke-width:0.5;" x1="232" x2="471" y1="928.24" y2="928.24"/></g><!--class Parallax_settings_panel--><g id="elem_Parallax_settings_panel"><rect codeLine="54" fill="#F1F1F1" height="48" id="Parallax_settings_panel" rx="2.5" ry="2.5" style="stroke:#181818;stroke-width:0.5;" width="189" x="507" y="888.24"/><ellipse cx="522" cy="904.24" fill="#ADD1B2" rx="11" ry="11" style="stroke:#181818;stroke-width:1.0;"/><path d="M522.1094,899.7713 Q521.1875,899.7713 520.4531,900.0838 Q519.7344,900.3963 519.2344,900.99 Q518.7344,901.5681 518.4531,902.4431 Q518.1875,903.3181 518.1875,904.4119 Q518.1875,905.8494 518.625,906.8963 Q519.0781,907.9431 519.9219,908.49 Q520.7813,909.0369 522.0938,909.0369 Q522.875,909.0369 523.5625,908.9119 Q524.2656,908.7713 525.2656,908.4588 L525.2656,910.3338 Q524.4063,910.6619 523.6406,910.7869 Q522.8906,910.9119 521.875,910.9119 Q519.9531,910.9119 518.6406,910.115 Q517.3438,909.3025 516.6875,907.8338 Q516.0313,906.3494 516.0313,904.3806 Q516.0313,902.9588 516.4219,901.7869 Q516.8281,900.5994 517.6094,899.7244 Q518.3906,898.8494 519.5313,898.3806 Q520.6719,897.8963 522.1406,897.8963 Q523.0938,897.8963 523.9844,898.0994 Q524.8906,898.2869 525.8281,898.7556 L525,900.5369 Q524.2188,900.1619 523.5625,899.9744 Q522.9063,899.7713 522.1094,899.7713 Z " fill="#000000"/><text fill="#000000" font-family="sans-serif" font-size="14" lengthAdjust="spacing" textLength="157" x="536" y="909.672">Parallax_settings_panel</text><line style="stroke:#181818;stroke-width:0.5;" x1="508" x2="695" y1="920.24" y2="920.24"/><line style="stroke:#181818;stroke-width:0.5;" x1="508" x2="695" y1="928.24" y2="928.24"/></g><!--class Engine_runtime--><g id="elem_Engine_runtime"><rect codeLine="59" fill="#F1F1F1" height="82.1358" id="Engine_runtime" rx="2.5" ry="2.5" style="stroke:#181818;stroke-width:0.5;" width="348" x="1037.5" y="624.7"/><ellipse cx="1153.75" cy="640.7" fill="#ADD1B2" rx="11" ry="11" style="stroke:#181818;stroke-width:1.0;"/><path d="M1153.8594,636.2313 Q1152.9375,636.2313 1152.2031,636.5438 Q1151.4844,636.8563 1150.9844,637.45 Q1150.4844,638.0281 1150.2031,638.9031 Q1149.9375,639.7781 1149.9375,640.8719 Q1149.9375,642.3094 1150.375,643.3563 Q1150.8281,644.4031 1151.6719,644.95 Q1152.5313,645.4969 1153.8438,645.4969 Q1154.625,645.4969 1155.3125,645.3719 Q1156.0156,645.2313 1157.0156,644.9188 L1157.0156,646.7938 Q1156.1563,647.1219 1155.3906,647.2469 Q1154.6406,647.3719 1153.625,647.3719 Q1151.7031,647.3719 1150.3906,646.575 Q1149.0938,645.7625 1148.4375,644.2938 Q1147.7813,642.8094 1147.7813,640.8406 Q1147.7813,639.4188 1148.1719,638.2469 Q1148.5781,637.0594 1149.3594,636.1844 Q1150.1406,635.3094 1151.2813,634.8406 Q1152.4219,634.3563 1153.8906,634.3563 Q1154.8438,634.3563 1155.7344,634.5594 Q1156.6406,634.7469 1157.5781,635.2156 L1156.75,636.9969 Q1155.9688,636.6219 1155.3125,636.4344 Q1154.6563,636.2313 1153.8594,636.2313 Z " fill="#000000"/><text fill="#000000" font-family="sans-serif" font-size="14" lengthAdjust="spacing" textLength="107" x="1174.25" y="646.132">Engine_runtime</text><line style="stroke:#181818;stroke-width:0.5;" x1="1038.5" x2="1384.5" y1="656.7" y2="656.7"/><ellipse cx="1048.5" cy="694.8019" fill="#84BE84" rx="3" ry="3" style="stroke:#038048;stroke-width:1.0;"/><text fill="#000000" font-family="sans-serif" font-size="14" lengthAdjust="spacing" textLength="322" x="1057.5" y="698.7339">void tick() ' Updates the underlying engine state</text><line style="stroke:#181818;stroke-width:1.0;" x1="1038.5" x2="1182" y1="674.234" y2="674.234"/><text fill="#000000" font-family="sans-serif" font-size="14" lengthAdjust="spacing" textLength="59" x="1182" y="679.1659">Methods</text><line style="stroke:#181818;stroke-width:1.0;" x1="1241" x2="1384.5" y1="674.234" y2="674.234"/></g><!--class RHI_imgui--><g id="elem_RHI_imgui"><rect codeLine="64" fill="#F1F1F1" height="48" id="RHI_imgui" rx="2.5" ry="2.5" style="stroke:#181818;stroke-width:0.5;" width="97" x="906" y="641.76"/><ellipse cx="921" cy="657.76" fill="#B4A7E5" rx="11" ry="11" style="stroke:#181818;stroke-width:1.0;"/><path d="M923.0938,664.26 L918.1875,664.26 L918.1875,662.885 L919.6094,662.5725 L919.6094,653.2913 L918.1875,652.9475 L918.1875,651.5881 L923.0938,651.5881 L923.0938,652.9475 L921.6719,653.2913 L921.6719,662.5725 L923.0938,662.885 L923.0938,664.26 Z " fill="#000000"/><text fill="#000000" font-family="sans-serif" font-size="14" font-style="italic" lengthAdjust="spacing" textLength="65" x="935" y="663.192">RHI_imgui</text><line style="stroke:#181818;stroke-width:0.5;" x1="907" x2="1002" y1="673.76" y2="673.76"/><line style="stroke:#181818;stroke-width:0.5;" x1="907" x2="1002" y1="681.76" y2="681.76"/></g><!--class Shadow_settings--><g id="elem_Shadow_settings"><rect codeLine="69" fill="#F1F1F1" height="48" id="Shadow_settings" rx="2.5" ry="2.5" style="stroke:#181818;stroke-width:0.5;" width="145" x="29" y="1015.24"/><ellipse cx="44" cy="1031.24" fill="#ADD1B2" rx="11" ry="11" style="stroke:#181818;stroke-width:1.0;"/><path d="M44.1094,1026.7713 Q43.1875,1026.7713 42.4531,1027.0838 Q41.7344,1027.3963 41.2344,1027.99 Q40.7344,1028.5681 40.4531,1029.4431 Q40.1875,1030.3181 40.1875,1031.4119 Q40.1875,1032.8494 40.625,1033.8963 Q41.0781,1034.9431 41.9219,1035.49 Q42.7813,1036.0369 44.0938,1036.0369 Q44.875,1036.0369 45.5625,1035.9119 Q46.2656,1035.7713 47.2656,1035.4588 L47.2656,1037.3338 Q46.4063,1037.6619 45.6406,1037.7869 Q44.8906,1037.9119 43.875,1037.9119 Q41.9531,1037.9119 40.6406,1037.115 Q39.3438,1036.3025 38.6875,1034.8338 Q38.0313,1033.3494 38.0313,1031.3806 Q38.0313,1029.9588 38.4219,1028.7869 Q38.8281,1027.5994 39.6094,1026.7244 Q40.3906,1025.8494 41.5313,1025.3806 Q42.6719,1024.8963 44.1406,1024.8963 Q45.0938,1024.8963 45.9844,1025.0994 Q46.8906,1025.2869 47.8281,1025.7556 L47,1027.5369 Q46.2188,1027.1619 45.5625,1026.9744 Q44.9063,1026.7713 44.1094,1026.7713 Z " fill="#000000"/><text fill="#000000" font-family="sans-serif" font-size="14" lengthAdjust="spacing" textLength="113" x="58" y="1036.672">Shadow_settings</text><line style="stroke:#181818;stroke-width:0.5;" x1="30" x2="173" y1="1047.24" y2="1047.24"/><line style="stroke:#181818;stroke-width:0.5;" x1="30" x2="173" y1="1055.24" y2="1055.24"/></g><!--class Phong_material_settings--><g id="elem_Phong_material_settings"><rect codeLine="73" fill="#F1F1F1" height="48" id="Phong_material_settings" rx="2.5" ry="2.5" style="stroke:#181818;stroke-width:0.5;" width="197" x="253" y="1015.24"/><ellipse cx="268" cy="1031.24" fill="#ADD1B2" rx="11" ry="11" style="stroke:#181818;stroke-width:1.0;"/><path d="M268.1094,1026.7713 Q267.1875,1026.7713 266.4531,1027.0838 Q265.7344,1027.3963 265.2344,1027.99 Q264.7344,1028.5681 264.4531,1029.4431 Q264.1875,1030.3181 264.1875,1031.4119 Q264.1875,1032.8494 264.625,1033.8963 Q265.0781,1034.9431 265.9219,1035.49 Q266.7813,1036.0369 268.0938,1036.0369 Q268.875,1036.0369 269.5625,1035.9119 Q270.2656,1035.7713 271.2656,1035.4588 L271.2656,1037.3338 Q270.4063,1037.6619 269.6406,1037.7869 Q268.8906,1037.9119 267.875,1037.9119 Q265.9531,1037.9119 264.6406,1037.115 Q263.3438,1036.3025 262.6875,1034.8338 Q262.0313,1033.3494 262.0313,1031.3806 Q262.0313,1029.9588 262.4219,1028.7869 Q262.8281,1027.5994 263.6094,1026.7244 Q264.3906,1025.8494 265.5313,1025.3806 Q266.6719,1024.8963 268.1406,1024.8963 Q269.0938,1024.8963 269.9844,1025.0994 Q270.8906,1025.2869 271.8281,1025.7556 L271,1027.5369 Q270.2188,1027.1619 269.5625,1026.9744 Q268.9063,1026.7713 268.1094,1026.7713 Z " fill="#000000"/><text fill="#000000" font-family="sans-serif" font-size="14" lengthAdjust="spacing" textLength="165" x="282" y="1036.672">Phong_material_settings</text><line style="stroke:#181818;stroke-width:0.5;" x1="254" x2="449" y1="1047.24" y2="1047.24"/><line style="stroke:#181818;stroke-width:0.5;" x1="254" x2="449" y1="1055.24" y2="1055.24"/></g><!--class Parallax_settings--><g id="elem_Parallax_settings"><rect codeLine="77" fill="#F1F1F1" height="48" id="Parallax_settings" rx="2.5" ry="2.5" style="stroke:#181818;stroke-width:0.5;" width="145" x="529" y="1015.24"/><ellipse cx="544" cy="1031.24" fill="#ADD1B2" rx="11" ry="11" style="stroke:#181818;stroke-width:1.0;"/><path d="M544.1094,1026.7713 Q543.1875,1026.7713 542.4531,1027.0838 Q541.7344,1027.3963 541.2344,1027.99 Q540.7344,1028.5681 540.4531,1029.4431 Q540.1875,1030.3181 540.1875,1031.4119 Q540.1875,1032.8494 540.625,1033.8963 Q541.0781,1034.9431 541.9219,1035.49 Q542.7813,1036.0369 544.0938,1036.0369 Q544.875,1036.0369 545.5625,1035.9119 Q546.2656,1035.7713 547.2656,1035.4588 L547.2656,1037.3338 Q546.4063,1037.6619 545.6406,1037.7869 Q544.8906,1037.9119 543.875,1037.9119 Q541.9531,1037.9119 540.6406,1037.115 Q539.3438,1036.3025 538.6875,1034.8338 Q538.0313,1033.3494 538.0313,1031.3806 Q538.0313,1029.9588 538.4219,1028.7869 Q538.8281,1027.5994 539.6094,1026.7244 Q540.3906,1025.8494 541.5313,1025.3806 Q542.6719,1024.8963 544.1406,1024.8963 Q545.0938,1024.8963 545.9844,1025.0994 Q546.8906,1025.2869 547.8281,1025.7556 L547,1027.5369 Q546.2188,1027.1619 545.5625,1026.9744 Q544.9063,1026.7713 544.1094,1026.7713 Z " fill="#000000"/><text fill="#000000" font-family="sans-serif" font-size="14" lengthAdjust="spacing" textLength="113" x="558" y="1036.672">Parallax_settings</text><line style="stroke:#181818;stroke-width:0.5;" x1="530" x2="673" y1="1047.24" y2="1047.24"/><line style="stroke:#181818;stroke-width:0.5;" x1="530" x2="673" y1="1055.24" y2="1055.24"/></g><!--reverse link Panel to Shadow_settings_panel--><g id="link_Panel_Shadow_settings_panel"><path d="M161.9916,840.2372 C138.5316,863.9172 130.65,872.67 117.19,887.98 " fill="none" id="Panel-backto-Shadow_settings_panel" style="stroke:#181818;stroke-width:1.0;"/><polygon fill="none" points="174.66,827.45,157.7292,836.0144,166.254,844.46,174.66,827.45" style="stroke:#181818;stroke-width:1.0;"/></g><!--reverse link Panel to Shadow_settings_panel--><g id="link_Panel_Shadow_settings_panel"><path codeLine="89" d="M186.6567,839.8335 C161.6767,863.5135 151.24,872.67 133.39,887.98 " fill="none" id="Panel-backto-Shadow_settings_panel-1" style="stroke:#181818;stroke-width:1.0;"/><polygon fill="none" points="199.72,827.45,182.5289,835.479,190.7845,844.1879,199.72,827.45" style="stroke:#181818;stroke-width:1.0;"/></g><!--reverse link Panel to Phong_material_settings_panel--><g id="link_Panel_Phong_material_settings_panel"><path d="M339.5474,845.4407 C340.3074,869.1207 341.2,872.67 343.4,887.98 " fill="none" id="Panel-backto-Phong_material_settings_panel" style="stroke:#181818;stroke-width:1.0;"/><polygon fill="none" points="338.97,827.45,333.5505,845.6332,345.5443,845.2483,338.97,827.45" style="stroke:#181818;stroke-width:1.0;"/></g><!--reverse link Panel to Phong_material_settings_panel--><g id="link_Panel_Phong_material_settings_panel"><path codeLine="90" d="M363.4526,845.4407 C362.6926,869.1207 361.8,872.67 359.6,887.98 " fill="none" id="Panel-backto-Phong_material_settings_panel-1" style="stroke:#181818;stroke-width:1.0;"/><polygon fill="none" points="364.03,827.45,357.4557,845.2483,369.4495,845.6332,364.03,827.45" style="stroke:#181818;stroke-width:1.0;"/></g><!--reverse link Panel to Parallax_settings_panel--><g id="link_Panel_Parallax_settings_panel"><path d="M516.3433,839.8335 C541.3233,863.5135 551.76,872.67 569.61,887.98 " fill="none" id="Panel-backto-Parallax_settings_panel" style="stroke:#181818;stroke-width:1.0;"/><polygon fill="none" points="503.28,827.45,512.2155,844.1879,520.4711,835.479,503.28,827.45" style="stroke:#181818;stroke-width:1.0;"/></g><!--reverse link Panel to Parallax_settings_panel--><g id="link_Panel_Parallax_settings_panel"><path codeLine="91" d="M541.0084,840.2372 C564.4684,863.9172 572.35,872.67 585.81,887.98 " fill="none" id="Panel-backto-Parallax_settings_panel-1" style="stroke:#181818;stroke-width:1.0;"/><polygon fill="none" points="528.34,827.45,536.746,844.46,545.2708,836.0144,528.34,827.45" style="stroke:#181818;stroke-width:1.0;"/></g><!--reverse link Editor to Panel--><g id="link_Editor_Panel"><path codeLine="84" d="M675.1146,424.5425 C636.0746,453.5225 605.95,475.88 568.13,503.96 " fill="none" id="Editor-backto-Panel" style="stroke:#181818;stroke-width:1.0;"/><polygon fill="#181818" points="684.75,417.39,677.5481,417.7545,675.1146,424.5425,682.3165,424.1781,684.75,417.39" style="stroke:#181818;stroke-width:1.0;"/><text fill="#000000" font-family="sans-serif" font-size="13" lengthAdjust="spacing" textLength="290" x="617.9" y="470.187">manages panels (via shared_ptr) &gt; m_panel_map</text><text fill="#000000" font-family="sans-serif" font-size="13" lengthAdjust="spacing" textLength="7" x="669.6379" y="420.0196">1</text><text fill="#000000" font-family="sans-serif" font-size="13" lengthAdjust="spacing" textLength="20" x="558.1386" y="492.6249">0..*</text></g><!--link Editor to Engine_runtime--><g id="link_Editor_Engine_runtime"><path codeLine="85" d="M1138.59,425.64 C1144.63,435.43 1150.3,445.34 1155.5,455.29 C1184.07,510.02 1198.0635,574.6667 1205.1135,618.3267 " fill="none" id="Editor-to-Engine_runtime" style="stroke:#181818;stroke-width:1.0;"/><polygon fill="#181818" points="1206.07,624.25,1208.5842,614.7274,1205.2729,619.3139,1200.6865,616.0027,1206.07,624.25" style="stroke:#181818;stroke-width:1.0;"/><text fill="#000000" font-family="sans-serif" font-size="13" lengthAdjust="spacing" textLength="213" x="1164.17" y="470.187">wraps runtime &gt; m_engine_runtime</text><text fill="#000000" font-family="sans-serif" font-size="13" lengthAdjust="spacing" textLength="7" x="1138.08" y="447.3839">1</text><text fill="#000000" font-family="sans-serif" font-size="13" lengthAdjust="spacing" textLength="7" x="1197.591" y="612.9213">1</text></g><!--link Editor to RHI_imgui--><g id="link_Editor_RHI_imgui"><path codeLine="86" d="M954.5,425.56 C954.5,511.56 954.5,594.6 954.5,635.58 " fill="none" id="Editor-to-RHI_imgui" style="stroke:#181818;stroke-width:1.0;"/><polygon fill="#181818" points="954.5,641.58,958.5,632.58,954.5,636.58,950.5,632.58,954.5,641.58" style="stroke:#181818;stroke-width:1.0;"/><text fill="#000000" font-family="sans-serif" font-size="13" lengthAdjust="spacing" textLength="191" x="955.5" y="470.187">uses for UI rendering &gt; m_imgui</text><text fill="#000000" font-family="sans-serif" font-size="13" lengthAdjust="spacing" textLength="7" x="947.3742" y="447.301">1</text><text fill="#000000" font-family="sans-serif" font-size="13" lengthAdjust="spacing" textLength="7" x="946.5594" y="629.7891">1</text></g><!--link Panel to RHI_imgui--><g id="link_Panel_RHI_imgui"><path codeLine="94" d="M679.91,665.76 C768.75,665.76 848.45,665.76 899.83,665.76 " fill="none" id="Panel-to-RHI_imgui" style="stroke:#181818;stroke-width:1.0;stroke-dasharray:7.0,7.0;"/><polygon fill="#181818" points="905.83,665.76,896.83,661.76,900.83,665.76,896.83,669.76,905.83,665.76" style="stroke:#181818;stroke-width:1.0;"/><text fill="#000000" font-family="sans-serif" font-size="13" lengthAdjust="spacing" textLength="190" x="697.75" y="658.657">uses ImGui functions &gt; m_imgui</text></g><!--reverse link Shadow_settings_panel to Shadow_settings--><g id="link_Shadow_settings_panel_Shadow_settings"><path codeLine="96" d="M101.5,948.46 C101.5,970.91 101.5,992.74 101.5,1015.15 " fill="none" id="Shadow_settings_panel-backto-Shadow_settings" style="stroke:#181818;stroke-width:1.0;"/><polygon fill="none" points="101.5,936.46,97.5,942.46,101.5,948.46,105.5,942.46,101.5,936.46" style="stroke:#181818;stroke-width:1.0;"/><text fill="#000000" font-family="sans-serif" font-size="13" lengthAdjust="spacing" textLength="153" x="102.5" y="981.137">manipulates &gt; m_settings</text><text fill="#000000" font-family="sans-serif" font-size="13" lengthAdjust="spacing" textLength="7" x="93.6906" y="958.0051">1</text><text fill="#000000" font-family="sans-serif" font-size="13" lengthAdjust="spacing" textLength="7" x="93.5594" y="1003.3833">1</text></g><!--reverse link Phong_material_settings_panel to Phong_material_settings--><g id="link_Phong_material_settings_panel_Phong_material_settings"><path codeLine="97" d="M351.5,948.46 C351.5,970.91 351.5,992.74 351.5,1015.15 " fill="none" id="Phong_material_settings_panel-backto-Phong_material_settings" style="stroke:#181818;stroke-width:1.0;"/><polygon fill="none" points="351.5,936.46,347.5,942.46,351.5,948.46,355.5,942.46,351.5,936.46" style="stroke:#181818;stroke-width:1.0;"/><text fill="#000000" font-family="sans-serif" font-size="13" lengthAdjust="spacing" textLength="153" x="352.5" y="981.137">manipulates &gt; m_settings</text><text fill="#000000" font-family="sans-serif" font-size="13" lengthAdjust="spacing" textLength="7" x="343.6906" y="958.0051">1</text><text fill="#000000" font-family="sans-serif" font-size="13" lengthAdjust="spacing" textLength="7" x="343.5594" y="1003.3833">1</text></g><!--reverse link Parallax_settings_panel to Parallax_settings--><g id="link_Parallax_settings_panel_Parallax_settings"><path codeLine="98" d="M601.5,948.46 C601.5,970.91 601.5,992.74 601.5,1015.15 " fill="none" id="Parallax_settings_panel-backto-Parallax_settings" style="stroke:#181818;stroke-width:1.0;"/><polygon fill="none" points="601.5,936.46,597.5,942.46,601.5,948.46,605.5,942.46,601.5,936.46" style="stroke:#181818;stroke-width:1.0;"/><text fill="#000000" font-family="sans-serif" font-size="13" lengthAdjust="spacing" textLength="153" x="602.5" y="981.137">manipulates &gt; m_settings</text><text fill="#000000" font-family="sans-serif" font-size="13" lengthAdjust="spacing" textLength="7" x="593.6906" y="958.0051">1</text><text fill="#000000" font-family="sans-serif" font-size="13" lengthAdjust="spacing" textLength="7" x="593.5594" y="1003.3833">1</text></g><!--SRC=[fLLDRzf04BtxLunIgPWKK7f5ALALf2c7gb5eUaMBFS0szgwrkoP1QVzxPp-CRN2WKRbWp-wycNdpPgmVkIYOOZaa6TFwip6ABqg3qqIAdrppHOQmP9d6Y7uzk4cvaGgkf4AuiWwe8-TOdRn4GB_X47P8cjwy4RH9n-DII9MYmdIUi-BIcJHT5Qk1FzThPWyBeoxlcC1iCe5yNjWdwn2GRiIA2vohKXYUupdTm9ObNBl_EftpV5LoUyCzH5L-Lr9Gs3AnIOS4FuGYudtqy31euhc__Wxk6vgrJ7KDjP4yjOvnF-JY38OdZsrBm9uVdg1BfdaGK5cQUaBYn1O13GxVWs0sqMucmNbLMA_SMQ4vZjxAHM4kDtZAeM9fPXYL0r-OfNqRIAivUz7k_Cz1Qhul4qWKCeDlwS-VA68BIeOYUeM3A_EOJjzro0PwC1M_C36OGee5YXH5ieKbYUTXIYJGkwttkBfSvFYqXk8Vc1SP5LeHTCUCGINw- -foOUC-9NUDIs94WrbZdGraKXOGBv3Ocdlh05B5ddox1a2cOE-7oZTScP9b7h- -IZ4-mOKbWHB378NbOR456sT3ZubV1M0a54fkU8gW2qpuaffD_A3tqLKG2zxCofLmnvG1kQohui8MJSbaSiMJfc-Tzpzv_g_wmc04yOr68nlq5WKLdz1oz6XM2euhRJNNimeW1-gXrzkEE0f1sWXBSxPcgNoQQpI6-gKzsO3FXYffATLY1lckfLZH9gGAESlUvafxFilOysadNy9tKbFOzREjDfZlh_pM6DOZrRqB_HuZvXwAb9cWrT9sBDjQiVe53hO9QEEx9XAxM8zZNL0FPg66AYU82PM1dxfIUJ4k478cU57QQNAAzItgT_DF-2U9Rj_PPpISzk0UCz_fDIzquykfMlPWFFju1kT4tDd5Q7H-5lemjgcp5HNYSuPumwc-dIpxqFumDh26mudxtslG69uKAtIrBft_tcUp0wHcVmob9Nf_wJcSy77jXUIv8EbmmqI2aRTS_hOJsANtveMZwcvTxDPodS5kItEhZUjwP_izJYte1xoHugkr6KqEAvtcj_IoB8Mxhvk5Ta-kvKlQHjB_lhR63IbwgEeeEZxJJT3NH7aC_9MfRy4UwFW8OFGN]--></g></svg>