<?xml version="1.0" encoding="us-ascii" standalone="no"?><svg xmlns="http://www.w3.org/2000/svg" xmlns:xlink="http://www.w3.org/1999/xlink" contentStyleType="text/css" height="500px" preserveAspectRatio="none" style="width:1175px;height:500px;background:#FFFFFF;" version="1.1" viewBox="0 0 1175 500" width="1175px" zoomAndPan="magnify"><defs/><g><!--class Singleton--><g id="elem_Singleton"><rect codeLine="3" fill="#F1F1F1" height="124.2717" id="Singleton" rx="2.5" ry="2.5" style="stroke:#181818;stroke-width:0.5;" width="147" x="56.5" y="184.89"/><ellipse cx="89.95" cy="200.89" fill="#ADD1B2" rx="11" ry="11" style="stroke:#181818;stroke-width:1.0;"/><path d="M90.0594,196.4213 Q89.1375,196.4213 88.4031,196.7338 Q87.6844,197.0463 87.1844,197.64 Q86.6844,198.2181 86.4031,199.0931 Q86.1375,199.9681 86.1375,201.0619 Q86.1375,202.4994 86.575,203.5463 Q87.0281,204.5931 87.8719,205.14 Q88.7313,205.6869 90.0438,205.6869 Q90.825,205.6869 91.5125,205.5619 Q92.2156,205.4213 93.2156,205.1088 L93.2156,206.9838 Q92.3563,207.3119 91.5906,207.4369 Q90.8406,207.5619 89.825,207.5619 Q87.9031,207.5619 86.5906,206.765 Q85.2938,205.9525 84.6375,204.4838 Q83.9813,202.9994 83.9813,201.0306 Q83.9813,199.6088 84.3719,198.4369 Q84.7781,197.2494 85.5594,196.3744 Q86.3406,195.4994 87.4813,195.0306 Q88.6219,194.5463 90.0906,194.5463 Q91.0438,194.5463 91.9344,194.7494 Q92.8406,194.9369 93.7781,195.4056 L92.95,197.1869 Q92.1688,196.8119 91.5125,196.6244 Q90.8563,196.4213 90.0594,196.4213 Z " fill="#000000"/><text fill="#000000" font-family="sans-serif" font-size="14" lengthAdjust="spacing" textLength="64" x="108.05" y="206.322">Singleton</text><rect fill="#FFFFFF" height="18.3441" style="stroke:#181818;stroke-width:1.0;stroke-dasharray:2.0,2.0;" width="8" x="198.5" y="181.89"/><text fill="#000000" font-family="sans-serif" font-size="12" font-style="italic" lengthAdjust="spacing" textLength="6" x="199.5" y="195.7181">T</text><line style="stroke:#181818;stroke-width:0.5;" x1="57.5" x2="202.5" y1="216.89" y2="216.89"/><rect fill="none" height="6" style="stroke:#C82930;stroke-width:1.0;" width="6" x="64.5" y="228.924"/><text fill="#000000" font-family="sans-serif" font-size="14" lengthAdjust="spacing" textLength="117" x="76.5" y="235.8559">static T* instance</text><line style="stroke:#181818;stroke-width:0.5;" x1="57.5" x2="202.5" y1="243.9579" y2="243.9579"/><rect fill="#F24D5C" height="6" style="stroke:#C82930;stroke-width:1.0;" width="6" x="64.5" y="255.9919"/><text fill="#000000" font-family="sans-serif" font-size="14" lengthAdjust="spacing" textLength="72" x="76.5" y="262.9239">Singleton()</text><ellipse cx="67.5" cy="278.0598" fill="#84BE84" rx="3" ry="3" style="stroke:#038048;stroke-width:1.0;"/><text fill="#000000" font-family="sans-serif" font-size="14" lengthAdjust="spacing" text-decoration="underline" textLength="117" x="76.5" y="281.9918">get_instance(): T*</text><ellipse cx="67.5" cy="297.1277" fill="#84BE84" rx="3" ry="3" style="stroke:#038048;stroke-width:1.0;"/><text fill="#000000" font-family="sans-serif" font-size="14" lengthAdjust="spacing" text-decoration="underline" textLength="121" x="76.5" y="301.0597">destroy_instance()</text></g><g id="elem_GMN3"><path d="M6,6 L6,86.8241 A0,0 0 0 0 6,86.8241 L126,86.8241 L130,184.48 L134,86.8241 L254,86.8241 A0,0 0 0 0 254,86.8241 L254,16 L244,6 L6,6 A0,0 0 0 0 6,6 " fill="#FEFFDD" style="stroke:#181818;stroke-width:0.5;"/><path d="M244,6 L244,16 L254,16 L244,6 " fill="#FEFFDD" style="stroke:#181818;stroke-width:0.5;"/><text fill="#000000" font-family="sans-serif" font-size="13" lengthAdjust="spacing" textLength="81" x="12" y="24.897">&#171;template&#187;\n</text><text fill="#000000" font-family="sans-serif" font-size="13" lengthAdjust="spacing" textLength="104" x="12" y="42.603">&#21333;&#20363;&#27169;&#24335;&#27169;&#26495;&#31867;\n</text><text fill="#000000" font-family="sans-serif" font-size="13" lengthAdjust="spacing" textLength="227" x="12" y="60.309">&#36890;&#36807;get_instance()&#33719;&#21462;&#20840;&#23616;&#21807;&#19968;&#23454;&#20363;\n</text><text fill="#000000" font-family="sans-serif" font-size="13" lengthAdjust="spacing" textLength="169" x="12" y="78.0151">&#32447;&#31243;&#23433;&#20840;&#30340;&#21452;&#37325;&#26816;&#26597;&#38145;&#23450;&#23454;&#29616;</text></g><!--class GR--><g id="elem_GR"><rect codeLine="17" fill="#F1F1F1" height="86.1358" id="GR" rx="2.5" ry="2.5" style="stroke:#181818;stroke-width:0.5;" width="137" x="61.5" y="407.23"/><ellipse cx="76.5" cy="423.23" fill="#ADD1B2" rx="11" ry="11" style="stroke:#181818;stroke-width:1.0;"/><path d="M76.6094,418.7613 Q75.6875,418.7613 74.9531,419.0738 Q74.2344,419.3863 73.7344,419.98 Q73.2344,420.5581 72.9531,421.4331 Q72.6875,422.3081 72.6875,423.4019 Q72.6875,424.8394 73.125,425.8863 Q73.5781,426.9331 74.4219,427.48 Q75.2813,428.0269 76.5938,428.0269 Q77.375,428.0269 78.0625,427.9019 Q78.7656,427.7613 79.7656,427.4488 L79.7656,429.3238 Q78.9063,429.6519 78.1406,429.7769 Q77.3906,429.9019 76.375,429.9019 Q74.4531,429.9019 73.1406,429.105 Q71.8438,428.2925 71.1875,426.8238 Q70.5313,425.3394 70.5313,423.3706 Q70.5313,421.9488 70.9219,420.7769 Q71.3281,419.5894 72.1094,418.7144 Q72.8906,417.8394 74.0313,417.3706 Q75.1719,416.8863 76.6406,416.8863 Q77.5938,416.8863 78.4844,417.0894 Q79.3906,417.2769 80.3281,417.7456 L79.5,419.5269 Q78.7188,419.1519 78.0625,418.9644 Q77.4063,418.7613 76.6094,418.7613 Z " fill="#000000"/><text fill="#000000" font-family="sans-serif" font-size="14" lengthAdjust="spacing" textLength="105" x="90.5" y="428.662">GlobalResource</text><line style="stroke:#181818;stroke-width:0.5;" x1="62.5" x2="197.5" y1="439.23" y2="439.23"/><rect fill="none" height="6" style="stroke:#C82930;stroke-width:1.0;" width="6" x="69.5" y="451.264"/><text fill="#000000" font-family="sans-serif" font-size="14" lengthAdjust="spacing" textLength="90" x="81.5" y="458.1959">resourceData</text><line style="stroke:#181818;stroke-width:0.5;" x1="62.5" x2="197.5" y1="466.2979" y2="466.2979"/><ellipse cx="72.5" cy="481.3319" fill="#84BE84" rx="3" ry="3" style="stroke:#038048;stroke-width:1.0;"/><text fill="#000000" font-family="sans-serif" font-size="14" lengthAdjust="spacing" textLength="73" x="81.5" y="485.2639">operation()</text></g><!--class Event--><g id="elem_Event"><rect codeLine="25" fill="#F1F1F1" height="124.2717" id="Event" rx="2.5" ry="2.5" style="stroke:#181818;stroke-width:0.5;" width="300" x="414" y="184.89"/><ellipse cx="522.75" cy="200.89" fill="#ADD1B2" rx="11" ry="11" style="stroke:#181818;stroke-width:1.0;"/><path d="M522.8594,196.4213 Q521.9375,196.4213 521.2031,196.7338 Q520.4844,197.0463 519.9844,197.64 Q519.4844,198.2181 519.2031,199.0931 Q518.9375,199.9681 518.9375,201.0619 Q518.9375,202.4994 519.375,203.5463 Q519.8281,204.5931 520.6719,205.14 Q521.5313,205.6869 522.8438,205.6869 Q523.625,205.6869 524.3125,205.5619 Q525.0156,205.4213 526.0156,205.1088 L526.0156,206.9838 Q525.1563,207.3119 524.3906,207.4369 Q523.6406,207.5619 522.625,207.5619 Q520.7031,207.5619 519.3906,206.765 Q518.0938,205.9525 517.4375,204.4838 Q516.7813,202.9994 516.7813,201.0306 Q516.7813,199.6088 517.1719,198.4369 Q517.5781,197.2494 518.3594,196.3744 Q519.1406,195.4994 520.2813,195.0306 Q521.4219,194.5463 522.8906,194.5463 Q523.8438,194.5463 524.7344,194.7494 Q525.6406,194.9369 526.5781,195.4056 L525.75,197.1869 Q524.9688,196.8119 524.3125,196.6244 Q523.6563,196.4213 522.8594,196.4213 Z " fill="#000000"/><text fill="#000000" font-family="sans-serif" font-size="14" lengthAdjust="spacing" textLength="37" x="543.25" y="206.322">Event</text><rect fill="#FFFFFF" height="18.3441" style="stroke:#181818;stroke-width:1.0;stroke-dasharray:2.0,2.0;" width="35" x="682" y="181.89"/><text fill="#000000" font-family="sans-serif" font-size="12" font-style="italic" lengthAdjust="spacing" textLength="33" x="683" y="195.7181">Args...</text><line style="stroke:#181818;stroke-width:0.5;" x1="415" x2="713" y1="216.89" y2="216.89"/><line style="stroke:#181818;stroke-width:0.5;" x1="415" x2="713" y1="224.89" y2="224.89"/><rect fill="#F24D5C" height="6" style="stroke:#C82930;stroke-width:1.0;" width="6" x="422" y="236.924"/><text fill="#000000" font-family="sans-serif" font-size="14" lengthAdjust="spacing" textLength="274" x="434" y="243.8559">listeners: vector&lt;function&lt;void(Args...)&gt;&gt;</text><ellipse cx="425" cy="258.9919" fill="#84BE84" rx="3" ry="3" style="stroke:#038048;stroke-width:1.0;"/><text fill="#000000" font-family="sans-serif" font-size="14" lengthAdjust="spacing" textLength="145" x="434" y="262.9239">add_listener(callback)</text><ellipse cx="425" cy="278.0598" fill="#84BE84" rx="3" ry="3" style="stroke:#038048;stroke-width:1.0;"/><text fill="#000000" font-family="sans-serif" font-size="14" lengthAdjust="spacing" textLength="169" x="434" y="281.9918">remove_listener(callback)</text><ellipse cx="425" cy="297.1277" fill="#84BE84" rx="3" ry="3" style="stroke:#038048;stroke-width:1.0;"/><text fill="#000000" font-family="sans-serif" font-size="14" lengthAdjust="spacing" textLength="98" x="434" y="301.0597">trigger(Args...)</text></g><g id="elem_GMN9"><path d="M288.5,6 L288.5,86.8241 A0,0 0 0 0 288.5,86.8241 L412.79,86.8241 L506.98,184.48 L420.79,86.8241 L471.5,86.8241 A0,0 0 0 0 471.5,86.8241 L471.5,16 L461.5,6 L288.5,6 A0,0 0 0 0 288.5,6 " fill="#FEFFDD" style="stroke:#181818;stroke-width:0.5;"/><path d="M461.5,6 L461.5,16 L471.5,16 L461.5,6 " fill="#FEFFDD" style="stroke:#181818;stroke-width:0.5;"/><text fill="#000000" font-family="sans-serif" font-size="13" lengthAdjust="spacing" textLength="81" x="294.5" y="24.897">&#171;template&#187;\n</text><text fill="#000000" font-family="sans-serif" font-size="13" lengthAdjust="spacing" textLength="104" x="294.5" y="42.603">&#21487;&#21464;&#21442;&#25968;&#20107;&#20214;&#31867;\n</text><text fill="#000000" font-family="sans-serif" font-size="13" lengthAdjust="spacing" textLength="156" x="294.5" y="60.309">&#25903;&#25345;&#20219;&#24847;&#21442;&#25968;&#31867;&#22411;&#30340;&#20107;&#20214;\n</text><text fill="#000000" font-family="sans-serif" font-size="13" lengthAdjust="spacing" textLength="162" x="294.5" y="78.0151">&#20351;&#29992;lambda&#20989;&#25968;&#20316;&#20026;&#30417;&#21548;&#22120;</text></g><!--class EC--><g id="elem_EC"><rect codeLine="39" fill="#F1F1F1" height="162.4075" id="EC" rx="2.5" ry="2.5" style="stroke:#181818;stroke-width:0.5;" width="291" x="873.5" y="165.83"/><ellipse cx="955.25" cy="181.83" fill="#ADD1B2" rx="11" ry="11" style="stroke:#181818;stroke-width:1.0;"/><path d="M955.3594,177.3612 Q954.4375,177.3612 953.7031,177.6737 Q952.9844,177.9862 952.4844,178.58 Q951.9844,179.1581 951.7031,180.0331 Q951.4375,180.9081 951.4375,182.0019 Q951.4375,183.4394 951.875,184.4862 Q952.3281,185.5331 953.1719,186.08 Q954.0313,186.6269 955.3438,186.6269 Q956.125,186.6269 956.8125,186.5019 Q957.5156,186.3612 958.5156,186.0487 L958.5156,187.9237 Q957.6563,188.2519 956.8906,188.3769 Q956.1406,188.5019 955.125,188.5019 Q953.2031,188.5019 951.8906,187.705 Q950.5938,186.8925 949.9375,185.4237 Q949.2813,183.9394 949.2813,181.9706 Q949.2813,180.5487 949.6719,179.3769 Q950.0781,178.1894 950.8594,177.3144 Q951.6406,176.4394 952.7813,175.9706 Q953.9219,175.4862 955.3906,175.4862 Q956.3438,175.4862 957.2344,175.6894 Q958.1406,175.8769 959.0781,176.3456 L958.25,178.1269 Q957.4688,177.7519 956.8125,177.5644 Q956.1563,177.3612 955.3594,177.3612 Z " fill="#000000"/><text fill="#000000" font-family="sans-serif" font-size="14" lengthAdjust="spacing" textLength="82" x="975.75" y="187.262">EventCenter</text><rect fill="#FFFFFF" height="18.3441" style="stroke:#181818;stroke-width:1.0;stroke-dasharray:2.0,2.0;" width="35" x="1132.5" y="162.83"/><text fill="#000000" font-family="sans-serif" font-size="12" font-style="italic" lengthAdjust="spacing" textLength="33" x="1133.5" y="176.6581">Args...</text><line style="stroke:#181818;stroke-width:0.5;" x1="874.5" x2="1163.5" y1="197.83" y2="197.83"/><rect fill="none" height="6" style="stroke:#C82930;stroke-width:1.0;" width="6" x="881.5" y="209.864"/><text fill="#000000" font-family="sans-serif" font-size="14" lengthAdjust="spacing" textLength="265" x="893.5" y="216.7959">eventMap: map&lt;string, Event&lt;Args...&gt;&gt;</text><line style="stroke:#181818;stroke-width:0.5;" x1="874.5" x2="1163.5" y1="224.8979" y2="224.8979"/><ellipse cx="884.5" cy="239.9319" fill="#84BE84" rx="3" ry="3" style="stroke:#038048;stroke-width:1.0;"/><text fill="#000000" font-family="sans-serif" font-size="14" lengthAdjust="spacing" textLength="142" x="893.5" y="243.8639">register_event(name)</text><ellipse cx="884.5" cy="258.9998" fill="#84BE84" rx="3" ry="3" style="stroke:#038048;stroke-width:1.0;"/><text fill="#000000" font-family="sans-serif" font-size="14" lengthAdjust="spacing" textLength="160" x="893.5" y="262.9318">unregister_event(name)</text><ellipse cx="884.5" cy="278.0677" fill="#84BE84" rx="3" ry="3" style="stroke:#038048;stroke-width:1.0;"/><text fill="#000000" font-family="sans-serif" font-size="14" lengthAdjust="spacing" textLength="174" x="893.5" y="281.9997">subscribe(name, callback)</text><ellipse cx="884.5" cy="297.1356" fill="#84BE84" rx="3" ry="3" style="stroke:#038048;stroke-width:1.0;"/><text fill="#000000" font-family="sans-serif" font-size="14" lengthAdjust="spacing" textLength="192" x="893.5" y="301.0676">unsubscribe(name, callback)</text><ellipse cx="884.5" cy="316.2035" fill="#84BE84" rx="3" ry="3" style="stroke:#038048;stroke-width:1.0;"/><text fill="#000000" font-family="sans-serif" font-size="14" lengthAdjust="spacing" textLength="120" x="893.5" y="320.1355">fire(name, Args...)</text></g><g id="elem_GMN13"><path d="M911,6 L911,86.8241 A0,0 0 0 0 911,86.8241 L1015,86.8241 L1019,165.33 L1023,86.8241 L1127,86.8241 A0,0 0 0 0 1127,86.8241 L1127,16 L1117,6 L911,6 A0,0 0 0 0 911,6 " fill="#FEFFDD" style="stroke:#181818;stroke-width:0.5;"/><path d="M1117,6 L1117,16 L1127,16 L1117,6 " fill="#FEFFDD" style="stroke:#181818;stroke-width:0.5;"/><text fill="#000000" font-family="sans-serif" font-size="13" lengthAdjust="spacing" textLength="81" x="917" y="24.897">&#171;template&#187;\n</text><text fill="#000000" font-family="sans-serif" font-size="13" lengthAdjust="spacing" textLength="104" x="917" y="42.603">&#20107;&#20214;&#20013;&#24515;&#31649;&#29702;&#22120;\n</text><text fill="#000000" font-family="sans-serif" font-size="13" lengthAdjust="spacing" textLength="195" x="917" y="60.309">&#36890;&#36807;&#23383;&#31526;&#20018;&#26631;&#35782;&#31526;&#31649;&#29702;&#22810;&#20010;&#20107;&#20214;\n</text><text fill="#000000" font-family="sans-serif" font-size="13" lengthAdjust="spacing" textLength="174" x="917" y="78.0151">&#25552;&#20379;&#32479;&#19968;&#30340;&#20107;&#20214;&#27880;&#20876;/&#35302;&#21457;&#25509;&#21475;</text></g><!--class EventCenter--><g id="elem_EventCenter"><rect fill="#F1F1F1" height="48" id="EventCenter" rx="2.5" ry="2.5" style="stroke:#181818;stroke-width:0.5;" width="114" x="507" y="22.41"/><ellipse cx="522" cy="38.41" fill="#ADD1B2" rx="11" ry="11" style="stroke:#181818;stroke-width:1.0;"/><path d="M522.1094,33.9413 Q521.1875,33.9413 520.4531,34.2538 Q519.7344,34.5663 519.2344,35.16 Q518.7344,35.7381 518.4531,36.6131 Q518.1875,37.4881 518.1875,38.5819 Q518.1875,40.0194 518.625,41.0663 Q519.0781,42.1131 519.9219,42.66 Q520.7813,43.2069 522.0938,43.2069 Q522.875,43.2069 523.5625,43.0819 Q524.2656,42.9413 525.2656,42.6288 L525.2656,44.5038 Q524.4063,44.8319 523.6406,44.9569 Q522.8906,45.0819 521.875,45.0819 Q519.9531,45.0819 518.6406,44.285 Q517.3438,43.4725 516.6875,42.0038 Q516.0313,40.5194 516.0313,38.5506 Q516.0313,37.1288 516.4219,35.9569 Q516.8281,34.7694 517.6094,33.8944 Q518.3906,33.0194 519.5313,32.5506 Q520.6719,32.0663 522.1406,32.0663 Q523.0938,32.0663 523.9844,32.2694 Q524.8906,32.4569 525.8281,32.9256 L525,34.7069 Q524.2188,34.3319 523.5625,34.1444 Q522.9063,33.9413 522.1094,33.9413 Z " fill="#000000"/><text fill="#000000" font-family="sans-serif" font-size="14" lengthAdjust="spacing" textLength="82" x="536" y="43.842">EventCenter</text><line style="stroke:#181818;stroke-width:0.5;" x1="508" x2="620" y1="54.41" y2="54.41"/><line style="stroke:#181818;stroke-width:0.5;" x1="508" x2="620" y1="62.41" y2="62.41"/></g><!--class InputSystem--><g id="elem_InputSystem"><rect codeLine="58" fill="#F1F1F1" height="67.0679" id="InputSystem" rx="2.5" ry="2.5" style="stroke:#181818;stroke-width:0.5;" width="219" x="656.5" y="12.88"/><ellipse cx="719.25" cy="28.88" fill="#ADD1B2" rx="11" ry="11" style="stroke:#181818;stroke-width:1.0;"/><path d="M719.3594,24.4112 Q718.4375,24.4112 717.7031,24.7237 Q716.9844,25.0362 716.4844,25.63 Q715.9844,26.2081 715.7031,27.0831 Q715.4375,27.9581 715.4375,29.0519 Q715.4375,30.4894 715.875,31.5362 Q716.3281,32.5831 717.1719,33.13 Q718.0313,33.6769 719.3438,33.6769 Q720.125,33.6769 720.8125,33.5519 Q721.5156,33.4112 722.5156,33.0987 L722.5156,34.9737 Q721.6563,35.3019 720.8906,35.4269 Q720.1406,35.5519 719.125,35.5519 Q717.2031,35.5519 715.8906,34.755 Q714.5938,33.9425 713.9375,32.4737 Q713.2813,30.9894 713.2813,29.0206 Q713.2813,27.5987 713.6719,26.4269 Q714.0781,25.2394 714.8594,24.3644 Q715.6406,23.4894 716.7813,23.0206 Q717.9219,22.5362 719.3906,22.5362 Q720.3438,22.5362 721.2344,22.7394 Q722.1406,22.9269 723.0781,23.3956 L722.25,25.1769 Q721.4688,24.8019 720.8125,24.6144 Q720.1563,24.4112 719.3594,24.4112 Z " fill="#000000"/><text fill="#000000" font-family="sans-serif" font-size="14" lengthAdjust="spacing" textLength="85" x="739.75" y="34.312">InputSystem</text><line style="stroke:#181818;stroke-width:0.5;" x1="657.5" x2="874.5" y1="44.88" y2="44.88"/><ellipse cx="667.5" cy="59.914" fill="none" rx="3" ry="3" style="stroke:#038048;stroke-width:1.0;"/><text fill="#000000" font-family="sans-serif" font-size="14" lengthAdjust="spacing" textLength="193" x="676.5" y="63.8459">on_key_press: Event&lt;int, int&gt;</text><line style="stroke:#181818;stroke-width:0.5;" x1="657.5" x2="874.5" y1="71.9479" y2="71.9479"/></g><!--reverse link Singleton to GR--><g id="link_Singleton_GR"><path codeLine="22" d="M130,327.51 C130,359.07 130,378.72 130,406.99 " fill="none" id="Singleton-backto-GR" style="stroke:#181818;stroke-width:1.0;"/><polygon fill="none" points="130,309.51,124,327.51,136,327.51,130,309.51" style="stroke:#181818;stroke-width:1.0;"/><text fill="#000000" font-family="sans-serif" font-size="13" lengthAdjust="spacing" textLength="65" x="131" y="373.127">&#20855;&#20307;&#21333;&#20363;&#31867;</text></g><!--reverse link EventCenter to Event--><g id="link_EventCenter_Event"><path codeLine="55" d="M564,82.59 C564,110.32 564,145.84 564,184.44 " fill="none" id="EventCenter-backto-Event" style="stroke:#181818;stroke-width:1.0;"/><polygon fill="#181818" points="564,70.59,560,76.59,564,82.59,568,76.59,564,70.59" style="stroke:#181818;stroke-width:1.0;"/><text fill="#000000" font-family="sans-serif" font-size="13" lengthAdjust="spacing" textLength="26" x="565" y="131.727">&#21253;&#21547;</text><text fill="#000000" font-family="sans-serif" font-size="13" lengthAdjust="spacing" textLength="7" x="556.1906" y="92.1259">1</text><text fill="#000000" font-family="sans-serif" font-size="13" lengthAdjust="spacing" textLength="20" x="542.8438" y="173.1585">0..*</text></g><!--link InputSystem to Event--><g id="link_InputSystem_Event"><path codeLine="62" d="M732.64,80.21 C703.84,108.53 665.7485,145.9935 630.6785,180.4735 " fill="none" id="InputSystem-to-Event" style="stroke:#181818;stroke-width:1.0;"/><polygon fill="#181818" points="626.4,184.68,635.622,181.2226,629.9654,181.1746,630.0134,175.5179,626.4,184.68" style="stroke:#181818;stroke-width:1.0;"/><text fill="#000000" font-family="sans-serif" font-size="13" lengthAdjust="spacing" textLength="26" x="695.9" y="131.727">&#20351;&#29992;</text></g><!--SRC=[XLJVJzfG57xlNt7J5z49srv9qsHnYzd3NjJ79UHIhgInt3RjXSGu4vmAMq2B6Uu7RZhZZv5DGRTa4XZop_Isy5_iqfOAR6nDsZJdVEVqdE-xNwS0tTctRWjszPZ-CdkRLVegnqaAD0omAEEaWeYAXIKHh760NM5W44Xa2IpD01cpTomXFn6WGzDkv1vOyx3h88b8R80EJKTPyJWYWGoYgwj3A6wTux1A422g1jJbk_PkgI0GbD8KI90eFlT2mskmf_sfurot_5mlM-bsygDZT7TlgFcMRbVfTPQMwrOZIsk7h8DVuZGxJhL0QwyPmgbiKRFOo-_O9rdxwAnNtg2r2aCxkrSSmWdGdvFpIUFd5JKEbGLag6bTGZo01fXV2EZJ_VXZIA1FWgeXdR7W4iUM3XO5mejmk5yR1NJxncg_yJPaMt7S5B2Q1QlrqsfSqixcNxJZdsGG9i8ZFMb48X7H7SCD1PCeia4GHheH1Haa4LKNbjDOwiyXP5Gv4V9BfqNHdnCc4h51KKY2YXA7qif0Qnsbr0oQd2Uwd4oo-A3hkBpkR1EbDUlKV4_Db_R-bRVtdRHskMuNDwnMozuoFGJBqSC2qyo3-ZYhtN7ALGMcuWb8y-r-f_P7gz5q3lPewO9-gFwff3lJ7BkHFaRaNC0YwcEUGIqAKb0Js25cwis2KVB5WADadnuzvXQ5C4oX0Jrf_8-aaOuRaYx7aHkT1UFSfl7_4CkoFaXD561k4ll39ysf7Jkb76Dhn5ZqyfrpSMurljkVyzrwZhtxkDEArVWw8eDjbgpR0wTrnFmMI6J_gD9SyNxtoparz-pTCsgU3Aan90FW7_9WXhc2Vn29pF3-YMR-A6xJqZVN5gxCpccJESNNyIdMqcHnbP6RycLZdiEn5RGQqvWTsVdtv98ncMK_DIBsgHak2eV5u4jUV-ut]--></g></svg>