<?xml version="1.0" encoding="us-ascii" standalone="no"?><svg xmlns="http://www.w3.org/2000/svg" xmlns:xlink="http://www.w3.org/1999/xlink" contentStyleType="text/css" height="1110px" preserveAspectRatio="none" style="width:837px;height:1110px;background:#FFFFFF;" version="1.1" viewBox="0 0 837 1110" width="837px" zoomAndPan="magnify"><defs/><g><!--class Material--><g id="elem_Material"><rect codeLine="6" fill="#F1F1F1" height="105.2038" id="Material" rx="2.5" ry="2.5" style="stroke:#181818;stroke-width:0.5;" width="193" x="7" y="797.14"/><ellipse cx="71.25" cy="813.14" fill="#ADD1B2" rx="11" ry="11" style="stroke:#181818;stroke-width:1.0;"/><path d="M71.3594,808.6712 Q70.4375,808.6712 69.7031,808.9837 Q68.9844,809.2962 68.4844,809.89 Q67.9844,810.4681 67.7031,811.3431 Q67.4375,812.2181 67.4375,813.3119 Q67.4375,814.7494 67.875,815.7962 Q68.3281,816.8431 69.1719,817.39 Q70.0313,817.9369 71.3438,817.9369 Q72.125,817.9369 72.8125,817.8119 Q73.5156,817.6712 74.5156,817.3587 L74.5156,819.2337 Q73.6563,819.5619 72.8906,819.6869 Q72.1406,819.8119 71.125,819.8119 Q69.2031,819.8119 67.8906,819.015 Q66.5938,818.2025 65.9375,816.7337 Q65.2813,815.2494 65.2813,813.2806 Q65.2813,811.8587 65.6719,810.6869 Q66.0781,809.4994 66.8594,808.6244 Q67.6406,807.7494 68.7813,807.2806 Q69.9219,806.7962 71.3906,806.7962 Q72.3438,806.7962 73.2344,806.9994 Q74.1406,807.1869 75.0781,807.6556 L74.25,809.4369 Q73.4688,809.0619 72.8125,808.8744 Q72.1563,808.6712 71.3594,808.6712 Z " fill="#000000"/><text fill="#000000" font-family="sans-serif" font-size="14" lengthAdjust="spacing" textLength="56" x="91.75" y="818.572">Material</text><line style="stroke:#181818;stroke-width:0.5;" x1="8" x2="199" y1="829.14" y2="829.14"/><line style="stroke:#181818;stroke-width:0.5;" x1="8" x2="199" y1="837.14" y2="837.14"/><ellipse cx="18" cy="852.174" fill="#84BE84" rx="3" ry="3" style="stroke:#038048;stroke-width:1.0;"/><text fill="#000000" font-family="sans-serif" font-size="14" lengthAdjust="spacing" textLength="120" x="27" y="856.1059">get_texture_map()</text><ellipse cx="18" cy="871.2419" fill="#84BE84" rx="3" ry="3" style="stroke:#038048;stroke-width:1.0;"/><text fill="#000000" font-family="sans-serif" font-size="14" lengthAdjust="spacing" textLength="130" x="27" y="875.1739">get_pipeline_state()</text><ellipse cx="18" cy="890.3098" fill="#84BE84" rx="3" ry="3" style="stroke:#038048;stroke-width:1.0;"/><text fill="#000000" font-family="sans-serif" font-size="14" lengthAdjust="spacing" textLength="167" x="27" y="894.2418">modify_shader_uniform()</text></g><!--class Phong_material--><g id="elem_Phong_material"><rect codeLine="13" fill="#F1F1F1" height="219.6113" id="Phong_material" rx="2.5" ry="2.5" style="stroke:#181818;stroke-width:0.5;" width="311" x="260" y="408.93"/><ellipse cx="358.75" cy="424.93" fill="#ADD1B2" rx="11" ry="11" style="stroke:#181818;stroke-width:1.0;"/><path d="M358.8594,420.4612 Q357.9375,420.4612 357.2031,420.7737 Q356.4844,421.0862 355.9844,421.68 Q355.4844,422.2581 355.2031,423.1331 Q354.9375,424.0081 354.9375,425.1019 Q354.9375,426.5394 355.375,427.5862 Q355.8281,428.6331 356.6719,429.18 Q357.5313,429.7269 358.8438,429.7269 Q359.625,429.7269 360.3125,429.6019 Q361.0156,429.4612 362.0156,429.1487 L362.0156,431.0237 Q361.1563,431.3519 360.3906,431.4769 Q359.6406,431.6019 358.625,431.6019 Q356.7031,431.6019 355.3906,430.805 Q354.0938,429.9925 353.4375,428.5237 Q352.7813,427.0394 352.7813,425.0706 Q352.7813,423.6487 353.1719,422.4769 Q353.5781,421.2894 354.3594,420.4144 Q355.1406,419.5394 356.2813,419.0706 Q357.4219,418.5862 358.8906,418.5862 Q359.8438,418.5862 360.7344,418.7894 Q361.6406,418.9769 362.5781,419.4456 L361.75,421.2269 Q360.9688,420.8519 360.3125,420.6644 Q359.6563,420.4612 358.8594,420.4612 Z " fill="#000000"/><text fill="#000000" font-family="sans-serif" font-size="14" lengthAdjust="spacing" textLength="105" x="379.25" y="430.362">Phong_material</text><line style="stroke:#181818;stroke-width:0.5;" x1="261" x2="570" y1="440.93" y2="440.93"/><rect fill="none" height="6" style="stroke:#C82930;stroke-width:1.0;" width="6" x="268" y="452.964"/><text fill="#000000" font-family="sans-serif" font-size="14" lengthAdjust="spacing" textLength="147" x="280" y="459.8959">Phong_shader shader</text><rect fill="none" height="6" style="stroke:#C82930;stroke-width:1.0;" width="6" x="268" y="472.0319"/><text fill="#000000" font-family="sans-serif" font-size="14" lengthAdjust="spacing" textLength="229" x="280" y="478.9639">Shadow_settings shadow_settings</text><rect fill="none" height="6" style="stroke:#C82930;stroke-width:1.0;" width="6" x="268" y="491.0998"/><text fill="#000000" font-family="sans-serif" font-size="14" lengthAdjust="spacing" textLength="285" x="280" y="498.0318">Phong_material_settings material_settings</text><rect fill="none" height="6" style="stroke:#C82930;stroke-width:1.0;" width="6" x="268" y="510.1677"/><text fill="#000000" font-family="sans-serif" font-size="14" lengthAdjust="spacing" textLength="231" x="280" y="517.0997">Parallax_settings parallax_settings</text><rect fill="none" height="6" style="stroke:#C82930;stroke-width:1.0;" width="6" x="268" y="529.2356"/><text fill="#000000" font-family="sans-serif" font-size="14" lengthAdjust="spacing" textLength="269" x="280" y="536.1676">Phong_texture_settings texture_settings</text><line style="stroke:#181818;stroke-width:0.5;" x1="261" x2="570" y1="544.2696" y2="544.2696"/><ellipse cx="271" cy="559.3035" fill="#84BE84" rx="3" ry="3" style="stroke:#038048;stroke-width:1.0;"/><text fill="#000000" font-family="sans-serif" font-size="14" lengthAdjust="spacing" textLength="164" x="280" y="563.2355">get_shader_feature_set()</text><ellipse cx="271" cy="578.3715" fill="#84BE84" rx="3" ry="3" style="stroke:#038048;stroke-width:1.0;"/><text fill="#000000" font-family="sans-serif" font-size="14" lengthAdjust="spacing" textLength="120" x="280" y="582.3034">get_texture_map()</text><ellipse cx="271" cy="597.4394" fill="#84BE84" rx="3" ry="3" style="stroke:#038048;stroke-width:1.0;"/><text fill="#000000" font-family="sans-serif" font-size="14" lengthAdjust="spacing" textLength="130" x="280" y="601.3714">get_pipeline_state()</text><ellipse cx="271" cy="616.5073" fill="#84BE84" rx="3" ry="3" style="stroke:#038048;stroke-width:1.0;"/><text fill="#000000" font-family="sans-serif" font-size="14" lengthAdjust="spacing" textLength="167" x="280" y="620.4393">modify_shader_uniform()</text></g><!--class Shadow_settings--><g id="elem_Shadow_settings"><rect codeLine="25" fill="#F1F1F1" height="181.4754" id="Shadow_settings" rx="2.5" ry="2.5" style="stroke:#181818;stroke-width:0.5;" width="193" x="634" y="7"/><ellipse cx="670.6" cy="23" fill="#ADD1B2" rx="11" ry="11" style="stroke:#181818;stroke-width:1.0;"/><path d="M670.7094,18.5313 Q669.7875,18.5313 669.0531,18.8438 Q668.3344,19.1563 667.8344,19.75 Q667.3344,20.3281 667.0531,21.2031 Q666.7875,22.0781 666.7875,23.1719 Q666.7875,24.6094 667.225,25.6563 Q667.6781,26.7031 668.5219,27.25 Q669.3813,27.7969 670.6938,27.7969 Q671.475,27.7969 672.1625,27.6719 Q672.8656,27.5313 673.8656,27.2188 L673.8656,29.0938 Q673.0063,29.4219 672.2406,29.5469 Q671.4906,29.6719 670.475,29.6719 Q668.5531,29.6719 667.2406,28.875 Q665.9438,28.0625 665.2875,26.5938 Q664.6313,25.1094 664.6313,23.1406 Q664.6313,21.7188 665.0219,20.5469 Q665.4281,19.3594 666.2094,18.4844 Q666.9906,17.6094 668.1313,17.1406 Q669.2719,16.6563 670.7406,16.6563 Q671.6938,16.6563 672.5844,16.8594 Q673.4906,17.0469 674.4281,17.5156 L673.6,19.2969 Q672.8188,18.9219 672.1625,18.7344 Q671.5063,18.5313 670.7094,18.5313 Z " fill="#000000"/><text fill="#000000" font-family="sans-serif" font-size="14" lengthAdjust="spacing" textLength="113" x="689.4" y="28.432">Shadow_settings</text><line style="stroke:#181818;stroke-width:0.5;" x1="635" x2="826" y1="39" y2="39"/><rect fill="none" height="6" style="stroke:#C82930;stroke-width:1.0;" width="6" x="642" y="51.034"/><text fill="#000000" font-family="sans-serif" font-size="14" lengthAdjust="spacing" textLength="86" x="654" y="57.9659">shadow_bias</text><rect fill="none" height="6" style="stroke:#C82930;stroke-width:1.0;" width="6" x="642" y="70.1019"/><text fill="#000000" font-family="sans-serif" font-size="14" lengthAdjust="spacing" textLength="63" x="654" y="77.0339">light_size</text><rect fill="none" height="6" style="stroke:#C82930;stroke-width:1.0;" width="6" x="642" y="89.1698"/><text fill="#000000" font-family="sans-serif" font-size="14" lengthAdjust="spacing" textLength="70" x="654" y="96.1018">pcf_radius</text><rect fill="none" height="6" style="stroke:#C82930;stroke-width:1.0;" width="6" x="642" y="108.2377"/><text fill="#000000" font-family="sans-serif" font-size="14" lengthAdjust="spacing" textLength="90" x="654" y="115.1697">pcf_tightness</text><rect fill="none" height="6" style="stroke:#C82930;stroke-width:1.0;" width="6" x="642" y="127.3056"/><text fill="#000000" font-family="sans-serif" font-size="14" lengthAdjust="spacing" textLength="120" x="654" y="134.2376">pcf_sample_count</text><rect fill="none" height="6" style="stroke:#C82930;stroke-width:1.0;" width="6" x="642" y="146.3735"/><text fill="#000000" font-family="sans-serif" font-size="14" lengthAdjust="spacing" textLength="79" x="654" y="153.3055">enable_csm</text><line style="stroke:#181818;stroke-width:0.5;" x1="635" x2="826" y1="161.4075" y2="161.4075"/><ellipse cx="645" cy="176.4415" fill="#84BE84" rx="3" ry="3" style="stroke:#038048;stroke-width:1.0;"/><text fill="#000000" font-family="sans-serif" font-size="14" lengthAdjust="spacing" textLength="167" x="654" y="180.3734">modify_shader_uniform()</text></g><!--class Phong_material_settings--><g id="elem_Phong_material_settings"><rect codeLine="35" fill="#F1F1F1" height="124.2717" id="Phong_material_settings" rx="2.5" ry="2.5" style="stroke:#181818;stroke-width:0.5;" width="197" x="632" y="223.6"/><ellipse cx="647" cy="239.6" fill="#ADD1B2" rx="11" ry="11" style="stroke:#181818;stroke-width:1.0;"/><path d="M647.1094,235.1312 Q646.1875,235.1312 645.4531,235.4437 Q644.7344,235.7562 644.2344,236.35 Q643.7344,236.9281 643.4531,237.8031 Q643.1875,238.6781 643.1875,239.7719 Q643.1875,241.2094 643.625,242.2562 Q644.0781,243.3031 644.9219,243.85 Q645.7813,244.3969 647.0938,244.3969 Q647.875,244.3969 648.5625,244.2719 Q649.2656,244.1312 650.2656,243.8187 L650.2656,245.6937 Q649.4063,246.0219 648.6406,246.1469 Q647.8906,246.2719 646.875,246.2719 Q644.9531,246.2719 643.6406,245.475 Q642.3438,244.6625 641.6875,243.1937 Q641.0313,241.7094 641.0313,239.7406 Q641.0313,238.3187 641.4219,237.1469 Q641.8281,235.9594 642.6094,235.0844 Q643.3906,234.2094 644.5313,233.7406 Q645.6719,233.2562 647.1406,233.2562 Q648.0938,233.2562 648.9844,233.4594 Q649.8906,233.6469 650.8281,234.1156 L650,235.8969 Q649.2188,235.5219 648.5625,235.3344 Q647.9063,235.1312 647.1094,235.1312 Z " fill="#000000"/><text fill="#000000" font-family="sans-serif" font-size="14" lengthAdjust="spacing" textLength="165" x="661" y="245.032">Phong_material_settings</text><line style="stroke:#181818;stroke-width:0.5;" x1="633" x2="828" y1="255.6" y2="255.6"/><rect fill="none" height="6" style="stroke:#C82930;stroke-width:1.0;" width="6" x="640" y="267.634"/><text fill="#000000" font-family="sans-serif" font-size="14" lengthAdjust="spacing" textLength="89" x="652" y="274.5659">transparency</text><rect fill="none" height="6" style="stroke:#C82930;stroke-width:1.0;" width="6" x="640" y="286.7019"/><text fill="#000000" font-family="sans-serif" font-size="14" lengthAdjust="spacing" textLength="61" x="652" y="293.6339">ka, kd, ks</text><rect fill="none" height="6" style="stroke:#C82930;stroke-width:1.0;" width="6" x="640" y="305.7698"/><text fill="#000000" font-family="sans-serif" font-size="14" lengthAdjust="spacing" textLength="64" x="652" y="312.7018">shininess</text><line style="stroke:#181818;stroke-width:0.5;" x1="633" x2="828" y1="320.8038" y2="320.8038"/><ellipse cx="643" cy="335.8377" fill="#84BE84" rx="3" ry="3" style="stroke:#038048;stroke-width:1.0;"/><text fill="#000000" font-family="sans-serif" font-size="14" lengthAdjust="spacing" textLength="167" x="652" y="339.7697">modify_shader_uniform()</text></g><!--class Parallax_settings--><g id="elem_Parallax_settings"><rect codeLine="42" fill="#F1F1F1" height="105.2038" id="Parallax_settings" rx="2.5" ry="2.5" style="stroke:#181818;stroke-width:0.5;" width="193" x="634" y="383.14"/><ellipse cx="670.6" cy="399.14" fill="#ADD1B2" rx="11" ry="11" style="stroke:#181818;stroke-width:1.0;"/><path d="M670.7094,394.6712 Q669.7875,394.6712 669.0531,394.9837 Q668.3344,395.2962 667.8344,395.89 Q667.3344,396.4681 667.0531,397.3431 Q666.7875,398.2181 666.7875,399.3119 Q666.7875,400.7494 667.225,401.7962 Q667.6781,402.8431 668.5219,403.39 Q669.3813,403.9369 670.6938,403.9369 Q671.475,403.9369 672.1625,403.8119 Q672.8656,403.6712 673.8656,403.3587 L673.8656,405.2337 Q673.0063,405.5619 672.2406,405.6869 Q671.4906,405.8119 670.475,405.8119 Q668.5531,405.8119 667.2406,405.015 Q665.9438,404.2025 665.2875,402.7337 Q664.6313,401.2494 664.6313,399.2806 Q664.6313,397.8587 665.0219,396.6869 Q665.4281,395.4994 666.2094,394.6244 Q666.9906,393.7494 668.1313,393.2806 Q669.2719,392.7962 670.7406,392.7962 Q671.6938,392.7962 672.5844,392.9994 Q673.4906,393.1869 674.4281,393.6556 L673.6,395.4369 Q672.8188,395.0619 672.1625,394.8744 Q671.5063,394.6712 670.7094,394.6712 Z " fill="#000000"/><text fill="#000000" font-family="sans-serif" font-size="14" lengthAdjust="spacing" textLength="113" x="689.4" y="404.572">Parallax_settings</text><line style="stroke:#181818;stroke-width:0.5;" x1="635" x2="826" y1="415.14" y2="415.14"/><rect fill="none" height="6" style="stroke:#C82930;stroke-width:1.0;" width="6" x="642" y="427.174"/><text fill="#000000" font-family="sans-serif" font-size="14" lengthAdjust="spacing" textLength="94" x="654" y="434.1059">parallax_scale</text><rect fill="none" height="6" style="stroke:#C82930;stroke-width:1.0;" width="6" x="642" y="446.2419"/><text fill="#000000" font-family="sans-serif" font-size="14" lengthAdjust="spacing" textLength="137" x="654" y="453.1739">parallax_layer_count</text><line style="stroke:#181818;stroke-width:0.5;" x1="635" x2="826" y1="461.2758" y2="461.2758"/><ellipse cx="645" cy="476.3098" fill="#84BE84" rx="3" ry="3" style="stroke:#038048;stroke-width:1.0;"/><text fill="#000000" font-family="sans-serif" font-size="14" lengthAdjust="spacing" textLength="167" x="654" y="480.2418">modify_shader_uniform()</text></g><!--class Phong_texture_settings--><g id="elem_Phong_texture_settings"><rect codeLine="48" fill="#F1F1F1" height="143.3396" id="Phong_texture_settings" rx="2.5" ry="2.5" style="stroke:#181818;stroke-width:0.5;" width="189" x="636" y="523.07"/><ellipse cx="651" cy="539.07" fill="#ADD1B2" rx="11" ry="11" style="stroke:#181818;stroke-width:1.0;"/><path d="M651.1094,534.6012 Q650.1875,534.6012 649.4531,534.9137 Q648.7344,535.2262 648.2344,535.82 Q647.7344,536.3981 647.4531,537.2731 Q647.1875,538.1481 647.1875,539.2419 Q647.1875,540.6794 647.625,541.7262 Q648.0781,542.7731 648.9219,543.32 Q649.7813,543.8669 651.0938,543.8669 Q651.875,543.8669 652.5625,543.7419 Q653.2656,543.6012 654.2656,543.2887 L654.2656,545.1637 Q653.4063,545.4919 652.6406,545.6169 Q651.8906,545.7419 650.875,545.7419 Q648.9531,545.7419 647.6406,544.945 Q646.3438,544.1325 645.6875,542.6637 Q645.0313,541.1794 645.0313,539.2106 Q645.0313,537.7887 645.4219,536.6169 Q645.8281,535.4294 646.6094,534.5544 Q647.3906,533.6794 648.5313,533.2106 Q649.6719,532.7262 651.1406,532.7262 Q652.0938,532.7262 652.9844,532.9294 Q653.8906,533.1169 654.8281,533.5856 L654,535.3669 Q653.2188,534.9919 652.5625,534.8044 Q651.9063,534.6012 651.1094,534.6012 Z " fill="#000000"/><text fill="#000000" font-family="sans-serif" font-size="14" lengthAdjust="spacing" textLength="157" x="665" y="544.502">Phong_texture_settings</text><line style="stroke:#181818;stroke-width:0.5;" x1="637" x2="824" y1="555.07" y2="555.07"/><rect fill="none" height="6" style="stroke:#C82930;stroke-width:1.0;" width="6" x="644" y="567.104"/><text fill="#000000" font-family="sans-serif" font-size="14" lengthAdjust="spacing" textLength="82" x="656" y="574.0359">albedo_map</text><rect fill="none" height="6" style="stroke:#C82930;stroke-width:1.0;" width="6" x="644" y="586.1719"/><text fill="#000000" font-family="sans-serif" font-size="14" lengthAdjust="spacing" textLength="94" x="656" y="593.1039">specular_map</text><rect fill="none" height="6" style="stroke:#C82930;stroke-width:1.0;" width="6" x="644" y="605.2398"/><text fill="#000000" font-family="sans-serif" font-size="14" lengthAdjust="spacing" textLength="84" x="656" y="612.1718">normal_map</text><rect fill="none" height="6" style="stroke:#C82930;stroke-width:1.0;" width="6" x="644" y="624.3077"/><text fill="#000000" font-family="sans-serif" font-size="14" lengthAdjust="spacing" textLength="74" x="656" y="631.2397">alpha_map</text><rect fill="none" height="6" style="stroke:#C82930;stroke-width:1.0;" width="6" x="644" y="643.3756"/><text fill="#000000" font-family="sans-serif" font-size="14" lengthAdjust="spacing" textLength="80" x="656" y="650.3076">height_map</text><line style="stroke:#181818;stroke-width:0.5;" x1="637" x2="824" y1="658.4096" y2="658.4096"/></g><!--class Skybox_spherical_material--><g id="elem_Skybox_spherical_material"><rect codeLine="57" fill="#F1F1F1" height="124.2717" id="Skybox_spherical_material" rx="2.5" ry="2.5" style="stroke:#181818;stroke-width:0.5;" width="244" x="293.5" y="717.6"/><ellipse cx="324.7" cy="733.6" fill="#ADD1B2" rx="11" ry="11" style="stroke:#181818;stroke-width:1.0;"/><path d="M324.8094,729.1312 Q323.8875,729.1312 323.1531,729.4437 Q322.4344,729.7562 321.9344,730.35 Q321.4344,730.9281 321.1531,731.8031 Q320.8875,732.6781 320.8875,733.7719 Q320.8875,735.2094 321.325,736.2562 Q321.7781,737.3031 322.6219,737.85 Q323.4813,738.3969 324.7938,738.3969 Q325.575,738.3969 326.2625,738.2719 Q326.9656,738.1312 327.9656,737.8187 L327.9656,739.6937 Q327.1063,740.0219 326.3406,740.1469 Q325.5906,740.2719 324.575,740.2719 Q322.6531,740.2719 321.3406,739.475 Q320.0438,738.6625 319.3875,737.1937 Q318.7313,735.7094 318.7313,733.7406 Q318.7313,732.3187 319.1219,731.1469 Q319.5281,729.9594 320.3094,729.0844 Q321.0906,728.2094 322.2313,727.7406 Q323.3719,727.2562 324.8406,727.2562 Q325.7938,727.2562 326.6844,727.4594 Q327.5906,727.6469 328.5281,728.1156 L327.7,729.8969 Q326.9188,729.5219 326.2625,729.3344 Q325.6063,729.1312 324.8094,729.1312 Z " fill="#000000"/><text fill="#000000" font-family="sans-serif" font-size="14" lengthAdjust="spacing" textLength="176" x="342.3" y="739.032">Skybox_spherical_material</text><line style="stroke:#181818;stroke-width:0.5;" x1="294.5" x2="536.5" y1="749.6" y2="749.6"/><rect fill="none" height="6" style="stroke:#C82930;stroke-width:1.0;" width="6" x="301.5" y="761.634"/><text fill="#000000" font-family="sans-serif" font-size="14" lengthAdjust="spacing" textLength="218" x="313.5" y="768.5659">Skybox_spherical_shader shader</text><rect fill="none" height="6" style="stroke:#C82930;stroke-width:1.0;" width="6" x="301.5" y="780.7019"/><text fill="#000000" font-family="sans-serif" font-size="14" lengthAdjust="spacing" textLength="98" x="313.5" y="787.6339">spherical_map</text><line style="stroke:#181818;stroke-width:0.5;" x1="294.5" x2="536.5" y1="795.7358" y2="795.7358"/><ellipse cx="304.5" cy="810.7698" fill="#84BE84" rx="3" ry="3" style="stroke:#038048;stroke-width:1.0;"/><text fill="#000000" font-family="sans-serif" font-size="14" lengthAdjust="spacing" textLength="120" x="313.5" y="814.7018">get_texture_map()</text><ellipse cx="304.5" cy="829.8377" fill="#84BE84" rx="3" ry="3" style="stroke:#038048;stroke-width:1.0;"/><text fill="#000000" font-family="sans-serif" font-size="14" lengthAdjust="spacing" textLength="130" x="313.5" y="833.7697">get_pipeline_state()</text></g><!--class Shadow_caster_material--><g id="elem_Shadow_caster_material"><rect codeLine="64" fill="#F1F1F1" height="86.1358" id="Shadow_caster_material" rx="2.5" ry="2.5" style="stroke:#181818;stroke-width:0.5;" width="230" x="300.5" y="876.67"/><ellipse cx="331.7" cy="892.67" fill="#ADD1B2" rx="11" ry="11" style="stroke:#181818;stroke-width:1.0;"/><path d="M331.8094,888.2013 Q330.8875,888.2013 330.1531,888.5138 Q329.4344,888.8263 328.9344,889.42 Q328.4344,889.9981 328.1531,890.8731 Q327.8875,891.7481 327.8875,892.8419 Q327.8875,894.2794 328.325,895.3263 Q328.7781,896.3731 329.6219,896.92 Q330.4813,897.4669 331.7938,897.4669 Q332.575,897.4669 333.2625,897.3419 Q333.9656,897.2013 334.9656,896.8888 L334.9656,898.7638 Q334.1063,899.0919 333.3406,899.2169 Q332.5906,899.3419 331.575,899.3419 Q329.6531,899.3419 328.3406,898.545 Q327.0438,897.7325 326.3875,896.2638 Q325.7313,894.7794 325.7313,892.8106 Q325.7313,891.3888 326.1219,890.2169 Q326.5281,889.0294 327.3094,888.1544 Q328.0906,887.2794 329.2313,886.8106 Q330.3719,886.3263 331.8406,886.3263 Q332.7938,886.3263 333.6844,886.5294 Q334.5906,886.7169 335.5281,887.1856 L334.7,888.9669 Q333.9188,888.5919 333.2625,888.4044 Q332.6063,888.2013 331.8094,888.2013 Z " fill="#000000"/><text fill="#000000" font-family="sans-serif" font-size="14" lengthAdjust="spacing" textLength="162" x="349.3" y="898.102">Shadow_caster_material</text><line style="stroke:#181818;stroke-width:0.5;" x1="301.5" x2="529.5" y1="908.67" y2="908.67"/><rect fill="none" height="6" style="stroke:#C82930;stroke-width:1.0;" width="6" x="308.5" y="920.704"/><text fill="#000000" font-family="sans-serif" font-size="14" lengthAdjust="spacing" textLength="204" x="320.5" y="927.6359">Shadow_caster_shader shader</text><line style="stroke:#181818;stroke-width:0.5;" x1="301.5" x2="529.5" y1="935.7379" y2="935.7379"/><ellipse cx="311.5" cy="950.7719" fill="#84BE84" rx="3" ry="3" style="stroke:#038048;stroke-width:1.0;"/><text fill="#000000" font-family="sans-serif" font-size="14" lengthAdjust="spacing" textLength="130" x="320.5" y="954.7039">get_pipeline_state()</text></g><!--class Gamma_material--><g id="elem_Gamma_material"><rect codeLine="69" fill="#F1F1F1" height="105.2038" id="Gamma_material" rx="2.5" ry="2.5" style="stroke:#181818;stroke-width:0.5;" width="182" x="324.5" y="998.14"/><ellipse cx="355.7" cy="1014.14" fill="#ADD1B2" rx="11" ry="11" style="stroke:#181818;stroke-width:1.0;"/><path d="M355.8094,1009.6712 Q354.8875,1009.6712 354.1531,1009.9837 Q353.4344,1010.2962 352.9344,1010.89 Q352.4344,1011.4681 352.1531,1012.3431 Q351.8875,1013.2181 351.8875,1014.3119 Q351.8875,1015.7494 352.325,1016.7962 Q352.7781,1017.8431 353.6219,1018.39 Q354.4813,1018.9369 355.7938,1018.9369 Q356.575,1018.9369 357.2625,1018.8119 Q357.9656,1018.6712 358.9656,1018.3587 L358.9656,1020.2337 Q358.1063,1020.5619 357.3406,1020.6869 Q356.5906,1020.8119 355.575,1020.8119 Q353.6531,1020.8119 352.3406,1020.015 Q351.0438,1019.2025 350.3875,1017.7337 Q349.7313,1016.2494 349.7313,1014.2806 Q349.7313,1012.8587 350.1219,1011.6869 Q350.5281,1010.4994 351.3094,1009.6244 Q352.0906,1008.7494 353.2313,1008.2806 Q354.3719,1007.7962 355.8406,1007.7962 Q356.7938,1007.7962 357.6844,1007.9994 Q358.5906,1008.1869 359.5281,1008.6556 L358.7,1010.4369 Q357.9188,1010.0619 357.2625,1009.8744 Q356.6063,1009.6712 355.8094,1009.6712 Z " fill="#000000"/><text fill="#000000" font-family="sans-serif" font-size="14" lengthAdjust="spacing" textLength="114" x="373.3" y="1019.572">Gamma_material</text><line style="stroke:#181818;stroke-width:0.5;" x1="325.5" x2="505.5" y1="1030.14" y2="1030.14"/><rect fill="none" height="6" style="stroke:#C82930;stroke-width:1.0;" width="6" x="332.5" y="1042.174"/><text fill="#000000" font-family="sans-serif" font-size="14" lengthAdjust="spacing" textLength="156" x="344.5" y="1049.1059">Gamma_shader shader</text><rect fill="none" height="6" style="stroke:#C82930;stroke-width:1.0;" width="6" x="332.5" y="1061.2419"/><text fill="#000000" font-family="sans-serif" font-size="14" lengthAdjust="spacing" textLength="81" x="344.5" y="1068.1739">screen_map</text><line style="stroke:#181818;stroke-width:0.5;" x1="325.5" x2="505.5" y1="1076.2758" y2="1076.2758"/><ellipse cx="335.5" cy="1091.3098" fill="#84BE84" rx="3" ry="3" style="stroke:#038048;stroke-width:1.0;"/><text fill="#000000" font-family="sans-serif" font-size="14" lengthAdjust="spacing" textLength="120" x="344.5" y="1095.2418">get_texture_map()</text></g><!--class Phong_shader--><g id="elem_Phong_shader"><rect fill="#F1F1F1" height="48" id="Phong_shader" rx="2.5" ry="2.5" style="stroke:#181818;stroke-width:0.5;" width="128" x="666.5" y="701.74"/><ellipse cx="681.5" cy="717.74" fill="#ADD1B2" rx="11" ry="11" style="stroke:#181818;stroke-width:1.0;"/><path d="M681.6094,713.2712 Q680.6875,713.2712 679.9531,713.5837 Q679.2344,713.8962 678.7344,714.49 Q678.2344,715.0681 677.9531,715.9431 Q677.6875,716.8181 677.6875,717.9119 Q677.6875,719.3494 678.125,720.3962 Q678.5781,721.4431 679.4219,721.99 Q680.2813,722.5369 681.5938,722.5369 Q682.375,722.5369 683.0625,722.4119 Q683.7656,722.2712 684.7656,721.9587 L684.7656,723.8337 Q683.9063,724.1619 683.1406,724.2869 Q682.3906,724.4119 681.375,724.4119 Q679.4531,724.4119 678.1406,723.615 Q676.8438,722.8025 676.1875,721.3337 Q675.5313,719.8494 675.5313,717.8806 Q675.5313,716.4587 675.9219,715.2869 Q676.3281,714.0994 677.1094,713.2244 Q677.8906,712.3494 679.0313,711.8806 Q680.1719,711.3962 681.6406,711.3962 Q682.5938,711.3962 683.4844,711.5994 Q684.3906,711.7869 685.3281,712.2556 L684.5,714.0369 Q683.7188,713.6619 683.0625,713.4744 Q682.4063,713.2712 681.6094,713.2712 Z " fill="#000000"/><text fill="#000000" font-family="sans-serif" font-size="14" lengthAdjust="spacing" textLength="96" x="695.5" y="723.172">Phong_shader</text><line style="stroke:#181818;stroke-width:0.5;" x1="667.5" x2="793.5" y1="733.74" y2="733.74"/><line style="stroke:#181818;stroke-width:0.5;" x1="667.5" x2="793.5" y1="741.74" y2="741.74"/></g><!--class Skybox_spherical_shader--><g id="elem_Skybox_spherical_shader"><rect fill="#F1F1F1" height="48" id="Skybox_spherical_shader" rx="2.5" ry="2.5" style="stroke:#181818;stroke-width:0.5;" width="199" x="631" y="784.74"/><ellipse cx="646" cy="800.74" fill="#ADD1B2" rx="11" ry="11" style="stroke:#181818;stroke-width:1.0;"/><path d="M646.1094,796.2712 Q645.1875,796.2712 644.4531,796.5837 Q643.7344,796.8962 643.2344,797.49 Q642.7344,798.0681 642.4531,798.9431 Q642.1875,799.8181 642.1875,800.9119 Q642.1875,802.3494 642.625,803.3962 Q643.0781,804.4431 643.9219,804.99 Q644.7813,805.5369 646.0938,805.5369 Q646.875,805.5369 647.5625,805.4119 Q648.2656,805.2712 649.2656,804.9587 L649.2656,806.8337 Q648.4063,807.1619 647.6406,807.2869 Q646.8906,807.4119 645.875,807.4119 Q643.9531,807.4119 642.6406,806.615 Q641.3438,805.8025 640.6875,804.3337 Q640.0313,802.8494 640.0313,800.8806 Q640.0313,799.4587 640.4219,798.2869 Q640.8281,797.0994 641.6094,796.2244 Q642.3906,795.3494 643.5313,794.8806 Q644.6719,794.3962 646.1406,794.3962 Q647.0938,794.3962 647.9844,794.5994 Q648.8906,794.7869 649.8281,795.2556 L649,797.0369 Q648.2188,796.6619 647.5625,796.4744 Q646.9063,796.2712 646.1094,796.2712 Z " fill="#000000"/><text fill="#000000" font-family="sans-serif" font-size="14" lengthAdjust="spacing" textLength="167" x="660" y="806.172">Skybox_spherical_shader</text><line style="stroke:#181818;stroke-width:0.5;" x1="632" x2="829" y1="816.74" y2="816.74"/><line style="stroke:#181818;stroke-width:0.5;" x1="632" x2="829" y1="824.74" y2="824.74"/></g><!--class Shadow_caster_shader--><g id="elem_Shadow_caster_shader"><rect fill="#F1F1F1" height="48" id="Shadow_caster_shader" rx="2.5" ry="2.5" style="stroke:#181818;stroke-width:0.5;" width="185" x="638" y="895.74"/><ellipse cx="653" cy="911.74" fill="#ADD1B2" rx="11" ry="11" style="stroke:#181818;stroke-width:1.0;"/><path d="M653.1094,907.2712 Q652.1875,907.2712 651.4531,907.5837 Q650.7344,907.8962 650.2344,908.49 Q649.7344,909.0681 649.4531,909.9431 Q649.1875,910.8181 649.1875,911.9119 Q649.1875,913.3494 649.625,914.3962 Q650.0781,915.4431 650.9219,915.99 Q651.7813,916.5369 653.0938,916.5369 Q653.875,916.5369 654.5625,916.4119 Q655.2656,916.2712 656.2656,915.9587 L656.2656,917.8337 Q655.4063,918.1619 654.6406,918.2869 Q653.8906,918.4119 652.875,918.4119 Q650.9531,918.4119 649.6406,917.615 Q648.3438,916.8025 647.6875,915.3337 Q647.0313,913.8494 647.0313,911.8806 Q647.0313,910.4587 647.4219,909.2869 Q647.8281,908.0994 648.6094,907.2244 Q649.3906,906.3494 650.5313,905.8806 Q651.6719,905.3962 653.1406,905.3962 Q654.0938,905.3962 654.9844,905.5994 Q655.8906,905.7869 656.8281,906.2556 L656,908.0369 Q655.2188,907.6619 654.5625,907.4744 Q653.9063,907.2712 653.1094,907.2712 Z " fill="#000000"/><text fill="#000000" font-family="sans-serif" font-size="14" lengthAdjust="spacing" textLength="153" x="667" y="917.172">Shadow_caster_shader</text><line style="stroke:#181818;stroke-width:0.5;" x1="639" x2="822" y1="927.74" y2="927.74"/><line style="stroke:#181818;stroke-width:0.5;" x1="639" x2="822" y1="935.74" y2="935.74"/></g><!--class Gamma_shader--><g id="elem_Gamma_shader"><rect fill="#F1F1F1" height="48" id="Gamma_shader" rx="2.5" ry="2.5" style="stroke:#181818;stroke-width:0.5;" width="137" x="662" y="1026.74"/><ellipse cx="677" cy="1042.74" fill="#ADD1B2" rx="11" ry="11" style="stroke:#181818;stroke-width:1.0;"/><path d="M677.1094,1038.2713 Q676.1875,1038.2713 675.4531,1038.5838 Q674.7344,1038.8963 674.2344,1039.49 Q673.7344,1040.0681 673.4531,1040.9431 Q673.1875,1041.8181 673.1875,1042.9119 Q673.1875,1044.3494 673.625,1045.3963 Q674.0781,1046.4431 674.9219,1046.99 Q675.7813,1047.5369 677.0938,1047.5369 Q677.875,1047.5369 678.5625,1047.4119 Q679.2656,1047.2713 680.2656,1046.9588 L680.2656,1048.8338 Q679.4063,1049.1619 678.6406,1049.2869 Q677.8906,1049.4119 676.875,1049.4119 Q674.9531,1049.4119 673.6406,1048.615 Q672.3438,1047.8025 671.6875,1046.3338 Q671.0313,1044.8494 671.0313,1042.8806 Q671.0313,1041.4588 671.4219,1040.2869 Q671.8281,1039.0994 672.6094,1038.2244 Q673.3906,1037.3494 674.5313,1036.8806 Q675.6719,1036.3963 677.1406,1036.3963 Q678.0938,1036.3963 678.9844,1036.5994 Q679.8906,1036.7869 680.8281,1037.2556 L680,1039.0369 Q679.2188,1038.6619 678.5625,1038.4744 Q677.9063,1038.2713 677.1094,1038.2713 Z " fill="#000000"/><text fill="#000000" font-family="sans-serif" font-size="14" lengthAdjust="spacing" textLength="105" x="691" y="1048.172">Gamma_shader</text><line style="stroke:#181818;stroke-width:0.5;" x1="663" x2="798" y1="1058.74" y2="1058.74"/><line style="stroke:#181818;stroke-width:0.5;" x1="663" x2="798" y1="1066.74" y2="1066.74"/></g><!--reverse link Material to Phong_material--><g id="link_Material_Phong_material"><path codeLine="76" d="M166.2659,783.7836 C208.4959,738.7036 258.3,685.51 311.3,628.93 " fill="none" id="Material-backto-Phong_material" style="stroke:#181818;stroke-width:1.0;"/><polygon fill="none" points="153.96,796.92,170.6447,787.8856,161.8871,779.6816,153.96,796.92" style="stroke:#181818;stroke-width:1.0;"/></g><!--reverse link Material to Skybox_spherical_material--><g id="link_Material_Skybox_spherical_material"><path codeLine="77" d="M218.0173,824.1025 C247.3573,817.4725 262.46,814.07 293.25,807.12 " fill="none" id="Material-backto-Skybox_spherical_material" style="stroke:#181818;stroke-width:1.0;"/><polygon fill="none" points="200.46,828.07,219.3398,829.955,216.6948,818.2501,200.46,828.07" style="stroke:#181818;stroke-width:1.0;"/></g><!--reverse link Material to Shadow_caster_material--><g id="link_Material_Shadow_caster_material"><path codeLine="78" d="M218.019,875.3701 C249.589,882.4901 267.43,886.53 300.22,893.93 " fill="none" id="Material-backto-Shadow_caster_material" style="stroke:#181818;stroke-width:1.0;"/><polygon fill="none" points="200.46,871.41,216.6989,881.2231,219.339,869.5171,200.46,871.41" style="stroke:#181818;stroke-width:1.0;"/></g><!--reverse link Material to Gamma_material--><g id="link_Material_Gamma_material"><path codeLine="79" d="M172.9382,914.5915 C201.4582,940.2215 224.32,958.23 260,980.74 C279.93,993.31 302.49,1004.86 324.09,1014.8 " fill="none" id="Material-backto-Gamma_material" style="stroke:#181818;stroke-width:1.0;"/><polygon fill="none" points="159.55,902.56,168.9277,919.0542,176.9487,910.1288,159.55,902.56" style="stroke:#181818;stroke-width:1.0;"/></g><!--reverse link Phong_material to Shadow_settings--><g id="link_Phong_material_Shadow_settings"><path codeLine="82" d="M493.2162,398.5055 C533.4862,337.3055 579.55,270.66 631,205.74 C635.41,200.17 640.04,194.53 644.78,188.89 " fill="none" id="Phong_material-backto-Shadow_settings" style="stroke:#181818;stroke-width:1.0;"/><polygon fill="none" points="486.62,408.53,493.2596,405.7165,493.2162,398.5055,486.5766,401.319,486.62,408.53" style="stroke:#181818;stroke-width:1.0;"/></g><!--reverse link Phong_material to Phong_material_settings--><g id="link_Phong_material_Phong_material_settings"><path codeLine="83" d="M573.9156,401.5543 C601.7756,380.8143 620.38,366.97 645.43,348.32 " fill="none" id="Phong_material-backto-Phong_material_settings" style="stroke:#181818;stroke-width:1.0;"/><polygon fill="none" points="564.29,408.72,571.4914,408.3457,573.9156,401.5543,566.7143,401.9286,564.29,408.72" style="stroke:#181818;stroke-width:1.0;"/></g><!--reverse link Phong_material to Parallax_settings--><g id="link_Phong_material_Parallax_settings"><path codeLine="84" d="M582.7698,474.6466 C604.1698,468.9766 614.03,466.36 633.93,461.08 " fill="none" id="Phong_material-backto-Parallax_settings" style="stroke:#181818;stroke-width:1.0;"/><polygon fill="none" points="571.17,477.72,577.9943,480.0499,582.7698,474.6466,575.9454,472.3167,571.17,477.72" style="stroke:#181818;stroke-width:1.0;"/></g><!--reverse link Phong_material to Phong_texture_settings--><g id="link_Phong_material_Phong_texture_settings"><path codeLine="85" d="M582.8308,559.1231 C604.8508,564.4731 615.26,567 635.64,571.95 " fill="none" id="Phong_material-backto-Phong_texture_settings" style="stroke:#181818;stroke-width:1.0;"/><polygon fill="none" points="571.17,556.29,576.056,561.5935,582.8308,559.1231,577.9448,553.8196,571.17,556.29" style="stroke:#181818;stroke-width:1.0;"/></g><!--link Phong_material to Phong_shader--><g id="link_Phong_material_Phong_shader"><path codeLine="88" d="M549.02,628.89 C575.36,648.4 603.42,667.6 631,683.74 C641.99,690.17 648.6726,693.7208 660.5926,699.0508 " fill="none" id="Phong_material-to-Phong_shader" style="stroke:#181818;stroke-width:1.0;"/><polygon fill="#181818" points="666.07,701.5,659.4868,694.1746,661.5055,699.459,656.2212,701.4778,666.07,701.5" style="stroke:#181818;stroke-width:1.0;"/></g><!--link Skybox_spherical_material to Skybox_spherical_shader--><g id="link_Skybox_spherical_material_Skybox_spherical_shader"><path codeLine="89" d="M537.96,790.99 C568.72,793.84 595.4056,796.3167 624.8856,799.0467 " fill="none" id="Skybox_spherical_material-to-Skybox_spherical_shader" style="stroke:#181818;stroke-width:1.0;"/><polygon fill="#181818" points="630.86,799.6,622.2672,794.7871,625.8813,799.1389,621.5295,802.7531,630.86,799.6" style="stroke:#181818;stroke-width:1.0;"/></g><!--link Shadow_caster_material to Shadow_caster_shader--><g id="link_Shadow_caster_material_Shadow_caster_shader"><path codeLine="90" d="M530.83,919.74 C566.1,919.74 598.47,919.74 632,919.74 " fill="none" id="Shadow_caster_material-to-Shadow_caster_shader" style="stroke:#181818;stroke-width:1.0;"/><polygon fill="#181818" points="638,919.74,629,915.74,633,919.74,629,923.74,638,919.74" style="stroke:#181818;stroke-width:1.0;"/></g><!--link Gamma_material to Gamma_shader--><g id="link_Gamma_material_Gamma_shader"><path codeLine="91" d="M506.61,1050.74 C556.1,1050.74 610.45,1050.74 655.87,1050.74 " fill="none" id="Gamma_material-to-Gamma_shader" style="stroke:#181818;stroke-width:1.0;"/><polygon fill="#181818" points="661.87,1050.74,652.87,1046.74,656.87,1050.74,652.87,1054.74,661.87,1050.74" style="stroke:#181818;stroke-width:1.0;"/></g><!--SRC=[hLJDZjCm4BxdANm317q3n9KJ4X8F44sJQMFLSIBR5LjW9H0iwdAXfvL0gZZIAonm81AypARjliKwiVDJ9u4YKQbgvvlFuvblPinmeeXAYA3JI96G2WmKJRZdtIBvfv-xBnbv10e51UO53AIiJVBS8_fpTuhALtYYvWBz6DBRTneufIaooj6NIX-gF74Iqid2bn64AFmvfvD4nDfvMjpvE4hub6pNg_stJVx-NNxsOvUzsIvNrwyt-VAjJQ4awSiE4XaPr8GbviSudkZ_oLDVebAKJsNfQzdjqrNCXjn1B1q4C0Od3J5raNRSIg2QxGADQ5QN2K95Q4lwlvGsGhhAM2MjG6CAjWXM38SlwJCqTXfCV04XdSl6LWM7esn14kAKeHyaSwuCYXp61IBZ8pCSQelDL0dWKYkFF5WOP0Rto2pKNrdLGZcjqphYmavZxLLDVmDWw60C5ZfSK-YnXNNcmbu6R8nXKdJPLf5YC6SW6eJhU5gGsWQMHj2O4POjA-noh_GYNMKNPg-gviyMuqINaqPQsw2CTRXG7KBFRhLFf_y-fkua1Y1r3jrC3hpTDFuI_274CNI26hIlfa0WyZyLTDhpF99Tzdbx_Zi_kznTPbwDtdyn6ZbJx3W7- -3oUYLoI8Ub5cdkNttCLqkRblDo9atO-Y7geGmiOI-rymeEnkiyWJfPCw1NlzRxxnUxzSlz-TVymyODCHez8Et7tXkUv88wCCRUmCYLHthcpNEcgE2rH-W6]--></g></svg>