<?xml version="1.0" encoding="us-ascii" standalone="no"?><svg xmlns="http://www.w3.org/2000/svg" xmlns:xlink="http://www.w3.org/1999/xlink" contentStyleType="text/css" height="652px" preserveAspectRatio="none" style="width:1616px;height:652px;background:#FFFFFF;" version="1.1" viewBox="0 0 1616 652" width="1616px" zoomAndPan="magnify"><defs/><g><!--class Component--><g id="elem_Component"><rect codeLine="4" fill="#F1F1F1" height="56.4883" id="Component" rx="2.5" ry="2.5" style="stroke:#181818;stroke-width:0.5;" width="250" x="643.5" y="7"/><ellipse cx="723.75" cy="23" fill="#B4A7E5" rx="11" ry="11" style="stroke:#181818;stroke-width:1.0;"/><path d="M720.1777,19.2651 L720.1777,17.1069 L727.5571,17.1069 L727.5571,19.2651 L725.0918,19.2651 L725.0918,27.3418 L727.5571,27.3418 L727.5571,29.5 L720.1777,29.5 L720.1777,27.3418 L722.6431,27.3418 L722.6431,19.2651 Z " fill="#000000"/><text fill="#000000" font-family="sans-serif" font-size="14" font-style="italic" lengthAdjust="spacing" textLength="81" x="744.25" y="28.291">Component</text><line style="stroke:#181818;stroke-width:0.5;" x1="644.5" x2="892.5" y1="39" y2="39"/><ellipse cx="654.5" cy="52.7441" fill="#84BE84" rx="3" ry="3" style="stroke:#038048;stroke-width:1.0;"/><text fill="#000000" font-family="sans-serif" font-size="14" lengthAdjust="spacing" textLength="224" x="663.5" y="56.5352">Tick(context: Logic_tick_context)</text></g><!--class Logic_tick_context--><g id="elem_Logic_tick_context"><rect codeLine="8" fill="#F1F1F1" height="155.418" id="Logic_tick_context" rx="2.5" ry="2.5" style="stroke:#181818;stroke-width:0.5;" width="235" x="1092" y="489.9"/><ellipse cx="1142.25" cy="505.9" fill="#ADD1B2" rx="11" ry="11" style="stroke:#181818;stroke-width:1.0;"/><path d="M1144.7231,512.0431 Q1144.1421,512.3419 1143.5029,512.4913 Q1142.8638,512.6407 1142.1582,512.6407 Q1139.6514,512.6407 1138.3315,510.9889 Q1137.0117,509.337 1137.0117,506.2159 Q1137.0117,503.0865 1138.3315,501.4347 Q1139.6514,499.7828 1142.1582,499.7828 Q1142.8638,499.7828 1143.5112,499.9322 Q1144.1587,500.0816 1144.7231,500.3805 L1144.7231,503.1031 Q1144.0923,502.5221 1143.4988,502.2523 Q1142.9053,501.9825 1142.2744,501.9825 Q1140.9297,501.9825 1140.2449,503.0492 Q1139.5601,504.1158 1139.5601,506.2159 Q1139.5601,508.3077 1140.2449,509.3744 Q1140.9297,510.441 1142.2744,510.441 Q1142.9053,510.441 1143.4988,510.1712 Q1144.0923,509.9015 1144.7231,509.3204 Z " fill="#000000"/><text fill="#000000" font-family="sans-serif" font-size="14" lengthAdjust="spacing" textLength="126" x="1162.75" y="511.191">Logic_tick_context</text><line style="stroke:#181818;stroke-width:0.5;" x1="1093" x2="1326" y1="521.9" y2="521.9"/><ellipse cx="1103" cy="535.6441" fill="none" rx="3" ry="3" style="stroke:#038048;stroke-width:1.0;"/><text fill="#000000" font-family="sans-serif" font-size="14" lengthAdjust="spacing" textLength="129" x="1112" y="539.4352">CameraViewMatrix</text><ellipse cx="1103" cy="552.1324" fill="none" rx="3" ry="3" style="stroke:#038048;stroke-width:1.0;"/><text fill="#000000" font-family="sans-serif" font-size="14" lengthAdjust="spacing" textLength="166" x="1112" y="555.9234">CameraProjectionMatrix</text><ellipse cx="1103" cy="568.6207" fill="none" rx="3" ry="3" style="stroke:#038048;stroke-width:1.0;"/><text fill="#000000" font-family="sans-serif" font-size="14" lengthAdjust="spacing" textLength="108" x="1112" y="572.4117">CameraPosition</text><ellipse cx="1103" cy="585.109" fill="none" rx="3" ry="3" style="stroke:#038048;stroke-width:1.0;"/><text fill="#000000" font-family="sans-serif" font-size="14" lengthAdjust="spacing" textLength="75" x="1112" y="588.9">LightData[]</text><ellipse cx="1103" cy="601.5973" fill="none" rx="3" ry="3" style="stroke:#038048;stroke-width:1.0;"/><text fill="#000000" font-family="sans-serif" font-size="14" lengthAdjust="spacing" textLength="155" x="1112" y="605.3883">RenderableMeshData[]</text><ellipse cx="1103" cy="618.0855" fill="none" rx="3" ry="3" style="stroke:#038048;stroke-width:1.0;"/><text fill="#000000" font-family="sans-serif" font-size="14" lengthAdjust="spacing" textLength="209" x="1112" y="621.8766">ShadowViewProjectionMatrix[]</text><ellipse cx="1103" cy="634.5738" fill="none" rx="3" ry="3" style="stroke:#038048;stroke-width:1.0;"/><text fill="#000000" font-family="sans-serif" font-size="14" lengthAdjust="spacing" textLength="67" x="1112" y="638.3648">UserInput</text></g><!--class Node_component--><g id="elem_Node_component"><rect codeLine="18" fill="#F1F1F1" height="146.9297" id="Node_component" rx="2.5" ry="2.5" style="stroke:#181818;stroke-width:0.5;" width="273" x="7" y="494.15"/><ellipse cx="78.75" cy="510.15" fill="#ADD1B2" rx="11" ry="11" style="stroke:#181818;stroke-width:1.0;"/><path d="M81.2231,516.2931 Q80.6421,516.5919 80.0029,516.7413 Q79.3638,516.8907 78.6582,516.8907 Q76.1514,516.8907 74.8315,515.2389 Q73.5117,513.587 73.5117,510.4659 Q73.5117,507.3365 74.8315,505.6847 Q76.1514,504.0328 78.6582,504.0328 Q79.3638,504.0328 80.0112,504.1822 Q80.6587,504.3316 81.2231,504.6305 L81.2231,507.3531 Q80.5923,506.7721 79.9988,506.5023 Q79.4053,506.2325 78.7744,506.2325 Q77.4297,506.2325 76.7449,507.2992 Q76.0601,508.3658 76.0601,510.4659 Q76.0601,512.5577 76.7449,513.6244 Q77.4297,514.691 78.7744,514.691 Q79.4053,514.691 79.9988,514.4212 Q80.5923,514.1515 81.2231,513.5704 Z " fill="#000000"/><text fill="#000000" font-family="sans-serif" font-size="14" lengthAdjust="spacing" textLength="121" x="99.25" y="515.441">Node_component</text><line style="stroke:#181818;stroke-width:0.5;" x1="8" x2="279" y1="526.15" y2="526.15"/><rect fill="none" height="6" style="stroke:#C82930;stroke-width:1.0;" width="6" x="15" y="536.8941"/><text fill="#000000" font-family="sans-serif" font-size="14" lengthAdjust="spacing" textLength="79" x="27" y="543.6852">node: Node</text><line style="stroke:#181818;stroke-width:0.5;" x1="8" x2="279" y1="550.6383" y2="550.6383"/><ellipse cx="18" cy="564.3824" fill="#84BE84" rx="3" ry="3" style="stroke:#038048;stroke-width:1.0;"/><text fill="#000000" font-family="sans-serif" font-size="14" lengthAdjust="spacing" textLength="88" x="27" y="568.1734">GetPosition()</text><ellipse cx="18" cy="580.8707" fill="#84BE84" rx="3" ry="3" style="stroke:#038048;stroke-width:1.0;"/><text fill="#000000" font-family="sans-serif" font-size="14" lengthAdjust="spacing" textLength="91" x="27" y="584.6617">GetRotation()</text><ellipse cx="18" cy="597.359" fill="#84BE84" rx="3" ry="3" style="stroke:#038048;stroke-width:1.0;"/><text fill="#000000" font-family="sans-serif" font-size="14" lengthAdjust="spacing" textLength="68" x="27" y="601.15">GetScale()</text><ellipse cx="18" cy="613.8473" fill="#84BE84" rx="3" ry="3" style="stroke:#038048;stroke-width:1.0;"/><text fill="#000000" font-family="sans-serif" font-size="14" lengthAdjust="spacing" textLength="119" x="27" y="617.6383">GetModelMatrix()</text><ellipse cx="18" cy="630.3355" fill="#84BE84" rx="3" ry="3" style="stroke:#038048;stroke-width:1.0;"/><text fill="#000000" font-family="sans-serif" font-size="14" lengthAdjust="spacing" textLength="247" x="27" y="634.1266">SetParent(parent_node_component)</text></g><!--class Camera_component--><g id="elem_Camera_component"><rect codeLine="28" fill="#F1F1F1" height="113.9531" id="Camera_component" rx="2.5" ry="2.5" style="stroke:#181818;stroke-width:0.5;" width="170" x="1266.5" y="298.95"/><ellipse cx="1281.5" cy="314.95" fill="#ADD1B2" rx="11" ry="11" style="stroke:#181818;stroke-width:1.0;"/><path d="M1283.9731,321.0931 Q1283.3921,321.3919 1282.7529,321.5413 Q1282.1138,321.6907 1281.4082,321.6907 Q1278.9014,321.6907 1277.5815,320.0389 Q1276.2617,318.387 1276.2617,315.2659 Q1276.2617,312.1365 1277.5815,310.4847 Q1278.9014,308.8328 1281.4082,308.8328 Q1282.1138,308.8328 1282.7612,308.9822 Q1283.4087,309.1316 1283.9731,309.4305 L1283.9731,312.1531 Q1283.3423,311.5721 1282.7488,311.3023 Q1282.1553,311.0325 1281.5244,311.0325 Q1280.1797,311.0325 1279.4949,312.0992 Q1278.8101,313.1658 1278.8101,315.2659 Q1278.8101,317.3577 1279.4949,318.4244 Q1280.1797,319.491 1281.5244,319.491 Q1282.1553,319.491 1282.7488,319.2212 Q1283.3423,318.9515 1283.9731,318.3704 Z " fill="#000000"/><text fill="#000000" font-family="sans-serif" font-size="14" lengthAdjust="spacing" textLength="138" x="1295.5" y="320.241">Camera_component</text><line style="stroke:#181818;stroke-width:0.5;" x1="1267.5" x2="1435.5" y1="330.95" y2="330.95"/><rect fill="none" height="6" style="stroke:#C82930;stroke-width:1.0;" width="6" x="1274.5" y="341.6941"/><text fill="#000000" font-family="sans-serif" font-size="14" lengthAdjust="spacing" textLength="74" x="1286.5" y="348.4852">viewMatrix</text><rect fill="none" height="6" style="stroke:#C82930;stroke-width:1.0;" width="6" x="1274.5" y="358.1824"/><text fill="#000000" font-family="sans-serif" font-size="14" lengthAdjust="spacing" textLength="114" x="1286.5" y="364.9734">projectionMatrix</text><rect fill="none" height="6" style="stroke:#C82930;stroke-width:1.0;" width="6" x="1274.5" y="374.6707"/><text fill="#000000" font-family="sans-serif" font-size="14" lengthAdjust="spacing" textLength="56" x="1286.5" y="381.4617">position</text><line style="stroke:#181818;stroke-width:0.5;" x1="1267.5" x2="1435.5" y1="388.4148" y2="388.4148"/><ellipse cx="1277.5" cy="402.159" fill="#84BE84" rx="3" ry="3" style="stroke:#038048;stroke-width:1.0;"/><text fill="#000000" font-family="sans-serif" font-size="14" lengthAdjust="spacing" textLength="72" x="1286.5" y="405.95">SetActive()</text></g><!--class Camera_control_component--><g id="elem_Camera_control_component"><rect codeLine="36" fill="#F1F1F1" height="80.9766" id="Camera_control_component" rx="2.5" ry="2.5" style="stroke:#181818;stroke-width:0.5;" width="266" x="1218.5" y="132.73"/><ellipse cx="1251.5" cy="148.73" fill="#ADD1B2" rx="11" ry="11" style="stroke:#181818;stroke-width:1.0;"/><path d="M1253.9731,154.8731 Q1253.3921,155.1719 1252.7529,155.3213 Q1252.1138,155.4707 1251.4082,155.4707 Q1248.9014,155.4707 1247.5815,153.8189 Q1246.2617,152.167 1246.2617,149.0459 Q1246.2617,145.9165 1247.5815,144.2647 Q1248.9014,142.6128 1251.4082,142.6128 Q1252.1138,142.6128 1252.7612,142.7622 Q1253.4087,142.9116 1253.9731,143.2105 L1253.9731,145.9331 Q1253.3423,145.3521 1252.7488,145.0823 Q1252.1553,144.8125 1251.5244,144.8125 Q1250.1797,144.8125 1249.4949,145.8792 Q1248.8101,146.9458 1248.8101,149.0459 Q1248.8101,151.1377 1249.4949,152.2044 Q1250.1797,153.271 1251.5244,153.271 Q1252.1553,153.271 1252.7488,153.0012 Q1253.3423,152.7315 1253.9731,152.1504 Z " fill="#000000"/><text fill="#000000" font-family="sans-serif" font-size="14" lengthAdjust="spacing" textLength="194" x="1269.5" y="154.021">Camera_control_component</text><line style="stroke:#181818;stroke-width:0.5;" x1="1219.5" x2="1483.5" y1="164.73" y2="164.73"/><rect fill="none" height="6" style="stroke:#C82930;stroke-width:1.0;" width="6" x="1226.5" y="175.4741"/><text fill="#000000" font-family="sans-serif" font-size="14" lengthAdjust="spacing" textLength="240" x="1238.5" y="182.2652">targetCamera: Camera_component</text><line style="stroke:#181818;stroke-width:0.5;" x1="1219.5" x2="1483.5" y1="189.2183" y2="189.2183"/><ellipse cx="1229.5" cy="202.9624" fill="#84BE84" rx="3" ry="3" style="stroke:#038048;stroke-width:1.0;"/><text fill="#000000" font-family="sans-serif" font-size="14" lengthAdjust="spacing" textLength="134" x="1238.5" y="206.7534">ProcessInput(input)</text></g><!--class Light_component--><g id="elem_Light_component"><rect codeLine="42" fill="#F1F1F1" height="113.9531" id="Light_component" rx="2.5" ry="2.5" style="stroke:#181818;stroke-width:0.5;" width="300" x="586.5" y="298.95"/><ellipse cx="672.75" cy="314.95" fill="#ADD1B2" rx="11" ry="11" style="stroke:#181818;stroke-width:1.0;"/><path d="M675.2231,321.0931 Q674.6421,321.3919 674.0029,321.5413 Q673.3638,321.6907 672.6582,321.6907 Q670.1514,321.6907 668.8315,320.0389 Q667.5117,318.387 667.5117,315.2659 Q667.5117,312.1365 668.8315,310.4847 Q670.1514,308.8328 672.6582,308.8328 Q673.3638,308.8328 674.0112,308.9822 Q674.6587,309.1316 675.2231,309.4305 L675.2231,312.1531 Q674.5923,311.5721 673.9988,311.3023 Q673.4053,311.0325 672.7744,311.0325 Q671.4297,311.0325 670.7449,312.0992 Q670.0601,313.1658 670.0601,315.2659 Q670.0601,317.3577 670.7449,318.4244 Q671.4297,319.491 672.7744,319.491 Q673.4053,319.491 673.9988,319.2212 Q674.5923,318.9515 675.2231,318.3704 Z " fill="#000000"/><text fill="#000000" font-family="sans-serif" font-size="14" lengthAdjust="spacing" textLength="119" x="693.25" y="320.241">Light_component</text><line style="stroke:#181818;stroke-width:0.5;" x1="587.5" x2="885.5" y1="330.95" y2="330.95"/><rect fill="none" height="6" style="stroke:#C82930;stroke-width:1.0;" width="6" x="594.5" y="341.6941"/><text fill="#000000" font-family="sans-serif" font-size="14" lengthAdjust="spacing" textLength="81" x="606.5" y="348.4852">color: Color</text><rect fill="none" height="6" style="stroke:#C82930;stroke-width:1.0;" width="6" x="594.5" y="358.1824"/><text fill="#000000" font-family="sans-serif" font-size="14" lengthAdjust="spacing" textLength="97" x="606.5" y="364.9734">intensity: float</text><line style="stroke:#181818;stroke-width:0.5;" x1="587.5" x2="885.5" y1="371.9266" y2="371.9266"/><rect fill="#F24D5C" height="6" style="stroke:#C82930;stroke-width:1.0;" width="6" x="594.5" y="382.6707"/><text fill="#000000" font-family="sans-serif" font-size="14" lengthAdjust="spacing" textLength="274" x="606.5" y="389.4617">type: LightType (Directional, Point, Spot)</text><ellipse cx="597.5" cy="402.159" fill="#84BE84" rx="3" ry="3" style="stroke:#038048;stroke-width:1.0;"/><text fill="#000000" font-family="sans-serif" font-size="14" lengthAdjust="spacing" textLength="98" x="606.5" y="405.95">GetLightData()</text></g><!--class Mesh_renderer_component--><g id="elem_Mesh_renderer_component"><rect codeLine="50" fill="#F1F1F1" height="97.4648" id="Mesh_renderer_component" rx="2.5" ry="2.5" style="stroke:#181818;stroke-width:0.5;" width="220" x="331.5" y="307.19"/><ellipse cx="346.5" cy="323.19" fill="#ADD1B2" rx="11" ry="11" style="stroke:#181818;stroke-width:1.0;"/><path d="M348.9731,329.3331 Q348.3921,329.6319 347.7529,329.7813 Q347.1138,329.9307 346.4082,329.9307 Q343.9014,329.9307 342.5815,328.2789 Q341.2617,326.627 341.2617,323.5059 Q341.2617,320.3765 342.5815,318.7247 Q343.9014,317.0728 346.4082,317.0728 Q347.1138,317.0728 347.7612,317.2222 Q348.4087,317.3716 348.9731,317.6705 L348.9731,320.3931 Q348.3423,319.8121 347.7488,319.5423 Q347.1553,319.2725 346.5244,319.2725 Q345.1797,319.2725 344.4949,320.3392 Q343.8101,321.4058 343.8101,323.5059 Q343.8101,325.5977 344.4949,326.6644 Q345.1797,327.731 346.5244,327.731 Q347.1553,327.731 347.7488,327.4612 Q348.3423,327.1915 348.9731,326.6104 Z " fill="#000000"/><text fill="#000000" font-family="sans-serif" font-size="14" lengthAdjust="spacing" textLength="188" x="360.5" y="328.481">Mesh_renderer_component</text><line style="stroke:#181818;stroke-width:0.5;" x1="332.5" x2="550.5" y1="339.19" y2="339.19"/><rect fill="none" height="6" style="stroke:#C82930;stroke-width:1.0;" width="6" x="339.5" y="349.9341"/><text fill="#000000" font-family="sans-serif" font-size="14" lengthAdjust="spacing" textLength="139" x="351.5" y="356.7252">geometry: Geometry</text><rect fill="none" height="6" style="stroke:#C82930;stroke-width:1.0;" width="6" x="339.5" y="366.4224"/><text fill="#000000" font-family="sans-serif" font-size="14" lengthAdjust="spacing" textLength="119" x="351.5" y="373.2134">material: Material</text><line style="stroke:#181818;stroke-width:0.5;" x1="332.5" x2="550.5" y1="380.1666" y2="380.1666"/><ellipse cx="342.5" cy="393.9107" fill="#84BE84" rx="3" ry="3" style="stroke:#038048;stroke-width:1.0;"/><text fill="#000000" font-family="sans-serif" font-size="14" lengthAdjust="spacing" textLength="113" x="351.5" y="397.7017">GetRenderData()</text></g><!--class Shadow_caster_component--><g id="elem_Shadow_caster_component"><rect codeLine="57" fill="#F1F1F1" height="97.4648" id="Shadow_caster_component" rx="2.5" ry="2.5" style="stroke:#181818;stroke-width:0.5;" width="253" x="732" y="124.48"/><ellipse cx="762.3" cy="140.48" fill="#ADD1B2" rx="11" ry="11" style="stroke:#181818;stroke-width:1.0;"/><path d="M764.7731,146.6231 Q764.1921,146.9219 763.5529,147.0713 Q762.9138,147.2207 762.2082,147.2207 Q759.7014,147.2207 758.3815,145.5689 Q757.0617,143.917 757.0617,140.7959 Q757.0617,137.6665 758.3815,136.0147 Q759.7014,134.3628 762.2082,134.3628 Q762.9138,134.3628 763.5612,134.5122 Q764.2087,134.6616 764.7731,134.9605 L764.7731,137.6831 Q764.1423,137.1021 763.5488,136.8323 Q762.9553,136.5625 762.3244,136.5625 Q760.9797,136.5625 760.2949,137.6292 Q759.6101,138.6958 759.6101,140.7959 Q759.6101,142.8877 760.2949,143.9544 Q760.9797,145.021 762.3244,145.021 Q762.9553,145.021 763.5488,144.7512 Q764.1423,144.4815 764.7731,143.9004 Z " fill="#000000"/><text fill="#000000" font-family="sans-serif" font-size="14" lengthAdjust="spacing" textLength="187" x="779.7" y="145.771">Shadow_caster_component</text><line style="stroke:#181818;stroke-width:0.5;" x1="733" x2="984" y1="156.48" y2="156.48"/><rect fill="none" height="6" style="stroke:#C82930;stroke-width:1.0;" width="6" x="740" y="167.2241"/><text fill="#000000" font-family="sans-serif" font-size="14" lengthAdjust="spacing" textLength="227" x="752" y="174.0152">shadowMapViewProjectionMatrix</text><rect fill="none" height="6" style="stroke:#C82930;stroke-width:1.0;" width="6" x="740" y="183.7124"/><text fill="#000000" font-family="sans-serif" font-size="14" lengthAdjust="spacing" textLength="145" x="752" y="190.5034">shadowMapResource</text><line style="stroke:#181818;stroke-width:0.5;" x1="733" x2="984" y1="197.4566" y2="197.4566"/><ellipse cx="743" cy="211.2007" fill="#84BE84" rx="3" ry="3" style="stroke:#038048;stroke-width:1.0;"/><text fill="#000000" font-family="sans-serif" font-size="14" lengthAdjust="spacing" textLength="155" x="752" y="214.9917">GenerateShadowMap()</text></g><!--reverse link Component to Node_component--><g id="link_Component_Node_component"><path d="M625.6136,67.7379 C451.9636,112.6579 162.62,216.66 33.5,442.9 C23.39,460.62 27.34,478.03 38.34,493.94 " fill="none" id="Component-backto-Node_component" style="stroke:#181818;stroke-width:1.0;stroke-dasharray:7.0,7.0;"/><polygon fill="none" points="643.04,63.23,624.111,61.9291,627.1162,73.5467,643.04,63.23" style="stroke:#181818;stroke-width:1.0;"/></g><!--reverse link Component to Camera_component--><g id="link_Component_Camera_component"><path d="M872.7888,69.8407 C917.6588,85.3807 955.61,100.54 1002.5,124.48 C1102.08,175.33 1208.15,248.4 1276.86,298.55 " fill="none" id="Component-backto-Camera_component" style="stroke:#181818;stroke-width:1.0;stroke-dasharray:7.0,7.0;"/><polygon fill="none" points="855.78,63.95,870.8252,75.5103,874.7524,64.1711,855.78,63.95" style="stroke:#181818;stroke-width:1.0;"/></g><!--reverse link Component to Camera_control_component--><g id="link_Component_Camera_control_component"><path d="M911.7798,50.7413 C985.5298,59.6613 1062.28,71.85 1144.5,93.48 C1182.8,103.56 1223.79,118.27 1259.1,132.26 " fill="none" id="Component-backto-Camera_control_component" style="stroke:#181818;stroke-width:1.0;stroke-dasharray:7.0,7.0;"/><polygon fill="none" points="893.91,48.58,911.0593,56.6979,912.5002,44.7847,893.91,48.58" style="stroke:#181818;stroke-width:1.0;"/></g><!--reverse link Component to Light_component--><g id="link_Component_Light_component"><path d="M735.6302,78.3543 C723.6802,94.8743 720.73,102.36 714.5,124.48 C698.21,182.32 708.45,251.19 719.79,298.49 " fill="none" id="Component-backto-Light_component" style="stroke:#181818;stroke-width:1.0;stroke-dasharray:7.0,7.0;"/><polygon fill="none" points="746.18,63.77,730.7688,74.8377,740.4916,81.8709,746.18,63.77" style="stroke:#181818;stroke-width:1.0;"/></g><!--reverse link Component to Mesh_renderer_component--><g id="link_Component_Mesh_renderer_component"><path d="M727.16,76.5237 C671.46,130.8137 560.28,239.17 490.89,306.79 " fill="none" id="Component-backto-Mesh_renderer_component" style="stroke:#181818;stroke-width:1.0;stroke-dasharray:7.0,7.0;"/><polygon fill="none" points="740.05,63.96,722.9721,72.2271,731.3479,80.8204,740.05,63.96" style="stroke:#181818;stroke-width:1.0;"/></g><!--reverse link Component to Shadow_caster_component--><g id="link_Component_Shadow_caster_component"><path d="M796.6505,78.7662 C808.1105,96.0662 813.26,103.87 826.65,124.1 " fill="none" id="Component-backto-Shadow_caster_component" style="stroke:#181818;stroke-width:1.0;stroke-dasharray:7.0,7.0;"/><polygon fill="none" points="786.71,63.76,791.6485,82.0797,801.6526,75.4527,786.71,63.76" style="stroke:#181818;stroke-width:1.0;"/></g><!--link Mesh_renderer_component to Node_component--><g id="link_Mesh_renderer_component_Node_component"><path codeLine="65" d="M331.24,365.91 C227.93,376.89 84.33,399.61 49.5,442.9 C36.4,459.19 36.5241,471.9495 47.7041,488.8095 " fill="none" id="Mesh_renderer_component-to-Node_component" style="stroke:#181818;stroke-width:1.0;stroke-dasharray:7.0,7.0;"/><polygon fill="#181818" points="51.02,493.81,49.3799,484.0987,48.2568,489.6429,42.7125,488.5198,51.02,493.81" style="stroke:#181818;stroke-width:1.0;"/><text fill="#000000" font-family="sans-serif" font-size="13" lengthAdjust="spacing" textLength="139" x="50.5" y="456.4684">uses for model matrix</text></g><!--link Light_component to Node_component--><g id="link_Light_component_Node_component"><path codeLine="66" d="M586.29,409.08 C580.65,410.46 575.04,411.75 569.5,412.9 C495.47,428.36 296.02,405.12 230.5,442.9 C209.69,454.9 195.9949,469.1556 182.6749,488.9056 " fill="none" id="Light_component-to-Node_component" style="stroke:#181818;stroke-width:1.0;stroke-dasharray:7.0,7.0;"/><polygon fill="#181818" points="179.32,493.88,187.6686,488.655,182.1157,489.7347,181.0361,484.1818,179.32,493.88" style="stroke:#181818;stroke-width:1.0;"/><text fill="#000000" font-family="sans-serif" font-size="13" lengthAdjust="spacing" textLength="170" x="231.5" y="456.4684">uses for position/direction</text></g><!--link Camera_component to Node_component--><g id="link_Camera_component_Node_component"><path codeLine="67" d="M1266.04,402.73 C1257.22,406.51 1248.27,410 1239.5,412.9 C1211.22,422.27 1004.95,455.39 975.5,459.9 C731.32,497.27 451.41,531.2784 286.3,550.4384 " fill="none" id="Camera_component-to-Node_component" style="stroke:#181818;stroke-width:1.0;stroke-dasharray:7.0,7.0;"/><polygon fill="#181818" points="280.34,551.13,289.7411,554.0659,285.3067,550.5536,288.8189,546.1192,280.34,551.13" style="stroke:#181818;stroke-width:1.0;"/><text fill="#000000" font-family="sans-serif" font-size="13" lengthAdjust="spacing" textLength="170" x="1080.89" y="456.4684">uses for position/direction</text></g><!--link Camera_control_component to Camera_component--><g id="link_Camera_control_component_Camera_component"><path codeLine="69" d="M1351.5,213.87 C1351.5,238.7 1351.5,265.09 1351.5,292.56 " fill="none" id="Camera_control_component-to-Camera_component" style="stroke:#181818;stroke-width:1.0;stroke-dasharray:7.0,7.0;"/><polygon fill="#181818" points="1351.5,298.56,1355.5,289.56,1351.5,293.56,1347.5,289.56,1351.5,298.56" style="stroke:#181818;stroke-width:1.0;"/><text fill="#000000" font-family="sans-serif" font-size="13" lengthAdjust="spacing" textLength="52" x="1352.5" y="265.5184">controls</text></g><!--link Camera_control_component to Logic_tick_context--><g id="link_Camera_control_component_Logic_tick_context"><path codeLine="70" d="M1394.89,213.79 C1452.27,271.02 1539.98,378.87 1484.5,459.9 C1449.13,511.56 1390.6656,536.8252 1333.1356,550.5752 " fill="none" id="Camera_control_component-to-Logic_tick_context" style="stroke:#181818;stroke-width:1.0;stroke-dasharray:7.0,7.0;"/><polygon fill="#181818" points="1327.3,551.97,1336.9833,553.7683,1332.163,550.8077,1335.1236,545.9874,1327.3,551.97" style="stroke:#181818;stroke-width:1.0;"/><text fill="#000000" font-family="sans-serif" font-size="13" lengthAdjust="spacing" textLength="105" x="1503.18" y="360.9984">reads input from</text></g><!--link Camera_component to Logic_tick_context--><g id="link_Camera_component_Logic_tick_context"><path codeLine="72" d="M1296.88,413.01 C1288.61,422.64 1280.51,432.81 1273.5,442.9 C1263.43,457.4 1256.7263,468.3974 1248.2463,484.2774 " fill="none" id="Camera_component-to-Logic_tick_context" style="stroke:#181818;stroke-width:1.0;stroke-dasharray:7.0,7.0;"/><polygon fill="#181818" points="1245.42,489.57,1253.1879,483.5152,1247.7752,485.1595,1246.131,479.7468,1245.42,489.57" style="stroke:#181818;stroke-width:1.0;"/><text fill="#000000" font-family="sans-serif" font-size="13" lengthAdjust="spacing" textLength="205" x="1274.5" y="456.4684">writes View/Proj Matrix, Position</text></g><!--link Light_component to Logic_tick_context--><g id="link_Light_component_Logic_tick_context"><path codeLine="73" d="M773.26,413.13 C786.9,430.29 803.7,447.8 822.5,459.9 C903.95,512.34 1005.134,538.2993 1086.004,551.9793 " fill="none" id="Light_component-to-Logic_tick_context" style="stroke:#181818;stroke-width:1.0;stroke-dasharray:7.0,7.0;"/><polygon fill="#181818" points="1091.92,552.98,1083.7132,547.5349,1086.99,552.146,1082.3789,555.4229,1091.92,552.98" style="stroke:#181818;stroke-width:1.0;"/><text fill="#000000" font-family="sans-serif" font-size="13" lengthAdjust="spacing" textLength="147" x="823.5" y="456.4684">writes Light Parameters</text></g><!--link Mesh_renderer_component to Logic_tick_context--><g id="link_Mesh_renderer_component_Logic_tick_context"><path codeLine="74" d="M435.78,404.9 C436.15,424.4 440.46,445.65 454.5,459.9 C541.08,547.78 895.7605,564.1822 1085.5505,566.6422 " fill="none" id="Mesh_renderer_component-to-Logic_tick_context" style="stroke:#181818;stroke-width:1.0;stroke-dasharray:7.0,7.0;"/><polygon fill="#181818" points="1091.55,566.72,1082.6026,562.6037,1086.5504,566.6552,1082.4989,570.603,1091.55,566.72" style="stroke:#181818;stroke-width:1.0;"/><text fill="#000000" font-family="sans-serif" font-size="13" lengthAdjust="spacing" textLength="338" x="455.5" y="456.4684">writes Render Data (Model Matrix, Material, Geometry)</text></g><!--link Shadow_caster_component to Logic_tick_context--><g id="link_Shadow_caster_component_Logic_tick_context"><path codeLine="75" d="M977.43,222.27 C989.47,230.78 1000.53,240.62 1009.5,251.95 C1055.24,309.75 996.61,361.56 1049.5,412.9 C1094.53,456.62 1143.97,397.68 1187.5,442.9 C1199.6,455.47 1205.1001,466.3892 1208.5701,483.5392 " fill="none" id="Shadow_caster_component-to-Logic_tick_context" style="stroke:#181818;stroke-width:1.0;stroke-dasharray:7.0,7.0;"/><polygon fill="#181818" points="1209.76,489.42,1211.8957,479.8055,1208.7684,484.5193,1204.0546,481.392,1209.76,489.42" style="stroke:#181818;stroke-width:1.0;"/><text fill="#000000" font-family="sans-serif" font-size="13" lengthAdjust="spacing" textLength="198" x="1050.5" y="360.9984">writes Shadow View/Proj Matrix</text></g><!--link Shadow_caster_component to Light_component--><g id="link_Shadow_caster_component_Light_component"><path codeLine="76" d="M758.29,222.26 C748.43,230.81 739.77,240.67 733.5,251.95 C725.72,265.94 723.4752,276.7463 724.2052,292.6663 " fill="none" id="Shadow_caster_component-to-Light_component" style="stroke:#181818;stroke-width:1.0;stroke-dasharray:7.0,7.0;"/><polygon fill="#181818" points="724.48,298.66,728.0635,289.4862,724.251,293.6652,720.0719,289.8527,724.48,298.66" style="stroke:#181818;stroke-width:1.0;"/><text fill="#000000" font-family="sans-serif" font-size="13" lengthAdjust="spacing" textLength="270" x="734.5" y="265.5184">cooperates with (for shadow camera setup)</text></g><!--SRC=[dLLDRzim3BtdLn0vELZQ0ZlwC61eWM90CmHnjyim6AhC95ejIv2Kfi6m_pvALfpu8n_e9JOeyl69Zy-nhwBIp309N4cjAgnSvdObmaQMdqThKI2Wr6u74kKB6ZiQ0OZAeLaoZd2_hu6_50Vu1C-2loPSKSQxI-59hGJF7SNo69jGtZyFmajcxK12WtJF91hsK-1snfmHxwtmtAW_o9rGrT2Xii8VnU2JMAtT0tFir-yOMM1LKDvBYJEqwzPHjcQ5slgktHPDoW-BvbkbDwvzbU-gmBmP8WYfIvJqPdjJke6ASjDG4J4VqUrP9vD3RA4SwyOopaey3im8fgmvDk6Cy9YXbeaEZxngiOigDDphkLtB_gsjoGte8JKetDQ1E7sbfBUQ_63xoXbLNal3CRD2LzUclIl4fgGYHsk3NedmlztcOJskxhdJ95meUQPNI1w4gM_EoYdC5LbZ2fbMRX8Bk2gL8NR-4KFUFXLDPfV2ibJC7PHiDhKt8R-dkGbhY-PQiYjK4fsXFe_nBHv8HWOMh4nX5j-ELYuq6IHHUoFdpBhhITXGD6Dwo5FTd0LQjJ7yu8gAD7MOxSyRIlGuDPBRsozTBwOmtbYqi5G6f7UBdm2r7nDCL_uBvVkTlYlsmdkGddy-W78Cq_M1X-lr8C2OQSUNYWU-irHka1KMWYjWQPHiaxXSlpN2qOsyidTUMgXLzKQextTgm6VXGW7C_PyIqgA5ovqJ-onOlSxWzncIyALiIEvtVzhOO-9RdThoYwtgmjuqBc9svXDaLJeileMjS6j8_CxK9W4Uv06BRgCdu_y0]--></g></svg>