<?xml version="1.0" encoding="us-ascii" standalone="no"?><svg xmlns="http://www.w3.org/2000/svg" xmlns:xlink="http://www.w3.org/1999/xlink" contentStyleType="text/css" height="693px" preserveAspectRatio="none" style="width:1221px;height:693px;background:#FFFFFF;" version="1.1" viewBox="0 0 1221 693" width="1221px" zoomAndPan="magnify"><defs/><g><text fill="#000000" font-family="sans-serif" font-size="14" font-weight="bold" lengthAdjust="spacing" textLength="101.0625" x="552.9688" y="24.9659">&#25668;&#20687;&#26426;&#25511;&#21046;&#31995;&#32479;</text><!--class Component_base--><g id="elem_Component_base"><rect codeLine="5" fill="#F1F1F1" height="48" id="Component_base" rx="2.5" ry="2.5" style="stroke:#181818;stroke-width:0.5;" width="139" x="585.5" y="435.6179"/><ellipse cx="600.5" cy="451.6179" fill="#A9DCDF" rx="11" ry="11" style="stroke:#181818;stroke-width:1.0;"/><path d="M603.8438,456.8679 L602.375,453.1179 L597.9375,453.1179 L596.5,456.8679 L594.375,456.8679 L599.3281,444.1492 L601.0781,444.1492 L606,456.8679 L603.8438,456.8679 Z M600.5,447.9148 Q600.4531,447.7585 600.3281,447.3992 Q600.2031,447.0398 600.0938,446.6648 Q599.9844,446.2742 600.1875,446.2117 Q600.3438,446.3992 600.25,446.7585 Q600.1563,447.1023 600.0625,447.3992 Q599.9688,447.6804 599.8906,447.9148 L598.6563,451.2273 L601.7344,451.2273 L600.5,447.9148 Z " fill="#000000"/><text fill="#000000" font-family="sans-serif" font-size="14" font-style="italic" lengthAdjust="spacing" textLength="107" x="614.5" y="457.0499">Component_base</text><line style="stroke:#181818;stroke-width:0.5;" x1="586.5" x2="723.5" y1="467.6179" y2="467.6179"/><line style="stroke:#181818;stroke-width:0.5;" x1="586.5" x2="723.5" y1="475.6179" y2="475.6179"/></g><!--class Camera_control--><g id="elem_Camera_control"><rect codeLine="10" fill="#F1F1F1" height="200.5433" id="Camera_control" rx="2.5" ry="2.5" style="stroke:#181818;stroke-width:0.5;" width="427" x="123.5" y="359.3479"/><ellipse cx="282.75" cy="375.3479" fill="#A9DCDF" rx="11" ry="11" style="stroke:#181818;stroke-width:1.0;"/><path d="M286.0938,380.5979 L284.625,376.8479 L280.1875,376.8479 L278.75,380.5979 L276.625,380.5979 L281.5781,367.8792 L283.3281,367.8792 L288.25,380.5979 L286.0938,380.5979 Z M282.75,371.6448 Q282.7031,371.4885 282.5781,371.1292 Q282.4531,370.7698 282.3438,370.3948 Q282.2344,370.0042 282.4375,369.9417 Q282.5938,370.1292 282.5,370.4885 Q282.4063,370.8323 282.3125,371.1292 Q282.2188,371.4104 282.1406,371.6448 L280.9063,374.9573 L283.9844,374.9573 L282.75,371.6448 Z " fill="#000000"/><text fill="#000000" font-family="sans-serif" font-size="14" font-style="italic" lengthAdjust="spacing" textLength="100" x="303.25" y="380.7799">Camera_control</text><line style="stroke:#181818;stroke-width:0.5;" x1="124.5" x2="549.5" y1="391.3479" y2="391.3479"/><ellipse cx="134.5" cy="406.3819" fill="none" rx="3" ry="3" style="stroke:#038048;stroke-width:1.0;"/><text fill="#000000" font-family="sans-serif" font-size="14" lengthAdjust="spacing" textLength="401" x="143.5" y="410.3139">std::shared_ptr&lt;Camera&gt; camera_ptr ' &#25345;&#26377;&#30340;&#25668;&#20687;&#26426;&#20849;&#20139;&#25351;&#38024;</text><ellipse cx="134.5" cy="425.4498" fill="none" rx="3" ry="3" style="stroke:#038048;stroke-width:1.0;"/><text fill="#000000" font-family="sans-serif" font-size="14" lengthAdjust="spacing" textLength="257" x="143.5" y="429.3818">float move_sensitivity ' &#31227;&#21160;&#36895;&#24230;/&#25935;&#24863;&#24230;</text><ellipse cx="134.5" cy="444.5177" fill="none" rx="3" ry="3" style="stroke:#038048;stroke-width:1.0;"/><text fill="#000000" font-family="sans-serif" font-size="14" lengthAdjust="spacing" textLength="274" x="143.5" y="448.4497">float rotation_sensitivity ' &#26059;&#36716;&#36895;&#24230;/&#25935;&#24863;&#24230;</text><ellipse cx="134.5" cy="463.5856" fill="none" rx="3" ry="3" style="stroke:#038048;stroke-width:1.0;"/><text fill="#000000" font-family="sans-serif" font-size="14" lengthAdjust="spacing" textLength="257" x="143.5" y="467.5176">float zoom_sensitivity ' &#32553;&#25918;&#36895;&#24230;/&#25935;&#24863;&#24230;</text><line style="stroke:#181818;stroke-width:0.5;" x1="124.5" x2="549.5" y1="475.6196" y2="475.6196"/><ellipse cx="134.5" cy="490.6535" fill="#84BE84" rx="3" ry="3" style="stroke:#038048;stroke-width:1.0;"/><text fill="#000000" font-family="sans-serif" font-size="14" lengthAdjust="spacing" textLength="400" x="143.5" y="494.5855">ControlType control_type ' &#25511;&#21046;&#31867;&#22411; (&#20363;&#22914;&#65306;&#36712;&#36857;&#29699;&#65292;&#31532;&#19968;&#20154;&#31216;)</text><ellipse cx="134.5" cy="509.7215" fill="#84BE84" rx="3" ry="3" style="stroke:#038048;stroke-width:1.0;"/><text fill="#000000" font-family="sans-serif" font-size="14" font-style="italic" lengthAdjust="spacing" textLength="220" x="143.5" y="513.6534">pitch(angle: float) ' &#20463;&#20208;&#35282;&#25511;&#21046;&#25509;&#21475;</text><ellipse cx="134.5" cy="528.7894" fill="#84BE84" rx="3" ry="3" style="stroke:#038048;stroke-width:1.0;"/><text fill="#000000" font-family="sans-serif" font-size="14" font-style="italic" lengthAdjust="spacing" textLength="214" x="143.5" y="532.7214">yaw(angle: float) ' &#20559;&#33322;&#35282;&#25511;&#21046;&#25509;&#21475;</text><ellipse cx="134.5" cy="547.8573" fill="#84BE84" rx="3" ry="3" style="stroke:#038048;stroke-width:1.0;"/><text fill="#000000" font-family="sans-serif" font-size="14" font-style="italic" lengthAdjust="spacing" textLength="326" x="143.5" y="551.7893">tick(delta_time: float) ' &#26681;&#25454;&#29992;&#25143;&#36755;&#20837;&#26356;&#26032;&#25668;&#20687;&#26426;&#23039;&#24577;</text></g><!--class Trackball_Camera_control--><g id="elem_Trackball_Camera_control"><rect codeLine="25" fill="#F1F1F1" height="105.2038" id="Trackball_Camera_control" rx="2.5" ry="2.5" style="stroke:#181818;stroke-width:0.5;" width="204" x="7" y="175.1379"/><ellipse cx="22" cy="191.1379" fill="#ADD1B2" rx="11" ry="11" style="stroke:#181818;stroke-width:1.0;"/><path d="M22.1094,186.6692 Q21.1875,186.6692 20.4531,186.9817 Q19.7344,187.2942 19.2344,187.8879 Q18.7344,188.466 18.4531,189.341 Q18.1875,190.216 18.1875,191.3098 Q18.1875,192.7473 18.625,193.7942 Q19.0781,194.841 19.9219,195.3879 Q20.7813,195.9348 22.0938,195.9348 Q22.875,195.9348 23.5625,195.8098 Q24.2656,195.6692 25.2656,195.3567 L25.2656,197.2317 Q24.4063,197.5598 23.6406,197.6848 Q22.8906,197.8098 21.875,197.8098 Q19.9531,197.8098 18.6406,197.0129 Q17.3438,196.2004 16.6875,194.7317 Q16.0313,193.2473 16.0313,191.2785 Q16.0313,189.8567 16.4219,188.6848 Q16.8281,187.4973 17.6094,186.6223 Q18.3906,185.7473 19.5313,185.2785 Q20.6719,184.7942 22.1406,184.7942 Q23.0938,184.7942 23.9844,184.9973 Q24.8906,185.1848 25.8281,185.6535 L25,187.4348 Q24.2188,187.0598 23.5625,186.8723 Q22.9063,186.6692 22.1094,186.6692 Z " fill="#000000"/><text fill="#000000" font-family="sans-serif" font-size="14" lengthAdjust="spacing" textLength="172" x="36" y="196.5699">Trackball_Camera_control</text><line style="stroke:#181818;stroke-width:0.5;" x1="8" x2="210" y1="207.1379" y2="207.1379"/><line style="stroke:#181818;stroke-width:0.5;" x1="8" x2="210" y1="215.1379" y2="215.1379"/><ellipse cx="18" cy="230.1719" fill="#84BE84" rx="3" ry="3" style="stroke:#038048;stroke-width:1.0;"/><text fill="#000000" font-family="sans-serif" font-size="14" lengthAdjust="spacing" textLength="118" x="27" y="234.1039">pitch(angle: float)</text><ellipse cx="18" cy="249.2398" fill="#84BE84" rx="3" ry="3" style="stroke:#038048;stroke-width:1.0;"/><text fill="#000000" font-family="sans-serif" font-size="14" lengthAdjust="spacing" textLength="110" x="27" y="253.1718">yaw(angle: float)</text><ellipse cx="18" cy="268.3077" fill="#84BE84" rx="3" ry="3" style="stroke:#038048;stroke-width:1.0;"/><text fill="#000000" font-family="sans-serif" font-size="14" lengthAdjust="spacing" textLength="139" x="27" y="272.2397">tick(delta_time: float)</text></g><!--class Game_Camera_control--><g id="elem_Game_Camera_control"><rect codeLine="34" fill="#F1F1F1" height="105.2038" id="Game_Camera_control" rx="2.5" ry="2.5" style="stroke:#181818;stroke-width:0.5;" width="182" x="246" y="175.1379"/><ellipse cx="261" cy="191.1379" fill="#ADD1B2" rx="11" ry="11" style="stroke:#181818;stroke-width:1.0;"/><path d="M261.1094,186.6692 Q260.1875,186.6692 259.4531,186.9817 Q258.7344,187.2942 258.2344,187.8879 Q257.7344,188.466 257.4531,189.341 Q257.1875,190.216 257.1875,191.3098 Q257.1875,192.7473 257.625,193.7942 Q258.0781,194.841 258.9219,195.3879 Q259.7813,195.9348 261.0938,195.9348 Q261.875,195.9348 262.5625,195.8098 Q263.2656,195.6692 264.2656,195.3567 L264.2656,197.2317 Q263.4063,197.5598 262.6406,197.6848 Q261.8906,197.8098 260.875,197.8098 Q258.9531,197.8098 257.6406,197.0129 Q256.3438,196.2004 255.6875,194.7317 Q255.0313,193.2473 255.0313,191.2785 Q255.0313,189.8567 255.4219,188.6848 Q255.8281,187.4973 256.6094,186.6223 Q257.3906,185.7473 258.5313,185.2785 Q259.6719,184.7942 261.1406,184.7942 Q262.0938,184.7942 262.9844,184.9973 Q263.8906,185.1848 264.8281,185.6535 L264,187.4348 Q263.2188,187.0598 262.5625,186.8723 Q261.9063,186.6692 261.1094,186.6692 Z " fill="#000000"/><text fill="#000000" font-family="sans-serif" font-size="14" lengthAdjust="spacing" textLength="150" x="275" y="196.5699">Game_Camera_control</text><line style="stroke:#181818;stroke-width:0.5;" x1="247" x2="427" y1="207.1379" y2="207.1379"/><line style="stroke:#181818;stroke-width:0.5;" x1="247" x2="427" y1="215.1379" y2="215.1379"/><ellipse cx="257" cy="230.1719" fill="#84BE84" rx="3" ry="3" style="stroke:#038048;stroke-width:1.0;"/><text fill="#000000" font-family="sans-serif" font-size="14" lengthAdjust="spacing" textLength="118" x="266" y="234.1039">pitch(angle: float)</text><ellipse cx="257" cy="249.2398" fill="#84BE84" rx="3" ry="3" style="stroke:#038048;stroke-width:1.0;"/><text fill="#000000" font-family="sans-serif" font-size="14" lengthAdjust="spacing" textLength="110" x="266" y="253.1718">yaw(angle: float)</text><ellipse cx="257" cy="268.3077" fill="#84BE84" rx="3" ry="3" style="stroke:#038048;stroke-width:1.0;"/><text fill="#000000" font-family="sans-serif" font-size="14" lengthAdjust="spacing" textLength="139" x="266" y="272.2397">tick(delta_time: float)</text></g><!--class Camera_control_component--><g id="elem_Camera_control_component"><rect codeLine="43" fill="#F1F1F1" height="86.1358" id="Camera_control_component" rx="2.5" ry="2.5" style="stroke:#181818;stroke-width:0.5;" width="580" x="463" y="184.6779"/><ellipse cx="655.25" cy="200.6779" fill="#ADD1B2" rx="11" ry="11" style="stroke:#181818;stroke-width:1.0;"/><path d="M655.3594,196.2092 Q654.4375,196.2092 653.7031,196.5217 Q652.9844,196.8342 652.4844,197.4279 Q651.9844,198.006 651.7031,198.881 Q651.4375,199.756 651.4375,200.8498 Q651.4375,202.2873 651.875,203.3342 Q652.3281,204.381 653.1719,204.9279 Q654.0313,205.4748 655.3438,205.4748 Q656.125,205.4748 656.8125,205.3498 Q657.5156,205.2092 658.5156,204.8967 L658.5156,206.7717 Q657.6563,207.0998 656.8906,207.2248 Q656.1406,207.3498 655.125,207.3498 Q653.2031,207.3498 651.8906,206.5529 Q650.5938,205.7404 649.9375,204.2717 Q649.2813,202.7873 649.2813,200.8185 Q649.2813,199.3967 649.6719,198.2248 Q650.0781,197.0373 650.8594,196.1623 Q651.6406,195.2873 652.7813,194.8185 Q653.9219,194.3342 655.3906,194.3342 Q656.3438,194.3342 657.2344,194.5373 Q658.1406,194.7248 659.0781,195.1935 L658.25,196.9748 Q657.4688,196.5998 656.8125,196.4123 Q656.1563,196.2092 655.3594,196.2092 Z " fill="#000000"/><text fill="#000000" font-family="sans-serif" font-size="14" lengthAdjust="spacing" textLength="187" x="675.75" y="206.1099">Camera_control_component</text><line style="stroke:#181818;stroke-width:0.5;" x1="464" x2="1042" y1="216.6779" y2="216.6779"/><rect fill="none" height="6" style="stroke:#C82930;stroke-width:1.0;" width="6" x="471" y="228.7119"/><text fill="#000000" font-family="sans-serif" font-size="14" lengthAdjust="spacing" textLength="554" x="483" y="235.6439">std::shared_ptr&lt;Camera_control&gt; controller_ptr ' &#38598;&#25104;&#24182;&#39537;&#21160;&#30340; Camera_control &#23454;&#20363;</text><line style="stroke:#181818;stroke-width:0.5;" x1="464" x2="1042" y1="243.7458" y2="243.7458"/><ellipse cx="474" cy="258.7798" fill="#84BE84" rx="3" ry="3" style="stroke:#038048;stroke-width:1.0;"/><text fill="#000000" font-family="sans-serif" font-size="14" lengthAdjust="spacing" textLength="388" x="483" y="262.7118">tick(delta_time: float) ' &#27599;&#24103;&#35843;&#29992;&#65292;&#39537;&#21160;&#25511;&#21046;&#22120;&#26356;&#26032;&#25668;&#20687;&#26426;&#29366;&#24577;</text></g><!--class Trackball_camera_control_component--><g id="elem_Trackball_camera_control_component"><rect codeLine="52" fill="#F1F1F1" height="67.0679" id="Trackball_camera_control_component" rx="2.5" ry="2.5" style="stroke:#181818;stroke-width:0.5;" width="284" x="457" y="47.0679"/><ellipse cx="472" cy="63.0679" fill="#ADD1B2" rx="11" ry="11" style="stroke:#181818;stroke-width:1.0;"/><path d="M472.1094,58.5992 Q471.1875,58.5992 470.4531,58.9117 Q469.7344,59.2242 469.2344,59.8179 Q468.7344,60.396 468.4531,61.271 Q468.1875,62.146 468.1875,63.2398 Q468.1875,64.6773 468.625,65.7242 Q469.0781,66.771 469.9219,67.3179 Q470.7813,67.8648 472.0938,67.8648 Q472.875,67.8648 473.5625,67.7398 Q474.2656,67.5992 475.2656,67.2867 L475.2656,69.1617 Q474.4063,69.4898 473.6406,69.6148 Q472.8906,69.7398 471.875,69.7398 Q469.9531,69.7398 468.6406,68.9429 Q467.3438,68.1304 466.6875,66.6617 Q466.0313,65.1773 466.0313,63.2085 Q466.0313,61.7867 466.4219,60.6148 Q466.8281,59.4273 467.6094,58.5523 Q468.3906,57.6773 469.5313,57.2085 Q470.6719,56.7242 472.1406,56.7242 Q473.0938,56.7242 473.9844,56.9273 Q474.8906,57.1148 475.8281,57.5835 L475,59.3648 Q474.2188,58.9898 473.5625,58.8023 Q472.9063,58.5992 472.1094,58.5992 Z " fill="#000000"/><text fill="#000000" font-family="sans-serif" font-size="14" lengthAdjust="spacing" textLength="252" x="486" y="68.4999">Trackball_camera_control_component</text><line style="stroke:#181818;stroke-width:0.5;" x1="458" x2="740" y1="79.0679" y2="79.0679"/><line style="stroke:#181818;stroke-width:0.5;" x1="458" x2="740" y1="87.0679" y2="87.0679"/><ellipse cx="468" cy="102.1019" fill="#84BE84" rx="3" ry="3" style="stroke:#038048;stroke-width:1.0;"/><text fill="#000000" font-family="sans-serif" font-size="14" lengthAdjust="spacing" textLength="194" x="477" y="106.0339">on_attached_to_gameobject()</text></g><!--class Game_camera_control_component--><g id="elem_Game_camera_control_component"><rect codeLine="59" fill="#F1F1F1" height="67.0679" id="Game_camera_control_component" rx="2.5" ry="2.5" style="stroke:#181818;stroke-width:0.5;" width="262" x="776" y="47.0679"/><ellipse cx="791" cy="63.0679" fill="#ADD1B2" rx="11" ry="11" style="stroke:#181818;stroke-width:1.0;"/><path d="M791.1094,58.5992 Q790.1875,58.5992 789.4531,58.9117 Q788.7344,59.2242 788.2344,59.8179 Q787.7344,60.396 787.4531,61.271 Q787.1875,62.146 787.1875,63.2398 Q787.1875,64.6773 787.625,65.7242 Q788.0781,66.771 788.9219,67.3179 Q789.7813,67.8648 791.0938,67.8648 Q791.875,67.8648 792.5625,67.7398 Q793.2656,67.5992 794.2656,67.2867 L794.2656,69.1617 Q793.4063,69.4898 792.6406,69.6148 Q791.8906,69.7398 790.875,69.7398 Q788.9531,69.7398 787.6406,68.9429 Q786.3438,68.1304 785.6875,66.6617 Q785.0313,65.1773 785.0313,63.2085 Q785.0313,61.7867 785.4219,60.6148 Q785.8281,59.4273 786.6094,58.5523 Q787.3906,57.6773 788.5313,57.2085 Q789.6719,56.7242 791.1406,56.7242 Q792.0938,56.7242 792.9844,56.9273 Q793.8906,57.1148 794.8281,57.5835 L794,59.3648 Q793.2188,58.9898 792.5625,58.8023 Q791.9063,58.5992 791.1094,58.5992 Z " fill="#000000"/><text fill="#000000" font-family="sans-serif" font-size="14" lengthAdjust="spacing" textLength="230" x="805" y="68.4999">Game_camera_control_component</text><line style="stroke:#181818;stroke-width:0.5;" x1="777" x2="1037" y1="79.0679" y2="79.0679"/><line style="stroke:#181818;stroke-width:0.5;" x1="777" x2="1037" y1="87.0679" y2="87.0679"/><ellipse cx="787" cy="102.1019" fill="#84BE84" rx="3" ry="3" style="stroke:#038048;stroke-width:1.0;"/><text fill="#000000" font-family="sans-serif" font-size="14" lengthAdjust="spacing" textLength="194" x="796" y="106.0339">on_attached_to_gameobject()</text></g><!--class Camera--><g id="elem_Camera"><rect codeLine="66" fill="#F1F1F1" height="48" id="Camera" rx="2.5" ry="2.5" style="stroke:#181818;stroke-width:0.5;" width="84" x="619" y="638.8879"/><ellipse cx="634" cy="654.8879" fill="#ADD1B2" rx="11" ry="11" style="stroke:#181818;stroke-width:1.0;"/><path d="M634.1094,650.4192 Q633.1875,650.4192 632.4531,650.7317 Q631.7344,651.0442 631.2344,651.6379 Q630.7344,652.216 630.4531,653.091 Q630.1875,653.966 630.1875,655.0598 Q630.1875,656.4973 630.625,657.5442 Q631.0781,658.591 631.9219,659.1379 Q632.7813,659.6848 634.0938,659.6848 Q634.875,659.6848 635.5625,659.5598 Q636.2656,659.4192 637.2656,659.1067 L637.2656,660.9817 Q636.4063,661.3098 635.6406,661.4348 Q634.8906,661.5598 633.875,661.5598 Q631.9531,661.5598 630.6406,660.7629 Q629.3438,659.9504 628.6875,658.4817 Q628.0313,656.9973 628.0313,655.0285 Q628.0313,653.6067 628.4219,652.4348 Q628.8281,651.2473 629.6094,650.3723 Q630.3906,649.4973 631.5313,649.0285 Q632.6719,648.5442 634.1406,648.5442 Q635.0938,648.5442 635.9844,648.7473 Q636.8906,648.9348 637.8281,649.4035 L637,651.1848 Q636.2188,650.8098 635.5625,650.6223 Q634.9063,650.4192 634.1094,650.4192 Z " fill="#000000"/><text fill="#000000" font-family="sans-serif" font-size="14" lengthAdjust="spacing" textLength="52" x="648" y="660.3199">Camera</text><line style="stroke:#181818;stroke-width:0.5;" x1="620" x2="702" y1="670.8879" y2="670.8879"/><line style="stroke:#181818;stroke-width:0.5;" x1="620" x2="702" y1="678.8879" y2="678.8879"/></g><!--class Camera_component--><g id="elem_Camera_component"><rect codeLine="70" fill="#F1F1F1" height="67.0679" id="Camera_component" rx="2.5" ry="2.5" style="stroke:#181818;stroke-width:0.5;" width="454" x="760" y="426.0779"/><ellipse cx="915.75" cy="442.0779" fill="#ADD1B2" rx="11" ry="11" style="stroke:#181818;stroke-width:1.0;"/><path d="M915.8594,437.6092 Q914.9375,437.6092 914.2031,437.9217 Q913.4844,438.2342 912.9844,438.8279 Q912.4844,439.406 912.2031,440.281 Q911.9375,441.156 911.9375,442.2498 Q911.9375,443.6873 912.375,444.7342 Q912.8281,445.781 913.6719,446.3279 Q914.5313,446.8748 915.8438,446.8748 Q916.625,446.8748 917.3125,446.7498 Q918.0156,446.6092 919.0156,446.2967 L919.0156,448.1717 Q918.1563,448.4998 917.3906,448.6248 Q916.6406,448.7498 915.625,448.7498 Q913.7031,448.7498 912.3906,447.9529 Q911.0938,447.1404 910.4375,445.6717 Q909.7813,444.1873 909.7813,442.2185 Q909.7813,440.7967 910.1719,439.6248 Q910.5781,438.4373 911.3594,437.5623 Q912.1406,436.6873 913.2813,436.2185 Q914.4219,435.7342 915.8906,435.7342 Q916.8438,435.7342 917.7344,435.9373 Q918.6406,436.1248 919.5781,436.5935 L918.75,438.3748 Q917.9688,437.9998 917.3125,437.8123 Q916.6563,437.6092 915.8594,437.6092 Z " fill="#000000"/><text fill="#000000" font-family="sans-serif" font-size="14" lengthAdjust="spacing" textLength="134" x="936.25" y="447.5099">Camera_component</text><line style="stroke:#181818;stroke-width:0.5;" x1="761" x2="1213" y1="458.0779" y2="458.0779"/><rect fill="none" height="6" style="stroke:#C82930;stroke-width:1.0;" width="6" x="768" y="470.1119"/><text fill="#000000" font-family="sans-serif" font-size="14" lengthAdjust="spacing" textLength="428" x="780" y="477.0439">std::shared_ptr&lt;Camera&gt; camera_instance ' &#25345;&#26377;&#30340; Camera &#23454;&#20363;</text><line style="stroke:#181818;stroke-width:0.5;" x1="761" x2="1213" y1="485.1458" y2="485.1458"/></g><!--link Trackball_Camera_control to Camera_control--><g id="link_Trackball_Camera_control_Camera_control"><path codeLine="78" d="M160.45,280.6179 C183.44,303.7879 198.6543,319.138 225.4243,346.128 " fill="none" id="Trackball_Camera_control-to-Camera_control" style="stroke:#181818;stroke-width:1.0;"/><polygon fill="none" points="238.1,358.9079,229.6842,341.9028,221.1643,350.3533,238.1,358.9079" style="stroke:#181818;stroke-width:1.0;"/></g><!--link Game_Camera_control to Camera_control--><g id="link_Game_Camera_control_Camera_control"><path codeLine="79" d="M337,280.6179 C337,303.7879 337,313.9179 337,340.9079 " fill="none" id="Game_Camera_control-to-Camera_control" style="stroke:#181818;stroke-width:1.0;"/><polygon fill="none" points="337,358.9079,343,340.9079,331,340.9079,337,358.9079" style="stroke:#181818;stroke-width:1.0;"/></g><!--link Camera_control_component to Component_base--><g id="link_Camera_control_component_Component_base"><path codeLine="81" d="M734.91,271.1779 C714.28,319.5579 688.3599,380.3702 671.9699,418.8102 " fill="none" id="Camera_control_component-to-Component_base" style="stroke:#181818;stroke-width:1.0;"/><polygon fill="none" points="664.91,435.3679,677.4891,421.1635,666.4506,416.4569,664.91,435.3679" style="stroke:#181818;stroke-width:1.0;"/></g><!--link Trackball_camera_control_component to Camera_control_component--><g id="link_Trackball_camera_control_component_Camera_control_component"><path codeLine="82" d="M633.94,114.5379 C655.86,135.1979 671.2404,149.6929 694.8504,171.9429 " fill="none" id="Trackball_camera_control_component-to-Camera_control_component" style="stroke:#181818;stroke-width:1.0;"/><polygon fill="none" points="707.95,184.2879,698.9654,167.5763,690.7354,176.3094,707.95,184.2879" style="stroke:#181818;stroke-width:1.0;"/></g><!--link Game_camera_control_component to Camera_control_component--><g id="link_Game_camera_control_component_Camera_control_component"><path codeLine="83" d="M872.06,114.5379 C850.14,135.1979 834.7596,149.6929 811.1496,171.9429 " fill="none" id="Game_camera_control_component-to-Camera_control_component" style="stroke:#181818;stroke-width:1.0;"/><polygon fill="none" points="798.05,184.2879,815.2646,176.3094,807.0346,167.5763,798.05,184.2879" style="stroke:#181818;stroke-width:1.0;"/></g><!--reverse link Camera_control_component to Camera_control--><g id="link_Camera_control_component_Camera_control"><path codeLine="86" d="M665.7067,276.9815 C620.9867,301.6915 573.09,328.1579 517.38,358.9479 " fill="none" id="Camera_control_component-backto-Camera_control" style="stroke:#181818;stroke-width:1.0;"/><polygon fill="#181818" points="676.21,271.1779,669.0238,270.5786,665.7067,276.9815,672.8929,277.5808,676.21,271.1779" style="stroke:#181818;stroke-width:1.0;"/><polygon fill="#000000" points="595.1137,322.6193,604.4519,320.8167,601.609,315.6721,595.1137,322.6193" style="stroke:#000000;stroke-width:1.0;"/><text fill="#000000" font-family="sans-serif" font-size="13" lengthAdjust="spacing" textLength="65" x="608.49" y="325.2449">&#38598;&#25104;&#24182;&#39537;&#21160;</text><text fill="#000000" font-family="sans-serif" font-size="13" lengthAdjust="spacing" textLength="7" x="657.4174" y="292.7543">1</text><text fill="#000000" font-family="sans-serif" font-size="13" lengthAdjust="spacing" textLength="7" x="523.9224" y="347.5135">1</text></g><!--reverse link Camera_control to Camera--><g id="link_Camera_control_Camera"><path codeLine="89" d="M507.7732,566.7003 C554.8732,595.9603 591.94,618.9879 623.43,638.5479 " fill="none" id="Camera_control-backto-Camera" style="stroke:#181818;stroke-width:1.0;"/><polygon fill="none" points="497.58,560.3679,500.5658,566.9318,507.7732,566.7003,504.7874,560.1364,497.58,560.3679" style="stroke:#181818;stroke-width:1.0;"/><polygon fill="#000000" points="583.3572,602.3793,577.2248,595.11,574.1231,600.1028,583.3572,602.3793" style="stroke:#000000;stroke-width:1.0;"/><text fill="#000000" font-family="sans-serif" font-size="13" lengthAdjust="spacing" textLength="26" x="588.11" y="604.7849">&#25511;&#21046;</text><text fill="#000000" font-family="sans-serif" font-size="13" lengthAdjust="spacing" textLength="7" x="501.1338" y="581.6288">1</text><text fill="#000000" font-family="sans-serif" font-size="13" lengthAdjust="spacing" textLength="7" x="605.9058" y="627.1201">1</text></g><!--link Camera_control_component to Camera_component--><g id="link_Camera_control_component_Camera_component"><path codeLine="93" d="M796.19,271.1779 C841.62,315.7979 907.8598,380.8732 949.2398,421.5232 " fill="none" id="Camera_control_component-to-Camera_component" style="stroke:#181818;stroke-width:1.0;stroke-dasharray:7.0,7.0;"/><polygon fill="#181818" points="953.52,425.7279,949.9028,416.5674,949.9531,422.224,944.2965,422.2743,953.52,425.7279" style="stroke:#181818;stroke-width:1.0;"/><polygon fill="#000000" points="857.6069,323.7048,853.2138,315.2697,849.0948,319.4628,857.6069,323.7048" style="stroke:#000000;stroke-width:1.0;"/><text fill="#000000" font-family="sans-serif" font-size="13" lengthAdjust="spacing" textLength="91" x="863.04" y="325.2449">&#33719;&#21462;&#25668;&#20687;&#26426;&#23454;&#20363;</text></g><!--reverse link Camera_component to Camera--><g id="link_Camera_component_Camera"><path codeLine="94" d="M923.3196,499.9324 C857.2096,540.7524 756.56,602.8879 698.72,638.5979 " fill="none" id="Camera_component-backto-Camera" style="stroke:#181818;stroke-width:1.0;"/><polygon fill="#181818" points="933.53,493.6279,926.3233,493.3767,923.3196,499.9324,930.5263,500.1837,933.53,493.6279" style="stroke:#181818;stroke-width:1.0;"/><polygon fill="#000000" points="776.4955,602.3676,785.7359,600.1166,782.648,595.1152,776.4955,602.3676" style="stroke:#000000;stroke-width:1.0;"/><text fill="#000000" font-family="sans-serif" font-size="13" lengthAdjust="spacing" textLength="26" x="789.75" y="604.7849">&#25345;&#26377;</text><text fill="#000000" font-family="sans-serif" font-size="13" lengthAdjust="spacing" textLength="7" x="916.3822" y="515.161">1</text><text fill="#000000" font-family="sans-serif" font-size="13" lengthAdjust="spacing" textLength="7" x="700.4889" y="627.183">1</text></g><!--SRC=[rLPTRzfM6Bxthx1w4rX5qMxHX3HrqowdQPLsYHp7RLW1Ht3KAUigmG8D8HJJXj0EM4Ww9P0q8I1Qlip7ZvdFiNtLlx1Z7_DX6rEscwcv8SS-xyTvtkTvV3PefJ6MHmrO7YjdTNIwhxvzGu4W274qUfc4UmAg352k1jCTkItAOfMYDcZOA4dz0vGPAQqpM1t8BP6-puTt-0WN0O5D9iPHp6OCH1aMq6o8YSKiR-cd58t_DcXPJ4fYXsJuECmY8I-Dosgy91VgA7SEXR-ePqxbc30NPG8i7m5HFcGhPtexAmTR9oXUqnTtwHZOylbYsqoKsmhiWEXN9CPFioGMFy8HA9j0bGEvb9n10LCjQV0EPVVLLsaZqtrIvi7k3aSR9GD0M-1u0bnBX2U7j4iQ7yABtpyEIygehapwSduF7rg-lfPwSMama6jDjv7nOOXd01tcdt2161U91K7mIH3iQe3LH9Yfg_4g75nuqR60ajf_fgWe3nWGv2EMIFJwK1bThupybUV3rdh3IrGOsw8CFCb4Z4cHJ4-datX6xmG1k-rY8ez2d8zKSECOQN8hYKsbzef0unIyo_nY2uK9GKbVVJ8K1Dd7hYqk19W028ON4w3JFdhHqCYLxYhZ8vWwH-NtgDYS3xSsGV748kciLDAey7ui5wewO-U392rHX7uFS2EFDvbGAE14nCQ9d6ikoqqGBVPH-zWusH8OZJSsZ8pd3W0OjLqmrPL6HsfSLCOlyH7KuIaMFUnUg8K68SdVyOJKky5Bs6zZmk4b4l596uGCxdy1poAtKQ-7qe89f-zmyES0qK_Uhxq_Uh_n_k3z5gD2D8YLkuYPvbvhWeH_3JEaCKhKCiTQs4Bmy3ZOrJJ0FpMU41Srh4ijFqVfFEntrCiMxXSZPmKJGumTQIRcHKHNQEXMWBsQqjp3CiA79id9LE4VTOkUv4n7qvE1gbhAmw6WgMPoWiLB54W-Ab8lDyknBdOhbKY-B3OzigjXdZL9mC1fKHSF-rJPRnFwmjk-HhxN7MN_2fzRoNMXK9ptQ6J3k4nPtEyGb66sw6WBKr9YpsO0ODXjF6B01nxXJVpcpnmBNFyD4YVrcR3HDVY_mhB41TP79DMHnA9Sxi5KMxiMk8Z5e-8-gboZN1qLRzmcXSrEDFTylNTDpjaKpBzJQi_nJKYkNgflFcZEbpc6enPPoZS7MbMBODSJwknU4Op401DXkSNBnRGtGv16Wml8IhtCuXt46A21G1jBY313MyjY3HrCo5FAyKFayVpcjzwXbhdnidsK8__8RlD5S0tjBIaoVqkj9kZgM1sF9Cod2HwOk8wzas7Cx58JJk_AmJ4TazpvyWxzXSUZ_rf2VLP3flt6-9H4mQ4z6Xsza4OLKo_BUz0hygRAk2AHEoaaZVzKFXG_ZOCB2XcigfcFk6cr4bSk4fAOitFU9FHfPnlsVVeX1hhIlzVrQy1jZjGeVdQEtYQS0Rvtps_FxZFwc4jQJuVFRTjg7v064-d5J_q3]--></g></svg>