<?xml version="1.0" encoding="us-ascii" standalone="no"?><svg xmlns="http://www.w3.org/2000/svg" xmlns:xlink="http://www.w3.org/1999/xlink" contentStyleType="text/css" height="881px" preserveAspectRatio="none" style="width:897px;height:881px;background:#FFFFFF;" version="1.1" viewBox="0 0 897 881" width="897px" zoomAndPan="magnify"><defs/><g><!--class Key_action--><g id="elem_Key_action"><rect codeLine="4" fill="#F1F1F1" height="97.2038" id="Key_action" rx="2.5" ry="2.5" style="stroke:#181818;stroke-width:0.5;" width="103" x="277.5" y="777.7"/><ellipse cx="292.5" cy="793.7" fill="#EB937F" rx="11" ry="11" style="stroke:#181818;stroke-width:1.0;"/><path d="M295.9688,800.2 L288.6563,800.2 L288.6563,787.5281 L295.9688,787.5281 L295.9688,789.4031 L290.7031,789.4031 L290.7031,792.6687 L295.6563,792.6687 L295.6563,794.5281 L290.7031,794.5281 L290.7031,798.325 L295.9688,798.325 L295.9688,800.2 Z " fill="#000000"/><text fill="#000000" font-family="sans-serif" font-size="14" lengthAdjust="spacing" textLength="71" x="306.5" y="799.132">Key_action</text><line style="stroke:#181818;stroke-width:0.5;" x1="278.5" x2="379.5" y1="809.7" y2="809.7"/><text fill="#000000" font-family="sans-serif" font-size="14" lengthAdjust="spacing" textLength="67" x="283.5" y="828.6659">RELEASED</text><text fill="#000000" font-family="sans-serif" font-size="14" lengthAdjust="spacing" textLength="59" x="283.5" y="847.7339">PRESSED</text><text fill="#000000" font-family="sans-serif" font-size="14" lengthAdjust="spacing" textLength="38" x="283.5" y="866.8018">HOLD</text></g><!--class RHI_window--><g id="elem_RHI_window"><rect codeLine="13" fill="#F1F1F1" height="32" id="RHI_window" rx="2.5" ry="2.5" style="stroke:#181818;stroke-width:0.5;" width="114" x="776" y="150.94"/><ellipse cx="791" cy="166.94" fill="#ADD1B2" rx="11" ry="11" style="stroke:#181818;stroke-width:1.0;"/><path d="M791.1094,162.4712 Q790.1875,162.4712 789.4531,162.7837 Q788.7344,163.0962 788.2344,163.69 Q787.7344,164.2681 787.4531,165.1431 Q787.1875,166.0181 787.1875,167.1119 Q787.1875,168.5494 787.625,169.5962 Q788.0781,170.6431 788.9219,171.19 Q789.7813,171.7369 791.0938,171.7369 Q791.875,171.7369 792.5625,171.6119 Q793.2656,171.4712 794.2656,171.1587 L794.2656,173.0337 Q793.4063,173.3619 792.6406,173.4869 Q791.8906,173.6119 790.875,173.6119 Q788.9531,173.6119 787.6406,172.815 Q786.3438,172.0025 785.6875,170.5337 Q785.0313,169.0494 785.0313,167.0806 Q785.0313,165.6587 785.4219,164.4869 Q785.8281,163.2994 786.6094,162.4244 Q787.3906,161.5494 788.5313,161.0806 Q789.6719,160.5962 791.1406,160.5962 Q792.0938,160.5962 792.9844,160.7994 Q793.8906,160.9869 794.8281,161.4556 L794,163.2369 Q793.2188,162.8619 792.5625,162.6744 Q791.9063,162.4712 791.1094,162.4712 Z " fill="#000000"/><text fill="#000000" font-family="sans-serif" font-size="14" lengthAdjust="spacing" textLength="82" x="805" y="172.372">RHI_window</text></g><!--class Input_state--><g id="elem_Input_state"><rect codeLine="20" fill="#F1F1F1" height="292.815" id="Input_state" rx="2.5" ry="2.5" style="stroke:#181818;stroke-width:0.5;" width="472" x="93" y="405.88"/><ellipse cx="286.75" cy="421.88" fill="#ADD1B2" rx="11" ry="11" style="stroke:#181818;stroke-width:1.0;"/><path d="M286.8594,417.4113 Q285.9375,417.4113 285.2031,417.7238 Q284.4844,418.0363 283.9844,418.63 Q283.4844,419.2081 283.2031,420.0831 Q282.9375,420.9581 282.9375,422.0519 Q282.9375,423.4894 283.375,424.5363 Q283.8281,425.5831 284.6719,426.13 Q285.5313,426.6769 286.8438,426.6769 Q287.625,426.6769 288.3125,426.5519 Q289.0156,426.4113 290.0156,426.0988 L290.0156,427.9738 Q289.1563,428.3019 288.3906,428.4269 Q287.6406,428.5519 286.625,428.5519 Q284.7031,428.5519 283.3906,427.755 Q282.0938,426.9425 281.4375,425.4738 Q280.7813,423.9894 280.7813,422.0206 Q280.7813,420.5988 281.1719,419.4269 Q281.5781,418.2394 282.3594,417.3644 Q283.1406,416.4894 284.2813,416.0206 Q285.4219,415.5363 286.8906,415.5363 Q287.8438,415.5363 288.7344,415.7394 Q289.6406,415.9269 290.5781,416.3956 L289.75,418.1769 Q288.9688,417.8019 288.3125,417.6144 Q287.6563,417.4113 286.8594,417.4113 Z " fill="#000000"/><text fill="#000000" font-family="sans-serif" font-size="14" lengthAdjust="spacing" textLength="76" x="307.25" y="427.312">Input_state</text><line style="stroke:#181818;stroke-width:0.5;" x1="94" x2="564" y1="437.88" y2="437.88"/><line style="stroke:#181818;stroke-width:1.0;" x1="94" x2="564" y1="445.88" y2="445.88"/><ellipse cx="104" cy="460.914" fill="none" rx="3" ry="3" style="stroke:#038048;stroke-width:1.0;"/><text fill="#000000" font-family="sans-serif" font-size="14" lengthAdjust="spacing" textLength="332" x="113" y="464.8459">key_mods: unordered_map&lt;KeyType, Key_action&gt;</text><ellipse cx="104" cy="479.9819" fill="none" rx="3" ry="3" style="stroke:#038048;stroke-width:1.0;"/><text fill="#000000" font-family="sans-serif" font-size="14" lengthAdjust="spacing" textLength="296" x="113" y="483.9139">keys: unordered_map&lt;KeyType, Key_action&gt;</text><ellipse cx="104" cy="499.0498" fill="none" rx="3" ry="3" style="stroke:#038048;stroke-width:1.0;"/><text fill="#000000" font-family="sans-serif" font-size="14" lengthAdjust="spacing" textLength="436" x="113" y="502.9818">mouse_buttons: unordered_map&lt;MouseButtonType, Key_action&gt;</text><line style="stroke:#181818;stroke-width:1.0;" x1="94" x2="564" y1="511.0838" y2="511.0838"/><ellipse cx="104" cy="526.1177" fill="none" rx="3" ry="3" style="stroke:#038048;stroke-width:1.0;"/><text fill="#000000" font-family="sans-serif" font-size="14" lengthAdjust="spacing" textLength="96" x="113" y="530.0497">mouse_x: float</text><ellipse cx="104" cy="545.1856" fill="none" rx="3" ry="3" style="stroke:#038048;stroke-width:1.0;"/><text fill="#000000" font-family="sans-serif" font-size="14" lengthAdjust="spacing" textLength="96" x="113" y="549.1176">mouse_y: float</text><ellipse cx="104" cy="564.2535" fill="none" rx="3" ry="3" style="stroke:#038048;stroke-width:1.0;"/><text fill="#000000" font-family="sans-serif" font-size="14" lengthAdjust="spacing" textLength="105" x="113" y="568.1855">mouse_dx: float</text><ellipse cx="104" cy="583.3215" fill="none" rx="3" ry="3" style="stroke:#038048;stroke-width:1.0;"/><text fill="#000000" font-family="sans-serif" font-size="14" lengthAdjust="spacing" textLength="105" x="113" y="587.2534">mouse_dy: float</text><ellipse cx="104" cy="602.3894" fill="none" rx="3" ry="3" style="stroke:#038048;stroke-width:1.0;"/><text fill="#000000" font-family="sans-serif" font-size="14" lengthAdjust="spacing" textLength="147" x="113" y="606.3214">mouse_scroll_dx: float</text><ellipse cx="104" cy="621.4573" fill="none" rx="3" ry="3" style="stroke:#038048;stroke-width:1.0;"/><text fill="#000000" font-family="sans-serif" font-size="14" lengthAdjust="spacing" textLength="147" x="113" y="625.3893">mouse_scroll_dy: float</text><line style="stroke:#181818;stroke-width:1.0;" x1="94" x2="564" y1="633.4913" y2="633.4913"/><ellipse cx="104" cy="648.5252" fill="#84BE84" rx="3" ry="3" style="stroke:#038048;stroke-width:1.0;"/><text fill="#000000" font-family="sans-serif" font-size="14" lengthAdjust="spacing" textLength="344" x="113" y="652.4572">key_mod(modifier_key: KeyType): const Key_action&amp;</text><ellipse cx="104" cy="667.5931" fill="#84BE84" rx="3" ry="3" style="stroke:#038048;stroke-width:1.0;"/><text fill="#000000" font-family="sans-serif" font-size="14" lengthAdjust="spacing" textLength="283" x="113" y="671.5251">key(key_code: KeyType): const Key_action&amp;</text><ellipse cx="104" cy="686.661" fill="#84BE84" rx="3" ry="3" style="stroke:#038048;stroke-width:1.0;"/><text fill="#000000" font-family="sans-serif" font-size="14" lengthAdjust="spacing" textLength="446" x="113" y="690.593">mouse_button(button_code: MouseButtonType): const Key_action&amp;</text></g><!--class Input_system--><g id="elem_Input_system"><rect codeLine="45" fill="#F1F1F1" height="319.8829" id="Input_system" rx="2.5" ry="2.5" style="stroke:#181818;stroke-width:0.5;" width="644" x="7" y="7"/><ellipse cx="279.75" cy="23" fill="#ADD1B2" rx="11" ry="11" style="stroke:#181818;stroke-width:1.0;"/><path d="M279.8594,18.5313 Q278.9375,18.5313 278.2031,18.8438 Q277.4844,19.1563 276.9844,19.75 Q276.4844,20.3281 276.2031,21.2031 Q275.9375,22.0781 275.9375,23.1719 Q275.9375,24.6094 276.375,25.6563 Q276.8281,26.7031 277.6719,27.25 Q278.5313,27.7969 279.8438,27.7969 Q280.625,27.7969 281.3125,27.6719 Q282.0156,27.5313 283.0156,27.2188 L283.0156,29.0938 Q282.1563,29.4219 281.3906,29.5469 Q280.6406,29.6719 279.625,29.6719 Q277.7031,29.6719 276.3906,28.875 Q275.0938,28.0625 274.4375,26.5938 Q273.7813,25.1094 273.7813,23.1406 Q273.7813,21.7188 274.1719,20.5469 Q274.5781,19.3594 275.3594,18.4844 Q276.1406,17.6094 277.2813,17.1406 Q278.4219,16.6563 279.8906,16.6563 Q280.8438,16.6563 281.7344,16.8594 Q282.6406,17.0469 283.5781,17.5156 L282.75,19.2969 Q281.9688,18.9219 281.3125,18.7344 Q280.6563,18.5313 279.8594,18.5313 Z " fill="#000000"/><text fill="#000000" font-family="sans-serif" font-size="14" lengthAdjust="spacing" textLength="90" x="300.25" y="28.432">Input_system</text><line style="stroke:#181818;stroke-width:0.5;" x1="8" x2="650" y1="39" y2="39"/><rect fill="none" height="6" style="stroke:#C82930;stroke-width:1.0;" width="6" x="15" y="51.034"/><text fill="#000000" font-family="sans-serif" font-size="14" lengthAdjust="spacing" textLength="136" x="27" y="57.9659">m_state: Input_state</text><rect fill="none" height="6" style="stroke:#C82930;stroke-width:1.0;" width="6" x="15" y="70.1019"/><text fill="#000000" font-family="sans-serif" font-size="14" lengthAdjust="spacing" textLength="275" x="27" y="77.0339">m_rhi_window: shared_ptr&lt;RHI_window&gt;</text><line style="stroke:#181818;stroke-width:1.0;" x1="8" x2="650" y1="85.1358" y2="85.1358"/><ellipse cx="18" cy="100.1698" fill="#84BE84" rx="3" ry="3" style="stroke:#038048;stroke-width:1.0;"/><text fill="#000000" font-family="sans-serif" font-size="14" lengthAdjust="spacing" textLength="329" x="27" y="104.1018">Input_system(window: shared_ptr&lt;RHI_window&gt;)</text><line style="stroke:#181818;stroke-width:1.0;" x1="8" x2="650" y1="112.2038" y2="112.2038"/><rect fill="#F24D5C" height="6" style="stroke:#C82930;stroke-width:1.0;" width="6" x="15" y="124.2377"/><text fill="#000000" font-family="sans-serif" font-size="14" lengthAdjust="spacing" textLength="98" x="27" y="131.1697">update_(): void</text><rect fill="#F24D5C" height="6" style="stroke:#C82930;stroke-width:1.0;" width="6" x="15" y="143.3056"/><text fill="#000000" font-family="sans-serif" font-size="14" lengthAdjust="spacing" textLength="363" x="27" y="150.2376">update_mouse_position(raw_x: float, raw_y: float): void</text><rect fill="#F24D5C" height="6" style="stroke:#C82930;stroke-width:1.0;" width="6" x="15" y="162.3735"/><text fill="#000000" font-family="sans-serif" font-size="14" lengthAdjust="spacing" textLength="125" x="27" y="169.3055">reset_deltas(): void</text><line style="stroke:#181818;stroke-width:1.0;" x1="8" x2="650" y1="177.4075" y2="177.4075"/><ellipse cx="18" cy="192.4415" fill="#84BE84" rx="3" ry="3" style="stroke:#038048;stroke-width:1.0;"/><text fill="#000000" font-family="sans-serif" font-size="14" lengthAdjust="spacing" textLength="508" x="27" y="196.3734">static create(window: shared_ptr&lt;RHI_window&gt;): shared_ptr&lt;Input_system&gt;</text><ellipse cx="18" cy="211.5094" fill="#84BE84" rx="3" ry="3" style="stroke:#038048;stroke-width:1.0;"/><text fill="#000000" font-family="sans-serif" font-size="14" lengthAdjust="spacing" textLength="175" x="27" y="215.4414">state(): const Input_state&amp;</text><line style="stroke:#181818;stroke-width:1.0;" x1="8" x2="650" y1="223.5433" y2="223.5433"/><rect fill="#F24D5C" height="6" style="stroke:#C82930;stroke-width:1.0;" width="6" x="15" y="235.5773"/><text fill="#000000" font-family="sans-serif" font-size="14" lengthAdjust="spacing" textLength="295" x="27" y="242.5093">on_mouse_move_event(x: float, y: float): void</text><rect fill="#F24D5C" height="6" style="stroke:#C82930;stroke-width:1.0;" width="6" x="15" y="254.6452"/><text fill="#000000" font-family="sans-serif" font-size="14" lengthAdjust="spacing" textLength="313" x="27" y="261.5772">on_mouse_scroll_event(dx: float, dy: float): void</text><rect fill="#F24D5C" height="6" style="stroke:#C82930;stroke-width:1.0;" width="6" x="15" y="273.7131"/><text fill="#000000" font-family="sans-serif" font-size="14" lengthAdjust="spacing" textLength="495" x="27" y="280.6451">on_keyboard_event(key_code: KeyType, action: Key_action, mods: int): void</text><rect fill="#F24D5C" height="6" style="stroke:#C82930;stroke-width:1.0;" width="6" x="15" y="292.781"/><text fill="#000000" font-family="sans-serif" font-size="14" lengthAdjust="spacing" textLength="618" x="27" y="299.713">on_mouse_button_event(button_code: MouseButtonType, action: Key_action, mods: int): void</text><rect fill="#F24D5C" height="6" style="stroke:#C82930;stroke-width:1.0;" width="6" x="15" y="311.849"/><text fill="#000000" font-family="sans-serif" font-size="14" lengthAdjust="spacing" textLength="182" x="27" y="318.7809">on_frame_end_event(): void</text></g><!--reverse link Input_system to Input_state--><g id="link_Input_system_Input_state"><path codeLine="76" d="M329,339.18 C329,365.1 329,379.84 329,405.42 " fill="none" id="Input_system-backto-Input_state" style="stroke:#181818;stroke-width:1.0;"/><polygon fill="#181818" points="329,327.18,325,333.18,329,339.18,333,333.18,329,327.18" style="stroke:#181818;stroke-width:1.0;"/><text fill="#000000" font-family="sans-serif" font-size="13" lengthAdjust="spacing" textLength="26" x="330" y="371.777">&#25317;&#26377;</text></g><!--link Input_system to RHI_window--><g id="link_Input_system_RHI_window"><path codeLine="80" d="M651.4,166.94 C698.98,166.94 736.91,166.94 769.65,166.94 " fill="none" id="Input_system-to-RHI_window" style="stroke:#181818;stroke-width:1.0;stroke-dasharray:7.0,7.0;"/><polygon fill="#181818" points="775.65,166.94,766.65,162.94,770.65,166.94,766.65,170.94,775.65,166.94" style="stroke:#181818;stroke-width:1.0;"/><text fill="#000000" font-family="sans-serif" font-size="13" lengthAdjust="spacing" textLength="89" x="669" y="159.837">&#20351;&#29992; (&#27880;&#20876;&#22238;&#35843;)</text></g><!--link Input_state to Key_action--><g id="link_Input_state_Key_action"><path codeLine="83" d="M329,698.85 C329,727.27 329,755.13 329,777.44 " fill="none" id="Input_state-Key_action" style="stroke:#181818;stroke-width:1.0;stroke-dasharray:7.0,7.0;"/><text fill="#000000" font-family="sans-serif" font-size="13" lengthAdjust="spacing" textLength="26" x="330" y="743.597">&#20351;&#29992;</text></g><!--SRC=[bLRDZXj54BxxAVgKZ8dNkPje9M0jxIe1LjxSH-tfyauhCzr3Tu-T4UA4X8J8aHk86rAEI9mHBqCM7eEgxfwP7gyta1oojkkdw-UhhwgK0XZKZUjO3VKMZ9tD7hCBs4a5p9N0daENyy99hLXHSMkVWchh6VsNYhwUCVptc6sWCM11EUkDhUCEcDunpbv1ztJREeVA6Inlbmj6cXR4WXceWFjF9LHYleo-Bi1nMLccj4DTlST81PFAEyRl6FF7hD1j9TWM65VCnwGDlcLbtLJqkcaB5znjrY_MdzoiB_oNwytwflzy-UMBYzatHqblBg_oWrH27qBI6F9h1qRnYWbeG0bGHJUV1LcYt9TXVL-RqfpKfiNVJTL9TKiUMBOXHSCkkH47Re1TAVInumNCMV2-76fi6wsit6AAEymtr8Ry67x00ZMjOx3txsIrRYsmMkzXmMnXT5Kjg1DRZQyiM926hWnblo87kUsiWnfZlfNumLXMyAhQykALnMXSYHb8EyHrNBxemZVVroXMAlszBzMDqrWLRrQqnc3O8sf2BWBsiW0RuZixYtRFHpnvVSjQIpLebJPOHuHApHlhbPzWndcjXLsDqXobpz37owx1qen8FXyiFa3Rrp4FqTmp-vo4dthPQVCX9Q_9-DRggiK2DDfAqahVUBrYkqfpb_xMfR_rNgZbDHLJGEKu8W67Z3kv7oNpr8SuvLYSz1nW5Fscwa5msbKlctWS4hzkjvKiS9WLjX9Z3ap4TgtoPK9qQFPL2wPZje52xb0tG2Dstl8TLDroqco4la1DC3d-i6AnUVDLU2LfmgF1B2FJGWlu7-ffoxFm9veUzVkaYmS69ipSYOa9WdvahetSquJqXErhMOUvMgL3rajCAID3hPWjEI6pSURPI5n7GFoC0YRkr2PacuQHlT_JVEhAinWnOGskn17i6Gi7seyhLuArZK1eufUagS6Bbq2UOH7tMeh9Zw43_P1ao7t3T2o82OUvI8qzUm8oeuSls_EgHVnmvxk011nsrSxmEaP0ZEto0FPf64VWfQZn3n8sLgsBwH9m2mFKB1xhXKaIo8lW_qaq2qh_LTg98Et9-JIMyV6uD_7rORWCx92RC02IfxHxN7qV6sG3W1DWFJegGGIatpgin9vMEBxZnkYt26RlbyUOKtJmiWJYh0WHsdvaZEhRxdWV7qfG_cBOyo7ckErqWQd4DO7Z6012T9TxXMo4nobeZ2QHh8AH6At4GsRzHeqczsXamSBWhn8IeErB6qcg1wA8f19SlezXFj2x1tUEM8-kUxddf8tV4jZkKZOMxoft08Y77_ZBS498-e3Sd1LuYcaKp-a8IrTyZ_JbR6BrqTdPH6t5xdxuzUxdx- -v3ySJzbKb05WCEm0HqX50mjwN280uOOsMn3heZjYb1nyf7HqnqXs5jZnFeRPYV_tnvzy_lcNPtUzlttttvjrFl_ppsxVp94uVFpR3fhUmmvvucgEGy0A8B3CyvOsMozIaVubSVw7TY1oVmL6__Nmq5Lw6fQu4tMRqsB0PaqCR9ryvlmHzKBQ_lEbIjdZm-S6J1WkDcqY6LKlE7xwuVJokRCDLBlo5ZZebplPozYy0]--></g></svg>