<?xml version="1.0" encoding="us-ascii" standalone="no"?><svg xmlns="http://www.w3.org/2000/svg" xmlns:xlink="http://www.w3.org/1999/xlink" contentStyleType="text/css" height="1395px" preserveAspectRatio="none" style="width:1309px;height:1395px;background:#FFFFFF;" version="1.1" viewBox="0 0 1309 1395" width="1309px" zoomAndPan="magnify"><defs/><g><text fill="#000000" font-family="sans-serif" font-size="14" font-weight="bold" lengthAdjust="spacing" textLength="385.5" x="463.5" y="29.9659">Runtime Frontend Frame Loop Mechanism (&#24103;&#24490;&#29615;&#26426;&#21046;)</text><rect fill="#FFFFFF" height="1112.0046" style="stroke:#181818;stroke-width:1.0;" width="10" x="163" y="157.8419"/><rect fill="#FFFFFF" height="31.706" style="stroke:#181818;stroke-width:1.0;" width="10" x="345" y="358.784"/><rect fill="#FFFFFF" height="31.706" style="stroke:#181818;stroke-width:1.0;" width="10" x="345" y="1223.1404"/><rect fill="#FFFFFF" height="114.118" style="stroke:#181818;stroke-width:1.0;" width="10" x="466" y="484.608"/><rect fill="#FFFFFF" height="375.0602" style="stroke:#181818;stroke-width:1.0;" width="10" x="763.5" y="735.2562"/><rect fill="#FFFFFF" height="311.6481" style="stroke:#181818;stroke-width:1.0;" width="10" x="909.5" y="766.9622"/><rect fill="#FFFFFF" height="114.118" style="stroke:#181818;stroke-width:1.0;" width="10" x="1102.5" y="932.7862"/><rect fill="none" height="1027.5925" style="stroke:#000000;stroke-width:1.5;" width="1206" x="97.5" y="235.2539"/><line style="stroke:#181818;stroke-width:0.5;stroke-dasharray:5.0,5.0;" x1="22" x2="22" y1="124.1358" y2="1311.5524"/><line style="stroke:#181818;stroke-width:0.5;stroke-dasharray:5.0,5.0;" x1="167.5" x2="167.5" y1="124.1358" y2="1311.5524"/><line style="stroke:#181818;stroke-width:0.5;stroke-dasharray:5.0,5.0;" x1="350" x2="350" y1="124.1358" y2="1311.5524"/><line style="stroke:#181818;stroke-width:0.5;stroke-dasharray:5.0,5.0;" x1="471" x2="471" y1="124.1358" y2="1311.5524"/><line style="stroke:#181818;stroke-width:0.5;stroke-dasharray:5.0,5.0;" x1="619" x2="619" y1="124.1358" y2="1311.5524"/><line style="stroke:#181818;stroke-width:0.5;stroke-dasharray:5.0,5.0;" x1="768" x2="768" y1="124.1358" y2="1311.5524"/><line style="stroke:#181818;stroke-width:0.5;stroke-dasharray:5.0,5.0;" x1="914" x2="914" y1="124.1358" y2="1311.5524"/><line style="stroke:#181818;stroke-width:0.5;stroke-dasharray:5.0,5.0;" x1="1107.5" x2="1107.5" y1="124.1358" y2="1311.5524"/><text fill="#000000" font-family="sans-serif" font-size="14" lengthAdjust="spacing" textLength="28" x="5" y="120.0339">&#29992;&#25143;</text><ellipse cx="22" cy="53.5679" fill="#E2E2F0" rx="8" ry="8" style="stroke:#181818;stroke-width:0.5;"/><path d="M22,61.5679 L22,88.5679 M9,69.5679 L35,69.5679 M22,88.5679 L9,103.5679 M22,88.5679 L35,103.5679 " fill="none" style="stroke:#181818;stroke-width:0.5;"/><text fill="#000000" font-family="sans-serif" font-size="14" lengthAdjust="spacing" textLength="28" x="5" y="1325.5184">&#29992;&#25143;</text><ellipse cx="22" cy="1338.1203" fill="#E2E2F0" rx="8" ry="8" style="stroke:#181818;stroke-width:0.5;"/><path d="M22,1346.1203 L22,1373.1203 M9,1354.1203 L35,1354.1203 M22,1373.1203 L9,1388.1203 M22,1373.1203 L35,1388.1203 " fill="none" style="stroke:#181818;stroke-width:0.5;"/><rect fill="#E2E2F0" height="33.0679" rx="2.5" ry="2.5" style="stroke:#181818;stroke-width:0.5;" width="121" x="107.5" y="90.0679"/><text fill="#000000" font-family="sans-serif" font-size="14" lengthAdjust="spacing" textLength="107" x="114.5" y="112.0339">Engine_runtime</text><rect fill="#E2E2F0" height="33.0679" rx="2.5" ry="2.5" style="stroke:#181818;stroke-width:0.5;" width="121" x="107.5" y="1310.5524"/><text fill="#000000" font-family="sans-serif" font-size="14" lengthAdjust="spacing" textLength="107" x="114.5" y="1332.5184">Engine_runtime</text><rect fill="#E2E2F0" height="52.1358" rx="2.5" ry="2.5" style="stroke:#181818;stroke-width:0.5;" width="120" x="290" y="71"/><text fill="#000000" font-family="sans-serif" font-size="14" lengthAdjust="spacing" textLength="106" x="297" y="92.9659">Window System</text><text fill="#000000" font-family="sans-serif" font-size="14" lengthAdjust="spacing" textLength="64" x="318" y="112.0339">(&#31383;&#21475;&#31995;&#32479;)</text><rect fill="#E2E2F0" height="52.1358" rx="2.5" ry="2.5" style="stroke:#181818;stroke-width:0.5;" width="120" x="290" y="1310.5524"/><text fill="#000000" font-family="sans-serif" font-size="14" lengthAdjust="spacing" textLength="106" x="297" y="1332.5184">Window System</text><text fill="#000000" font-family="sans-serif" font-size="14" lengthAdjust="spacing" textLength="64" x="318" y="1351.5863">(&#31383;&#21475;&#31995;&#32479;)</text><rect fill="#E2E2F0" height="52.1358" rx="2.5" ry="2.5" style="stroke:#181818;stroke-width:0.5;" width="102" x="420" y="71"/><text fill="#000000" font-family="sans-serif" font-size="14" lengthAdjust="spacing" textLength="88" x="427" y="92.9659">Virtual World</text><text fill="#000000" font-family="sans-serif" font-size="14" lengthAdjust="spacing" textLength="64" x="439" y="112.0339">(&#34394;&#25311;&#19990;&#30028;)</text><rect fill="#E2E2F0" height="52.1358" rx="2.5" ry="2.5" style="stroke:#181818;stroke-width:0.5;" width="102" x="420" y="1310.5524"/><text fill="#000000" font-family="sans-serif" font-size="14" lengthAdjust="spacing" textLength="88" x="427" y="1332.5184">Virtual World</text><text fill="#000000" font-family="sans-serif" font-size="14" lengthAdjust="spacing" textLength="64" x="439" y="1351.5863">(&#34394;&#25311;&#19990;&#30028;)</text><rect fill="#E2E2F0" height="71.2038" rx="2.5" ry="2.5" style="stroke:#181818;stroke-width:0.5;" width="174" x="532" y="51.9321"/><text fill="#000000" font-family="sans-serif" font-size="14" lengthAdjust="spacing" textLength="160" x="539" y="73.898">Context Exchange Layer</text><text fill="#000000" font-family="sans-serif" font-size="14" lengthAdjust="spacing" textLength="92" x="573" y="92.9659">(&#19978;&#19979;&#25991;&#20132;&#25442;&#23618;)</text><text fill="#000000" font-family="sans-serif" font-size="14" lengthAdjust="spacing" textLength="86" x="576" y="112.0339">&#171;Swap_data&#187;</text><rect fill="#E2E2F0" height="71.2038" rx="2.5" ry="2.5" style="stroke:#181818;stroke-width:0.5;" width="174" x="532" y="1310.5524"/><text fill="#000000" font-family="sans-serif" font-size="14" lengthAdjust="spacing" textLength="160" x="539" y="1332.5184">Context Exchange Layer</text><text fill="#000000" font-family="sans-serif" font-size="14" lengthAdjust="spacing" textLength="92" x="573" y="1351.5863">(&#19978;&#19979;&#25991;&#20132;&#25442;&#23618;)</text><text fill="#000000" font-family="sans-serif" font-size="14" lengthAdjust="spacing" textLength="86" x="576" y="1370.6542">&#171;Swap_data&#187;</text><rect fill="#E2E2F0" height="52.1358" rx="2.5" ry="2.5" style="stroke:#181818;stroke-width:0.5;" width="105" x="716" y="71"/><text fill="#000000" font-family="sans-serif" font-size="14" lengthAdjust="spacing" textLength="91" x="723" y="92.9659">Feature Layer</text><text fill="#000000" font-family="sans-serif" font-size="14" lengthAdjust="spacing" textLength="50" x="743.5" y="112.0339">(&#21151;&#33021;&#23618;)</text><rect fill="#E2E2F0" height="52.1358" rx="2.5" ry="2.5" style="stroke:#181818;stroke-width:0.5;" width="105" x="716" y="1310.5524"/><text fill="#000000" font-family="sans-serif" font-size="14" lengthAdjust="spacing" textLength="91" x="723" y="1332.5184">Feature Layer</text><text fill="#000000" font-family="sans-serif" font-size="14" lengthAdjust="spacing" textLength="50" x="743.5" y="1351.5863">(&#21151;&#33021;&#23618;)</text><rect fill="#E2E2F0" height="52.1358" rx="2.5" ry="2.5" style="stroke:#181818;stroke-width:0.5;" width="115" x="857" y="71"/><text fill="#000000" font-family="sans-serif" font-size="14" lengthAdjust="spacing" textLength="101" x="864" y="92.9659">Render System</text><text fill="#000000" font-family="sans-serif" font-size="14" lengthAdjust="spacing" textLength="64" x="882.5" y="112.0339">(&#28210;&#26579;&#31995;&#32479;)</text><rect fill="#E2E2F0" height="52.1358" rx="2.5" ry="2.5" style="stroke:#181818;stroke-width:0.5;" width="115" x="857" y="1310.5524"/><text fill="#000000" font-family="sans-serif" font-size="14" lengthAdjust="spacing" textLength="101" x="864" y="1332.5184">Render System</text><text fill="#000000" font-family="sans-serif" font-size="14" lengthAdjust="spacing" textLength="64" x="882.5" y="1351.5863">(&#28210;&#26579;&#31995;&#32479;)</text><rect fill="#E2E2F0" height="52.1358" rx="2.5" ry="2.5" style="stroke:#181818;stroke-width:0.5;" width="172" x="1021.5" y="71"/><text fill="#000000" font-family="sans-serif" font-size="14" lengthAdjust="spacing" textLength="158" x="1028.5" y="92.9659">Backend Render Device</text><text fill="#000000" font-family="sans-serif" font-size="14" lengthAdjust="spacing" textLength="32" x="1091.5" y="112.0339">(RHI)</text><rect fill="#E2E2F0" height="52.1358" rx="2.5" ry="2.5" style="stroke:#181818;stroke-width:0.5;" width="172" x="1021.5" y="1310.5524"/><text fill="#000000" font-family="sans-serif" font-size="14" lengthAdjust="spacing" textLength="158" x="1028.5" y="1332.5184">Backend Render Device</text><text fill="#000000" font-family="sans-serif" font-size="14" lengthAdjust="spacing" textLength="32" x="1091.5" y="1351.5863">(RHI)</text><rect fill="#FFFFFF" height="1112.0046" style="stroke:#181818;stroke-width:1.0;" width="10" x="163" y="157.8419"/><rect fill="#FFFFFF" height="31.706" style="stroke:#181818;stroke-width:1.0;" width="10" x="345" y="358.784"/><rect fill="#FFFFFF" height="31.706" style="stroke:#181818;stroke-width:1.0;" width="10" x="345" y="1223.1404"/><rect fill="#FFFFFF" height="114.118" style="stroke:#181818;stroke-width:1.0;" width="10" x="466" y="484.608"/><rect fill="#FFFFFF" height="375.0602" style="stroke:#181818;stroke-width:1.0;" width="10" x="763.5" y="735.2562"/><rect fill="#FFFFFF" height="311.6481" style="stroke:#181818;stroke-width:1.0;" width="10" x="909.5" y="766.9622"/><rect fill="#FFFFFF" height="114.118" style="stroke:#181818;stroke-width:1.0;" width="10" x="1102.5" y="932.7862"/><polygon fill="#181818" points="151,153.8419,161,157.8419,151,161.8419,155,157.8419" style="stroke:#181818;stroke-width:1.0;"/><line style="stroke:#181818;stroke-width:1.0;" x1="22" x2="157" y1="157.8419" y2="157.8419"/><text fill="#000000" font-family="sans-serif" font-size="13" lengthAdjust="spacing" textLength="14" x="29" y="152.0328">01</text><text fill="#000000" font-family="sans-serif" font-size="13" lengthAdjust="spacing" textLength="65" x="47" y="152.0328">&#21551;&#21160;&#28210;&#26579;&#22120;</text><line style="stroke:#181818;stroke-width:1.0;" x1="173" x2="215" y1="207.2539" y2="207.2539"/><line style="stroke:#181818;stroke-width:1.0;" x1="215" x2="215" y1="207.2539" y2="220.2539"/><line style="stroke:#181818;stroke-width:1.0;" x1="174" x2="215" y1="220.2539" y2="220.2539"/><polygon fill="#181818" points="184,216.2539,174,220.2539,184,224.2539,180,220.2539" style="stroke:#181818;stroke-width:1.0;"/><text fill="#000000" font-family="sans-serif" font-size="13" lengthAdjust="spacing" textLength="14" x="180" y="192.5919">02</text><text fill="#000000" font-family="sans-serif" font-size="13" lengthAdjust="spacing" textLength="29" x="198" y="183.7389">run()</text><text fill="#000000" font-family="sans-serif" font-size="13" lengthAdjust="spacing" textLength="112" x="198" y="201.4449">(&#25345;&#32493;&#26816;&#27979;&#31383;&#21475;&#27963;&#36291;)</text><path d="M97.5,235.2539 L171.125,235.2539 L171.125,244.9599 L161.125,254.9599 L97.5,254.9599 L97.5,235.2539 " fill="#EEEEEE" style="stroke:#000000;stroke-width:1.5;"/><rect fill="none" height="1027.5925" style="stroke:#000000;stroke-width:1.5;" width="1206" x="97.5" y="235.2539"/><text fill="#000000" font-family="sans-serif" font-size="13" font-weight="bold" lengthAdjust="spacing" textLength="28.625" x="112.5" y="250.1509">loop</text><text fill="#000000" font-family="sans-serif" font-size="11" font-weight="bold" lengthAdjust="spacing" textLength="176.9375" x="186.125" y="249.0128">[&#27599;&#19968;&#24103; (While window is active)]</text><line style="stroke:#181818;stroke-width:1.0;" x1="173" x2="215" y1="296.3719" y2="296.3719"/><line style="stroke:#181818;stroke-width:1.0;" x1="215" x2="215" y1="296.3719" y2="309.3719"/><line style="stroke:#181818;stroke-width:1.0;" x1="174" x2="215" y1="309.3719" y2="309.3719"/><polygon fill="#181818" points="184,305.3719,174,309.3719,184,313.3719,180,309.3719" style="stroke:#181818;stroke-width:1.0;"/><text fill="#000000" font-family="sans-serif" font-size="13" lengthAdjust="spacing" textLength="14" x="180" y="281.7099">03</text><text fill="#000000" font-family="sans-serif" font-size="13" lengthAdjust="spacing" textLength="29" x="198" y="272.8569">tick()</text><text fill="#000000" font-family="sans-serif" font-size="13" lengthAdjust="spacing" textLength="73" x="198" y="290.5629">(&#25512;&#36827;&#24103;&#36816;&#36716;)</text><polygon fill="#181818" points="333,354.784,343,358.784,333,362.784,337,358.784" style="stroke:#181818;stroke-width:1.0;"/><line style="stroke:#181818;stroke-width:1.0;" x1="173" x2="339" y1="358.784" y2="358.784"/><text fill="#000000" font-family="sans-serif" font-size="13" lengthAdjust="spacing" textLength="14" x="180" y="344.122">04</text><text fill="#000000" font-family="sans-serif" font-size="13" lengthAdjust="spacing" textLength="105" x="198" y="335.2689">on_frame_begin()</text><text fill="#000000" font-family="sans-serif" font-size="13" lengthAdjust="spacing" textLength="125" x="198" y="352.975">(&#22788;&#29702;&#36755;&#20837;&#12289;&#31383;&#21475;&#20107;&#20214;)</text><polygon fill="#181818" points="184,386.49,174,390.49,184,394.49,180,390.49" style="stroke:#181818;stroke-width:1.0;"/><line style="stroke:#181818;stroke-width:1.0;stroke-dasharray:2.0,2.0;" x1="178" x2="349" y1="390.49" y2="390.49"/><text fill="#000000" font-family="sans-serif" font-size="13" lengthAdjust="spacing" textLength="14" x="190" y="384.681">05</text><text fill="#000000" font-family="sans-serif" font-size="13" lengthAdjust="spacing" textLength="3" x="208" y="384.681">&#160;</text><line style="stroke:#181818;stroke-width:1.0;" x1="173" x2="215" y1="422.196" y2="422.196"/><line style="stroke:#181818;stroke-width:1.0;" x1="215" x2="215" y1="422.196" y2="435.196"/><line style="stroke:#181818;stroke-width:1.0;" x1="174" x2="215" y1="435.196" y2="435.196"/><polygon fill="#181818" points="184,431.196,174,435.196,184,439.196,180,435.196" style="stroke:#181818;stroke-width:1.0;"/><text fill="#000000" font-family="sans-serif" font-size="13" lengthAdjust="spacing" textLength="14" x="180" y="416.387">06</text><text fill="#000000" font-family="sans-serif" font-size="13" lengthAdjust="spacing" textLength="140" x="198" y="416.387">&#23553;&#35013; Logic_tick_context</text><polygon fill="#181818" points="454,480.608,464,484.608,454,488.608,458,484.608" style="stroke:#181818;stroke-width:1.0;"/><line style="stroke:#181818;stroke-width:1.0;" x1="173" x2="460" y1="484.608" y2="484.608"/><text fill="#000000" font-family="sans-serif" font-size="13" lengthAdjust="spacing" textLength="14" x="180" y="469.946">07</text><text fill="#000000" font-family="sans-serif" font-size="13" lengthAdjust="spacing" textLength="111" x="198" y="461.093">Logic_tick_context</text><text fill="#000000" font-family="sans-serif" font-size="13" lengthAdjust="spacing" textLength="60" x="198" y="478.799">(&#36923;&#36753;&#26356;&#26032;)</text><line style="stroke:#181818;stroke-width:1.0;" x1="476" x2="518" y1="516.314" y2="516.314"/><line style="stroke:#181818;stroke-width:1.0;" x1="518" x2="518" y1="516.314" y2="529.314"/><line style="stroke:#181818;stroke-width:1.0;" x1="477" x2="518" y1="529.314" y2="529.314"/><polygon fill="#181818" points="487,525.314,477,529.314,487,533.314,483,529.314" style="stroke:#181818;stroke-width:1.0;"/><text fill="#000000" font-family="sans-serif" font-size="13" lengthAdjust="spacing" textLength="14" x="483" y="510.505">08</text><text fill="#000000" font-family="sans-serif" font-size="13" lengthAdjust="spacing" textLength="104" x="501" y="510.505">&#26356;&#26032;&#25152;&#26377;&#23545;&#35937;&#29366;&#24577;</text><path d="M481,542.314 L481,569.314 L632,569.314 L632,552.314 L622,542.314 L481,542.314 " fill="#FEFFDD" style="stroke:#181818;stroke-width:0.5;"/><path d="M622,542.314 L622,552.314 L632,552.314 L622,542.314 " fill="#FEFFDD" style="stroke:#181818;stroke-width:0.5;"/><text fill="#000000" font-family="sans-serif" font-size="13" lengthAdjust="spacing" textLength="130" x="487" y="561.2111">&#36923;&#36753;&#26356;&#26032;&#30001;&#26694;&#26550;&#23618;&#23454;&#29616;</text><polygon fill="#181818" points="184,594.7261,174,598.7261,184,602.7261,180,598.7261" style="stroke:#181818;stroke-width:1.0;"/><line style="stroke:#181818;stroke-width:1.0;stroke-dasharray:2.0,2.0;" x1="178" x2="470" y1="598.7261" y2="598.7261"/><text fill="#000000" font-family="sans-serif" font-size="13" lengthAdjust="spacing" textLength="14" x="190" y="592.9171">09</text><text fill="#000000" font-family="sans-serif" font-size="13" lengthAdjust="spacing" textLength="78" x="208" y="592.9171">&#36820;&#22238;&#26356;&#26032;&#29366;&#24577;</text><polygon fill="#181818" points="607,644.1381,617,648.1381,607,652.1381,611,648.1381" style="stroke:#181818;stroke-width:1.0;"/><line style="stroke:#181818;stroke-width:1.0;" x1="173" x2="613" y1="648.1381" y2="648.1381"/><text fill="#000000" font-family="sans-serif" font-size="13" lengthAdjust="spacing" textLength="14" x="180" y="633.4761">10</text><text fill="#000000" font-family="sans-serif" font-size="13" lengthAdjust="spacing" textLength="39" x="198" y="624.6231">swap()</text><text fill="#000000" font-family="sans-serif" font-size="13" lengthAdjust="spacing" textLength="144" x="198" y="642.3291">(&#20132;&#25442; Swap_data &#32531;&#20914;&#21306;)</text><path d="M431,661.1381 L431,706.1381 L614,706.1381 L614,671.1381 L604,661.1381 L431,661.1381 " fill="#FEFFDD" style="stroke:#181818;stroke-width:0.5;"/><path d="M604,661.1381 L604,671.1381 L614,671.1381 L604,661.1381 " fill="#FEFFDD" style="stroke:#181818;stroke-width:0.5;"/><text fill="#000000" font-family="sans-serif" font-size="13" lengthAdjust="spacing" textLength="162" x="437" y="680.0351">Swap_data: &#21151;&#33021;&#23618;&#30456;&#20851;&#25968;&#25454;</text><text fill="#000000" font-family="sans-serif" font-size="13" lengthAdjust="spacing" textLength="112" x="437" y="697.7411">(&#19978;&#19979;&#25991;&#20132;&#25442;&#23618;&#23450;&#20041;)</text><polygon fill="#181818" points="751.5,731.2562,761.5,735.2562,751.5,739.2562,755.5,735.2562" style="stroke:#181818;stroke-width:1.0;"/><line style="stroke:#181818;stroke-width:1.0;stroke-dasharray:2.0,2.0;" x1="619" x2="757.5" y1="735.2562" y2="735.2562"/><text fill="#000000" font-family="sans-serif" font-size="13" lengthAdjust="spacing" textLength="14" x="626" y="729.4472">11</text><text fill="#000000" font-family="sans-serif" font-size="13" lengthAdjust="spacing" textLength="94" x="644" y="729.4472">&#20256;&#36755; Swap_data</text><polygon fill="#181818" points="897.5,762.9622,907.5,766.9622,897.5,770.9622,901.5,766.9622" style="stroke:#181818;stroke-width:1.0;"/><line style="stroke:#181818;stroke-width:1.0;" x1="773.5" x2="903.5" y1="766.9622" y2="766.9622"/><text fill="#000000" font-family="sans-serif" font-size="13" lengthAdjust="spacing" textLength="14" x="780.5" y="761.1532">12</text><text fill="#000000" font-family="sans-serif" font-size="13" lengthAdjust="spacing" textLength="99" x="798.5" y="761.1532">(&#21151;&#33021;&#23618;&#22788;&#29702;&#25968;&#25454;)</text><line style="stroke:#181818;stroke-width:1.0;" x1="919.5" x2="961.5" y1="798.6682" y2="798.6682"/><line style="stroke:#181818;stroke-width:1.0;" x1="961.5" x2="961.5" y1="798.6682" y2="811.6682"/><line style="stroke:#181818;stroke-width:1.0;" x1="920.5" x2="961.5" y1="811.6682" y2="811.6682"/><polygon fill="#181818" points="930.5,807.6682,920.5,811.6682,930.5,815.6682,926.5,811.6682" style="stroke:#181818;stroke-width:1.0;"/><text fill="#000000" font-family="sans-serif" font-size="13" lengthAdjust="spacing" textLength="14" x="926.5" y="792.8592">13</text><text fill="#000000" font-family="sans-serif" font-size="13" lengthAdjust="spacing" textLength="130" x="944.5" y="792.8592">&#35835;&#21462;&#36923;&#36753;&#26356;&#26032;&#28210;&#26579;&#25968;&#25454;</text><line style="stroke:#181818;stroke-width:1.0;" x1="919.5" x2="961.5" y1="843.3742" y2="843.3742"/><line style="stroke:#181818;stroke-width:1.0;" x1="961.5" x2="961.5" y1="843.3742" y2="856.3742"/><line style="stroke:#181818;stroke-width:1.0;" x1="920.5" x2="961.5" y1="856.3742" y2="856.3742"/><polygon fill="#181818" points="930.5,852.3742,920.5,856.3742,930.5,860.3742,926.5,856.3742" style="stroke:#181818;stroke-width:1.0;"/><text fill="#000000" font-family="sans-serif" font-size="13" lengthAdjust="spacing" textLength="14" x="926.5" y="837.5652">14</text><text fill="#000000" font-family="sans-serif" font-size="13" lengthAdjust="spacing" textLength="151" x="944.5" y="837.5652">&#23553;&#35013; Render_tick_context</text><line style="stroke:#181818;stroke-width:1.0;" x1="919.5" x2="961.5" y1="888.0802" y2="888.0802"/><line style="stroke:#181818;stroke-width:1.0;" x1="961.5" x2="961.5" y1="888.0802" y2="901.0802"/><line style="stroke:#181818;stroke-width:1.0;" x1="920.5" x2="961.5" y1="901.0802" y2="901.0802"/><polygon fill="#181818" points="930.5,897.0802,920.5,901.0802,930.5,905.0802,926.5,901.0802" style="stroke:#181818;stroke-width:1.0;"/><text fill="#000000" font-family="sans-serif" font-size="13" lengthAdjust="spacing" textLength="14" x="926.5" y="882.2712">15</text><text fill="#000000" font-family="sans-serif" font-size="13" lengthAdjust="spacing" textLength="78" x="944.5" y="882.2712">&#26500;&#24314;&#28210;&#26579;&#21629;&#20196;</text><polygon fill="#181818" points="1090.5,928.7862,1100.5,932.7862,1090.5,936.7862,1094.5,932.7862" style="stroke:#181818;stroke-width:1.0;"/><line style="stroke:#181818;stroke-width:1.0;" x1="919.5" x2="1096.5" y1="932.7862" y2="932.7862"/><text fill="#000000" font-family="sans-serif" font-size="13" lengthAdjust="spacing" textLength="14" x="926.5" y="926.9772">16</text><text fill="#000000" font-family="sans-serif" font-size="13" lengthAdjust="spacing" textLength="78" x="944.5" y="926.9772">&#25552;&#20132;&#28210;&#26579;&#21629;&#20196;</text><line style="stroke:#181818;stroke-width:1.0;" x1="1112.5" x2="1154.5" y1="964.4923" y2="964.4923"/><line style="stroke:#181818;stroke-width:1.0;" x1="1154.5" x2="1154.5" y1="964.4923" y2="977.4923"/><line style="stroke:#181818;stroke-width:1.0;" x1="1113.5" x2="1154.5" y1="977.4923" y2="977.4923"/><polygon fill="#181818" points="1123.5,973.4923,1113.5,977.4923,1123.5,981.4923,1119.5,977.4923" style="stroke:#181818;stroke-width:1.0;"/><text fill="#000000" font-family="sans-serif" font-size="13" lengthAdjust="spacing" textLength="14" x="1119.5" y="958.6833">17</text><text fill="#000000" font-family="sans-serif" font-size="13" lengthAdjust="spacing" textLength="154" x="1137.5" y="958.6833">&#29983;&#25104;&#22270;&#20687;&#24103; (&#36890;&#36807;&#28210;&#26579;&#31649;&#32447;)</text><path d="M973,990.4923 L973,1017.4923 L1097,1017.4923 L1097,1000.4923 L1087,990.4923 L973,990.4923 " fill="#FEFFDD" style="stroke:#181818;stroke-width:0.5;"/><path d="M1087,990.4923 L1087,1000.4923 L1097,1000.4923 L1087,990.4923 " fill="#FEFFDD" style="stroke:#181818;stroke-width:0.5;"/><text fill="#000000" font-family="sans-serif" font-size="13" lengthAdjust="spacing" textLength="103" x="979" y="1009.3893">RHI &#23631;&#34109;&#24179;&#21488;&#24046;&#24322;</text><polygon fill="#181818" points="930.5,1042.9043,920.5,1046.9043,930.5,1050.9043,926.5,1046.9043" style="stroke:#181818;stroke-width:1.0;"/><line style="stroke:#181818;stroke-width:1.0;stroke-dasharray:2.0,2.0;" x1="924.5" x2="1106.5" y1="1046.9043" y2="1046.9043"/><text fill="#000000" font-family="sans-serif" font-size="13" lengthAdjust="spacing" textLength="14" x="936.5" y="1041.0953">18</text><text fill="#000000" font-family="sans-serif" font-size="13" lengthAdjust="spacing" textLength="3" x="954.5" y="1041.0953">&#160;</text><polygon fill="#181818" points="784.5,1074.6103,774.5,1078.6103,784.5,1082.6103,780.5,1078.6103" style="stroke:#181818;stroke-width:1.0;"/><line style="stroke:#181818;stroke-width:1.0;stroke-dasharray:2.0,2.0;" x1="778.5" x2="913.5" y1="1078.6103" y2="1078.6103"/><text fill="#000000" font-family="sans-serif" font-size="13" lengthAdjust="spacing" textLength="14" x="790.5" y="1072.8013">19</text><text fill="#000000" font-family="sans-serif" font-size="13" lengthAdjust="spacing" textLength="3" x="808.5" y="1072.8013">&#160;</text><polygon fill="#181818" points="184,1106.3163,174,1110.3163,184,1114.3163,180,1110.3163" style="stroke:#181818;stroke-width:1.0;"/><line style="stroke:#181818;stroke-width:1.0;stroke-dasharray:2.0,2.0;" x1="178" x2="767.5" y1="1110.3163" y2="1110.3163"/><text fill="#000000" font-family="sans-serif" font-size="13" lengthAdjust="spacing" textLength="14" x="190" y="1104.5073">20</text><text fill="#000000" font-family="sans-serif" font-size="13" lengthAdjust="spacing" textLength="52" x="208" y="1104.5073">&#28210;&#26579;&#23436;&#25104;</text><polygon fill="#181818" points="1095.5,1138.0223,1105.5,1142.0223,1095.5,1146.0223,1099.5,1142.0223" style="stroke:#181818;stroke-width:1.0;"/><line style="stroke:#181818;stroke-width:1.0;" x1="173" x2="1101.5" y1="1142.0223" y2="1142.0223"/><text fill="#000000" font-family="sans-serif" font-size="13" lengthAdjust="spacing" textLength="14" x="180" y="1136.2133">21</text><text fill="#000000" font-family="sans-serif" font-size="13" lengthAdjust="spacing" textLength="104" x="198" y="1136.2133">&#26816;&#26597;&#22270;&#24418;&#25509;&#21475;&#38169;&#35823;</text><polygon fill="#181818" points="184,1169.7284,174,1173.7284,184,1177.7284,180,1173.7284" style="stroke:#181818;stroke-width:1.0;"/><line style="stroke:#181818;stroke-width:1.0;stroke-dasharray:2.0,2.0;" x1="178" x2="1106.5" y1="1173.7284" y2="1173.7284"/><text fill="#000000" font-family="sans-serif" font-size="13" lengthAdjust="spacing" textLength="14" x="190" y="1167.9194">22</text><text fill="#000000" font-family="sans-serif" font-size="13" lengthAdjust="spacing" textLength="52" x="208" y="1167.9194">&#38169;&#35823;&#25253;&#21578;</text><polygon fill="#181818" points="333,1219.1404,343,1223.1404,333,1227.1404,337,1223.1404" style="stroke:#181818;stroke-width:1.0;"/><line style="stroke:#181818;stroke-width:1.0;" x1="173" x2="339" y1="1223.1404" y2="1223.1404"/><text fill="#000000" font-family="sans-serif" font-size="13" lengthAdjust="spacing" textLength="14" x="180" y="1208.4784">23</text><text fill="#000000" font-family="sans-serif" font-size="13" lengthAdjust="spacing" textLength="94" x="198" y="1199.6254">on_frame_end()</text><text fill="#000000" font-family="sans-serif" font-size="13" lengthAdjust="spacing" textLength="131" x="198" y="1217.3314">(&#32467;&#26463;&#24403;&#21069;&#24103;, &#21047;&#26032;&#31383;&#21475;)</text><polygon fill="#181818" points="184,1250.8464,174,1254.8464,184,1258.8464,180,1254.8464" style="stroke:#181818;stroke-width:1.0;"/><line style="stroke:#181818;stroke-width:1.0;stroke-dasharray:2.0,2.0;" x1="178" x2="349" y1="1254.8464" y2="1254.8464"/><text fill="#000000" font-family="sans-serif" font-size="13" lengthAdjust="spacing" textLength="14" x="190" y="1249.0374">24</text><text fill="#000000" font-family="sans-serif" font-size="13" lengthAdjust="spacing" textLength="3" x="208" y="1249.0374">&#160;</text><polygon fill="#181818" points="33,1289.5524,23,1293.5524,33,1297.5524,29,1293.5524" style="stroke:#181818;stroke-width:1.0;"/><line style="stroke:#181818;stroke-width:1.0;stroke-dasharray:2.0,2.0;" x1="27" x2="167" y1="1293.5524" y2="1293.5524"/><text fill="#000000" font-family="sans-serif" font-size="13" lengthAdjust="spacing" textLength="14" x="39" y="1287.7434">25</text><text fill="#000000" font-family="sans-serif" font-size="13" lengthAdjust="spacing" textLength="104" x="57" y="1287.7434">&#34394;&#25311;&#19990;&#30028;&#25345;&#32493;&#36816;&#21160;</text><!--SRC=[fLPBJnjN5DxFhpXb4om5bBwoi28MJKX1QZUWb4qawyQ-s2Fi6MiyXh0p8H0m3nlXK04fBW5K5BKsX1ICZU77rFVEy2zwxjoPyOnXKQaRQsRkzvtdTyxrLrc393C4qcHMpvkGor2JQ4HHJDLCKnZBQwQQeV3Sq3MJQWby8FZwawvduMSQJn5DpMMWdpN-ODUVhFKw_z1aI-SHHI5nKpUWpweSywMBFY0vU96ZXf8bXgd6rIpHJEWRrfAgHcE6zE60vASmR4BL4leCZC_cJ9fvgVLRdtvbfGFhh6MrgX679H5XrY-gOUP96YPq8vr0bhszmrUgdSQMzNxLPOcJCEcfoFAr2SElHMf9J9JCKWFPdKQnqrZXM-ywpKE-zf6Tlecyr9uy6PyXsLY2c6Heo37fyZrwsFXpIioyqRN9YbLxlYrCELptECmPmvfJevixRtpcrSrWxX8HPlr0ubEYMIxx6PrMunJPOoEZBcba55kKDtKjdtc5YBv7Z_eKvG64EnADuWCa37MQvi1CKSWGLOCqzbuHpOI18PS0KM3bEYiUo_3Ozh7elpfDJEfrr0K6AMYyFo9oMfspMd_nWmB_UqNsbdzfsHVpg2BX2tYzr6aKK6BGFv5IKPGpKX1g3Xml5840zpZ0Wan93-l7ziqkMh1lodRxJmV_00O61k3hGLVHuoOMK7mAcNAb5mLTYqqANEmLnJF7A3jyQvKNxUjDjd3qJs5EHjvfhdHQg7y0lm2kEC4pDk27YDyIj1VdX_RD88vPKet3Ysn2d6E4ACZU2BiDE9cp3nOa9IOoZyMb6CC92SqZ-YuCCxejjEph3RxxXM-TX5Dm9WLSTi2CnFBb0l-mpEgNzkc-LJpdXJd4QZeI3JMPCa6Vz0b15rRbbEylyhrp705MsxFMJxekWfdPDnMsk-ToFFF1mZdH-NNxTX3kZ77_CvnH4DCQkLF1dfb5Xpd4EIsMmmx-b8DrjSaMFxFLPiJBC4qddGJlMl5Ps1jlqgtT1biuu-zF-5hjtgt2QZkTo-M0GByRX1yDaasfSM_KLIqPqaAlPr4xRzL4eNFrEqgq6qomhTx60H-FL7TdHA6xdwJIPTGXNRYx1pnIa6xNMwoq5UotN0xIpFqSLyFolLV4z-3vtblMQhfBPwFTQHs6SIEZ0bGgY_A6GTqKS1E2W_G9LgNAbyfizvhDbvojSrlOiM_UkQktjcyrR-wqNpB5BpijsPKskpnZfHDsKMDNRppxVkHX-ReHk55tczU3yfX-gu8ZucPNMyN0mppFc2-exmTXs33mRdwQel4f8QRUWN3BXlkuUYIgqFx8ruzmjzrMjkrwFP2DxrwUyE8HsoXsFJtsTkkmblWFcnKJT8REQctotwgilScMrx3y3u4jNOZ9T_Rh_zgiw45H0jzxhYPaEzSQQZVmNq7UJdXnuFMc_0i0]--></g></svg>