<?xml version="1.0" encoding="us-ascii" standalone="no"?><svg xmlns="http://www.w3.org/2000/svg" xmlns:xlink="http://www.w3.org/1999/xlink" contentStyleType="text/css" height="1000px" preserveAspectRatio="none" style="width:1012px;height:1000px;background:#FFFFFF;" version="1.1" viewBox="0 0 1012 1000" width="1012px" zoomAndPan="magnify"><defs/><g><!--class RHI_global_render_resource--><g id="elem_RHI_global_render_resource"><rect codeLine="4" fill="#F1F1F1" height="173.4754" id="RHI_global_render_resource" rx="2.5" ry="2.5" style="stroke:#181818;stroke-width:0.5;" width="240" x="37.81" y="709.08"/><ellipse cx="61.36" cy="725.08" fill="#ADD1B2" rx="11" ry="11" style="stroke:#181818;stroke-width:1.0;"/><path d="M61.4694,720.6112 Q60.5475,720.6112 59.8131,720.9237 Q59.0944,721.2362 58.5944,721.83 Q58.0944,722.4081 57.8131,723.2831 Q57.5475,724.1581 57.5475,725.2519 Q57.5475,726.6894 57.985,727.7362 Q58.4381,728.7831 59.2819,729.33 Q60.1413,729.8769 61.4538,729.8769 Q62.235,729.8769 62.9225,729.7519 Q63.6256,729.6112 64.6256,729.2987 L64.6256,731.1737 Q63.7663,731.5019 63.0006,731.6269 Q62.2506,731.7519 61.235,731.7519 Q59.3131,731.7519 58.0006,730.955 Q56.7038,730.1425 56.0475,728.6737 Q55.3913,727.1894 55.3913,725.2206 Q55.3913,723.7987 55.7819,722.6269 Q56.1881,721.4394 56.9694,720.5644 Q57.7506,719.6894 58.8913,719.2206 Q60.0319,718.7362 61.5006,718.7362 Q62.4538,718.7362 63.3444,718.9394 Q64.2506,719.1269 65.1881,719.5956 L64.36,721.3769 Q63.5788,721.0019 62.9225,720.8144 Q62.2663,720.6112 61.4694,720.6112 Z " fill="#000000"/><text fill="#000000" font-family="sans-serif" font-size="14" lengthAdjust="spacing" textLength="189" x="77.26" y="730.512">RHI_global_render_resource</text><line style="stroke:#181818;stroke-width:0.5;" x1="38.81" x2="276.81" y1="741.08" y2="741.08"/><ellipse cx="48.81" cy="756.114" fill="none" rx="3" ry="3" style="stroke:#038048;stroke-width:1.0;"/><text fill="#000000" font-family="sans-serif" font-size="14" lengthAdjust="spacing" textLength="133" x="57.81" y="760.0459">RHI&#35774;&#22791;: RHI_device</text><ellipse cx="48.81" cy="775.1819" fill="none" rx="3" ry="3" style="stroke:#038048;stroke-width:1.0;"/><text fill="#000000" font-family="sans-serif" font-size="14" lengthAdjust="spacing" textLength="146" x="57.81" y="779.1139">&#28210;&#26579;&#31383;&#21475;: RHI_window</text><ellipse cx="48.81" cy="794.2498" fill="none" rx="3" ry="3" style="stroke:#038048;stroke-width:1.0;"/><text fill="#000000" font-family="sans-serif" font-size="14" lengthAdjust="spacing" textLength="140" x="57.81" y="798.1818">&#28210;&#26579;&#22120;: RHI_renderer</text><ellipse cx="48.81" cy="813.3177" fill="none" rx="3" ry="3" style="stroke:#038048;stroke-width:1.0;"/><text fill="#000000" font-family="sans-serif" font-size="14" lengthAdjust="spacing" textLength="201" x="57.81" y="817.2497">&#23631;&#24149;&#32531;&#20914;&#21306;: RHI_screen_buffer</text><ellipse cx="48.81" cy="832.3856" fill="none" rx="3" ry="3" style="stroke:#038048;stroke-width:1.0;"/><text fill="#000000" font-family="sans-serif" font-size="14" lengthAdjust="spacing" textLength="214" x="57.81" y="836.3176">&#20869;&#23384;&#32465;&#23450;&#22120;: RHI_memory_binder</text><ellipse cx="48.81" cy="851.4535" fill="none" rx="3" ry="3" style="stroke:#038048;stroke-width:1.0;"/><text fill="#000000" font-family="sans-serif" font-size="14" lengthAdjust="spacing" textLength="188" x="57.81" y="855.3855">&#31649;&#32447;&#29366;&#24577;: RHI_pipeline_state</text><ellipse cx="48.81" cy="870.5215" fill="none" rx="3" ry="3" style="stroke:#038048;stroke-width:1.0;"/><text fill="#000000" font-family="sans-serif" font-size="14" lengthAdjust="spacing" textLength="211" x="57.81" y="874.4534">&#32441;&#29702;&#26500;&#24314;&#22120;: RHI_texture_builder</text></g><!--class Execution_context--><g id="elem_Execution_context"><rect codeLine="17" fill="#F1F1F1" height="32" id="Execution_context" rx="2.5" ry="2.5" style="stroke:#181818;stroke-width:0.5;" width="152" x="383.81" y="779.82"/><ellipse cx="398.81" cy="795.82" fill="#ADD1B2" rx="11" ry="11" style="stroke:#181818;stroke-width:1.0;"/><path d="M398.9194,791.3512 Q397.9975,791.3512 397.2631,791.6637 Q396.5444,791.9762 396.0444,792.57 Q395.5444,793.1481 395.2631,794.0231 Q394.9975,794.8981 394.9975,795.9919 Q394.9975,797.4294 395.435,798.4762 Q395.8881,799.5231 396.7319,800.07 Q397.5913,800.6169 398.9038,800.6169 Q399.685,800.6169 400.3725,800.4919 Q401.0756,800.3512 402.0756,800.0387 L402.0756,801.9137 Q401.2163,802.2419 400.4506,802.3669 Q399.7006,802.4919 398.685,802.4919 Q396.7631,802.4919 395.4506,801.695 Q394.1538,800.8825 393.4975,799.4137 Q392.8413,797.9294 392.8413,795.9606 Q392.8413,794.5387 393.2319,793.3669 Q393.6381,792.1794 394.4194,791.3044 Q395.2006,790.4294 396.3413,789.9606 Q397.4819,789.4762 398.9506,789.4762 Q399.9038,789.4762 400.7944,789.6794 Q401.7006,789.8669 402.6381,790.3356 L401.81,792.1169 Q401.0288,791.7419 400.3725,791.5544 Q399.7163,791.3512 398.9194,791.3512 Z " fill="#000000"/><text fill="#000000" font-family="sans-serif" font-size="14" lengthAdjust="spacing" textLength="120" x="412.81" y="801.252">Execution_context</text></g><!--class Render_object--><g id="elem_Render_object"><rect codeLine="21" fill="#F1F1F1" height="32" id="Render_object" rx="2.5" ry="2.5" style="stroke:#181818;stroke-width:0.5;" width="128" x="596.81" y="961.56"/><ellipse cx="611.81" cy="977.56" fill="#ADD1B2" rx="11" ry="11" style="stroke:#181818;stroke-width:1.0;"/><path d="M611.9194,973.0913 Q610.9975,973.0913 610.2631,973.4038 Q609.5444,973.7163 609.0444,974.31 Q608.5444,974.8881 608.2631,975.7631 Q607.9975,976.6381 607.9975,977.7319 Q607.9975,979.1694 608.435,980.2163 Q608.8881,981.2631 609.7319,981.81 Q610.5913,982.3569 611.9038,982.3569 Q612.685,982.3569 613.3725,982.2319 Q614.0756,982.0913 615.0756,981.7788 L615.0756,983.6538 Q614.2163,983.9819 613.4506,984.1069 Q612.7006,984.2319 611.685,984.2319 Q609.7631,984.2319 608.4506,983.435 Q607.1538,982.6225 606.4975,981.1538 Q605.8413,979.6694 605.8413,977.7006 Q605.8413,976.2788 606.2319,975.1069 Q606.6381,973.9194 607.4194,973.0444 Q608.2006,972.1694 609.3413,971.7006 Q610.4819,971.2163 611.9506,971.2163 Q612.9038,971.2163 613.7944,971.4194 Q614.7006,971.6069 615.6381,972.0756 L614.81,973.8569 Q614.0288,973.4819 613.3725,973.2944 Q612.7163,973.0913 611.9194,973.0913 Z " fill="#000000"/><text fill="#000000" font-family="sans-serif" font-size="14" lengthAdjust="spacing" textLength="96" x="625.81" y="982.992">Render_object</text></g><!--class Render_resource_flow--><g id="elem_Render_resource_flow"><rect codeLine="25" fill="#F1F1F1" height="32" id="Render_resource_flow" rx="2.5" ry="2.5" style="stroke:#181818;stroke-width:0.5;" width="180" x="570.81" y="779.82"/><ellipse cx="585.81" cy="795.82" fill="#ADD1B2" rx="11" ry="11" style="stroke:#181818;stroke-width:1.0;"/><path d="M585.9194,791.3512 Q584.9975,791.3512 584.2631,791.6637 Q583.5444,791.9762 583.0444,792.57 Q582.5444,793.1481 582.2631,794.0231 Q581.9975,794.8981 581.9975,795.9919 Q581.9975,797.4294 582.435,798.4762 Q582.8881,799.5231 583.7319,800.07 Q584.5913,800.6169 585.9038,800.6169 Q586.685,800.6169 587.3725,800.4919 Q588.0756,800.3512 589.0756,800.0387 L589.0756,801.9137 Q588.2163,802.2419 587.4506,802.3669 Q586.7006,802.4919 585.685,802.4919 Q583.7631,802.4919 582.4506,801.695 Q581.1538,800.8825 580.4975,799.4137 Q579.8413,797.9294 579.8413,795.9606 Q579.8413,794.5387 580.2319,793.3669 Q580.6381,792.1794 581.4194,791.3044 Q582.2006,790.4294 583.3413,789.9606 Q584.4819,789.4762 585.9506,789.4762 Q586.9038,789.4762 587.7944,789.6794 Q588.7006,789.8669 589.6381,790.3356 L588.81,792.1169 Q588.0288,791.7419 587.3725,791.5544 Q586.7163,791.3512 585.9194,791.3512 Z " fill="#000000"/><text fill="#000000" font-family="sans-serif" font-size="14" lengthAdjust="spacing" textLength="148" x="599.81" y="801.252">Render_resource_flow</text></g><!--class Render_pass--><g id="elem_Render_pass"><rect codeLine="31" fill="#F1F1F1" height="105.2038" id="Render_pass" rx="2.5" ry="2.5" style="stroke:#181818;stroke-width:0.5;" width="511" x="272.31" y="524.88"/><ellipse cx="484.56" cy="540.88" fill="#A9DCDF" rx="11" ry="11" style="stroke:#181818;stroke-width:1.0;"/><path d="M487.9038,546.13 L486.435,542.38 L481.9975,542.38 L480.56,546.13 L478.435,546.13 L483.3881,533.4112 L485.1381,533.4112 L490.06,546.13 L487.9038,546.13 Z M484.56,537.1769 Q484.5131,537.0206 484.3881,536.6612 Q484.2631,536.3019 484.1538,535.9269 Q484.0444,535.5362 484.2475,535.4737 Q484.4038,535.6612 484.31,536.0206 Q484.2163,536.3644 484.1225,536.6612 Q484.0288,536.9425 483.9506,537.1769 L482.7163,540.4894 L485.7944,540.4894 L484.56,537.1769 Z " fill="#000000"/><text fill="#000000" font-family="sans-serif" font-size="14" font-style="italic" lengthAdjust="spacing" textLength="78" x="505.06" y="546.312">Render_pass</text><line style="stroke:#181818;stroke-width:0.5;" x1="273.31" x2="782.31" y1="556.88" y2="556.88"/><rect fill="none" height="6" style="stroke:#C82930;stroke-width:1.0;" width="6" x="280.31" y="568.914"/><text fill="#000000" font-family="sans-serif" font-size="14" lengthAdjust="spacing" textLength="410" x="292.31" y="575.8459">m_rhi_global_render_resource: RHI_global_render_resource&amp;</text><line style="stroke:#181818;stroke-width:1.0;" x1="273.31" x2="782.31" y1="583.9479" y2="583.9479"/><ellipse cx="283.31" cy="598.9819" fill="#84BE84" rx="3" ry="3" style="stroke:#038048;stroke-width:1.0;"/><text fill="#000000" font-family="sans-serif" font-size="14" lengthAdjust="spacing" textLength="485" x="292.31" y="602.9139">Render_pass(rhi_global_render_resource: RHI_global_render_resource&amp;)</text><ellipse cx="283.31" cy="618.0498" fill="#84BE84" rx="3" ry="3" style="stroke:#038048;stroke-width:1.0;"/><text fill="#000000" font-family="sans-serif" font-size="14" lengthAdjust="spacing" textLength="145" x="292.31" y="621.9818">&#171;abstract&#187; &#25191;&#34892;(): void</text></g><!--class Render_tick_context--><g id="elem_Render_tick_context"><rect codeLine="46" fill="#F1F1F1" height="32" id="Render_tick_context" rx="2.5" ry="2.5" style="stroke:#181818;stroke-width:0.5;" width="165" x="72.31" y="561.48"/><ellipse cx="87.31" cy="577.48" fill="#ADD1B2" rx="11" ry="11" style="stroke:#181818;stroke-width:1.0;"/><path d="M87.4194,573.0113 Q86.4975,573.0113 85.7631,573.3238 Q85.0444,573.6363 84.5444,574.23 Q84.0444,574.8081 83.7631,575.6831 Q83.4975,576.5581 83.4975,577.6519 Q83.4975,579.0894 83.935,580.1363 Q84.3881,581.1831 85.2319,581.73 Q86.0913,582.2769 87.4038,582.2769 Q88.185,582.2769 88.8725,582.1519 Q89.5756,582.0113 90.5756,581.6988 L90.5756,583.5738 Q89.7163,583.9019 88.9506,584.0269 Q88.2006,584.1519 87.185,584.1519 Q85.2631,584.1519 83.9506,583.355 Q82.6538,582.5425 81.9975,581.0738 Q81.3413,579.5894 81.3413,577.6206 Q81.3413,576.1988 81.7319,575.0269 Q82.1381,573.8394 82.9194,572.9644 Q83.7006,572.0894 84.8413,571.6206 Q85.9819,571.1363 87.4506,571.1363 Q88.4038,571.1363 89.2944,571.3394 Q90.2006,571.5269 91.1381,571.9956 L90.31,573.7769 Q89.5288,573.4019 88.8725,573.2144 Q88.2163,573.0113 87.4194,573.0113 Z " fill="#000000"/><text fill="#000000" font-family="sans-serif" font-size="14" lengthAdjust="spacing" textLength="133" x="101.31" y="582.912">Render_tick_context</text></g><!--class Resource_manager--><g id="elem_Resource_manager"><rect codeLine="51" fill="#F1F1F1" height="32" id="Resource_manager" rx="2.5" ry="2.5" style="stroke:#181818;stroke-width:0.5;" width="161" x="818.31" y="561.48"/><ellipse cx="833.31" cy="577.48" fill="#ADD1B2" rx="11" ry="11" style="stroke:#181818;stroke-width:1.0;"/><path d="M833.4194,573.0113 Q832.4975,573.0113 831.7631,573.3238 Q831.0444,573.6363 830.5444,574.23 Q830.0444,574.8081 829.7631,575.6831 Q829.4975,576.5581 829.4975,577.6519 Q829.4975,579.0894 829.935,580.1363 Q830.3881,581.1831 831.2319,581.73 Q832.0913,582.2769 833.4038,582.2769 Q834.185,582.2769 834.8725,582.1519 Q835.5756,582.0113 836.5756,581.6988 L836.5756,583.5738 Q835.7163,583.9019 834.9506,584.0269 Q834.2006,584.1519 833.185,584.1519 Q831.2631,584.1519 829.9506,583.355 Q828.6538,582.5425 827.9975,581.0738 Q827.3413,579.5894 827.3413,577.6206 Q827.3413,576.1988 827.7319,575.0269 Q828.1381,573.8394 828.9194,572.9644 Q829.7006,572.0894 830.8413,571.6206 Q831.9819,571.1363 833.4506,571.1363 Q834.4038,571.1363 835.2944,571.3394 Q836.2006,571.5269 837.1381,571.9956 L836.31,573.7769 Q835.5288,573.4019 834.8725,573.2144 Q834.2163,573.0113 833.4194,573.0113 Z " fill="#000000"/><text fill="#000000" font-family="sans-serif" font-size="14" lengthAdjust="spacing" textLength="129" x="847.31" y="582.912">Resource_manager</text></g><!--class Render_pipeline--><g id="elem_Render_pipeline"><rect codeLine="56" fill="#F1F1F1" height="208.5433" id="Render_pipeline" rx="2.5" ry="2.5" style="stroke:#181818;stroke-width:0.5;" width="424" x="293.81" y="237.34"/><ellipse cx="451.56" cy="253.34" fill="#A9DCDF" rx="11" ry="11" style="stroke:#181818;stroke-width:1.0;"/><path d="M454.9038,258.59 L453.435,254.84 L448.9975,254.84 L447.56,258.59 L445.435,258.59 L450.3881,245.8712 L452.1381,245.8712 L457.06,258.59 L454.9038,258.59 Z M451.56,249.6369 Q451.5131,249.4806 451.3881,249.1212 Q451.2631,248.7619 451.1538,248.3869 Q451.0444,247.9962 451.2475,247.9337 Q451.4038,248.1212 451.31,248.4806 Q451.2163,248.8244 451.1225,249.1212 Q451.0288,249.4025 450.9506,249.6369 L449.7163,252.9494 L452.7944,252.9494 L451.56,249.6369 Z " fill="#000000"/><text fill="#000000" font-family="sans-serif" font-size="14" font-style="italic" lengthAdjust="spacing" textLength="100" x="472.06" y="258.772">Render_pipeline</text><line style="stroke:#181818;stroke-width:0.5;" x1="294.81" x2="716.81" y1="269.34" y2="269.34"/><rect fill="none" height="6" style="stroke:#C82930;stroke-width:1.0;" width="6" x="301.81" y="281.374"/><text fill="#000000" font-family="sans-serif" font-size="14" lengthAdjust="spacing" textLength="282" x="313.81" y="288.3059">m_resource_manager: Resource_manager</text><rect fill="none" height="6" style="stroke:#C82930;stroke-width:1.0;" width="6" x="301.81" y="300.4419"/><text fill="#000000" font-family="sans-serif" font-size="14" lengthAdjust="spacing" textLength="339" x="313.81" y="307.3739">m_render_passes: List&lt;shared_ptr&lt;Render_pass&gt;&gt;</text><line style="stroke:#181818;stroke-width:1.0;" x1="294.81" x2="716.81" y1="315.4758" y2="315.4758"/><ellipse cx="304.81" cy="330.5098" fill="#84BE84" rx="3" ry="3" style="stroke:#038048;stroke-width:1.0;"/><text fill="#000000" font-family="sans-serif" font-size="14" lengthAdjust="spacing" textLength="368" x="313.81" y="334.4418">&#171;abstract&#187; &#25191;&#34892;(&#19978;&#19979;&#25991;: const Render_tick_context): void</text><ellipse cx="304.81" cy="349.5777" fill="#84BE84" rx="3" ry="3" style="stroke:#038048;stroke-width:1.0;"/><text fill="#000000" font-family="sans-serif" font-size="14" lengthAdjust="spacing" textLength="189" x="313.81" y="353.5097">&#171;abstract&#187; &#21021;&#22987;&#21270;UBO(): void</text><ellipse cx="304.81" cy="368.6456" fill="#84BE84" rx="3" ry="3" style="stroke:#038048;stroke-width:1.0;"/><text fill="#000000" font-family="sans-serif" font-size="14" lengthAdjust="spacing" textLength="398" x="313.81" y="372.5776">&#171;abstract&#187; &#26356;&#26032;UBO(&#19978;&#19979;&#25991;: const Render_tick_context): void</text><line style="stroke:#181818;stroke-width:1.0;" x1="294.81" x2="716.81" y1="380.6796" y2="380.6796"/><ellipse cx="304.81" cy="395.7135" fill="#84BE84" rx="3" ry="3" style="stroke:#038048;stroke-width:1.0;"/><text fill="#000000" font-family="sans-serif" font-size="14" lengthAdjust="spacing" textLength="142" x="313.81" y="399.6455">&#21021;&#22987;&#21270;&#28210;&#26579;&#38454;&#27573;(): void</text><ellipse cx="304.81" cy="414.7815" fill="#84BE84" rx="3" ry="3" style="stroke:#038048;stroke-width:1.0;"/><text fill="#000000" font-family="sans-serif" font-size="14" lengthAdjust="spacing" textLength="351" x="313.81" y="418.7134">&#26356;&#26032;&#28210;&#26579;&#38454;&#27573;(&#19978;&#19979;&#25991;: const Render_tick_context): void</text><ellipse cx="304.81" cy="433.8494" fill="#84BE84" rx="3" ry="3" style="stroke:#038048;stroke-width:1.0;"/><text fill="#000000" font-family="sans-serif" font-size="14" lengthAdjust="spacing" textLength="351" x="313.81" y="437.7814">&#26356;&#26032;&#31649;&#32447;&#36164;&#28304;(&#19978;&#19979;&#25991;: const Render_tick_context): void</text></g><!--class Render_system--><g id="elem_Render_system"><rect codeLine="84" fill="#F1F1F1" height="151.3396" id="Render_system" rx="2.5" ry="2.5" style="stroke:#181818;stroke-width:0.5;" width="599" x="206.31" y="7"/><ellipse cx="450.56" cy="23" fill="#ADD1B2" rx="11" ry="11" style="stroke:#181818;stroke-width:1.0;"/><path d="M450.6694,18.5313 Q449.7475,18.5313 449.0131,18.8438 Q448.2944,19.1563 447.7944,19.75 Q447.2944,20.3281 447.0131,21.2031 Q446.7475,22.0781 446.7475,23.1719 Q446.7475,24.6094 447.185,25.6563 Q447.6381,26.7031 448.4819,27.25 Q449.3413,27.7969 450.6538,27.7969 Q451.435,27.7969 452.1225,27.6719 Q452.8256,27.5313 453.8256,27.2188 L453.8256,29.0938 Q452.9663,29.4219 452.2006,29.5469 Q451.4506,29.6719 450.435,29.6719 Q448.5131,29.6719 447.2006,28.875 Q445.9038,28.0625 445.2475,26.5938 Q444.5913,25.1094 444.5913,23.1406 Q444.5913,21.7188 444.9819,20.5469 Q445.3881,19.3594 446.1694,18.4844 Q446.9506,17.6094 448.0913,17.1406 Q449.2319,16.6563 450.7006,16.6563 Q451.6538,16.6563 452.5444,16.8594 Q453.4506,17.0469 454.3881,17.5156 L453.56,19.2969 Q452.7788,18.9219 452.1225,18.7344 Q451.4663,18.5313 450.6694,18.5313 Z " fill="#000000"/><text fill="#000000" font-family="sans-serif" font-size="14" lengthAdjust="spacing" textLength="102" x="471.06" y="28.432">Render_system</text><line style="stroke:#181818;stroke-width:0.5;" x1="207.31" x2="804.31" y1="39" y2="39"/><rect fill="none" height="6" style="stroke:#C82930;stroke-width:1.0;" width="6" x="214.31" y="51.034"/><text fill="#000000" font-family="sans-serif" font-size="14" lengthAdjust="spacing" textLength="300" x="226.31" y="57.9659">m_&#20840;&#23616;&#28210;&#26579;&#36164;&#28304;: RHI_global_render_resource</text><rect fill="none" height="6" style="stroke:#C82930;stroke-width:1.0;" width="6" x="214.31" y="70.1019"/><text fill="#000000" font-family="sans-serif" font-size="14" lengthAdjust="spacing" textLength="282" x="226.31" y="77.0339">m_&#28210;&#26579;&#31649;&#32447;: shared_ptr&lt;Render_pipeline&gt;</text><line style="stroke:#181818;stroke-width:1.0;" x1="207.31" x2="804.31" y1="85.1358" y2="85.1358"/><ellipse cx="217.31" cy="100.1698" fill="#84BE84" rx="3" ry="3" style="stroke:#038048;stroke-width:1.0;"/><text fill="#000000" font-family="sans-serif" font-size="14" lengthAdjust="spacing" textLength="573" x="226.31" y="104.1018">Render_system(rhi_&#35774;&#22791;: shared_ptr&lt;RHI_device&gt;, rhi_&#31383;&#21475;: shared_ptr&lt;RHI_window&gt;)</text><line style="stroke:#181818;stroke-width:1.0;" x1="207.31" x2="804.31" y1="112.2038" y2="112.2038"/><ellipse cx="217.31" cy="127.2377" fill="#84BE84" rx="3" ry="3" style="stroke:#038048;stroke-width:1.0;"/><text fill="#000000" font-family="sans-serif" font-size="14" lengthAdjust="spacing" textLength="363" x="226.31" y="131.1697">&#35774;&#32622;&#28210;&#26579;&#31649;&#32447;(&#31649;&#32447;: shared_ptr&lt;Render_pipeline&gt;): void</text><ellipse cx="217.31" cy="146.3056" fill="#84BE84" rx="3" ry="3" style="stroke:#038048;stroke-width:1.0;"/><text fill="#000000" font-family="sans-serif" font-size="14" lengthAdjust="spacing" textLength="309" x="226.31" y="150.2376">&#24103;&#26356;&#26032;(&#19978;&#19979;&#25991;: const Render_tick_context): void</text></g><!--class RHI_device--><g id="elem_RHI_device"><rect fill="#F1F1F1" height="32" id="RHI_device" rx="2.5" ry="2.5" style="stroke:#181818;stroke-width:0.5;" width="105" x="752.31" y="325.61"/><ellipse cx="767.31" cy="341.61" fill="#ADD1B2" rx="11" ry="11" style="stroke:#181818;stroke-width:1.0;"/><path d="M767.4194,337.1412 Q766.4975,337.1412 765.7631,337.4537 Q765.0444,337.7662 764.5444,338.36 Q764.0444,338.9381 763.7631,339.8131 Q763.4975,340.6881 763.4975,341.7819 Q763.4975,343.2194 763.935,344.2662 Q764.3881,345.3131 765.2319,345.86 Q766.0913,346.4069 767.4038,346.4069 Q768.185,346.4069 768.8725,346.2819 Q769.5756,346.1412 770.5756,345.8287 L770.5756,347.7037 Q769.7163,348.0319 768.9506,348.1569 Q768.2006,348.2819 767.185,348.2819 Q765.2631,348.2819 763.9506,347.485 Q762.6538,346.6725 761.9975,345.2037 Q761.3413,343.7194 761.3413,341.7506 Q761.3413,340.3287 761.7319,339.1569 Q762.1381,337.9694 762.9194,337.0944 Q763.7006,336.2194 764.8413,335.7506 Q765.9819,335.2662 767.4506,335.2662 Q768.4038,335.2662 769.2944,335.4694 Q770.2006,335.6569 771.1381,336.1256 L770.31,337.9069 Q769.5288,337.5319 768.8725,337.3444 Q768.2163,337.1412 767.4194,337.1412 Z " fill="#000000"/><text fill="#000000" font-family="sans-serif" font-size="14" lengthAdjust="spacing" textLength="73" x="781.31" y="347.042">RHI_device</text></g><!--class RHI_window--><g id="elem_RHI_window"><rect fill="#F1F1F1" height="32" id="RHI_window" rx="2.5" ry="2.5" style="stroke:#181818;stroke-width:0.5;" width="114" x="891.81" y="325.61"/><ellipse cx="906.81" cy="341.61" fill="#ADD1B2" rx="11" ry="11" style="stroke:#181818;stroke-width:1.0;"/><path d="M906.9194,337.1412 Q905.9975,337.1412 905.2631,337.4537 Q904.5444,337.7662 904.0444,338.36 Q903.5444,338.9381 903.2631,339.8131 Q902.9975,340.6881 902.9975,341.7819 Q902.9975,343.2194 903.435,344.2662 Q903.8881,345.3131 904.7319,345.86 Q905.5913,346.4069 906.9038,346.4069 Q907.685,346.4069 908.3725,346.2819 Q909.0756,346.1412 910.0756,345.8287 L910.0756,347.7037 Q909.2163,348.0319 908.4506,348.1569 Q907.7006,348.2819 906.685,348.2819 Q904.7631,348.2819 903.4506,347.485 Q902.1538,346.6725 901.4975,345.2037 Q900.8413,343.7194 900.8413,341.7506 Q900.8413,340.3287 901.2319,339.1569 Q901.6381,337.9694 902.4194,337.0944 Q903.2006,336.2194 904.3413,335.7506 Q905.4819,335.2662 906.9506,335.2662 Q907.9038,335.2662 908.7944,335.4694 Q909.7006,335.6569 910.6381,336.1256 L909.81,337.9069 Q909.0288,337.5319 908.3725,337.3444 Q907.7163,337.1412 906.9194,337.1412 Z " fill="#000000"/><text fill="#000000" font-family="sans-serif" font-size="14" lengthAdjust="spacing" textLength="82" x="920.81" y="347.042">RHI_window</text></g><!--reverse link Render_resource_flow to Render_object--><g id="link_Render_resource_flow_Render_object"><path codeLine="28" d="M660.81,824.15 C660.81,858.1 660.81,927.35 660.81,961.27 " fill="none" id="Render_resource_flow-backto-Render_object" style="stroke:#181818;stroke-width:1.0;"/><polygon fill="#181818" points="660.81,812.15,656.81,818.15,660.81,824.15,664.81,818.15,660.81,812.15" style="stroke:#181818;stroke-width:1.0;"/><text fill="#000000" font-family="sans-serif" font-size="13" lengthAdjust="spacing" textLength="26" x="661.81" y="927.457">&#21253;&#21547;</text><text fill="#000000" font-family="sans-serif" font-size="13" lengthAdjust="spacing" textLength="8" x="651.435" y="949.7668">n</text></g><!--link Render_pass to Execution_context--><g id="link_Render_pass_Execution_context"><path codeLine="40" d="M511.43,630.58 C496.11,679.34 475.9785,743.3859 466.3985,773.8759 " fill="none" id="Render_pass-to-Execution_context" style="stroke:#181818;stroke-width:1.0;stroke-dasharray:7.0,7.0;"/><polygon fill="#181818" points="464.6,779.6,471.1138,772.2129,466.0988,774.8299,463.4817,769.8148,464.6,779.6" style="stroke:#181818;stroke-width:1.0;"/><text fill="#000000" font-family="sans-serif" font-size="13" lengthAdjust="spacing" textLength="26" x="502.9" y="674.977">&#20351;&#29992;</text></g><!--link Render_pass to Render_resource_flow--><g id="link_Render_pass_Render_resource_flow"><path codeLine="41" d="M559.84,630.58 C589.81,679.34 629.5682,743.9983 648.3082,774.4883 " fill="none" id="Render_pass-to-Render_resource_flow" style="stroke:#181818;stroke-width:1.0;stroke-dasharray:7.0,7.0;"/><polygon fill="#181818" points="651.45,779.6,650.1451,769.838,648.8319,775.3403,643.3295,774.027,651.45,779.6" style="stroke:#181818;stroke-width:1.0;"/><text fill="#000000" font-family="sans-serif" font-size="13" lengthAdjust="spacing" textLength="26" x="587.35" y="674.977">&#20351;&#29992;</text></g><!--link Render_pass to RHI_global_render_resource--><g id="link_Render_pass_RHI_global_render_resource"><path codeLine="43" d="M438.71,630.58 C390.6,658.71 330.53,693.83 278.3,724.37 " fill="none" id="Render_pass-RHI_global_render_resource" style="stroke:#181818;stroke-width:1.0;"/><text fill="#000000" font-family="sans-serif" font-size="13" lengthAdjust="spacing" textLength="40" x="387.83" y="674.977">&#171;&#24341;&#29992;&#187;</text><text fill="#000000" font-family="sans-serif" font-size="13" lengthAdjust="spacing" textLength="7" x="420.4244" y="652.0273">1</text><text fill="#000000" font-family="sans-serif" font-size="13" lengthAdjust="spacing" textLength="7" x="285.8556" y="716.4167">*</text></g><!--reverse link Render_pipeline to Resource_manager--><g id="link_Render_pipeline_Resource_manager"><path codeLine="77" d="M690.2123,452.3465 C764.7423,496.6965 833.32,537.51 872.92,561.07 " fill="none" id="Render_pipeline-backto-Resource_manager" style="stroke:#181818;stroke-width:1.0;"/><polygon fill="#181818" points="679.9,446.21,683.0107,452.7157,690.2123,452.3465,687.1016,445.8408,679.9,446.21" style="stroke:#181818;stroke-width:1.0;"/><text fill="#000000" font-family="sans-serif" font-size="13" lengthAdjust="spacing" textLength="26" x="761.47" y="490.777">&#31649;&#29702;</text></g><!--link Render_pipeline to Render_pass--><g id="link_Render_pipeline_Render_pass"><path codeLine="79" d="M515.55,446.21 C518.11,473.34 520.75,501.43 522.92,524.55 " fill="none" id="Render_pipeline-Render_pass" style="stroke:#181818;stroke-width:1.0;"/><text fill="#000000" font-family="sans-serif" font-size="13" lengthAdjust="spacing" textLength="26" x="521.07" y="490.777">&#32858;&#21512;</text><text fill="#000000" font-family="sans-serif" font-size="13" lengthAdjust="spacing" textLength="7" x="508.9692" y="467.7295">1</text><text fill="#000000" font-family="sans-serif" font-size="13" lengthAdjust="spacing" textLength="8" x="513.7254" y="513.2395">n</text></g><!--link Render_pipeline to Render_tick_context--><g id="link_Render_pipeline_Render_tick_context"><path codeLine="81" d="M350.32,446.21 C283.76,490.56 218.2936,534.1838 182.9236,557.7438 " fill="none" id="Render_pipeline-to-Render_tick_context" style="stroke:#181818;stroke-width:1.0;stroke-dasharray:7.0,7.0;"/><polygon fill="#181818" points="177.93,561.07,187.6379,559.4097,182.0913,558.2981,183.2029,552.7516,177.93,561.07" style="stroke:#181818;stroke-width:1.0;"/><text fill="#000000" font-family="sans-serif" font-size="13" lengthAdjust="spacing" textLength="26" x="299.87" y="490.777">&#20351;&#29992;</text></g><!--reverse link Render_system to RHI_global_render_resource--><g id="link_Render_system_RHI_global_render_resource"><path codeLine="98" d="M196.8138,164.9567 C162.8938,185.1867 142.93,204.73 120.81,237.34 C21.43,383.81 6,459.95 54.81,630.08 C62.67,657.48 76.56,684.74 91.65,708.97 " fill="none" id="Render_system-backto-RHI_global_render_resource" style="stroke:#181818;stroke-width:1.0;"/><polygon fill="#181818" points="207.12,158.81,199.918,158.4479,196.8138,164.9567,204.0158,165.3187,207.12,158.81" style="stroke:#181818;stroke-width:1.0;"/><text fill="#000000" font-family="sans-serif" font-size="13" lengthAdjust="spacing" textLength="26" x="29.41" y="490.777">&#32452;&#21512;</text></g><!--reverse link Render_system to Render_pipeline--><g id="link_Render_system_Render_pipeline"><path codeLine="100" d="M505.81,170.68 C505.81,195.12 505.81,210.7 505.81,236.86 " fill="none" id="Render_system-backto-Render_pipeline" style="stroke:#181818;stroke-width:1.0;"/><polygon fill="none" points="505.81,158.68,501.81,164.68,505.81,170.68,509.81,164.68,505.81,158.68" style="stroke:#181818;stroke-width:1.0;"/><text fill="#000000" font-family="sans-serif" font-size="13" lengthAdjust="spacing" textLength="76" x="506.81" y="203.237">&#32858;&#21512; (&#21487;&#20999;&#25442;)</text></g><!--link Render_system to RHI_device--><g id="link_Render_system_RHI_device"><path codeLine="102" d="M637.34,158.73 C671.48,181.52 706.78,208.3 735.81,237.34 C762.95,264.48 782.9057,298.4956 794.2457,319.9456 " fill="none" id="Render_system-to-RHI_device" style="stroke:#181818;stroke-width:1.0;stroke-dasharray:7.0,7.0;"/><polygon fill="#181818" points="797.05,325.25,796.3798,315.424,794.7131,320.8297,789.3074,319.163,797.05,325.25" style="stroke:#181818;stroke-width:1.0;"/><text fill="#000000" font-family="sans-serif" font-size="13" lengthAdjust="spacing" textLength="63" x="703.43" y="203.237">&#20381;&#36182; (&#26500;&#36896;)</text></g><!--link Render_system to RHI_window--><g id="link_Render_system_RHI_window"><path codeLine="103" d="M747.06,158.67 C792.48,179.59 837.39,205.55 874.81,237.34 C904.9,262.9 926.2414,297.9293 938.0714,319.8593 " fill="none" id="Render_system-to-RHI_window" style="stroke:#181818;stroke-width:1.0;stroke-dasharray:7.0,7.0;"/><polygon fill="#181818" points="940.92,325.14,940.1675,315.3199,938.5462,320.7394,933.1266,319.1181,940.92,325.14" style="stroke:#181818;stroke-width:1.0;"/><text fill="#000000" font-family="sans-serif" font-size="13" lengthAdjust="spacing" textLength="63" x="832.58" y="203.237">&#20381;&#36182; (&#26500;&#36896;)</text></g><!--link Render_system to Render_tick_context--><g id="link_Render_system_Render_tick_context"><path codeLine="105" d="M258.47,158.69 C224.51,179.07 193.81,204.83 171.81,237.34 C100.78,342.32 135.543,504.3776 148.983,555.4476 " fill="none" id="Render_system-to-Render_tick_context" style="stroke:#181818;stroke-width:1.0;stroke-dasharray:7.0,7.0;"/><polygon fill="#181818" points="150.51,561.25,152.0878,551.5283,149.2375,556.4146,144.3512,553.5644,150.51,561.25" style="stroke:#181818;stroke-width:1.0;"/><text fill="#000000" font-family="sans-serif" font-size="13" lengthAdjust="spacing" textLength="102" x="172.81" y="347.007">&#20351;&#29992; (&#22312;&#24103;&#26356;&#26032;&#20013;)</text></g><!--SRC=[dLTRJnj767tthnZnq9YqHEhhol93fKYfLAbIf3vRlWnXMr_GxXA2gaWsi3ON9q01GumJuf8Mfn46Xn0P6zi_fZkpwwV-XSxEpAxtPeV02-0vt_ckvvlnd9Y206RcbIMGWPa4bEHGw1v0QWEryk3neny1Rd_4nxl6rIhkRElTNVncLUljXfBfk2oRvx4dwLmYdev9C9k24labvnQa90I_Xm3v8KmN1UD4PIJwPLVl7kFr_B2MTtX0vzT6gqxntvB_ZMOVlIi9b3m5duf9o8uunpy7QEk4dIwAsLHkqNcANZNO4Gi7IkmGjRRGzRv-iukA7r6vmo1oKe8m6qiipCxQkAAApWxrxWvgLcqgKfQSj1HBY2OZm-dDkjuPw1kVSRx0GFFYF4oBMHYJbRZ20zOxr_fsaHGCTJiscmAVAGiI96x5jCdtF6JM-p6hthnPLFseZTHBlRfgz5MqyTvRyuVFO7914NFPM3ANDTb6fJuxHCiDj7NEQq7BYjGLRL37XNFJ4-yQSvPB_0gJ3kk_brd0_-OBl0vMlNocLfTZi-dSejC_tkixvyNjwh-RijQhQUsEErqpqLsa_eN-A9j_b4ntWNxkpyo0gUoK9tu1eBAAjZzuouWtUcRwnnszrGt54x8YnGdQbGR5MT7ZSW7NrYUDD8aKtUphUmrgCPE9INFY6AmmWUSRPZx31tuKIlYEVDCy0xrpRhogeb8Fxr-GMkDFVNtlc6IF1kgmtaNDD_fBytCoszhrkjOfiauD3p_ZvXN93Rzjey7ACDyr-ZiijaZ4gbiq2l3wgL4lXwS5y3GdfaYFtENMUWDIcO3f96qD79kGq_h1WsY0gS1PVT30yR3HdZcWVILYk5rhdQPJtqy1S-RkJqso5K0ameoZKNC8MLdnLK5lR6hj3QszYIibjtuKCVdR6FdYyotKFkMxhhfg4un4V0_mPKoMq7QHB1QRcrSZ4y_6dq399cP0Zsm8DvaEjDD3EmrSEpR5rnmC3vhCWrK5ljLk9IOBQ-TJL8Sh3NzOGU7OYlA01PzvO4wqMsJ0jVucMZimwYE5ZiwXB82VH5c9o7Dn2QPYyueKSPYJtZbaIRf8-w2rkspkpVsqTKBKCtpVGXiDrXyGTafkUhnex2uAW7HTLeBcm18MS__B3py3jFOQdMwYSkNBVcmeiGlxcOWLVj74HvzmvU8MGLESoVIrSTlLi-DnxXX-nmOTUMBc8g1nkBOKlN7vXUyxlKEP6GcxpfcgdEJEpx-A_7c0XFJkAjfUyy-p5sVUSZxD27pW0tYDGfNnUfNWOxRMsUWAfMY1KmHmywKUaAcFtB6MNTlDtieZUdb9Lc06u5f- -E4GjPQPjiW6ycyq9zxzeWn-FnB9imFdAsJIvHcyJgoaU24vCr_AT2W44B16k5aqw89dIT0htdhWEXdijsxqEs1Yh6Uk1yDUlD5fZzhKWj5ietSLicy9kTvhuhKAFXhW5tywOsRnS83Zy_0jKdBBXYz1nrN514Dwo3OUbxgbuRkAXtVUaixuBhhnL4AJBcn6wFFZaP8r1M7of1xcgyQW16Ies7UAVJVIGazxOiXH6RkHbj8e8rehKJDl45h_jN5LSNpxOIyek_baV-yrjCvBygLWc7zhRN4t1nNZY42mICFCQ1oSE_33VJ6EtGiajLe3c9y0NBd6b_jQ-opGtOHLGJdisQ44_mC0]--></g></svg>