<?xml version="1.0" encoding="us-ascii" standalone="no"?><svg xmlns="http://www.w3.org/2000/svg" xmlns:xlink="http://www.w3.org/1999/xlink" contentStyleType="text/css" height="950px" preserveAspectRatio="none" style="width:1086px;height:950px;background:#FFFFFF;" version="1.1" viewBox="0 0 1086 950" width="1086px" zoomAndPan="magnify"><defs/><g><!--class RHI_global_render_resource--><g id="elem_RHI_global_render_resource"><rect codeLine="4" fill="#F1F1F1" height="155.418" id="RHI_global_render_resource" rx="2.5" ry="2.5" style="stroke:#181818;stroke-width:0.5;" width="225" x="57.81" y="678.79"/><ellipse cx="72.81" cy="694.79" fill="#ADD1B2" rx="11" ry="11" style="stroke:#181818;stroke-width:1.0;"/><path d="M75.2831,700.9331 Q74.7021,701.2319 74.0629,701.3813 Q73.4238,701.5307 72.7182,701.5307 Q70.2114,701.5307 68.8915,699.8789 Q67.5717,698.227 67.5717,695.1059 Q67.5717,691.9765 68.8915,690.3247 Q70.2114,688.6728 72.7182,688.6728 Q73.4238,688.6728 74.0712,688.8222 Q74.7187,688.9716 75.2831,689.2705 L75.2831,691.9931 Q74.6523,691.4121 74.0588,691.1423 Q73.4653,690.8725 72.8344,690.8725 Q71.4897,690.8725 70.8049,691.9392 Q70.1201,693.0058 70.1201,695.1059 Q70.1201,697.1977 70.8049,698.2644 Q71.4897,699.331 72.8344,699.331 Q73.4653,699.331 74.0588,699.0612 Q74.6523,698.7915 75.2831,698.2104 Z " fill="#000000"/><text fill="#000000" font-family="sans-serif" font-size="14" lengthAdjust="spacing" textLength="193" x="86.81" y="700.081">RHI_global_render_resource</text><line style="stroke:#181818;stroke-width:0.5;" x1="58.81" x2="281.81" y1="710.79" y2="710.79"/><ellipse cx="68.81" cy="724.5341" fill="none" rx="3" ry="3" style="stroke:#038048;stroke-width:1.0;"/><text fill="#000000" font-family="sans-serif" font-size="14" lengthAdjust="spacing" textLength="73" x="77.81" y="728.3252">RHI_device</text><ellipse cx="68.81" cy="741.0224" fill="none" rx="3" ry="3" style="stroke:#038048;stroke-width:1.0;"/><text fill="#000000" font-family="sans-serif" font-size="14" lengthAdjust="spacing" textLength="83" x="77.81" y="744.8134">RHI_window</text><ellipse cx="68.81" cy="757.5107" fill="none" rx="3" ry="3" style="stroke:#038048;stroke-width:1.0;"/><text fill="#000000" font-family="sans-serif" font-size="14" lengthAdjust="spacing" textLength="90" x="77.81" y="761.3017">RHI_renderer</text><ellipse cx="68.81" cy="773.999" fill="none" rx="3" ry="3" style="stroke:#038048;stroke-width:1.0;"/><text fill="#000000" font-family="sans-serif" font-size="14" lengthAdjust="spacing" textLength="124" x="77.81" y="777.79">RHI_screen_buffer</text><ellipse cx="68.81" cy="790.4873" fill="none" rx="3" ry="3" style="stroke:#038048;stroke-width:1.0;"/><text fill="#000000" font-family="sans-serif" font-size="14" lengthAdjust="spacing" textLength="138" x="77.81" y="794.2783">RHI_memory_binder</text><ellipse cx="68.81" cy="806.9755" fill="none" rx="3" ry="3" style="stroke:#038048;stroke-width:1.0;"/><text fill="#000000" font-family="sans-serif" font-size="14" lengthAdjust="spacing" textLength="125" x="77.81" y="810.7666">RHI_pipeline_state</text><ellipse cx="68.81" cy="823.4638" fill="none" rx="3" ry="3" style="stroke:#038048;stroke-width:1.0;"/><text fill="#000000" font-family="sans-serif" font-size="14" lengthAdjust="spacing" textLength="136" x="77.81" y="827.2548">RHI_texture_builder</text></g><!--class Execution_context--><g id="elem_Execution_context"><rect codeLine="17" fill="#F1F1F1" height="32" id="Execution_context" rx="2.5" ry="2.5" style="stroke:#181818;stroke-width:0.5;" width="159" x="396.81" y="740.5"/><ellipse cx="411.81" cy="756.5" fill="#ADD1B2" rx="11" ry="11" style="stroke:#181818;stroke-width:1.0;"/><path d="M414.2831,762.6431 Q413.7021,762.9419 413.0629,763.0913 Q412.4238,763.2407 411.7182,763.2407 Q409.2114,763.2407 407.8915,761.5889 Q406.5717,759.937 406.5717,756.8159 Q406.5717,753.6865 407.8915,752.0347 Q409.2114,750.3828 411.7182,750.3828 Q412.4238,750.3828 413.0712,750.5322 Q413.7187,750.6816 414.2831,750.9805 L414.2831,753.7031 Q413.6523,753.1221 413.0588,752.8523 Q412.4653,752.5825 411.8344,752.5825 Q410.4897,752.5825 409.8049,753.6492 Q409.1201,754.7158 409.1201,756.8159 Q409.1201,758.9077 409.8049,759.9744 Q410.4897,761.041 411.8344,761.041 Q412.4653,761.041 413.0588,760.7712 Q413.6523,760.5015 414.2831,759.9204 Z " fill="#000000"/><text fill="#000000" font-family="sans-serif" font-size="14" lengthAdjust="spacing" textLength="127" x="425.81" y="761.791">Execution_context</text></g><!--class Render_object--><g id="elem_Render_object"><rect codeLine="21" fill="#F1F1F1" height="32" id="Render_object" rx="2.5" ry="2.5" style="stroke:#181818;stroke-width:0.5;" width="130" x="618.31" y="911.21"/><ellipse cx="633.31" cy="927.21" fill="#ADD1B2" rx="11" ry="11" style="stroke:#181818;stroke-width:1.0;"/><path d="M635.7831,933.3531 Q635.2021,933.6519 634.5629,933.8013 Q633.9238,933.9507 633.2182,933.9507 Q630.7114,933.9507 629.3915,932.2989 Q628.0717,930.647 628.0717,927.5259 Q628.0717,924.3965 629.3915,922.7447 Q630.7114,921.0928 633.2182,921.0928 Q633.9238,921.0928 634.5712,921.2422 Q635.2187,921.3916 635.7831,921.6905 L635.7831,924.4131 Q635.1523,923.8321 634.5588,923.5623 Q633.9653,923.2925 633.3344,923.2925 Q631.9897,923.2925 631.3049,924.3592 Q630.6201,925.4258 630.6201,927.5259 Q630.6201,929.6177 631.3049,930.6844 Q631.9897,931.751 633.3344,931.751 Q633.9653,931.751 634.5588,931.4812 Q635.1523,931.2115 635.7831,930.6304 Z " fill="#000000"/><text fill="#000000" font-family="sans-serif" font-size="14" lengthAdjust="spacing" textLength="98" x="647.31" y="932.501">Render_object</text></g><!--class Render_resource_flow--><g id="elem_Render_resource_flow"><rect codeLine="25" fill="#F1F1F1" height="32" id="Render_resource_flow" rx="2.5" ry="2.5" style="stroke:#181818;stroke-width:0.5;" width="184" x="591.31" y="740.5"/><ellipse cx="606.31" cy="756.5" fill="#ADD1B2" rx="11" ry="11" style="stroke:#181818;stroke-width:1.0;"/><path d="M608.7831,762.6431 Q608.2021,762.9419 607.5629,763.0913 Q606.9238,763.2407 606.2182,763.2407 Q603.7114,763.2407 602.3915,761.5889 Q601.0717,759.937 601.0717,756.8159 Q601.0717,753.6865 602.3915,752.0347 Q603.7114,750.3828 606.2182,750.3828 Q606.9238,750.3828 607.5712,750.5322 Q608.2187,750.6816 608.7831,750.9805 L608.7831,753.7031 Q608.1523,753.1221 607.5588,752.8523 Q606.9653,752.5825 606.3344,752.5825 Q604.9897,752.5825 604.3049,753.6492 Q603.6201,754.7158 603.6201,756.8159 Q603.6201,758.9077 604.3049,759.9744 Q604.9897,761.041 606.3344,761.041 Q606.9653,761.041 607.5588,760.7712 Q608.1523,760.5015 608.7831,759.9204 Z " fill="#000000"/><text fill="#000000" font-family="sans-serif" font-size="14" lengthAdjust="spacing" textLength="152" x="620.31" y="761.791">Render_resource_flow</text></g><!--class Render_pass--><g id="elem_Render_pass"><rect codeLine="31" fill="#F1F1F1" height="97.4648" id="Render_pass" rx="2.5" ry="2.5" style="stroke:#181818;stroke-width:0.5;" width="523" x="282.81" y="504.33"/><ellipse cx="496.56" cy="520.33" fill="#A9DCDF" rx="11" ry="11" style="stroke:#181818;stroke-width:1.0;"/><path d="M496.4233,515.6781 L495.2695,520.7499 L497.5854,520.7499 Z M494.9291,513.4369 L497.9257,513.4369 L501.2709,525.83 L498.8222,525.83 L498.0585,522.767 L494.7797,522.767 L494.0327,525.83 L491.5839,525.83 Z " fill="#000000"/><text fill="#000000" font-family="sans-serif" font-size="14" font-style="italic" lengthAdjust="spacing" textLength="87" x="517.06" y="525.621">Render_pass</text><line style="stroke:#181818;stroke-width:0.5;" x1="283.81" x2="804.81" y1="536.33" y2="536.33"/><rect fill="none" height="6" style="stroke:#C82930;stroke-width:1.0;" width="6" x="290.81" y="547.0741"/><text fill="#000000" font-family="sans-serif" font-size="14" lengthAdjust="spacing" textLength="420" x="302.81" y="553.8652">m_rhi_global_render_resource: RHI_global_render_resource&amp;</text><line style="stroke:#181818;stroke-width:0.5;" x1="283.81" x2="804.81" y1="560.8183" y2="560.8183"/><ellipse cx="293.81" cy="574.5624" fill="#84BE84" rx="3" ry="3" style="stroke:#038048;stroke-width:1.0;"/><text fill="#000000" font-family="sans-serif" font-size="14" lengthAdjust="spacing" textLength="497" x="302.81" y="578.3534">Render_pass(rhi_global_render_resource: RHI_global_render_resource&amp;)</text><ellipse cx="293.81" cy="591.0507" fill="#84BE84" rx="3" ry="3" style="stroke:#038048;stroke-width:1.0;"/><text fill="#000000" font-family="sans-serif" font-size="14" lengthAdjust="spacing" textLength="174" x="302.81" y="594.8417">&#171;abstract&#187; execute(): void</text></g><!--class Render_tick_context--><g id="elem_Render_tick_context"><rect codeLine="44" fill="#F1F1F1" height="32" id="Render_tick_context" rx="2.5" ry="2.5" style="stroke:#181818;stroke-width:0.5;" width="171" x="76.81" y="537.06"/><ellipse cx="91.81" cy="553.06" fill="#ADD1B2" rx="11" ry="11" style="stroke:#181818;stroke-width:1.0;"/><path d="M94.2831,559.2031 Q93.7021,559.5019 93.0629,559.6513 Q92.4238,559.8007 91.7182,559.8007 Q89.2114,559.8007 87.8915,558.1489 Q86.5717,556.497 86.5717,553.3759 Q86.5717,550.2465 87.8915,548.5947 Q89.2114,546.9428 91.7182,546.9428 Q92.4238,546.9428 93.0712,547.0922 Q93.7187,547.2416 94.2831,547.5405 L94.2831,550.2631 Q93.6523,549.6821 93.0588,549.4123 Q92.4653,549.1425 91.8344,549.1425 Q90.4897,549.1425 89.8049,550.2092 Q89.1201,551.2758 89.1201,553.3759 Q89.1201,555.4677 89.8049,556.5344 Q90.4897,557.601 91.8344,557.601 Q92.4653,557.601 93.0588,557.3312 Q93.6523,557.0615 94.2831,556.4804 Z " fill="#000000"/><text fill="#000000" font-family="sans-serif" font-size="14" lengthAdjust="spacing" textLength="139" x="105.81" y="558.351">Render_tick_context</text></g><!--class Resource_manager--><g id="elem_Resource_manager"><rect codeLine="49" fill="#F1F1F1" height="32" id="Resource_manager" rx="2.5" ry="2.5" style="stroke:#181818;stroke-width:0.5;" width="163" x="840.81" y="537.06"/><ellipse cx="855.81" cy="553.06" fill="#ADD1B2" rx="11" ry="11" style="stroke:#181818;stroke-width:1.0;"/><path d="M858.2831,559.2031 Q857.7021,559.5019 857.0629,559.6513 Q856.4238,559.8007 855.7182,559.8007 Q853.2114,559.8007 851.8915,558.1489 Q850.5717,556.497 850.5717,553.3759 Q850.5717,550.2465 851.8915,548.5947 Q853.2114,546.9428 855.7182,546.9428 Q856.4238,546.9428 857.0712,547.0922 Q857.7187,547.2416 858.2831,547.5405 L858.2831,550.2631 Q857.6523,549.6821 857.0588,549.4123 Q856.4653,549.1425 855.8344,549.1425 Q854.4897,549.1425 853.8049,550.2092 Q853.1201,551.2758 853.1201,553.3759 Q853.1201,555.4677 853.8049,556.5344 Q854.4897,557.601 855.8344,557.601 Q856.4653,557.601 857.0588,557.3312 Q857.6523,557.0615 858.2831,556.4804 Z " fill="#000000"/><text fill="#000000" font-family="sans-serif" font-size="14" lengthAdjust="spacing" textLength="131" x="869.81" y="558.351">Resource_manager</text></g><!--class Render_pipeline--><g id="elem_Render_pipeline"><rect codeLine="54" fill="#F1F1F1" height="212.8828" id="Render_pipeline" rx="2.5" ry="2.5" style="stroke:#181818;stroke-width:0.5;" width="490" x="299.31" y="214.44"/><ellipse cx="484.56" cy="230.44" fill="#A9DCDF" rx="11" ry="11" style="stroke:#181818;stroke-width:1.0;"/><path d="M484.4233,225.7881 L483.2695,230.8599 L485.5854,230.8599 Z M482.9291,223.5469 L485.9257,223.5469 L489.2709,235.94 L486.8222,235.94 L486.0585,232.877 L482.7797,232.877 L482.0327,235.94 L479.5839,235.94 Z " fill="#000000"/><text fill="#000000" font-family="sans-serif" font-size="14" font-style="italic" lengthAdjust="spacing" textLength="111" x="505.06" y="235.731">Render_pipeline</text><line style="stroke:#181818;stroke-width:0.5;" x1="300.31" x2="788.31" y1="246.44" y2="246.44"/><text fill="#000000" font-family="sans-serif" font-size="14" lengthAdjust="spacing" textLength="4" x="319.31" y="263.9752">&#160;</text><rect fill="none" height="6" style="stroke:#C82930;stroke-width:1.0;" width="6" x="307.31" y="273.6724"/><text fill="#000000" font-family="sans-serif" font-size="14" lengthAdjust="spacing" textLength="287" x="319.31" y="280.4634">m_resource_manager: Resource_manager</text><rect fill="none" height="6" style="stroke:#C82930;stroke-width:1.0;" width="6" x="307.31" y="290.1607"/><text fill="#000000" font-family="sans-serif" font-size="14" lengthAdjust="spacing" textLength="355" x="319.31" y="296.9517">m_render_passes: List&lt;shared_ptr&lt;Render_pass&gt;&gt;</text><line style="stroke:#181818;stroke-width:1.0;" x1="300.31" x2="788.31" y1="303.9048" y2="303.9048"/><ellipse cx="310.31" cy="317.649" fill="#84BE84" rx="3" ry="3" style="stroke:#038048;stroke-width:1.0;"/><text fill="#000000" font-family="sans-serif" font-size="14" lengthAdjust="spacing" textLength="414" x="319.31" y="321.44">&#171;abstract&#187; execute(context: const Render_tick_context): void</text><ellipse cx="310.31" cy="334.1373" fill="#84BE84" rx="3" ry="3" style="stroke:#038048;stroke-width:1.0;"/><text fill="#000000" font-family="sans-serif" font-size="14" lengthAdjust="spacing" textLength="171" x="319.31" y="337.9283">&#171;abstract&#187; initUBO(): void</text><ellipse cx="310.31" cy="350.6255" fill="#84BE84" rx="3" ry="3" style="stroke:#038048;stroke-width:1.0;"/><text fill="#000000" font-family="sans-serif" font-size="14" lengthAdjust="spacing" textLength="437" x="319.31" y="354.4166">&#171;abstract&#187; updateUBO(context: const Render_tick_context): void</text><text fill="#000000" font-family="sans-serif" font-size="14" lengthAdjust="spacing" textLength="4" x="319.31" y="370.9048">&#160;</text><ellipse cx="310.31" cy="383.6021" fill="#84BE84" rx="3" ry="3" style="stroke:#038048;stroke-width:1.0;"/><text fill="#000000" font-family="sans-serif" font-size="14" lengthAdjust="spacing" textLength="153" x="319.31" y="387.3931">init_renderpass(): void</text><ellipse cx="310.31" cy="400.0904" fill="#84BE84" rx="3" ry="3" style="stroke:#038048;stroke-width:1.0;"/><text fill="#000000" font-family="sans-serif" font-size="14" lengthAdjust="spacing" textLength="419" x="319.31" y="403.8814">update_renderpass(context: const Render_tick_context): void</text><ellipse cx="310.31" cy="416.5787" fill="#84BE84" rx="3" ry="3" style="stroke:#038048;stroke-width:1.0;"/><text fill="#000000" font-family="sans-serif" font-size="14" lengthAdjust="spacing" textLength="464" x="319.31" y="420.3697">update_pipeline_resource(context: const Render_tick_context): void</text></g><!--class Render_system--><g id="elem_Render_system"><rect codeLine="75" fill="#F1F1F1" height="130.4414" id="Render_system" rx="2.5" ry="2.5" style="stroke:#181818;stroke-width:0.5;" width="659" x="214.81" y="7"/><ellipse cx="488.56" cy="23" fill="#ADD1B2" rx="11" ry="11" style="stroke:#181818;stroke-width:1.0;"/><path d="M491.0331,29.1431 Q490.4521,29.4419 489.8129,29.5913 Q489.1738,29.7407 488.4682,29.7407 Q485.9614,29.7407 484.6415,28.0889 Q483.3217,26.437 483.3217,23.3159 Q483.3217,20.1865 484.6415,18.5347 Q485.9614,16.8828 488.4682,16.8828 Q489.1738,16.8828 489.8212,17.0322 Q490.4687,17.1816 491.0331,17.4805 L491.0331,20.2031 Q490.4023,19.6221 489.8088,19.3523 Q489.2153,19.0825 488.5844,19.0825 Q487.2397,19.0825 486.5549,20.1492 Q485.8701,21.2158 485.8701,23.3159 Q485.8701,25.4077 486.5549,26.4744 Q487.2397,27.541 488.5844,27.541 Q489.2153,27.541 489.8088,27.2712 Q490.4023,27.0015 491.0331,26.4204 Z " fill="#000000"/><text fill="#000000" font-family="sans-serif" font-size="14" lengthAdjust="spacing" textLength="103" x="509.06" y="28.291">Render_system</text><line style="stroke:#181818;stroke-width:0.5;" x1="215.81" x2="872.81" y1="39" y2="39"/><rect fill="none" height="6" style="stroke:#C82930;stroke-width:1.0;" width="6" x="222.81" y="49.7441"/><text fill="#000000" font-family="sans-serif" font-size="14" lengthAdjust="spacing" textLength="384" x="234.81" y="56.5352">m_global_render_resource: RHI_global_render_resource</text><rect fill="none" height="6" style="stroke:#C82930;stroke-width:1.0;" width="6" x="222.81" y="66.2324"/><text fill="#000000" font-family="sans-serif" font-size="14" lengthAdjust="spacing" textLength="343" x="234.81" y="73.0234">m_render_pipeline: shared_ptr&lt;Render_pipeline&gt;</text><ellipse cx="225.81" cy="85.7207" fill="#84BE84" rx="3" ry="3" style="stroke:#038048;stroke-width:1.0;"/><text fill="#000000" font-family="sans-serif" font-size="14" lengthAdjust="spacing" textLength="633" x="234.81" y="89.5117">Render_system(rhi_device: shared_ptr&lt;RHI_device&gt;, rhi_window: shared_ptr&lt;RHI_window&gt;)</text><line style="stroke:#181818;stroke-width:1.0;" x1="215.81" x2="872.81" y1="96.4648" y2="96.4648"/><ellipse cx="225.81" cy="110.209" fill="#84BE84" rx="3" ry="3" style="stroke:#038048;stroke-width:1.0;"/><text fill="#000000" font-family="sans-serif" font-size="14" lengthAdjust="spacing" textLength="440" x="234.81" y="114">setRenderPipeline(pipeline: shared_ptr&lt;Render_pipeline&gt;): void</text><ellipse cx="225.81" cy="126.6973" fill="#84BE84" rx="3" ry="3" style="stroke:#038048;stroke-width:1.0;"/><text fill="#000000" font-family="sans-serif" font-size="14" lengthAdjust="spacing" textLength="335" x="234.81" y="130.4883">update(context: const Render_tick_context): void</text></g><!--class RHI_device--><g id="elem_RHI_device"><rect fill="#F1F1F1" height="32" id="RHI_device" rx="2.5" ry="2.5" style="stroke:#181818;stroke-width:0.5;" width="105" x="824.81" y="304.89"/><ellipse cx="839.81" cy="320.89" fill="#ADD1B2" rx="11" ry="11" style="stroke:#181818;stroke-width:1.0;"/><path d="M842.2831,327.0331 Q841.7021,327.3319 841.0629,327.4813 Q840.4238,327.6307 839.7182,327.6307 Q837.2114,327.6307 835.8915,325.9789 Q834.5717,324.327 834.5717,321.2059 Q834.5717,318.0765 835.8915,316.4247 Q837.2114,314.7728 839.7182,314.7728 Q840.4238,314.7728 841.0712,314.9222 Q841.7187,315.0716 842.2831,315.3705 L842.2831,318.0931 Q841.6523,317.5121 841.0588,317.2423 Q840.4653,316.9725 839.8344,316.9725 Q838.4897,316.9725 837.8049,318.0392 Q837.1201,319.1058 837.1201,321.2059 Q837.1201,323.2977 837.8049,324.3644 Q838.4897,325.431 839.8344,325.431 Q840.4653,325.431 841.0588,325.1612 Q841.6523,324.8915 842.2831,324.3104 Z " fill="#000000"/><text fill="#000000" font-family="sans-serif" font-size="14" lengthAdjust="spacing" textLength="73" x="853.81" y="326.181">RHI_device</text></g><!--class RHI_window--><g id="elem_RHI_window"><rect fill="#F1F1F1" height="32" id="RHI_window" rx="2.5" ry="2.5" style="stroke:#181818;stroke-width:0.5;" width="115" x="964.81" y="304.89"/><ellipse cx="979.81" cy="320.89" fill="#ADD1B2" rx="11" ry="11" style="stroke:#181818;stroke-width:1.0;"/><path d="M982.2831,327.0331 Q981.7021,327.3319 981.0629,327.4813 Q980.4238,327.6307 979.7182,327.6307 Q977.2114,327.6307 975.8915,325.9789 Q974.5717,324.327 974.5717,321.2059 Q974.5717,318.0765 975.8915,316.4247 Q977.2114,314.7728 979.7182,314.7728 Q980.4238,314.7728 981.0712,314.9222 Q981.7187,315.0716 982.2831,315.3705 L982.2831,318.0931 Q981.6523,317.5121 981.0588,317.2423 Q980.4653,316.9725 979.8344,316.9725 Q978.4897,316.9725 977.8049,318.0392 Q977.1201,319.1058 977.1201,321.2059 Q977.1201,323.2977 977.8049,324.3644 Q978.4897,325.431 979.8344,325.431 Q980.4653,325.431 981.0588,325.1612 Q981.6523,324.8915 982.2831,324.3104 Z " fill="#000000"/><text fill="#000000" font-family="sans-serif" font-size="14" lengthAdjust="spacing" textLength="83" x="993.81" y="326.181">RHI_window</text></g><!--reverse link Render_resource_flow to Render_object--><g id="link_Render_resource_flow_Render_object"><path codeLine="28" d="M683.31,784.77 C683.31,816.89 683.31,879.11 683.31,911.1 " fill="none" id="Render_resource_flow-backto-Render_object" style="stroke:#181818;stroke-width:1.0;"/><polygon fill="#181818" points="683.31,772.77,679.31,778.77,683.31,784.77,687.31,778.77,683.31,772.77" style="stroke:#181818;stroke-width:1.0;"/><text fill="#000000" font-family="sans-serif" font-size="13" lengthAdjust="spacing" textLength="46" x="684.31" y="877.7784">include</text><text fill="#000000" font-family="sans-serif" font-size="13" lengthAdjust="spacing" textLength="8" x="673.935" y="900.6058">n</text></g><!--link Render_pass to Execution_context--><g id="link_Render_pass_Execution_context"><path codeLine="38" d="M528.1,602.05 C512.94,646.97 493.1185,705.695 483.3385,734.675 " fill="none" id="Render_pass-to-Execution_context" style="stroke:#181818;stroke-width:1.0;stroke-dasharray:7.0,7.0;"/><polygon fill="#181818" points="481.42,740.36,488.0878,733.1115,483.0188,735.6225,480.5078,730.5535,481.42,740.36" style="stroke:#181818;stroke-width:1.0;"/><text fill="#000000" font-family="sans-serif" font-size="13" lengthAdjust="spacing" textLength="22" x="517.4" y="645.3584">use</text></g><!--link Render_pass to Render_resource_flow--><g id="link_Render_pass_Render_resource_flow"><path codeLine="39" d="M577.42,602.05 C608.42,646.97 649.452,706.4418 669.452,735.4218 " fill="none" id="Render_pass-to-Render_resource_flow" style="stroke:#181818;stroke-width:1.0;stroke-dasharray:7.0,7.0;"/><polygon fill="#181818" points="672.86,740.36,671.0401,730.6807,670.02,736.2449,664.4559,735.2247,672.86,740.36" style="stroke:#181818;stroke-width:1.0;"/><text fill="#000000" font-family="sans-serif" font-size="13" lengthAdjust="spacing" textLength="22" x="610.64" y="645.3584">use</text></g><!--link Render_pass to RHI_global_render_resource--><g id="link_Render_pass_RHI_global_render_resource"><path codeLine="41" d="M455.2,602.05 C403.67,629.81 338.33,665 283.22,694.68 " fill="none" id="Render_pass-RHI_global_render_resource" style="stroke:#181818;stroke-width:1.0;"/><text fill="#000000" font-family="sans-serif" font-size="13" lengthAdjust="spacing" textLength="40" x="391.8" y="645.3584">&#171;&#24341;&#29992;&#187;</text><text fill="#000000" font-family="sans-serif" font-size="13" lengthAdjust="spacing" textLength="8" x="434.6883" y="622.2297">1</text><text fill="#000000" font-family="sans-serif" font-size="13" lengthAdjust="spacing" textLength="6" x="290.6455" y="687.8176">*</text></g><!--reverse link Render_pipeline to Resource_manager--><g id="link_Render_pipeline_Resource_manager"><path codeLine="68" d="M728.3396,433.9507 C797.9596,476.3407 860.1,514.18 897.15,536.74 " fill="none" id="Render_pipeline-backto-Resource_manager" style="stroke:#181818;stroke-width:1.0;"/><polygon fill="#181818" points="718.09,427.71,721.1345,434.2469,728.3396,433.9507,725.295,427.4138,718.09,427.71" style="stroke:#181818;stroke-width:1.0;"/><text fill="#000000" font-family="sans-serif" font-size="13" lengthAdjust="spacing" textLength="49" x="790.25" y="470.8984">manage</text></g><!--link Render_pipeline to Render_pass--><g id="link_Render_pipeline_Render_pass"><path codeLine="70" d="M544.31,427.54 C544.31,454.25 544.31,481.64 544.31,503.91 " fill="none" id="Render_pipeline-Render_pass" style="stroke:#181818;stroke-width:1.0;"/><text fill="#000000" font-family="sans-serif" font-size="13" lengthAdjust="spacing" textLength="62" x="545.31" y="470.8984">aggregate</text><text fill="#000000" font-family="sans-serif" font-size="13" lengthAdjust="spacing" textLength="8" x="536.0413" y="447.7888">1</text><text fill="#000000" font-family="sans-serif" font-size="13" lengthAdjust="spacing" textLength="8" x="535.7475" y="493.5334">n</text></g><!--link Render_pipeline to Render_tick_context--><g id="link_Render_pipeline_Render_tick_context"><path codeLine="72" d="M368.68,427.71 C298.32,470.1 230.3091,511.0833 192.8691,533.6433 " fill="none" id="Render_pipeline-to-Render_tick_context" style="stroke:#181818;stroke-width:1.0;stroke-dasharray:7.0,7.0;"/><polygon fill="#181818" points="187.73,536.74,197.5031,535.5211,192.0126,534.1595,193.3743,528.6689,187.73,536.74" style="stroke:#181818;stroke-width:1.0;"/><text fill="#000000" font-family="sans-serif" font-size="13" lengthAdjust="spacing" textLength="22" x="320.09" y="470.8984">use</text></g><!--reverse link Render_system to RHI_global_render_resource--><g id="link_Render_system_RHI_global_render_resource"><path codeLine="84" d="M231.8328,141.5717 C165.5728,162.6117 121.14,184.71 103.31,214.44 C14.19,363.03 6,436.93 59.31,601.79 C68.12,629.04 83.76,655.52 100.57,678.61 " fill="none" id="Render_system-backto-RHI_global_render_resource" style="stroke:#181818;stroke-width:1.0;"/><polygon fill="#181818" points="243.27,137.94,236.3408,135.9435,231.8328,141.5717,238.762,143.5683,243.27,137.94" style="stroke:#181818;stroke-width:1.0;"/></g><!--reverse link Render_system to Render_pipeline--><g id="link_Render_system_Render_pipeline"><path codeLine="86" d="M544.31,149.71 C544.31,173.12 544.31,188.22 544.31,214.25 " fill="none" id="Render_system-backto-Render_pipeline" style="stroke:#181818;stroke-width:1.0;"/><polygon fill="none" points="544.31,137.71,540.31,143.71,544.31,149.71,548.31,143.71,544.31,137.71" style="stroke:#181818;stroke-width:1.0;"/><text fill="#000000" font-family="sans-serif" font-size="13" lengthAdjust="spacing" textLength="62" x="545.31" y="181.0084">aggregate</text></g><!--link Render_system to RHI_device--><g id="link_Render_system_RHI_device"><path codeLine="88" d="M694.96,137.82 C734.1,158.8 774.45,184.52 807.31,214.44 C836.55,241.08 856.6198,277.007 867.5398,299.187 " fill="none" id="Render_system-to-RHI_device" style="stroke:#181818;stroke-width:1.0;stroke-dasharray:7.0,7.0;"/><polygon fill="#181818" points="870.19,304.57,869.8033,294.7287,867.9815,300.0842,862.626,298.2624,870.19,304.57" style="stroke:#181818;stroke-width:1.0;"/></g><!--link Render_system to RHI_window--><g id="link_Render_system_RHI_window"><path codeLine="89" d="M804.54,137.91 C854.8,157.51 904.94,182.59 947.31,214.44 C979.98,239.02 1001.448,276.5579 1012.668,299.3279 " fill="none" id="Render_system-to-RHI_window" style="stroke:#181818;stroke-width:1.0;stroke-dasharray:7.0,7.0;"/><polygon fill="#181818" points="1015.32,304.71,1014.93,294.8689,1013.11,300.2249,1007.7539,298.4049,1015.32,304.71" style="stroke:#181818;stroke-width:1.0;"/></g><!--link Render_system to Render_tick_context--><g id="link_Render_system_Render_tick_context"><path codeLine="91" d="M234.62,137.84 C200.06,157.13 169.15,182.1 146.31,214.44 C73.53,317.5 131.9722,480.0516 153.3022,531.2416 " fill="none" id="Render_system-to-Render_tick_context" style="stroke:#181818;stroke-width:1.0;stroke-dasharray:7.0,7.0;"/><polygon fill="#181818" points="155.61,536.78,155.8406,526.9338,153.6869,532.1646,148.4561,530.0109,155.61,536.78" style="stroke:#181818;stroke-width:1.0;"/><text fill="#000000" font-family="sans-serif" font-size="13" lengthAdjust="spacing" textLength="133" x="147.31" y="325.9584">use (in frame update)</text></g><!--SRC=[dLPTQzDG6BxFhpZqGjjf1zw6aWj1K12KWTSXJKwxQ9kK9Dq7Oz1Awzo7RZWtTAkRSmWLSLiTWswrsv_9ITf_uJavIVFPiQqtRSvvtkSzvtcVzqsdPGa2MAuOyw0CotcewGnp7w1c6tLgOEhfCs1r_rhxcuEpXdMnOVSshRs6sTzan9AWwsIVBvRKl53YDQX8KCDVkbhLH0WM680_cEcaFZXiKXBxj6Vtzgtbsh1L2sH0n-U3pe63Vq0O9JWZYz1_dfKLIPtrdsaggFahkgX1gF3vQg4GNCONKhLvFYyJlBzSaIkm92kGrmt12EGnu9nHrI2caKiaO94XKapHYrN8VUtTBcgUsZkDmMKJhVoAol5a3efLGrOLNbGLmePL82okM9H8pR-6OkAEfnrVAAcpL42CIToSo6P1Iab5E5aWAsAfAi7ekQsLFbOOxL_OdHuZv7L34p0ybDp1qPn4a6oPrwRbCSLbhodyFLTFdpLzHw8CPShbl0Dp782EmZ2TOS6CAajOdl15pVwL_RcTK0ZqQIrHPYOOFJd99OIoeAh362wnB1GQqNwjRhMMiSUlwnPiAVHl2nyzb2VrA0L8eITIryMo89UZmHn72azxpJghs-rLixjYTbUjxQMmqmnPV1FmA3KQ3dMx_EZ0tdY7lhP7GUuTou8Y5A7cUjU_fjjFDxAPXwNpOUIrI0esbjH7ZlI1EWkUoxgHqwS53KfynT1o0Vcm6avCzXeVkHgm0F_GZIHvFAV5EMH5DbuzVf4UZwXM93nW2ERcUIWDuNQlwhHGA0Ub3MxVyXekmMWEUkhVWcSneVnshu4stiSh5yMHuHNp50lehmJUGNs7ylgTWOxspClL6BFNCFvaTD0i48f53HR9j8_JkpCZuR8n_a3ZXrg8zhtFhS_h1Ym3grKR_lw2EczHyoTQFyGpADvQGVo2P_BRJyjeUxWdPa52RxXxN6XIqoCuivg-VyEXezSozn0G37qdnp1qcSk4Ea-71atoqisSlj7n4YnxDuEwwdhs7AzX6E_OTFpOZV57REfv9etMZuUrdS7L4i12H0i4hDqhwyEFJ2ItwhH861bmSJovUVbjSBOD_3hHDzwe922DFMvUVCJ_LuQrxsYfRssTH9CwxlO9nkowVF4JZ6qZB46h3SWAiBRFhTCji_idCVUupW9fMG45JIX3TwHccFy0]--></g></svg>