<?xml version="1.0" encoding="us-ascii" standalone="no"?><svg xmlns="http://www.w3.org/2000/svg" xmlns:xlink="http://www.w3.org/1999/xlink" contentStyleType="text/css" height="1294px" preserveAspectRatio="none" style="width:1667px;height:1294px;background:#FFFFFF;" version="1.1" viewBox="0 0 1667 1294" width="1667px" zoomAndPan="magnify"><defs/><g><text fill="#000000" font-family="sans-serif" font-size="14" font-weight="bold" lengthAdjust="spacing" textLength="281.8125" x="685.5938" y="24.9659">RHI &#30528;&#33394;&#22120;&#31995;&#32479; (RHI Shader System) &#31867;&#22270;</text><!--cluster ??????? (Shader Core Abstractions)--><g id="cluster_&#30528;&#33394;&#22120;&#26680;&#24515;&#25277;&#35937; (Shader Core Abstractions)"><path d="M8.5,835.6699 L304.0625,835.6699 A3.75,3.75 0 0 1 306.5625,838.1699 L313.5625,860.7378 L1560.5,860.7378 A2.5,2.5 0 0 1 1563,863.2378 L1563,1221.1699 A2.5,2.5 0 0 1 1560.5,1223.6699 L8.5,1223.6699 A2.5,2.5 0 0 1 6,1221.1699 L6,838.1699 A2.5,2.5 0 0 1 8.5,835.6699 " fill="none" style="stroke:#000000;stroke-width:1.5;"/><line style="stroke:#000000;stroke-width:1.5;" x1="6" x2="313.5625" y1="860.7378" y2="860.7378"/><text fill="#000000" font-family="sans-serif" font-size="14" font-weight="bold" lengthAdjust="spacing" textLength="294.5625" x="10" y="852.6358">&#30528;&#33394;&#22120;&#26680;&#24515;&#25277;&#35937; (Shader Core Abstractions)</text></g><!--cluster Uniform ???? (Uniform Management)--><g id="cluster_Uniform &#21464;&#37327;&#31649;&#29702; (Uniform Management)"><path d="M71.5,46.6699 L361.625,46.6699 A3.75,3.75 0 0 1 364.125,49.1699 L371.125,71.7378 L1657.5,71.7378 A2.5,2.5 0 0 1 1660,74.2378 L1660,809.1699 A2.5,2.5 0 0 1 1657.5,811.6699 L71.5,811.6699 A2.5,2.5 0 0 1 69,809.1699 L69,49.1699 A2.5,2.5 0 0 1 71.5,46.6699 " fill="none" style="stroke:#000000;stroke-width:1.5;"/><line style="stroke:#000000;stroke-width:1.5;" x1="69" x2="371.125" y1="71.7378" y2="71.7378"/><text fill="#000000" font-family="sans-serif" font-size="14" font-weight="bold" lengthAdjust="spacing" textLength="289.125" x="73" y="63.6358">Uniform &#21464;&#37327;&#31649;&#29702; (Uniform Management)</text></g><!--class RHI_shader_code--><g id="elem_RHI_shader_code"><rect codeLine="13" fill="#F1F1F1" height="181.4754" id="RHI_shader_code" rx="2.5" ry="2.5" style="stroke:#181818;stroke-width:0.5;" width="669" x="878" y="949.9299"/><ellipse cx="1154.75" cy="965.9299" fill="#A9DCDF" rx="11" ry="11" style="stroke:#181818;stroke-width:1.0;"/><path d="M1158.0938,971.1799 L1156.625,967.4299 L1152.1875,967.4299 L1150.75,971.1799 L1148.625,971.1799 L1153.5781,958.4611 L1155.3281,958.4611 L1160.25,971.1799 L1158.0938,971.1799 Z M1154.75,962.2268 Q1154.7031,962.0705 1154.5781,961.7111 Q1154.4531,961.3518 1154.3438,960.9768 Q1154.2344,960.5861 1154.4375,960.5236 Q1154.5938,960.7111 1154.5,961.0705 Q1154.4063,961.4143 1154.3125,961.7111 Q1154.2188,961.9924 1154.1406,962.2268 L1152.9063,965.5393 L1155.9844,965.5393 L1154.75,962.2268 Z " fill="#000000"/><text fill="#000000" font-family="sans-serif" font-size="14" font-style="italic" lengthAdjust="spacing" textLength="107" x="1175.25" y="971.3619">RHI_shader_code</text><line style="stroke:#181818;stroke-width:0.5;" x1="879" x2="1546" y1="981.9299" y2="981.9299"/><text fill="#000000" font-family="sans-serif" font-size="14" lengthAdjust="spacing" textLength="392" x="884" y="1000.8958">note: &#23545;&#21333;&#19968;&#30528;&#33394;&#22120;&#20195;&#30721;&#65288;&#22914;&#19968;&#20010;GLSL&#25991;&#20214;&#20869;&#23481;&#65289;&#30340;&#25277;&#35937;&#34920;&#31034;&#12290;</text><text fill="#000000" font-family="sans-serif" font-size="14" lengthAdjust="spacing" textLength="252" x="884" y="1019.9638">&#36127;&#36131;&#31649;&#29702;&#21644;&#32534;&#35793;&#29305;&#23450;&#31867;&#22411;&#30340;&#30528;&#33394;&#22120;&#20195;&#30721;&#12290;</text><line style="stroke:#181818;stroke-width:0.5;" x1="879" x2="1546" y1="1028.0657" y2="1028.0657"/><polygon fill="#FFFF44" points="889,1038.0997,893,1042.0997,889,1046.0997,885,1042.0997" style="stroke:#B38D22;stroke-width:1.0;"/><text fill="#000000" font-family="sans-serif" font-size="14" lengthAdjust="spacing" textLength="643" x="898" y="1047.0317">m_shader_type: ShaderType ' &#20363;&#22914;&#65306;&#39030;&#28857;&#30528;&#33394;&#22120; (Vertex_Shader), &#29255;&#20803;&#30528;&#33394;&#22120; (Fragment_Shader)&#31561;</text><text fill="#000000" font-family="sans-serif" font-size="14" lengthAdjust="spacing" textLength="4" x="898" y="1066.0996">&#160;</text><ellipse cx="889" cy="1081.2355" fill="#84BE84" rx="3" ry="3" style="stroke:#038048;stroke-width:1.0;"/><text fill="#000000" font-family="sans-serif" font-size="14" lengthAdjust="spacing" textLength="240" x="898" y="1085.1675">RHI_shader_code(type: ShaderType)</text><ellipse cx="889" cy="1100.3034" fill="#84BE84" rx="3" ry="3" style="stroke:#038048;stroke-width:1.0;"/><text fill="#000000" font-family="sans-serif" font-size="14" lengthAdjust="spacing" textLength="206" x="898" y="1104.2354">get_shader_type(): ShaderType</text><ellipse cx="889" cy="1119.3714" fill="#84BE84" rx="3" ry="3" style="stroke:#038048;stroke-width:1.0;"/><text fill="#000000" font-family="sans-serif" font-size="14" font-style="italic" lengthAdjust="spacing" textLength="323" x="898" y="1123.3033">compile(source_code: string): bool ' &#32534;&#35793;&#30528;&#33394;&#22120;&#28304;&#30721;</text></g><!--class RHI_shader_program--><g id="elem_RHI_shader_program"><rect codeLine="22" fill="#F1F1F1" height="334.0188" id="RHI_shader_program" rx="2.5" ry="2.5" style="stroke:#181818;stroke-width:0.5;" width="624" x="22" y="873.6599"/><ellipse cx="262.75" cy="889.6599" fill="#A9DCDF" rx="11" ry="11" style="stroke:#181818;stroke-width:1.0;"/><path d="M266.0938,894.9099 L264.625,891.1599 L260.1875,891.1599 L258.75,894.9099 L256.625,894.9099 L261.5781,882.1911 L263.3281,882.1911 L268.25,894.9099 L266.0938,894.9099 Z M262.75,885.9568 Q262.7031,885.8005 262.5781,885.4411 Q262.4531,885.0818 262.3438,884.7068 Q262.2344,884.3161 262.4375,884.2536 Q262.5938,884.4411 262.5,884.8005 Q262.4063,885.1443 262.3125,885.4411 Q262.2188,885.7224 262.1406,885.9568 L260.9063,889.2693 L263.9844,889.2693 L262.75,885.9568 Z " fill="#000000"/><text fill="#000000" font-family="sans-serif" font-size="14" font-style="italic" lengthAdjust="spacing" textLength="134" x="283.25" y="895.0919">RHI_shader_program</text><line style="stroke:#181818;stroke-width:0.5;" x1="23" x2="645" y1="905.6599" y2="905.6599"/><polygon fill="none" points="33,915.6939,37,919.6939,33,923.6939,29,919.6939" style="stroke:#B38D22;stroke-width:1.0;"/><text fill="#000000" font-family="sans-serif" font-size="14" lengthAdjust="spacing" textLength="530" x="42" y="924.6258">m_codes: Map&lt;ShaderType, RHI_shader_code*&gt; ' &#23384;&#20648;&#19981;&#21516;&#38454;&#27573;&#30340;&#30528;&#33394;&#22120;&#20195;&#30721;&#23545;&#35937;</text><polygon fill="none" points="33,934.7618,37,938.7618,33,942.7618,29,938.7618" style="stroke:#B38D22;stroke-width:1.0;"/><text fill="#000000" font-family="sans-serif" font-size="14" lengthAdjust="spacing" textLength="598" x="42" y="943.6938">m_uniforms: Map&lt;String, shared_ptr&lt;Uniform_entry_base&gt;&gt; ' &#32500;&#25252;&#25152;&#26377;Uniform&#21464;&#37327;&#30340;&#26144;&#23556;</text><text fill="#000000" font-family="sans-serif" font-size="14" lengthAdjust="spacing" textLength="4" x="42" y="962.7617">&#160;</text><text fill="#000000" font-family="sans-serif" font-size="14" lengthAdjust="spacing" textLength="4" x="42" y="981.8296">&#160;</text><text fill="#000000" font-family="sans-serif" font-size="14" lengthAdjust="spacing" textLength="4" x="42" y="1000.8975">&#160;</text><text fill="#000000" font-family="sans-serif" font-size="14" lengthAdjust="spacing" textLength="378" x="42" y="1019.9654">note: &#25277;&#35937;&#30340;&#30528;&#33394;&#22120;&#31243;&#24207;&#31867;&#65292;&#30001;&#22810;&#20010;RHI_Shader_code&#26500;&#25104;&#12290;</text><text fill="#000000" font-family="sans-serif" font-size="14" lengthAdjust="spacing" textLength="251" x="42" y="1039.0333">&#31649;&#29702;&#30528;&#33394;&#22120;&#20195;&#30721;&#30340;&#38142;&#25509;&#21450;Uniform&#21464;&#37327;&#12290;</text><line style="stroke:#181818;stroke-width:0.5;" x1="23" x2="645" y1="1047.1353" y2="1047.1353"/><ellipse cx="33" cy="1062.1693" fill="#84BE84" rx="3" ry="3" style="stroke:#038048;stroke-width:1.0;"/><text fill="#000000" font-family="sans-serif" font-size="14" font-style="italic" lengthAdjust="spacing" textLength="407" x="42" y="1066.1013">attach_code(code: RHI_shader_code*): void ' &#38468;&#21152;&#19968;&#20010;&#30528;&#33394;&#22120;&#20195;&#30721;</text><ellipse cx="33" cy="1081.2372" fill="#84BE84" rx="3" ry="3" style="stroke:#038048;stroke-width:1.0;"/><text fill="#000000" font-family="sans-serif" font-size="14" font-style="italic" lengthAdjust="spacing" textLength="435" x="42" y="1085.1692">detach_code(type: ShaderType): void ' &#20998;&#31163;&#19968;&#20010;&#25351;&#23450;&#31867;&#22411;&#30340;&#30528;&#33394;&#22120;&#20195;&#30721;</text><ellipse cx="33" cy="1100.3051" fill="#84BE84" rx="3" ry="3" style="stroke:#038048;stroke-width:1.0;"/><text fill="#000000" font-family="sans-serif" font-size="14" font-style="italic" lengthAdjust="spacing" textLength="358" x="42" y="1104.2371">link(): bool ' &#38142;&#25509;&#25152;&#26377;&#24050;&#38468;&#21152;&#30340;&#30528;&#33394;&#22120;&#20195;&#30721;&#24418;&#25104;&#21487;&#25191;&#34892;&#31243;&#24207;</text><text fill="#000000" font-family="sans-serif" font-size="14" lengthAdjust="spacing" textLength="4" x="42" y="1123.305">&#160;</text><ellipse cx="33" cy="1138.4409" fill="#84BE84" rx="3" ry="3" style="stroke:#038048;stroke-width:1.0;"/><text fill="#000000" font-family="sans-serif" font-size="14" lengthAdjust="spacing" textLength="321" x="42" y="1142.3729">modify_uniform&lt;T&gt;(name: string, value: T): bool</text><ellipse cx="33" cy="1157.5089" fill="#84BE84" rx="3" ry="3" style="stroke:#038048;stroke-width:1.0;"/><text fill="#000000" font-family="sans-serif" font-size="14" lengthAdjust="spacing" textLength="335" x="42" y="1161.4408">get_uniform&lt;T&gt;(name: string, out_value: T&amp;): bool</text><text fill="#000000" font-family="sans-serif" font-size="14" lengthAdjust="spacing" textLength="4" x="42" y="1180.5088">&#160;</text><ellipse cx="33" cy="1195.6447" fill="#84BE84" rx="3" ry="3" style="stroke:#038048;stroke-width:1.0;"/><text fill="#000000" font-family="sans-serif" font-size="14" font-style="italic" lengthAdjust="spacing" textLength="491" x="42" y="1199.5767">set_uniform_platform_specific(name: string, entry: Uniform_entry_base*): void</text></g><!--class Uniform_entry_base--><g id="elem_Uniform_entry_base"><rect codeLine="44" fill="#F1F1F1" height="334.0188" id="Uniform_entry_base" rx="2.5" ry="2.5" style="stroke:#181818;stroke-width:0.5;" width="498" x="85" y="281.6599"/><ellipse cx="267.25" cy="297.6599" fill="#A9DCDF" rx="11" ry="11" style="stroke:#181818;stroke-width:1.0;"/><path d="M270.5938,302.9099 L269.125,299.1599 L264.6875,299.1599 L263.25,302.9099 L261.125,302.9099 L266.0781,290.1911 L267.8281,290.1911 L272.75,302.9099 L270.5938,302.9099 Z M267.25,293.9568 Q267.2031,293.8005 267.0781,293.4411 Q266.9531,293.0818 266.8438,292.7068 Q266.7344,292.3161 266.9375,292.2536 Q267.0938,292.4411 267,292.8005 Q266.9063,293.1443 266.8125,293.4411 Q266.7188,293.7224 266.6406,293.9568 L265.4063,297.2693 L268.4844,297.2693 L267.25,293.9568 Z " fill="#000000"/><text fill="#000000" font-family="sans-serif" font-size="14" font-style="italic" lengthAdjust="spacing" textLength="125" x="287.75" y="303.0919">Uniform_entry_base</text><line style="stroke:#181818;stroke-width:0.5;" x1="86" x2="582" y1="313.6599" y2="313.6599"/><polygon fill="none" points="96,323.6939,100,327.6939,96,331.6939,92,327.6939" style="stroke:#B38D22;stroke-width:1.0;"/><text fill="#000000" font-family="sans-serif" font-size="14" lengthAdjust="spacing" textLength="254" x="105" y="332.6258">uniform_name: string ' Uniform&#21464;&#37327;&#21517;</text><polygon fill="none" points="96,342.7618,100,346.7618,96,350.7618,92,346.7618" style="stroke:#B38D22;stroke-width:1.0;"/><text fill="#000000" font-family="sans-serif" font-size="14" lengthAdjust="spacing" textLength="313" x="105" y="351.6938">needs_update: bool = true ' &#26159;&#21542;&#38656;&#35201;&#26356;&#26032;&#21040;GPU</text><text fill="#000000" font-family="sans-serif" font-size="14" lengthAdjust="spacing" textLength="4" x="105" y="370.7617">&#160;</text><text fill="#000000" font-family="sans-serif" font-size="14" lengthAdjust="spacing" textLength="4" x="105" y="389.8296">&#160;</text><text fill="#000000" font-family="sans-serif" font-size="14" lengthAdjust="spacing" textLength="247" x="105" y="408.8975">note: &#25152;&#26377;Uniform&#25968;&#25454;&#39033;&#30340;&#25277;&#35937;&#22522;&#31867;&#65292;</text><text fill="#000000" font-family="sans-serif" font-size="14" lengthAdjust="spacing" textLength="209" x="105" y="427.9654">&#23450;&#20041;&#20102;Uniform&#31867;&#22411;&#21644;&#26356;&#26032;&#29366;&#24577;&#12290;</text><line style="stroke:#181818;stroke-width:0.5;" x1="86" x2="582" y1="436.0674" y2="436.0674"/><polygon fill="#FFFF44" points="96,446.1014,100,450.1014,96,454.1014,92,450.1014" style="stroke:#B38D22;stroke-width:1.0;"/><text fill="#000000" font-family="sans-serif" font-size="14" lengthAdjust="spacing" textLength="472" x="105" y="455.0333">data_type: UniformDataType ' Uniform&#25968;&#25454;&#31867;&#22411; (&#22914; FLOAT, VEC3, MAT4)</text><ellipse cx="96" cy="470.1693" fill="#84BE84" rx="3" ry="3" style="stroke:#038048;stroke-width:1.0;"/><text fill="#000000" font-family="sans-serif" font-size="14" lengthAdjust="spacing" textLength="391" x="105" y="474.1013">Uniform_entry_base(name: string, type: UniformDataType)</text><ellipse cx="96" cy="489.2372" fill="#84BE84" rx="3" ry="3" style="stroke:#038048;stroke-width:1.0;"/><text fill="#000000" font-family="sans-serif" font-size="14" lengthAdjust="spacing" textLength="122" x="105" y="493.1692">get_name(): string</text><ellipse cx="96" cy="508.3051" fill="#84BE84" rx="3" ry="3" style="stroke:#038048;stroke-width:1.0;"/><text fill="#000000" font-family="sans-serif" font-size="14" lengthAdjust="spacing" textLength="227" x="105" y="512.2371">get_data_type(): UniformDataType</text><ellipse cx="96" cy="527.373" fill="#84BE84" rx="3" ry="3" style="stroke:#038048;stroke-width:1.0;"/><text fill="#000000" font-family="sans-serif" font-size="14" lengthAdjust="spacing" textLength="353" x="105" y="531.305">mark_dirty(is_dirty: bool = true): void ' &#26631;&#35760;&#20026;&#38656;&#35201;&#26356;&#26032;</text><ellipse cx="96" cy="546.4409" fill="#84BE84" rx="3" ry="3" style="stroke:#038048;stroke-width:1.0;"/><text fill="#000000" font-family="sans-serif" font-size="14" lengthAdjust="spacing" textLength="93" x="105" y="550.3729">is_dirty(): bool</text><text fill="#000000" font-family="sans-serif" font-size="14" lengthAdjust="spacing" textLength="4" x="105" y="569.4408">&#160;</text><ellipse cx="96" cy="584.5768" fill="#84BE84" rx="3" ry="3" style="stroke:#038048;stroke-width:1.0;"/><text fill="#000000" font-family="sans-serif" font-size="14" font-style="italic" lengthAdjust="spacing" textLength="322" x="105" y="588.5088">data_ptr(): void* ' &#33719;&#21462;&#24213;&#23618;&#25968;&#25454;&#25351;&#38024; (&#29992;&#20110;GPU&#19978;&#20256;)</text><ellipse cx="96" cy="603.6447" fill="#84BE84" rx="3" ry="3" style="stroke:#038048;stroke-width:1.0;"/><text fill="#000000" font-family="sans-serif" font-size="14" font-style="italic" lengthAdjust="spacing" textLength="398" x="105" y="607.5767">data_count(): int  ' &#33719;&#21462;&#25968;&#25454;&#20803;&#32032;&#25968;&#37327; (&#20363;&#22914;&#25968;&#32452;&#38271;&#24230;, &#38750;&#25968;&#32452;&#20026;1)</text></g><!--class Uniform_entry--><g id="elem_Uniform_entry"><rect codeLine="60" fill="#F1F1F1" height="309.295" id="Uniform_entry" rx="2.5" ry="2.5" style="stroke:#181818;stroke-width:0.5;" width="646" x="889.5" y="486.0199"/><ellipse cx="1155.25" cy="508.7259" fill="#ADD1B2" rx="11" ry="11" style="stroke:#181818;stroke-width:1.0;"/><path d="M1155.3594,504.2572 Q1154.4375,504.2572 1153.7031,504.5697 Q1152.9844,504.8822 1152.4844,505.4759 Q1151.9844,506.054 1151.7031,506.929 Q1151.4375,507.804 1151.4375,508.8978 Q1151.4375,510.3353 1151.875,511.3822 Q1152.3281,512.429 1153.1719,512.9759 Q1154.0313,513.5228 1155.3438,513.5228 Q1156.125,513.5228 1156.8125,513.3978 Q1157.5156,513.2572 1158.5156,512.9447 L1158.5156,514.8197 Q1157.6563,515.1478 1156.8906,515.2728 Q1156.1406,515.3978 1155.125,515.3978 Q1153.2031,515.3978 1151.8906,514.6009 Q1150.5938,513.7884 1149.9375,512.3197 Q1149.2813,510.8353 1149.2813,508.8665 Q1149.2813,507.4447 1149.6719,506.2728 Q1150.0781,505.0853 1150.8594,504.2103 Q1151.6406,503.3353 1152.7813,502.8665 Q1153.9219,502.3822 1155.3906,502.3822 Q1156.3438,502.3822 1157.2344,502.5853 Q1158.1406,502.7728 1159.0781,503.2415 L1158.25,505.0228 Q1157.4688,504.6478 1156.8125,504.4603 Q1156.1563,504.2572 1155.3594,504.2572 Z " fill="#000000"/><text fill="#000000" font-family="sans-serif" font-size="12" font-style="italic" lengthAdjust="spacing" textLength="62" x="1192.75" y="503.848">&#171;Template&#187;</text><text fill="#000000" font-family="sans-serif" font-size="14" lengthAdjust="spacing" textLength="96" x="1175.75" y="522.3299">Uniform_entry</text><rect fill="#FFFFFF" height="18.3441" style="stroke:#181818;stroke-width:1.0;stroke-dasharray:2.0,2.0;" width="8" x="1530.5" y="483.0199"/><text fill="#000000" font-family="sans-serif" font-size="12" font-style="italic" lengthAdjust="spacing" textLength="6" x="1531.5" y="496.848">T</text><line style="stroke:#181818;stroke-width:0.5;" x1="890.5" x2="1534.5" y1="531.4319" y2="531.4319"/><rect fill="none" height="6" style="stroke:#C82930;stroke-width:1.0;" width="6" x="897.5" y="543.4659"/><text fill="#000000" font-family="sans-serif" font-size="14" lengthAdjust="spacing" textLength="387" x="909.5" y="550.3979">m_value: std::unique_ptr&lt;T&gt; ' &#20351;&#29992;unique_ptr&#31649;&#29702;&#21333;&#20010;&#25968;&#25454;</text><text fill="#000000" font-family="sans-serif" font-size="14" lengthAdjust="spacing" textLength="4" x="909.5" y="569.4658">&#160;</text><text fill="#000000" font-family="sans-serif" font-size="14" lengthAdjust="spacing" textLength="4" x="909.5" y="588.5337">&#160;</text><text fill="#000000" font-family="sans-serif" font-size="14" lengthAdjust="spacing" textLength="4" x="909.5" y="607.6016">&#160;</text><text fill="#000000" font-family="sans-serif" font-size="14" lengthAdjust="spacing" textLength="205" x="909.5" y="626.6695">note: &#21333;&#20010;&#20540;Uniform&#30340;&#27169;&#26495;&#31867;&#12290;</text><line style="stroke:#181818;stroke-width:0.5;" x1="890.5" x2="1534.5" y1="634.7715" y2="634.7715"/><ellipse cx="900.5" cy="649.8055" fill="#84BE84" rx="3" ry="3" style="stroke:#038048;stroke-width:1.0;"/><text fill="#000000" font-family="sans-serif" font-size="14" lengthAdjust="spacing" textLength="457" x="909.5" y="653.7374">Uniform_entry(name: string, type: UniformDataType, initial_value: T)</text><ellipse cx="900.5" cy="668.8734" fill="#84BE84" rx="3" ry="3" style="stroke:#038048;stroke-width:1.0;"/><text fill="#000000" font-family="sans-serif" font-size="14" lengthAdjust="spacing" text-decoration="underline" textLength="620" x="909.5" y="672.8054">create(name: string, type: UniformDataType, initial_value: T): shared_ptr&lt;Uniform_entry&lt;T&gt;&gt;</text><text fill="#000000" font-family="sans-serif" font-size="14" lengthAdjust="spacing" textLength="4" x="909.5" y="691.8733">&#160;</text><ellipse cx="900.5" cy="707.0092" fill="#84BE84" rx="3" ry="3" style="stroke:#038048;stroke-width:1.0;"/><text fill="#000000" font-family="sans-serif" font-size="14" lengthAdjust="spacing" textLength="138" x="909.5" y="710.9412">get_value(): const T&amp;</text><ellipse cx="900.5" cy="726.0771" fill="#84BE84" rx="3" ry="3" style="stroke:#038048;stroke-width:1.0;"/><text fill="#000000" font-family="sans-serif" font-size="14" lengthAdjust="spacing" textLength="158" x="909.5" y="730.0091">set_value(value: T): void</text><text fill="#000000" font-family="sans-serif" font-size="14" lengthAdjust="spacing" textLength="4" x="909.5" y="749.077">&#160;</text><ellipse cx="900.5" cy="764.213" fill="#84BE84" rx="3" ry="3" style="stroke:#038048;stroke-width:1.0;"/><text fill="#000000" font-family="sans-serif" font-size="14" lengthAdjust="spacing" textLength="168" x="909.5" y="768.145">data_ptr() override: void*</text><ellipse cx="900.5" cy="783.2809" fill="#84BE84" rx="3" ry="3" style="stroke:#038048;stroke-width:1.0;"/><text fill="#000000" font-family="sans-serif" font-size="14" lengthAdjust="spacing" textLength="299" x="909.5" y="787.2129">data_count() override: int ' &#23545;&#20110;&#21333;&#20010;&#20540;&#65292;&#36820;&#22238;1</text></g><!--class Uniform_entry_array--><g id="elem_Uniform_entry_array"><rect codeLine="74" fill="#F1F1F1" height="366.4987" id="Uniform_entry_array" rx="2.5" ry="2.5" style="stroke:#181818;stroke-width:0.5;" width="863" x="781" y="84.4199"/><ellipse cx="1134.75" cy="107.1259" fill="#ADD1B2" rx="11" ry="11" style="stroke:#181818;stroke-width:1.0;"/><path d="M1134.8594,102.6572 Q1133.9375,102.6572 1133.2031,102.9697 Q1132.4844,103.2822 1131.9844,103.8759 Q1131.4844,104.454 1131.2031,105.329 Q1130.9375,106.204 1130.9375,107.2978 Q1130.9375,108.7353 1131.375,109.7822 Q1131.8281,110.829 1132.6719,111.3759 Q1133.5313,111.9228 1134.8438,111.9228 Q1135.625,111.9228 1136.3125,111.7978 Q1137.0156,111.6572 1138.0156,111.3447 L1138.0156,113.2197 Q1137.1563,113.5478 1136.3906,113.6728 Q1135.6406,113.7978 1134.625,113.7978 Q1132.7031,113.7978 1131.3906,113.0009 Q1130.0938,112.1884 1129.4375,110.7197 Q1128.7813,109.2353 1128.7813,107.2665 Q1128.7813,105.8447 1129.1719,104.6728 Q1129.5781,103.4853 1130.3594,102.6103 Q1131.1406,101.7353 1132.2813,101.2665 Q1133.4219,100.7822 1134.8906,100.7822 Q1135.8438,100.7822 1136.7344,100.9853 Q1137.6406,101.1728 1138.5781,101.6415 L1137.75,103.4228 Q1136.9688,103.0478 1136.3125,102.8603 Q1135.6563,102.6572 1134.8594,102.6572 Z " fill="#000000"/><text fill="#000000" font-family="sans-serif" font-size="12" font-style="italic" lengthAdjust="spacing" textLength="62" x="1192.75" y="102.248">&#171;Template&#187;</text><text fill="#000000" font-family="sans-serif" font-size="14" lengthAdjust="spacing" textLength="137" x="1155.25" y="120.7299">Uniform_entry_array</text><rect fill="#FFFFFF" height="18.3441" style="stroke:#181818;stroke-width:1.0;stroke-dasharray:2.0,2.0;" width="8" x="1639" y="81.4199"/><text fill="#000000" font-family="sans-serif" font-size="12" font-style="italic" lengthAdjust="spacing" textLength="6" x="1640" y="95.248">T</text><line style="stroke:#181818;stroke-width:0.5;" x1="782" x2="1643" y1="129.8319" y2="129.8319"/><rect fill="none" height="6" style="stroke:#C82930;stroke-width:1.0;" width="6" x="789" y="141.8659"/><text fill="#000000" font-family="sans-serif" font-size="14" lengthAdjust="spacing" textLength="404" x="801" y="148.7979">m_values: std::unique_ptr&lt;T[]&gt; ' &#20351;&#29992;unique_ptr&#31649;&#29702;&#25968;&#25454;&#25968;&#32452;</text><rect fill="none" height="6" style="stroke:#C82930;stroke-width:1.0;" width="6" x="789" y="160.9338"/><text fill="#000000" font-family="sans-serif" font-size="14" lengthAdjust="spacing" textLength="267" x="801" y="167.8658">m_element_count: int ' &#25968;&#32452;&#20013;&#30340;&#20803;&#32032;&#25968;&#37327;</text><text fill="#000000" font-family="sans-serif" font-size="14" lengthAdjust="spacing" textLength="4" x="801" y="186.9337">&#160;</text><text fill="#000000" font-family="sans-serif" font-size="14" lengthAdjust="spacing" textLength="4" x="801" y="206.0016">&#160;</text><text fill="#000000" font-family="sans-serif" font-size="14" lengthAdjust="spacing" textLength="4" x="801" y="225.0695">&#160;</text><text fill="#000000" font-family="sans-serif" font-size="14" lengthAdjust="spacing" textLength="219" x="801" y="244.1374">note: &#25968;&#32452;&#31867;&#22411;Uniform&#30340;&#27169;&#26495;&#31867;&#12290;</text><line style="stroke:#181818;stroke-width:0.5;" x1="782" x2="1643" y1="252.2394" y2="252.2394"/><ellipse cx="792" cy="267.2734" fill="#84BE84" rx="3" ry="3" style="stroke:#038048;stroke-width:1.0;"/><text fill="#000000" font-family="sans-serif" font-size="14" lengthAdjust="spacing" textLength="466" x="801" y="271.2054">Uniform_entry_array(name: string, type: UniformDataType, count: int)</text><ellipse cx="792" cy="286.3413" fill="#84BE84" rx="3" ry="3" style="stroke:#038048;stroke-width:1.0;"/><text fill="#000000" font-family="sans-serif" font-size="14" lengthAdjust="spacing" text-decoration="underline" textLength="837" x="801" y="290.2733">create(name: string, type: UniformDataType, count: int, initial_data: const T* = nullptr): shared_ptr&lt;Uniform_entry_array&lt;T&gt;&gt;</text><text fill="#000000" font-family="sans-serif" font-size="14" lengthAdjust="spacing" textLength="4" x="801" y="309.3412">&#160;</text><ellipse cx="792" cy="324.4771" fill="#84BE84" rx="3" ry="3" style="stroke:#038048;stroke-width:1.0;"/><text fill="#000000" font-family="sans-serif" font-size="14" lengthAdjust="spacing" textLength="220" x="801" y="328.4091">get_value_at(index: int): const T&amp;</text><ellipse cx="792" cy="343.5451" fill="#84BE84" rx="3" ry="3" style="stroke:#038048;stroke-width:1.0;"/><text fill="#000000" font-family="sans-serif" font-size="14" lengthAdjust="spacing" textLength="248" x="801" y="347.477">set_value_at(index: int, value: T): void</text><ellipse cx="792" cy="362.613" fill="#84BE84" rx="3" ry="3" style="stroke:#038048;stroke-width:1.0;"/><text fill="#000000" font-family="sans-serif" font-size="14" lengthAdjust="spacing" textLength="533" x="801" y="366.545">set_values(data: const T*, num_elements_to_copy: int): void ' &#20462;&#25913;&#25972;&#20010;&#25110;&#37096;&#20998;&#25968;&#32452;</text><ellipse cx="792" cy="381.6809" fill="#84BE84" rx="3" ry="3" style="stroke:#038048;stroke-width:1.0;"/><text fill="#000000" font-family="sans-serif" font-size="14" lengthAdjust="spacing" textLength="223" x="801" y="385.6129">get_count(): int ' &#36820;&#22238;&#25968;&#32452;&#20803;&#32032;&#25968;&#37327;</text><text fill="#000000" font-family="sans-serif" font-size="14" lengthAdjust="spacing" textLength="4" x="801" y="404.6808">&#160;</text><ellipse cx="792" cy="419.8167" fill="#84BE84" rx="3" ry="3" style="stroke:#038048;stroke-width:1.0;"/><text fill="#000000" font-family="sans-serif" font-size="14" lengthAdjust="spacing" textLength="168" x="801" y="423.7487">data_ptr() override: void*</text><ellipse cx="792" cy="438.8846" fill="#84BE84" rx="3" ry="3" style="stroke:#038048;stroke-width:1.0;"/><text fill="#000000" font-family="sans-serif" font-size="14" lengthAdjust="spacing" textLength="333" x="801" y="442.8166">data_count() override: int ' &#36820;&#22238;&#25968;&#32452;&#23450;&#20041;&#30340;&#20803;&#32032;&#25968;&#37327;</text></g><!--class Uniform_entry_base--><g id="elem_Uniform_entry_base"><rect fill="#F1F1F1" height="48" id="Uniform_entry_base" rx="2.5" ry="2.5" style="stroke:#181818;stroke-width:0.5;" width="166" x="1129.5" y="1239.6699"/><ellipse cx="1144.5" cy="1255.6699" fill="#ADD1B2" rx="11" ry="11" style="stroke:#181818;stroke-width:1.0;"/><path d="M1144.6094,1251.2011 Q1143.6875,1251.2011 1142.9531,1251.5136 Q1142.2344,1251.8261 1141.7344,1252.4199 Q1141.2344,1252.998 1140.9531,1253.873 Q1140.6875,1254.748 1140.6875,1255.8418 Q1140.6875,1257.2793 1141.125,1258.3261 Q1141.5781,1259.373 1142.4219,1259.9199 Q1143.2813,1260.4668 1144.5938,1260.4668 Q1145.375,1260.4668 1146.0625,1260.3418 Q1146.7656,1260.2011 1147.7656,1259.8886 L1147.7656,1261.7636 Q1146.9063,1262.0918 1146.1406,1262.2168 Q1145.3906,1262.3418 1144.375,1262.3418 Q1142.4531,1262.3418 1141.1406,1261.5449 Q1139.8438,1260.7324 1139.1875,1259.2636 Q1138.5313,1257.7793 1138.5313,1255.8105 Q1138.5313,1254.3886 1138.9219,1253.2168 Q1139.3281,1252.0293 1140.1094,1251.1543 Q1140.8906,1250.2793 1142.0313,1249.8105 Q1143.1719,1249.3261 1144.6406,1249.3261 Q1145.5938,1249.3261 1146.4844,1249.5293 Q1147.3906,1249.7168 1148.3281,1250.1855 L1147.5,1251.9668 Q1146.7188,1251.5918 1146.0625,1251.4043 Q1145.4063,1251.2011 1144.6094,1251.2011 Z " fill="#000000"/><text fill="#000000" font-family="sans-serif" font-size="14" lengthAdjust="spacing" textLength="134" x="1158.5" y="1261.1019">Uniform_entry_base</text><line style="stroke:#181818;stroke-width:0.5;" x1="1130.5" x2="1294.5" y1="1271.6699" y2="1271.6699"/><line style="stroke:#181818;stroke-width:0.5;" x1="1130.5" x2="1294.5" y1="1279.6699" y2="1279.6699"/></g><!--reverse link RHI_shader_program to RHI_shader_code--><g id="link_RHI_shader_program_RHI_shader_code"><path codeLine="39" d="M658.49,1040.6699 C733.4,1040.6699 801.73,1040.6699 877.62,1040.6699 " fill="none" id="RHI_shader_program-backto-RHI_shader_code" style="stroke:#181818;stroke-width:1.0;"/><polygon fill="none" points="646.49,1040.6699,652.49,1044.6699,658.49,1040.6699,652.49,1036.6699,646.49,1040.6699" style="stroke:#181818;stroke-width:1.0;"/><polygon fill="#000000" points="686,1031.5229,676.9549,1028.584,676.9549,1034.4618,686,1031.5229" style="stroke:#000000;stroke-width:1.0;"/><text fill="#000000" font-family="sans-serif" font-size="13" lengthAdjust="spacing" textLength="60" x="690" y="1036.5669">(&#21253;&#21547;&#22810;&#20010;)</text><text fill="#000000" font-family="sans-serif" font-size="13" lengthAdjust="spacing" textLength="53" x="817.2795" y="1054.7468">m_codes</text></g><!--reverse link RHI_shader_program to Uniform_entry_base--><g id="link_RHI_shader_program_Uniform_entry_base"><path codeLine="40" d="M657.6066,1186.0733 C702.1266,1202.2733 736.6,1212.7599 781,1223.6699 C899.81,1252.8699 1041.86,1261.0999 1129.38,1263.2299 " fill="none" id="RHI_shader_program-backto-Uniform_entry_base" style="stroke:#181818;stroke-width:1.0;"/><polygon fill="none" points="646.33,1181.9699,650.6005,1187.7805,657.6066,1186.0733,653.3361,1180.2627,646.33,1181.9699" style="stroke:#181818;stroke-width:1.0;"/><polygon fill="#000000" points="685.9344,1185.4499,677.4823,1181.0896,676.5336,1186.8904,685.9344,1185.4499" style="stroke:#000000;stroke-width:1.0;"/><text fill="#000000" font-family="sans-serif" font-size="13" lengthAdjust="spacing" textLength="60" x="690" y="1189.6869">(&#31649;&#29702;&#22810;&#20010;)</text><text fill="#000000" font-family="sans-serif" font-size="13" lengthAdjust="spacing" textLength="72" x="1049.3766" y="1277.6922">m_uniforms</text></g><!--reverse link Uniform_entry_base to Uniform_entry--><g id="link_Uniform_entry_base_Uniform_entry"><path d="M600.823,506.9021 C695.853,527.7221 788.09,547.9199 889.07,570.0399 " fill="none" id="Uniform_entry_base-backto-Uniform_entry" style="stroke:#181818;stroke-width:1.0;"/><polygon fill="none" points="583.24,503.0499,599.5389,512.7631,602.107,501.0411,583.24,503.0499" style="stroke:#181818;stroke-width:1.0;"/></g><!--reverse link Uniform_entry_base to Uniform_entry_array--><g id="link_Uniform_entry_base_Uniform_entry_array"><path d="M600.8682,393.7701 C662.6182,381.0201 712.99,370.6099 780.75,356.6199 " fill="none" id="Uniform_entry_base-backto-Uniform_entry_array" style="stroke:#181818;stroke-width:1.0;"/><polygon fill="none" points="583.24,397.4099,602.0814,399.6461,599.6549,387.894,583.24,397.4099" style="stroke:#181818;stroke-width:1.0;"/></g><!--SRC=[jLPTJzjM6BxFhpXZqkfqwKMrNKKCYLBAfi6e8AqqhLFanWUmSEpKTbXHXKGfNw50M0U8Gil7sh6eKqCeZ9A4Zn-p73kvuY_iFJwsOvj0grNBbNFE-_q-x_CUNTGbZ7g-_GwPBqUhcNVaUSxSAvlb3SJHmzu1Ni0gwXtMT9mC8tEtJDPEGg7F1DmdoXYrtkYDzRIsnU9jdQszlV6sxixk7lJz03yekYBUczkyX6DfzK5Q4JNiIiJQksvtjiRQVKOwnVu1lKEH12ptACAFM9AKNroD7xf1-aQ7LxIXH7VFpVOUMwfRvUL-t8E5K4Z2VJhI5QHIHII8AaxeeYA7Gg4KdnZa-p5gSejXR1wIqoV6p75rTmjnTZdQ51Lolw_fAczfQk4cz2Y4uCVRXoWXyPf6wnhNB9ruGX6mBKH_dwEaSwCFft3KhdGClj4LL3bvIhR7pevMQri7vbZHZGPnTx6guuTn9XsE83CpHIQUU0HkgNn_4ikw8sA-pRXEtOylWv5nmI327jb-h7jZvS9UGO_S8oVx4PHGaYbHmfocfDK4jbn44LoASZzetrSK2R8qZvQhEx_MIrrQC3SVk_PaHGSTibCaSqkLmr5Nh59-1M9dHzDG8JYl7BxfwEpjD9QdAkK3CZb1yiMpeuovEivwLjtAcQzB_uoEtPEh-nlL_LTcVijSc2JFPctlcIB9hr9Shpy5fO0NqBFY6GbzeBifLUbN-MIWmJHjBOgw-5HplM2HOEslja0joDiLCfQh7CwHXTdQoe6H__jyD50BoCZd8IsBVOgQT9nO1OuWCAvY8PxIrUOxJ20EY527u_Tv3RTGTsPvtvXvRMH6ZHSPMuHaLsfJMLgubKrI60yrRYolwtnYW666TJMO3VHtI145S59xFavcDbcF0gaqDYxWkl5pW7JDakb9SxlCp1gpKvUqhx4NIPG7kJeAQx-T6FD_i5AGz-zOq0sAV_oxCRr0iZj6vi_grgoPUqfAsVEJTGKPkItZvQcnN3Jsbip5NAKqpy8Z-GoPo94NXSfftbWi0WAhy-z9Tjaf_-YH9zoa8eXzmqvxcsCjdCmdtH6Ae25UIiFVc9r6O5WlL5FIUjnH_IAewyc15FT8jc2k7PA9FIW5AIsHtJ4xq6h-n3pEGyb8zjNPqQovk6lidvYB6pJB_BevNsXSTQqULpmbyRhreQLmGkmJ4u4mBR16qNdiEk0Aa0GRTM_FM7iW91OXURqAOA58xQqZrLWVXuvQrC188T1niCUmGR8plXcfiy98g047ADUkeIPx-9lEhO0euiZi15duYyKKHYsNs736kwb1BQWbcynSIvuDPYiWUwmjGSGvfrsy359qJroqkXeuz9ARqqflum0ulZgHXJcFXi3hlBthRAcRS68lFFl4M2eOStasBr2dxJ5qgxExDHP1TzlRlegWhjROrs6FIHbZGOkdKs0Qs_Fy3TBLDBLehEoGXUtQYz7gzcDZRTzOBf3fGiVjErvUEvzZ08WDmmskHgf2-OGf1IxThAb4m91ttdbrC0ul4NsO4pNsuKkepdx6vbGrNwWSbhofUImvwjo5u-sdN1eVB0hEzd0LN31UOaFFEW8qMtis3NYp-0ogM3cSgHnjXY-ncL3IiawjYhAENAFC77snx6_2Du04SUon0__CydXjwPIKjYEezdAT7K2YryF1SVUkBMQnjbLqLpxPAB71loV3RgWKCvNIf2riC_6pMLOsS-R060qk-GRm1o95pSqndAJ4HHSeVgXZMVZ0a5o3_MoJhQOBqIYCp8CqjhPoZExWol4frBD-QWypVUsyOLbTYDMFWMa4AY_g8Y-vZEzhbwRpkfY0bvgA8QV_Q31wuLC3Kcnf13qw4vOwXKO2diuwR2BFlURUUvpuADyZN0SlKeQmgehqFMAXE2Xaez4ZHc5vXJul0T2ivh210JJLqqMojduz-0nr91mW0TYiFG-8-Z1-uhogyf-A8gq1Z7xw-M8WsPDhJP7F6fOiucSrSGhXJDjRkkuzutanNLevVHnkwfu-6O9rKtKuqWwxOBeAZ2cd9GdgS0aytOvS3j8uhtEYBE27BFZB4UiNzhtHV03sg6YSF_O8XEusI8lh2ZGfDUmujpS0UpyQI_kK9wQNQqzoy28Ez9dbuEDWe60BsapIr-F_PRHytYmU3a8hmEgM96FeIwTi9FGl]--></g></svg>