<?xml version="1.0" encoding="us-ascii" standalone="no"?><svg xmlns="http://www.w3.org/2000/svg" xmlns:xlink="http://www.w3.org/1999/xlink" contentStyleType="text/css" height="448px" preserveAspectRatio="none" style="width:1382px;height:448px;background:#FFFFFF;" version="1.1" viewBox="0 0 1382 448" width="1382px" zoomAndPan="magnify"><defs/><g><!--class RHI_Linker_RHI_Frame_Buffer--><g id="elem_RHI_Linker_RHI_Frame_Buffer"><rect codeLine="6" fill="#F1F1F1" height="48" id="RHI_Linker_RHI_Frame_Buffer" rx="2.5" ry="2.5" style="stroke:#181818;stroke-width:0.5;" width="199" x="383.5" y="10.016"/><ellipse cx="398.5" cy="26.016" fill="#ADD1B2" rx="11" ry="11" style="stroke:#181818;stroke-width:1.0;"/><path d="M398.6094,21.5473 Q397.6875,21.5473 396.9531,21.8598 Q396.2344,22.1723 395.7344,22.766 Q395.2344,23.3441 394.9531,24.2191 Q394.6875,25.0941 394.6875,26.1879 Q394.6875,27.6254 395.125,28.6723 Q395.5781,29.7191 396.4219,30.266 Q397.2813,30.8129 398.5938,30.8129 Q399.375,30.8129 400.0625,30.6879 Q400.7656,30.5473 401.7656,30.2348 L401.7656,32.1098 Q400.9063,32.4379 400.1406,32.5629 Q399.3906,32.6879 398.375,32.6879 Q396.4531,32.6879 395.1406,31.891 Q393.8438,31.0785 393.1875,29.6098 Q392.5313,28.1254 392.5313,26.1566 Q392.5313,24.7348 392.9219,23.5629 Q393.3281,22.3754 394.1094,21.5004 Q394.8906,20.6254 396.0313,20.1566 Q397.1719,19.6723 398.6406,19.6723 Q399.5938,19.6723 400.4844,19.8754 Q401.3906,20.0629 402.3281,20.5316 L401.5,22.3129 Q400.7188,21.9379 400.0625,21.7504 Q399.4063,21.5473 398.6094,21.5473 Z " fill="#000000"/><text fill="#000000" font-family="sans-serif" font-size="14" lengthAdjust="spacing" textLength="68" x="412.5" y="31.448">RHI_linker</text><rect fill="#FFFFFF" height="18.3441" style="stroke:#181818;stroke-width:1.0;stroke-dasharray:2.0,2.0;" width="97" x="488.5" y="7.016"/><text fill="#000000" font-family="sans-serif" font-size="12" font-style="italic" lengthAdjust="spacing" textLength="95" x="489.5" y="20.8441">RHI_frame_buffer</text><line style="stroke:#181818;stroke-width:0.5;" x1="384.5" x2="581.5" y1="42.016" y2="42.016"/><line style="stroke:#181818;stroke-width:0.5;" x1="384.5" x2="581.5" y1="50.016" y2="50.016"/></g><!--class Frame_buffer--><g id="elem_Frame_buffer"><rect codeLine="14" fill="#F1F1F1" height="322.9508" id="Frame_buffer" rx="2.5" ry="2.5" style="stroke:#181818;stroke-width:0.5;" width="952" x="7" y="119.016"/><ellipse cx="433.75" cy="135.016" fill="#ADD1B2" rx="11" ry="11" style="stroke:#181818;stroke-width:1.0;"/><path d="M433.8594,130.5473 Q432.9375,130.5473 432.2031,130.8598 Q431.4844,131.1723 430.9844,131.766 Q430.4844,132.3441 430.2031,133.2191 Q429.9375,134.0941 429.9375,135.1879 Q429.9375,136.6254 430.375,137.6723 Q430.8281,138.7191 431.6719,139.266 Q432.5313,139.8129 433.8438,139.8129 Q434.625,139.8129 435.3125,139.6879 Q436.0156,139.5473 437.0156,139.2348 L437.0156,141.1098 Q436.1563,141.4379 435.3906,141.5629 Q434.6406,141.6879 433.625,141.6879 Q431.7031,141.6879 430.3906,140.891 Q429.0938,140.0785 428.4375,138.6098 Q427.7813,137.1254 427.7813,135.1566 Q427.7813,133.7348 428.1719,132.5629 Q428.5781,131.3754 429.3594,130.5004 Q430.1406,129.6254 431.2813,129.1566 Q432.4219,128.6723 433.8906,128.6723 Q434.8438,128.6723 435.7344,128.8754 Q436.6406,129.0629 437.5781,129.5316 L436.75,131.3129 Q435.9688,130.9379 435.3125,130.7504 Q434.6563,130.5473 433.8594,130.5473 Z " fill="#000000"/><text fill="#000000" font-family="sans-serif" font-size="14" lengthAdjust="spacing" textLength="90" x="454.25" y="140.448">Frame_buffer</text><line style="stroke:#181818;stroke-width:0.5;" x1="8" x2="958" y1="151.016" y2="151.016"/><rect fill="none" height="6" style="stroke:#C82930;stroke-width:1.0;" width="6" x="15" y="186.1179"/><text fill="#000000" font-family="sans-serif" font-size="14" lengthAdjust="spacing" textLength="79" x="27" y="193.0499">int m_width</text><rect fill="none" height="6" style="stroke:#C82930;stroke-width:1.0;" width="6" x="15" y="205.1858"/><text fill="#000000" font-family="sans-serif" font-size="14" lengthAdjust="spacing" textLength="85" x="27" y="212.1178">int m_height</text><rect fill="none" height="6" style="stroke:#C82930;stroke-width:1.0;" width="6" x="15" y="224.2537"/><text fill="#000000" font-family="sans-serif" font-size="14" lengthAdjust="spacing" textLength="401" x="27" y="231.1857">std::vector&lt;std::shared_ptr&lt;Texture&gt;&gt; m_color_attachments</text><rect fill="none" height="6" style="stroke:#C82930;stroke-width:1.0;" width="6" x="15" y="243.3217"/><text fill="#000000" font-family="sans-serif" font-size="14" lengthAdjust="spacing" textLength="315" x="27" y="250.2536">std::shared_ptr&lt;Texture&gt; m_depth_attachment</text><text fill="#000000" font-family="sans-serif" font-size="14" lengthAdjust="spacing" textLength="4" x="27" y="269.3215">&#160;</text><line style="stroke:#181818;stroke-width:1.0;" x1="8" x2="449.5" y1="168.55" y2="168.55"/><text fill="#000000" font-family="sans-serif" font-size="14" lengthAdjust="spacing" textLength="67" x="449.5" y="173.482">Attributes</text><line style="stroke:#181818;stroke-width:1.0;" x1="516.5" x2="958" y1="168.55" y2="168.55"/><ellipse cx="18" cy="307.5254" fill="#84BE84" rx="3" ry="3" style="stroke:#038048;stroke-width:1.0;"/><text fill="#000000" font-family="sans-serif" font-size="14" lengthAdjust="spacing" textLength="926" x="27" y="311.4574">Frame_buffer(int width, int height, std::vector&lt;std::shared_ptr&lt;Texture&gt;&gt; color_attachments, std::shared_ptr&lt;Texture&gt; depth_attachment)</text><text fill="#000000" font-family="sans-serif" font-size="14" lengthAdjust="spacing" textLength="4" x="27" y="330.5253">&#160;</text><line style="stroke:#181818;stroke-width:1.0;" x1="8" x2="443.5" y1="286.9575" y2="286.9575"/><text fill="#000000" font-family="sans-serif" font-size="14" lengthAdjust="spacing" textLength="79" x="443.5" y="291.8895">Constructor</text><line style="stroke:#181818;stroke-width:1.0;" x1="522.5" x2="958" y1="286.9575" y2="286.9575"/><ellipse cx="18" cy="368.7292" fill="#84BE84" rx="3" ry="3" style="stroke:#038048;stroke-width:1.0;"/><text fill="#000000" font-family="sans-serif" font-size="14" lengthAdjust="spacing" textLength="193" x="27" y="372.6611">void link(RHI_Device* device)</text><text fill="#000000" font-family="sans-serif" font-size="14" lengthAdjust="spacing" textLength="4" x="27" y="391.729">&#160;</text><line style="stroke:#181818;stroke-width:1.0;" x1="8" x2="453.5" y1="348.1612" y2="348.1612"/><text fill="#000000" font-family="sans-serif" font-size="14" lengthAdjust="spacing" textLength="59" x="453.5" y="353.0932">Methods</text><line style="stroke:#181818;stroke-width:1.0;" x1="512.5" x2="958" y1="348.1612" y2="348.1612"/><ellipse cx="18" cy="429.9329" fill="#84BE84" rx="3" ry="3" style="stroke:#038048;stroke-width:1.0;"/><text fill="#000000" font-family="sans-serif" font-size="14" lengthAdjust="spacing" text-decoration="underline" textLength="274" x="27" y="433.8649">std::shared_ptr&lt;Frame_buffer&gt; create(...)</text><line style="stroke:#181818;stroke-width:1.0;" x1="8" x2="410.5" y1="409.365" y2="409.365"/><text fill="#000000" font-family="sans-serif" font-size="14" lengthAdjust="spacing" textLength="145" x="410.5" y="414.297">Static Factory Method</text><line style="stroke:#181818;stroke-width:1.0;" x1="555.5" x2="958" y1="409.365" y2="409.365"/></g><!--class Texture--><g id="elem_Texture"><rect codeLine="36" fill="#F1F1F1" height="67.0679" id="Texture" rx="2.5" ry="2.5" style="stroke:#181818;stroke-width:0.5;" width="290" x="1085" y="246.956"/><ellipse cx="1200.25" cy="262.956" fill="#ADD1B2" rx="11" ry="11" style="stroke:#181818;stroke-width:1.0;"/><path d="M1200.3594,258.4873 Q1199.4375,258.4873 1198.7031,258.7998 Q1197.9844,259.1123 1197.4844,259.706 Q1196.9844,260.2841 1196.7031,261.1591 Q1196.4375,262.0341 1196.4375,263.1279 Q1196.4375,264.5654 1196.875,265.6123 Q1197.3281,266.6591 1198.1719,267.206 Q1199.0313,267.7529 1200.3438,267.7529 Q1201.125,267.7529 1201.8125,267.6279 Q1202.5156,267.4873 1203.5156,267.1748 L1203.5156,269.0498 Q1202.6563,269.3779 1201.8906,269.5029 Q1201.1406,269.6279 1200.125,269.6279 Q1198.2031,269.6279 1196.8906,268.831 Q1195.5938,268.0185 1194.9375,266.5498 Q1194.2813,265.0654 1194.2813,263.0966 Q1194.2813,261.6748 1194.6719,260.5029 Q1195.0781,259.3154 1195.8594,258.4404 Q1196.6406,257.5654 1197.7813,257.0966 Q1198.9219,256.6123 1200.3906,256.6123 Q1201.3438,256.6123 1202.2344,256.8154 Q1203.1406,257.0029 1204.0781,257.4716 L1203.25,259.2529 Q1202.4688,258.8779 1201.8125,258.6904 Q1201.1563,258.4873 1200.3594,258.4873 Z " fill="#000000"/><text fill="#000000" font-family="sans-serif" font-size="14" lengthAdjust="spacing" textLength="51" x="1220.75" y="268.388">Texture</text><line style="stroke:#181818;stroke-width:0.5;" x1="1086" x2="1374" y1="278.956" y2="278.956"/><line style="stroke:#181818;stroke-width:0.5;" x1="1086" x2="1374" y1="286.956" y2="286.956"/><ellipse cx="1096" cy="301.99" fill="#84BE84" rx="3" ry="3" style="stroke:#038048;stroke-width:1.0;"/><text fill="#000000" font-family="sans-serif" font-size="14" lengthAdjust="spacing" textLength="264" x="1105" y="305.922">virtual void link(RHI_Device* device) = 0</text></g><!--reverse link RHI_Linker_RHI_Frame_Buffer to Frame_buffer--><g id="link_RHI_Linker_RHI_Frame_Buffer_Frame_buffer"><path codeLine="45" d="M483,76.456 C483,91.696 483,95.046 483,118.536 " fill="none" id="RHI_Linker_RHI_Frame_Buffer-backto-Frame_buffer" style="stroke:#181818;stroke-width:1.0;"/><polygon fill="none" points="483,58.456,477,76.456,489,76.456,483,58.456" style="stroke:#181818;stroke-width:1.0;"/></g><!--link Frame_buffer to Texture--><g id="link_Frame_buffer_Texture"><path codeLine="49" d="M959.26,280.486 C1004.15,280.486 1040.89,280.486 1078.61,280.486 " fill="none" id="Frame_buffer-to-Texture" style="stroke:#181818;stroke-width:1.0;stroke-dasharray:7.0,7.0;"/><polygon fill="#181818" points="1084.61,280.486,1075.61,276.486,1079.61,280.486,1075.61,284.486,1084.61,280.486" style="stroke:#181818;stroke-width:1.0;"/><polygon fill="#000000" points="986.5,268.339,977.4549,265.4001,977.4549,271.278,986.5,268.339" style="stroke:#000000;stroke-width:1.0;"/><text fill="#000000" font-family="sans-serif" font-size="13" lengthAdjust="spacing" textLength="76" x="990.5" y="273.383">attachments</text></g><!--SRC=[ZLHDJzj04BtdLuouaBJ4wXcbbYWjAbAvGDLhjB77UCLcrzePfr3AV-_CsWus0LGV4djtFjxCUpDqPtrZejb2uGpH6NEqcvRniWZ-boMxSGYLSOGpVP8D75r_lrmxw-ymhlIr4dTSRzggmfWVWI7Gqn_9OAsl5ydWIpA0nnd8Smmt3HRMEFl7i0qUGWNFOQ4A4Lw6pdh7A-FDBH9mZT3w4gDxiFxsm1mYKcXZWTdiIR4VmyNuzbnBwGkQN7JubalOzuBagpi4wncswz-sv7foKgEzhRa_8YvFJtTOS8Yhz4wrYLYk6uwhdtZFRSGy5wSYk13NXjaKzHOzqzZ_5HznAR7XUkGo6y2U1qySMyqveFqugMkkG1FmauIvGtpods0Fe9wyZV8bniKUv1Lo7Kfw1hWBjWIbVAxiVSMTBV231D3_HK_tDqyIbi0u1zpbW14G400f19R0GLNG-_Vkv-971_YNUShQPqfoGxdgx4RXiqcKbvMz4aL5cSpU2QBMoxo8Q1WdafqlX25nrIA6KWSLKxPlumtBo1HmOPIqXxwhpqrzf7J_TC3GM0v2QSe_px9ieGCY0sctZRELbKRsN7Ox0URoqsvrngpq6-yjCVf2MF2bm7EuCpe3FRTL35jeefLUo0hHAXRzb0r1XmLmjX75IWsmCJIaqXQEYUQ7HYll7AwH6f5vjvEKCL-OXbedrGgsmQM9eS78LYNZEtMbw_1MMtifsiYjSUzB4Zx3fwvPr-ZItgBQDgG7bxx6QDb8OsRlhR_LNs5mp8Jkfia2og9EPfRl6tOA4y7dity0]--></g></svg>