<?xml version="1.0" encoding="us-ascii" standalone="no"?><svg xmlns="http://www.w3.org/2000/svg" xmlns:xlink="http://www.w3.org/1999/xlink" contentStyleType="text/css" height="696px" preserveAspectRatio="none" style="width:1623px;height:696px;background:#FFFFFF;" version="1.1" viewBox="0 0 1623 696" width="1623px" zoomAndPan="magnify"><defs/><g><!--class RHI_buffer--><g id="elem_RHI_buffer"><rect codeLine="6" fill="#F1F1F1" height="181.4754" id="RHI_buffer" rx="2.5" ry="2.5" style="stroke:#181818;stroke-width:0.5;" width="342" x="607.5" y="286.54"/><ellipse cx="741.25" cy="302.54" fill="#A9DCDF" rx="11" ry="11" style="stroke:#181818;stroke-width:1.0;"/><path d="M744.5938,307.79 L743.125,304.04 L738.6875,304.04 L737.25,307.79 L735.125,307.79 L740.0781,295.0712 L741.8281,295.0712 L746.75,307.79 L744.5938,307.79 Z M741.25,298.8369 Q741.2031,298.6806 741.0781,298.3212 Q740.9531,297.9619 740.8438,297.5869 Q740.7344,297.1962 740.9375,297.1337 Q741.0938,297.3212 741,297.6806 Q740.9063,298.0244 740.8125,298.3212 Q740.7188,298.6025 740.6406,298.8369 L739.4063,302.1494 L742.4844,302.1494 L741.25,298.8369 Z " fill="#000000"/><text fill="#000000" font-family="sans-serif" font-size="14" font-style="italic" lengthAdjust="spacing" textLength="66" x="761.75" y="307.972">RHI_buffer</text><line style="stroke:#181818;stroke-width:0.5;" x1="608.5" x2="948.5" y1="318.54" y2="318.54"/><line style="stroke:#181818;stroke-width:0.5;" x1="608.5" x2="948.5" y1="326.54" y2="326.54"/><ellipse cx="618.5" cy="341.574" fill="#84BE84" rx="3" ry="3" style="stroke:#038048;stroke-width:1.0;"/><text fill="#000000" font-family="sans-serif" font-size="14" font-style="italic" lengthAdjust="spacing" textLength="171" x="627.5" y="345.5059">reallocate_data(size: size_t)</text><ellipse cx="618.5" cy="360.6419" fill="#84BE84" rx="3" ry="3" style="stroke:#038048;stroke-width:1.0;"/><text fill="#000000" font-family="sans-serif" font-size="14" font-style="italic" lengthAdjust="spacing" textLength="261" x="627.5" y="364.5739">substitute_data(offset: size_t, data: void*)</text><ellipse cx="618.5" cy="379.7098" fill="#84BE84" rx="3" ry="3" style="stroke:#038048;stroke-width:1.0;"/><text fill="#000000" font-family="sans-serif" font-size="14" font-style="italic" lengthAdjust="spacing" textLength="316" x="627.5" y="383.6418">map_buffer(access: RHI_buffer_access_flags): void*</text><ellipse cx="618.5" cy="398.7777" fill="#84BE84" rx="3" ry="3" style="stroke:#038048;stroke-width:1.0;"/><text fill="#000000" font-family="sans-serif" font-size="14" font-style="italic" lengthAdjust="spacing" textLength="95" x="627.5" y="402.7097">unmap_buffer()</text><ellipse cx="618.5" cy="417.8456" fill="#84BE84" rx="3" ry="3" style="stroke:#038048;stroke-width:1.0;"/><text fill="#000000" font-family="sans-serif" font-size="14" lengthAdjust="spacing" textLength="107" x="627.5" y="421.7776">get_size(): size_t</text><ellipse cx="618.5" cy="436.9135" fill="#84BE84" rx="3" ry="3" style="stroke:#038048;stroke-width:1.0;"/><text fill="#000000" font-family="sans-serif" font-size="14" lengthAdjust="spacing" textLength="150" x="627.5" y="440.8455">get_type(): Buffer_type</text><ellipse cx="618.5" cy="455.9815" fill="#84BE84" rx="3" ry="3" style="stroke:#038048;stroke-width:1.0;"/><text fill="#000000" font-family="sans-serif" font-size="14" lengthAdjust="spacing" textLength="174" x="627.5" y="459.9134">get_usage(): Buffer_usage</text></g><!--class Buffer_type--><g id="elem_Buffer_type"><rect codeLine="16" fill="#F1F1F1" height="124.2717" id="Buffer_type" rx="2.5" ry="2.5" style="stroke:#181818;stroke-width:0.5;" width="134" x="962.5" y="565.02"/><ellipse cx="988.75" cy="581.02" fill="#EB937F" rx="11" ry="11" style="stroke:#181818;stroke-width:1.0;"/><path d="M992.2188,587.52 L984.9063,587.52 L984.9063,574.8481 L992.2188,574.8481 L992.2188,576.7231 L986.9531,576.7231 L986.9531,579.9888 L991.9063,579.9888 L991.9063,581.8481 L986.9531,581.8481 L986.9531,585.645 L992.2188,585.645 L992.2188,587.52 Z " fill="#000000"/><text fill="#000000" font-family="sans-serif" font-size="14" lengthAdjust="spacing" textLength="77" x="1005.25" y="586.452">Buffer_type</text><line style="stroke:#181818;stroke-width:0.5;" x1="963.5" x2="1095.5" y1="597.02" y2="597.02"/><text fill="#000000" font-family="sans-serif" font-size="14" lengthAdjust="spacing" textLength="105" x="968.5" y="615.9859">VERTEX_BUFFER</text><text fill="#000000" font-family="sans-serif" font-size="14" lengthAdjust="spacing" textLength="98" x="968.5" y="635.0539">INDEX_BUFFER</text><text fill="#000000" font-family="sans-serif" font-size="14" lengthAdjust="spacing" textLength="122" x="968.5" y="654.1218">UNIFORM_BUFFER</text><text fill="#000000" font-family="sans-serif" font-size="14" lengthAdjust="spacing" textLength="119" x="968.5" y="673.1897">STORAGE_BUFFER</text><line style="stroke:#181818;stroke-width:0.5;" x1="963.5" x2="1095.5" y1="681.2917" y2="681.2917"/></g><!--class Buffer_usage--><g id="elem_Buffer_usage"><rect codeLine="23" fill="#F1F1F1" height="105.2038" id="Buffer_usage" rx="2.5" ry="2.5" style="stroke:#181818;stroke-width:0.5;" width="124" x="1131.5" y="574.55"/><ellipse cx="1147.85" cy="590.55" fill="#EB937F" rx="11" ry="11" style="stroke:#181818;stroke-width:1.0;"/><path d="M1151.3188,597.05 L1144.0063,597.05 L1144.0063,584.3781 L1151.3188,584.3781 L1151.3188,586.2531 L1146.0531,586.2531 L1146.0531,589.5188 L1151.0063,589.5188 L1151.0063,591.3781 L1146.0531,591.3781 L1146.0531,595.175 L1151.3188,595.175 L1151.3188,597.05 Z " fill="#000000"/><text fill="#000000" font-family="sans-serif" font-size="14" lengthAdjust="spacing" textLength="89" x="1162.15" y="595.982">Buffer_usage</text><line style="stroke:#181818;stroke-width:0.5;" x1="1132.5" x2="1254.5" y1="606.55" y2="606.55"/><text fill="#000000" font-family="sans-serif" font-size="14" lengthAdjust="spacing" textLength="94" x="1137.5" y="625.5159">STATIC_DRAW</text><text fill="#000000" font-family="sans-serif" font-size="14" lengthAdjust="spacing" textLength="112" x="1137.5" y="644.5839">DYNAMIC_DRAW</text><text fill="#000000" font-family="sans-serif" font-size="14" lengthAdjust="spacing" textLength="102" x="1137.5" y="663.6518">STREAM_DRAW</text><line style="stroke:#181818;stroke-width:0.5;" x1="1132.5" x2="1254.5" y1="671.7538" y2="671.7538"/></g><!--class RHI_buffer_access_flags--><g id="elem_RHI_buffer_access_flags"><rect codeLine="29" fill="#F1F1F1" height="105.2038" id="RHI_buffer_access_flags" rx="2.5" ry="2.5" style="stroke:#181818;stroke-width:0.5;" width="274" x="320.5" y="574.55"/><ellipse cx="372.75" cy="590.55" fill="#ADD1B2" rx="11" ry="11" style="stroke:#181818;stroke-width:1.0;"/><path d="M372.8594,586.0813 Q371.9375,586.0813 371.2031,586.3938 Q370.4844,586.7063 369.9844,587.3 Q369.4844,587.8781 369.2031,588.7531 Q368.9375,589.6281 368.9375,590.7219 Q368.9375,592.1594 369.375,593.2063 Q369.8281,594.2531 370.6719,594.8 Q371.5313,595.3469 372.8438,595.3469 Q373.625,595.3469 374.3125,595.2219 Q375.0156,595.0813 376.0156,594.7688 L376.0156,596.6438 Q375.1563,596.9719 374.3906,597.0969 Q373.6406,597.2219 372.625,597.2219 Q370.7031,597.2219 369.3906,596.425 Q368.0938,595.6125 367.4375,594.1438 Q366.7813,592.6594 366.7813,590.6906 Q366.7813,589.2688 367.1719,588.0969 Q367.5781,586.9094 368.3594,586.0344 Q369.1406,585.1594 370.2813,584.6906 Q371.4219,584.2063 372.8906,584.2063 Q373.8438,584.2063 374.7344,584.4094 Q375.6406,584.5969 376.5781,585.0656 L375.75,586.8469 Q374.9688,586.4719 374.3125,586.2844 Q373.6563,586.0813 372.8594,586.0813 Z " fill="#000000"/><text fill="#000000" font-family="sans-serif" font-size="14" lengthAdjust="spacing" textLength="161" x="393.25" y="595.982">RHI_buffer_access_flags</text><line style="stroke:#181818;stroke-width:0.5;" x1="321.5" x2="593.5" y1="606.55" y2="606.55"/><line style="stroke:#181818;stroke-width:0.5;" x1="321.5" x2="593.5" y1="614.55" y2="614.55"/><ellipse cx="331.5" cy="629.584" fill="#84BE84" rx="3" ry="3" style="stroke:#038048;stroke-width:1.0;"/><text fill="#000000" font-family="sans-serif" font-size="14" lengthAdjust="spacing" text-decoration="underline" textLength="242" x="340.5" y="633.5159">read_only(): RHI_buffer_access_flags</text><ellipse cx="331.5" cy="648.6519" fill="#84BE84" rx="3" ry="3" style="stroke:#038048;stroke-width:1.0;"/><text fill="#000000" font-family="sans-serif" font-size="14" lengthAdjust="spacing" text-decoration="underline" textLength="245" x="340.5" y="652.5839">write_only(): RHI_buffer_access_flags</text><ellipse cx="331.5" cy="667.7198" fill="#84BE84" rx="3" ry="3" style="stroke:#038048;stroke-width:1.0;"/><text fill="#000000" font-family="sans-serif" font-size="14" lengthAdjust="spacing" text-decoration="underline" textLength="248" x="340.5" y="671.6518">read_write(): RHI_buffer_access_flags</text></g><!--class IRHI_vertex_buffer--><g id="elem_IRHI_vertex_buffer"><rect codeLine="42" fill="#F1F1F1" height="105.2038" id="IRHI_vertex_buffer" rx="2.5" ry="2.5" style="stroke:#181818;stroke-width:0.5;" width="298" x="629.5" y="574.55"/><ellipse cx="716.25" cy="590.55" fill="#B4A7E5" rx="11" ry="11" style="stroke:#181818;stroke-width:1.0;"/><path d="M718.3438,597.05 L713.4375,597.05 L713.4375,595.675 L714.8594,595.3625 L714.8594,586.0813 L713.4375,585.7375 L713.4375,584.3781 L718.3438,584.3781 L718.3438,585.7375 L716.9219,586.0813 L716.9219,595.3625 L718.3438,595.675 L718.3438,597.05 Z " fill="#000000"/><text fill="#000000" font-family="sans-serif" font-size="14" font-style="italic" lengthAdjust="spacing" textLength="116" x="736.75" y="595.982">IRHI_vertex_buffer</text><line style="stroke:#181818;stroke-width:0.5;" x1="630.5" x2="926.5" y1="606.55" y2="606.55"/><line style="stroke:#181818;stroke-width:0.5;" x1="630.5" x2="926.5" y1="614.55" y2="614.55"/><ellipse cx="640.5" cy="629.584" fill="#84BE84" rx="3" ry="3" style="stroke:#038048;stroke-width:1.0;"/><text fill="#000000" font-family="sans-serif" font-size="14" lengthAdjust="spacing" textLength="120" x="649.5" y="633.5159">get_stride(): size_t</text><ellipse cx="640.5" cy="648.6519" fill="#84BE84" rx="3" ry="3" style="stroke:#038048;stroke-width:1.0;"/><text fill="#000000" font-family="sans-serif" font-size="14" lengthAdjust="spacing" textLength="166" x="649.5" y="652.5839">get_vertex_count(): size_t</text><ellipse cx="640.5" cy="667.7198" fill="#84BE84" rx="3" ry="3" style="stroke:#038048;stroke-width:1.0;"/><text fill="#000000" font-family="sans-serif" font-size="14" lengthAdjust="spacing" textLength="272" x="649.5" y="671.6518">get_element_type(): Vertex_element_type</text></g><!--class IRHI_element_buffer--><g id="elem_IRHI_element_buffer"><rect codeLine="48" fill="#F1F1F1" height="86.1358" id="IRHI_element_buffer" rx="2.5" ry="2.5" style="stroke:#181818;stroke-width:0.5;" width="265" x="20" y="584.09"/><ellipse cx="84.75" cy="600.09" fill="#B4A7E5" rx="11" ry="11" style="stroke:#181818;stroke-width:1.0;"/><path d="M86.8438,606.59 L81.9375,606.59 L81.9375,605.215 L83.3594,604.9025 L83.3594,595.6212 L81.9375,595.2775 L81.9375,593.9181 L86.8438,593.9181 L86.8438,595.2775 L85.4219,595.6212 L85.4219,604.9025 L86.8438,605.215 L86.8438,606.59 Z " fill="#000000"/><text fill="#000000" font-family="sans-serif" font-size="14" font-style="italic" lengthAdjust="spacing" textLength="127" x="105.25" y="605.522">IRHI_element_buffer</text><line style="stroke:#181818;stroke-width:0.5;" x1="21" x2="284" y1="616.09" y2="616.09"/><line style="stroke:#181818;stroke-width:0.5;" x1="21" x2="284" y1="624.09" y2="624.09"/><ellipse cx="31" cy="639.124" fill="#84BE84" rx="3" ry="3" style="stroke:#038048;stroke-width:1.0;"/><text fill="#000000" font-family="sans-serif" font-size="14" lengthAdjust="spacing" textLength="239" x="40" y="643.0559">get_index_type(): Index_type = UINT</text><ellipse cx="31" cy="658.1919" fill="#84BE84" rx="3" ry="3" style="stroke:#038048;stroke-width:1.0;"/><text fill="#000000" font-family="sans-serif" font-size="14" lengthAdjust="spacing" textLength="162" x="40" y="662.1239">get_index_count(): size_t</text></g><!--class IRHI_memory_buffer--><g id="elem_IRHI_memory_buffer"><rect codeLine="53" fill="#F1F1F1" height="86.1358" id="IRHI_memory_buffer" rx="2.5" ry="2.5" style="stroke:#181818;stroke-width:0.5;" width="288" x="1290.5" y="584.09"/><ellipse cx="1365.75" cy="600.09" fill="#B4A7E5" rx="11" ry="11" style="stroke:#181818;stroke-width:1.0;"/><path d="M1367.8438,606.59 L1362.9375,606.59 L1362.9375,605.215 L1364.3594,604.9025 L1364.3594,595.6212 L1362.9375,595.2775 L1362.9375,593.9181 L1367.8438,593.9181 L1367.8438,595.2775 L1366.4219,595.6212 L1366.4219,604.9025 L1367.8438,605.215 L1367.8438,606.59 Z " fill="#000000"/><text fill="#000000" font-family="sans-serif" font-size="14" font-style="italic" lengthAdjust="spacing" textLength="129" x="1386.25" y="605.522">IRHI_memory_buffer</text><line style="stroke:#181818;stroke-width:0.5;" x1="1291.5" x2="1577.5" y1="616.09" y2="616.09"/><line style="stroke:#181818;stroke-width:0.5;" x1="1291.5" x2="1577.5" y1="624.09" y2="624.09"/><ellipse cx="1301.5" cy="639.124" fill="#84BE84" rx="3" ry="3" style="stroke:#038048;stroke-width:1.0;"/><text fill="#000000" font-family="sans-serif" font-size="14" lengthAdjust="spacing" textLength="262" x="1310.5" y="643.0559">bind_memory(offset: size_t, size: size_t)</text><ellipse cx="1301.5" cy="658.1919" fill="#84BE84" rx="3" ry="3" style="stroke:#038048;stroke-width:1.0;"/><text fill="#000000" font-family="sans-serif" font-size="14" lengthAdjust="spacing" textLength="150" x="1310.5" y="662.1239">get_alignment(): size_t</text></g><!--class RHI_memory_buffer_binder--><g id="elem_RHI_memory_buffer_binder"><rect codeLine="65" fill="#F1F1F1" height="86.1358" id="RHI_memory_buffer_binder" rx="2.5" ry="2.5" style="stroke:#181818;stroke-width:0.5;" width="363" x="1253" y="334.21"/><ellipse cx="1344.75" cy="350.21" fill="#A9DCDF" rx="11" ry="11" style="stroke:#181818;stroke-width:1.0;"/><path d="M1348.0938,355.46 L1346.625,351.71 L1342.1875,351.71 L1340.75,355.46 L1338.625,355.46 L1343.5781,342.7413 L1345.3281,342.7413 L1350.25,355.46 L1348.0938,355.46 Z M1344.75,346.5069 Q1344.7031,346.3506 1344.5781,345.9913 Q1344.4531,345.6319 1344.3438,345.2569 Q1344.2344,344.8663 1344.4375,344.8038 Q1344.5938,344.9913 1344.5,345.3506 Q1344.4063,345.6944 1344.3125,345.9913 Q1344.2188,346.2725 1344.1406,346.5069 L1342.9063,349.8194 L1345.9844,349.8194 L1344.75,346.5069 Z " fill="#000000"/><text fill="#000000" font-family="sans-serif" font-size="14" font-style="italic" lengthAdjust="spacing" textLength="171" x="1365.25" y="355.642">RHI_memory_buffer_binder</text><line style="stroke:#181818;stroke-width:0.5;" x1="1254" x2="1615" y1="366.21" y2="366.21"/><line style="stroke:#181818;stroke-width:0.5;" x1="1254" x2="1615" y1="374.21" y2="374.21"/><ellipse cx="1264" cy="389.244" fill="#84BE84" rx="3" ry="3" style="stroke:#038048;stroke-width:1.0;"/><text fill="#000000" font-family="sans-serif" font-size="14" font-style="italic" lengthAdjust="spacing" textLength="236" x="1273" y="393.1759">bind_full(buffer: IRHI_memory_buffer)</text><ellipse cx="1264" cy="408.3119" fill="#84BE84" rx="3" ry="3" style="stroke:#038048;stroke-width:1.0;"/><text fill="#000000" font-family="sans-serif" font-size="14" font-style="italic" lengthAdjust="spacing" textLength="337" x="1273" y="412.2439">bind_range(buffer: IRHI_memory_buffer, offset: size_t)</text></g><!--class RHI_geometry--><g id="elem_RHI_geometry"><rect codeLine="75" fill="#F1F1F1" height="200.5433" id="RHI_geometry" rx="2.5" ry="2.5" style="stroke:#181818;stroke-width:0.5;" width="453" x="7" y="7"/><ellipse cx="184.75" cy="23" fill="#A9DCDF" rx="11" ry="11" style="stroke:#181818;stroke-width:1.0;"/><path d="M188.0938,28.25 L186.625,24.5 L182.1875,24.5 L180.75,28.25 L178.625,28.25 L183.5781,15.5313 L185.3281,15.5313 L190.25,28.25 L188.0938,28.25 Z M184.75,19.2969 Q184.7031,19.1406 184.5781,18.7813 Q184.4531,18.4219 184.3438,18.0469 Q184.2344,17.6563 184.4375,17.5938 Q184.5938,17.7813 184.5,18.1406 Q184.4063,18.4844 184.3125,18.7813 Q184.2188,19.0625 184.1406,19.2969 L182.9063,22.6094 L185.9844,22.6094 L184.75,19.2969 Z " fill="#000000"/><text fill="#000000" font-family="sans-serif" font-size="14" font-style="italic" lengthAdjust="spacing" textLength="89" x="205.25" y="28.432">RHI_geometry</text><line style="stroke:#181818;stroke-width:0.5;" x1="8" x2="459" y1="39" y2="39"/><rect fill="none" height="6" style="stroke:#C82930;stroke-width:1.0;" width="6" x="15" y="51.034"/><text fill="#000000" font-family="sans-serif" font-size="14" lengthAdjust="spacing" textLength="356" x="27" y="57.9659">m_vertex_buffers: map&lt;int, shared_ptr&lt;RHI_buffer&gt;&gt;</text><rect fill="none" height="6" style="stroke:#C82930;stroke-width:1.0;" width="6" x="15" y="70.1019"/><text fill="#000000" font-family="sans-serif" font-size="14" lengthAdjust="spacing" textLength="291" x="27" y="77.0339">m_element_buffer: shared_ptr&lt;RHI_buffer&gt;</text><line style="stroke:#181818;stroke-width:0.5;" x1="8" x2="459" y1="85.1358" y2="85.1358"/><ellipse cx="18" cy="100.1698" fill="#84BE84" rx="3" ry="3" style="stroke:#038048;stroke-width:1.0;"/><text fill="#000000" font-family="sans-serif" font-size="14" font-style="italic" lengthAdjust="spacing" textLength="85" x="27" y="104.1018">bind_buffers()</text><ellipse cx="18" cy="119.2377" fill="#84BE84" rx="3" ry="3" style="stroke:#038048;stroke-width:1.0;"/><text fill="#000000" font-family="sans-serif" font-size="14" font-style="italic" lengthAdjust="spacing" textLength="319" x="27" y="123.1697">bind_vertex_buffer(location: int, buffer: RHI_buffer)</text><ellipse cx="18" cy="138.3056" fill="#84BE84" rx="3" ry="3" style="stroke:#038048;stroke-width:1.0;"/><text fill="#000000" font-family="sans-serif" font-size="14" font-style="italic" lengthAdjust="spacing" textLength="180" x="27" y="142.2376">draw(vertex_count: uint32_t)</text><ellipse cx="18" cy="157.3735" fill="#84BE84" rx="3" ry="3" style="stroke:#038048;stroke-width:1.0;"/><text fill="#000000" font-family="sans-serif" font-size="14" font-style="italic" lengthAdjust="spacing" textLength="259" x="27" y="161.3055">draw_instanced(instance_count: uint32_t)</text><ellipse cx="18" cy="176.4415" fill="#84BE84" rx="3" ry="3" style="stroke:#038048;stroke-width:1.0;"/><text fill="#000000" font-family="sans-serif" font-size="14" lengthAdjust="spacing" textLength="427" x="27" y="180.3734">add_vertex_buffer(location: int, buffer: shared_ptr&lt;RHI_buffer&gt;)</text><ellipse cx="18" cy="195.5094" fill="#84BE84" rx="3" ry="3" style="stroke:#038048;stroke-width:1.0;"/><text fill="#000000" font-family="sans-serif" font-size="14" lengthAdjust="spacing" textLength="348" x="27" y="199.4414">set_element_buffer(buffer: shared_ptr&lt;RHI_buffer&gt;)</text></g><!--link RHI_buffer to Buffer_type--><g id="link_RHI_buffer_Buffer_type"><path codeLine="35" d="M869.83,468.47 C902.21,500.45 933.6006,531.4543 962.9906,560.4743 " fill="none" id="RHI_buffer-to-Buffer_type" style="stroke:#181818;stroke-width:1.0;"/><polygon fill="#181818" points="967.26,564.69,963.6663,555.5202,963.7021,561.1769,958.0454,561.2128,967.26,564.69" style="stroke:#181818;stroke-width:1.0;"/></g><!--link RHI_buffer to Buffer_usage--><g id="link_RHI_buffer_Buffer_usage"><path codeLine="36" d="M949.58,467.45 C1003.04,496.94 1061.58,530.96 1113.5,565.02 C1119.35,568.85 1120.4421,569.4863 1126.3621,573.7263 " fill="none" id="RHI_buffer-to-Buffer_usage" style="stroke:#181818;stroke-width:1.0;"/><polygon fill="#181818" points="1131.24,577.22,1126.2522,568.7275,1127.175,574.3086,1121.594,575.2315,1131.24,577.22" style="stroke:#181818;stroke-width:1.0;"/></g><!--link RHI_buffer to RHI_buffer_access_flags--><g id="link_RHI_buffer_RHI_buffer_access_flags"><path codeLine="37" d="M661.7,468.47 C615.63,504.04 569.1089,539.9729 529.4689,570.5829 " fill="none" id="RHI_buffer-to-RHI_buffer_access_flags" style="stroke:#181818;stroke-width:1.0;"/><polygon fill="#181818" points="524.72,574.25,534.2881,571.9153,528.6774,571.1941,529.3986,565.5834,524.72,574.25" style="stroke:#181818;stroke-width:1.0;"/><text fill="#000000" font-family="sans-serif" font-size="13" lengthAdjust="spacing" textLength="39" x="638.5" y="512.917">&#26144;&#23556;&#26102;</text><text fill="#000000" font-family="sans-serif" font-size="13" lengthAdjust="spacing" textLength="78" x="619" y="530.623">&#25351;&#23450;&#35775;&#38382;&#26435;&#38480;</text></g><!--reverse link RHI_buffer to IRHI_vertex_buffer--><g id="link_RHI_buffer_IRHI_vertex_buffer"><path codeLine="58" d="M778.5,486.47 C778.5,522.04 778.5,543.64 778.5,574.25 " fill="none" id="RHI_buffer-backto-IRHI_vertex_buffer" style="stroke:#181818;stroke-width:1.0;"/><polygon fill="none" points="778.5,468.47,772.5,486.47,784.5,486.47,778.5,468.47" style="stroke:#181818;stroke-width:1.0;"/></g><!--reverse link RHI_buffer to IRHI_element_buffer--><g id="link_RHI_buffer_IRHI_element_buffer"><path codeLine="59" d="M590.5025,451.3762 C499.8025,486.7862 403.37,524.68 302.5,565.02 C287.49,571.02 271.65,577.41 256.12,583.72 " fill="none" id="RHI_buffer-backto-IRHI_element_buffer" style="stroke:#181818;stroke-width:1.0;"/><polygon fill="none" points="607.27,444.83,588.3205,445.787,592.6846,456.9653,607.27,444.83" style="stroke:#181818;stroke-width:1.0;"/></g><!--reverse link RHI_buffer to IRHI_memory_buffer--><g id="link_RHI_buffer_IRHI_memory_buffer"><path codeLine="60" d="M966.8378,449.4431 C1084.3278,493.8431 1219.98,545.1 1322.22,583.73 " fill="none" id="RHI_buffer-backto-IRHI_memory_buffer" style="stroke:#181818;stroke-width:1.0;"/><polygon fill="none" points="950,443.08,964.7168,455.0557,968.9588,443.8305,950,443.08" style="stroke:#181818;stroke-width:1.0;"/></g><!--link RHI_memory_buffer_binder to IRHI_memory_buffer--><g id="link_RHI_memory_buffer_binder_IRHI_memory_buffer"><path codeLine="70" d="M1434.5,420.61 C1434.5,466.24 1434.5,532.44 1434.5,578 " fill="none" id="RHI_memory_buffer_binder-to-IRHI_memory_buffer" style="stroke:#181818;stroke-width:1.0;"/><polygon fill="#181818" points="1434.5,584,1438.5,575,1434.5,579,1430.5,575,1434.5,584" style="stroke:#181818;stroke-width:1.0;"/><text fill="#000000" font-family="sans-serif" font-size="13" lengthAdjust="spacing" textLength="26" x="1435.5" y="521.917">&#25805;&#20316;</text></g><!--reverse link RHI_geometry to RHI_buffer--><g id="link_RHI_geometry_RHI_buffer"><path codeLine="86" d="M446.8188,213.1745 C503.1388,240.8645 552.96,265.37 607.29,292.09 " fill="none" id="RHI_geometry-backto-RHI_buffer" style="stroke:#181818;stroke-width:1.0;"/><polygon fill="#181818" points="436.05,207.88,439.6696,214.1169,446.8188,213.1745,443.1993,206.9377,436.05,207.88" style="stroke:#181818;stroke-width:1.0;"/><text fill="#000000" font-family="sans-serif" font-size="13" lengthAdjust="spacing" textLength="52" x="523.34" y="252.437">&#39030;&#28857;&#32531;&#20914;</text><text fill="#000000" font-family="sans-serif" font-size="13" lengthAdjust="spacing" textLength="7" x="443.0457" y="229.4735">1</text><text fill="#000000" font-family="sans-serif" font-size="13" lengthAdjust="spacing" textLength="20" x="579.6452" y="285.0495">0..*</text></g><!--reverse link RHI_geometry to IRHI_element_buffer--><g id="link_RHI_geometry_IRHI_element_buffer"><path codeLine="87" d="M216.076,219.6759 C198.296,333.3759 171.86,502.34 159.12,583.86 " fill="none" id="RHI_geometry-backto-IRHI_element_buffer" style="stroke:#181818;stroke-width:1.0;"/><polygon fill="#181818" points="217.93,207.82,213.051,213.13,216.076,219.6759,220.955,214.366,217.93,207.82" style="stroke:#181818;stroke-width:1.0;"/><text fill="#000000" font-family="sans-serif" font-size="13" lengthAdjust="spacing" textLength="52" x="205.99" y="382.677">&#32034;&#24341;&#32531;&#20914;</text><text fill="#000000" font-family="sans-serif" font-size="13" lengthAdjust="spacing" textLength="7" x="209.5891" y="229.4093">1</text><text fill="#000000" font-family="sans-serif" font-size="13" lengthAdjust="spacing" textLength="20" x="138.5602" y="572.2365">0..1</text></g><!--SRC=[dLPRJzH057xlhvZi2rraYPUt1aWMMRGFB4bPK1EJPhQTharw8UqKN90NGNpncjK0nWjgJ7oH64E81fG_OxloBvpUTgVTAOXzs7JEETyvNyzjTWYC5ppS492kYtBJqpJaW63tkt-ytZti16ytYAOG19ikTg22WM90rwKzh7A0F1V0Qcgo1Xm43SDM84Qo2Z7aNNq52I3ybN5vqDproAkElTJSrZGNuHGm0aAX09PiNHrce4suc53XeQ8WrnKeTd8iaZK3jjnoucJGXsTHNj8OBOJba09VJgbG2jnUZ1IJSPZmI6az5xPeTNJcrZWEMPv9OvBiBTIaHkscF3a_FLsJ8ebOdyeAvklYzAmqGulc6hDIzLej5UNSHp4J_tEDQaEyAaz9rHlHUUfMlJf32-OQKgqw4v-9dtoHCsdiLzp54EjAL6zLjYsZ7Nvo0IgFMNPqKkzpWg904V8q4Fa0gZyhbObCbTYgk48vNL42111ix_fVDuAjWzjMyEYXl_VgpzxnoTPUy6RzPESPTzeW3O5W_rVtnRlkKSVV_1Oy-UG__NYQlMvXv6XGGK0CwImX1wEx-TcBMXKxkifkrWIas9w5cGR8G2Qo-bsz40DeSPZL79TKpI2ZMoh1f-x4tWcCWtcntXYmp5CR36OYqtRQ-LXD0azK0sk3jNN2YD3GMrP8F1kFgltOlKg5aMwsIJOBR9iC-JFQmzzyu7_PxXu-9rtbxtm-vrBEH9B3zB1NT9GupJCCFZOL64JB1J07McIx5UD6GBOKvJIzJ7BXe34gJ6Qiy_ZtpzTdP2i4jf1j8koqmNzTOprqdAKACBDL9_S9kHp6I3kIbhe37QJAYzWPwzTvOg87pFQ2K61VaDOa75-KzWmhFhfVTTiIGCGiZTWFmt2ZEd2PfvU103o2ldAPUIs7rcGyoUwr5AJowLiH4gh_I96TbDIDIwsZnCzPmAIxUeKiNIg1OJ9wfOkZeyCb-h-A04xU7tJl_uYNRp6AlB8sd02w-n_yevS9dEF-0W00]--></g></svg>