<?xml version="1.0" encoding="us-ascii" standalone="no"?><svg xmlns="http://www.w3.org/2000/svg" xmlns:xlink="http://www.w3.org/1999/xlink" contentStyleType="text/css" height="394px" preserveAspectRatio="none" style="width:1230px;height:394px;background:#FFFFFF;" version="1.1" viewBox="0 0 1230 394" width="1230px" zoomAndPan="magnify"><defs/><g><!--class Material--><g id="elem_Material"><rect codeLine="4" fill="#F1F1F1" height="295.8829" id="Material" rx="2.5" ry="2.5" style="stroke:#181818;stroke-width:0.5;" width="491" x="220" y="49.06"/><ellipse cx="434.25" cy="65.06" fill="#A9DCDF" rx="11" ry="11" style="stroke:#181818;stroke-width:1.0;"/><path d="M437.5938,70.31 L436.125,66.56 L431.6875,66.56 L430.25,70.31 L428.125,70.31 L433.0781,57.5913 L434.8281,57.5913 L439.75,70.31 L437.5938,70.31 Z M434.25,61.3569 Q434.2031,61.2006 434.0781,60.8413 Q433.9531,60.4819 433.8438,60.1069 Q433.7344,59.7163 433.9375,59.6538 Q434.0938,59.8413 434,60.2006 Q433.9063,60.5444 433.8125,60.8413 Q433.7188,61.1225 433.6406,61.3569 L432.4063,64.6694 L435.4844,64.6694 L434.25,61.3569 Z " fill="#000000"/><text fill="#000000" font-family="sans-serif" font-size="14" font-style="italic" lengthAdjust="spacing" textLength="54" x="454.75" y="70.492">Material</text><line style="stroke:#181818;stroke-width:0.5;" x1="221" x2="710" y1="81.06" y2="81.06"/><ellipse cx="231" cy="96.094" fill="#84BE84" rx="3" ry="3" style="stroke:#038048;stroke-width:1.0;"/><text fill="#000000" font-family="sans-serif" font-size="14" lengthAdjust="spacing" textLength="410" x="240" y="100.0259">Material(MaterialType type, std::shared_ptr&lt;Shader&gt; shader)</text><ellipse cx="231" cy="115.1619" fill="#84BE84" rx="3" ry="3" style="stroke:#038048;stroke-width:1.0;"/><text fill="#000000" font-family="sans-serif" font-size="14" lengthAdjust="spacing" textLength="119" x="240" y="119.0939">virtual ~Material()</text><text fill="#000000" font-family="sans-serif" font-size="14" lengthAdjust="spacing" textLength="4" x="240" y="138.1618">&#160;</text><ellipse cx="231" cy="176.3656" fill="#84BE84" rx="3" ry="3" style="stroke:#038048;stroke-width:1.0;"/><text fill="#000000" font-family="sans-serif" font-size="14" lengthAdjust="spacing" textLength="345" x="240" y="180.2976">virtual ShaderProgram get_shader_program() const</text><ellipse cx="231" cy="195.4335" fill="#84BE84" rx="3" ry="3" style="stroke:#038048;stroke-width:1.0;"/><text fill="#000000" font-family="sans-serif" font-size="14" lengthAdjust="spacing" textLength="375" x="240" y="199.3655">virtual ShaderFeatureSet get_shader_feature_set() const</text><ellipse cx="231" cy="214.5015" fill="#84BE84" rx="3" ry="3" style="stroke:#038048;stroke-width:1.0;"/><text fill="#000000" font-family="sans-serif" font-size="14" lengthAdjust="spacing" textLength="309" x="240" y="218.4334">virtual PipelineState get_pipeline_state() const</text><ellipse cx="231" cy="233.5694" fill="#84BE84" rx="3" ry="3" style="stroke:#038048;stroke-width:1.0;"/><text fill="#000000" font-family="sans-serif" font-size="14" lengthAdjust="spacing" textLength="421" x="240" y="237.5014">virtual std::map&lt;TextureSlot, Texture&gt; get_texture_map() const</text><ellipse cx="231" cy="252.6373" fill="#84BE84" rx="3" ry="3" style="stroke:#038048;stroke-width:1.0;"/><text fill="#000000" font-family="sans-serif" font-size="14" lengthAdjust="spacing" textLength="465" x="240" y="256.5693">virtual void modify_shader_uniform(ShaderProgram&amp; program) const</text><text fill="#000000" font-family="sans-serif" font-size="14" lengthAdjust="spacing" textLength="4" x="240" y="275.6372">&#160;</text><line style="stroke:#181818;stroke-width:1.0;" x1="221" x2="417.5" y1="155.7977" y2="155.7977"/><text fill="#000000" font-family="sans-serif" font-size="14" lengthAdjust="spacing" textLength="96" x="417.5" y="160.7297">Core Interface</text><line style="stroke:#181818;stroke-width:1.0;" x1="513.5" x2="710" y1="155.7977" y2="155.7977"/><rect fill="none" height="6" style="stroke:#C82930;stroke-width:1.0;" width="6" x="228" y="310.841"/><text fill="#000000" font-family="sans-serif" font-size="14" lengthAdjust="spacing" textLength="236" x="240" y="317.773">std::shared_ptr&lt;Shader&gt; m_shader</text><rect fill="none" height="6" style="stroke:#C82930;stroke-width:1.0;" width="6" x="228" y="329.909"/><text fill="#000000" font-family="sans-serif" font-size="14" lengthAdjust="spacing" textLength="373" x="240" y="336.8409">MaterialType m_material_type // Implied by constructor</text><line style="stroke:#181818;stroke-width:1.0;" x1="221" x2="432" y1="293.2731" y2="293.2731"/><text fill="#000000" font-family="sans-serif" font-size="14" lengthAdjust="spacing" textLength="67" x="432" y="298.2051">Attributes</text><line style="stroke:#181818;stroke-width:1.0;" x1="499" x2="710" y1="293.2731" y2="293.2731"/></g><!--class Shader--><g id="elem_Shader"><rect codeLine="20" fill="#F1F1F1" height="67.0679" id="Shader" rx="2.5" ry="2.5" style="stroke:#181818;stroke-width:0.5;" width="411" x="812" y="163.47"/><ellipse cx="989.25" cy="179.47" fill="#ADD1B2" rx="11" ry="11" style="stroke:#181818;stroke-width:1.0;"/><path d="M989.3594,175.0013 Q988.4375,175.0013 987.7031,175.3138 Q986.9844,175.6263 986.4844,176.22 Q985.9844,176.7981 985.7031,177.6731 Q985.4375,178.5481 985.4375,179.6419 Q985.4375,181.0794 985.875,182.1263 Q986.3281,183.1731 987.1719,183.72 Q988.0313,184.2669 989.3438,184.2669 Q990.125,184.2669 990.8125,184.1419 Q991.5156,184.0013 992.5156,183.6888 L992.5156,185.5638 Q991.6563,185.8919 990.8906,186.0169 Q990.1406,186.1419 989.125,186.1419 Q987.2031,186.1419 985.8906,185.345 Q984.5938,184.5325 983.9375,183.0638 Q983.2813,181.5794 983.2813,179.6106 Q983.2813,178.1888 983.6719,177.0169 Q984.0781,175.8294 984.8594,174.9544 Q985.6406,174.0794 986.7813,173.6106 Q987.9219,173.1263 989.3906,173.1263 Q990.3438,173.1263 991.2344,173.3294 Q992.1406,173.5169 993.0781,173.9856 L992.25,175.7669 Q991.4688,175.3919 990.8125,175.2044 Q990.1563,175.0013 989.3594,175.0013 Z " fill="#000000"/><text fill="#000000" font-family="sans-serif" font-size="14" lengthAdjust="spacing" textLength="48" x="1009.75" y="184.902">Shader</text><line style="stroke:#181818;stroke-width:0.5;" x1="813" x2="1222" y1="195.47" y2="195.47"/><line style="stroke:#181818;stroke-width:0.5;" x1="813" x2="1222" y1="203.47" y2="203.47"/><ellipse cx="823" cy="218.504" fill="#84BE84" rx="3" ry="3" style="stroke:#038048;stroke-width:1.0;"/><text fill="#000000" font-family="sans-serif" font-size="14" lengthAdjust="spacing" textLength="385" x="832" y="222.4359">ShaderProgram get_program(ShaderFeatureSet features)</text></g><!--class ShaderProgram--><g id="elem_ShaderProgram"><rect codeLine="25" fill="#F1F1F1" height="48" id="ShaderProgram" rx="2.5" ry="2.5" style="stroke:#181818;stroke-width:0.5;" width="138" x="14" y="7"/><ellipse cx="29" cy="23" fill="#ADD1B2" rx="11" ry="11" style="stroke:#181818;stroke-width:1.0;"/><path d="M29.1094,18.5313 Q28.1875,18.5313 27.4531,18.8438 Q26.7344,19.1563 26.2344,19.75 Q25.7344,20.3281 25.4531,21.2031 Q25.1875,22.0781 25.1875,23.1719 Q25.1875,24.6094 25.625,25.6563 Q26.0781,26.7031 26.9219,27.25 Q27.7813,27.7969 29.0938,27.7969 Q29.875,27.7969 30.5625,27.6719 Q31.2656,27.5313 32.2656,27.2188 L32.2656,29.0938 Q31.4063,29.4219 30.6406,29.5469 Q29.8906,29.6719 28.875,29.6719 Q26.9531,29.6719 25.6406,28.875 Q24.3438,28.0625 23.6875,26.5938 Q23.0313,25.1094 23.0313,23.1406 Q23.0313,21.7188 23.4219,20.5469 Q23.8281,19.3594 24.6094,18.4844 Q25.3906,17.6094 26.5313,17.1406 Q27.6719,16.6563 29.1406,16.6563 Q30.0938,16.6563 30.9844,16.8594 Q31.8906,17.0469 32.8281,17.5156 L32,19.2969 Q31.2188,18.9219 30.5625,18.7344 Q29.9063,18.5313 29.1094,18.5313 Z " fill="#000000"/><text fill="#000000" font-family="sans-serif" font-size="14" lengthAdjust="spacing" textLength="106" x="43" y="28.432">ShaderProgram</text><line style="stroke:#181818;stroke-width:0.5;" x1="15" x2="151" y1="39" y2="39"/><line style="stroke:#181818;stroke-width:0.5;" x1="15" x2="151" y1="47" y2="47"/></g><!--class ShaderFeatureSet--><g id="elem_ShaderFeatureSet"><rect codeLine="29" fill="#F1F1F1" height="48" id="ShaderFeatureSet" rx="2.5" ry="2.5" style="stroke:#181818;stroke-width:0.5;" width="152" x="7" y="90"/><ellipse cx="22" cy="106" fill="#ADD1B2" rx="11" ry="11" style="stroke:#181818;stroke-width:1.0;"/><path d="M22.1094,101.5313 Q21.1875,101.5313 20.4531,101.8438 Q19.7344,102.1563 19.2344,102.75 Q18.7344,103.3281 18.4531,104.2031 Q18.1875,105.0781 18.1875,106.1719 Q18.1875,107.6094 18.625,108.6563 Q19.0781,109.7031 19.9219,110.25 Q20.7813,110.7969 22.0938,110.7969 Q22.875,110.7969 23.5625,110.6719 Q24.2656,110.5313 25.2656,110.2188 L25.2656,112.0938 Q24.4063,112.4219 23.6406,112.5469 Q22.8906,112.6719 21.875,112.6719 Q19.9531,112.6719 18.6406,111.875 Q17.3438,111.0625 16.6875,109.5938 Q16.0313,108.1094 16.0313,106.1406 Q16.0313,104.7188 16.4219,103.5469 Q16.8281,102.3594 17.6094,101.4844 Q18.3906,100.6094 19.5313,100.1406 Q20.6719,99.6563 22.1406,99.6563 Q23.0938,99.6563 23.9844,99.8594 Q24.8906,100.0469 25.8281,100.5156 L25,102.2969 Q24.2188,101.9219 23.5625,101.7344 Q22.9063,101.5313 22.1094,101.5313 Z " fill="#000000"/><text fill="#000000" font-family="sans-serif" font-size="14" lengthAdjust="spacing" textLength="120" x="36" y="111.432">ShaderFeatureSet</text><line style="stroke:#181818;stroke-width:0.5;" x1="8" x2="158" y1="122" y2="122"/><line style="stroke:#181818;stroke-width:0.5;" x1="8" x2="158" y1="130" y2="130"/></g><!--class MaterialType--><g id="elem_MaterialType"><rect codeLine="33" fill="#F1F1F1" height="48" id="MaterialType" rx="2.5" ry="2.5" style="stroke:#181818;stroke-width:0.5;" width="120" x="23" y="173"/><ellipse cx="38" cy="189" fill="#ADD1B2" rx="11" ry="11" style="stroke:#181818;stroke-width:1.0;"/><path d="M38.1094,184.5313 Q37.1875,184.5313 36.4531,184.8438 Q35.7344,185.1563 35.2344,185.75 Q34.7344,186.3281 34.4531,187.2031 Q34.1875,188.0781 34.1875,189.1719 Q34.1875,190.6094 34.625,191.6563 Q35.0781,192.7031 35.9219,193.25 Q36.7813,193.7969 38.0938,193.7969 Q38.875,193.7969 39.5625,193.6719 Q40.2656,193.5313 41.2656,193.2188 L41.2656,195.0938 Q40.4063,195.4219 39.6406,195.5469 Q38.8906,195.6719 37.875,195.6719 Q35.9531,195.6719 34.6406,194.875 Q33.3438,194.0625 32.6875,192.5938 Q32.0313,191.1094 32.0313,189.1406 Q32.0313,187.7188 32.4219,186.5469 Q32.8281,185.3594 33.6094,184.4844 Q34.3906,183.6094 35.5313,183.1406 Q36.6719,182.6563 38.1406,182.6563 Q39.0938,182.6563 39.9844,182.8594 Q40.8906,183.0469 41.8281,183.5156 L41,185.2969 Q40.2188,184.9219 39.5625,184.7344 Q38.9063,184.5313 38.1094,184.5313 Z " fill="#000000"/><text fill="#000000" font-family="sans-serif" font-size="14" lengthAdjust="spacing" textLength="88" x="52" y="194.432">MaterialType</text><line style="stroke:#181818;stroke-width:0.5;" x1="24" x2="142" y1="205" y2="205"/><line style="stroke:#181818;stroke-width:0.5;" x1="24" x2="142" y1="213" y2="213"/></g><!--class PipelineState--><g id="elem_PipelineState"><rect codeLine="37" fill="#F1F1F1" height="48" id="PipelineState" rx="2.5" ry="2.5" style="stroke:#181818;stroke-width:0.5;" width="120" x="23" y="256"/><ellipse cx="38" cy="272" fill="#ADD1B2" rx="11" ry="11" style="stroke:#181818;stroke-width:1.0;"/><path d="M38.1094,267.5313 Q37.1875,267.5313 36.4531,267.8438 Q35.7344,268.1563 35.2344,268.75 Q34.7344,269.3281 34.4531,270.2031 Q34.1875,271.0781 34.1875,272.1719 Q34.1875,273.6094 34.625,274.6563 Q35.0781,275.7031 35.9219,276.25 Q36.7813,276.7969 38.0938,276.7969 Q38.875,276.7969 39.5625,276.6719 Q40.2656,276.5313 41.2656,276.2188 L41.2656,278.0938 Q40.4063,278.4219 39.6406,278.5469 Q38.8906,278.6719 37.875,278.6719 Q35.9531,278.6719 34.6406,277.875 Q33.3438,277.0625 32.6875,275.5938 Q32.0313,274.1094 32.0313,272.1406 Q32.0313,270.7188 32.4219,269.5469 Q32.8281,268.3594 33.6094,267.4844 Q34.3906,266.6094 35.5313,266.1406 Q36.6719,265.6563 38.1406,265.6563 Q39.0938,265.6563 39.9844,265.8594 Q40.8906,266.0469 41.8281,266.5156 L41,268.2969 Q40.2188,267.9219 39.5625,267.7344 Q38.9063,267.5313 38.1094,267.5313 Z " fill="#000000"/><text fill="#000000" font-family="sans-serif" font-size="14" lengthAdjust="spacing" textLength="88" x="52" y="277.432">PipelineState</text><line style="stroke:#181818;stroke-width:0.5;" x1="24" x2="142" y1="288" y2="288"/><line style="stroke:#181818;stroke-width:0.5;" x1="24" x2="142" y1="296" y2="296"/></g><!--class Texture--><g id="elem_Texture"><rect codeLine="42" fill="#F1F1F1" height="48" id="Texture" rx="2.5" ry="2.5" style="stroke:#181818;stroke-width:0.5;" width="83" x="41.5" y="339"/><ellipse cx="56.5" cy="355" fill="#ADD1B2" rx="11" ry="11" style="stroke:#181818;stroke-width:1.0;"/><path d="M56.6094,350.5313 Q55.6875,350.5313 54.9531,350.8438 Q54.2344,351.1563 53.7344,351.75 Q53.2344,352.3281 52.9531,353.2031 Q52.6875,354.0781 52.6875,355.1719 Q52.6875,356.6094 53.125,357.6563 Q53.5781,358.7031 54.4219,359.25 Q55.2813,359.7969 56.5938,359.7969 Q57.375,359.7969 58.0625,359.6719 Q58.7656,359.5313 59.7656,359.2188 L59.7656,361.0938 Q58.9063,361.4219 58.1406,361.5469 Q57.3906,361.6719 56.375,361.6719 Q54.4531,361.6719 53.1406,360.875 Q51.8438,360.0625 51.1875,358.5938 Q50.5313,357.1094 50.5313,355.1406 Q50.5313,353.7188 50.9219,352.5469 Q51.3281,351.3594 52.1094,350.4844 Q52.8906,349.6094 54.0313,349.1406 Q55.1719,348.6563 56.6406,348.6563 Q57.5938,348.6563 58.4844,348.8594 Q59.3906,349.0469 60.3281,349.5156 L59.5,351.2969 Q58.7188,350.9219 58.0625,350.7344 Q57.4063,350.5313 56.6094,350.5313 Z " fill="#000000"/><text fill="#000000" font-family="sans-serif" font-size="14" lengthAdjust="spacing" textLength="51" x="70.5" y="360.432">Texture</text><line style="stroke:#181818;stroke-width:0.5;" x1="42.5" x2="123.5" y1="371" y2="371"/><line style="stroke:#181818;stroke-width:0.5;" x1="42.5" x2="123.5" y1="379" y2="379"/></g><!--reverse link Material to Shader--><g id="link_Material_Shader"><path codeLine="46" d="M723.34,197 C756.88,197 779.03,197 811.75,197 " fill="none" id="Material-backto-Shader" style="stroke:#181818;stroke-width:1.0;"/><polygon fill="none" points="711.34,197,717.34,201,723.34,197,717.34,193,711.34,197" style="stroke:#181818;stroke-width:1.0;"/><polygon fill="#000000" points="751,187.853,741.9549,184.9141,741.9549,190.7919,751,187.853" style="stroke:#000000;stroke-width:1.0;"/><text fill="#000000" font-family="sans-serif" font-size="13" lengthAdjust="spacing" textLength="26" x="755" y="192.897">&#20851;&#32852;</text><text fill="#000000" font-family="sans-serif" font-size="13" lengthAdjust="spacing" textLength="7" x="718.7423" y="211.1598">1</text><text fill="#000000" font-family="sans-serif" font-size="13" lengthAdjust="spacing" textLength="7" x="797.2301" y="211.215">1</text></g><!--link MaterialType to Material--><g id="link_MaterialType_Material"><path codeLine="47" d="M143.45,197 C165.3,197 185.6,197 213.62,197 " fill="none" id="MaterialType-to-Material" style="stroke:#181818;stroke-width:1.0;stroke-dasharray:7.0,7.0;"/><polygon fill="#181818" points="219.62,197,210.62,193,214.62,197,210.62,201,219.62,197" style="stroke:#181818;stroke-width:1.0;"/></g><!--link ShaderFeatureSet to Material--><g id="link_ShaderFeatureSet_Material"><path codeLine="48" d="M159.17,130.4 C177.48,134.39 192.1876,137.6023 213.7976,142.3123 " fill="none" id="ShaderFeatureSet-to-Material" style="stroke:#181818;stroke-width:1.0;stroke-dasharray:7.0,7.0;"/><polygon fill="#181818" points="219.66,143.59,211.7183,137.7652,214.7747,142.5252,210.0146,145.5817,219.66,143.59" style="stroke:#181818;stroke-width:1.0;"/></g><!--link ShaderProgram to Material--><g id="link_ShaderProgram_Material"><path codeLine="49" d="M140.14,55.49 C162.68,65.32 184.8205,74.981 214.3705,87.871 " fill="none" id="ShaderProgram-to-Material" style="stroke:#181818;stroke-width:1.0;stroke-dasharray:7.0,7.0;"/><polygon fill="#181818" points="219.87,90.27,213.22,83.0052,215.287,88.2709,210.0214,90.3379,219.87,90.27" style="stroke:#181818;stroke-width:1.0;"/></g><!--link PipelineState to Material--><g id="link_PipelineState_Material"><path codeLine="50" d="M143.45,267.03 C165.3,262.27 185.7378,257.8083 213.7578,251.6983 " fill="none" id="PipelineState-to-Material" style="stroke:#181818;stroke-width:1.0;stroke-dasharray:7.0,7.0;"/><polygon fill="#181818" points="219.62,250.42,209.9744,248.4293,214.7348,251.4853,211.6788,256.2456,219.62,250.42" style="stroke:#181818;stroke-width:1.0;"/></g><!--link Texture to Material--><g id="link_Texture_Material"><path codeLine="51" d="M124.72,345.24 C149.36,334.49 177.5308,322.1997 214.1508,306.2197 " fill="none" id="Texture-to-Material" style="stroke:#181818;stroke-width:1.0;stroke-dasharray:7.0,7.0;"/><polygon fill="#181818" points="219.65,303.82,209.8014,303.7534,215.0673,305.8198,213.001,311.0857,219.65,303.82" style="stroke:#181818;stroke-width:1.0;"/></g><!--SRC=[TLJDRjim3BxhAOWUsWHh6kmQ107wWm8zT0YQtWt5fXC1jkLATDQWtO0TzWPxapvJWJt6Q4ioOdlsmRBuaHyfVfGpJ0b8Wr6xFK6Y3CQaT264t5eoCYQ8CsajF4f2esG6RmBu-T8Q9k7Z-LWY4BykmLAoMDYzD9X49PdbPYyJD2kmpJhr30Tbg6B6dotLL3JGR0QtsY0y56nFPOniwSKunhNHEoDps255ZZigdMaoXLWNbluRTe-IAeCRfDF8r5aZYpGIlLObPgh03N71JMZfBP6jJIDXJJToMIwVyRN9cscw1BzPDJpaDX5xZP0Sj4eWrubAZw7Wgb2fDlcaqujpy1q8DA6ZrqH6RIj26xev6zKfzocyMqVXd8jqswWM6-PpUCZBJ642swFBQQgOj14_X72pusZzvFXp3GKCoWqqyiBOQPynH7lY7dh2q7Ve7AWFTbL-4pNY8Q_PIKXxBSw-de7cDjUhF-y2Fdz__Ftr1rQYa_0gqT-BgrLRXHZKE-8HpZk0koKFu53s010Ny4tpHCplU7-GzSNdwO124-0hQnehoevWyAL2IoomjEvlm3F4amJAwSuiRHkMxzo3zLuNkpR90BrvQh5_]--></g></svg>