<?xml version="1.0" encoding="us-ascii" standalone="no"?><svg xmlns="http://www.w3.org/2000/svg" xmlns:xlink="http://www.w3.org/1999/xlink" contentStyleType="text/css" height="992px" preserveAspectRatio="none" style="width:1885px;height:992px;background:#FFFFFF;" version="1.1" viewBox="0 0 1885 992" width="1885px" zoomAndPan="magnify"><defs/><g><!--class Render_object--><g id="elem_Render_object"><rect codeLine="5" fill="#F1F1F1" height="48" id="Render_object" rx="2.5" ry="2.5" style="stroke:#181818;stroke-width:0.5;" width="120" x="618" y="10.016"/><ellipse cx="633" cy="26.016" fill="#A9DCDF" rx="11" ry="11" style="stroke:#181818;stroke-width:1.0;"/><path d="M636.3438,31.266 L634.875,27.516 L630.4375,27.516 L629,31.266 L626.875,31.266 L631.8281,18.5473 L633.5781,18.5473 L638.5,31.266 L636.3438,31.266 Z M633,22.3129 Q632.9531,22.1566 632.8281,21.7973 Q632.7031,21.4379 632.5938,21.0629 Q632.4844,20.6723 632.6875,20.6098 Q632.8438,20.7973 632.75,21.1566 Q632.6563,21.5004 632.5625,21.7973 Q632.4688,22.0785 632.3906,22.3129 L631.1563,25.6254 L634.2344,25.6254 L633,22.3129 Z " fill="#000000"/><text fill="#000000" font-family="sans-serif" font-size="14" font-style="italic" lengthAdjust="spacing" textLength="88" x="647" y="31.448">Render_object</text><line style="stroke:#181818;stroke-width:0.5;" x1="619" x2="737" y1="42.016" y2="42.016"/><line style="stroke:#181818;stroke-width:0.5;" x1="619" x2="737" y1="50.016" y2="50.016"/></g><!--class RHI_Linker_RHI_Texture--><g id="elem_RHI_Linker_RHI_Texture"><rect codeLine="7" fill="#F1F1F1" height="48" id="RHI_Linker_RHI_Texture" rx="2.5" ry="2.5" style="stroke:#181818;stroke-width:0.5;" width="166" x="773" y="10.016"/><ellipse cx="788" cy="26.016" fill="#ADD1B2" rx="11" ry="11" style="stroke:#181818;stroke-width:1.0;"/><path d="M788.1094,21.5473 Q787.1875,21.5473 786.4531,21.8598 Q785.7344,22.1723 785.2344,22.766 Q784.7344,23.3441 784.4531,24.2191 Q784.1875,25.0941 784.1875,26.1879 Q784.1875,27.6254 784.625,28.6723 Q785.0781,29.7191 785.9219,30.266 Q786.7813,30.8129 788.0938,30.8129 Q788.875,30.8129 789.5625,30.6879 Q790.2656,30.5473 791.2656,30.2348 L791.2656,32.1098 Q790.4063,32.4379 789.6406,32.5629 Q788.8906,32.6879 787.875,32.6879 Q785.9531,32.6879 784.6406,31.891 Q783.3438,31.0785 782.6875,29.6098 Q782.0313,28.1254 782.0313,26.1566 Q782.0313,24.7348 782.4219,23.5629 Q782.8281,22.3754 783.6094,21.5004 Q784.3906,20.6254 785.5313,20.1566 Q786.6719,19.6723 788.1406,19.6723 Q789.0938,19.6723 789.9844,19.8754 Q790.8906,20.0629 791.8281,20.5316 L791,22.3129 Q790.2188,21.9379 789.5625,21.7504 Q788.9063,21.5473 788.1094,21.5473 Z " fill="#000000"/><text fill="#000000" font-family="sans-serif" font-size="14" lengthAdjust="spacing" textLength="68" x="802" y="31.448">RHI_linker</text><rect fill="#FFFFFF" height="18.3441" style="stroke:#181818;stroke-width:1.0;stroke-dasharray:2.0,2.0;" width="64" x="878" y="7.016"/><text fill="#000000" font-family="sans-serif" font-size="12" font-style="italic" lengthAdjust="spacing" textLength="62" x="879" y="20.8441">RHI_texture</text><line style="stroke:#181818;stroke-width:0.5;" x1="774" x2="938" y1="42.016" y2="42.016"/><line style="stroke:#181818;stroke-width:0.5;" x1="774" x2="938" y1="50.016" y2="50.016"/></g><!--class Texture--><g id="elem_Texture"><rect codeLine="14" fill="#F1F1F1" height="280.815" id="Texture" rx="2.5" ry="2.5" style="stroke:#181818;stroke-width:0.5;" width="618" x="458" y="137.016"/><ellipse cx="739.25" cy="153.016" fill="#A9DCDF" rx="11" ry="11" style="stroke:#181818;stroke-width:1.0;"/><path d="M742.5938,158.266 L741.125,154.516 L736.6875,154.516 L735.25,158.266 L733.125,158.266 L738.0781,145.5473 L739.8281,145.5473 L744.75,158.266 L742.5938,158.266 Z M739.25,149.3129 Q739.2031,149.1566 739.0781,148.7973 Q738.9531,148.4379 738.8438,148.0629 Q738.7344,147.6723 738.9375,147.6098 Q739.0938,147.7973 739,148.1566 Q738.9063,148.5004 738.8125,148.7973 Q738.7188,149.0785 738.6406,149.3129 L737.4063,152.6254 L740.4844,152.6254 L739.25,149.3129 Z " fill="#000000"/><text fill="#000000" font-family="sans-serif" font-size="14" font-style="italic" lengthAdjust="spacing" textLength="47" x="759.75" y="158.448">Texture</text><line style="stroke:#181818;stroke-width:0.5;" x1="459" x2="1075" y1="169.016" y2="169.016"/><polygon fill="none" points="469,202.1179,473,206.1179,469,210.1179,465,206.1179" style="stroke:#B38D22;stroke-width:1.0;"/><text fill="#000000" font-family="sans-serif" font-size="14" lengthAdjust="spacing" textLength="135" x="478" y="211.0499">TextureType m_type</text><polygon fill="none" points="469,221.1858,473,225.1858,469,229.1858,465,225.1858" style="stroke:#B38D22;stroke-width:1.0;"/><text fill="#000000" font-family="sans-serif" font-size="14" lengthAdjust="spacing" textLength="141" x="478" y="230.1178">int m_mipmap_levels</text><polygon fill="none" points="469,240.2537,473,244.2537,469,248.2537,465,244.2537" style="stroke:#B38D22;stroke-width:1.0;"/><text fill="#000000" font-family="sans-serif" font-size="14" lengthAdjust="spacing" textLength="288" x="478" y="249.1857">Texture_internal_format m_internal_format</text><polygon fill="none" points="469,259.3217,473,263.3217,469,267.3217,465,263.3217" style="stroke:#B38D22;stroke-width:1.0;"/><text fill="#000000" font-family="sans-serif" font-size="14" lengthAdjust="spacing" textLength="189" x="478" y="268.2536">TextureWrapMode m_wraps</text><polygon fill="none" points="469,278.3896,473,282.3896,469,286.3896,465,282.3896" style="stroke:#B38D22;stroke-width:1.0;"/><text fill="#000000" font-family="sans-serif" font-size="14" lengthAdjust="spacing" textLength="185" x="478" y="287.3215">TextureFilterMode m_filters</text><text fill="#000000" font-family="sans-serif" font-size="14" lengthAdjust="spacing" textLength="4" x="478" y="306.3895">&#160;</text><line style="stroke:#181818;stroke-width:1.0;" x1="459" x2="733.5" y1="186.55" y2="186.55"/><text fill="#000000" font-family="sans-serif" font-size="14" lengthAdjust="spacing" textLength="67" x="733.5" y="191.482">Attributes</text><line style="stroke:#181818;stroke-width:1.0;" x1="800.5" x2="1075" y1="186.55" y2="186.55"/><ellipse cx="469" cy="344.5933" fill="#84BE84" rx="3" ry="3" style="stroke:#038048;stroke-width:1.0;"/><text fill="#000000" font-family="sans-serif" font-size="14" lengthAdjust="spacing" textLength="114" x="478" y="348.5253">virtual ~Texture()</text><text fill="#000000" font-family="sans-serif" font-size="14" lengthAdjust="spacing" textLength="4" x="478" y="367.5932">&#160;</text><line style="stroke:#181818;stroke-width:1.0;" x1="459" x2="683" y1="324.0254" y2="324.0254"/><text fill="#000000" font-family="sans-serif" font-size="14" lengthAdjust="spacing" textLength="168" x="683" y="328.9574">Constructor &amp; Destructor</text><line style="stroke:#181818;stroke-width:1.0;" x1="851" x2="1075" y1="324.0254" y2="324.0254"/><ellipse cx="469" cy="405.7971" fill="#84BE84" rx="3" ry="3" style="stroke:#038048;stroke-width:1.0;"/><text fill="#000000" font-family="sans-serif" font-size="14" lengthAdjust="spacing" textLength="592" x="478" y="409.729">virtual void link(RHI_Device* device) = 0 ' Abstract link method, details in derived classes</text><line style="stroke:#181818;stroke-width:1.0;" x1="459" x2="723.5" y1="385.2292" y2="385.2292"/><text fill="#000000" font-family="sans-serif" font-size="14" lengthAdjust="spacing" textLength="87" x="723.5" y="390.1611">Core Method</text><line style="stroke:#181818;stroke-width:1.0;" x1="810.5" x2="1075" y1="385.2292" y2="385.2292"/></g><!--class Texture_2D--><g id="elem_Texture_2D"><rect codeLine="32" fill="#F1F1F1" height="380.1546" id="Texture_2D" rx="2.5" ry="2.5" style="stroke:#181818;stroke-width:0.5;" width="464" x="9" y="478.836"/><ellipse cx="199.25" cy="494.836" fill="#ADD1B2" rx="11" ry="11" style="stroke:#181818;stroke-width:1.0;"/><path d="M199.3594,490.3673 Q198.4375,490.3673 197.7031,490.6798 Q196.9844,490.9923 196.4844,491.586 Q195.9844,492.1641 195.7031,493.0391 Q195.4375,493.9141 195.4375,495.0079 Q195.4375,496.4454 195.875,497.4923 Q196.3281,498.5391 197.1719,499.086 Q198.0313,499.6329 199.3438,499.6329 Q200.125,499.6329 200.8125,499.5079 Q201.5156,499.3673 202.5156,499.0548 L202.5156,500.9298 Q201.6563,501.2579 200.8906,501.3829 Q200.1406,501.5079 199.125,501.5079 Q197.2031,501.5079 195.8906,500.711 Q194.5938,499.8985 193.9375,498.4298 Q193.2813,496.9454 193.2813,494.9766 Q193.2813,493.5548 193.6719,492.3829 Q194.0781,491.1954 194.8594,490.3204 Q195.6406,489.4454 196.7813,488.9766 Q197.9219,488.4923 199.3906,488.4923 Q200.3438,488.4923 201.2344,488.6954 Q202.1406,488.8829 203.0781,489.3516 L202.25,491.1329 Q201.4688,490.7579 200.8125,490.5704 Q200.1563,490.3673 199.3594,490.3673 Z " fill="#000000"/><text fill="#000000" font-family="sans-serif" font-size="14" lengthAdjust="spacing" textLength="75" x="219.75" y="500.268">Texture_2D</text><line style="stroke:#181818;stroke-width:0.5;" x1="10" x2="472" y1="510.836" y2="510.836"/><polygon fill="none" points="20,543.9379,24,547.9379,20,551.9379,16,547.9379" style="stroke:#B38D22;stroke-width:1.0;"/><text fill="#000000" font-family="sans-serif" font-size="14" lengthAdjust="spacing" textLength="79" x="29" y="552.8699">int m_width</text><polygon fill="none" points="20,563.0058,24,567.0058,20,571.0058,16,567.0058" style="stroke:#B38D22;stroke-width:1.0;"/><text fill="#000000" font-family="sans-serif" font-size="14" lengthAdjust="spacing" textLength="85" x="29" y="571.9378">int m_height</text><polygon fill="none" points="20,582.0737,24,586.0737,20,590.0737,16,586.0737" style="stroke:#B38D22;stroke-width:1.0;"/><text fill="#000000" font-family="sans-serif" font-size="14" lengthAdjust="spacing" textLength="262" x="29" y="591.0057">std::shared_ptr&lt;Image&gt; m_image_data</text><text fill="#000000" font-family="sans-serif" font-size="14" lengthAdjust="spacing" textLength="4" x="29" y="610.0736">&#160;</text><line style="stroke:#181818;stroke-width:1.0;" x1="10" x2="207.5" y1="528.37" y2="528.37"/><text fill="#000000" font-family="sans-serif" font-size="14" lengthAdjust="spacing" textLength="67" x="207.5" y="533.302">Attributes</text><line style="stroke:#181818;stroke-width:1.0;" x1="274.5" x2="472" y1="528.37" y2="528.37"/><ellipse cx="20" cy="648.2775" fill="#84BE84" rx="3" ry="3" style="stroke:#038048;stroke-width:1.0;"/><text fill="#000000" font-family="sans-serif" font-size="14" lengthAdjust="spacing" textLength="310" x="29" y="652.2095">Texture_2D(std::shared_ptr&lt;Image&gt; image, ...)</text><ellipse cx="20" cy="667.3454" fill="#84BE84" rx="3" ry="3" style="stroke:#038048;stroke-width:1.0;"/><text fill="#000000" font-family="sans-serif" font-size="14" lengthAdjust="spacing" textLength="237" x="29" y="671.2774">Texture_2D(int width, int height, ...)</text><text fill="#000000" font-family="sans-serif" font-size="14" lengthAdjust="spacing" textLength="4" x="29" y="690.3453">&#160;</text><line style="stroke:#181818;stroke-width:1.0;" x1="10" x2="198" y1="627.7096" y2="627.7096"/><text fill="#000000" font-family="sans-serif" font-size="14" lengthAdjust="spacing" textLength="86" x="198" y="632.6415">Constructors</text><line style="stroke:#181818;stroke-width:1.0;" x1="284" x2="472" y1="627.7096" y2="627.7096"/><ellipse cx="20" cy="728.5492" fill="#84BE84" rx="3" ry="3" style="stroke:#038048;stroke-width:1.0;"/><text fill="#000000" font-family="sans-serif" font-size="14" lengthAdjust="spacing" textLength="193" x="29" y="732.4811">void link(RHI_Device* device)</text><text fill="#000000" font-family="sans-serif" font-size="14" lengthAdjust="spacing" textLength="4" x="29" y="751.549">&#160;</text><line style="stroke:#181818;stroke-width:1.0;" x1="10" x2="211.5" y1="707.9812" y2="707.9812"/><text fill="#000000" font-family="sans-serif" font-size="14" lengthAdjust="spacing" textLength="59" x="211.5" y="712.9132">Methods</text><line style="stroke:#181818;stroke-width:1.0;" x1="270.5" x2="472" y1="707.9812" y2="707.9812"/><ellipse cx="20" cy="789.7529" fill="#84BE84" rx="3" ry="3" style="stroke:#038048;stroke-width:1.0;"/><text fill="#000000" font-family="sans-serif" font-size="14" lengthAdjust="spacing" text-decoration="underline" textLength="307" x="29" y="793.6849">std::shared_ptr&lt;Texture_2D&gt; create_image(...)</text><ellipse cx="20" cy="808.8208" fill="#84BE84" rx="3" ry="3" style="stroke:#038048;stroke-width:1.0;"/><text fill="#000000" font-family="sans-serif" font-size="14" lengthAdjust="spacing" text-decoration="underline" textLength="381" x="29" y="812.7528">std::shared_ptr&lt;Texture_2D&gt; create_color_attachment(...)</text><ellipse cx="20" cy="827.8887" fill="#84BE84" rx="3" ry="3" style="stroke:#038048;stroke-width:1.0;"/><text fill="#000000" font-family="sans-serif" font-size="14" lengthAdjust="spacing" text-decoration="underline" textLength="388" x="29" y="831.8207">std::shared_ptr&lt;Texture_2D&gt; create_depth_attachment(...)</text><ellipse cx="20" cy="846.9567" fill="#84BE84" rx="3" ry="3" style="stroke:#038048;stroke-width:1.0;"/><text fill="#000000" font-family="sans-serif" font-size="14" lengthAdjust="spacing" text-decoration="underline" textLength="438" x="29" y="850.8886">std::shared_ptr&lt;Texture_2D&gt; create_depth_stencil_attachment(...)</text><line style="stroke:#181818;stroke-width:1.0;" x1="10" x2="165" y1="769.185" y2="769.185"/><text fill="#000000" font-family="sans-serif" font-size="14" lengthAdjust="spacing" textLength="152" x="165" y="774.117">Static Factory Methods</text><line style="stroke:#181818;stroke-width:1.0;" x1="317" x2="472" y1="769.185" y2="769.185"/></g><!--class Texture_2D_array--><g id="elem_Texture_2D_array"><rect codeLine="52" fill="#F1F1F1" height="361.0867" id="Texture_2D_array" rx="2.5" ry="2.5" style="stroke:#181818;stroke-width:0.5;" width="518" x="508" y="488.366"/><ellipse cx="704.75" cy="504.366" fill="#ADD1B2" rx="11" ry="11" style="stroke:#181818;stroke-width:1.0;"/><path d="M704.8594,499.8973 Q703.9375,499.8973 703.2031,500.2098 Q702.4844,500.5223 701.9844,501.116 Q701.4844,501.6941 701.2031,502.5691 Q700.9375,503.4441 700.9375,504.5379 Q700.9375,505.9754 701.375,507.0223 Q701.8281,508.0691 702.6719,508.616 Q703.5313,509.1629 704.8438,509.1629 Q705.625,509.1629 706.3125,509.0379 Q707.0156,508.8973 708.0156,508.5848 L708.0156,510.4598 Q707.1563,510.7879 706.3906,510.9129 Q705.6406,511.0379 704.625,511.0379 Q702.7031,511.0379 701.3906,510.241 Q700.0938,509.4285 699.4375,507.9598 Q698.7813,506.4754 698.7813,504.5066 Q698.7813,503.0848 699.1719,501.9129 Q699.5781,500.7254 700.3594,499.8504 Q701.1406,498.9754 702.2813,498.5066 Q703.4219,498.0223 704.8906,498.0223 Q705.8438,498.0223 706.7344,498.2254 Q707.6406,498.4129 708.5781,498.8816 L707.75,500.6629 Q706.9688,500.2879 706.3125,500.1004 Q705.6563,499.8973 704.8594,499.8973 Z " fill="#000000"/><text fill="#000000" font-family="sans-serif" font-size="14" lengthAdjust="spacing" textLength="116" x="725.25" y="509.798">Texture_2D_array</text><line style="stroke:#181818;stroke-width:0.5;" x1="509" x2="1025" y1="520.366" y2="520.366"/><polygon fill="none" points="519,553.4679,523,557.4679,519,561.4679,515,557.4679" style="stroke:#B38D22;stroke-width:1.0;"/><text fill="#000000" font-family="sans-serif" font-size="14" lengthAdjust="spacing" textLength="79" x="528" y="562.3999">int m_width</text><polygon fill="none" points="519,572.5358,523,576.5358,519,580.5358,515,576.5358" style="stroke:#B38D22;stroke-width:1.0;"/><text fill="#000000" font-family="sans-serif" font-size="14" lengthAdjust="spacing" textLength="85" x="528" y="581.4678">int m_height</text><polygon fill="none" points="519,591.6037,523,595.6037,519,599.6037,515,595.6037" style="stroke:#B38D22;stroke-width:1.0;"/><text fill="#000000" font-family="sans-serif" font-size="14" lengthAdjust="spacing" textLength="118" x="528" y="600.5357">int m_layer_count</text><polygon fill="none" points="519,610.6717,523,614.6717,519,618.6717,515,614.6717" style="stroke:#B38D22;stroke-width:1.0;"/><text fill="#000000" font-family="sans-serif" font-size="14" lengthAdjust="spacing" textLength="348" x="528" y="619.6036">std::vector&lt;std::shared_ptr&lt;Image&gt;&gt; m_image_data</text><text fill="#000000" font-family="sans-serif" font-size="14" lengthAdjust="spacing" textLength="4" x="528" y="638.6715">&#160;</text><line style="stroke:#181818;stroke-width:1.0;" x1="509" x2="733.5" y1="537.9" y2="537.9"/><text fill="#000000" font-family="sans-serif" font-size="14" lengthAdjust="spacing" textLength="67" x="733.5" y="542.832">Attributes</text><line style="stroke:#181818;stroke-width:1.0;" x1="800.5" x2="1025" y1="537.9" y2="537.9"/><ellipse cx="519" cy="676.8754" fill="#84BE84" rx="3" ry="3" style="stroke:#038048;stroke-width:1.0;"/><text fill="#000000" font-family="sans-serif" font-size="14" lengthAdjust="spacing" textLength="444" x="528" y="680.8074">Texture_2D_array(std::vector&lt;std::shared_ptr&lt;Image&gt;&gt; images, ...)</text><ellipse cx="519" cy="695.9433" fill="#84BE84" rx="3" ry="3" style="stroke:#038048;stroke-width:1.0;"/><text fill="#000000" font-family="sans-serif" font-size="14" lengthAdjust="spacing" textLength="385" x="528" y="699.8753">Texture_2D_array(int width, int height, int layer_count, ...)</text><text fill="#000000" font-family="sans-serif" font-size="14" lengthAdjust="spacing" textLength="4" x="528" y="718.9432">&#160;</text><line style="stroke:#181818;stroke-width:1.0;" x1="509" x2="724" y1="656.3075" y2="656.3075"/><text fill="#000000" font-family="sans-serif" font-size="14" lengthAdjust="spacing" textLength="86" x="724" y="661.2395">Constructors</text><line style="stroke:#181818;stroke-width:1.0;" x1="810" x2="1025" y1="656.3075" y2="656.3075"/><ellipse cx="519" cy="757.1471" fill="#84BE84" rx="3" ry="3" style="stroke:#038048;stroke-width:1.0;"/><text fill="#000000" font-family="sans-serif" font-size="14" lengthAdjust="spacing" textLength="193" x="528" y="761.079">void link(RHI_Device* device)</text><text fill="#000000" font-family="sans-serif" font-size="14" lengthAdjust="spacing" textLength="4" x="528" y="780.147">&#160;</text><line style="stroke:#181818;stroke-width:1.0;" x1="509" x2="737.5" y1="736.5792" y2="736.5792"/><text fill="#000000" font-family="sans-serif" font-size="14" lengthAdjust="spacing" textLength="59" x="737.5" y="741.5111">Methods</text><line style="stroke:#181818;stroke-width:1.0;" x1="796.5" x2="1025" y1="736.5792" y2="736.5792"/><ellipse cx="519" cy="818.3508" fill="#84BE84" rx="3" ry="3" style="stroke:#038048;stroke-width:1.0;"/><text fill="#000000" font-family="sans-serif" font-size="14" lengthAdjust="spacing" text-decoration="underline" textLength="393" x="528" y="822.2828">std::shared_ptr&lt;Texture_2D_array&gt; create_from_images(...)</text><ellipse cx="519" cy="837.4187" fill="#84BE84" rx="3" ry="3" style="stroke:#038048;stroke-width:1.0;"/><text fill="#000000" font-family="sans-serif" font-size="14" lengthAdjust="spacing" text-decoration="underline" textLength="492" x="528" y="841.3507">std::shared_ptr&lt;Texture_2D_array&gt; create_as_framebuffer_attachment(...)</text><line style="stroke:#181818;stroke-width:1.0;" x1="509" x2="691" y1="797.7829" y2="797.7829"/><text fill="#000000" font-family="sans-serif" font-size="14" lengthAdjust="spacing" textLength="152" x="691" y="802.7149">Static Factory Methods</text><line style="stroke:#181818;stroke-width:1.0;" x1="843" x2="1025" y1="797.7829" y2="797.7829"/></g><!--class Texture_cubemap--><g id="elem_Texture_cubemap"><rect codeLine="71" fill="#F1F1F1" height="342.0188" id="Texture_cubemap" rx="2.5" ry="2.5" style="stroke:#181818;stroke-width:0.5;" width="703" x="1060.5" y="497.896"/><ellipse cx="1347.75" cy="513.896" fill="#ADD1B2" rx="11" ry="11" style="stroke:#181818;stroke-width:1.0;"/><path d="M1347.8594,509.4273 Q1346.9375,509.4273 1346.2031,509.7398 Q1345.4844,510.0523 1344.9844,510.646 Q1344.4844,511.2241 1344.2031,512.0991 Q1343.9375,512.9741 1343.9375,514.0679 Q1343.9375,515.5054 1344.375,516.5523 Q1344.8281,517.5991 1345.6719,518.146 Q1346.5313,518.6929 1347.8438,518.6929 Q1348.625,518.6929 1349.3125,518.5679 Q1350.0156,518.4273 1351.0156,518.1148 L1351.0156,519.9898 Q1350.1563,520.3179 1349.3906,520.4429 Q1348.6406,520.5679 1347.625,520.5679 Q1345.7031,520.5679 1344.3906,519.771 Q1343.0938,518.9585 1342.4375,517.4898 Q1341.7813,516.0054 1341.7813,514.0366 Q1341.7813,512.6148 1342.1719,511.4429 Q1342.5781,510.2554 1343.3594,509.3804 Q1344.1406,508.5054 1345.2813,508.0366 Q1346.4219,507.5523 1347.8906,507.5523 Q1348.8438,507.5523 1349.7344,507.7554 Q1350.6406,507.9429 1351.5781,508.4116 L1350.75,510.1929 Q1349.9688,509.8179 1349.3125,509.6304 Q1348.6563,509.4273 1347.8594,509.4273 Z " fill="#000000"/><text fill="#000000" font-family="sans-serif" font-size="14" lengthAdjust="spacing" textLength="120" x="1368.25" y="519.328">Texture_cubemap</text><line style="stroke:#181818;stroke-width:0.5;" x1="1061.5" x2="1762.5" y1="529.896" y2="529.896"/><polygon fill="none" points="1071.5,562.9979,1075.5,566.9979,1071.5,570.9979,1067.5,566.9979" style="stroke:#B38D22;stroke-width:1.0;"/><text fill="#000000" font-family="sans-serif" font-size="14" lengthAdjust="spacing" textLength="79" x="1080.5" y="571.9299">int m_width</text><polygon fill="none" points="1071.5,582.0658,1075.5,586.0658,1071.5,590.0658,1067.5,586.0658" style="stroke:#B38D22;stroke-width:1.0;"/><text fill="#000000" font-family="sans-serif" font-size="14" lengthAdjust="spacing" textLength="85" x="1080.5" y="590.9978">int m_height</text><polygon fill="none" points="1071.5,601.1337,1075.5,605.1337,1071.5,609.1337,1067.5,605.1337" style="stroke:#B38D22;stroke-width:1.0;"/><text fill="#000000" font-family="sans-serif" font-size="14" lengthAdjust="spacing" textLength="577" x="1080.5" y="610.0657">std::unordered_map&lt;Texture_cubemap_face, std::shared_ptr&lt;Image&gt;&gt; m_image_data</text><text fill="#000000" font-family="sans-serif" font-size="14" lengthAdjust="spacing" textLength="4" x="1080.5" y="629.1336">&#160;</text><line style="stroke:#181818;stroke-width:1.0;" x1="1061.5" x2="1378.5" y1="547.43" y2="547.43"/><text fill="#000000" font-family="sans-serif" font-size="14" lengthAdjust="spacing" textLength="67" x="1378.5" y="552.362">Attributes</text><line style="stroke:#181818;stroke-width:1.0;" x1="1445.5" x2="1762.5" y1="547.43" y2="547.43"/><ellipse cx="1071.5" cy="667.3375" fill="#84BE84" rx="3" ry="3" style="stroke:#038048;stroke-width:1.0;"/><text fill="#000000" font-family="sans-serif" font-size="14" lengthAdjust="spacing" textLength="677" x="1080.5" y="671.2695">Texture_cubemap(std::unordered_map&lt;Texture_cubemap_face, std::shared_ptr&lt;Image&gt;&gt; images, ...)</text><ellipse cx="1071.5" cy="686.4054" fill="#84BE84" rx="3" ry="3" style="stroke:#038048;stroke-width:1.0;"/><text fill="#000000" font-family="sans-serif" font-size="14" lengthAdjust="spacing" textLength="282" x="1080.5" y="690.3374">Texture_cubemap(int width, int height, ...)</text><text fill="#000000" font-family="sans-serif" font-size="14" lengthAdjust="spacing" textLength="4" x="1080.5" y="709.4053">&#160;</text><line style="stroke:#181818;stroke-width:1.0;" x1="1061.5" x2="1369" y1="646.7696" y2="646.7696"/><text fill="#000000" font-family="sans-serif" font-size="14" lengthAdjust="spacing" textLength="86" x="1369" y="651.7015">Constructors</text><line style="stroke:#181818;stroke-width:1.0;" x1="1455" x2="1762.5" y1="646.7696" y2="646.7696"/><ellipse cx="1071.5" cy="747.6092" fill="#84BE84" rx="3" ry="3" style="stroke:#038048;stroke-width:1.0;"/><text fill="#000000" font-family="sans-serif" font-size="14" lengthAdjust="spacing" textLength="193" x="1080.5" y="751.5411">void link(RHI_Device* device)</text><text fill="#000000" font-family="sans-serif" font-size="14" lengthAdjust="spacing" textLength="4" x="1080.5" y="770.609">&#160;</text><line style="stroke:#181818;stroke-width:1.0;" x1="1061.5" x2="1382.5" y1="727.0412" y2="727.0412"/><text fill="#000000" font-family="sans-serif" font-size="14" lengthAdjust="spacing" textLength="59" x="1382.5" y="731.9732">Methods</text><line style="stroke:#181818;stroke-width:1.0;" x1="1441.5" x2="1762.5" y1="727.0412" y2="727.0412"/><ellipse cx="1071.5" cy="808.8129" fill="#84BE84" rx="3" ry="3" style="stroke:#038048;stroke-width:1.0;"/><text fill="#000000" font-family="sans-serif" font-size="14" lengthAdjust="spacing" text-decoration="underline" textLength="421" x="1080.5" y="812.7449">std::shared_ptr&lt;Texture_cubemap&gt; create_from_six_images(...)</text><ellipse cx="1071.5" cy="827.8808" fill="#84BE84" rx="3" ry="3" style="stroke:#038048;stroke-width:1.0;"/><text fill="#000000" font-family="sans-serif" font-size="14" lengthAdjust="spacing" text-decoration="underline" textLength="496" x="1080.5" y="831.8128">std::shared_ptr&lt;Texture_cubemap&gt; create_as_framebuffer_attachment(...)</text><line style="stroke:#181818;stroke-width:1.0;" x1="1061.5" x2="1336" y1="788.245" y2="788.245"/><text fill="#000000" font-family="sans-serif" font-size="14" lengthAdjust="spacing" textLength="152" x="1336" y="793.177">Static Factory Methods</text><line style="stroke:#181818;stroke-width:1.0;" x1="1488" x2="1762.5" y1="788.245" y2="788.245"/></g><!--class Image--><g id="elem_Image"><rect codeLine="90" fill="#F1F1F1" height="48" id="Image" rx="2.5" ry="2.5" style="stroke:#181818;stroke-width:0.5;" width="75" x="729.5" y="937.986"/><ellipse cx="744.5" cy="953.986" fill="#ADD1B2" rx="11" ry="11" style="stroke:#181818;stroke-width:1.0;"/><path d="M744.6094,949.5173 Q743.6875,949.5173 742.9531,949.8298 Q742.2344,950.1423 741.7344,950.736 Q741.2344,951.3141 740.9531,952.1891 Q740.6875,953.0641 740.6875,954.1579 Q740.6875,955.5954 741.125,956.6423 Q741.5781,957.6891 742.4219,958.236 Q743.2813,958.7829 744.5938,958.7829 Q745.375,958.7829 746.0625,958.6579 Q746.7656,958.5173 747.7656,958.2048 L747.7656,960.0798 Q746.9063,960.4079 746.1406,960.5329 Q745.3906,960.6579 744.375,960.6579 Q742.4531,960.6579 741.1406,959.861 Q739.8438,959.0485 739.1875,957.5798 Q738.5313,956.0954 738.5313,954.1266 Q738.5313,952.7048 738.9219,951.5329 Q739.3281,950.3454 740.1094,949.4704 Q740.8906,948.5954 742.0313,948.1266 Q743.1719,947.6423 744.6406,947.6423 Q745.5938,947.6423 746.4844,947.8454 Q747.3906,948.0329 748.3281,948.5016 L747.5,950.2829 Q746.7188,949.9079 746.0625,949.7204 Q745.4063,949.5173 744.6094,949.5173 Z " fill="#000000"/><text fill="#000000" font-family="sans-serif" font-size="14" lengthAdjust="spacing" textLength="43" x="758.5" y="959.418">Image</text><line style="stroke:#181818;stroke-width:0.5;" x1="730.5" x2="803.5" y1="969.986" y2="969.986"/><line style="stroke:#181818;stroke-width:0.5;" x1="730.5" x2="803.5" y1="977.986" y2="977.986"/></g><!--class TextureType--><g id="elem_TextureType"><rect codeLine="94" fill="#F1F1F1" height="48" id="TextureType" rx="2.5" ry="2.5" style="stroke:#181818;stroke-width:0.5;" width="115" x="1763.5" y="253.426"/><ellipse cx="1778.5" cy="269.426" fill="#ADD1B2" rx="11" ry="11" style="stroke:#181818;stroke-width:1.0;"/><path d="M1778.6094,264.9573 Q1777.6875,264.9573 1776.9531,265.2698 Q1776.2344,265.5823 1775.7344,266.176 Q1775.2344,266.7541 1774.9531,267.6291 Q1774.6875,268.5041 1774.6875,269.5979 Q1774.6875,271.0354 1775.125,272.0823 Q1775.5781,273.1291 1776.4219,273.676 Q1777.2813,274.2229 1778.5938,274.2229 Q1779.375,274.2229 1780.0625,274.0979 Q1780.7656,273.9573 1781.7656,273.6448 L1781.7656,275.5198 Q1780.9063,275.8479 1780.1406,275.9729 Q1779.3906,276.0979 1778.375,276.0979 Q1776.4531,276.0979 1775.1406,275.301 Q1773.8438,274.4885 1773.1875,273.0198 Q1772.5313,271.5354 1772.5313,269.5666 Q1772.5313,268.1448 1772.9219,266.9729 Q1773.3281,265.7854 1774.1094,264.9104 Q1774.8906,264.0354 1776.0313,263.5666 Q1777.1719,263.0823 1778.6406,263.0823 Q1779.5938,263.0823 1780.4844,263.2854 Q1781.3906,263.4729 1782.3281,263.9416 L1781.5,265.7229 Q1780.7188,265.3479 1780.0625,265.1604 Q1779.4063,264.9573 1778.6094,264.9573 Z " fill="#000000"/><text fill="#000000" font-family="sans-serif" font-size="14" lengthAdjust="spacing" textLength="83" x="1792.5" y="274.858">TextureType</text><line style="stroke:#181818;stroke-width:0.5;" x1="1764.5" x2="1877.5" y1="285.426" y2="285.426"/><line style="stroke:#181818;stroke-width:0.5;" x1="1764.5" x2="1877.5" y1="293.426" y2="293.426"/></g><!--class Texture_internal_format--><g id="elem_Texture_internal_format"><rect codeLine="98" fill="#F1F1F1" height="48" id="Texture_internal_format" rx="2.5" ry="2.5" style="stroke:#181818;stroke-width:0.5;" width="193" x="1535.5" y="253.426"/><ellipse cx="1550.5" cy="269.426" fill="#ADD1B2" rx="11" ry="11" style="stroke:#181818;stroke-width:1.0;"/><path d="M1550.6094,264.9573 Q1549.6875,264.9573 1548.9531,265.2698 Q1548.2344,265.5823 1547.7344,266.176 Q1547.2344,266.7541 1546.9531,267.6291 Q1546.6875,268.5041 1546.6875,269.5979 Q1546.6875,271.0354 1547.125,272.0823 Q1547.5781,273.1291 1548.4219,273.676 Q1549.2813,274.2229 1550.5938,274.2229 Q1551.375,274.2229 1552.0625,274.0979 Q1552.7656,273.9573 1553.7656,273.6448 L1553.7656,275.5198 Q1552.9063,275.8479 1552.1406,275.9729 Q1551.3906,276.0979 1550.375,276.0979 Q1548.4531,276.0979 1547.1406,275.301 Q1545.8438,274.4885 1545.1875,273.0198 Q1544.5313,271.5354 1544.5313,269.5666 Q1544.5313,268.1448 1544.9219,266.9729 Q1545.3281,265.7854 1546.1094,264.9104 Q1546.8906,264.0354 1548.0313,263.5666 Q1549.1719,263.0823 1550.6406,263.0823 Q1551.5938,263.0823 1552.4844,263.2854 Q1553.3906,263.4729 1554.3281,263.9416 L1553.5,265.7229 Q1552.7188,265.3479 1552.0625,265.1604 Q1551.4063,264.9573 1550.6094,264.9573 Z " fill="#000000"/><text fill="#000000" font-family="sans-serif" font-size="14" lengthAdjust="spacing" textLength="161" x="1564.5" y="274.858">Texture_internal_format</text><line style="stroke:#181818;stroke-width:0.5;" x1="1536.5" x2="1727.5" y1="285.426" y2="285.426"/><line style="stroke:#181818;stroke-width:0.5;" x1="1536.5" x2="1727.5" y1="293.426" y2="293.426"/></g><!--class TextureWrapMode--><g id="elem_TextureWrapMode"><rect codeLine="102" fill="#F1F1F1" height="48" id="TextureWrapMode" rx="2.5" ry="2.5" style="stroke:#181818;stroke-width:0.5;" width="157" x="1343.5" y="253.426"/><ellipse cx="1358.5" cy="269.426" fill="#ADD1B2" rx="11" ry="11" style="stroke:#181818;stroke-width:1.0;"/><path d="M1358.6094,264.9573 Q1357.6875,264.9573 1356.9531,265.2698 Q1356.2344,265.5823 1355.7344,266.176 Q1355.2344,266.7541 1354.9531,267.6291 Q1354.6875,268.5041 1354.6875,269.5979 Q1354.6875,271.0354 1355.125,272.0823 Q1355.5781,273.1291 1356.4219,273.676 Q1357.2813,274.2229 1358.5938,274.2229 Q1359.375,274.2229 1360.0625,274.0979 Q1360.7656,273.9573 1361.7656,273.6448 L1361.7656,275.5198 Q1360.9063,275.8479 1360.1406,275.9729 Q1359.3906,276.0979 1358.375,276.0979 Q1356.4531,276.0979 1355.1406,275.301 Q1353.8438,274.4885 1353.1875,273.0198 Q1352.5313,271.5354 1352.5313,269.5666 Q1352.5313,268.1448 1352.9219,266.9729 Q1353.3281,265.7854 1354.1094,264.9104 Q1354.8906,264.0354 1356.0313,263.5666 Q1357.1719,263.0823 1358.6406,263.0823 Q1359.5938,263.0823 1360.4844,263.2854 Q1361.3906,263.4729 1362.3281,263.9416 L1361.5,265.7229 Q1360.7188,265.3479 1360.0625,265.1604 Q1359.4063,264.9573 1358.6094,264.9573 Z " fill="#000000"/><text fill="#000000" font-family="sans-serif" font-size="14" lengthAdjust="spacing" textLength="125" x="1372.5" y="274.858">TextureWrapMode</text><line style="stroke:#181818;stroke-width:0.5;" x1="1344.5" x2="1499.5" y1="285.426" y2="285.426"/><line style="stroke:#181818;stroke-width:0.5;" x1="1344.5" x2="1499.5" y1="293.426" y2="293.426"/></g><!--class TextureFilterMode--><g id="elem_TextureFilterMode"><rect codeLine="106" fill="#F1F1F1" height="48" id="TextureFilterMode" rx="2.5" ry="2.5" style="stroke:#181818;stroke-width:0.5;" width="155" x="1153.5" y="253.426"/><ellipse cx="1168.5" cy="269.426" fill="#ADD1B2" rx="11" ry="11" style="stroke:#181818;stroke-width:1.0;"/><path d="M1168.6094,264.9573 Q1167.6875,264.9573 1166.9531,265.2698 Q1166.2344,265.5823 1165.7344,266.176 Q1165.2344,266.7541 1164.9531,267.6291 Q1164.6875,268.5041 1164.6875,269.5979 Q1164.6875,271.0354 1165.125,272.0823 Q1165.5781,273.1291 1166.4219,273.676 Q1167.2813,274.2229 1168.5938,274.2229 Q1169.375,274.2229 1170.0625,274.0979 Q1170.7656,273.9573 1171.7656,273.6448 L1171.7656,275.5198 Q1170.9063,275.8479 1170.1406,275.9729 Q1169.3906,276.0979 1168.375,276.0979 Q1166.4531,276.0979 1165.1406,275.301 Q1163.8438,274.4885 1163.1875,273.0198 Q1162.5313,271.5354 1162.5313,269.5666 Q1162.5313,268.1448 1162.9219,266.9729 Q1163.3281,265.7854 1164.1094,264.9104 Q1164.8906,264.0354 1166.0313,263.5666 Q1167.1719,263.0823 1168.6406,263.0823 Q1169.5938,263.0823 1170.4844,263.2854 Q1171.3906,263.4729 1172.3281,263.9416 L1171.5,265.7229 Q1170.7188,265.3479 1170.0625,265.1604 Q1169.4063,264.9573 1168.6094,264.9573 Z " fill="#000000"/><text fill="#000000" font-family="sans-serif" font-size="14" lengthAdjust="spacing" textLength="123" x="1182.5" y="274.858">TextureFilterMode</text><line style="stroke:#181818;stroke-width:0.5;" x1="1154.5" x2="1307.5" y1="285.426" y2="285.426"/><line style="stroke:#181818;stroke-width:0.5;" x1="1154.5" x2="1307.5" y1="293.426" y2="293.426"/></g><!--reverse link Texture to Texture_2D--><g id="link_Texture_Texture_2D"><path d="M541.7374,428.672 C513.7674,448.952 500.14,459.086 473.5,478.836 C473.39,478.916 473.28,478.996 473.17,479.076 " fill="none" id="Texture-backto-Texture_2D" style="stroke:#181818;stroke-width:1.0;"/><polygon fill="none" points="556.31,418.106,538.2154,423.8145,545.2594,433.5296,556.31,418.106" style="stroke:#181818;stroke-width:1.0;"/></g><!--reverse link Texture to Texture_2D--><g id="link_Texture_Texture_2D"><path codeLine="116" d="M576.4347,428.7642 C548.8347,449.0442 535.14,459.086 508.5,478.836 C497.02,487.336 485.27,496.086 473.4,504.936 " fill="none" id="Texture-backto-Texture_2D-1" style="stroke:#181818;stroke-width:1.0;"/><polygon fill="none" points="590.94,418.106,572.882,423.9292,579.9875,433.5993,590.94,418.106" style="stroke:#181818;stroke-width:1.0;"/></g><!--reverse link Texture to Texture_2D_array--><g id="link_Texture_Texture_2D_array"><path d="M754.0327,436.2132 C753.6327,458.9032 753.8,464.676 753.91,488.156 " fill="none" id="Texture-backto-Texture_2D_array" style="stroke:#181818;stroke-width:1.0;"/><polygon fill="none" points="754.35,418.216,748.0337,436.1075,760.0318,436.319,754.35,418.216" style="stroke:#181818;stroke-width:1.0;"/></g><!--reverse link Texture to Texture_2D_array--><g id="link_Texture_Texture_2D_array"><path codeLine="117" d="M779.9673,436.2132 C780.3673,458.9032 780.2,464.676 780.09,488.156 " fill="none" id="Texture-backto-Texture_2D_array-1" style="stroke:#181818;stroke-width:1.0;"/><polygon fill="none" points="779.65,418.216,773.9682,436.319,785.9663,436.1075,779.65,418.216" style="stroke:#181818;stroke-width:1.0;"/></g><!--reverse link Texture to Texture_cubemap--><g id="link_Texture_Texture_cubemap"><path d="M1001.2042,427.5937 C1043.2942,453.2837 1072.65,470.986 1116.69,497.456 " fill="none" id="Texture-backto-Texture_cubemap" style="stroke:#181818;stroke-width:1.0;"/><polygon fill="none" points="985.84,418.216,998.0783,432.7151,1004.3301,422.4723,985.84,418.216" style="stroke:#181818;stroke-width:1.0;"/></g><!--reverse link Texture to Texture_cubemap--><g id="link_Texture_Texture_cubemap"><path codeLine="118" d="M1026.5923,427.4479 C1069.5923,453.1379 1099.12,470.986 1142.76,497.456 " fill="none" id="Texture-backto-Texture_cubemap-1" style="stroke:#181818;stroke-width:1.0;"/><polygon fill="none" points="1011.14,418.216,1023.515,432.5986,1029.6696,422.2971,1011.14,418.216" style="stroke:#181818;stroke-width:1.0;"/></g><!--reverse link RHI_Linker_RHI_Texture to Texture--><g id="link_RHI_Linker_RHI_Texture_Texture"><path codeLine="113" d="M841.2428,75.0545 C834.1928,94.1745 829.77,106.156 818.52,136.686 " fill="none" id="RHI_Linker_RHI_Texture-backto-Texture" style="stroke:#181818;stroke-width:1.0;"/><polygon fill="none" points="847.47,58.166,835.6133,72.9788,846.8723,77.1303,847.47,58.166" style="stroke:#181818;stroke-width:1.0;"/></g><!--reverse link Render_object to Texture--><g id="link_Render_object_Texture"><path codeLine="114" d="M692.7572,75.0545 C699.8072,94.1745 704.23,106.156 715.48,136.686 " fill="none" id="Render_object-backto-Texture" style="stroke:#181818;stroke-width:1.0;"/><polygon fill="none" points="686.53,58.166,687.1277,77.1303,698.3867,72.9788,686.53,58.166" style="stroke:#181818;stroke-width:1.0;"/></g><!--reverse link Texture_2D to Image--><g id="link_Texture_2D_Image"><path codeLine="121" d="M483.7864,855.0879 C489.6464,858.5179 485.15,855.786 491,858.986 C571.44,903.006 674.77,935.446 729.34,950.896 " fill="none" id="Texture_2D-backto-Image" style="stroke:#181818;stroke-width:1.0;"/><polygon fill="none" points="473.43,849.026,476.5876,855.5091,483.7864,855.0879,480.6288,848.6048,473.43,849.026" style="stroke:#181818;stroke-width:1.0;"/><text fill="#000000" font-family="sans-serif" font-size="13" lengthAdjust="spacing" textLength="112" x="594.75" y="903.883">contains pixel data</text><text fill="#000000" font-family="sans-serif" font-size="13" lengthAdjust="spacing" textLength="7" x="481.1715" y="851.5657">1</text><text fill="#000000" font-family="sans-serif" font-size="13" lengthAdjust="spacing" textLength="20" x="701.4463" y="944.6069">0..1</text></g><!--reverse link Texture_2D_array to Image--><g id="link_Texture_2D_array_Image"><path codeLine="122" d="M767,861.696 C767,896.686 767,916.886 767,937.546 " fill="none" id="Texture_2D_array-backto-Image" style="stroke:#181818;stroke-width:1.0;"/><polygon fill="none" points="767,849.696,763,855.696,767,861.696,771,855.696,767,849.696" style="stroke:#181818;stroke-width:1.0;"/><text fill="#000000" font-family="sans-serif" font-size="13" lengthAdjust="spacing" textLength="170" x="768" y="903.883">contains pixel data for layers</text><text fill="#000000" font-family="sans-serif" font-size="13" lengthAdjust="spacing" textLength="7" x="759.8523" y="871.5935">1</text><text fill="#000000" font-family="sans-serif" font-size="13" lengthAdjust="spacing" textLength="20" x="744.4375" y="926.0926">0..*</text></g><!--reverse link Texture_cubemap to Image--><g id="link_Texture_cubemap_Image"><path codeLine="123" d="M1087.8637,845.6244 C1037.8437,869.8944 996.92,888.096 947,907.986 C899.18,927.036 841.83,942.756 804.92,952.006 " fill="none" id="Texture_cubemap-backto-Image" style="stroke:#181818;stroke-width:1.0;"/><polygon fill="none" points="1098.66,840.386,1091.5157,839.4065,1087.8637,845.6244,1095.008,846.604,1098.66,840.386" style="stroke:#181818;stroke-width:1.0;"/><text fill="#000000" font-family="sans-serif" font-size="13" lengthAdjust="spacing" textLength="165" x="987.13" y="903.883">contains pixel data for faces</text><text fill="#000000" font-family="sans-serif" font-size="13" lengthAdjust="spacing" textLength="7" x="1078.2933" y="861.8909">1</text><text fill="#000000" font-family="sans-serif" font-size="13" lengthAdjust="spacing" textLength="7" x="812.5568" y="945.5609">6</text></g><!--link Texture to TextureType--><g id="link_Texture_TextureType"><path codeLine="126" d="M1076.36,140.166 C1105.39,131.216 1134.73,123.566 1163.5,117.996 C1186.57,113.536 1661.38,84.236 1746,137.016 C1787.5,162.906 1805.9881,214.3019 1814.3581,247.1419 " fill="none" id="Texture-to-TextureType" style="stroke:#181818;stroke-width:1.0;stroke-dasharray:7.0,7.0;"/><polygon fill="#181818" points="1815.84,252.956,1817.4933,243.2469,1814.6051,248.1109,1809.7411,245.2227,1815.84,252.956" style="stroke:#181818;stroke-width:1.0;"/><text fill="#000000" font-family="sans-serif" font-size="13" lengthAdjust="spacing" textLength="41" x="1164.5" y="102.913">&#171;uses&#187;</text></g><!--link Texture to Texture_internal_format--><g id="link_Texture_Texture_internal_format"><path codeLine="127" d="M1076.32,152.376 C1096.34,146.576 1116.34,141.376 1136,137.016 C1268.38,107.676 1305.88,101.726 1440.5,117.996 C1475.71,122.256 1488.04,118.036 1518,137.016 C1564.42,166.426 1597.6575,216.0356 1615.9275,247.7856 " fill="none" id="Texture-to-Texture_internal_format" style="stroke:#181818;stroke-width:1.0;stroke-dasharray:7.0,7.0;"/><polygon fill="#181818" points="1618.92,252.986,1617.8982,243.1903,1616.4262,248.6523,1610.9642,247.1803,1618.92,252.986" style="stroke:#181818;stroke-width:1.0;"/><text fill="#000000" font-family="sans-serif" font-size="13" lengthAdjust="spacing" textLength="41" x="1398.5" y="102.913">&#171;uses&#187;</text></g><!--link Texture to TextureWrapMode--><g id="link_Texture_TextureWrapMode"><path codeLine="128" d="M1025.52,136.626 C1112.39,106.146 1209.76,90.306 1298.5,117.996 C1361,137.506 1395.9092,207.9864 1411.3592,247.5864 " fill="none" id="Texture-to-TextureWrapMode" style="stroke:#181818;stroke-width:1.0;stroke-dasharray:7.0,7.0;"/><polygon fill="#181818" points="1413.54,253.176,1413.9952,243.3377,1411.7227,248.518,1406.5424,246.2454,1413.54,253.176" style="stroke:#181818;stroke-width:1.0;"/><text fill="#000000" font-family="sans-serif" font-size="13" lengthAdjust="spacing" textLength="41" x="1256.5" y="102.913">&#171;uses&#187;</text></g><!--link Texture to TextureFilterMode--><g id="link_Texture_TextureFilterMode"><path codeLine="129" d="M1076.49,277.426 C1104.42,277.426 1124.66,277.426 1147.3,277.426 " fill="none" id="Texture-to-TextureFilterMode" style="stroke:#181818;stroke-width:1.0;stroke-dasharray:7.0,7.0;"/><polygon fill="#181818" points="1153.3,277.426,1144.3,273.426,1148.3,277.426,1144.3,281.426,1153.3,277.426" style="stroke:#181818;stroke-width:1.0;"/><text fill="#000000" font-family="sans-serif" font-size="13" lengthAdjust="spacing" textLength="41" x="1094.25" y="270.323">&#171;uses&#187;</text></g><!--SRC=[pLTjRzis4FwkNt7mWCNkNANBW648F0DktRG1qWrmW-sZG4jdcmib2YJbnEkotxuZgLVBJjAi1HeWC4NTFVVsY7gaRtYMCyLIY0NJUcQCuil2u6Kiip-uvak1i692On2Sm6kc4IupWsh5OjIdRwmBQbX91TTuPmf5PcofZMAnyO2mm2n15SdbNnYR8F2RWyNxoqZmx0RLn2wDTvuEW947RLovUv5Tbi3mAG3wEu6FESQS2VutCrnc85VGW871D1VCe4kfXHoMpbVy1iKEg3Z3UAQ1GIwvBUXKuGeLPZ62aM0ssFO6dtqOt0Us3REgGjSFruIw_Btgkyc_V0brWpLTkStlAgFhNOwGHeP-oXkK6MsaF4zP7WdSej1TbyZbdZ4HKRqfizPxErtxFnNBFyZ4XhcbvHxQ1HVaMzvVkGiTL8c_aHbLLiI66lizpB6-AClu0RPScO89-BU46uvQpjI33sWsCkdRRoLFmCvlQ5i-nosFyGKaxdS4ly8hQBNSsa7gaCPaGrCKclf4IyMtcFYseox7_GupL1GYLp97PNR0OkAjTQWu3CCr6bkeOmnhfiCeOqvaufYCxDnFg6OVecQzacb3-ywyexCvq8ge_qGA-4dVyiHiEZiRvEjDDKHjalDplQ7CaYWtQdAPiZLExSpj8agOOOV6fPkMD-aDZu0vg364OJZg-zYSN8vZbvvFhZIk0lifjs8-EDxQxQEXnpc62sOptlLHFcbdSDzhGfFU56A5zEpxTWnR9NoESoo5L14HWSMR53FpN9m4SxFvOZYQk1HpqSExxnClOagntLUWdzyIR4S7SooBh4FBBTh1JGwpwfaSzPKCduBlqFKHtfOuHzXhrwsYlXaw-wnh7jZJnZTHVoQLze2O9YoMuh9OqHllSKR5nHBf_VErphCYaueERygQWapsWaRsZ1x35sHL2Jpytx4VO5mLuri-BiiSk_JI_Euv5Dl7UfnXz48lxhZWZ7AtieUaf2JfbHjTaizrkP5yL2InIx5RoFaT2h03To_iKg3fiCTRfwOgWBTPaRRjmOeiUlTZk0x7S3Qt__un6KDPpQWFsLDR7KcwubWA2xA0qeBKgTMILTWouEBTwzalOvZ_T1PTNFq-kpuGgrPg_HWLc5LmES_Ma99TNSm2Snh2sAgKDB-MRvCr7e1lIRtZ0Rm4x4Nu3Oa1caAGIAVbg9B52nHEakiD9sKP797nat-8lfLgwdmST6y5XnpeD3ksxyTt-6uvKiSxhILzFhWyuHHcwxN2TNavzDm6UKkgqLOn2bfwRl3Z02I13bw58IqzGy-RJuc6cK7lPTpsVV6WhsEfUntfOFy4hb5-VXp2YTkWwMAexE4JJZkFnpbC9WL9sUdqg5sFyq_mgRdx1DiM4LlMmNy0]--></g></svg>