<?xml version="1.0" encoding="us-ascii" standalone="no"?><svg xmlns="http://www.w3.org/2000/svg" xmlns:xlink="http://www.w3.org/1999/xlink" contentStyleType="text/css" height="560px" preserveAspectRatio="none" style="width:841px;height:560px;background:#FFFFFF;" version="1.1" viewBox="0 0 841 560" width="841px" zoomAndPan="magnify"><defs/><g><!--cluster Postprocess_pass--><g id="cluster_Postprocess_pass"><rect fill="none" height="547.75" rx="2.5" ry="2.5" style="stroke:#181818;stroke-width:1.0;" width="828" x="7" y="7"/><path d="M141,7 L141,19.0679 L131,29.0679 L7,29.0679 " fill="none" style="stroke:#181818;stroke-width:1.0;"/><text fill="#000000" font-family="sans-serif" font-size="14" font-weight="bold" lengthAdjust="spacing" textLength="124" x="10" y="22.9659">Postprocess_pass</text></g><!--class Postprocess_pass--><g id="elem_Postprocess_pass"><rect codeLine="59" fill="#F1F1F1" height="181.4754" id="Postprocess_pass" rx="2.5" ry="2.5" style="stroke:#181818;stroke-width:0.5;" width="348" x="23" y="173.07"/><ellipse cx="134.25" cy="189.07" fill="#ADD1B2" rx="11" ry="11" style="stroke:#181818;stroke-width:1.0;"/><path d="M134.3594,184.6013 Q133.4375,184.6013 132.7031,184.9138 Q131.9844,185.2263 131.4844,185.82 Q130.9844,186.3981 130.7031,187.2731 Q130.4375,188.1481 130.4375,189.2419 Q130.4375,190.6794 130.875,191.7263 Q131.3281,192.7731 132.1719,193.32 Q133.0313,193.8669 134.3438,193.8669 Q135.125,193.8669 135.8125,193.7419 Q136.5156,193.6013 137.5156,193.2888 L137.5156,195.1638 Q136.6563,195.4919 135.8906,195.6169 Q135.1406,195.7419 134.125,195.7419 Q132.2031,195.7419 130.8906,194.945 Q129.5938,194.1325 128.9375,192.6638 Q128.2813,191.1794 128.2813,189.2106 Q128.2813,187.7888 128.6719,186.6169 Q129.0781,185.4294 129.8594,184.5544 Q130.6406,183.6794 131.7813,183.2106 Q132.9219,182.7263 134.3906,182.7263 Q135.3438,182.7263 136.2344,182.9294 Q137.1406,183.1169 138.0781,183.5856 L137.25,185.3669 Q136.4688,184.9919 135.8125,184.8044 Q135.1563,184.6013 134.3594,184.6013 Z " fill="#000000"/><text fill="#000000" font-family="sans-serif" font-size="14" lengthAdjust="spacing" textLength="117" x="154.75" y="194.502">Postprocess_pass</text><line style="stroke:#181818;stroke-width:0.5;" x1="24" x2="370" y1="205.07" y2="205.07"/><rect fill="none" height="6" style="stroke:#C82930;stroke-width:1.0;" width="6" x="31" y="217.104"/><text fill="#000000" font-family="sans-serif" font-size="14" lengthAdjust="spacing" textLength="254" x="43" y="224.0359">m_gamma_material: Gamma_material</text><rect fill="none" height="6" style="stroke:#C82930;stroke-width:1.0;" width="6" x="31" y="236.1719"/><text fill="#000000" font-family="sans-serif" font-size="14" lengthAdjust="spacing" textLength="299" x="43" y="243.1039">m_screen_geometry: Screen_quad_geometry</text><rect fill="none" height="6" style="stroke:#C82930;stroke-width:1.0;" width="6" x="31" y="255.2398"/><text fill="#000000" font-family="sans-serif" font-size="14" lengthAdjust="spacing" textLength="322" x="43" y="262.1718">m_rhi_global_render_resource: Global_Resource</text><line style="stroke:#181818;stroke-width:1.0;" x1="24" x2="370" y1="270.2738" y2="270.2738"/><ellipse cx="34" cy="285.3077" fill="#84BE84" rx="3" ry="3" style="stroke:#038048;stroke-width:1.0;"/><text fill="#000000" font-family="sans-serif" font-size="14" lengthAdjust="spacing" textLength="125" x="43" y="289.2397">Postprocess_pass()</text><ellipse cx="34" cy="304.3756" fill="#84BE84" rx="3" ry="3" style="stroke:#038048;stroke-width:1.0;"/><text fill="#000000" font-family="sans-serif" font-size="14" lengthAdjust="spacing" textLength="223" x="43" y="308.3076">set_resource_flow(Resource_flow)</text><ellipse cx="34" cy="323.4435" fill="#84BE84" rx="3" ry="3" style="stroke:#038048;stroke-width:1.0;"/><text fill="#000000" font-family="sans-serif" font-size="14" lengthAdjust="spacing" textLength="322" x="43" y="327.3755">set_context(Execution_context) (currently empty)</text><ellipse cx="34" cy="342.5115" fill="#84BE84" rx="3" ry="3" style="stroke:#038048;stroke-width:1.0;"/><text fill="#000000" font-family="sans-serif" font-size="14" lengthAdjust="spacing" textLength="60" x="43" y="346.4434">execute()</text></g><!--class Render_pass--><g id="elem_Render_pass"><rect fill="#F1F1F1" height="48" id="Render_pass" rx="2.5" ry="2.5" style="stroke:#181818;stroke-width:0.5;" width="118" x="23" y="54.54"/><ellipse cx="38" cy="70.54" fill="#ADD1B2" rx="11" ry="11" style="stroke:#181818;stroke-width:1.0;"/><path d="M38.1094,66.0712 Q37.1875,66.0712 36.4531,66.3837 Q35.7344,66.6962 35.2344,67.29 Q34.7344,67.8681 34.4531,68.7431 Q34.1875,69.6181 34.1875,70.7119 Q34.1875,72.1494 34.625,73.1962 Q35.0781,74.2431 35.9219,74.79 Q36.7813,75.3369 38.0938,75.3369 Q38.875,75.3369 39.5625,75.2119 Q40.2656,75.0712 41.2656,74.7587 L41.2656,76.6337 Q40.4063,76.9619 39.6406,77.0869 Q38.8906,77.2119 37.875,77.2119 Q35.9531,77.2119 34.6406,76.415 Q33.3438,75.6025 32.6875,74.1337 Q32.0313,72.6494 32.0313,70.6806 Q32.0313,69.2587 32.4219,68.0869 Q32.8281,66.8994 33.6094,66.0244 Q34.3906,65.1494 35.5313,64.6806 Q36.6719,64.1962 38.1406,64.1962 Q39.0938,64.1962 39.9844,64.3994 Q40.8906,64.5869 41.8281,65.0556 L41,66.8369 Q40.2188,66.4619 39.5625,66.2744 Q38.9063,66.0712 38.1094,66.0712 Z " fill="#000000"/><text fill="#000000" font-family="sans-serif" font-size="14" lengthAdjust="spacing" textLength="86" x="52" y="75.972">Render_pass</text><line style="stroke:#181818;stroke-width:0.5;" x1="24" x2="140" y1="86.54" y2="86.54"/><line style="stroke:#181818;stroke-width:0.5;" x1="24" x2="140" y1="94.54" y2="94.54"/></g><!--class Resource_flow--><g id="elem_Resource_flow"><rect codeLine="70" fill="#F1F1F1" height="67.0679" id="Resource_flow" rx="2.5" ry="2.5" style="stroke:#181818;stroke-width:0.5;" width="457" x="175.5" y="45"/><ellipse cx="351.75" cy="61" fill="#ADD1B2" rx="11" ry="11" style="stroke:#181818;stroke-width:1.0;"/><path d="M351.8594,56.5313 Q350.9375,56.5313 350.2031,56.8438 Q349.4844,57.1563 348.9844,57.75 Q348.4844,58.3281 348.2031,59.2031 Q347.9375,60.0781 347.9375,61.1719 Q347.9375,62.6094 348.375,63.6563 Q348.8281,64.7031 349.6719,65.25 Q350.5313,65.7969 351.8438,65.7969 Q352.625,65.7969 353.3125,65.6719 Q354.0156,65.5313 355.0156,65.2188 L355.0156,67.0938 Q354.1563,67.4219 353.3906,67.5469 Q352.6406,67.6719 351.625,67.6719 Q349.7031,67.6719 348.3906,66.875 Q347.0938,66.0625 346.4375,64.5938 Q345.7813,63.1094 345.7813,61.1406 Q345.7813,59.7188 346.1719,58.5469 Q346.5781,57.3594 347.3594,56.4844 Q348.1406,55.6094 349.2813,55.1406 Q350.4219,54.6563 351.8906,54.6563 Q352.8438,54.6563 353.7344,54.8594 Q354.6406,55.0469 355.5781,55.5156 L354.75,57.2969 Q353.9688,56.9219 353.3125,56.7344 Q352.6563,56.5313 351.8594,56.5313 Z " fill="#000000"/><text fill="#000000" font-family="sans-serif" font-size="14" lengthAdjust="spacing" textLength="96" x="372.25" y="66.432">Resource_flow</text><line style="stroke:#181818;stroke-width:0.5;" x1="176.5" x2="631.5" y1="77" y2="77"/><line style="stroke:#181818;stroke-width:0.5;" x1="176.5" x2="631.5" y1="85" y2="85"/><ellipse cx="186.5" cy="100.034" fill="#84BE84" rx="3" ry="3" style="stroke:#038048;stroke-width:1.0;"/><text fill="#000000" font-family="sans-serif" font-size="14" lengthAdjust="spacing" textLength="431" x="195.5" y="103.9659">texture_in: Color_texture (from Main_pass.color_attachment_out)</text></g><!--class Execution_context--><g id="elem_Execution_context"><rect codeLine="74" fill="#F1F1F1" height="67.0679" id="Execution_context" rx="2.5" ry="2.5" style="stroke:#181818;stroke-width:0.5;" width="152" x="667" y="45"/><ellipse cx="682" cy="61" fill="#ADD1B2" rx="11" ry="11" style="stroke:#181818;stroke-width:1.0;"/><path d="M682.1094,56.5313 Q681.1875,56.5313 680.4531,56.8438 Q679.7344,57.1563 679.2344,57.75 Q678.7344,58.3281 678.4531,59.2031 Q678.1875,60.0781 678.1875,61.1719 Q678.1875,62.6094 678.625,63.6563 Q679.0781,64.7031 679.9219,65.25 Q680.7813,65.7969 682.0938,65.7969 Q682.875,65.7969 683.5625,65.6719 Q684.2656,65.5313 685.2656,65.2188 L685.2656,67.0938 Q684.4063,67.4219 683.6406,67.5469 Q682.8906,67.6719 681.875,67.6719 Q679.9531,67.6719 678.6406,66.875 Q677.3438,66.0625 676.6875,64.5938 Q676.0313,63.1094 676.0313,61.1406 Q676.0313,59.7188 676.4219,58.5469 Q676.8281,57.3594 677.6094,56.4844 Q678.3906,55.6094 679.5313,55.1406 Q680.6719,54.6563 682.1406,54.6563 Q683.0938,54.6563 683.9844,54.8594 Q684.8906,55.0469 685.8281,55.5156 L685,57.2969 Q684.2188,56.9219 683.5625,56.7344 Q682.9063,56.5313 682.1094,56.5313 Z " fill="#000000"/><text fill="#000000" font-family="sans-serif" font-size="14" lengthAdjust="spacing" textLength="120" x="696" y="66.432">Execution_context</text><line style="stroke:#181818;stroke-width:0.5;" x1="668" x2="818" y1="77" y2="77"/><line style="stroke:#181818;stroke-width:0.5;" x1="668" x2="818" y1="85" y2="85"/><text fill="#000000" font-family="sans-serif" font-size="14" lengthAdjust="spacing" textLength="137" x="673" y="103.9659">(empty for this pass)</text></g><!--class Gamma_material--><g id="elem_Gamma_material"><rect codeLine="78" fill="#F1F1F1" height="105.2038" id="Gamma_material" rx="2.5" ry="2.5" style="stroke:#181818;stroke-width:0.5;" width="321" x="29.5" y="433.55"/><ellipse cx="128.75" cy="449.55" fill="#ADD1B2" rx="11" ry="11" style="stroke:#181818;stroke-width:1.0;"/><path d="M128.8594,445.0813 Q127.9375,445.0813 127.2031,445.3938 Q126.4844,445.7063 125.9844,446.3 Q125.4844,446.8781 125.2031,447.7531 Q124.9375,448.6281 124.9375,449.7219 Q124.9375,451.1594 125.375,452.2063 Q125.8281,453.2531 126.6719,453.8 Q127.5313,454.3469 128.8438,454.3469 Q129.625,454.3469 130.3125,454.2219 Q131.0156,454.0813 132.0156,453.7688 L132.0156,455.6438 Q131.1563,455.9719 130.3906,456.0969 Q129.6406,456.2219 128.625,456.2219 Q126.7031,456.2219 125.3906,455.425 Q124.0938,454.6125 123.4375,453.1438 Q122.7813,451.6594 122.7813,449.6906 Q122.7813,448.2688 123.1719,447.0969 Q123.5781,445.9094 124.3594,445.0344 Q125.1406,444.1594 126.2813,443.6906 Q127.4219,443.2063 128.8906,443.2063 Q129.8438,443.2063 130.7344,443.4094 Q131.6406,443.5969 132.5781,444.0656 L131.75,445.8469 Q130.9688,445.4719 130.3125,445.2844 Q129.6563,445.0813 128.8594,445.0813 Z " fill="#000000"/><text fill="#000000" font-family="sans-serif" font-size="14" lengthAdjust="spacing" textLength="114" x="149.25" y="454.982">Gamma_material</text><line style="stroke:#181818;stroke-width:0.5;" x1="30.5" x2="349.5" y1="465.55" y2="465.55"/><ellipse cx="40.5" cy="480.584" fill="none" rx="3" ry="3" style="stroke:#038048;stroke-width:1.0;"/><text fill="#000000" font-family="sans-serif" font-size="14" lengthAdjust="spacing" textLength="160" x="49.5" y="484.5159">shader: Gamma_shader</text><ellipse cx="40.5" cy="499.6519" fill="none" rx="3" ry="3" style="stroke:#038048;stroke-width:1.0;"/><text fill="#000000" font-family="sans-serif" font-size="14" lengthAdjust="spacing" textLength="94" x="49.5" y="503.5839">pipeline_state</text><line style="stroke:#181818;stroke-width:0.5;" x1="30.5" x2="349.5" y1="511.6858" y2="511.6858"/><ellipse cx="40.5" cy="526.7198" fill="#84BE84" rx="3" ry="3" style="stroke:#038048;stroke-width:1.0;"/><text fill="#000000" font-family="sans-serif" font-size="14" lengthAdjust="spacing" textLength="295" x="49.5" y="530.6518">screen_map: Texture (references texture_in)</text></g><!--class Global_Resource--><g id="elem_Global_Resource"><rect codeLine="85" fill="#F1F1F1" height="67.0679" id="Global_Resource" rx="2.5" ry="2.5" style="stroke:#181818;stroke-width:0.5;" width="270" x="385" y="452.61"/><ellipse cx="460.25" cy="468.61" fill="#ADD1B2" rx="11" ry="11" style="stroke:#181818;stroke-width:1.0;"/><path d="M460.3594,464.1413 Q459.4375,464.1413 458.7031,464.4538 Q457.9844,464.7663 457.4844,465.36 Q456.9844,465.9381 456.7031,466.8131 Q456.4375,467.6881 456.4375,468.7819 Q456.4375,470.2194 456.875,471.2663 Q457.3281,472.3131 458.1719,472.86 Q459.0313,473.4069 460.3438,473.4069 Q461.125,473.4069 461.8125,473.2819 Q462.5156,473.1413 463.5156,472.8288 L463.5156,474.7038 Q462.6563,475.0319 461.8906,475.1569 Q461.1406,475.2819 460.125,475.2819 Q458.2031,475.2819 456.8906,474.485 Q455.5938,473.6725 454.9375,472.2038 Q454.2813,470.7194 454.2813,468.7506 Q454.2813,467.3288 454.6719,466.1569 Q455.0781,464.9694 455.8594,464.0944 Q456.6406,463.2194 457.7813,462.7506 Q458.9219,462.2663 460.3906,462.2663 Q461.3438,462.2663 462.2344,462.4694 Q463.1406,462.6569 464.0781,463.1256 L463.25,464.9069 Q462.4688,464.5319 461.8125,464.3444 Q461.1563,464.1413 460.3594,464.1413 Z " fill="#000000"/><text fill="#000000" font-family="sans-serif" font-size="14" lengthAdjust="spacing" textLength="111" x="480.75" y="474.042">Global_Resource</text><line style="stroke:#181818;stroke-width:0.5;" x1="386" x2="654" y1="484.61" y2="484.61"/><ellipse cx="396" cy="499.644" fill="none" rx="3" ry="3" style="stroke:#038048;stroke-width:1.0;"/><text fill="#000000" font-family="sans-serif" font-size="14" lengthAdjust="spacing" textLength="244" x="405" y="503.5759">screen_buffer : Default_FrameBuffer</text><line style="stroke:#181818;stroke-width:0.5;" x1="386" x2="654" y1="511.6779" y2="511.6779"/></g><!--reverse link Render_pass to Postprocess_pass--><g id="link_Render_pass_Postprocess_pass"><path d="M106.1327,117.9935 C117.4427,136.0035 124.31,146.97 140.63,172.98 " fill="none" id="Render_pass-backto-Postprocess_pass" style="stroke:#181818;stroke-width:1.0;"/><polygon fill="none" points="96.56,102.75,101.0515,121.1844,111.2138,114.8026,96.56,102.75" style="stroke:#181818;stroke-width:1.0;"/></g><!--link Postprocess_pass to Gamma_material--><g id="link_Postprocess_pass_Gamma_material"><path codeLine="83" d="M194.14,354.75 C193.3,381.4 192.5922,403.6931 191.8422,427.0931 " fill="none" id="Postprocess_pass-to-Gamma_material" style="stroke:#181818;stroke-width:1.0;stroke-dasharray:7.0,7.0;"/><polygon fill="#181818" points="191.65,433.09,195.9363,424.2228,191.8102,428.0926,187.9404,423.9665,191.65,433.09" style="stroke:#181818;stroke-width:1.0;"/><text fill="#000000" font-family="sans-serif" font-size="13" lengthAdjust="spacing" textLength="27" x="194.08" y="399.447">uses</text></g><!--link Postprocess_pass to Global_Resource--><g id="link_Postprocess_pass_Global_Resource"><path codeLine="88" d="M328.84,354.75 C379.43,389.26 429.0832,423.1291 466.9232,448.9391 " fill="none" id="Postprocess_pass-to-Global_Resource" style="stroke:#181818;stroke-width:1.0;stroke-dasharray:7.0,7.0;"/><polygon fill="#181818" points="471.88,452.32,466.6988,443.9441,467.7494,449.5026,462.1909,450.5531,471.88,452.32" style="stroke:#181818;stroke-width:1.0;"/><text fill="#000000" font-family="sans-serif" font-size="13" lengthAdjust="spacing" textLength="27" x="397.93" y="399.447">uses</text></g><!--SRC=[nPLBZvim483l-HLp2wie-G5MnA7TRYzTjThjtNB8aD05J6sZ9Ahwt-i71cF8uzOBWl6yv_EmX8Pb7-o0y7vaUtwY3PCIjjiNmIfCK_YpM090LXffg85dXVLUmfj-ed0ofmkmXefcl5PQXuH6cozdp5fLyDeV1mRIwMLCAkslOlfPiBAtZ-IzeSsJxjeyHq6WSvBl_FbwtRsjmaIIfrugKL61ahSYGvgN_9IyXLzZnIxhP5B7e8Rs2Bi8VnVpxPjsec_U2iQTa2VMKBxxXPcI1BuLKcs_sw_qTeHH6LFlbV7QwlayOwEErAJG2hpgCcf_vC-qVgpefBrIKpHO5ZLIgRI7BefvXaXjDkcrS0HQYL9RsDmyiQ-ig6_nEfm_J6jlSeFLCNALiPW5hlVrVt2xKKeule_BZf_jpH6ufuqIstShIdiLuPfs5KHwAZH1hzsiqbkPF01bKSynQPGoNd91cL8iErPOAyVlPokDTVVMGwnxZtLRU91Mi8NiKRn-Ld10Ng4Ibm3fWJeBjFFf08Q4DsOEh7noB7kIVt2f6i4pb78Aj4zleZHFjMVwmAgA1Olqw-YxLvEPGAofBqINwWI_MxRlfRssE1RqKF8TAsc7XQTP1t1oF-E5lm-kKt7s6ja7hyGZ5mAIh1Kw8rLU0Aj6NRpPS47iiA_rSaAci-vGiL2EG8Ca5xmAo9w3yrxCkNjfuYQs0iYv07Ki91ZboDTuc7s-VXcxusu9TqTkhFgA4VZfYn2eTnZMEgMWLD-wQ6cR-325q40UPTDjwo7PCHX3jYubjqd1NC-SjQMY5lrFLdepQkHs2Bkmrte9pqmnU343tQ4wwLYsbVP74lnu2Bd-trolqs78X5pRP2JwhO8s6-qq7V41DoPQN2eXTrWbiulHP32CTB7u1m00]--></g></svg>