<?xml version="1.0" encoding="us-ascii" standalone="no"?><svg xmlns="http://www.w3.org/2000/svg" xmlns:xlink="http://www.w3.org/1999/xlink" contentStyleType="text/css" height="560px" preserveAspectRatio="none" style="width:869px;height:560px;background:#FFFFFF;" version="1.1" viewBox="0 0 869 560" width="869px" zoomAndPan="magnify"><defs/><g><!--cluster Main_pass--><g id="cluster_Main_pass"><rect fill="none" height="547.75" rx="2.5" ry="2.5" style="stroke:#181818;stroke-width:1.0;" width="856" x="7" y="7"/><path d="M91.9375,7 L91.9375,19.0679 L81.9375,29.0679 L7,29.0679 " fill="none" style="stroke:#181818;stroke-width:1.0;"/><text fill="#000000" font-family="sans-serif" font-size="14" font-weight="bold" lengthAdjust="spacing" textLength="74.9375" x="10" y="22.9659">Main_pass</text></g><!--class Main_pass--><g id="elem_Main_pass"><rect codeLine="30" fill="#F1F1F1" height="162.4075" id="Main_pass" rx="2.5" ry="2.5" style="stroke:#181818;stroke-width:0.5;" width="297" x="23.5" y="211.21"/><ellipse cx="132.25" cy="227.21" fill="#ADD1B2" rx="11" ry="11" style="stroke:#181818;stroke-width:1.0;"/><path d="M132.3594,222.7412 Q131.4375,222.7412 130.7031,223.0537 Q129.9844,223.3662 129.4844,223.96 Q128.9844,224.5381 128.7031,225.4131 Q128.4375,226.2881 128.4375,227.3819 Q128.4375,228.8194 128.875,229.8662 Q129.3281,230.9131 130.1719,231.46 Q131.0313,232.0069 132.3438,232.0069 Q133.125,232.0069 133.8125,231.8819 Q134.5156,231.7412 135.5156,231.4287 L135.5156,233.3037 Q134.6563,233.6319 133.8906,233.7569 Q133.1406,233.8819 132.125,233.8819 Q130.2031,233.8819 128.8906,233.085 Q127.5938,232.2725 126.9375,230.8037 Q126.2813,229.3194 126.2813,227.3506 Q126.2813,225.9287 126.6719,224.7569 Q127.0781,223.5694 127.8594,222.6944 Q128.6406,221.8194 129.7813,221.3506 Q130.9219,220.8662 132.3906,220.8662 Q133.3438,220.8662 134.2344,221.0694 Q135.1406,221.2569 136.0781,221.7256 L135.25,223.5069 Q134.4688,223.1319 133.8125,222.9444 Q133.1563,222.7412 132.3594,222.7412 Z " fill="#000000"/><text fill="#000000" font-family="sans-serif" font-size="14" lengthAdjust="spacing" textLength="71" x="152.75" y="232.642">Main_pass</text><line style="stroke:#181818;stroke-width:0.5;" x1="24.5" x2="319.5" y1="243.21" y2="243.21"/><rect fill="none" height="6" style="stroke:#C82930;stroke-width:1.0;" width="6" x="31.5" y="255.244"/><text fill="#000000" font-family="sans-serif" font-size="14" lengthAdjust="spacing" textLength="271" x="43.5" y="262.1759">m_context: Main_pass.Execution_context</text><rect fill="none" height="6" style="stroke:#C82930;stroke-width:1.0;" width="6" x="31.5" y="274.3119"/><text fill="#000000" font-family="sans-serif" font-size="14" lengthAdjust="spacing" textLength="152" x="43.5" y="281.2439">Frame_buffer: main_fb</text><line style="stroke:#181818;stroke-width:1.0;" x1="24.5" x2="319.5" y1="289.3458" y2="289.3458"/><ellipse cx="34.5" cy="304.3798" fill="#84BE84" rx="3" ry="3" style="stroke:#038048;stroke-width:1.0;"/><text fill="#000000" font-family="sans-serif" font-size="14" lengthAdjust="spacing" textLength="79" x="43.5" y="308.3118">Main_pass()</text><ellipse cx="34.5" cy="323.4477" fill="#84BE84" rx="3" ry="3" style="stroke:#038048;stroke-width:1.0;"/><text fill="#000000" font-family="sans-serif" font-size="14" lengthAdjust="spacing" textLength="223" x="43.5" y="327.3797">set_resource_flow(Resource_flow)</text><ellipse cx="34.5" cy="342.5156" fill="#84BE84" rx="3" ry="3" style="stroke:#038048;stroke-width:1.0;"/><text fill="#000000" font-family="sans-serif" font-size="14" lengthAdjust="spacing" textLength="203" x="43.5" y="346.4476">set_context(Execution_context)</text><ellipse cx="34.5" cy="361.5835" fill="#84BE84" rx="3" ry="3" style="stroke:#038048;stroke-width:1.0;"/><text fill="#000000" font-family="sans-serif" font-size="14" lengthAdjust="spacing" textLength="60" x="43.5" y="365.5155">execute()</text></g><!--class Render_pass--><g id="elem_Render_pass"><rect fill="#F1F1F1" height="48" id="Render_pass" rx="2.5" ry="2.5" style="stroke:#181818;stroke-width:0.5;" width="118" x="23" y="73.6"/><ellipse cx="38" cy="89.6" fill="#ADD1B2" rx="11" ry="11" style="stroke:#181818;stroke-width:1.0;"/><path d="M38.1094,85.1313 Q37.1875,85.1313 36.4531,85.4438 Q35.7344,85.7563 35.2344,86.35 Q34.7344,86.9281 34.4531,87.8031 Q34.1875,88.6781 34.1875,89.7719 Q34.1875,91.2094 34.625,92.2563 Q35.0781,93.3031 35.9219,93.85 Q36.7813,94.3969 38.0938,94.3969 Q38.875,94.3969 39.5625,94.2719 Q40.2656,94.1313 41.2656,93.8188 L41.2656,95.6938 Q40.4063,96.0219 39.6406,96.1469 Q38.8906,96.2719 37.875,96.2719 Q35.9531,96.2719 34.6406,95.475 Q33.3438,94.6625 32.6875,93.1938 Q32.0313,91.7094 32.0313,89.7406 Q32.0313,88.3188 32.4219,87.1469 Q32.8281,85.9594 33.6094,85.0844 Q34.3906,84.2094 35.5313,83.7406 Q36.6719,83.2563 38.1406,83.2563 Q39.0938,83.2563 39.9844,83.4594 Q40.8906,83.6469 41.8281,84.1156 L41,85.8969 Q40.2188,85.5219 39.5625,85.3344 Q38.9063,85.1313 38.1094,85.1313 Z " fill="#000000"/><text fill="#000000" font-family="sans-serif" font-size="14" lengthAdjust="spacing" textLength="86" x="52" y="95.032">Render_pass</text><line style="stroke:#181818;stroke-width:0.5;" x1="24" x2="140" y1="105.6" y2="105.6"/><line style="stroke:#181818;stroke-width:0.5;" x1="24" x2="140" y1="113.6" y2="113.6"/></g><!--class Execution_context--><g id="elem_Execution_context"><rect codeLine="40" fill="#F1F1F1" height="86.1358" id="Execution_context" rx="2.5" ry="2.5" style="stroke:#181818;stroke-width:0.5;" width="355" x="176.5" y="54.54"/><ellipse cx="289.75" cy="70.54" fill="#ADD1B2" rx="11" ry="11" style="stroke:#181818;stroke-width:1.0;"/><path d="M289.8594,66.0712 Q288.9375,66.0712 288.2031,66.3837 Q287.4844,66.6962 286.9844,67.29 Q286.4844,67.8681 286.2031,68.7431 Q285.9375,69.6181 285.9375,70.7119 Q285.9375,72.1494 286.375,73.1962 Q286.8281,74.2431 287.6719,74.79 Q288.5313,75.3369 289.8438,75.3369 Q290.625,75.3369 291.3125,75.2119 Q292.0156,75.0712 293.0156,74.7587 L293.0156,76.6337 Q292.1563,76.9619 291.3906,77.0869 Q290.6406,77.2119 289.625,77.2119 Q287.7031,77.2119 286.3906,76.415 Q285.0938,75.6025 284.4375,74.1337 Q283.7813,72.6494 283.7813,70.6806 Q283.7813,69.2587 284.1719,68.0869 Q284.5781,66.8994 285.3594,66.0244 Q286.1406,65.1494 287.2813,64.6806 Q288.4219,64.1962 289.8906,64.1962 Q290.8438,64.1962 291.7344,64.3994 Q292.6406,64.5869 293.5781,65.0556 L292.75,66.8369 Q291.9688,66.4619 291.3125,66.2744 Q290.6563,66.0712 289.8594,66.0712 Z " fill="#000000"/><text fill="#000000" font-family="sans-serif" font-size="14" lengthAdjust="spacing" textLength="120" x="310.25" y="75.972">Execution_context</text><line style="stroke:#181818;stroke-width:0.5;" x1="177.5" x2="530.5" y1="86.54" y2="86.54"/><ellipse cx="187.5" cy="101.574" fill="none" rx="3" ry="3" style="stroke:#038048;stroke-width:1.0;"/><text fill="#000000" font-family="sans-serif" font-size="14" lengthAdjust="spacing" textLength="188" x="196.5" y="105.5059">skybox: shared_ptr&lt;Skybox&gt;</text><ellipse cx="187.5" cy="120.6419" fill="none" rx="3" ry="3" style="stroke:#038048;stroke-width:1.0;"/><text fill="#000000" font-family="sans-serif" font-size="14" lengthAdjust="spacing" textLength="329" x="196.5" y="124.5739">render_swap_objects: List&lt;Object_with_Material&gt;</text><line style="stroke:#181818;stroke-width:0.5;" x1="177.5" x2="530.5" y1="132.6758" y2="132.6758"/></g><!--class Resource_flow--><g id="elem_Resource_flow"><rect codeLine="45" fill="#F1F1F1" height="105.2038" id="Resource_flow" rx="2.5" ry="2.5" style="stroke:#181818;stroke-width:0.5;" width="280" x="567" y="45"/><ellipse cx="654.75" cy="61" fill="#ADD1B2" rx="11" ry="11" style="stroke:#181818;stroke-width:1.0;"/><path d="M654.8594,56.5313 Q653.9375,56.5313 653.2031,56.8438 Q652.4844,57.1563 651.9844,57.75 Q651.4844,58.3281 651.2031,59.2031 Q650.9375,60.0781 650.9375,61.1719 Q650.9375,62.6094 651.375,63.6563 Q651.8281,64.7031 652.6719,65.25 Q653.5313,65.7969 654.8438,65.7969 Q655.625,65.7969 656.3125,65.6719 Q657.0156,65.5313 658.0156,65.2188 L658.0156,67.0938 Q657.1563,67.4219 656.3906,67.5469 Q655.6406,67.6719 654.625,67.6719 Q652.7031,67.6719 651.3906,66.875 Q650.0938,66.0625 649.4375,64.5938 Q648.7813,63.1094 648.7813,61.1406 Q648.7813,59.7188 649.1719,58.5469 Q649.5781,57.3594 650.3594,56.4844 Q651.1406,55.6094 652.2813,55.1406 Q653.4219,54.6563 654.8906,54.6563 Q655.8438,54.6563 656.7344,54.8594 Q657.6406,55.0469 658.5781,55.5156 L657.75,57.2969 Q656.9688,56.9219 656.3125,56.7344 Q655.6563,56.5313 654.8594,56.5313 Z " fill="#000000"/><text fill="#000000" font-family="sans-serif" font-size="14" lengthAdjust="spacing" textLength="96" x="675.25" y="66.432">Resource_flow</text><line style="stroke:#181818;stroke-width:0.5;" x1="568" x2="846" y1="77" y2="77"/><ellipse cx="578" cy="92.034" fill="none" rx="3" ry="3" style="stroke:#038048;stroke-width:1.0;"/><text fill="#000000" font-family="sans-serif" font-size="14" lengthAdjust="spacing" textLength="210" x="587" y="95.9659">shadow_map_in: Depth_texture</text><ellipse cx="578" cy="111.1019" fill="none" rx="3" ry="3" style="stroke:#038048;stroke-width:1.0;"/><text fill="#000000" font-family="sans-serif" font-size="14" lengthAdjust="spacing" textLength="241" x="587" y="115.0339">color_attachment_out: Color_texture</text><ellipse cx="578" cy="130.1698" fill="none" rx="3" ry="3" style="stroke:#038048;stroke-width:1.0;"/><text fill="#000000" font-family="sans-serif" font-size="14" lengthAdjust="spacing" textLength="254" x="587" y="134.1018">depth_attachment_out: Depth_texture</text><line style="stroke:#181818;stroke-width:0.5;" x1="568" x2="846" y1="142.2038" y2="142.2038"/></g><!--class Skybox--><g id="elem_Skybox"><rect codeLine="51" fill="#F1F1F1" height="86.1358" id="Skybox" rx="2.5" ry="2.5" style="stroke:#181818;stroke-width:0.5;" width="198" x="73" y="452.61"/><ellipse cx="144.75" cy="468.61" fill="#ADD1B2" rx="11" ry="11" style="stroke:#181818;stroke-width:1.0;"/><path d="M144.8594,464.1413 Q143.9375,464.1413 143.2031,464.4538 Q142.4844,464.7663 141.9844,465.36 Q141.4844,465.9381 141.2031,466.8131 Q140.9375,467.6881 140.9375,468.7819 Q140.9375,470.2194 141.375,471.2663 Q141.8281,472.3131 142.6719,472.86 Q143.5313,473.4069 144.8438,473.4069 Q145.625,473.4069 146.3125,473.2819 Q147.0156,473.1413 148.0156,472.8288 L148.0156,474.7038 Q147.1563,475.0319 146.3906,475.1569 Q145.6406,475.2819 144.625,475.2819 Q142.7031,475.2819 141.3906,474.485 Q140.0938,473.6725 139.4375,472.2038 Q138.7813,470.7194 138.7813,468.7506 Q138.7813,467.3288 139.1719,466.1569 Q139.5781,464.9694 140.3594,464.0944 Q141.1406,463.2194 142.2813,462.7506 Q143.4219,462.2663 144.8906,462.2663 Q145.8438,462.2663 146.7344,462.4694 Q147.6406,462.6569 148.5781,463.1256 L147.75,464.9069 Q146.9688,464.5319 146.3125,464.3444 Q145.6563,464.1413 144.8594,464.1413 Z " fill="#000000"/><text fill="#000000" font-family="sans-serif" font-size="14" lengthAdjust="spacing" textLength="46" x="165.25" y="474.042">Skybox</text><line style="stroke:#181818;stroke-width:0.5;" x1="74" x2="270" y1="484.61" y2="484.61"/><ellipse cx="84" cy="499.644" fill="none" rx="3" ry="3" style="stroke:#038048;stroke-width:1.0;"/><text fill="#000000" font-family="sans-serif" font-size="14" lengthAdjust="spacing" textLength="172" x="93" y="503.5759">material: Skybox_material</text><ellipse cx="84" cy="518.7119" fill="none" rx="3" ry="3" style="stroke:#038048;stroke-width:1.0;"/><text fill="#000000" font-family="sans-serif" font-size="14" lengthAdjust="spacing" textLength="64" x="93" y="522.6439">geometry</text><line style="stroke:#181818;stroke-width:0.5;" x1="74" x2="270" y1="530.7458" y2="530.7458"/></g><!--reverse link Render_pass to Main_pass--><g id="link_Render_pass_Main_pass"><path d="M100.4707,138.1719 C110.8007,160.3119 119.35,178.61 134.38,210.81 " fill="none" id="Render_pass-backto-Main_pass" style="stroke:#181818;stroke-width:1.0;"/><polygon fill="none" points="92.86,121.86,95.0334,140.7088,105.908,135.635,92.86,121.86" style="stroke:#181818;stroke-width:1.0;"/></g><!--link Main_pass to Skybox--><g id="link_Main_pass_Skybox"><path codeLine="55" d="M172,373.83 C172,400.65 172,423.48 172,446.25 " fill="none" id="Main_pass-to-Skybox" style="stroke:#181818;stroke-width:1.0;stroke-dasharray:7.0,7.0;"/><polygon fill="#181818" points="172,452.25,176,443.25,172,447.25,168,443.25,172,452.25" style="stroke:#181818;stroke-width:1.0;"/><text fill="#000000" font-family="sans-serif" font-size="13" lengthAdjust="spacing" textLength="88" x="173" y="418.507">uses (optional)</text></g><!--SRC=[hPNDZfim4CVlUOgvXMYLVG0huj1kjvUkMktsRXao97G1KzieYQg-U_q5CGOsEVI2al5ullpptsjeMVxE3WXlHxRd9zeoAM6tUnQinZI5Fwir0EILiOOUU5ROx2MywYyAPtE-05keQSuRfNr8kEdnondpJfMywPU33TBvvKmg7Qzc-bkoQjWVsOUDjawQTKM1We0FKcJz-dRhVps4XIIRmIfHKO6ITo97MbJybBo6_yQElkfaqiVL3UqI-Wn_L_FZcqvY6Du3Z2SXJwobFFk5kP84lfLIxRxRV-d76KPjJAFN9cgdp-S9MtMafeHEu6B8QFnHF3FwiQEp3avjsM9LDaYbqX5y5lCDaNfyJ9VI4UWaIhr3rzRp-iBAPafhN_TrTPxK2QV3XXbAvr2hZRy6hSVCDJf4qG3S2TXTUCLmsLEQz3gBbO__VidusTuGWNlQAh5xiwRKEmWtdaNSwAdKdBpu4qcNAeYncq1NDZ5ppYNd5HUKASNoOusDSdH-jjQnvzxkZZtZc45rhj6Xc41RxC9LLDpw0NcDIbni40X8ie2wM0v8I7XhfisgpShUcfxD7rogLl0SfVn8K2TkjrJrmEgQ1UBuTVG_LDDS83QqRqMtwWo_ExOVh86_E9RqKF6CLTI3q3EhapXxVx8pqXhtyV_r5PAy4xeoLLq0wrPTxbBSkAv5KVJOM3X7o45I25u7VCzXUa_cPS5FR3zGS07gM4emxZCHnqSz8y3E8H9Upu6-U0H-zYq9r0g6ZIukQ7npMwmdk9eB4TNbbJeiV8nFMBahpYagc2jSiAvIr5wLJzPwCtiKl4yFu1wBDQpXYIa6p-R0CrGddT6Es3udmVD3oFBhkTscLmG8ML8x4ZskeBUDb4zdl2ECoHOtIyWDbiciW9eAhaUyMlq3]--></g></svg>