<?xml version="1.0" encoding="us-ascii" standalone="no"?><svg xmlns="http://www.w3.org/2000/svg" xmlns:xlink="http://www.w3.org/1999/xlink" contentStyleType="text/css" height="623px" preserveAspectRatio="none" style="width:1142px;height:623px;background:#FFFFFF;" version="1.1" viewBox="0 0 1142 623" width="1142px" zoomAndPan="magnify"><defs/><g><!--class Skybox--><g id="elem_Skybox"><rect codeLine="4" fill="#F1F1F1" height="303.8829" id="Skybox" rx="2.5" ry="2.5" style="stroke:#181818;stroke-width:0.5;" width="465" x="7" y="56.309"/><ellipse cx="212.25" cy="72.309" fill="#ADD1B2" rx="11" ry="11" style="stroke:#181818;stroke-width:1.0;"/><path d="M212.3594,67.8403 Q211.4375,67.8403 210.7031,68.1528 Q209.9844,68.4653 209.4844,69.059 Q208.9844,69.6371 208.7031,70.5121 Q208.4375,71.3871 208.4375,72.4809 Q208.4375,73.9184 208.875,74.9653 Q209.3281,76.0121 210.1719,76.559 Q211.0313,77.1059 212.3438,77.1059 Q213.125,77.1059 213.8125,76.9809 Q214.5156,76.8403 215.5156,76.5278 L215.5156,78.4028 Q214.6563,78.7309 213.8906,78.8559 Q213.1406,78.9809 212.125,78.9809 Q210.2031,78.9809 208.8906,78.184 Q207.5938,77.3715 206.9375,75.9028 Q206.2813,74.4184 206.2813,72.4496 Q206.2813,71.0278 206.6719,69.8559 Q207.0781,68.6684 207.8594,67.7934 Q208.6406,66.9184 209.7813,66.4496 Q210.9219,65.9653 212.3906,65.9653 Q213.3438,65.9653 214.2344,66.1684 Q215.1406,66.3559 216.0781,66.8246 L215.25,68.6059 Q214.4688,68.2309 213.8125,68.0434 Q213.1563,67.8403 212.3594,67.8403 Z " fill="#000000"/><text fill="#000000" font-family="sans-serif" font-size="14" lengthAdjust="spacing" textLength="46" x="232.75" y="77.741">Skybox</text><line style="stroke:#181818;stroke-width:0.5;" x1="8" x2="471" y1="88.309" y2="88.309"/><rect fill="none" height="6" style="stroke:#C82930;stroke-width:1.0;" width="6" x="15" y="123.4109"/><text fill="#000000" font-family="sans-serif" font-size="14" lengthAdjust="spacing" textLength="270" x="27" y="130.3429">std::shared_ptr&lt;Geometry&gt; m_geometry</text><rect fill="none" height="6" style="stroke:#C82930;stroke-width:1.0;" width="6" x="15" y="142.4788"/><text fill="#000000" font-family="sans-serif" font-size="14" lengthAdjust="spacing" textLength="253" x="27" y="149.4108">std::shared_ptr&lt;Material&gt; m_material</text><text fill="#000000" font-family="sans-serif" font-size="14" lengthAdjust="spacing" textLength="4" x="27" y="168.4787">&#160;</text><line style="stroke:#181818;stroke-width:1.0;" x1="8" x2="206" y1="105.843" y2="105.843"/><text fill="#000000" font-family="sans-serif" font-size="14" lengthAdjust="spacing" textLength="67" x="206" y="110.7749">Attributes</text><line style="stroke:#181818;stroke-width:1.0;" x1="273" x2="471" y1="105.843" y2="105.843"/><ellipse cx="18" cy="206.6825" fill="#84BE84" rx="3" ry="3" style="stroke:#038048;stroke-width:1.0;"/><text fill="#000000" font-family="sans-serif" font-size="14" lengthAdjust="spacing" textLength="275" x="27" y="210.6145">Skybox(std::shared_ptr&lt;Texture&gt; texture)</text><text fill="#000000" font-family="sans-serif" font-size="14" lengthAdjust="spacing" textLength="4" x="27" y="229.6824">&#160;</text><line style="stroke:#181818;stroke-width:1.0;" x1="8" x2="200" y1="186.1146" y2="186.1146"/><text fill="#000000" font-family="sans-serif" font-size="14" lengthAdjust="spacing" textLength="79" x="200" y="191.0466">Constructor</text><line style="stroke:#181818;stroke-width:1.0;" x1="279" x2="471" y1="186.1146" y2="186.1146"/><ellipse cx="18" cy="267.8863" fill="#84BE84" rx="3" ry="3" style="stroke:#038048;stroke-width:1.0;"/><text fill="#000000" font-family="sans-serif" font-size="14" lengthAdjust="spacing" textLength="299" x="27" y="271.8183">std::shared_ptr&lt;Geometry&gt; geometry() const</text><ellipse cx="18" cy="286.9542" fill="#84BE84" rx="3" ry="3" style="stroke:#038048;stroke-width:1.0;"/><text fill="#000000" font-family="sans-serif" font-size="14" lengthAdjust="spacing" textLength="282" x="27" y="290.8862">std::shared_ptr&lt;Material&gt; material() const</text><text fill="#000000" font-family="sans-serif" font-size="14" lengthAdjust="spacing" textLength="4" x="27" y="309.9541">&#160;</text><line style="stroke:#181818;stroke-width:1.0;" x1="8" x2="210" y1="247.3184" y2="247.3184"/><text fill="#000000" font-family="sans-serif" font-size="14" lengthAdjust="spacing" textLength="59" x="210" y="252.2504">Methods</text><line style="stroke:#181818;stroke-width:1.0;" x1="269" x2="471" y1="247.3184" y2="247.3184"/><ellipse cx="18" cy="348.158" fill="#84BE84" rx="3" ry="3" style="stroke:#038048;stroke-width:1.0;"/><text fill="#000000" font-family="sans-serif" font-size="14" lengthAdjust="spacing" text-decoration="underline" textLength="439" x="27" y="352.0899">std::shared_ptr&lt;Skybox&gt; create(std::shared_ptr&lt;Texture&gt; texture)</text><line style="stroke:#181818;stroke-width:1.0;" x1="8" x2="167" y1="327.59" y2="327.59"/><text fill="#000000" font-family="sans-serif" font-size="14" lengthAdjust="spacing" textLength="145" x="167" y="332.522">Static Factory Method</text><line style="stroke:#181818;stroke-width:1.0;" x1="312" x2="471" y1="327.59" y2="327.59"/></g><!--class Geometry--><g id="elem_Geometry"><rect codeLine="24" fill="#F1F1F1" height="67.0679" id="Geometry" rx="2.5" ry="2.5" style="stroke:#181818;stroke-width:0.5;" width="293" x="842" y="174.719"/><ellipse cx="951.75" cy="190.719" fill="#ADD1B2" rx="11" ry="11" style="stroke:#181818;stroke-width:1.0;"/><path d="M951.8594,186.2503 Q950.9375,186.2503 950.2031,186.5628 Q949.4844,186.8753 948.9844,187.469 Q948.4844,188.0471 948.2031,188.9221 Q947.9375,189.7971 947.9375,190.8909 Q947.9375,192.3284 948.375,193.3753 Q948.8281,194.4221 949.6719,194.969 Q950.5313,195.5159 951.8438,195.5159 Q952.625,195.5159 953.3125,195.3909 Q954.0156,195.2503 955.0156,194.9378 L955.0156,196.8128 Q954.1563,197.1409 953.3906,197.2659 Q952.6406,197.3909 951.625,197.3909 Q949.7031,197.3909 948.3906,196.594 Q947.0938,195.7815 946.4375,194.3128 Q945.7813,192.8284 945.7813,190.8596 Q945.7813,189.4378 946.1719,188.2659 Q946.5781,187.0784 947.3594,186.2034 Q948.1406,185.3284 949.2813,184.8596 Q950.4219,184.3753 951.8906,184.3753 Q952.8438,184.3753 953.7344,184.5784 Q954.6406,184.7659 955.5781,185.2346 L954.75,187.0159 Q953.9688,186.6409 953.3125,186.4534 Q952.6563,186.2503 951.8594,186.2503 Z " fill="#000000"/><text fill="#000000" font-family="sans-serif" font-size="14" lengthAdjust="spacing" textLength="65" x="972.25" y="196.151">Geometry</text><line style="stroke:#181818;stroke-width:0.5;" x1="843" x2="1134" y1="206.719" y2="206.719"/><line style="stroke:#181818;stroke-width:0.5;" x1="843" x2="1134" y1="214.719" y2="214.719"/><ellipse cx="853" cy="229.753" fill="#84BE84" rx="3" ry="3" style="stroke:#038048;stroke-width:1.0;"/><text fill="#000000" font-family="sans-serif" font-size="14" lengthAdjust="spacing" text-decoration="underline" textLength="267" x="862" y="233.6849">std::shared_ptr&lt;Geometry&gt; create_box()</text></g><!--class Texture--><g id="elem_Texture"><rect codeLine="29" fill="#F1F1F1" height="48" id="Texture" rx="2.5" ry="2.5" style="stroke:#181818;stroke-width:0.5;" width="79" x="728" y="184.249"/><ellipse cx="743" cy="200.249" fill="#A9DCDF" rx="11" ry="11" style="stroke:#181818;stroke-width:1.0;"/><path d="M746.3438,205.499 L744.875,201.749 L740.4375,201.749 L739,205.499 L736.875,205.499 L741.8281,192.7803 L743.5781,192.7803 L748.5,205.499 L746.3438,205.499 Z M743,196.5459 Q742.9531,196.3896 742.8281,196.0303 Q742.7031,195.6709 742.5938,195.2959 Q742.4844,194.9053 742.6875,194.8428 Q742.8438,195.0303 742.75,195.3896 Q742.6563,195.7334 742.5625,196.0303 Q742.4688,196.3115 742.3906,196.5459 L741.1563,199.8584 L744.2344,199.8584 L743,196.5459 Z " fill="#000000"/><text fill="#000000" font-family="sans-serif" font-size="14" font-style="italic" lengthAdjust="spacing" textLength="47" x="757" y="205.681">Texture</text><line style="stroke:#181818;stroke-width:0.5;" x1="729" x2="806" y1="216.249" y2="216.249"/><line style="stroke:#181818;stroke-width:0.5;" x1="729" x2="806" y1="224.249" y2="224.249"/></g><!--class Material--><g id="elem_Material"><rect codeLine="34" fill="#F1F1F1" height="67.0679" id="Material" rx="2.5" ry="2.5" style="stroke:#181818;stroke-width:0.5;" width="436" x="21.5" y="421.189"/><ellipse cx="208.25" cy="437.189" fill="#A9DCDF" rx="11" ry="11" style="stroke:#181818;stroke-width:1.0;"/><path d="M211.5938,442.439 L210.125,438.689 L205.6875,438.689 L204.25,442.439 L202.125,442.439 L207.0781,429.7203 L208.8281,429.7203 L213.75,442.439 L211.5938,442.439 Z M208.25,433.4859 Q208.2031,433.3296 208.0781,432.9703 Q207.9531,432.6109 207.8438,432.2359 Q207.7344,431.8453 207.9375,431.7828 Q208.0938,431.9703 208,432.3296 Q207.9063,432.6734 207.8125,432.9703 Q207.7188,433.2515 207.6406,433.4859 L206.4063,436.7984 L209.4844,436.7984 L208.25,433.4859 Z " fill="#000000"/><text fill="#000000" font-family="sans-serif" font-size="14" font-style="italic" lengthAdjust="spacing" textLength="54" x="228.75" y="442.621">Material</text><line style="stroke:#181818;stroke-width:0.5;" x1="22.5" x2="456.5" y1="453.189" y2="453.189"/><line style="stroke:#181818;stroke-width:0.5;" x1="22.5" x2="456.5" y1="461.189" y2="461.189"/><ellipse cx="32.5" cy="476.223" fill="#84BE84" rx="3" ry="3" style="stroke:#038048;stroke-width:1.0;"/><text fill="#000000" font-family="sans-serif" font-size="14" lengthAdjust="spacing" textLength="410" x="41.5" y="480.1549">Material(MaterialType type, std::shared_ptr&lt;Shader&gt; shader)</text></g><!--class SkyboxMaterial--><g id="elem_SkyboxMaterial"><rect codeLine="39" fill="#F1F1F1" height="67.0679" id="SkyboxMaterial" rx="2.5" ry="2.5" style="stroke:#181818;stroke-width:0.5;" width="436" x="21.5" y="549.259"/><ellipse cx="184.25" cy="565.259" fill="#ADD1B2" rx="11" ry="11" style="stroke:#181818;stroke-width:1.0;"/><path d="M184.3594,560.7903 Q183.4375,560.7903 182.7031,561.1028 Q181.9844,561.4153 181.4844,562.009 Q180.9844,562.5871 180.7031,563.4621 Q180.4375,564.3371 180.4375,565.4309 Q180.4375,566.8684 180.875,567.9153 Q181.3281,568.9621 182.1719,569.509 Q183.0313,570.0559 184.3438,570.0559 Q185.125,570.0559 185.8125,569.9309 Q186.5156,569.7903 187.5156,569.4778 L187.5156,571.3528 Q186.6563,571.6809 185.8906,571.8059 Q185.1406,571.9309 184.125,571.9309 Q182.2031,571.9309 180.8906,571.134 Q179.5938,570.3215 178.9375,568.8528 Q178.2813,567.3684 178.2813,565.3996 Q178.2813,563.9778 178.6719,562.8059 Q179.0781,561.6184 179.8594,560.7434 Q180.6406,559.8684 181.7813,559.3996 Q182.9219,558.9153 184.3906,558.9153 Q185.3438,558.9153 186.2344,559.1184 Q187.1406,559.3059 188.0781,559.7746 L187.25,561.5559 Q186.4688,561.1809 185.8125,560.9934 Q185.1563,560.7903 184.3594,560.7903 Z " fill="#000000"/><text fill="#000000" font-family="sans-serif" font-size="14" lengthAdjust="spacing" textLength="102" x="204.75" y="570.691">SkyboxMaterial</text><line style="stroke:#181818;stroke-width:0.5;" x1="22.5" x2="456.5" y1="581.259" y2="581.259"/><line style="stroke:#181818;stroke-width:0.5;" x1="22.5" x2="456.5" y1="589.259" y2="589.259"/><ellipse cx="32.5" cy="604.293" fill="#84BE84" rx="3" ry="3" style="stroke:#038048;stroke-width:1.0;"/><text fill="#000000" font-family="sans-serif" font-size="14" lengthAdjust="spacing" textLength="410" x="41.5" y="608.2249">Material(MaterialType type, std::shared_ptr&lt;Shader&gt; shader)</text></g><!--class Texture_cubemap--><g id="elem_Texture_cubemap"><rect fill="#F1F1F1" height="48" id="Texture_cubemap" rx="2.5" ry="2.5" style="stroke:#181818;stroke-width:0.5;" width="152" x="691.5" y="430.729"/><ellipse cx="706.5" cy="446.729" fill="#ADD1B2" rx="11" ry="11" style="stroke:#181818;stroke-width:1.0;"/><path d="M706.6094,442.2603 Q705.6875,442.2603 704.9531,442.5728 Q704.2344,442.8853 703.7344,443.479 Q703.2344,444.0571 702.9531,444.9321 Q702.6875,445.8071 702.6875,446.9009 Q702.6875,448.3384 703.125,449.3853 Q703.5781,450.4321 704.4219,450.979 Q705.2813,451.5259 706.5938,451.5259 Q707.375,451.5259 708.0625,451.4009 Q708.7656,451.2603 709.7656,450.9478 L709.7656,452.8228 Q708.9063,453.1509 708.1406,453.2759 Q707.3906,453.4009 706.375,453.4009 Q704.4531,453.4009 703.1406,452.604 Q701.8438,451.7915 701.1875,450.3228 Q700.5313,448.8384 700.5313,446.8696 Q700.5313,445.4478 700.9219,444.2759 Q701.3281,443.0884 702.1094,442.2134 Q702.8906,441.3384 704.0313,440.8696 Q705.1719,440.3853 706.6406,440.3853 Q707.5938,440.3853 708.4844,440.5884 Q709.3906,440.7759 710.3281,441.2446 L709.5,443.0259 Q708.7188,442.6509 708.0625,442.4634 Q707.4063,442.2603 706.6094,442.2603 Z " fill="#000000"/><text fill="#000000" font-family="sans-serif" font-size="14" lengthAdjust="spacing" textLength="120" x="720.5" y="452.161">Texture_cubemap</text><line style="stroke:#181818;stroke-width:0.5;" x1="692.5" x2="842.5" y1="462.729" y2="462.729"/><line style="stroke:#181818;stroke-width:0.5;" x1="692.5" x2="842.5" y1="470.729" y2="470.729"/></g><!--reverse link Material to SkyboxMaterial--><g id="link_Material_SkyboxMaterial"><path d="M239.5,506.519 C239.5,525.199 239.5,530.519 239.5,549.169 " fill="none" id="Material-backto-SkyboxMaterial" style="stroke:#181818;stroke-width:1.0;"/><polygon fill="none" points="239.5,488.519,233.5,506.519,245.5,506.519,239.5,488.519" style="stroke:#181818;stroke-width:1.0;"/></g><!--reverse link Skybox to Geometry--><g id="link_Skybox_Geometry"><path codeLine="51" d="M483.437,105.2518 C611.097,57.0718 744.57,18.219 807,41.309 C876.06,66.859 934.25,133.439 965.01,174.379 " fill="none" id="Skybox-backto-Geometry" style="stroke:#181818;stroke-width:1.0;"/><polygon fill="none" points="472.21,109.489,479.2359,111.1128,483.437,105.2518,476.4111,103.6281,472.21,109.489" style="stroke:#181818;stroke-width:1.0;"/><text fill="#000000" font-family="sans-serif" font-size="13" lengthAdjust="spacing" textLength="7" x="479.9606" y="102.8781">1</text><text fill="#000000" font-family="sans-serif" font-size="13" lengthAdjust="spacing" textLength="7" x="952.6963" y="163.0031">1</text></g><!--link Skybox to Geometry--><g id="link_Skybox_Geometry"><path codeLine="60" d="M472.4,86.219 C519.57,66.739 569.7,49.609 618.5,39.219 C708.36,20.089 741.34,17.259 824.5,56.309 C882.29,83.449 929.7377,133.7994 958.9777,169.6494 " fill="none" id="Skybox-to-Geometry" style="stroke:#181818;stroke-width:1.0;stroke-dasharray:7.0,7.0;"/><polygon fill="#181818" points="962.77,174.299,960.1813,164.7964,959.6098,170.4244,953.9819,169.8528,962.77,174.299" style="stroke:#181818;stroke-width:1.0;"/><text fill="#000000" font-family="sans-serif" font-size="13" lengthAdjust="spacing" textLength="74" x="619.5" y="22.206">create_box()</text></g><!--reverse link Skybox to Material--><g id="link_Skybox_Material"><path codeLine="52" d="M239.5,372.609 C239.5,395.269 239.5,404.509 239.5,420.969 " fill="none" id="Skybox-backto-Material" style="stroke:#181818;stroke-width:1.0;"/><polygon fill="none" points="239.5,360.609,235.5,366.609,239.5,372.609,243.5,366.609,239.5,360.609" style="stroke:#181818;stroke-width:1.0;"/><text fill="#000000" font-family="sans-serif" font-size="13" lengthAdjust="spacing" textLength="7" x="232.3305" y="382.3147">1</text><text fill="#000000" font-family="sans-serif" font-size="13" lengthAdjust="spacing" textLength="7" x="231.7781" y="409.2239">1</text></g><!--reverse link Texture to Texture_cubemap--><g id="link_Texture_Texture_cubemap"><path codeLine="55" d="M767.5,250.689 C767.5,297.419 767.5,383.689 767.5,430.359 " fill="none" id="Texture-backto-Texture_cubemap" style="stroke:#181818;stroke-width:1.0;"/><polygon fill="none" points="767.5,232.689,761.5,250.689,773.5,250.689,767.5,232.689" style="stroke:#181818;stroke-width:1.0;"/></g><!--link Skybox to Texture--><g id="link_Skybox_Texture"><path codeLine="59" d="M472.24,208.249 C569.56,208.249 666.62,208.249 721.53,208.249 " fill="none" id="Skybox-to-Texture" style="stroke:#181818;stroke-width:1.0;stroke-dasharray:7.0,7.0;"/><polygon fill="#181818" points="727.53,208.249,718.53,204.249,722.53,208.249,718.53,212.249,727.53,208.249" style="stroke:#181818;stroke-width:1.0;"/><text fill="#000000" font-family="sans-serif" font-size="13" lengthAdjust="spacing" textLength="220" x="490" y="201.146">uses in constructor for type checking</text></g><!--SRC=[hLJ1Rjim3BtxAuXUac2fX-re506o5XjwoAKjTZLacRQ5sfOXobkDhly-ofOSBrcA7UQ3euZKu-FZi-XPjPqmeW5P2wAzjKPblSLxgTllYbHM8nIY9eoY5Ho4Qk7nUSZqovGUZU-mzHe1FzVNCACG_visWMoU95G9WtdQMNFp3NM3rWmxQDBIho-a7eH5eqJjKXk_ZaAjMzsIDRsqseHY7poXzIdG4xxOtk0ExBJOZEahk6yPj1LrFO3aDq4WboJI85TC7Tec3kb50015u47JptTRcBA382br5PDbo9ds-n2opx0HtHcEtr-WXEuFQ2kTqx7pop87aTSRa4wp2mSMOllLV20KVRJ2AWbVXHDzy1oE55vfZB-TGK_Tx7nt_p2TDsUw1wmvE-T1irYtpcyip9fKqzMgK1meUFAsOXcPfJiAXT4DT0P_ADqJv4gKx6_QUBC6HRnTt-5xr6xf0Z_11-GAXAqb445R5eMFTxW5ZCjuom4tkTZr8J9sAGisVJTXufx32hu8GXzoxR09Pt_OeKCQCKv1mgWOnRSITjPXySI7HuJj-JGgaQFPESRyEugz_9fdSAQ1RRwezj_AkSVFLx71AjMHs_2toRui3PPJYESz8e7-sQ9ncPl8frrzkWBDfdI_ysZ_5ZpCDqSKrB_vnR6JZs_aT8STzuojLEorZx0dqb9DL09qR5HPsNWtZpA1tZcJRqYvk996SpfLP8MIxzhoxFnCEldJPb7q6m00]--></g></svg>