<?xml version="1.0" encoding="us-ascii" standalone="no"?><svg xmlns="http://www.w3.org/2000/svg" xmlns:xlink="http://www.w3.org/1999/xlink" contentStyleType="text/css" height="1006px" preserveAspectRatio="none" style="width:875px;height:1006px;background:#FFFFFF;" version="1.1" viewBox="0 0 875 1006" width="875px" zoomAndPan="magnify"><defs/><g><text fill="#000000" font-family="sans-serif" font-size="14" font-weight="bold" lengthAdjust="spacing" textLength="259.375" x="300.8125" y="24.9659">&#38452;&#24433;&#25237;&#23556;&#31995;&#32479; (Shadow Caster System)</text><!--class Component_base--><g id="elem_Component_base"><rect codeLine="11" fill="#F1F1F1" height="48" id="Component_base" rx="2.5" ry="2.5" style="stroke:#181818;stroke-width:0.5;" width="139" x="306.5" y="56.6079"/><ellipse cx="321.5" cy="72.6079" fill="#A9DCDF" rx="11" ry="11" style="stroke:#181818;stroke-width:1.0;"/><path d="M324.8438,77.8579 L323.375,74.1079 L318.9375,74.1079 L317.5,77.8579 L315.375,77.8579 L320.3281,65.1392 L322.0781,65.1392 L327,77.8579 L324.8438,77.8579 Z M321.5,68.9048 Q321.4531,68.7485 321.3281,68.3892 Q321.2031,68.0298 321.0938,67.6548 Q320.9844,67.2642 321.1875,67.2017 Q321.3438,67.3892 321.25,67.7485 Q321.1563,68.0923 321.0625,68.3892 Q320.9688,68.6704 320.8906,68.9048 L319.6563,72.2173 L322.7344,72.2173 L321.5,68.9048 Z " fill="#000000"/><text fill="#000000" font-family="sans-serif" font-size="14" font-style="italic" lengthAdjust="spacing" textLength="107" x="335.5" y="78.0399">Component_base</text><line style="stroke:#181818;stroke-width:0.5;" x1="307.5" x2="444.5" y1="88.6079" y2="88.6079"/><line style="stroke:#181818;stroke-width:0.5;" x1="307.5" x2="444.5" y1="96.6079" y2="96.6079"/></g><!--class GameObject--><g id="elem_GameObject"><rect codeLine="17" fill="#F1F1F1" height="67.0679" id="GameObject" rx="2.5" ry="2.5" style="stroke:#181818;stroke-width:0.5;" width="377" x="480.5" y="47.0679"/><ellipse cx="623.25" cy="63.0679" fill="#ADD1B2" rx="11" ry="11" style="stroke:#181818;stroke-width:1.0;"/><path d="M623.3594,58.5992 Q622.4375,58.5992 621.7031,58.9117 Q620.9844,59.2242 620.4844,59.8179 Q619.9844,60.396 619.7031,61.271 Q619.4375,62.146 619.4375,63.2398 Q619.4375,64.6773 619.875,65.7242 Q620.3281,66.771 621.1719,67.3179 Q622.0313,67.8648 623.3438,67.8648 Q624.125,67.8648 624.8125,67.7398 Q625.5156,67.5992 626.5156,67.2867 L626.5156,69.1617 Q625.6563,69.4898 624.8906,69.6148 Q624.1406,69.7398 623.125,69.7398 Q621.2031,69.7398 619.8906,68.9429 Q618.5938,68.1304 617.9375,66.6617 Q617.2813,65.1773 617.2813,63.2085 Q617.2813,61.7867 617.6719,60.6148 Q618.0781,59.4273 618.8594,58.5523 Q619.6406,57.6773 620.7813,57.2085 Q621.9219,56.7242 623.3906,56.7242 Q624.3438,56.7242 625.2344,56.9273 Q626.1406,57.1148 627.0781,57.5835 L626.25,59.3648 Q625.4688,58.9898 624.8125,58.8023 Q624.1563,58.5992 623.3594,58.5992 Z " fill="#000000"/><text fill="#000000" font-family="sans-serif" font-size="14" lengthAdjust="spacing" textLength="83" x="643.75" y="68.4999">GameObject</text><line style="stroke:#181818;stroke-width:0.5;" x1="481.5" x2="856.5" y1="79.0679" y2="79.0679"/><rect fill="none" height="6" style="stroke:#C82930;stroke-width:1.0;" width="6" x="488.5" y="91.1019"/><text fill="#000000" font-family="sans-serif" font-size="14" lengthAdjust="spacing" textLength="351" x="500.5" y="98.0339">List&lt;Component_base&gt; components ' &#21253;&#21547;&#30340;&#32452;&#20214;&#21015;&#34920;</text><line style="stroke:#181818;stroke-width:0.5;" x1="481.5" x2="856.5" y1="106.1358" y2="106.1358"/></g><!--class Light--><g id="elem_Light"><rect codeLine="23" fill="#F1F1F1" height="105.2038" id="Light" rx="2.5" ry="2.5" style="stroke:#181818;stroke-width:0.5;" width="118" x="748" y="202.6779"/><ellipse cx="787.3" cy="218.6779" fill="#A9DCDF" rx="11" ry="11" style="stroke:#181818;stroke-width:1.0;"/><path d="M790.6438,223.9279 L789.175,220.1779 L784.7375,220.1779 L783.3,223.9279 L781.175,223.9279 L786.1281,211.2092 L787.8781,211.2092 L792.8,223.9279 L790.6438,223.9279 Z M787.3,214.9748 Q787.2531,214.8185 787.1281,214.4592 Q787.0031,214.0998 786.8938,213.7248 Q786.7844,213.3342 786.9875,213.2717 Q787.1438,213.4592 787.05,213.8185 Q786.9563,214.1623 786.8625,214.4592 Q786.7688,214.7404 786.6906,214.9748 L785.4563,218.2873 L788.5344,218.2873 L787.3,214.9748 Z " fill="#000000"/><text fill="#000000" font-family="sans-serif" font-size="14" font-style="italic" lengthAdjust="spacing" textLength="32" x="806.7" y="224.1099">Light</text><line style="stroke:#181818;stroke-width:0.5;" x1="749" x2="865" y1="234.6779" y2="234.6779"/><rect fill="none" height="6" style="stroke:#C82930;stroke-width:1.0;" width="6" x="756" y="246.7119"/><text fill="#000000" font-family="sans-serif" font-size="14" lengthAdjust="spacing" textLength="72" x="768" y="253.6439">Color color</text><rect fill="none" height="6" style="stroke:#C82930;stroke-width:1.0;" width="6" x="756" y="265.7798"/><text fill="#000000" font-family="sans-serif" font-size="14" lengthAdjust="spacing" textLength="92" x="768" y="272.7118">float intensity</text><rect fill="none" height="6" style="stroke:#C82930;stroke-width:1.0;" width="6" x="756" y="284.8477"/><text fill="#000000" font-family="sans-serif" font-size="14" lengthAdjust="spacing" textLength="74" x="768" y="291.7797">Node node</text><line style="stroke:#181818;stroke-width:0.5;" x1="749" x2="865" y1="299.8817" y2="299.8817"/></g><!--class Directional_light--><g id="elem_Directional_light"><rect codeLine="31" fill="#F1F1F1" height="48" id="Directional_light" rx="2.5" ry="2.5" style="stroke:#181818;stroke-width:0.5;" width="142" x="726" y="425.0079"/><ellipse cx="741" cy="441.0079" fill="#ADD1B2" rx="11" ry="11" style="stroke:#181818;stroke-width:1.0;"/><path d="M741.1094,436.5392 Q740.1875,436.5392 739.4531,436.8517 Q738.7344,437.1642 738.2344,437.7579 Q737.7344,438.336 737.4531,439.211 Q737.1875,440.086 737.1875,441.1798 Q737.1875,442.6173 737.625,443.6642 Q738.0781,444.711 738.9219,445.2579 Q739.7813,445.8048 741.0938,445.8048 Q741.875,445.8048 742.5625,445.6798 Q743.2656,445.5392 744.2656,445.2267 L744.2656,447.1017 Q743.4063,447.4298 742.6406,447.5548 Q741.8906,447.6798 740.875,447.6798 Q738.9531,447.6798 737.6406,446.8829 Q736.3438,446.0704 735.6875,444.6017 Q735.0313,443.1173 735.0313,441.1485 Q735.0313,439.7267 735.4219,438.5548 Q735.8281,437.3673 736.6094,436.4923 Q737.3906,435.6173 738.5313,435.1485 Q739.6719,434.6642 741.1406,434.6642 Q742.0938,434.6642 742.9844,434.8673 Q743.8906,435.0548 744.8281,435.5235 L744,437.3048 Q743.2188,436.9298 742.5625,436.7423 Q741.9063,436.5392 741.1094,436.5392 Z " fill="#000000"/><text fill="#000000" font-family="sans-serif" font-size="14" lengthAdjust="spacing" textLength="110" x="755" y="446.4399">Directional_light</text><line style="stroke:#181818;stroke-width:0.5;" x1="727" x2="867" y1="457.0079" y2="457.0079"/><line style="stroke:#181818;stroke-width:0.5;" x1="727" x2="867" y1="465.0079" y2="465.0079"/></g><!--class Camera--><g id="elem_Camera"><rect codeLine="38" fill="#F1F1F1" height="48" id="Camera" rx="2.5" ry="2.5" style="stroke:#181818;stroke-width:0.5;" width="81" x="496.5" y="842.1579"/><ellipse cx="511.5" cy="858.1579" fill="#A9DCDF" rx="11" ry="11" style="stroke:#181818;stroke-width:1.0;"/><path d="M514.8438,863.4079 L513.375,859.6579 L508.9375,859.6579 L507.5,863.4079 L505.375,863.4079 L510.3281,850.6892 L512.0781,850.6892 L517,863.4079 L514.8438,863.4079 Z M511.5,854.4548 Q511.4531,854.2985 511.3281,853.9392 Q511.2031,853.5798 511.0938,853.2048 Q510.9844,852.8142 511.1875,852.7517 Q511.3438,852.9392 511.25,853.2985 Q511.1563,853.6423 511.0625,853.9392 Q510.9688,854.2204 510.8906,854.4548 L509.6563,857.7673 L512.7344,857.7673 L511.5,854.4548 Z " fill="#000000"/><text fill="#000000" font-family="sans-serif" font-size="14" font-style="italic" lengthAdjust="spacing" textLength="49" x="525.5" y="863.5899">Camera</text><line style="stroke:#181818;stroke-width:0.5;" x1="497.5" x2="576.5" y1="874.1579" y2="874.1579"/><line style="stroke:#181818;stroke-width:0.5;" x1="497.5" x2="576.5" y1="882.1579" y2="882.1579"/></g><!--class Orthographic_camera--><g id="elem_Orthographic_camera"><rect codeLine="43" fill="#F1F1F1" height="48" id="Orthographic_camera" rx="2.5" ry="2.5" style="stroke:#181818;stroke-width:0.5;" width="179" x="633.5" y="951.1579"/><ellipse cx="648.5" cy="967.1579" fill="#ADD1B2" rx="11" ry="11" style="stroke:#181818;stroke-width:1.0;"/><path d="M648.6094,962.6892 Q647.6875,962.6892 646.9531,963.0017 Q646.2344,963.3142 645.7344,963.9079 Q645.2344,964.486 644.9531,965.361 Q644.6875,966.236 644.6875,967.3298 Q644.6875,968.7673 645.125,969.8142 Q645.5781,970.861 646.4219,971.4079 Q647.2813,971.9548 648.5938,971.9548 Q649.375,971.9548 650.0625,971.8298 Q650.7656,971.6892 651.7656,971.3767 L651.7656,973.2517 Q650.9063,973.5798 650.1406,973.7048 Q649.3906,973.8298 648.375,973.8298 Q646.4531,973.8298 645.1406,973.0329 Q643.8438,972.2204 643.1875,970.7517 Q642.5313,969.2673 642.5313,967.2985 Q642.5313,965.8767 642.9219,964.7048 Q643.3281,963.5173 644.1094,962.6423 Q644.8906,961.7673 646.0313,961.2985 Q647.1719,960.8142 648.6406,960.8142 Q649.5938,960.8142 650.4844,961.0173 Q651.3906,961.2048 652.3281,961.6735 L651.5,963.4548 Q650.7188,963.0798 650.0625,962.8923 Q649.4063,962.6892 648.6094,962.6892 Z " fill="#000000"/><text fill="#000000" font-family="sans-serif" font-size="14" lengthAdjust="spacing" textLength="147" x="662.5" y="972.5899">Orthographic_camera</text><line style="stroke:#181818;stroke-width:0.5;" x1="634.5" x2="811.5" y1="983.1579" y2="983.1579"/><line style="stroke:#181818;stroke-width:0.5;" x1="634.5" x2="811.5" y1="991.1579" y2="991.1579"/></g><!--class Perspective_camera--><g id="elem_Perspective_camera"><rect codeLine="48" fill="#F1F1F1" height="48" id="Perspective_camera" rx="2.5" ry="2.5" style="stroke:#181818;stroke-width:0.5;" width="165" x="433.5" y="951.1579"/><ellipse cx="448.5" cy="967.1579" fill="#ADD1B2" rx="11" ry="11" style="stroke:#181818;stroke-width:1.0;"/><path d="M448.6094,962.6892 Q447.6875,962.6892 446.9531,963.0017 Q446.2344,963.3142 445.7344,963.9079 Q445.2344,964.486 444.9531,965.361 Q444.6875,966.236 444.6875,967.3298 Q444.6875,968.7673 445.125,969.8142 Q445.5781,970.861 446.4219,971.4079 Q447.2813,971.9548 448.5938,971.9548 Q449.375,971.9548 450.0625,971.8298 Q450.7656,971.6892 451.7656,971.3767 L451.7656,973.2517 Q450.9063,973.5798 450.1406,973.7048 Q449.3906,973.8298 448.375,973.8298 Q446.4531,973.8298 445.1406,973.0329 Q443.8438,972.2204 443.1875,970.7517 Q442.5313,969.2673 442.5313,967.2985 Q442.5313,965.8767 442.9219,964.7048 Q443.3281,963.5173 444.1094,962.6423 Q444.8906,961.7673 446.0313,961.2985 Q447.1719,960.8142 448.6406,960.8142 Q449.5938,960.8142 450.4844,961.0173 Q451.3906,961.2048 452.3281,961.6735 L451.5,963.4548 Q450.7188,963.0798 450.0625,962.8923 Q449.4063,962.6892 448.6094,962.6892 Z " fill="#000000"/><text fill="#000000" font-family="sans-serif" font-size="14" lengthAdjust="spacing" textLength="133" x="462.5" y="972.5899">Perspective_camera</text><line style="stroke:#181818;stroke-width:0.5;" x1="434.5" x2="597.5" y1="983.1579" y2="983.1579"/><line style="stroke:#181818;stroke-width:0.5;" x1="434.5" x2="597.5" y1="991.1579" y2="991.1579"/></g><!--class Shadow_map--><g id="elem_Shadow_map"><rect codeLine="54" fill="#F1F1F1" height="48" id="Shadow_map" rx="2.5" ry="2.5" style="stroke:#181818;stroke-width:0.5;" width="121" x="282.5" y="842.1579"/><ellipse cx="297.5" cy="858.1579" fill="#ADD1B2" rx="11" ry="11" style="stroke:#181818;stroke-width:1.0;"/><path d="M297.6094,853.6892 Q296.6875,853.6892 295.9531,854.0017 Q295.2344,854.3142 294.7344,854.9079 Q294.2344,855.486 293.9531,856.361 Q293.6875,857.236 293.6875,858.3298 Q293.6875,859.7673 294.125,860.8142 Q294.5781,861.861 295.4219,862.4079 Q296.2813,862.9548 297.5938,862.9548 Q298.375,862.9548 299.0625,862.8298 Q299.7656,862.6892 300.7656,862.3767 L300.7656,864.2517 Q299.9063,864.5798 299.1406,864.7048 Q298.3906,864.8298 297.375,864.8298 Q295.4531,864.8298 294.1406,864.0329 Q292.8438,863.2204 292.1875,861.7517 Q291.5313,860.2673 291.5313,858.2985 Q291.5313,856.8767 291.9219,855.7048 Q292.3281,854.5173 293.1094,853.6423 Q293.8906,852.7673 295.0313,852.2985 Q296.1719,851.8142 297.6406,851.8142 Q298.5938,851.8142 299.4844,852.0173 Q300.3906,852.2048 301.3281,852.6735 L300.5,854.4548 Q299.7188,854.0798 299.0625,853.8923 Q298.4063,853.6892 297.6094,853.6892 Z " fill="#000000"/><text fill="#000000" font-family="sans-serif" font-size="14" lengthAdjust="spacing" textLength="89" x="311.5" y="863.5899">Shadow_map</text><line style="stroke:#181818;stroke-width:0.5;" x1="283.5" x2="402.5" y1="874.1579" y2="874.1579"/><line style="stroke:#181818;stroke-width:0.5;" x1="283.5" x2="402.5" y1="882.1579" y2="882.1579"/></g><!--class LogicSwapData--><g id="elem_LogicSwapData"><rect codeLine="60" fill="#F1F1F1" height="48" id="LogicSwapData" rx="2.5" ry="2.5" style="stroke:#181818;stroke-width:0.5;" width="134" x="7" y="425.0079"/><ellipse cx="22" cy="441.0079" fill="#ADD1B2" rx="11" ry="11" style="stroke:#181818;stroke-width:1.0;"/><path d="M22.1094,436.5392 Q21.1875,436.5392 20.4531,436.8517 Q19.7344,437.1642 19.2344,437.7579 Q18.7344,438.336 18.4531,439.211 Q18.1875,440.086 18.1875,441.1798 Q18.1875,442.6173 18.625,443.6642 Q19.0781,444.711 19.9219,445.2579 Q20.7813,445.8048 22.0938,445.8048 Q22.875,445.8048 23.5625,445.6798 Q24.2656,445.5392 25.2656,445.2267 L25.2656,447.1017 Q24.4063,447.4298 23.6406,447.5548 Q22.8906,447.6798 21.875,447.6798 Q19.9531,447.6798 18.6406,446.8829 Q17.3438,446.0704 16.6875,444.6017 Q16.0313,443.1173 16.0313,441.1485 Q16.0313,439.7267 16.4219,438.5548 Q16.8281,437.3673 17.6094,436.4923 Q18.3906,435.6173 19.5313,435.1485 Q20.6719,434.6642 22.1406,434.6642 Q23.0938,434.6642 23.9844,434.8673 Q24.8906,435.0548 25.8281,435.5235 L25,437.3048 Q24.2188,436.9298 23.5625,436.7423 Q22.9063,436.5392 22.1094,436.5392 Z " fill="#000000"/><text fill="#000000" font-family="sans-serif" font-size="14" lengthAdjust="spacing" textLength="102" x="36" y="446.4399">LogicSwapData</text><line style="stroke:#181818;stroke-width:0.5;" x1="8" x2="140" y1="457.0079" y2="457.0079"/><line style="stroke:#181818;stroke-width:0.5;" x1="8" x2="140" y1="465.0079" y2="465.0079"/></g><!--class Shadow_caster--><g id="elem_Shadow_caster"><rect codeLine="70" fill="#F1F1F1" height="200.5433" id="Shadow_caster" rx="2.5" ry="2.5" style="stroke:#181818;stroke-width:0.5;" width="492" x="178" y="562.6179"/><ellipse cx="373.25" cy="578.6179" fill="#A9DCDF" rx="11" ry="11" style="stroke:#181818;stroke-width:1.0;"/><path d="M376.5938,583.8679 L375.125,580.1179 L370.6875,580.1179 L369.25,583.8679 L367.125,583.8679 L372.0781,571.1492 L373.8281,571.1492 L378.75,583.8679 L376.5938,583.8679 Z M373.25,574.9148 Q373.2031,574.7585 373.0781,574.3992 Q372.9531,574.0398 372.8438,573.6648 Q372.7344,573.2742 372.9375,573.2117 Q373.0938,573.3992 373,573.7585 Q372.9063,574.1023 372.8125,574.3992 Q372.7188,574.6804 372.6406,574.9148 L371.4063,578.2273 L374.4844,578.2273 L373.25,574.9148 Z " fill="#000000"/><text fill="#000000" font-family="sans-serif" font-size="14" font-style="italic" lengthAdjust="spacing" textLength="93" x="393.75" y="584.0499">Shadow_caster</text><line style="stroke:#181818;stroke-width:0.5;" x1="179" x2="669" y1="594.6179" y2="594.6179"/><rect fill="none" height="6" style="stroke:#C82930;stroke-width:1.0;" width="6" x="186" y="606.6519"/><text fill="#000000" font-family="sans-serif" font-size="14" lengthAdjust="spacing" textLength="455" x="198" y="613.5839">std::shared_ptr&lt;Shadow_map&gt; m_shadow_map ' &#38452;&#24433;&#36148;&#22270;&#30340;&#20849;&#20139;&#25351;&#38024;</text><rect fill="none" height="6" style="stroke:#C82930;stroke-width:1.0;" width="6" x="186" y="625.7198"/><text fill="#000000" font-family="sans-serif" font-size="14" lengthAdjust="spacing" textLength="466" x="198" y="632.6518">std::shared_ptr&lt;Camera&gt; m_shadow_camera ' &#38452;&#24433;&#30456;&#26426;&#35270;&#35282;&#30340;&#20849;&#20139;&#25351;&#38024;</text><line style="stroke:#181818;stroke-width:0.5;" x1="179" x2="669" y1="640.7538" y2="640.7538"/><ellipse cx="189" cy="655.7877" fill="#84BE84" rx="3" ry="3" style="stroke:#038048;stroke-width:1.0;"/><text fill="#000000" font-family="sans-serif" font-size="14" lengthAdjust="spacing" textLength="218" x="198" y="659.7197">Shadow_caster(camera: Camera)</text><text fill="#000000" font-family="sans-serif" font-size="14" lengthAdjust="spacing" textLength="4" x="198" y="678.7876">&#160;</text><ellipse cx="189" cy="693.9235" fill="#84BE84" rx="3" ry="3" style="stroke:#038048;stroke-width:1.0;"/><text fill="#000000" font-family="sans-serif" font-size="14" lengthAdjust="spacing" textLength="339" x="198" y="697.8555">get_shadow_map(): std::shared_ptr&lt;Shadow_map&gt;</text><ellipse cx="189" cy="712.9915" fill="#84BE84" rx="3" ry="3" style="stroke:#038048;stroke-width:1.0;"/><text fill="#000000" font-family="sans-serif" font-size="14" lengthAdjust="spacing" textLength="357" x="198" y="716.9234">set_shadow_map(sm: std::shared_ptr&lt;Shadow_map&gt;)</text><ellipse cx="189" cy="732.0594" fill="#84BE84" rx="3" ry="3" style="stroke:#038048;stroke-width:1.0;"/><text fill="#000000" font-family="sans-serif" font-size="14" lengthAdjust="spacing" textLength="322" x="198" y="735.9914">get_shadow_camera(): std::shared_ptr&lt;Camera&gt;</text><ellipse cx="189" cy="751.1273" fill="#84BE84" rx="3" ry="3" style="stroke:#038048;stroke-width:1.0;"/><text fill="#000000" font-family="sans-serif" font-size="14" lengthAdjust="spacing" textLength="348" x="198" y="755.0593">set_shadow_camera(cam: std::shared_ptr&lt;Camera&gt;)</text></g><!--class Directional_light_shadow_caster--><g id="elem_Directional_light_shadow_caster"><rect codeLine="85" fill="#F1F1F1" height="105.2038" id="Directional_light_shadow_caster" rx="2.5" ry="2.5" style="stroke:#181818;stroke-width:0.5;" width="496" x="176" y="396.4079"/><ellipse cx="312.25" cy="412.4079" fill="#ADD1B2" rx="11" ry="11" style="stroke:#181818;stroke-width:1.0;"/><path d="M312.3594,407.9392 Q311.4375,407.9392 310.7031,408.2517 Q309.9844,408.5642 309.4844,409.1579 Q308.9844,409.736 308.7031,410.611 Q308.4375,411.486 308.4375,412.5798 Q308.4375,414.0173 308.875,415.0642 Q309.3281,416.111 310.1719,416.6579 Q311.0313,417.2048 312.3438,417.2048 Q313.125,417.2048 313.8125,417.0798 Q314.5156,416.9392 315.5156,416.6267 L315.5156,418.5017 Q314.6563,418.8298 313.8906,418.9548 Q313.1406,419.0798 312.125,419.0798 Q310.2031,419.0798 308.8906,418.2829 Q307.5938,417.4704 306.9375,416.0017 Q306.2813,414.5173 306.2813,412.5485 Q306.2813,411.1267 306.6719,409.9548 Q307.0781,408.7673 307.8594,407.8923 Q308.6406,407.0173 309.7813,406.5485 Q310.9219,406.0642 312.3906,406.0642 Q313.3438,406.0642 314.2344,406.2673 Q315.1406,406.4548 316.0781,406.9235 L315.25,408.7048 Q314.4688,408.3298 313.8125,408.1423 Q313.1563,407.9392 312.3594,407.9392 Z " fill="#000000"/><text fill="#000000" font-family="sans-serif" font-size="14" lengthAdjust="spacing" textLength="215" x="332.75" y="417.8399">Directional_light_shadow_caster</text><line style="stroke:#181818;stroke-width:0.5;" x1="177" x2="671" y1="428.4079" y2="428.4079"/><line style="stroke:#181818;stroke-width:0.5;" x1="177" x2="671" y1="436.4079" y2="436.4079"/><ellipse cx="187" cy="451.4419" fill="#84BE84" rx="3" ry="3" style="stroke:#038048;stroke-width:1.0;"/><text fill="#000000" font-family="sans-serif" font-size="14" lengthAdjust="spacing" textLength="470" x="196" y="455.3739">Directional_light_shadow_caster(ortho_camera: Orthographic_camera)</text><text fill="#000000" font-family="sans-serif" font-size="14" lengthAdjust="spacing" textLength="4" x="196" y="474.4418">&#160;</text><ellipse cx="187" cy="489.5777" fill="#84BE84" rx="3" ry="3" style="stroke:#038048;stroke-width:1.0;"/><text fill="#000000" font-family="sans-serif" font-size="14" lengthAdjust="spacing" textLength="343" x="196" y="493.5097">get_orthographic_camera(): Orthographic_camera*</text></g><!--class Directional_light_shadow_caster_component--><g id="elem_Directional_light_shadow_caster_component"><rect codeLine="99" fill="#F1F1F1" height="124.2717" id="Directional_light_shadow_caster_component" rx="2.5" ry="2.5" style="stroke:#181818;stroke-width:0.5;" width="674" x="39" y="193.1379"/><ellipse cx="223.25" cy="209.1379" fill="#ADD1B2" rx="11" ry="11" style="stroke:#181818;stroke-width:1.0;"/><path d="M223.3594,204.6692 Q222.4375,204.6692 221.7031,204.9817 Q220.9844,205.2942 220.4844,205.8879 Q219.9844,206.466 219.7031,207.341 Q219.4375,208.216 219.4375,209.3098 Q219.4375,210.7473 219.875,211.7942 Q220.3281,212.841 221.1719,213.3879 Q222.0313,213.9348 223.3438,213.9348 Q224.125,213.9348 224.8125,213.8098 Q225.5156,213.6692 226.5156,213.3567 L226.5156,215.2317 Q225.6563,215.5598 224.8906,215.6848 Q224.1406,215.8098 223.125,215.8098 Q221.2031,215.8098 219.8906,215.0129 Q218.5938,214.2004 217.9375,212.7317 Q217.2813,211.2473 217.2813,209.2785 Q217.2813,207.8567 217.6719,206.6848 Q218.0781,205.4973 218.8594,204.6223 Q219.6406,203.7473 220.7813,203.2785 Q221.9219,202.7942 223.3906,202.7942 Q224.3438,202.7942 225.2344,202.9973 Q226.1406,203.1848 227.0781,203.6535 L226.25,205.4348 Q225.4688,205.0598 224.8125,204.8723 Q224.1563,204.6692 223.3594,204.6692 Z " fill="#000000"/><text fill="#000000" font-family="sans-serif" font-size="14" lengthAdjust="spacing" textLength="297" x="243.75" y="214.5699">Directional_light_shadow_caster_component</text><line style="stroke:#181818;stroke-width:0.5;" x1="40" x2="712" y1="225.1379" y2="225.1379"/><rect fill="none" height="6" style="stroke:#C82930;stroke-width:1.0;" width="6" x="47" y="237.1719"/><text fill="#000000" font-family="sans-serif" font-size="14" lengthAdjust="spacing" textLength="497" x="59" y="244.1039">std::shared_ptr&lt;Directional_light&gt; m_directional_light ' &#20851;&#32852;&#30340;&#23450;&#21521;&#20809;&#28304;&#23545;&#35937;</text><rect fill="none" height="6" style="stroke:#C82930;stroke-width:1.0;" width="6" x="47" y="256.2398"/><text fill="#000000" font-family="sans-serif" font-size="14" lengthAdjust="spacing" textLength="648" x="59" y="263.1718">std::shared_ptr&lt;Directional_light_shadow_caster&gt; m_shadow_caster ' &#20869;&#37096;&#30340;&#23450;&#21521;&#20809;&#38452;&#24433;&#25237;&#23556;&#22120;&#23454;&#20363;</text><line style="stroke:#181818;stroke-width:0.5;" x1="40" x2="712" y1="271.2738" y2="271.2738"/><ellipse cx="50" cy="286.3077" fill="#84BE84" rx="3" ry="3" style="stroke:#038048;stroke-width:1.0;"/><text fill="#000000" font-family="sans-serif" font-size="14" lengthAdjust="spacing" textLength="375" x="59" y="290.2397">update() ' &#22522;&#20110;&#20809;&#28304;&#20301;&#32622;&#21644;&#26041;&#21521;&#26356;&#26032;&#38452;&#24433;&#30456;&#26426;&#21464;&#25442;&#30697;&#38453;&#21644;&#21442;&#25968;</text><ellipse cx="50" cy="305.3756" fill="#84BE84" rx="3" ry="3" style="stroke:#038048;stroke-width:1.0;"/><text fill="#000000" font-family="sans-serif" font-size="14" lengthAdjust="spacing" textLength="486" x="59" y="309.3076">tick(render_pipe: LogicSwapData) ' &#26356;&#26032;&#38452;&#24433;&#36148;&#22270;&#25968;&#25454;&#24182;&#20256;&#36882;&#33267;&#21518;&#32493;&#28210;&#26579;&#27969;&#31243;</text></g><!--reverse link Light to Directional_light--><g id="link_Light_Directional_light"><path d="M803.3564,326.1337 C801.3864,364.0637 799.73,395.7479 798.22,424.5379 " fill="none" id="Light-backto-Directional_light" style="stroke:#181818;stroke-width:1.0;"/><polygon fill="none" points="804.29,308.1579,797.3645,325.8225,809.3483,326.4449,804.29,308.1579" style="stroke:#181818;stroke-width:1.0;"/></g><!--reverse link Camera to Orthographic_camera--><g id="link_Camera_Orthographic_camera"><path d="M593.4223,899.6139 C624.4323,917.4539 651.29,932.9079 682.28,950.7279 " fill="none" id="Camera-backto-Orthographic_camera" style="stroke:#181818;stroke-width:1.0;"/><polygon fill="none" points="577.82,890.6379,590.4303,904.8147,596.4143,894.4131,577.82,890.6379" style="stroke:#181818;stroke-width:1.0;"/></g><!--reverse link Camera to Perspective_camera--><g id="link_Camera_Perspective_camera"><path d="M528.9247,908.3012 C525.4247,926.1412 524.1,932.9079 520.6,950.7279 " fill="none" id="Camera-backto-Perspective_camera" style="stroke:#181818;stroke-width:1.0;"/><polygon fill="none" points="532.39,890.6379,523.0369,907.1461,534.8124,909.4563,532.39,890.6379" style="stroke:#181818;stroke-width:1.0;"/></g><!--reverse link Shadow_caster to Directional_light_shadow_caster--><g id="link_Shadow_caster_Directional_light_shadow_caster"><path d="M437.221,544.3583 C437.361,523.5283 436.7,520.3679 435.48,502.1179 " fill="none" id="Shadow_caster-backto-Directional_light_shadow_caster" style="stroke:#181818;stroke-width:1.0;"/><polygon fill="none" points="437.1,562.3579,443.2208,544.3986,431.2211,544.318,437.1,562.3579" style="stroke:#181818;stroke-width:1.0;"/></g><!--link Directional_light_shadow_caster to Shadow_caster--><g id="link_Directional_light_shadow_caster_Shadow_caster"><path codeLine="113" d="M412.52,502.1179 C411.3,520.3679 410.639,523.5283 410.779,544.3583 " fill="none" id="Directional_light_shadow_caster-to-Shadow_caster" style="stroke:#181818;stroke-width:1.0;"/><polygon fill="none" points="410.9,562.3579,416.7789,544.318,404.7792,544.3986,410.9,562.3579" style="stroke:#181818;stroke-width:1.0;"/></g><!--reverse link Component_base to Directional_light_shadow_caster_component--><g id="link_Component_base_Directional_light_shadow_caster_component"><path d="M363.9506,122.6782 C360.4906,145.1482 362.12,162.3279 363.37,192.7979 " fill="none" id="Component_base-backto-Directional_light_shadow_caster_component" style="stroke:#181818;stroke-width:1.0;"/><polygon fill="none" points="366.69,104.8879,358.0205,121.7651,369.8807,123.5914,366.69,104.8879" style="stroke:#181818;stroke-width:1.0;"/></g><!--link Directional_light_shadow_caster_component to Component_base--><g id="link_Directional_light_shadow_caster_component_Component_base"><path codeLine="115" d="M388.63,192.7979 C389.88,162.3279 391.5094,145.1482 388.0494,122.6782 " fill="none" id="Directional_light_shadow_caster_component-to-Component_base" style="stroke:#181818;stroke-width:1.0;"/><polygon fill="none" points="385.31,104.8879,382.1193,123.5914,393.9795,121.7651,385.31,104.8879" style="stroke:#181818;stroke-width:1.0;"/></g><!--reverse link Shadow_caster to Shadow_map--><g id="link_Shadow_caster_Shadow_map"><path codeLine="119" d="M346.4402,774.308 C341.7702,783.998 342.97,783.1479 340,793.1579 C335.34,808.8679 336.24,827.3579 338.22,841.6579 " fill="none" id="Shadow_caster-backto-Shadow_map" style="stroke:#181818;stroke-width:1.0;"/><polygon fill="#181818" points="351.65,763.4979,345.4417,767.1664,346.4402,774.308,352.6485,770.6396,351.65,763.4979" style="stroke:#181818;stroke-width:1.0;"/><polygon fill="#000000" points="344.3942,807.9741,348.4074,799.3517,342.5728,798.6396,344.3942,807.9741" style="stroke:#000000;stroke-width:1.0;"/><text fill="#000000" font-family="sans-serif" font-size="13" lengthAdjust="spacing" textLength="26" x="354" y="808.0549">&#25317;&#26377;</text><text fill="#000000" font-family="sans-serif" font-size="13" lengthAdjust="spacing" textLength="7" x="339.3168" y="785.0914">1</text><text fill="#000000" font-family="sans-serif" font-size="13" lengthAdjust="spacing" textLength="7" x="329.0983" y="830.1891">1</text></g><!--reverse link Shadow_caster to Camera--><g id="link_Shadow_caster_Camera"><path codeLine="120" d="M508.1367,773.8738 C514.0567,783.5838 513.3,783.2579 518,793.1579 C525.32,808.5679 530.14,827.2379 533.1,841.6979 " fill="none" id="Shadow_caster-backto-Camera" style="stroke:#181818;stroke-width:1.0;"/><polygon fill="#181818" points="501.89,763.6279,501.5981,770.8331,508.1367,773.8738,508.4287,766.6686,501.89,763.6279" style="stroke:#181818;stroke-width:1.0;"/><polygon fill="#000000" points="532.157,807.7032,531.7908,798.1997,526.2748,800.2299,532.157,807.7032" style="stroke:#000000;stroke-width:1.0;"/><text fill="#000000" font-family="sans-serif" font-size="13" lengthAdjust="spacing" textLength="91" x="539.43" y="808.0549">&#25317;&#26377;&#20854;&#35270;&#35282;&#30456;&#26426;</text><text fill="#000000" font-family="sans-serif" font-size="13" lengthAdjust="spacing" textLength="7" x="499.8881" y="784.8881">1</text><text fill="#000000" font-family="sans-serif" font-size="13" lengthAdjust="spacing" textLength="7" x="524.2038" y="830.2394">1</text></g><!--link Shadow_caster to Camera--><g id="link_Shadow_caster_Camera"><path codeLine="127" d="M402.78,763.3479 C403.56,780.6379 407.57,797.6879 417,812.1579 C434.41,838.8679 462.8265,850.8142 490.2965,857.4242 " fill="none" id="Shadow_caster-to-Camera" style="stroke:#181818;stroke-width:1.0;stroke-dasharray:7.0,7.0;"/><polygon fill="#181818" points="496.13,858.8279,488.3156,852.8334,491.2688,857.6582,486.444,860.6114,496.13,858.8279" style="stroke:#181818;stroke-width:1.0;"/><polygon fill="#000000" points="425.4056,806.6718,421.3966,798.0475,417.093,802.051,425.4056,806.6718" style="stroke:#000000;stroke-width:1.0;"/><text fill="#000000" font-family="sans-serif" font-size="13" lengthAdjust="spacing" textLength="78" x="431" y="808.0549">&#26500;&#36896;&#26102;&#21021;&#22987;&#21270;</text></g><!--reverse link Directional_light_shadow_caster_component to Directional_light_shadow_caster--><g id="link_Directional_light_shadow_caster_component_Directional_light_shadow_caster"><path codeLine="123" d="M394.3015,329.3794 C400.6015,354.5694 404.91,371.7779 410.96,395.9079 " fill="none" id="Directional_light_shadow_caster_component-backto-Directional_light_shadow_caster" style="stroke:#181818;stroke-width:1.0;"/><polygon fill="#181818" points="391.39,317.7379,388.9653,324.5291,394.3015,329.3794,396.7262,322.5881,391.39,317.7379" style="stroke:#181818;stroke-width:1.0;"/><polygon fill="#000000" points="409.0845,362.1112,409.7384,352.6231,404.0365,354.0508,409.0845,362.1112" style="stroke:#000000;stroke-width:1.0;"/><text fill="#000000" font-family="sans-serif" font-size="13" lengthAdjust="spacing" textLength="26" x="416.87" y="362.3049">&#25317;&#26377;</text><text fill="#000000" font-family="sans-serif" font-size="13" lengthAdjust="spacing" textLength="7" x="385.6905" y="339.4352">1</text><text fill="#000000" font-family="sans-serif" font-size="13" lengthAdjust="spacing" textLength="7" x="401.7374" y="384.5746">1</text></g><!--link Directional_light_shadow_caster to Orthographic_camera--><g id="link_Directional_light_shadow_caster_Orthographic_camera"><path codeLine="130" d="M615.1,501.9379 C643,517.2679 668.5,537.0679 687,562.6179 C775.34,684.5979 744.2285,877.5214 729.7485,945.0214 " fill="none" id="Directional_light_shadow_caster-to-Orthographic_camera" style="stroke:#181818;stroke-width:1.0;stroke-dasharray:7.0,7.0;"/><polygon fill="#181818" points="728.49,950.8879,734.2887,942.9271,729.5387,945.9991,726.4667,941.2491,728.49,950.8879" style="stroke:#181818;stroke-width:1.0;"/><polygon fill="#000000" points="752.5925,807.8515,753.1719,798.3586,747.4815,799.831,752.5925,807.8515" style="stroke:#000000;stroke-width:1.0;"/><text fill="#000000" font-family="sans-serif" font-size="13" lengthAdjust="spacing" textLength="78" x="760.34" y="808.0549">&#26500;&#36896;&#26102;&#21021;&#22987;&#21270;</text></g><!--link Directional_light_shadow_caster_component to Directional_light--><g id="link_Directional_light_shadow_caster_component_Directional_light"><path codeLine="134" d="M516.3,317.8279 C570.7,341.9779 633.42,370.1479 690,396.4079 C709.46,405.4379 725.3605,413.0316 743.8105,421.9716 " fill="none" id="Directional_light_shadow_caster_component-to-Directional_light" style="stroke:#181818;stroke-width:1.0;"/><polygon fill="#181818" points="749.21,424.5879,742.855,417.0637,744.7104,422.4076,739.3665,424.2631,749.21,424.5879" style="stroke:#181818;stroke-width:1.0;"/><polygon fill="#000000" points="631.0563,359.342,624.0552,352.905,621.6087,358.2495,631.0563,359.342" style="stroke:#000000;stroke-width:1.0;"/><text fill="#000000" font-family="sans-serif" font-size="13" lengthAdjust="spacing" textLength="78" x="635.51" y="362.3049">&#20851;&#32852;&#20809;&#28304;&#20449;&#24687;</text></g><!--link Directional_light_shadow_caster_component to LogicSwapData--><g id="link_Directional_light_shadow_caster_component_LogicSwapData"><path codeLine="138" d="M279.2,317.7379 C221.75,354.2079 157.2956,395.1324 115.7056,421.5324 " fill="none" id="Directional_light_shadow_caster_component-to-LogicSwapData" style="stroke:#181818;stroke-width:1.0;stroke-dasharray:7.0,7.0;"/><polygon fill="#181818" points="110.64,424.7479,120.3821,423.3018,114.8614,422.0683,116.0948,416.5476,110.64,424.7479" style="stroke:#181818;stroke-width:1.0;"/><polygon fill="#000000" points="225.7788,359.9408,234.9902,357.5741,231.8399,352.6117,225.7788,359.9408" style="stroke:#000000;stroke-width:1.0;"/><text fill="#000000" font-family="sans-serif" font-size="13" lengthAdjust="spacing" textLength="91" x="239" y="362.3049">&#25512;&#36865;&#38452;&#24433;&#25968;&#25454;&#21040;</text></g><!--reverse link GameObject to Directional_light_shadow_caster_component--><g id="link_GameObject_Directional_light_shadow_caster_component"><path codeLine="141" d="M602.8624,120.5817 C565.4224,142.6517 525.29,166.2979 480.52,192.6779 " fill="none" id="GameObject-backto-Directional_light_shadow_caster_component" style="stroke:#181818;stroke-width:1.0;"/><polygon fill="#181818" points="613.2,114.4879,605.9999,114.0889,602.8624,120.5817,610.0625,120.9807,613.2,114.4879" style="stroke:#181818;stroke-width:1.0;"/><polygon fill="#000000" points="558.0523,156.5294,567.3371,154.4692,564.3529,149.4052,558.0523,156.5294" style="stroke:#000000;stroke-width:1.0;"/><text fill="#000000" font-family="sans-serif" font-size="13" lengthAdjust="spacing" textLength="26" x="571.36" y="159.0349">&#21253;&#21547;</text><text fill="#000000" font-family="sans-serif" font-size="13" lengthAdjust="spacing" textLength="7" x="595.6372" y="135.9978">1</text><text fill="#000000" font-family="sans-serif" font-size="13" lengthAdjust="spacing" textLength="20" x="471.4489" y="181.3953">0..*</text></g><!--SRC=[hLZlKnf76FxENx6JBq9QjVtAfCvqp4ocCvccK_y0vW9NeKMEuQvDCsrdq8X0GA5gq8XHIVn1aqWa6dk2m1_JsxsxJ_qN-kxj7jx16JLJFe0Uk-_xxFC- - -oxZ22ZqTKx3Lpj6hKwsScQBzTzIao9YyXSFy6T9ddw31_DwyTjlRsD_5DH8I8zGfE2h8WfDFKOFcO2FdYDeA-kyu9nUBTYFgcFu-sMNalhpJRoQ-qbxQo0yukQ-bHJ2wII9KjrKZd4oqMSEJPcLmFN3Wy3zVQyrZwbuPjjd_1GLb92M47Xk23BQ5AQIKe9CQ647WgoY7xp8NYD83EzeQ_MsKIoj8TBh_uzBshT0jwVGr8Y94GY8KKAJGipOaXw-ACOLlo1pv4I2__a3o3zCE_xmoA0g2h9bV2xCwDPqpehG1bkRC4V40kNtcdjFLASCpeTN9xN3nPPCX-3TGyYFx02SqYZw7vCLkwuuKwWiFs_3A1nCOFBR_IDURxWt1eKa2zeR6oCWe91cJnfbHaQv2U7ktWN1cTWCCwsD7N9LUEg2dH3G2WFpYq41icx7vkEAXUSlTmqyk__IS_YynPkxGCDG3dPVCioukOMIH_mjKnASIa5uE6TF_aXBWaAYYKKCI77bCVywRTIH4G9U7ElWcM_6qi1Fp4f8SH3SGk9-2jCZmpY8fKpNFuJaZCWiEXwZHIspVLZU11mHwPggQfai_N_43G9PKm9Wwgo4Z1LGJooe-BU4qOFyeF0Z8C5s7lwzb_c-WTWasRgDDc_0IyU7gIKg3IT4fBHM3WKPXbj9WO0aCDNMckNHxHWG4PL1L1QQmatDe0du8Ijq3FNTs9AJbBMVn6lI6McIx2GIrBfSsUi69wfHhZH62SdG0HvTaGM6tfxXMpD8x- -saJCSY2_PJcai4SseOuC8FzkHaZsaU33TJnN9tytGPHQhqPctu71M5kPFTDRPtfvOGW3KT-JxHMUlL7JMptafpkSweaSFzFED_3H0cW3vkBo4cY03GMZCc4Bv8wCtdCpMxHntPUcO-6fHqBohg0uwh6qHrPFyTafZzFDEBDIczYVSt91DrTfdIo-P7AWJZE0-hgUwrGnVbwtNDTjvPCKjoZVo6dTbV5sNFSOszra9H8Cob4X9KP2IILrvwAE4sWc95zKrIqEe1rdcbhh3IbcpUNS9S6OD1s1k7JjM4oV85VZO7amebsfhNaplOEp7IWDrCNQlMkQcjRKrsmsStc-at8ly4415olEy5QWpzpBzpCWGRvv0dOsvWP6esUkDPZSaF-UgC2CyIdh8y2ZJOkAWnn_8FWn8laSsJr7dlde98zC3BHNCaxqS28-1JukdHHW0XvozOiGbc3y0pRLbt3WicDX883jLruw746QkgAfhNuEi2ZeXen63MeExWq6fdLwKEHX8-LhlYAxNw9c7RBBxc7TVGsGKbdhLhdPGAjGFS6DFCxKyUOH4uRHUGjE06WP62v3oue6bUweeJISabRI0ybjVY1-YgMm3iJBLUo6vPFyvGfsG_rsw1APC5ZNL8eZMl-Cy-eMX_rcA32rdiXGkqARCThCKijn28uvoNL3kp6xFCuY798iPA0zSIOPs3cqAUqM-hgp-X6cEwwRdvCHGH6XjHsXdauDZZUHY_IUi5pa7LRrX5IEd9RdFAjewrwQ0_VaCQrcEGMi0j79M58Ckez8ciiPqDaBm7cfdU-OwMKZUqprtZxaf-Q7MRrUkDav21A5cuQvTaBxEDhmVI_61Sgl78qbvHjUCmv8lcV7-IOH5LCnHKY4nO3lAayQ7Vrzmcr8Fj_rrMdDTakJNtjmEMVZiRw7rXe21ePEQjP3uSofaNrjjEWLmiawbCvLLIONTuHRNzv2jqT7hKz73nRaeT74HyRppZ7eWC6EOjOsJbpSuVe3-fhMysSWQwWYtYfuo_hwF3enNLKnny80dTPzONoeZBFjR3D-LqnIUIV2ZyU_bcKf71Ck8T_HMZZx2fiNvWT6hshKYltEOe3EiR491urMGB9ssX_DK5wrfc4WNiV2bMAcMBpk99S1kv6lcvjfOt-M4Srf6hu7ybviOvwr-pVQIXCUyOB8hgnbU-mEmP3pWmwENCVTOE1Ym7NflXumos8NYni0fEIwxn90gnNJcGNYiv8xVaTWlmx0hKHhLVbl3Ovl-zh_OcpizgqR52J80qE-_m00]--></g></svg>