<?xml version="1.0" encoding="us-ascii" standalone="no"?><svg xmlns="http://www.w3.org/2000/svg" xmlns:xlink="http://www.w3.org/1999/xlink" contentStyleType="text/css" height="544px" preserveAspectRatio="none" style="width:691px;height:544px;background:#FFFFFF;" version="1.1" viewBox="0 0 691 544" width="691px" zoomAndPan="magnify"><defs/><g><!--class RHI_frame_buffer_base--><g id="elem_RHI_frame_buffer_base"><rect codeLine="3" fill="#F1F1F1" height="105.2038" id="RHI_frame_buffer_base" rx="2.5" ry="2.5" style="stroke:#181818;stroke-width:0.5;" width="176" x="277.5" y="7"/><ellipse cx="292.5" cy="23" fill="#A9DCDF" rx="11" ry="11" style="stroke:#181818;stroke-width:1.0;"/><path d="M295.8438,28.25 L294.375,24.5 L289.9375,24.5 L288.5,28.25 L286.375,28.25 L291.3281,15.5313 L293.0781,15.5313 L298,28.25 L295.8438,28.25 Z M292.5,19.2969 Q292.4531,19.1406 292.3281,18.7813 Q292.2031,18.4219 292.0938,18.0469 Q291.9844,17.6563 292.1875,17.5938 Q292.3438,17.7813 292.25,18.1406 Q292.1563,18.4844 292.0625,18.7813 Q291.9688,19.0625 291.8906,19.2969 L290.6563,22.6094 L293.7344,22.6094 L292.5,19.2969 Z " fill="#000000"/><text fill="#000000" font-family="sans-serif" font-size="14" font-style="italic" lengthAdjust="spacing" textLength="144" x="306.5" y="28.432">RHI_frame_buffer_base</text><line style="stroke:#181818;stroke-width:0.5;" x1="278.5" x2="452.5" y1="39" y2="39"/><line style="stroke:#181818;stroke-width:0.5;" x1="278.5" x2="452.5" y1="47" y2="47"/><ellipse cx="288.5" cy="62.034" fill="#84BE84" rx="3" ry="3" style="stroke:#038048;stroke-width:1.0;"/><text fill="#000000" font-family="sans-serif" font-size="14" font-style="italic" lengthAdjust="spacing" textLength="118" x="297.5" y="65.9659">is_valid() : boolean</text><ellipse cx="288.5" cy="81.1019" fill="#84BE84" rx="3" ry="3" style="stroke:#038048;stroke-width:1.0;"/><text fill="#000000" font-family="sans-serif" font-size="14" lengthAdjust="spacing" textLength="76" x="297.5" y="85.0339">width() : int</text><ellipse cx="288.5" cy="100.1698" fill="#84BE84" rx="3" ry="3" style="stroke:#038048;stroke-width:1.0;"/><text fill="#000000" font-family="sans-serif" font-size="14" lengthAdjust="spacing" textLength="82" x="297.5" y="104.1018">height() : int</text></g><!--class RHI_frame_buffer--><g id="elem_RHI_frame_buffer"><rect codeLine="9" fill="#F1F1F1" height="219.6113" id="RHI_frame_buffer" rx="2.5" ry="2.5" style="stroke:#181818;stroke-width:0.5;" width="361" x="7" y="172.2"/><ellipse cx="124.25" cy="188.2" fill="#ADD1B2" rx="11" ry="11" style="stroke:#181818;stroke-width:1.0;"/><path d="M124.3594,183.7313 Q123.4375,183.7313 122.7031,184.0438 Q121.9844,184.3563 121.4844,184.95 Q120.9844,185.5281 120.7031,186.4031 Q120.4375,187.2781 120.4375,188.3719 Q120.4375,189.8094 120.875,190.8563 Q121.3281,191.9031 122.1719,192.45 Q123.0313,192.9969 124.3438,192.9969 Q125.125,192.9969 125.8125,192.8719 Q126.5156,192.7313 127.5156,192.4188 L127.5156,194.2938 Q126.6563,194.6219 125.8906,194.7469 Q125.1406,194.8719 124.125,194.8719 Q122.2031,194.8719 120.8906,194.075 Q119.5938,193.2625 118.9375,191.7938 Q118.2813,190.3094 118.2813,188.3406 Q118.2813,186.9188 118.6719,185.7469 Q119.0781,184.5594 119.8594,183.6844 Q120.6406,182.8094 121.7813,182.3406 Q122.9219,181.8563 124.3906,181.8563 Q125.3438,181.8563 126.2344,182.0594 Q127.1406,182.2469 128.0781,182.7156 L127.25,184.4969 Q126.4688,184.1219 125.8125,183.9344 Q125.1563,183.7313 124.3594,183.7313 Z " fill="#000000"/><text fill="#000000" font-family="sans-serif" font-size="14" lengthAdjust="spacing" textLength="118" x="144.75" y="193.632">RHI_frame_buffer</text><line style="stroke:#181818;stroke-width:0.5;" x1="8" x2="367" y1="204.2" y2="204.2"/><rect fill="none" height="6" style="stroke:#C82930;stroke-width:1.0;" width="6" x="15" y="216.234"/><text fill="#000000" font-family="sans-serif" font-size="14" lengthAdjust="spacing" textLength="127" x="27" y="223.1659">internal_width : int</text><rect fill="none" height="6" style="stroke:#C82930;stroke-width:1.0;" width="6" x="15" y="235.3019"/><text fill="#000000" font-family="sans-serif" font-size="14" lengthAdjust="spacing" textLength="133" x="27" y="242.2339">internal_height : int</text><rect fill="none" height="6" style="stroke:#C82930;stroke-width:1.0;" width="6" x="15" y="254.3698"/><text fill="#000000" font-family="sans-serif" font-size="14" lengthAdjust="spacing" textLength="299" x="27" y="261.3018">color_attachments : std::vector&lt;RHI_texture&gt;</text><rect fill="none" height="6" style="stroke:#C82930;stroke-width:1.0;" width="6" x="15" y="273.4377"/><text fill="#000000" font-family="sans-serif" font-size="14" lengthAdjust="spacing" textLength="213" x="27" y="280.3697">depth_attachment : RHI_texture</text><line style="stroke:#181818;stroke-width:0.5;" x1="8" x2="367" y1="288.4717" y2="288.4717"/><ellipse cx="18" cy="303.5056" fill="#84BE84" rx="3" ry="3" style="stroke:#038048;stroke-width:1.0;"/><text fill="#000000" font-family="sans-serif" font-size="14" lengthAdjust="spacing" textLength="335" x="27" y="307.4376">get_color_attachments() : std::vector&lt;RHI_texture&gt;</text><ellipse cx="18" cy="322.5735" fill="#84BE84" rx="3" ry="3" style="stroke:#038048;stroke-width:1.0;"/><text fill="#000000" font-family="sans-serif" font-size="14" lengthAdjust="spacing" textLength="249" x="27" y="326.5055">get_depth_attachment() : RHI_texture</text><ellipse cx="18" cy="341.6415" fill="#84BE84" rx="3" ry="3" style="stroke:#038048;stroke-width:1.0;"/><text fill="#000000" font-family="sans-serif" font-size="14" lengthAdjust="spacing" textLength="123" x="27" y="345.5734">is_valid() : boolean</text><ellipse cx="18" cy="360.7094" fill="#84BE84" rx="3" ry="3" style="stroke:#038048;stroke-width:1.0;"/><text fill="#000000" font-family="sans-serif" font-size="14" lengthAdjust="spacing" textLength="76" x="27" y="364.6414">width() : int</text><ellipse cx="18" cy="379.7773" fill="#84BE84" rx="3" ry="3" style="stroke:#038048;stroke-width:1.0;"/><text fill="#000000" font-family="sans-serif" font-size="14" lengthAdjust="spacing" textLength="82" x="27" y="383.7093">height() : int</text></g><!--class RHI_screen_buffer--><g id="elem_RHI_screen_buffer"><rect codeLine="21" fill="#F1F1F1" height="124.2717" id="RHI_screen_buffer" rx="2.5" ry="2.5" style="stroke:#181818;stroke-width:0.5;" width="281" x="403" y="219.87"/><ellipse cx="477.75" cy="235.87" fill="#ADD1B2" rx="11" ry="11" style="stroke:#181818;stroke-width:1.0;"/><path d="M477.8594,231.4013 Q476.9375,231.4013 476.2031,231.7138 Q475.4844,232.0263 474.9844,232.62 Q474.4844,233.1981 474.2031,234.0731 Q473.9375,234.9481 473.9375,236.0419 Q473.9375,237.4794 474.375,238.5263 Q474.8281,239.5731 475.6719,240.12 Q476.5313,240.6669 477.8438,240.6669 Q478.625,240.6669 479.3125,240.5419 Q480.0156,240.4013 481.0156,240.0888 L481.0156,241.9638 Q480.1563,242.2919 479.3906,242.4169 Q478.6406,242.5419 477.625,242.5419 Q475.7031,242.5419 474.3906,241.745 Q473.0938,240.9325 472.4375,239.4638 Q471.7813,237.9794 471.7813,236.0106 Q471.7813,234.5888 472.1719,233.4169 Q472.5781,232.2294 473.3594,231.3544 Q474.1406,230.4794 475.2813,230.0106 Q476.4219,229.5263 477.8906,229.5263 Q478.8438,229.5263 479.7344,229.7294 Q480.6406,229.9169 481.5781,230.3856 L480.75,232.1669 Q479.9688,231.7919 479.3125,231.6044 Q478.6563,231.4013 477.8594,231.4013 Z " fill="#000000"/><text fill="#000000" font-family="sans-serif" font-size="14" lengthAdjust="spacing" textLength="123" x="498.25" y="241.302">RHI_screen_buffer</text><line style="stroke:#181818;stroke-width:0.5;" x1="404" x2="683" y1="251.87" y2="251.87"/><rect fill="none" height="6" style="stroke:#C82930;stroke-width:1.0;" width="6" x="411" y="263.904"/><text fill="#000000" font-family="sans-serif" font-size="14" lengthAdjust="spacing" textLength="255" x="423" y="270.8359">m_window : std::shared_ptr&lt;Window&gt;</text><line style="stroke:#181818;stroke-width:0.5;" x1="404" x2="683" y1="278.9379" y2="278.9379"/><ellipse cx="414" cy="293.9719" fill="#84BE84" rx="3" ry="3" style="stroke:#038048;stroke-width:1.0;"/><text fill="#000000" font-family="sans-serif" font-size="14" lengthAdjust="spacing" textLength="123" x="423" y="297.9039">is_valid() : boolean</text><ellipse cx="414" cy="313.0398" fill="#84BE84" rx="3" ry="3" style="stroke:#038048;stroke-width:1.0;"/><text fill="#000000" font-family="sans-serif" font-size="14" lengthAdjust="spacing" textLength="76" x="423" y="316.9718">width() : int</text><ellipse cx="414" cy="332.1077" fill="#84BE84" rx="3" ry="3" style="stroke:#038048;stroke-width:1.0;"/><text fill="#000000" font-family="sans-serif" font-size="14" lengthAdjust="spacing" textLength="82" x="423" y="336.0397">height() : int</text></g><!--class RHI_texture--><g id="elem_RHI_texture"><rect codeLine="28" fill="#F1F1F1" height="48" id="RHI_texture" rx="2.5" ry="2.5" style="stroke:#181818;stroke-width:0.5;" width="110" x="132.5" y="470.88"/><ellipse cx="147.5" cy="486.88" fill="#ADD1B2" rx="11" ry="11" style="stroke:#181818;stroke-width:1.0;"/><path d="M147.6094,482.4113 Q146.6875,482.4113 145.9531,482.7238 Q145.2344,483.0363 144.7344,483.63 Q144.2344,484.2081 143.9531,485.0831 Q143.6875,485.9581 143.6875,487.0519 Q143.6875,488.4894 144.125,489.5363 Q144.5781,490.5831 145.4219,491.13 Q146.2813,491.6769 147.5938,491.6769 Q148.375,491.6769 149.0625,491.5519 Q149.7656,491.4113 150.7656,491.0988 L150.7656,492.9738 Q149.9063,493.3019 149.1406,493.4269 Q148.3906,493.5519 147.375,493.5519 Q145.4531,493.5519 144.1406,492.755 Q142.8438,491.9425 142.1875,490.4738 Q141.5313,488.9894 141.5313,487.0206 Q141.5313,485.5988 141.9219,484.4269 Q142.3281,483.2394 143.1094,482.3644 Q143.8906,481.4894 145.0313,481.0206 Q146.1719,480.5363 147.6406,480.5363 Q148.5938,480.5363 149.4844,480.7394 Q150.3906,480.9269 151.3281,481.3956 L150.5,483.1769 Q149.7188,482.8019 149.0625,482.6144 Q148.4063,482.4113 147.6094,482.4113 Z " fill="#000000"/><text fill="#000000" font-family="sans-serif" font-size="14" lengthAdjust="spacing" textLength="78" x="161.5" y="492.312">RHI_texture</text><line style="stroke:#181818;stroke-width:0.5;" x1="133.5" x2="241.5" y1="502.88" y2="502.88"/><line style="stroke:#181818;stroke-width:0.5;" x1="133.5" x2="241.5" y1="510.88" y2="510.88"/></g><!--class Window--><g id="elem_Window"><rect codeLine="33" fill="#F1F1F1" height="86.1358" id="Window" rx="2.5" ry="2.5" style="stroke:#181818;stroke-width:0.5;" width="136" x="475.5" y="451.81"/><ellipse cx="513" cy="467.81" fill="#ADD1B2" rx="11" ry="11" style="stroke:#181818;stroke-width:1.0;"/><path d="M513.1094,463.3413 Q512.1875,463.3413 511.4531,463.6538 Q510.7344,463.9663 510.2344,464.56 Q509.7344,465.1381 509.4531,466.0131 Q509.1875,466.8881 509.1875,467.9819 Q509.1875,469.4194 509.625,470.4663 Q510.0781,471.5131 510.9219,472.06 Q511.7813,472.6069 513.0938,472.6069 Q513.875,472.6069 514.5625,472.4819 Q515.2656,472.3413 516.2656,472.0288 L516.2656,473.9038 Q515.4063,474.2319 514.6406,474.3569 Q513.8906,474.4819 512.875,474.4819 Q510.9531,474.4819 509.6406,473.685 Q508.3438,472.8725 507.6875,471.4038 Q507.0313,469.9194 507.0313,467.9506 Q507.0313,466.5288 507.4219,465.3569 Q507.8281,464.1694 508.6094,463.2944 Q509.3906,462.4194 510.5313,461.9506 Q511.6719,461.4663 513.1406,461.4663 Q514.0938,461.4663 514.9844,461.6694 Q515.8906,461.8569 516.8281,462.3256 L516,464.1069 Q515.2188,463.7319 514.5625,463.5444 Q513.9063,463.3413 513.1094,463.3413 Z " fill="#000000"/><text fill="#000000" font-family="sans-serif" font-size="14" lengthAdjust="spacing" textLength="54" x="532" y="473.242">Window</text><line style="stroke:#181818;stroke-width:0.5;" x1="476.5" x2="610.5" y1="483.81" y2="483.81"/><line style="stroke:#181818;stroke-width:0.5;" x1="476.5" x2="610.5" y1="491.81" y2="491.81"/><ellipse cx="486.5" cy="506.844" fill="#84BE84" rx="3" ry="3" style="stroke:#038048;stroke-width:1.0;"/><text fill="#000000" font-family="sans-serif" font-size="14" lengthAdjust="spacing" textLength="104" x="495.5" y="510.7759">get_width() : int</text><ellipse cx="486.5" cy="525.9119" fill="#84BE84" rx="3" ry="3" style="stroke:#038048;stroke-width:1.0;"/><text fill="#000000" font-family="sans-serif" font-size="14" lengthAdjust="spacing" textLength="110" x="495.5" y="529.8439">get_height() : int</text></g><!--reverse link RHI_frame_buffer_base to RHI_frame_buffer--><g id="link_RHI_frame_buffer_base_RHI_frame_buffer"><path codeLine="38" d="M322.75,130.59 C322.75,148.45 322.75,151.1 322.75,171.71 " fill="none" id="RHI_frame_buffer_base-backto-RHI_frame_buffer" style="stroke:#181818;stroke-width:1.0;"/><polygon fill="none" points="322.75,112.59,316.75,130.59,328.75,130.59,322.75,112.59" style="stroke:#181818;stroke-width:1.0;"/></g><!--reverse link RHI_frame_buffer_base to RHI_screen_buffer--><g id="link_RHI_frame_buffer_base_RHI_screen_buffer"><path codeLine="39" d="M428.25,130.59 C428.25,162.71 428.25,185.86 428.25,219.56 " fill="none" id="RHI_frame_buffer_base-backto-RHI_screen_buffer" style="stroke:#181818;stroke-width:1.0;"/><polygon fill="none" points="428.25,112.59,422.25,130.59,434.25,130.59,428.25,112.59" style="stroke:#181818;stroke-width:1.0;"/></g><!--reverse link RHI_frame_buffer to RHI_texture--><g id="link_RHI_frame_buffer_RHI_texture"><path codeLine="41" d="M169.17,404.19 C169.17,433.81 169.17,451.05 169.17,470.7 " fill="none" id="RHI_frame_buffer-backto-RHI_texture" style="stroke:#181818;stroke-width:1.0;"/><polygon fill="none" points="169.17,392.19,165.17,398.19,169.17,404.19,173.17,398.19,169.17,392.19" style="stroke:#181818;stroke-width:1.0;"/><text fill="#000000" font-family="sans-serif" font-size="13" lengthAdjust="spacing" textLength="112" x="56.17" y="427.337">color_attachments</text><text fill="#000000" font-family="sans-serif" font-size="13" lengthAdjust="spacing" textLength="7" x="156.3032" y="458.9091">*</text></g><!--reverse link RHI_frame_buffer to RHI_texture--><g id="link_RHI_frame_buffer_RHI_texture"><path codeLine="42" d="M205.83,404.19 C205.83,433.81 205.83,451.05 205.83,470.7 " fill="none" id="RHI_frame_buffer-backto-RHI_texture-1" style="stroke:#181818;stroke-width:1.0;"/><polygon fill="none" points="205.83,392.19,201.83,398.19,205.83,404.19,209.83,398.19,205.83,392.19" style="stroke:#181818;stroke-width:1.0;"/><text fill="#000000" font-family="sans-serif" font-size="13" lengthAdjust="spacing" textLength="112" x="92.83" y="446.337">depth_attachment</text><text fill="#000000" font-family="sans-serif" font-size="13" lengthAdjust="spacing" textLength="20" x="188.0687" y="458.9091">0..1</text></g><!--reverse link RHI_screen_buffer to Window--><g id="link_RHI_screen_buffer_Window"><path codeLine="44" d="M543.5,356.44 C543.5,390.79 543.5,420.56 543.5,451.37 " fill="none" id="RHI_screen_buffer-backto-Window" style="stroke:#181818;stroke-width:1.0;"/><polygon fill="none" points="543.5,344.44,539.5,350.44,543.5,356.44,547.5,350.44,543.5,344.44" style="stroke:#181818;stroke-width:1.0;"/><text fill="#000000" font-family="sans-serif" font-size="13" lengthAdjust="spacing" textLength="65" x="477.5" y="393.797">m_window</text><text fill="#000000" font-family="sans-serif" font-size="13" lengthAdjust="spacing" textLength="7" x="535.9422" y="440.0345">1</text></g><!--SRC=[hL8zJyCm4DtpAqvT2bIjO8sgIcomidIqdEHIMpXsvBkseDB_ZkEGaey22-lT-pW_FthLjfPULc2qHNwl4PndvP94PiHUvWovaKJmylGioe13aUtB4ht8926S4e1JXpp30ZI9WpIwkBc553Bd34eRC0iuwe9Ld6hBSQ9GxnHVHkSakUuKJPOD1hsLHaIbYqvlqGhsDhappWl9B7DLeMKAE-8YJG-Oi_FhnednZVSUDv5GOCsgHmZu7YPUlKCM4ztuY5-KMzfOFRB6-lyK8EKUqGuJh49qjd37xbPIqcCXQlRhRLni_lE2hqT5xpay4kqhRNU3bQQGU1bwLm0QmgF26C8yL11q-AtkPmEAfJO4uLwmZi6ZmOCC_zCmLj- -xJEYPHlvzEHcEZtxUhlN7ylbf8v_OGV9JvN11TpiRZO88frMzGVY_MhrCEQEUzMQ3XiGoO6vxHhGbI7v1000]--></g></svg>