<?xml version="1.0" encoding="us-ascii" standalone="no"?><svg xmlns="http://www.w3.org/2000/svg" xmlns:xlink="http://www.w3.org/1999/xlink" contentStyleType="text/css" height="341px" preserveAspectRatio="none" style="width:1272px;height:341px;background:#FFFFFF;" version="1.1" viewBox="0 0 1272 341" width="1272px" zoomAndPan="magnify"><defs/><g><!--class Shader--><g id="elem_Shader"><rect codeLine="3" fill="#F1F1F1" height="48" id="Shader" rx="2.5" ry="2.5" style="stroke:#181818;stroke-width:0.5;" width="80" x="711" y="7"/><ellipse cx="726" cy="23" fill="#ADD1B2" rx="11" ry="11" style="stroke:#181818;stroke-width:1.0;"/><path d="M726.1094,18.5313 Q725.1875,18.5313 724.4531,18.8438 Q723.7344,19.1563 723.2344,19.75 Q722.7344,20.3281 722.4531,21.2031 Q722.1875,22.0781 722.1875,23.1719 Q722.1875,24.6094 722.625,25.6563 Q723.0781,26.7031 723.9219,27.25 Q724.7813,27.7969 726.0938,27.7969 Q726.875,27.7969 727.5625,27.6719 Q728.2656,27.5313 729.2656,27.2188 L729.2656,29.0938 Q728.4063,29.4219 727.6406,29.5469 Q726.8906,29.6719 725.875,29.6719 Q723.9531,29.6719 722.6406,28.875 Q721.3438,28.0625 720.6875,26.5938 Q720.0313,25.1094 720.0313,23.1406 Q720.0313,21.7188 720.4219,20.5469 Q720.8281,19.3594 721.6094,18.4844 Q722.3906,17.6094 723.5313,17.1406 Q724.6719,16.6563 726.1406,16.6563 Q727.0938,16.6563 727.9844,16.8594 Q728.8906,17.0469 729.8281,17.5156 L729,19.2969 Q728.2188,18.9219 727.5625,18.7344 Q726.9063,18.5313 726.1094,18.5313 Z " fill="#000000"/><text fill="#000000" font-family="sans-serif" font-size="14" lengthAdjust="spacing" textLength="48" x="740" y="28.432">Shader</text><line style="stroke:#181818;stroke-width:0.5;" x1="712" x2="790" y1="39" y2="39"/><line style="stroke:#181818;stroke-width:0.5;" x1="712" x2="790" y1="47" y2="47"/></g><!--class Phong_shader--><g id="elem_Phong_shader"><rect codeLine="7" fill="#F1F1F1" height="219.6113" id="Phong_shader" rx="2.5" ry="2.5" style="stroke:#181818;stroke-width:0.5;" width="374" x="7" y="115"/><ellipse cx="141.75" cy="131" fill="#ADD1B2" rx="11" ry="11" style="stroke:#181818;stroke-width:1.0;"/><path d="M141.8594,126.5313 Q140.9375,126.5313 140.2031,126.8438 Q139.4844,127.1563 138.9844,127.75 Q138.4844,128.3281 138.2031,129.2031 Q137.9375,130.0781 137.9375,131.1719 Q137.9375,132.6094 138.375,133.6563 Q138.8281,134.7031 139.6719,135.25 Q140.5313,135.7969 141.8438,135.7969 Q142.625,135.7969 143.3125,135.6719 Q144.0156,135.5313 145.0156,135.2188 L145.0156,137.0938 Q144.1563,137.4219 143.3906,137.5469 Q142.6406,137.6719 141.625,137.6719 Q139.7031,137.6719 138.3906,136.875 Q137.0938,136.0625 136.4375,134.5938 Q135.7813,133.1094 135.7813,131.1406 Q135.7813,129.7188 136.1719,128.5469 Q136.5781,127.3594 137.3594,126.4844 Q138.1406,125.6094 139.2813,125.1406 Q140.4219,124.6563 141.8906,124.6563 Q142.8438,124.6563 143.7344,124.8594 Q144.6406,125.0469 145.5781,125.5156 L144.75,127.2969 Q143.9688,126.9219 143.3125,126.7344 Q142.6563,126.5313 141.8594,126.5313 Z " fill="#000000"/><text fill="#000000" font-family="sans-serif" font-size="14" lengthAdjust="spacing" textLength="96" x="162.25" y="136.432">Phong_shader</text><line style="stroke:#181818;stroke-width:0.5;" x1="8" x2="380" y1="147" y2="147"/><text fill="#000000" font-family="sans-serif" font-size="14" lengthAdjust="spacing" textLength="362" x="13" y="165.9659">-unordered_map&lt;Shader_feature, Uniforms&gt; features</text><text fill="#000000" font-family="sans-serif" font-size="14" lengthAdjust="spacing" textLength="47" x="13" y="185.0339">-model</text><text fill="#000000" font-family="sans-serif" font-size="14" lengthAdjust="spacing" textLength="94" x="13" y="204.1018">-transparency</text><text fill="#000000" font-family="sans-serif" font-size="14" lengthAdjust="spacing" textLength="66" x="13" y="223.1697">-ka, kd, ks</text><text fill="#000000" font-family="sans-serif" font-size="14" lengthAdjust="spacing" textLength="69" x="13" y="242.2376">-shininess</text><text fill="#000000" font-family="sans-serif" font-size="14" lengthAdjust="spacing" textLength="99" x="13" y="261.3055">-parallax_scale</text><text fill="#000000" font-family="sans-serif" font-size="14" lengthAdjust="spacing" textLength="142" x="13" y="280.3734">-parallax_layer_count</text><text fill="#000000" font-family="sans-serif" font-size="14" lengthAdjust="spacing" textLength="91" x="13" y="299.4414">-shadow_bias</text><text fill="#000000" font-family="sans-serif" font-size="14" lengthAdjust="spacing" textLength="83" x="13" y="318.5093">-pcf_params</text><line style="stroke:#181818;stroke-width:0.5;" x1="8" x2="380" y1="326.6113" y2="326.6113"/></g><!--class Skybox_cubemap_shader--><g id="elem_Skybox_cubemap_shader"><rect codeLine="19" fill="#F1F1F1" height="67.0679" id="Skybox_cubemap_shader" rx="2.5" ry="2.5" style="stroke:#181818;stroke-width:0.5;" width="200" x="416" y="191.27"/><ellipse cx="431" cy="207.27" fill="#ADD1B2" rx="11" ry="11" style="stroke:#181818;stroke-width:1.0;"/><path d="M431.1094,202.8013 Q430.1875,202.8013 429.4531,203.1138 Q428.7344,203.4263 428.2344,204.02 Q427.7344,204.5981 427.4531,205.4731 Q427.1875,206.3481 427.1875,207.4419 Q427.1875,208.8794 427.625,209.9263 Q428.0781,210.9731 428.9219,211.52 Q429.7813,212.0669 431.0938,212.0669 Q431.875,212.0669 432.5625,211.9419 Q433.2656,211.8013 434.2656,211.4888 L434.2656,213.3638 Q433.4063,213.6919 432.6406,213.8169 Q431.8906,213.9419 430.875,213.9419 Q428.9531,213.9419 427.6406,213.145 Q426.3438,212.3325 425.6875,210.8638 Q425.0313,209.3794 425.0313,207.4106 Q425.0313,205.9888 425.4219,204.8169 Q425.8281,203.6294 426.6094,202.7544 Q427.3906,201.8794 428.5313,201.4106 Q429.6719,200.9263 431.1406,200.9263 Q432.0938,200.9263 432.9844,201.1294 Q433.8906,201.3169 434.8281,201.7856 L434,203.5669 Q433.2188,203.1919 432.5625,203.0044 Q431.9063,202.8013 431.1094,202.8013 Z " fill="#000000"/><text fill="#000000" font-family="sans-serif" font-size="14" lengthAdjust="spacing" textLength="168" x="445" y="212.702">Skybox_cubemap_shader</text><line style="stroke:#181818;stroke-width:0.5;" x1="417" x2="615" y1="223.27" y2="223.27"/><line style="stroke:#181818;stroke-width:0.5;" x1="417" x2="615" y1="231.27" y2="231.27"/><text fill="#000000" font-family="sans-serif" font-size="14" lengthAdjust="spacing" textLength="177" x="422" y="250.2359">-skybox texture (cubemap)</text></g><!--class Skybox_spherical_shader--><g id="elem_Skybox_spherical_shader"><rect codeLine="23" fill="#F1F1F1" height="67.0679" id="Skybox_spherical_shader" rx="2.5" ry="2.5" style="stroke:#181818;stroke-width:0.5;" width="199" x="651.5" y="191.27"/><ellipse cx="666.5" cy="207.27" fill="#ADD1B2" rx="11" ry="11" style="stroke:#181818;stroke-width:1.0;"/><path d="M666.6094,202.8013 Q665.6875,202.8013 664.9531,203.1138 Q664.2344,203.4263 663.7344,204.02 Q663.2344,204.5981 662.9531,205.4731 Q662.6875,206.3481 662.6875,207.4419 Q662.6875,208.8794 663.125,209.9263 Q663.5781,210.9731 664.4219,211.52 Q665.2813,212.0669 666.5938,212.0669 Q667.375,212.0669 668.0625,211.9419 Q668.7656,211.8013 669.7656,211.4888 L669.7656,213.3638 Q668.9063,213.6919 668.1406,213.8169 Q667.3906,213.9419 666.375,213.9419 Q664.4531,213.9419 663.1406,213.145 Q661.8438,212.3325 661.1875,210.8638 Q660.5313,209.3794 660.5313,207.4106 Q660.5313,205.9888 660.9219,204.8169 Q661.3281,203.6294 662.1094,202.7544 Q662.8906,201.8794 664.0313,201.4106 Q665.1719,200.9263 666.6406,200.9263 Q667.5938,200.9263 668.4844,201.1294 Q669.3906,201.3169 670.3281,201.7856 L669.5,203.5669 Q668.7188,203.1919 668.0625,203.0044 Q667.4063,202.8013 666.6094,202.8013 Z " fill="#000000"/><text fill="#000000" font-family="sans-serif" font-size="14" lengthAdjust="spacing" textLength="167" x="680.5" y="212.702">Skybox_spherical_shader</text><line style="stroke:#181818;stroke-width:0.5;" x1="652.5" x2="849.5" y1="223.27" y2="223.27"/><line style="stroke:#181818;stroke-width:0.5;" x1="652.5" x2="849.5" y1="231.27" y2="231.27"/><text fill="#000000" font-family="sans-serif" font-size="14" lengthAdjust="spacing" textLength="176" x="657.5" y="250.2359">-skybox texture (spherical)</text></g><!--class Shadow_caster_shader--><g id="elem_Shadow_caster_shader"><rect codeLine="27" fill="#F1F1F1" height="67.0679" id="Shadow_caster_shader" rx="2.5" ry="2.5" style="stroke:#181818;stroke-width:0.5;" width="185" x="885.5" y="191.27"/><ellipse cx="900.5" cy="207.27" fill="#ADD1B2" rx="11" ry="11" style="stroke:#181818;stroke-width:1.0;"/><path d="M900.6094,202.8013 Q899.6875,202.8013 898.9531,203.1138 Q898.2344,203.4263 897.7344,204.02 Q897.2344,204.5981 896.9531,205.4731 Q896.6875,206.3481 896.6875,207.4419 Q896.6875,208.8794 897.125,209.9263 Q897.5781,210.9731 898.4219,211.52 Q899.2813,212.0669 900.5938,212.0669 Q901.375,212.0669 902.0625,211.9419 Q902.7656,211.8013 903.7656,211.4888 L903.7656,213.3638 Q902.9063,213.6919 902.1406,213.8169 Q901.3906,213.9419 900.375,213.9419 Q898.4531,213.9419 897.1406,213.145 Q895.8438,212.3325 895.1875,210.8638 Q894.5313,209.3794 894.5313,207.4106 Q894.5313,205.9888 894.9219,204.8169 Q895.3281,203.6294 896.1094,202.7544 Q896.8906,201.8794 898.0313,201.4106 Q899.1719,200.9263 900.6406,200.9263 Q901.5938,200.9263 902.4844,201.1294 Q903.3906,201.3169 904.3281,201.7856 L903.5,203.5669 Q902.7188,203.1919 902.0625,203.0044 Q901.4063,202.8013 900.6094,202.8013 Z " fill="#000000"/><text fill="#000000" font-family="sans-serif" font-size="14" lengthAdjust="spacing" textLength="153" x="914.5" y="212.702">Shadow_caster_shader</text><line style="stroke:#181818;stroke-width:0.5;" x1="886.5" x2="1069.5" y1="223.27" y2="223.27"/><text fill="#000000" font-family="sans-serif" font-size="14" lengthAdjust="spacing" textLength="47" x="891.5" y="242.2359">-model</text><line style="stroke:#181818;stroke-width:0.5;" x1="886.5" x2="1069.5" y1="250.3379" y2="250.3379"/></g><!--class Gamma_shader--><g id="elem_Gamma_shader"><rect codeLine="31" fill="#F1F1F1" height="67.0679" id="Gamma_shader" rx="2.5" ry="2.5" style="stroke:#181818;stroke-width:0.5;" width="160" x="1105" y="191.27"/><ellipse cx="1130.35" cy="207.27" fill="#ADD1B2" rx="11" ry="11" style="stroke:#181818;stroke-width:1.0;"/><path d="M1130.4594,202.8013 Q1129.5375,202.8013 1128.8031,203.1138 Q1128.0844,203.4263 1127.5844,204.02 Q1127.0844,204.5981 1126.8031,205.4731 Q1126.5375,206.3481 1126.5375,207.4419 Q1126.5375,208.8794 1126.975,209.9263 Q1127.4281,210.9731 1128.2719,211.52 Q1129.1313,212.0669 1130.4438,212.0669 Q1131.225,212.0669 1131.9125,211.9419 Q1132.6156,211.8013 1133.6156,211.4888 L1133.6156,213.3638 Q1132.7563,213.6919 1131.9906,213.8169 Q1131.2406,213.9419 1130.225,213.9419 Q1128.3031,213.9419 1126.9906,213.145 Q1125.6938,212.3325 1125.0375,210.8638 Q1124.3813,209.3794 1124.3813,207.4106 Q1124.3813,205.9888 1124.7719,204.8169 Q1125.1781,203.6294 1125.9594,202.7544 Q1126.7406,201.8794 1127.8813,201.4106 Q1129.0219,200.9263 1130.4906,200.9263 Q1131.4438,200.9263 1132.3344,201.1294 Q1133.2406,201.3169 1134.1781,201.7856 L1133.35,203.5669 Q1132.5688,203.1919 1131.9125,203.0044 Q1131.2563,202.8013 1130.4594,202.8013 Z " fill="#000000"/><text fill="#000000" font-family="sans-serif" font-size="14" lengthAdjust="spacing" textLength="105" x="1146.65" y="212.702">Gamma_shader</text><line style="stroke:#181818;stroke-width:0.5;" x1="1106" x2="1264" y1="223.27" y2="223.27"/><text fill="#000000" font-family="sans-serif" font-size="14" lengthAdjust="spacing" textLength="148" x="1111" y="242.2359">// no default uniforms</text><line style="stroke:#181818;stroke-width:0.5;" x1="1106" x2="1264" y1="250.3379" y2="250.3379"/></g><!--reverse link Shader to Phong_shader--><g id="link_Shader_Phong_shader"><path codeLine="35" d="M692.7858,40.8424 C626.1258,51.5024 507.43,73.75 398,115 C392.46,117.09 386.88,119.3 381.29,121.6 " fill="none" id="Shader-backto-Phong_shader" style="stroke:#181818;stroke-width:1.0;"/><polygon fill="none" points="710.56,38,691.8384,34.9177,693.7333,46.7671,710.56,38" style="stroke:#181818;stroke-width:1.0;"/></g><!--reverse link Shader to Skybox_cubemap_shader--><g id="link_Shader_Skybox_cubemap_shader"><path codeLine="36" d="M700.681,65.4806 C677.021,81.5206 660.41,93.6 634,115 C604.23,139.12 572.4,168.72 549.31,190.95 " fill="none" id="Shader-backto-Skybox_cubemap_shader" style="stroke:#181818;stroke-width:1.0;"/><polygon fill="none" points="715.58,55.38,697.3142,60.5142,704.0479,70.4469,715.58,55.38" style="stroke:#181818;stroke-width:1.0;"/></g><!--reverse link Shader to Skybox_spherical_shader--><g id="link_Shader_Skybox_spherical_shader"><path codeLine="37" d="M751,73.13 C751,107.01 751,152.28 751,190.96 " fill="none" id="Shader-backto-Skybox_spherical_shader" style="stroke:#181818;stroke-width:1.0;"/><polygon fill="none" points="751,55.13,745,73.13,757,73.13,751,55.13" style="stroke:#181818;stroke-width:1.0;"/></g><!--reverse link Shader to Shadow_caster_shader--><g id="link_Shader_Shadow_caster_shader"><path codeLine="38" d="M802.1407,65.4539 C825.8407,81.3439 842.16,93.3 868,115 C896.39,138.84 926.13,168.59 947.53,190.96 " fill="none" id="Shader-backto-Shadow_caster_shader" style="stroke:#181818;stroke-width:1.0;"/><polygon fill="none" points="787.19,55.43,798.7994,70.4374,805.4819,60.4703,787.19,55.43" style="stroke:#181818;stroke-width:1.0;"/></g><!--reverse link Shader to Gamma_shader--><g id="link_Shader_Gamma_shader"><path codeLine="39" d="M809.2226,35.6866 C875.5426,40.9966 991.99,57.18 1088,115 C1119.43,133.93 1146.38,166.32 1163.83,190.85 " fill="none" id="Shader-backto-Gamma_shader" style="stroke:#181818;stroke-width:1.0;"/><polygon fill="none" points="791.28,34.25,808.7437,41.6675,809.7014,29.7057,791.28,34.25" style="stroke:#181818;stroke-width:1.0;"/></g><!--SRC=[XL7BQiGm3BpdAtHiOSFs0vP2JwMtmh9dezXAO-BOmR9fqiU_rtbjDscW1eCbpSWp4jVQjkYn0McG-Ia4huiOw4KwUzOV10zPDbRWNA4Y3vzPzhsaNYjdtmGl1KWdZzRv598I3RQdYIHAmX0z7U1YTUbymuymftXYDKwHcPx1e-KaYQpifqoD1wXLkZEOAssr9Px3GRuns0cMQ6YJCzYd_wMBDYnaLEvT51eNkYp5E07-DNQk-y9rGiQ2aekDGnwB4AWR3C3TZBh_G-Us8g-Jg7yQN76tBIQP4Zaa_Ml-DAmhz1cR1jUGun6i0qKbHXCWpaCVAFCMJrzvlbhVgh1hVm-nTRZ6x5XO0Mw5_m00]--></g></svg>