<?xml version="1.0" encoding="us-ascii" standalone="no"?><svg xmlns="http://www.w3.org/2000/svg" xmlns:xlink="http://www.w3.org/1999/xlink" contentStyleType="text/css" height="1376.5625px" preserveAspectRatio="none" style="width:1346px;height:1376px;background:#FFFFFF;" version="1.1" viewBox="0 0 1346 1376" width="1346.875px" zoomAndPan="magnify"><defs/><g><text fill="#000000" font-family="Arial" font-size="21.875" font-weight="bold" lengthAdjust="spacing" textLength="584.4727" x="370.2637" y="39.0093">&#21452;&#32531;&#20914;&#25968;&#25454;&#27969;&#22270; (Double Buffering Data Flow Diagram)</text><!--entity User--><g id="elem_User"><ellipse cx="1107.8125" cy="84.4811" fill="#FFEBEE" rx="12.5" ry="12.5" style="stroke:#F44336;stroke-width:0.78125;"/><path d="M1107.8125,96.9811 L1107.8125,139.1686 M1087.5,109.4811 L1128.125,109.4811 M1107.8125,139.1686 L1087.5,162.6061 M1107.8125,139.1686 L1128.125,162.6061 " fill="none" style="stroke:#F44336;stroke-width:0.78125;"/><text fill="#000000" font-family="Arial" font-size="21.875" lengthAdjust="spacing" textLength="43.75" x="1068.75" y="188.3341">&#29992;&#25143;</text><text fill="#000000" font-family="Arial" font-size="21.875" lengthAdjust="spacing" textLength="78.125" x="1068.75" y="218.1278">(&#36755;&#20837;&#28304;)</text></g><!--entity Display--><g id="elem_Display"><ellipse cx="217.1875" cy="1285.7936" fill="#F3E5F5" rx="18.75" ry="18.75" style="stroke:#9C27B0;stroke-width:0.78125;"/><line style="stroke:#9C27B0;stroke-width:0.78125;" x1="198.4375" x2="235.9375" y1="1307.6686" y2="1307.6686"/><text fill="#000000" font-family="Arial" font-size="21.875" lengthAdjust="spacing" textLength="117.1875" x="158.5938" y="1334.1779">&#26174;&#31034;&#22120;/&#23631;&#24149;</text><text fill="#000000" font-family="Arial" font-size="21.875" lengthAdjust="spacing" textLength="100" x="158.5938" y="1363.9715">(&#28210;&#26579;&#36755;&#20986;)</text></g><!--entity LogicProcess--><g id="elem_LogicProcess"><rect fill="#BBDEFB" height="61.0436" rx="3.9063" ry="3.9063" style="stroke:#4CAF50;stroke-width:0.78125;" width="362.5" x="926.5625" y="502.6217"/><text fill="#000000" font-family="Arial" font-size="21.875" lengthAdjust="spacing" textLength="331.25" x="942.1875" y="541.631">P1: &#26356;&#26032;&#28216;&#25103;&#36923;&#36753; (World.update)</text></g><!--entity OrchestrationProcess--><g id="elem_OrchestrationProcess"><rect fill="#C8E6C9" height="61.0436" rx="3.9063" ry="3.9063" style="stroke:#4CAF50;stroke-width:0.78125;" width="450" x="287.5" y="117.3561"/><text fill="#000000" font-family="Arial" font-size="21.875" lengthAdjust="spacing" textLength="418.75" x="303.125" y="156.3654">P2: &#21327;&#35843;&#20132;&#25442;&#19982;&#28210;&#26579; (Engine_runtime.tick)</text></g><!--entity RenderProcess--><g id="elem_RenderProcess"><rect fill="#BBDEFB" height="61.0436" rx="3.9063" ry="3.9063" style="stroke:#4CAF50;stroke-width:0.78125;" width="412.5" x="10.9375" y="1073.1999"/><text fill="#000000" font-family="Arial" font-size="21.875" lengthAdjust="spacing" textLength="381.25" x="26.5625" y="1112.2091">P3: &#28210;&#26579;&#22330;&#26223; (Render_system.render)</text></g><!--entity SwapDataBuffers--><g id="elem_SwapDataBuffers"><path d="M378.125,857.3561 C378.125,841.7311 512.5,841.7311 512.5,841.7311 C512.5,841.7311 646.875,841.7311 646.875,857.3561 L646.875,931.0059 C646.875,946.6309 512.5,946.6309 512.5,946.6309 C512.5,946.6309 378.125,946.6309 378.125,931.0059 L378.125,857.3561 " fill="#FFCCBC" style="stroke:#2196F3;stroke-width:0.78125;"/><path d="M378.125,857.3561 C378.125,872.9811 512.5,872.9811 512.5,872.9811 C512.5,872.9811 646.875,872.9811 646.875,857.3561 " fill="none" style="stroke:#2196F3;stroke-width:0.78125;"/><text fill="#000000" font-family="Arial" font-size="21.875" lengthAdjust="spacing" textLength="237.5" x="393.75" y="902.6154">DS1: Swap_data &#32531;&#20914;&#21306;</text><text fill="#000000" font-family="Arial" font-size="21.875" lengthAdjust="spacing" textLength="181.25" x="393.75" y="932.409">(m_swap_data[2])</text></g><!--link User to LogicProcess--><g id="link_User_LogicProcess"><path d="M1107.8125,224.9342 C1107.8125,309.7624 1107.8125,433.903 1107.8125,492.7155 " fill="none" id="User-to-LogicProcess" style="stroke:#181818;stroke-width:1.5625;"/><polygon fill="#181818" points="1107.8125,502.0905,1114.0625,488.028,1107.8125,494.278,1101.5625,488.028,1107.8125,502.0905" style="stroke:#181818;stroke-width:1.5625;"/><text fill="#000000" font-family="Arial" font-size="21.875" lengthAdjust="spacing" textLength="225" x="1109.375" y="356.5216">&#36755;&#20837;&#29366;&#24577; (Input_state)</text></g><!--link OrchestrationProcess to LogicProcess--><g id="link_OrchestrationProcess_LogicProcess"><path d="M537.25,178.8092 C585.1563,234.0124 696.1719,354.028 812.5,424.5436 C868.6875,458.6061 928.4681,481.5308 985.4681,499.2183 " fill="none" id="OrchestrationProcess-to-LogicProcess" style="stroke:#181818;stroke-width:1.5625;"/><polygon fill="#181818" points="994.4219,501.9967,982.8434,491.8599,986.9604,499.6814,979.1389,503.7983,994.4219,501.9967" style="stroke:#181818;stroke-width:1.5625;"/><text fill="#000000" font-family="Arial" font-size="21.875" lengthAdjust="spacing" textLength="153.125" x="877.3438" y="296.3654">&#36923;&#36753;&#26356;&#26032;&#19978;&#19979;&#25991;</text><text fill="#000000" font-family="Arial" font-size="21.875" lengthAdjust="spacing" textLength="198.4375" x="854.6875" y="326.159">(Logic_tick_context)</text><path d="M820.3125,341.9434 L820.3125,416.9434 L1087.5,416.9434 L1087.5,357.5684 L1071.875,341.9434 L820.3125,341.9434 " fill="#FEFFDD" style="stroke:#181818;stroke-width:0.78125;"/><path d="M1071.875,341.9434 L1071.875,357.5684 L1087.5,357.5684 L1071.875,341.9434 " fill="#FEFFDD" style="stroke:#181818;stroke-width:0.78125;"/><text fill="#000000" font-family="Arial" font-size="21.875" lengthAdjust="spacing" textLength="123.4375" x="829.6875" y="373.1401">- delta_time</text><text fill="#000000" font-family="Arial" font-size="21.875" lengthAdjust="spacing" textLength="234.375" x="829.6875" y="402.9338">- logic_swap_data &#24341;&#29992;</text></g><!--link LogicProcess to SwapDataBuffers--><g id="link_LogicProcess_SwapDataBuffers"><path d="M1058.5938,564.2936 C957.3281,625.1686 732.6284,760.2754 606.144,836.3223 " fill="none" id="LogicProcess-to-SwapDataBuffers" style="stroke:#181818;stroke-width:1.5625;"/><polygon fill="#181818" points="598.1094,841.153,613.3818,839.2634,604.8049,837.1274,606.9408,828.5505,598.1094,841.153" style="stroke:#181818;stroke-width:1.5625;"/><text fill="#000000" font-family="Arial" font-size="21.875" lengthAdjust="spacing" textLength="215.625" x="916.8125" y="726.8341">&#22330;&#26223;&#29366;&#24577;&#25968;&#25454; (&#19979;&#19968;&#24103;)</text></g><!--link OrchestrationProcess to SwapDataBuffers--><g id="link_OrchestrationProcess_SwapDataBuffers"><path d="M512.5,179.028 C512.5,292.0124 512.5,681.4342 512.5,825.5905 " fill="none" id="OrchestrationProcess-to-SwapDataBuffers" style="stroke:#181818;stroke-width:1.5625;"/><path d="M525.7144,836.4058 A14.0625,14.0625 0 0 0 499.2856 836.4058" fill="none" style="stroke:#181818;stroke-width:2.34375;"/><text fill="#000000" font-family="Arial" font-size="21.875" lengthAdjust="spacing" textLength="356.25" x="514.0625" y="496.3654">&#20132;&#25442;&#32531;&#20914;&#21306;&#35282;&#33394; &amp; &#28165;&#31354;&#26087;&#36923;&#36753;&#32531;&#20914;&#21306;</text><path d="M542.1875,512.1497 L542.1875,587.1497 L842.1875,587.1497 L842.1875,527.7747 L826.5625,512.1497 L542.1875,512.1497 " fill="#FEFFDD" style="stroke:#181818;stroke-width:0.78125;"/><path d="M826.5625,512.1497 L826.5625,527.7747 L842.1875,527.7747 L826.5625,512.1497 " fill="#FEFFDD" style="stroke:#181818;stroke-width:0.78125;"/><text fill="#000000" font-family="Arial" font-size="21.875" lengthAdjust="spacing" textLength="254.6875" x="551.5625" y="543.3465">- Engine_runtime.swap()</text><text fill="#000000" font-family="Arial" font-size="21.875" lengthAdjust="spacing" textLength="267.1875" x="551.5625" y="573.1401">- logic_swap_data().clear()</text></g><!--link OrchestrationProcess to RenderProcess--><g id="link_OrchestrationProcess_RenderProcess"><path d="M484.3438,179.0749 C418.0781,251.153 253.4375,444.2155 195.3125,641.7311 C149.1094,798.7311 188.4061,989.6067 206.9998,1063.7161 " fill="none" id="OrchestrationProcess-to-RenderProcess" style="stroke:#181818;stroke-width:1.5625;"/><polygon fill="#181818" points="209.2813,1072.8092,211.9212,1057.6485,207.3801,1065.2316,199.797,1060.6905,209.2813,1072.8092" style="stroke:#181818;stroke-width:1.5625;"/><text fill="#000000" font-family="Arial" font-size="21.875" lengthAdjust="spacing" textLength="153.125" x="271.0938" y="666.6779">&#28210;&#26579;&#26356;&#26032;&#19978;&#19979;&#25991;</text><text fill="#000000" font-family="Arial" font-size="21.875" lengthAdjust="spacing" textLength="220.3125" x="237.5" y="696.4715">(Render_tick_context)</text><path d="M203.125,712.2559 L203.125,787.2559 L492.1875,787.2559 L492.1875,727.8809 L476.5625,712.2559 L203.125,712.2559 " fill="#FEFFDD" style="stroke:#181818;stroke-width:0.78125;"/><path d="M476.5625,712.2559 L476.5625,727.8809 L492.1875,727.8809 L476.5625,712.2559 " fill="#FEFFDD" style="stroke:#181818;stroke-width:0.78125;"/><text fill="#000000" font-family="Arial" font-size="21.875" lengthAdjust="spacing" textLength="123.4375" x="212.5" y="743.4526">- delta_time</text><text fill="#000000" font-family="Arial" font-size="21.875" lengthAdjust="spacing" textLength="256.25" x="212.5" y="773.2463">- render_swap_data &#24341;&#29992;</text></g><!--link SwapDataBuffers to RenderProcess--><g id="link_SwapDataBuffers_RenderProcess"><path d="M438.7344,947.2936 C382.1875,986.8249 313.8574,1034.5967 267.1542,1067.2217 " fill="none" id="SwapDataBuffers-to-RenderProcess" style="stroke:#181818;stroke-width:1.5625;"/><polygon fill="#181818" points="259.4688,1072.5905,274.5762,1069.661,265.8733,1068.1165,267.4178,1059.4137,259.4688,1072.5905" style="stroke:#181818;stroke-width:1.5625;"/><text fill="#000000" font-family="Arial" font-size="21.875" lengthAdjust="spacing" textLength="215.625" x="366.4063" y="1018.4591">&#22330;&#26223;&#29366;&#24577;&#25968;&#25454; (&#24403;&#21069;&#24103;)</text></g><!--link RenderProcess to Display--><g id="link_RenderProcess_Display"><path d="M217.1875,1134.7467 C217.1875,1167.2311 217.1875,1210.778 217.1875,1250.7311 " fill="none" id="RenderProcess-to-Display" style="stroke:#181818;stroke-width:1.5625;"/><polygon fill="#181818" points="217.1875,1260.1061,223.4375,1246.0436,217.1875,1252.2936,210.9375,1246.0436,217.1875,1260.1061" style="stroke:#181818;stroke-width:1.5625;"/><text fill="#000000" font-family="Arial" font-size="21.875" lengthAdjust="spacing" textLength="131.25" x="218.75" y="1206.0529">&#28210;&#26579;&#23436;&#25104;&#22270;&#20687;</text></g><!--SRC=[dPRHRzj47CVV_LUSCeav3mrBqdHh9P2Mn9QG44nKY0T0aUTSWrN7ZiwEjlBKqQrhjwJf5bfQMcq35H8UQ4CP8qlQxf_9dTCd_WNkVAvd9mOrorlkVlVz_NxV-zoThKNDg2X8AODYHGF9p3N1UZi25vIgRikcON-Yb268tKIQeiUY8-QrRo58JWSc4LHjnIZfC6kY8aGvKpSHk3ATkoc7ihmDKzJ54ZAhHj4BbMx86Masc4wnbTkA5HPC9MTdv7HKr9XUMax9-K2aejec2ed9qzFfzCnOoAYIB4jPIGg4GSFMxAMGr6mkTJrxRJncJ2ijPUIC8D197GBSg3adJRnwJBOwf7v8_hg7zyw0c3Uhj-bijhgm095cb42UDWbatRm3yffIel9nGRWAFhZCZyRXW-tpbJO-V3OuRG9Hkcj3P2Wwa5Y56hJYbvPoxG6VMn01nG8nv_isMVlxAqCSdZNnWrz8RpCU4mJUE2tKgkZAaXj8TiwSWnxURR-F_sZWrrjq2UaUa-TDjl1XZwswV3VaHHU_MS47zvtDLMgOqtuCn5l8LA5bJTABu9C8OhUISu3ilIJR7TBjahN6-N9_UFO4Y5-OI2ycgXNA68p7M2iVcoLDzRA1AzbiNfApOQdK7C3rnh2pCkWTaFhFW-u6RvKQRvGq0nPGbHfKXWbRKnUvwAT8_GPQDb9ipJHyyTmDQIOt6nPFqpfTDRpV8xj7GFmC6fJ1WhLasR2SGEu_BifdnagTm6SNIVpx3lwkJP5a1CxJxOSJM7nnDa4iFqyjdh-ZL0fi373eSQr7IIWNh8lnBrDVy-9P9Cl8Ju35Zc0kbyrDNZu5nAkTdPv9yBWAaWd02UTuEuzUaULxx8XIr0EO2Evvc9hwC0p778W5rm7n8wDIjGkMxRB4z5C9ZvJXcprAyR3rAsuy2Ifp9FyvgU7NhmOdBywNdmwwZmRTnsJx8UzEY2GdgfIWe2z2pNVZ2Wp5WaglTNZNfhKPfWs1QG1TCnO5G7zJzEhNRQN0kFK6T7UXltC0dsnHi-ZXBmAsdFMNJe1WDxYpIjCEkikus-BuUeIjxbANy6aJhzTvf4-746g3zJKA1csDQtcxuoe2qK_4dPuEEqtMMyEVQdwMOUlfSFquS5mVEB_rIBC-EDt_BuF5g4AumeWiU0zuWZ-qHhgBD7haac06Y_5epyLuGjMXWkXyqFPCD5Rird3-x3lzv-y4LFWweTronN6Yl1lf7P12tbtsVqpD942mbK5_WuFZ3VhU7_LnOzijYr7W_7W_I9mmkdcH3KPnnPFvN5qFLqC9z_xsc-JPFd_Sy5h7V_w4S1AMzkAPz1t5XpMojaa_0_1AOx9tqNqBXqSloSu64Fd70hHKf5NONavmy_qB]--></g></svg>