<?xml version="1.0" encoding="us-ascii" standalone="no"?><svg xmlns="http://www.w3.org/2000/svg" xmlns:xlink="http://www.w3.org/1999/xlink" contentStyleType="text/css" height="596px" preserveAspectRatio="none" style="width:1680px;height:596px;background:#FFFFFF;" version="1.1" viewBox="0 0 1680 596" width="1680px" zoomAndPan="magnify"><defs/><g><text fill="#000000" font-family="sans-serif" font-size="14" font-weight="bold" lengthAdjust="spacing" textLength="158.8125" x="753.5938" y="24.9659">&#20809;&#28304;&#31995;&#32479;&#19982;&#32452;&#20214;&#38598;&#25104;&#35774;&#35745;</text><!--class Component_base--><g id="elem_Component_base"><rect codeLine="11" fill="#F1F1F1" height="48" id="Component_base" rx="2.5" ry="2.5" style="stroke:#181818;stroke-width:0.5;" width="139" x="1407" y="458.5979"/><ellipse cx="1422" cy="474.5979" fill="#A9DCDF" rx="11" ry="11" style="stroke:#181818;stroke-width:1.0;"/><path d="M1425.3438,479.8479 L1423.875,476.0979 L1419.4375,476.0979 L1418,479.8479 L1415.875,479.8479 L1420.8281,467.1292 L1422.5781,467.1292 L1427.5,479.8479 L1425.3438,479.8479 Z M1422,470.8948 Q1421.9531,470.7385 1421.8281,470.3792 Q1421.7031,470.0198 1421.5938,469.6448 Q1421.4844,469.2542 1421.6875,469.1917 Q1421.8438,469.3792 1421.75,469.7385 Q1421.6563,470.0823 1421.5625,470.3792 Q1421.4688,470.6604 1421.3906,470.8948 L1420.1563,474.2073 L1423.2344,474.2073 L1422,470.8948 Z " fill="#000000"/><text fill="#000000" font-family="sans-serif" font-size="14" font-style="italic" lengthAdjust="spacing" textLength="107" x="1436" y="480.0299">Component_base</text><line style="stroke:#181818;stroke-width:0.5;" x1="1408" x2="1545" y1="490.5979" y2="490.5979"/><line style="stroke:#181818;stroke-width:0.5;" x1="1408" x2="1545" y1="498.5979" y2="498.5979"/></g><!--class GameObject--><g id="elem_GameObject"><rect codeLine="17" fill="#F1F1F1" height="67.0679" id="GameObject" rx="2.5" ry="2.5" style="stroke:#181818;stroke-width:0.5;" width="377" x="7" y="273.0679"/><ellipse cx="149.75" cy="289.0679" fill="#ADD1B2" rx="11" ry="11" style="stroke:#181818;stroke-width:1.0;"/><path d="M149.8594,284.5992 Q148.9375,284.5992 148.2031,284.9117 Q147.4844,285.2242 146.9844,285.8179 Q146.4844,286.396 146.2031,287.271 Q145.9375,288.146 145.9375,289.2398 Q145.9375,290.6773 146.375,291.7242 Q146.8281,292.771 147.6719,293.3179 Q148.5313,293.8648 149.8438,293.8648 Q150.625,293.8648 151.3125,293.7398 Q152.0156,293.5992 153.0156,293.2867 L153.0156,295.1617 Q152.1563,295.4898 151.3906,295.6148 Q150.6406,295.7398 149.625,295.7398 Q147.7031,295.7398 146.3906,294.9429 Q145.0938,294.1304 144.4375,292.6617 Q143.7813,291.1773 143.7813,289.2085 Q143.7813,287.7867 144.1719,286.6148 Q144.5781,285.4273 145.3594,284.5523 Q146.1406,283.6773 147.2813,283.2085 Q148.4219,282.7242 149.8906,282.7242 Q150.8438,282.7242 151.7344,282.9273 Q152.6406,283.1148 153.5781,283.5835 L152.75,285.3648 Q151.9688,284.9898 151.3125,284.8023 Q150.6563,284.5992 149.8594,284.5992 Z " fill="#000000"/><text fill="#000000" font-family="sans-serif" font-size="14" lengthAdjust="spacing" textLength="83" x="170.25" y="294.4999">GameObject</text><line style="stroke:#181818;stroke-width:0.5;" x1="8" x2="383" y1="305.0679" y2="305.0679"/><rect fill="none" height="6" style="stroke:#C82930;stroke-width:1.0;" width="6" x="15" y="317.1019"/><text fill="#000000" font-family="sans-serif" font-size="14" lengthAdjust="spacing" textLength="351" x="27" y="324.0339">List&lt;Component_base&gt; components ' &#21253;&#21547;&#30340;&#32452;&#20214;&#21015;&#34920;</text><line style="stroke:#181818;stroke-width:0.5;" x1="8" x2="383" y1="332.1358" y2="332.1358"/></g><!--class Light--><g id="elem_Light"><rect codeLine="27" fill="#F1F1F1" height="238.6792" id="Light" rx="2.5" ry="2.5" style="stroke:#181818;stroke-width:0.5;" width="393" x="1280" y="129.2579"/><ellipse cx="1456.25" cy="145.2579" fill="#A9DCDF" rx="11" ry="11" style="stroke:#181818;stroke-width:1.0;"/><path d="M1459.5938,150.5079 L1458.125,146.7579 L1453.6875,146.7579 L1452.25,150.5079 L1450.125,150.5079 L1455.0781,137.7892 L1456.8281,137.7892 L1461.75,150.5079 L1459.5938,150.5079 Z M1456.25,141.5548 Q1456.2031,141.3985 1456.0781,141.0392 Q1455.9531,140.6798 1455.8438,140.3048 Q1455.7344,139.9142 1455.9375,139.8517 Q1456.0938,140.0392 1456,140.3985 Q1455.9063,140.7423 1455.8125,141.0392 Q1455.7188,141.3204 1455.6406,141.5548 L1454.4063,144.8673 L1457.4844,144.8673 L1456.25,141.5548 Z " fill="#000000"/><text fill="#000000" font-family="sans-serif" font-size="14" font-style="italic" lengthAdjust="spacing" textLength="32" x="1476.75" y="150.6899">Light</text><line style="stroke:#181818;stroke-width:0.5;" x1="1281" x2="1672" y1="161.2579" y2="161.2579"/><rect fill="none" height="6" style="stroke:#C82930;stroke-width:1.0;" width="6" x="1288" y="173.2919"/><text fill="#000000" font-family="sans-serif" font-size="14" lengthAdjust="spacing" textLength="139" x="1300" y="180.2239">Color color ' &#20809;&#28304;&#39068;&#33394;</text><rect fill="none" height="6" style="stroke:#C82930;stroke-width:1.0;" width="6" x="1288" y="192.3598"/><text fill="#000000" font-family="sans-serif" font-size="14" lengthAdjust="spacing" textLength="159" x="1300" y="199.2918">float intensity ' &#20809;&#28304;&#24378;&#24230;</text><rect fill="none" height="6" style="stroke:#C82930;stroke-width:1.0;" width="6" x="1288" y="211.4277"/><text fill="#000000" font-family="sans-serif" font-size="14" lengthAdjust="spacing" textLength="367" x="1300" y="218.3597">Node node ' &#20851;&#32852;&#30340; Node &#23454;&#20363;&#65292;&#29992;&#20110;&#23450;&#20041;&#20809;&#28304;&#20301;&#32622;&#19982;&#26397;&#21521;</text><line style="stroke:#181818;stroke-width:0.5;" x1="1281" x2="1672" y1="226.4617" y2="226.4617"/><ellipse cx="1291" cy="241.4956" fill="#84BE84" rx="3" ry="3" style="stroke:#038048;stroke-width:1.0;"/><text fill="#000000" font-family="sans-serif" font-size="14" lengthAdjust="spacing" textLength="308" x="1300" y="245.4276">Light(color: Color, intensity: float, node: Node)</text><ellipse cx="1291" cy="260.5635" fill="#84BE84" rx="3" ry="3" style="stroke:#038048;stroke-width:1.0;"/><text fill="#000000" font-family="sans-serif" font-size="14" lengthAdjust="spacing" textLength="50" x="1300" y="264.4955">~Light()</text><text fill="#000000" font-family="sans-serif" font-size="14" lengthAdjust="spacing" textLength="4" x="1300" y="283.5634">&#160;</text><ellipse cx="1291" cy="298.6994" fill="#84BE84" rx="3" ry="3" style="stroke:#038048;stroke-width:1.0;"/><text fill="#000000" font-family="sans-serif" font-size="14" lengthAdjust="spacing" textLength="112" x="1300" y="302.6314">get_color(): Color</text><ellipse cx="1291" cy="317.7673" fill="#84BE84" rx="3" ry="3" style="stroke:#038048;stroke-width:1.0;"/><text fill="#000000" font-family="sans-serif" font-size="14" lengthAdjust="spacing" textLength="143" x="1300" y="321.6993">set_color(color: Color)</text><ellipse cx="1291" cy="336.8352" fill="#84BE84" rx="3" ry="3" style="stroke:#038048;stroke-width:1.0;"/><text fill="#000000" font-family="sans-serif" font-size="14" lengthAdjust="spacing" textLength="132" x="1300" y="340.7672">get_intensity(): float</text><ellipse cx="1291" cy="355.9031" fill="#84BE84" rx="3" ry="3" style="stroke:#038048;stroke-width:1.0;"/><text fill="#000000" font-family="sans-serif" font-size="14" lengthAdjust="spacing" textLength="188" x="1300" y="359.8351">set_intensity(intensity: float)</text></g><!--class Directional_light--><g id="elem_Directional_light"><rect codeLine="47" fill="#F1F1F1" height="67.0679" id="Directional_light" rx="2.5" ry="2.5" style="stroke:#181818;stroke-width:0.5;" width="410" x="587.5" y="47.0679"/><ellipse cx="733.25" cy="63.0679" fill="#ADD1B2" rx="11" ry="11" style="stroke:#181818;stroke-width:1.0;"/><path d="M733.3594,58.5992 Q732.4375,58.5992 731.7031,58.9117 Q730.9844,59.2242 730.4844,59.8179 Q729.9844,60.396 729.7031,61.271 Q729.4375,62.146 729.4375,63.2398 Q729.4375,64.6773 729.875,65.7242 Q730.3281,66.771 731.1719,67.3179 Q732.0313,67.8648 733.3438,67.8648 Q734.125,67.8648 734.8125,67.7398 Q735.5156,67.5992 736.5156,67.2867 L736.5156,69.1617 Q735.6563,69.4898 734.8906,69.6148 Q734.1406,69.7398 733.125,69.7398 Q731.2031,69.7398 729.8906,68.9429 Q728.5938,68.1304 727.9375,66.6617 Q727.2813,65.1773 727.2813,63.2085 Q727.2813,61.7867 727.6719,60.6148 Q728.0781,59.4273 728.8594,58.5523 Q729.6406,57.6773 730.7813,57.2085 Q731.9219,56.7242 733.3906,56.7242 Q734.3438,56.7242 735.2344,56.9273 Q736.1406,57.1148 737.0781,57.5835 L736.25,59.3648 Q735.4688,58.9898 734.8125,58.8023 Q734.1563,58.5992 733.3594,58.5992 Z " fill="#000000"/><text fill="#000000" font-family="sans-serif" font-size="14" lengthAdjust="spacing" textLength="110" x="753.75" y="68.4999">Directional_light</text><line style="stroke:#181818;stroke-width:0.5;" x1="588.5" x2="996.5" y1="79.0679" y2="79.0679"/><line style="stroke:#181818;stroke-width:0.5;" x1="588.5" x2="996.5" y1="87.0679" y2="87.0679"/><ellipse cx="598.5" cy="102.1019" fill="#84BE84" rx="3" ry="3" style="stroke:#038048;stroke-width:1.0;"/><text fill="#000000" font-family="sans-serif" font-size="14" lengthAdjust="spacing" textLength="384" x="607.5" y="106.0339">Directional_light(color: Color, intensity: float, node: Node)</text></g><!--class Point_light--><g id="elem_Point_light"><rect codeLine="53" fill="#F1F1F1" height="86.1358" id="Point_light" rx="2.5" ry="2.5" style="stroke:#181818;stroke-width:0.5;" width="540" x="522.5" y="149.5279"/><ellipse cx="752.75" cy="165.5279" fill="#ADD1B2" rx="11" ry="11" style="stroke:#181818;stroke-width:1.0;"/><path d="M752.8594,161.0592 Q751.9375,161.0592 751.2031,161.3717 Q750.4844,161.6842 749.9844,162.2779 Q749.4844,162.856 749.2031,163.731 Q748.9375,164.606 748.9375,165.6998 Q748.9375,167.1373 749.375,168.1842 Q749.8281,169.231 750.6719,169.7779 Q751.5313,170.3248 752.8438,170.3248 Q753.625,170.3248 754.3125,170.1998 Q755.0156,170.0592 756.0156,169.7467 L756.0156,171.6217 Q755.1563,171.9498 754.3906,172.0748 Q753.6406,172.1998 752.625,172.1998 Q750.7031,172.1998 749.3906,171.4029 Q748.0938,170.5904 747.4375,169.1217 Q746.7813,167.6373 746.7813,165.6685 Q746.7813,164.2467 747.1719,163.0748 Q747.5781,161.8873 748.3594,161.0123 Q749.1406,160.1373 750.2813,159.6685 Q751.4219,159.1842 752.8906,159.1842 Q753.8438,159.1842 754.7344,159.3873 Q755.6406,159.5748 756.5781,160.0435 L755.75,161.8248 Q754.9688,161.4498 754.3125,161.2623 Q753.6563,161.0592 752.8594,161.0592 Z " fill="#000000"/><text fill="#000000" font-family="sans-serif" font-size="14" lengthAdjust="spacing" textLength="71" x="773.25" y="170.9599">Point_light</text><line style="stroke:#181818;stroke-width:0.5;" x1="523.5" x2="1061.5" y1="181.5279" y2="181.5279"/><rect fill="none" height="6" style="stroke:#C82930;stroke-width:1.0;" width="6" x="530.5" y="193.5619"/><text fill="#000000" font-family="sans-serif" font-size="14" lengthAdjust="spacing" textLength="252" x="542.5" y="200.4939">float attenuation_factor ' &#20809;&#28304;&#34928;&#20943;&#22240;&#23376;</text><line style="stroke:#181818;stroke-width:0.5;" x1="523.5" x2="1061.5" y1="208.5958" y2="208.5958"/><ellipse cx="533.5" cy="223.6298" fill="#84BE84" rx="3" ry="3" style="stroke:#038048;stroke-width:1.0;"/><text fill="#000000" font-family="sans-serif" font-size="14" lengthAdjust="spacing" textLength="514" x="542.5" y="227.5618">Point_light(color: Color, intensity: float, node: Node, attenuation_factor: float)</text></g><!--class Spot_light--><g id="elem_Spot_light"><rect codeLine="60" fill="#F1F1F1" height="105.2038" id="Spot_light" rx="2.5" ry="2.5" style="stroke:#181818;stroke-width:0.5;" width="695" x="445" y="270.9979"/><ellipse cx="754.75" cy="286.9979" fill="#ADD1B2" rx="11" ry="11" style="stroke:#181818;stroke-width:1.0;"/><path d="M754.8594,282.5292 Q753.9375,282.5292 753.2031,282.8417 Q752.4844,283.1542 751.9844,283.7479 Q751.4844,284.326 751.2031,285.201 Q750.9375,286.076 750.9375,287.1698 Q750.9375,288.6073 751.375,289.6542 Q751.8281,290.701 752.6719,291.2479 Q753.5313,291.7948 754.8438,291.7948 Q755.625,291.7948 756.3125,291.6698 Q757.0156,291.5292 758.0156,291.2167 L758.0156,293.0917 Q757.1563,293.4198 756.3906,293.5448 Q755.6406,293.6698 754.625,293.6698 Q752.7031,293.6698 751.3906,292.8729 Q750.0938,292.0604 749.4375,290.5917 Q748.7813,289.1073 748.7813,287.1385 Q748.7813,285.7167 749.1719,284.5448 Q749.5781,283.3573 750.3594,282.4823 Q751.1406,281.6073 752.2813,281.1385 Q753.4219,280.6542 754.8906,280.6542 Q755.8438,280.6542 756.7344,280.8573 Q757.6406,281.0448 758.5781,281.5135 L757.75,283.2948 Q756.9688,282.9198 756.3125,282.7323 Q755.6563,282.5292 754.8594,282.5292 Z " fill="#000000"/><text fill="#000000" font-family="sans-serif" font-size="14" lengthAdjust="spacing" textLength="67" x="775.25" y="292.4299">Spot_light</text><line style="stroke:#181818;stroke-width:0.5;" x1="446" x2="1139" y1="302.9979" y2="302.9979"/><rect fill="none" height="6" style="stroke:#C82930;stroke-width:1.0;" width="6" x="453" y="315.0319"/><text fill="#000000" font-family="sans-serif" font-size="14" lengthAdjust="spacing" textLength="247" x="465" y="321.9639">float inner_cone_angle ' &#32858;&#20809;&#28783;&#20869;&#38181;&#35282;</text><rect fill="none" height="6" style="stroke:#C82930;stroke-width:1.0;" width="6" x="453" y="334.0998"/><text fill="#000000" font-family="sans-serif" font-size="14" lengthAdjust="spacing" textLength="247" x="465" y="341.0318">float outer_cone_angle ' &#32858;&#20809;&#28783;&#22806;&#38181;&#35282;</text><line style="stroke:#181818;stroke-width:0.5;" x1="446" x2="1139" y1="349.1338" y2="349.1338"/><ellipse cx="456" cy="364.1677" fill="#84BE84" rx="3" ry="3" style="stroke:#038048;stroke-width:1.0;"/><text fill="#000000" font-family="sans-serif" font-size="14" lengthAdjust="spacing" textLength="669" x="465" y="368.0997">Spot_light(color: Color, intensity: float, node: Node, inner_cone_angle: float, outer_cone_angle: float)</text></g><!--class Light_component--><g id="elem_Light_component"><rect codeLine="72" fill="#F1F1F1" height="143.3396" id="Light_component" rx="2.5" ry="2.5" style="stroke:#181818;stroke-width:0.5;" width="442" x="571.5" y="410.9279"/><ellipse cx="730.25" cy="426.9279" fill="#ADD1B2" rx="11" ry="11" style="stroke:#181818;stroke-width:1.0;"/><path d="M730.3594,422.4592 Q729.4375,422.4592 728.7031,422.7717 Q727.9844,423.0842 727.4844,423.6779 Q726.9844,424.256 726.7031,425.131 Q726.4375,426.006 726.4375,427.0998 Q726.4375,428.5373 726.875,429.5842 Q727.3281,430.631 728.1719,431.1779 Q729.0313,431.7248 730.3438,431.7248 Q731.125,431.7248 731.8125,431.5998 Q732.5156,431.4592 733.5156,431.1467 L733.5156,433.0217 Q732.6563,433.3498 731.8906,433.4748 Q731.1406,433.5998 730.125,433.5998 Q728.2031,433.5998 726.8906,432.8029 Q725.5938,431.9904 724.9375,430.5217 Q724.2813,429.0373 724.2813,427.0685 Q724.2813,425.6467 724.6719,424.4748 Q725.0781,423.2873 725.8594,422.4123 Q726.6406,421.5373 727.7813,421.0685 Q728.9219,420.5842 730.3906,420.5842 Q731.3438,420.5842 732.2344,420.7873 Q733.1406,420.9748 734.0781,421.4435 L733.25,423.2248 Q732.4688,422.8498 731.8125,422.6623 Q731.1563,422.4592 730.3594,422.4592 Z " fill="#000000"/><text fill="#000000" font-family="sans-serif" font-size="14" lengthAdjust="spacing" textLength="116" x="750.75" y="432.3599">Light_component</text><line style="stroke:#181818;stroke-width:0.5;" x1="572.5" x2="1012.5" y1="442.9279" y2="442.9279"/><rect fill="none" height="6" style="stroke:#C82930;stroke-width:1.0;" width="6" x="579.5" y="454.9619"/><text fill="#000000" font-family="sans-serif" font-size="14" lengthAdjust="spacing" textLength="241" x="591.5" y="461.8939">Light light_instance ' &#23553;&#35013;&#30340;&#20809;&#28304;&#23454;&#20363;</text><line style="stroke:#181818;stroke-width:0.5;" x1="572.5" x2="1012.5" y1="469.9958" y2="469.9958"/><ellipse cx="582.5" cy="485.0298" fill="#84BE84" rx="3" ry="3" style="stroke:#038048;stroke-width:1.0;"/><text fill="#000000" font-family="sans-serif" font-size="14" lengthAdjust="spacing" textLength="197" x="591.5" y="488.9618">Light_component(light: Light)</text><text fill="#000000" font-family="sans-serif" font-size="14" lengthAdjust="spacing" textLength="4" x="591.5" y="508.0297">&#160;</text><ellipse cx="582.5" cy="523.1656" fill="#84BE84" rx="3" ry="3" style="stroke:#038048;stroke-width:1.0;"/><text fill="#000000" font-family="sans-serif" font-size="14" lengthAdjust="spacing" textLength="397" x="591.5" y="527.0976">update_light_data_per_frame() ' &#27599;&#24103;&#26356;&#26032;&#20809;&#28304;&#25968;&#25454;&#21040;&#28210;&#26579;&#31995;&#32479;</text><ellipse cx="582.5" cy="542.2335" fill="#84BE84" rx="3" ry="3" style="stroke:#038048;stroke-width:1.0;"/><text fill="#000000" font-family="sans-serif" font-size="14" lengthAdjust="spacing" textLength="416" x="591.5" y="546.1655">execute_necessary_operations() ' &#25191;&#34892;&#20854;&#20182;&#24517;&#35201;&#25805;&#20316; (&#22914;&#28210;&#26579;&#25351;&#20196;)</text></g><!--class Directional_light_component--><g id="elem_Directional_light_component"><rect codeLine="84" fill="#F1F1F1" height="48" id="Directional_light_component" rx="2.5" ry="2.5" style="stroke:#181818;stroke-width:0.5;" width="224" x="83.5" y="375.5979"/><ellipse cx="98.5" cy="391.5979" fill="#ADD1B2" rx="11" ry="11" style="stroke:#181818;stroke-width:1.0;"/><path d="M98.6094,387.1292 Q97.6875,387.1292 96.9531,387.4417 Q96.2344,387.7542 95.7344,388.3479 Q95.2344,388.926 94.9531,389.801 Q94.6875,390.676 94.6875,391.7698 Q94.6875,393.2073 95.125,394.2542 Q95.5781,395.301 96.4219,395.8479 Q97.2813,396.3948 98.5938,396.3948 Q99.375,396.3948 100.0625,396.2698 Q100.7656,396.1292 101.7656,395.8167 L101.7656,397.6917 Q100.9063,398.0198 100.1406,398.1448 Q99.3906,398.2698 98.375,398.2698 Q96.4531,398.2698 95.1406,397.4729 Q93.8438,396.6604 93.1875,395.1917 Q92.5313,393.7073 92.5313,391.7385 Q92.5313,390.3167 92.9219,389.1448 Q93.3281,387.9573 94.1094,387.0823 Q94.8906,386.2073 96.0313,385.7385 Q97.1719,385.2542 98.6406,385.2542 Q99.5938,385.2542 100.4844,385.4573 Q101.3906,385.6448 102.3281,386.1135 L101.5,387.8948 Q100.7188,387.5198 100.0625,387.3323 Q99.4063,387.1292 98.6094,387.1292 Z " fill="#000000"/><text fill="#000000" font-family="sans-serif" font-size="14" lengthAdjust="spacing" textLength="192" x="112.5" y="397.0299">Directional_light_component</text><line style="stroke:#181818;stroke-width:0.5;" x1="84.5" x2="306.5" y1="407.5979" y2="407.5979"/><line style="stroke:#181818;stroke-width:0.5;" x1="84.5" x2="306.5" y1="415.5979" y2="415.5979"/></g><!--class Point_light_component--><g id="elem_Point_light_component"><rect codeLine="89" fill="#F1F1F1" height="48" id="Point_light_component" rx="2.5" ry="2.5" style="stroke:#181818;stroke-width:0.5;" width="185" x="103" y="458.5979"/><ellipse cx="118" cy="474.5979" fill="#ADD1B2" rx="11" ry="11" style="stroke:#181818;stroke-width:1.0;"/><path d="M118.1094,470.1292 Q117.1875,470.1292 116.4531,470.4417 Q115.7344,470.7542 115.2344,471.3479 Q114.7344,471.926 114.4531,472.801 Q114.1875,473.676 114.1875,474.7698 Q114.1875,476.2073 114.625,477.2542 Q115.0781,478.301 115.9219,478.8479 Q116.7813,479.3948 118.0938,479.3948 Q118.875,479.3948 119.5625,479.2698 Q120.2656,479.1292 121.2656,478.8167 L121.2656,480.6917 Q120.4063,481.0198 119.6406,481.1448 Q118.8906,481.2698 117.875,481.2698 Q115.9531,481.2698 114.6406,480.4729 Q113.3438,479.6604 112.6875,478.1917 Q112.0313,476.7073 112.0313,474.7385 Q112.0313,473.3167 112.4219,472.1448 Q112.8281,470.9573 113.6094,470.0823 Q114.3906,469.2073 115.5313,468.7385 Q116.6719,468.2542 118.1406,468.2542 Q119.0938,468.2542 119.9844,468.4573 Q120.8906,468.6448 121.8281,469.1135 L121,470.8948 Q120.2188,470.5198 119.5625,470.3323 Q118.9063,470.1292 118.1094,470.1292 Z " fill="#000000"/><text fill="#000000" font-family="sans-serif" font-size="14" lengthAdjust="spacing" textLength="153" x="132" y="480.0299">Point_light_component</text><line style="stroke:#181818;stroke-width:0.5;" x1="104" x2="287" y1="490.5979" y2="490.5979"/><line style="stroke:#181818;stroke-width:0.5;" x1="104" x2="287" y1="498.5979" y2="498.5979"/></g><!--class Spot_light_component--><g id="elem_Spot_light_component"><rect codeLine="93" fill="#F1F1F1" height="48" id="Spot_light_component" rx="2.5" ry="2.5" style="stroke:#181818;stroke-width:0.5;" width="181" x="105" y="541.5979"/><ellipse cx="120" cy="557.5979" fill="#ADD1B2" rx="11" ry="11" style="stroke:#181818;stroke-width:1.0;"/><path d="M120.1094,553.1292 Q119.1875,553.1292 118.4531,553.4417 Q117.7344,553.7542 117.2344,554.3479 Q116.7344,554.926 116.4531,555.801 Q116.1875,556.676 116.1875,557.7698 Q116.1875,559.2073 116.625,560.2542 Q117.0781,561.301 117.9219,561.8479 Q118.7813,562.3948 120.0938,562.3948 Q120.875,562.3948 121.5625,562.2698 Q122.2656,562.1292 123.2656,561.8167 L123.2656,563.6917 Q122.4063,564.0198 121.6406,564.1448 Q120.8906,564.2698 119.875,564.2698 Q117.9531,564.2698 116.6406,563.4729 Q115.3438,562.6604 114.6875,561.1917 Q114.0313,559.7073 114.0313,557.7385 Q114.0313,556.3167 114.4219,555.1448 Q114.8281,553.9573 115.6094,553.0823 Q116.3906,552.2073 117.5313,551.7385 Q118.6719,551.2542 120.1406,551.2542 Q121.0938,551.2542 121.9844,551.4573 Q122.8906,551.6448 123.8281,552.1135 L123,553.8948 Q122.2188,553.5198 121.5625,553.3323 Q120.9063,553.1292 120.1094,553.1292 Z " fill="#000000"/><text fill="#000000" font-family="sans-serif" font-size="14" lengthAdjust="spacing" textLength="149" x="134" y="563.0299">Spot_light_component</text><line style="stroke:#181818;stroke-width:0.5;" x1="106" x2="285" y1="573.5979" y2="573.5979"/><line style="stroke:#181818;stroke-width:0.5;" x1="106" x2="285" y1="581.5979" y2="581.5979"/></g><!--link Directional_light to Light--><g id="link_Directional_light_Light"><path codeLine="102" d="M997.67,104.0779 C1044.75,111.3079 1094.38,120.3979 1140,131.5979 C1185.83,142.8579 1217.1943,152.0153 1262.5343,167.4853 " fill="none" id="Directional_light-to-Light" style="stroke:#181818;stroke-width:1.0;"/><polygon fill="none" points="1279.57,173.2979,1264.4719,161.8068,1260.5968,173.1639,1279.57,173.2979" style="stroke:#181818;stroke-width:1.0;"/></g><!--link Point_light to Light--><g id="link_Point_light_Light"><path codeLine="103" d="M1062.55,214.6879 C1135.01,220.6379 1194.0705,225.4833 1261.7105,231.0433 " fill="none" id="Point_light-to-Light" style="stroke:#181818;stroke-width:1.0;"/><polygon fill="none" points="1279.65,232.5179,1262.202,225.0635,1261.219,237.0231,1279.65,232.5179" style="stroke:#181818;stroke-width:1.0;"/></g><!--link Spot_light to Light--><g id="link_Spot_light_Light"><path codeLine="104" d="M1140.49,285.4379 C1188.37,280.1779 1218.1981,276.8973 1261.9881,272.0773 " fill="none" id="Spot_light-to-Light" style="stroke:#181818;stroke-width:1.0;"/><polygon fill="none" points="1279.88,270.1079,1261.3316,266.1133,1262.6445,278.0413,1279.88,270.1079" style="stroke:#181818;stroke-width:1.0;"/></g><!--link Light_component to Component_base--><g id="link_Light_component_Component_base"><path codeLine="106" d="M1013.98,482.5979 C1150,482.5979 1297.37,482.5979 1388.65,482.5979 " fill="none" id="Light_component-to-Component_base" style="stroke:#181818;stroke-width:1.0;"/><polygon fill="none" points="1406.65,482.5979,1388.65,476.5979,1388.65,488.5979,1406.65,482.5979" style="stroke:#181818;stroke-width:1.0;"/></g><!--link Directional_light_component to Light_component--><g id="link_Directional_light_component_Light_component"><path codeLine="107" d="M307.72,415.1079 C381.72,425.4379 463.6126,436.8613 553.3026,449.3713 " fill="none" id="Directional_light_component-to-Light_component" style="stroke:#181818;stroke-width:1.0;"/><polygon fill="none" points="571.13,451.8579,554.1314,443.4289,552.4737,455.3138,571.13,451.8579" style="stroke:#181818;stroke-width:1.0;"/></g><!--link Point_light_component to Light_component--><g id="link_Point_light_component_Light_component"><path codeLine="108" d="M288.49,482.5979 C363.76,482.5979 455.35,482.5979 553.04,482.5979 " fill="none" id="Point_light_component-to-Light_component" style="stroke:#181818;stroke-width:1.0;"/><polygon fill="none" points="571.04,482.5979,553.04,476.5979,553.04,488.5979,571.04,482.5979" style="stroke:#181818;stroke-width:1.0;"/></g><!--link Spot_light_component to Light_component--><g id="link_Spot_light_component_Light_component"><path codeLine="109" d="M286.22,553.0779 C361.54,542.5779 454.5226,529.6043 553.1826,515.8443 " fill="none" id="Spot_light_component-to-Light_component" style="stroke:#181818;stroke-width:1.0;"/><polygon fill="none" points="571.01,513.3579,552.3538,509.9018,554.0113,521.7868,571.01,513.3579" style="stroke:#181818;stroke-width:1.0;"/></g><!--reverse link Light_component to Light--><g id="link_Light_component_Light"><path codeLine="113" d="M1025.1993,428.4855 C1067.4993,417.1255 1099.6,407.4179 1140,393.5979 C1185.93,377.8779 1234.37,358.6079 1279.71,339.3179 " fill="none" id="Light_component-backto-Light" style="stroke:#181818;stroke-width:1.0;"/><polygon fill="#181818" points="1013.61,431.5979,1020.4421,433.9048,1025.1993,428.4855,1018.3672,426.1786,1013.61,431.5979" style="stroke:#181818;stroke-width:1.0;"/><polygon fill="#000000" points="1179.7188,343.7177,1170.2107,343.9348,1172.1542,349.482,1179.7188,343.7177" style="stroke:#000000;stroke-width:1.0;"/><text fill="#000000" font-family="sans-serif" font-size="13" lengthAdjust="spacing" textLength="65" x="1184" y="350.4149">&#23553;&#35013;&#24182;&#31649;&#29702;</text><text fill="#000000" font-family="sans-serif" font-size="13" lengthAdjust="spacing" textLength="7" x="1021.6819" y="443.9803">1</text><text fill="#000000" font-family="sans-serif" font-size="13" lengthAdjust="spacing" textLength="7" x="1264.8862" y="357.1045">1</text></g><!--SRC=[fLRTJXj75BxVfnZb1hi5ejvQBJTKIYj5RTKyWBKn0xXoTj7k8XNHLePWZCEV6y19WM0SmezInTW1aRKNmylipEvUzHLwTcRM7en9iUeBspjppdU-EJ_Vx03ogrTUgqfshlpA2TtF1szVArRQoc14SWNQB7fdZkUKNNlDSnPSvoBOMQHBHV3ngnL5oU1n2rawCj8JanOQIniuPQLrJL46q3Vt-O0TULSAdfyy9EMcLybwTGV5w9j3F__URIoJmgfhlt3jPLhAn-yD2OQqaAMx1KxOsrwWBrf-lH96g3kA-jIq33LbeLH6DKqqgZ-RqZMiMScdgedHh8BWCu22xBQtUS8HwDeXMJzGVbSOj6tJfNLosW14jxK1sN7j3n23LFVWKU6WZzHd-CUdlq0o1E0GUfmshQzl1Xj1gUZPX91a9KUAVmCKZqgMNa5119tXuU4mVXzPvRMhEvmZYZrc5HfbzBvBOqCrKfCpVIML8tmkbzmYIY6lAAdlqUonICAedj4DE7Nu7N4CtkxwXO_2O3oZgnPAQnRMpBGrqpOYbqtIF196F-XZ66dXLxXzvizjGjBuQbY5g-L_BbUWU6vpZLIttKQ1GxYjLMXpw6Ew-uOK_rG4Ixgt46JtIRv5jshXvbuHLlWZi_YIdoh6I2Vu2GOx31ESyY3Zas0auiBl3-uOZo8zmfQ5ZOTFs0-YfGOzsnAc4zXAiW2nk0WXDipsXXm_BhcrcOIkZ8lasjdi9jncHN8NhbFYxSuJHJTMtTOkYf6ZURgt6sJdOIVEk-_RQC3LJ3B3YXs3Sq0smJCkUl-sJTGGzAH2byl1wpEmXX9nJs-ppaiNpYch35ayWxg9Kzn2wwiGZFHFEXX5TBtv1ZzbH5VUdRtHXIhKIPjMm-39SMXogMVzIetarydEFlbGL0HJ2QWFZeCzmhHBnEW_cTBRxFsvRI3WpPr6xANDsQuHqh01hQFXfAfDPC9HQJkJnLomUUWVlxpXeKzRTtk0HdCFSTXEtBxEsisgRTGT_6OA-XGz9fzTkXS9xV_HlcHRhf7GFqdsfCsEv8UXMPPW4arBrL9Cicfp_a4kl3Auj379wYL7ilvqu6CCCC6NssDCzsro_PoFhl2RdXfJBSohb8I_Qd8ASZnkmDqKYuSkf-l4FgOxvxHK4vE_LQEhLR9Ke_P7MjxWDxz0mx_Y51GfgU4KDatLc4dg0CVQrkHmXME_iiBbX5pd_ACvMKWO85t9kyuxKLII-mGraajsbu3SIkq0o8wKfmJopyl- -G4j7zB2bNpvHlT21s4G-MkVo7g9DsIaWOsBKFITPW_nwjme2nUakEPUxWVPbvxprnqjmGvtIrd- -mIak0AlEg4gSYAoB74A4d9d-le7bXH3mht_Z8Ml58tbuDKvtBnim7x66Tu5a-afiw-XyfnZMhYESBxN9h6HPaCILsxNOMZejn6USqNEZRGidKnQLRhhnFPkleWfdskv3bPdKUbTsvwcFOlLqvAbP84KbwAKC9OWfa0itak4c910ythLYbTSTEsiQxyNgYDKfTlbmLSFq1T3G-oN6oQwOT08lEV-2m00]--></g></svg>