<?xml version="1.0" encoding="us-ascii" standalone="no"?><svg xmlns="http://www.w3.org/2000/svg" xmlns:xlink="http://www.w3.org/1999/xlink" contentStyleType="text/css" height="404px" preserveAspectRatio="none" style="width:1497px;height:404px;background:#FFFFFF;" version="1.1" viewBox="0 0 1497 404" width="1497px" zoomAndPan="magnify"><defs/><g><text fill="#000000" font-family="sans-serif" font-size="14" font-weight="bold" lengthAdjust="spacing" textLength="132.25" x="675.375" y="24.9659">Runtime&#21069;&#31471;&#26550;&#26500;&#22270;</text><!--cluster Runtime??--><g id="cluster_Runtime&#21069;&#31471;"><path d="M175.5,46.6699 L265.4375,46.6699 A3.75,3.75 0 0 1 267.9375,49.1699 L274.9375,71.7378 L1487.5,71.7378 A2.5,2.5 0 0 1 1490,74.2378 L1490,395.1699 A2.5,2.5 0 0 1 1487.5,397.6699 L175.5,397.6699 A2.5,2.5 0 0 1 173,395.1699 L173,49.1699 A2.5,2.5 0 0 1 175.5,46.6699 " fill="none" style="stroke:#000000;stroke-width:1.5;"/><line style="stroke:#000000;stroke-width:1.5;" x1="173" x2="274.9375" y1="71.7378" y2="71.7378"/><text fill="#000000" font-family="sans-serif" font-size="14" font-weight="bold" lengthAdjust="spacing" textLength="88.9375" x="177" y="63.6358">Runtime&#21069;&#31471;</text></g><!--cluster Framework--><g id="cluster_Framework"><path d="M207.5,108.6699 L251.8125,108.6699 A3.75,3.75 0 0 1 254.3125,111.1699 L261.3125,133.7378 L504.5,133.7378 A2.5,2.5 0 0 1 507,136.2378 L507,352.1699 A2.5,2.5 0 0 1 504.5,354.6699 L207.5,354.6699 A2.5,2.5 0 0 1 205,352.1699 L205,111.1699 A2.5,2.5 0 0 1 207.5,108.6699 " fill="none" style="stroke:#000000;stroke-width:1.5;"/><line style="stroke:#000000;stroke-width:1.5;" x1="205" x2="261.3125" y1="133.7378" y2="133.7378"/><text fill="#000000" font-family="sans-serif" font-size="14" font-weight="bold" lengthAdjust="spacing" textLength="43.3125" x="209" y="125.6358">&#26694;&#26550;&#23618;</text></g><!--cluster UserInterface--><g id="cluster_UserInterface"><rect fill="none" height="132" rx="2.5" ry="2.5" style="stroke:#181818;stroke-width:1.0;" width="222" x="245" y="170.6699"/><rect fill="none" height="10" style="stroke:#181818;stroke-width:1.0;" width="15" x="447" y="175.6699"/><rect fill="none" height="2" style="stroke:#181818;stroke-width:1.0;" width="4" x="445" y="177.6699"/><rect fill="none" height="2" style="stroke:#181818;stroke-width:1.0;" width="4" x="445" y="181.6699"/><text fill="#000000" font-family="sans-serif" font-size="14" font-weight="bold" lengthAdjust="spacing" textLength="57.75" x="327.125" y="198.6358">&#29992;&#25143;&#25509;&#21475;</text></g><!--cluster ContextExchange--><g id="cluster_ContextExchange"><path d="M585.5,108.6699 L673.125,108.6699 A3.75,3.75 0 0 1 675.625,111.1699 L682.625,133.7378 L966.5,133.7378 A2.5,2.5 0 0 1 969,136.2378 L969,352.1699 A2.5,2.5 0 0 1 966.5,354.6699 L585.5,354.6699 A2.5,2.5 0 0 1 583,352.1699 L583,111.1699 A2.5,2.5 0 0 1 585.5,108.6699 " fill="none" style="stroke:#000000;stroke-width:1.5;"/><line style="stroke:#000000;stroke-width:1.5;" x1="583" x2="682.625" y1="133.7378" y2="133.7378"/><text fill="#000000" font-family="sans-serif" font-size="14" font-weight="bold" lengthAdjust="spacing" textLength="86.625" x="587" y="125.6358">&#19978;&#19979;&#25991;&#20132;&#25442;&#23618;</text></g><!--cluster DataTransfer--><g id="cluster_DataTransfer"><rect fill="none" height="132" rx="2.5" ry="2.5" style="stroke:#181818;stroke-width:1.0;" width="306" x="623" y="170.6699"/><rect fill="none" height="10" style="stroke:#181818;stroke-width:1.0;" width="15" x="909" y="175.6699"/><rect fill="none" height="2" style="stroke:#181818;stroke-width:1.0;" width="4" x="907" y="177.6699"/><rect fill="none" height="2" style="stroke:#181818;stroke-width:1.0;" width="4" x="907" y="181.6699"/><text fill="#000000" font-family="sans-serif" font-size="14" font-weight="bold" lengthAdjust="spacing" textLength="57.75" x="747.125" y="198.6358">&#25968;&#25454;&#20256;&#36755;</text></g><!--cluster Functional--><g id="cluster_Functional"><path d="M1130.5,100.6699 L1174.8125,100.6699 A3.75,3.75 0 0 1 1177.3125,103.1699 L1184.3125,125.7378 L1455.5,125.7378 A2.5,2.5 0 0 1 1458,128.2378 L1458,363.1699 A2.5,2.5 0 0 1 1455.5,365.6699 L1130.5,365.6699 A2.5,2.5 0 0 1 1128,363.1699 L1128,103.1699 A2.5,2.5 0 0 1 1130.5,100.6699 " fill="none" style="stroke:#000000;stroke-width:1.5;"/><line style="stroke:#000000;stroke-width:1.5;" x1="1128" x2="1184.3125" y1="125.7378" y2="125.7378"/><text fill="#000000" font-family="sans-serif" font-size="14" font-weight="bold" lengthAdjust="spacing" textLength="43.3125" x="1132" y="117.6358">&#21151;&#33021;&#23618;</text></g><!--cluster CoreSystems--><g id="cluster_CoreSystems"><rect fill="none" height="151" rx="2.5" ry="2.5" style="stroke:#181818;stroke-width:1.0;" width="250" x="1168" y="162.6699"/><rect fill="none" height="10" style="stroke:#181818;stroke-width:1.0;" width="15" x="1398" y="167.6699"/><rect fill="none" height="2" style="stroke:#181818;stroke-width:1.0;" width="4" x="1396" y="169.6699"/><rect fill="none" height="2" style="stroke:#181818;stroke-width:1.0;" width="4" x="1396" y="173.6699"/><text fill="#000000" font-family="sans-serif" font-size="14" font-weight="bold" lengthAdjust="spacing" textLength="86.625" x="1249.6875" y="190.6358">&#26680;&#24515;&#21151;&#33021;&#31995;&#32479;</text></g><!--entity UserInterfaceRect--><g id="elem_UserInterfaceRect"><rect fill="#F1F1F1" height="39.0679" rx="2.5" ry="2.5" style="stroke:#181818;stroke-width:0.5;" width="174" x="269" y="239.1399"/><text fill="#000000" font-family="sans-serif" font-size="14" lengthAdjust="spacing" textLength="154" x="279" y="264.1058">&#23450;&#20041;&#20102;&#28210;&#26579;&#22120;&#30340;&#29992;&#25143;&#25509;&#21475;</text></g><!--entity DataTransferRect--><g id="elem_DataTransferRect"><rect fill="#F1F1F1" height="39.0679" rx="2.5" ry="2.5" style="stroke:#181818;stroke-width:0.5;" width="258" x="647" y="239.1399"/><text fill="#000000" font-family="sans-serif" font-size="14" lengthAdjust="spacing" textLength="238" x="657" y="264.1058">&#23450;&#20041;&#20102;&#26694;&#26550;&#23618;&#21644;&#21151;&#33021;&#23618;&#20043;&#38388;&#30340;&#25968;&#25454;&#20256;&#36755;</text></g><!--entity CoreSystemsRect--><g id="elem_CoreSystemsRect"><rect fill="#F1F1F1" height="58.1358" rx="2.5" ry="2.5" style="stroke:#181818;stroke-width:0.5;" width="202" x="1192" y="231.5999"/><text fill="#000000" font-family="sans-serif" font-size="14" lengthAdjust="spacing" textLength="168" x="1202" y="256.5658">&#23450;&#20041;&#20102;&#28210;&#26579;&#22120;&#30340;&#26680;&#24515;&#21151;&#33021;&#65292;</text><text fill="#000000" font-family="sans-serif" font-size="14" lengthAdjust="spacing" textLength="182" x="1202" y="275.6338">&#36825;&#20123;&#21151;&#33021;&#30001;&#33509;&#24178;&#20010;&#31995;&#32479;&#25552;&#20379;&#12290;</text></g><!--entity ??--><g id="elem_&#29992;&#25143;"><ellipse cx="20" cy="171.6399" fill="#F1F1F1" rx="8" ry="8" style="stroke:#181818;stroke-width:0.5;"/><path d="M20,179.6399 L20,206.6399 M7,187.6399 L33,187.6399 M20,206.6399 L7,221.6399 M20,206.6399 L33,221.6399 " fill="none" style="stroke:#181818;stroke-width:0.5;"/><text fill="#000000" font-family="sans-serif" font-size="14" lengthAdjust="spacing" textLength="28" x="6" y="238.1058">&#29992;&#25143;</text></g><!--link ?? to UserInterface--><g id="link_&#29992;&#25143;_UserInterface"><path d="M34.09,202.6699 C63.76,202.6699 139,202.6699 209.1713,202.6699 C217.9427,202.6699 226.6349,202.6699 235.149,202.6699 C237.2775,202.6699 239.3949,202.6699 241.4996,202.6699 C242.552,202.6699 237.6012,202.6699 238.647,202.6699 " fill="none" id="&#29992;&#25143;-to-UserInterface" style="stroke:#181818;stroke-width:1.0;"/><polygon fill="#181818" points="244.647,202.6699,235.647,198.6699,239.647,202.6699,235.647,206.6699,244.647,202.6699" style="stroke:#181818;stroke-width:1.0;"/><text fill="#000000" font-family="sans-serif" font-size="13" lengthAdjust="spacing" textLength="91" x="65" y="198.5669">&#20351;&#29992;&#28210;&#26579;&#22120;&#25509;&#21475;</text></g><!--link Framework to ContextExchange--><!--link UserInterface to DataTransfer--><g id="link_UserInterface_DataTransfer"><path d="M468.6469,202.6699 C471.3945,202.6699 474.1711,202.6699 476.974,202.6699 C482.5797,202.6699 488.2904,202.6699 494.0852,202.6699 C517.2644,202.6699 541.7875,202.6699 566.305,202.6699 C578.5638,202.6699 590.8211,202.6699 602.9083,202.6699 C608.9519,202.6699 614.953,202.6699 620.8905,202.6699 C621.2616,202.6699 615.6325,202.6699 616.003,202.6699 " fill="none" id="UserInterface-to-DataTransfer" style="stroke:#181818;stroke-width:1.0;stroke-dasharray:7.0,7.0;"/><polygon fill="#181818" points="622.003,202.6699,613.003,198.6699,617.003,202.6699,613.003,206.6699,622.003,202.6699" style="stroke:#181818;stroke-width:1.0;"/><text fill="#000000" font-family="sans-serif" font-size="13" lengthAdjust="spacing" textLength="26" x="532" y="198.5669">&#35843;&#29992;</text></g><!--link ContextExchange to Functional--><!--link DataTransfer to CoreSystems--><g id="link_DataTransfer_CoreSystems"><path d="M930.916,200.2798 C931.8026,200.266 932.6912,200.2522 933.5817,200.2383 C937.1438,200.1829 940.7365,200.1271 944.3563,200.0708 C973.3154,199.6206 1004.0153,199.1433 1034.7113,198.6661 C1065.4072,198.189 1096.0991,197.7119 1125.0422,197.2619 C1139.5138,197.037 1147.5489,196.9121 1160.9279,196.7041 " fill="none" id="DataTransfer-to-CoreSystems" style="stroke:#181818;stroke-width:1.0;stroke-dasharray:7.0,7.0;"/><polygon fill="#181818" points="1166.9272,196.6109,1157.8661,192.7513,1161.9278,196.6886,1157.9904,200.7503,1166.9272,196.6109" style="stroke:#181818;stroke-width:1.0;"/><text fill="#000000" font-family="sans-serif" font-size="13" lengthAdjust="spacing" textLength="109" x="994" y="193.6169">&#20256;&#36755;&#25968;&#25454;/&#35843;&#29992;&#21151;&#33021;</text></g><!--SRC=[bLBBJXin5DtVhx1c7zYpO5EAn1RQLSl2cZZ9YCI3F4PGLKY885e80GIK2Y8H2aL2hKHvLEqaGF8njJtJLNy1Jvn0PWYFtfLdx7lEFUSUxl0yGQDJb3i58fVAmVSVQk-NsbkGbGP0dcGuuYvYJZR7KTfXnEQEIm6mpLs6WgrZzV4tm2Is9t2M82k6Ow7tW7JTtgelYnfRdirR27jecE42cNRPHFjPLBPRc7GfeHnP1bkj7icrmzRxrnvX8vGJbi4swUg9AfeBqwnMOicJNL5R4lL5vP-hwgRSEGvs5nu76zNT2S2eOZzcuVu9p6TSfF2NXLzIsnz4_Qig7tJKld0rsmn_EMFdzA2ajsRrwLILJyJLVjZOR7KDOOvVCKoz367FaTmnM6wioELgMBpMPr4h_VtyKvlmA7eF3sQXfnjFwB_bDKkUegt4uFm3YlTzsIoQdk3YChYijjrYPEoTnqd1-yzDTmF-krfvIyFcZgXNsWnRPs7fIDREXV_DiAcrTT6e_9cRJz8c_BWdMiiseKAfr60YcmD8N3UZsyvS9dW0Tv5FlSavwJIXusbtccg0H3mW3jZNDnYFmW0AJukQ0I2PgoJmtG8WXX11ThkiPsu5muIaty0Rr-06]--></g></svg>