<?xml version="1.0" encoding="us-ascii" standalone="no"?><svg xmlns="http://www.w3.org/2000/svg" xmlns:xlink="http://www.w3.org/1999/xlink" contentStyleType="text/css" height="973px" preserveAspectRatio="none" style="width:1282px;height:973px;background:#FFFFFF;" version="1.1" viewBox="0 0 1282 973" width="1282px" zoomAndPan="magnify"><defs/><g><text fill="#000000" font-family="Arial" font-size="14" font-weight="bold" lengthAdjust="spacing" textLength="300.875" x="483.5625" y="24.9659">RHI_window and RHI_imgui Class Diagram</text><!--class Key_event--><g id="elem_Key_event"><rect codeLine="14" fill="#F1F1F1" height="32" id="Key_event" rx="5" ry="5" style="stroke:#181818;stroke-width:0.5;" width="99" x="7" y="692.9079"/><ellipse cx="22" cy="708.9079" fill="#ADD1B2" rx="11" ry="11" style="stroke:#181818;stroke-width:1.0;"/><path d="M22.1094,704.4392 Q21.1875,704.4392 20.4531,704.7517 Q19.7344,705.0642 19.2344,705.6579 Q18.7344,706.236 18.4531,707.111 Q18.1875,707.986 18.1875,709.0798 Q18.1875,710.5173 18.625,711.5642 Q19.0781,712.611 19.9219,713.1579 Q20.7813,713.7048 22.0938,713.7048 Q22.875,713.7048 23.5625,713.5798 Q24.2656,713.4392 25.2656,713.1267 L25.2656,715.0017 Q24.4063,715.3298 23.6406,715.4548 Q22.8906,715.5798 21.875,715.5798 Q19.9531,715.5798 18.6406,714.7829 Q17.3438,713.9704 16.6875,712.5017 Q16.0313,711.0173 16.0313,709.0485 Q16.0313,707.6267 16.4219,706.4548 Q16.8281,705.2673 17.6094,704.3923 Q18.3906,703.5173 19.5313,703.0485 Q20.6719,702.5642 22.1406,702.5642 Q23.0938,702.5642 23.9844,702.7673 Q24.8906,702.9548 25.8281,703.4235 L25,705.2048 Q24.2188,704.8298 23.5625,704.6423 Q22.9063,704.4392 22.1094,704.4392 Z " fill="#000000"/><text fill="#000000" font-family="Arial" font-size="14" lengthAdjust="spacing" textLength="67" x="36" y="714.3399">Key_event</text></g><!--class Mouse_button_event--><g id="elem_Mouse_button_event"><rect codeLine="17" fill="#F1F1F1" height="32" id="Mouse_button_event" rx="5" ry="5" style="stroke:#181818;stroke-width:0.5;" width="171" x="141" y="692.9079"/><ellipse cx="156" cy="708.9079" fill="#ADD1B2" rx="11" ry="11" style="stroke:#181818;stroke-width:1.0;"/><path d="M156.1094,704.4392 Q155.1875,704.4392 154.4531,704.7517 Q153.7344,705.0642 153.2344,705.6579 Q152.7344,706.236 152.4531,707.111 Q152.1875,707.986 152.1875,709.0798 Q152.1875,710.5173 152.625,711.5642 Q153.0781,712.611 153.9219,713.1579 Q154.7813,713.7048 156.0938,713.7048 Q156.875,713.7048 157.5625,713.5798 Q158.2656,713.4392 159.2656,713.1267 L159.2656,715.0017 Q158.4063,715.3298 157.6406,715.4548 Q156.8906,715.5798 155.875,715.5798 Q153.9531,715.5798 152.6406,714.7829 Q151.3438,713.9704 150.6875,712.5017 Q150.0313,711.0173 150.0313,709.0485 Q150.0313,707.6267 150.4219,706.4548 Q150.8281,705.2673 151.6094,704.3923 Q152.3906,703.5173 153.5313,703.0485 Q154.6719,702.5642 156.1406,702.5642 Q157.0938,702.5642 157.9844,702.7673 Q158.8906,702.9548 159.8281,703.4235 L159,705.2048 Q158.2188,704.8298 157.5625,704.6423 Q156.9063,704.4392 156.1094,704.4392 Z " fill="#000000"/><text fill="#000000" font-family="Arial" font-size="14" lengthAdjust="spacing" textLength="139" x="170" y="714.3399">Mouse_button_event</text></g><!--class Mouse_move_event--><g id="elem_Mouse_move_event"><rect codeLine="20" fill="#F1F1F1" height="32" id="Mouse_move_event" rx="5" ry="5" style="stroke:#181818;stroke-width:0.5;" width="162" x="347.5" y="692.9079"/><ellipse cx="362.5" cy="708.9079" fill="#ADD1B2" rx="11" ry="11" style="stroke:#181818;stroke-width:1.0;"/><path d="M362.6094,704.4392 Q361.6875,704.4392 360.9531,704.7517 Q360.2344,705.0642 359.7344,705.6579 Q359.2344,706.236 358.9531,707.111 Q358.6875,707.986 358.6875,709.0798 Q358.6875,710.5173 359.125,711.5642 Q359.5781,712.611 360.4219,713.1579 Q361.2813,713.7048 362.5938,713.7048 Q363.375,713.7048 364.0625,713.5798 Q364.7656,713.4392 365.7656,713.1267 L365.7656,715.0017 Q364.9063,715.3298 364.1406,715.4548 Q363.3906,715.5798 362.375,715.5798 Q360.4531,715.5798 359.1406,714.7829 Q357.8438,713.9704 357.1875,712.5017 Q356.5313,711.0173 356.5313,709.0485 Q356.5313,707.6267 356.9219,706.4548 Q357.3281,705.2673 358.1094,704.3923 Q358.8906,703.5173 360.0313,703.0485 Q361.1719,702.5642 362.6406,702.5642 Q363.5938,702.5642 364.4844,702.7673 Q365.3906,702.9548 366.3281,703.4235 L365.5,705.2048 Q364.7188,704.8298 364.0625,704.6423 Q363.4063,704.4392 362.6094,704.4392 Z " fill="#000000"/><text fill="#000000" font-family="Arial" font-size="14" lengthAdjust="spacing" textLength="130" x="376.5" y="714.3399">Mouse_move_event</text></g><!--class Mouse_scroll_event--><g id="elem_Mouse_scroll_event"><rect codeLine="23" fill="#F1F1F1" height="32" id="Mouse_scroll_event" rx="5" ry="5" style="stroke:#181818;stroke-width:0.5;" width="162" x="544.5" y="692.9079"/><ellipse cx="559.5" cy="708.9079" fill="#ADD1B2" rx="11" ry="11" style="stroke:#181818;stroke-width:1.0;"/><path d="M559.6094,704.4392 Q558.6875,704.4392 557.9531,704.7517 Q557.2344,705.0642 556.7344,705.6579 Q556.2344,706.236 555.9531,707.111 Q555.6875,707.986 555.6875,709.0798 Q555.6875,710.5173 556.125,711.5642 Q556.5781,712.611 557.4219,713.1579 Q558.2813,713.7048 559.5938,713.7048 Q560.375,713.7048 561.0625,713.5798 Q561.7656,713.4392 562.7656,713.1267 L562.7656,715.0017 Q561.9063,715.3298 561.1406,715.4548 Q560.3906,715.5798 559.375,715.5798 Q557.4531,715.5798 556.1406,714.7829 Q554.8438,713.9704 554.1875,712.5017 Q553.5313,711.0173 553.5313,709.0485 Q553.5313,707.6267 553.9219,706.4548 Q554.3281,705.2673 555.1094,704.3923 Q555.8906,703.5173 557.0313,703.0485 Q558.1719,702.5642 559.6406,702.5642 Q560.5938,702.5642 561.4844,702.7673 Q562.3906,702.9548 563.3281,703.4235 L562.5,705.2048 Q561.7188,704.8298 561.0625,704.6423 Q560.4063,704.4392 559.6094,704.4392 Z " fill="#000000"/><text fill="#000000" font-family="Arial" font-size="14" lengthAdjust="spacing" textLength="130" x="573.5" y="714.3399">Mouse_scroll_event</text></g><!--class RHI_imgui--><g id="elem_RHI_imgui"><rect codeLine="29" fill="#F1F1F1" height="230.6792" id="RHI_imgui" rx="5" ry="5" style="stroke:#181818;stroke-width:0.5;" width="533" x="742" y="593.5679"/><ellipse cx="971.75" cy="609.5679" fill="#A9DCDF" rx="11" ry="11" style="stroke:#181818;stroke-width:1.0;"/><path d="M975.0938,614.8179 L973.625,611.0679 L969.1875,611.0679 L967.75,614.8179 L965.625,614.8179 L970.5781,602.0992 L972.3281,602.0992 L977.25,614.8179 L975.0938,614.8179 Z M971.75,605.8648 Q971.7031,605.7085 971.5781,605.3492 Q971.4531,604.9898 971.3438,604.6148 Q971.2344,604.2242 971.4375,604.1617 Q971.5938,604.3492 971.5,604.7085 Q971.4063,605.0523 971.3125,605.3492 Q971.2188,605.6304 971.1406,605.8648 L969.9063,609.1773 L972.9844,609.1773 L971.75,605.8648 Z " fill="#000000"/><text fill="#000000" font-family="Arial" font-size="14" font-style="italic" lengthAdjust="spacing" textLength="65" x="992.25" y="614.9999">RHI_imgui</text><line style="stroke:#181818;stroke-width:0.5;" x1="743" x2="1274" y1="625.5679" y2="625.5679"/><text fill="#000000" font-family="Arial" font-size="14" font-style="italic" lengthAdjust="spacing" textLength="129" x="748" y="644.5339">+begin_frame(): void</text><text fill="#000000" font-family="Arial" font-size="14" font-style="italic" lengthAdjust="spacing" textLength="117" x="748" y="663.6018">+end_frame(): void</text><text fill="#000000" font-family="Arial" font-size="14" font-style="italic" lengthAdjust="spacing" textLength="405" x="748" y="682.6697">+begin_render(panel_title: string, p_open: bool*, flags: int): void</text><text fill="#000000" font-family="Arial" font-size="14" font-style="italic" lengthAdjust="spacing" textLength="122" x="748" y="701.7376">+end_render(): void</text><text fill="#000000" font-family="Arial" font-size="14" font-style="italic" lengthAdjust="spacing" textLength="190" x="748" y="720.8055">+button(label: string, ...): bool</text><text fill="#000000" font-family="Arial" font-size="14" font-style="italic" lengthAdjust="spacing" textLength="328" x="748" y="739.8734">+color_edit(label: string, color_ptr: float[3], ...): bool</text><text fill="#000000" font-family="Arial" font-size="14" font-style="italic" lengthAdjust="spacing" textLength="521" x="748" y="758.9414">+slider_float(label: string, value_ptr: float*, min_val: float, max_val: float, ...): bool</text><text fill="#000000" font-family="Arial" font-size="14" font-style="italic" lengthAdjust="spacing" textLength="390" x="748" y="778.0093">+text_edit(label: string, buffer: char*, buffer_size: int, ...): bool</text><text fill="#000000" font-family="Arial" font-size="14" font-style="italic" lengthAdjust="spacing" textLength="142" x="748" y="797.0772">+is_io_captured(): bool</text><text fill="#000000" font-family="Arial" font-size="14" font-style="italic" lengthAdjust="spacing" textLength="122" x="748" y="816.1451">+frame_rate(): float</text></g><!--class RHI_window--><g id="elem_RHI_window"><rect codeLine="44" fill="#F1F1F1" height="467.4942" id="RHI_window" rx="5" ry="5" style="stroke:#181818;stroke-width:0.5;" width="581" x="138" y="47.0679"/><ellipse cx="385.75" cy="63.0679" fill="#A9DCDF" rx="11" ry="11" style="stroke:#181818;stroke-width:1.0;"/><path d="M389.0938,68.3179 L387.625,64.5679 L383.1875,64.5679 L381.75,68.3179 L379.625,68.3179 L384.5781,55.5992 L386.3281,55.5992 L391.25,68.3179 L389.0938,68.3179 Z M385.75,59.3648 Q385.7031,59.2085 385.5781,58.8492 Q385.4531,58.4898 385.3438,58.1148 Q385.2344,57.7242 385.4375,57.6617 Q385.5938,57.8492 385.5,58.2085 Q385.4063,58.5523 385.3125,58.8492 Q385.2188,59.1304 385.1406,59.3648 L383.9063,62.6773 L386.9844,62.6773 L385.75,59.3648 Z " fill="#000000"/><text fill="#000000" font-family="Arial" font-size="14" font-style="italic" lengthAdjust="spacing" textLength="77" x="406.25" y="68.4999">RHI_window</text><line style="stroke:#181818;stroke-width:0.5;" x1="139" x2="718" y1="79.0679" y2="79.0679"/><text fill="#000000" font-family="Arial" font-size="14" lengthAdjust="spacing" textLength="73" x="144" y="98.0339">#width: int</text><text fill="#000000" font-family="Arial" font-size="14" lengthAdjust="spacing" textLength="79" x="144" y="117.1018">#height: int</text><text fill="#000000" font-family="Arial" font-size="14" lengthAdjust="spacing" textLength="83" x="144" y="136.1697">#title: string</text><text fill="#000000" font-family="Arial" font-size="14" lengthAdjust="spacing" textLength="173" x="144" y="155.2376">#p_rhi_imgui: RHI_imgui*</text><line style="stroke:#181818;stroke-width:0.5;" x1="139" x2="718" y1="163.3396" y2="163.3396"/><text fill="#000000" font-family="Arial" font-size="14" lengthAdjust="spacing" textLength="322" x="144" y="182.3055">+RHI_window(width: int, height: int, title: string)</text><text fill="#000000" font-family="Arial" font-size="14" lengthAdjust="spacing" textLength="340" x="144" y="201.3734">+bind_rhi_imgui(imgui_instance: RHI_imgui*): void</text><text fill="#000000" font-family="Arial" font-size="14" lengthAdjust="spacing" textLength="4" x="144" y="220.4414">&#160;</text><text fill="#000000" font-family="Arial" font-size="14" font-style="italic" lengthAdjust="spacing" textLength="434" x="144" y="239.5093">+register_key_event_callback(callback: void(*)(Key_event event)): void</text><text fill="#000000" font-family="Arial" font-size="14" font-style="italic" lengthAdjust="spacing" textLength="569" x="144" y="258.5772">+register_mouse_button_event_callback(callback: void(*)(Mouse_button_event event)): void</text><text fill="#000000" font-family="Arial" font-size="14" font-style="italic" lengthAdjust="spacing" textLength="553" x="144" y="277.6451">+register_mouse_move_event_callback(callback: void(*)(Mouse_move_event event)): void</text><text fill="#000000" font-family="Arial" font-size="14" font-style="italic" lengthAdjust="spacing" textLength="553" x="144" y="296.713">+register_mouse_scroll_event_callback(callback: void(*)(Mouse_scroll_event event)): void</text><text fill="#000000" font-family="Arial" font-size="14" lengthAdjust="spacing" textLength="4" x="144" y="315.7809">&#160;</text><text fill="#000000" font-family="Arial" font-size="14" lengthAdjust="spacing" textLength="482" x="144" y="334.8489">+on_frame_begin(): void  // Handles event polling logic, calls poll_events</text><text fill="#000000" font-family="Arial" font-size="14" lengthAdjust="spacing" textLength="516" x="144" y="353.9168">+on_frame_end(): void    // Handles buffer swapping logic, calls swap_buffers</text><text fill="#000000" font-family="Arial" font-size="14" lengthAdjust="spacing" textLength="4" x="144" y="372.9847">&#160;</text><text fill="#000000" font-family="Arial" font-size="14" font-style="italic" lengthAdjust="spacing" textLength="329" x="144" y="392.0526">+poll_events(): void // Platform-specific event polling</text><text fill="#000000" font-family="Arial" font-size="14" font-style="italic" lengthAdjust="spacing" textLength="331" x="144" y="411.1205">+swap_buffers(): void // Platform-specific buffer swap</text><text fill="#000000" font-family="Arial" font-size="14" lengthAdjust="spacing" textLength="4" x="144" y="430.1884">&#160;</text><text fill="#000000" font-family="Arial" font-size="14" lengthAdjust="spacing" textLength="108" x="144" y="449.2564">+get_width(): int</text><text fill="#000000" font-family="Arial" font-size="14" lengthAdjust="spacing" textLength="114" x="144" y="468.3243">+get_height(): int</text><text fill="#000000" font-family="Arial" font-size="14" lengthAdjust="spacing" textLength="118" x="144" y="487.3922">+get_title(): string</text><text fill="#000000" font-family="Arial" font-size="14" lengthAdjust="spacing" textLength="193" x="144" y="506.4601">+get_rhi_imgui(): RHI_imgui*</text></g><g id="elem_GMN13"><path d="M754,245.4079 L754,276.8179 L719.34,280.8179 L754,284.8179 L754,316.232 A5,5 0 0 0 759,321.232 L1048,321.232 A5,5 0 0 0 1053,316.232 L1053,250.4079 L1043,240.4079 L759,240.4079 A5,5 0 0 0 754,245.4079 " fill="#FEFFDD" style="stroke:#181818;stroke-width:0.5;"/><path d="M1043,240.4079 L1043,247.9079 A2.5,2.5 0 0 0 1045.5,250.4079 L1053,250.4079 L1043,240.4079 " fill="#FEFFDD" style="stroke:#181818;stroke-width:0.5;"/><text fill="#000000" font-family="Arial" font-size="13" font-weight="bold" lengthAdjust="spacing" textLength="168.1563" x="760" y="259.3049">Internal Default Behaviors:</text><text fill="#000000" font-family="Arial" font-size="13" lengthAdjust="spacing" textLength="278" x="760" y="277.0109">- Adjusts viewport on window resize (and logs).</text><text fill="#000000" font-family="Arial" font-size="13" lengthAdjust="spacing" textLength="201" x="760" y="294.717">- Closes window on ESC key press.</text><text fill="#000000" font-family="Arial" font-size="13" lengthAdjust="spacing" textLength="236" x="760" y="312.423">These are achieved via its event system.</text></g><g id="elem_GMN16"><path d="M794,890.2479 L794,961.072 A5,5 0 0 0 799,966.072 L1218,966.072 A5,5 0 0 0 1223,961.072 L1223,895.2479 L1213,885.2479 L1012.5,885.2479 L1008.5,824.5079 L1004.5,885.2479 L799,885.2479 A5,5 0 0 0 794,890.2479 " fill="#FEFFDD" style="stroke:#181818;stroke-width:0.5;"/><path d="M1213,885.2479 L1213,892.7479 A2.5,2.5 0 0 0 1215.5,895.2479 L1223,895.2479 L1213,885.2479 " fill="#FEFFDD" style="stroke:#181818;stroke-width:0.5;"/><text fill="#000000" font-family="Arial" font-size="13" lengthAdjust="spacing" textLength="293" x="800" y="904.1449">This class provides an abstraction layer for ImGui,</text><text fill="#000000" font-family="Arial" font-size="13" lengthAdjust="spacing" textLength="400" x="800" y="921.8509">allowing different backend implementations (OpenGL, Vulkan, etc.).</text><text fill="#000000" font-family="Arial" font-size="13" lengthAdjust="spacing" textLength="355" x="800" y="939.557">Widget methods like button(), color_edit() etc. are simplified</text><text fill="#000000" font-family="Arial" font-size="13" lengthAdjust="spacing" textLength="408" x="800" y="957.263">to show their existence; actual parameters would be more extensive.</text></g><!--reverse link RHI_window to RHI_imgui--><g id="link_RHI_window_RHI_imgui"><path codeLine="79" d="M728.9919,509.0646 C734.7619,513.3146 730.82,510.4079 736.5,514.5679 C771.55,540.2579 809.4,567.4879 845.42,593.1479 " fill="none" id="RHI_window-backto-RHI_imgui" style="stroke:#181818;stroke-width:1.0;"/><polygon fill="none" points="719.33,501.9479,721.7887,508.7269,728.9919,509.0646,726.5332,502.2856,719.33,501.9479" style="stroke:#181818;stroke-width:1.0;"/><text fill="#000000" font-family="Arial" font-size="13" lengthAdjust="spacing" textLength="355" x="804.2" y="559.4649">' An RHI_window can optionally have an RHI_imgui instance</text><text fill="#000000" font-family="Arial" font-size="13" lengthAdjust="spacing" textLength="43" x="729.6854" y="503.8368">binds &gt;</text></g><!--link RHI_window to Key_event--><g id="link_RHI_window_Key_event"><path codeLine="82" d="M189.04,514.6279 C166,540.5079 143.72,567.0879 123.5,593.5679 C98.22,626.6579 77.8871,664.7533 66.5571,687.3733 " fill="none" id="RHI_window-to-Key_event" style="stroke:#181818;stroke-width:1.0;stroke-dasharray:7.0,7.0;"/><polygon fill="#181818" points="63.87,692.7379,71.4771,686.4823,66.1092,688.2674,64.3242,682.8995,63.87,692.7379" style="stroke:#181818;stroke-width:1.0;"/><text fill="#000000" font-family="Arial" font-size="13" lengthAdjust="spacing" textLength="78" x="161.63" y="559.4649">&#171;dispatches&#187;</text></g><!--link RHI_window to Mouse_button_event--><g id="link_RHI_window_Mouse_button_event"><path codeLine="83" d="M318.04,514.8079 C282.31,590.1879 250.7295,656.786 236.2895,687.256 " fill="none" id="RHI_window-to-Mouse_button_event" style="stroke:#181818;stroke-width:1.0;stroke-dasharray:7.0,7.0;"/><polygon fill="#181818" points="233.72,692.6779,241.1889,686.258,235.8613,688.1596,233.9596,682.832,233.72,692.6779" style="stroke:#181818;stroke-width:1.0;"/><text fill="#000000" font-family="Arial" font-size="13" lengthAdjust="spacing" textLength="78" x="304.47" y="559.4649">&#171;dispatches&#187;</text></g><!--link RHI_window to Mouse_move_event--><g id="link_RHI_window_Mouse_move_event"><path codeLine="84" d="M428.5,514.8079 C428.5,590.1879 428.5,656.2079 428.5,686.6779 " fill="none" id="RHI_window-to-Mouse_move_event" style="stroke:#181818;stroke-width:1.0;stroke-dasharray:7.0,7.0;"/><polygon fill="#181818" points="428.5,692.6779,432.5,683.6779,428.5,687.6779,424.5,683.6779,428.5,692.6779" style="stroke:#181818;stroke-width:1.0;"/><text fill="#000000" font-family="Arial" font-size="13" lengthAdjust="spacing" textLength="78" x="429.5" y="559.4649">&#171;dispatches&#187;</text></g><!--link RHI_window to Mouse_scroll_event--><g id="link_RHI_window_Mouse_scroll_event"><path codeLine="85" d="M536.22,514.8079 C571.08,590.1879 601.8517,656.762 615.9417,687.232 " fill="none" id="RHI_window-to-Mouse_scroll_event" style="stroke:#181818;stroke-width:1.0;stroke-dasharray:7.0,7.0;"/><polygon fill="#181818" points="618.46,692.6779,618.3131,682.8302,616.3614,688.1396,611.0519,686.1879,618.46,692.6779" style="stroke:#181818;stroke-width:1.0;"/><text fill="#000000" font-family="Arial" font-size="13" lengthAdjust="spacing" textLength="78" x="557.16" y="559.4649">&#171;dispatches&#187;</text></g><!--SRC=[bLTDSzis4BthLspJWqbLbjlfJSruHd6-F74IZ-r93vqE1m9N8YeGO05Gifh9V-y284MAZfJa8edWxjjTuEt3oWad4UxUNcTReNAz1QRoy2ZALItWIZ9huQLWAyFAqUYd79T28SnVt3_SpQyUigkR-VrzTlNnvkCTl2lOMknD-czkcSI7slnRQs5nD2f4Ze1bvNPGOhb0OqTsBLJ5A0Pm7t7kd16Bsk4rr-fU_8VmQy-48h1QkjTQkG-if6oCOBBttkXQvLmRXGP-wplQWb69GgrWoQJFP7G6v-Vdy6g3oiLQqK9YHLb9iHIOmu9P-jGA73wwr1kFGeBm3dSP1hVF8u0pU8cE2Mb1YZN2cbvodUC467U2l9FAeBKN1YKIO0fRNKi2HoZGuEXBW_bUrnOpAjjfTHoyUI_o5dq2N6kJ2yKSPNyAkjGRF0xyc5NQJc3dlqx2M6wqbAU0z79fqNci-Ei9NBlpGwObjxL1-2ICgvcC-yqMrXcgD3AZv-4Z_mAVs_TV27ubLBQaayOadS56YtneWYe_RH0n3DcXIIgcK6REjyWCo8AOCu4gqnMg6IoqbkC9B2LRsHa8vKw4RF2EnGmdcaYsGDd5cKwdQOmojETQQfDXBjpG9xwfd9bHNfgvltx_-nIGbTI99WkcGwWDapNseAZKadQ6bfi5UcQF1y_70_dk-Mh2YtgvH0h12sR6xMDcgUF3bWump_mZQ4SaebBBaZhhkdn3LDYAV4KiAz4LEhVUQfY1i9dG6MUL8uBboP4y0pKoGutaBK9PdgmTLnkHRCWwRwdv8dJr4ROsFfwkF_jCNH5g2uy5YbNXkkS3heMLAZE5Y8oVTUGVZqBg7NpI0K_wg9D3o3IuBOJdP0kRXCzCAEkOujYFqX8sx7rKoJjg45zYr3LyPAIL29n9kM1yRTFXbffWJuUwRXKpQusJzaUCaepJf9FLy9aUwPWzQFb4Ca-XVqLWVoHC9v_V3jAJsXy9qPVMRmSv4E9Xc3EurOwMw6wKkxPfscE2fJRG49Ek9ket4W-fBNsXuzDuuAzzDy2DM2BVSOaXTTq8R1Q4ibKqW8iBU4kZWwGRAAPJKMR-ffLw9VWaHBPXCQPh3z587pki0xGe2M2thAgUuFdLB5fumE7cziBjqGdwLZ97zPVdja9Ezpm_JFc9IlQ2d8RfvHftSCuvtVlQn6f9ehBGfXubTdnSZFqwN0sDwnVtQX3NkyPD3nGXr7y67-ZKPtGXXncfgQpmc-btBtbrVmLEjsUz4RYjj770ydzgwqflIsqT6P46E671ZqFetz4eH0cYKO5IM-4AeKY85JVeaCOo8pPamfivYXX61ZRCK9E0vNQLuC5tiOFQ-eI8bliU8D-OhjtHOpdjII_A83Ys49KDEjiJLdqmHypWMT0t2vVF_0celWPpfa1N7YbaKR0Dqi3Rysv5q0Vk-TLXBgGo_OXraGjRCSSBj2aCA4GLekqdDvrUzcR56Jn_tdbVNWujlo9Gt-VIavllSpYGZYSkpRPxAiNjLlGBZ6Sfw6LlP-XOn-FhXXDxqhr0sbb1j9-DFItFOHxePJk-4SaEr0SI_x-3Ujkcq-1nvGbgMoCozyIbAmJ29Erj7YXLEZqQ5nal17hcRGG3uUo0HQGjuFCVnIeMcdQtRCi8nnxGYAdnpgwCtj1SP3qpMXNmbvraEsfkBvnXwF2K9XR5_nEvy9tletfvzH7tJHE92yb7cXhVt4pWKotNJ4MT3SN-UJYyz8Ry99tqXxqq-8IIkxye143zR0lQ9UebOG0VVJCHX__m_mzeZ8RmvuSwrFJ6-b8J2arbg2mrRM-J_WS0]--></g></svg>