<?xml version="1.0" encoding="us-ascii" standalone="no"?><svg xmlns="http://www.w3.org/2000/svg" xmlns:xlink="http://www.w3.org/1999/xlink" contentStyleType="text/css" height="621px" preserveAspectRatio="none" style="width:1098px;height:621px;background:#FFFFFF;" version="1.1" viewBox="0 0 1098 621" width="1098px" zoomAndPan="magnify"><defs/><g><!--class RHI_texture--><g id="elem_RHI_texture"><rect codeLine="3" fill="#F1F1F1" height="276.815" id="RHI_texture" rx="2.5" ry="2.5" style="stroke:#181818;stroke-width:0.5;" width="161" x="9" y="229.4"/><ellipse cx="48.75" cy="245.4" fill="#A9DCDF" rx="11" ry="11" style="stroke:#181818;stroke-width:1.0;"/><path d="M52.0938,250.65 L50.625,246.9 L46.1875,246.9 L44.75,250.65 L42.625,250.65 L47.5781,237.9313 L49.3281,237.9313 L54.25,250.65 L52.0938,250.65 Z M48.75,241.6969 Q48.7031,241.5406 48.5781,241.1813 Q48.4531,240.8219 48.3438,240.4469 Q48.2344,240.0563 48.4375,239.9938 Q48.5938,240.1813 48.5,240.5406 Q48.4063,240.8844 48.3125,241.1813 Q48.2188,241.4625 48.1406,241.6969 L46.9063,245.0094 L49.9844,245.0094 L48.75,241.6969 Z " fill="#000000"/><text fill="#000000" font-family="sans-serif" font-size="14" font-style="italic" lengthAdjust="spacing" textLength="74" x="68.25" y="250.832">RHI_texture</text><line style="stroke:#181818;stroke-width:0.5;" x1="10" x2="169" y1="261.4" y2="261.4"/><ellipse cx="20" cy="276.434" fill="none" rx="3" ry="3" style="stroke:#038048;stroke-width:1.0;"/><text fill="#000000" font-family="sans-serif" font-size="14" lengthAdjust="spacing" textLength="29" x="29" y="280.3659">type</text><ellipse cx="20" cy="295.5019" fill="none" rx="3" ry="3" style="stroke:#038048;stroke-width:1.0;"/><text fill="#000000" font-family="sans-serif" font-size="14" lengthAdjust="spacing" textLength="104" x="29" y="299.4339">internal_format</text><ellipse cx="20" cy="314.5698" fill="none" rx="3" ry="3" style="stroke:#038048;stroke-width:1.0;"/><text fill="#000000" font-family="sans-serif" font-size="14" lengthAdjust="spacing" textLength="78" x="29" y="318.5018">dimensions</text><ellipse cx="20" cy="333.6377" fill="none" rx="3" ry="3" style="stroke:#038048;stroke-width:1.0;"/><text fill="#000000" font-family="sans-serif" font-size="14" lengthAdjust="spacing" textLength="100" x="29" y="337.5697">mipmap_levels</text><ellipse cx="20" cy="352.7056" fill="none" rx="3" ry="3" style="stroke:#038048;stroke-width:1.0;"/><text fill="#000000" font-family="sans-serif" font-size="14" lengthAdjust="spacing" textLength="78" x="29" y="356.6376">wrap_mode</text><ellipse cx="20" cy="371.7735" fill="none" rx="3" ry="3" style="stroke:#038048;stroke-width:1.0;"/><text fill="#000000" font-family="sans-serif" font-size="14" lengthAdjust="spacing" textLength="76" x="29" y="375.7055">filter_mode</text><line style="stroke:#181818;stroke-width:0.5;" x1="10" x2="169" y1="383.8075" y2="383.8075"/><ellipse cx="20" cy="398.8415" fill="#84BE84" rx="3" ry="3" style="stroke:#038048;stroke-width:1.0;"/><text fill="#000000" font-family="sans-serif" font-size="14" font-style="italic" lengthAdjust="spacing" textLength="62" x="29" y="402.7734">set_filter()</text><ellipse cx="20" cy="417.9094" fill="#84BE84" rx="3" ry="3" style="stroke:#038048;stroke-width:1.0;"/><text fill="#000000" font-family="sans-serif" font-size="14" font-style="italic" lengthAdjust="spacing" textLength="64" x="29" y="421.8414">set_wrap()</text><ellipse cx="20" cy="436.9773" fill="#84BE84" rx="3" ry="3" style="stroke:#038048;stroke-width:1.0;"/><text fill="#000000" font-family="sans-serif" font-size="14" font-style="italic" lengthAdjust="spacing" textLength="122" x="29" y="440.9093">generate_mipmap()</text><ellipse cx="20" cy="456.0452" fill="#84BE84" rx="3" ry="3" style="stroke:#038048;stroke-width:1.0;"/><text fill="#000000" font-family="sans-serif" font-size="14" font-style="italic" lengthAdjust="spacing" textLength="86" x="29" y="459.9772">bind_to_unit()</text><ellipse cx="20" cy="475.1131" fill="#84BE84" rx="3" ry="3" style="stroke:#038048;stroke-width:1.0;"/><text fill="#000000" font-family="sans-serif" font-size="14" lengthAdjust="spacing" textLength="119" x="29" y="479.0451">set_border_color()</text><polygon fill="#FFFF44" points="20,489.181,24,493.181,20,497.181,16,493.181" style="stroke:#B38D22;stroke-width:1.0;"/><text fill="#000000" font-family="sans-serif" font-size="14" font-style="italic" lengthAdjust="spacing" textLength="135" x="29" y="498.113">on_set_border_color()</text></g><!--class Image_data--><g id="elem_Image_data"><rect codeLine="18" fill="#F1F1F1" height="181.4754" id="Image_data" rx="2.5" ry="2.5" style="stroke:#181818;stroke-width:0.5;" width="193" x="205" y="277.07"/><ellipse cx="257.75" cy="293.07" fill="#F1F1F1" rx="11" ry="11" style="stroke:#181818;stroke-width:1.0;"/><path d="M262.3125,296.0544 Q262.3125,297.2263 261.7344,298.0544 Q261.1719,298.8825 260.125,299.32 Q259.0938,299.7419 257.7188,299.7419 Q257.0156,299.7419 256.375,299.6638 Q255.75,299.6013 255.2188,299.4763 Q254.6875,299.3356 254.1094,299.07 L254.1094,297.0231 Q255.0938,297.4606 255.9688,297.6794 Q256.8438,297.8825 257.7813,297.8825 Q258.6406,297.8825 259.1875,297.6794 Q259.7344,297.4606 259.9844,297.0856 Q260.25,296.7106 260.25,296.195 Q260.25,295.6794 260.0313,295.3356 Q259.8281,294.9919 259.2344,294.6638 Q258.6563,294.3356 257.5625,293.945 Q256.7656,293.6325 256.1406,293.3044 Q255.5313,292.9606 255.1094,292.5075 Q254.6875,292.0388 254.4688,291.445 Q254.2656,290.8513 254.2656,290.0856 Q254.2656,289.0388 254.7969,288.2888 Q255.3438,287.5231 256.2813,287.1325 Q257.2188,286.7263 258.4063,286.7263 Q259.4531,286.7263 260.2969,286.9294 Q261.1563,287.1169 262.0938,287.5388 L261.4375,289.3513 Q260.5625,288.9606 259.8438,288.7888 Q259.1406,288.6013 258.375,288.6013 Q257.6719,288.6013 257.2188,288.8044 Q256.7813,288.9919 256.5625,289.3356 Q256.3438,289.6638 256.3438,290.1013 Q256.3438,290.6481 256.5625,290.9919 Q256.7813,291.3356 257.3125,291.6481 Q257.8594,291.945 258.8281,292.3044 Q259.9219,292.7106 260.6875,293.195 Q261.4688,293.6638 261.8906,294.3513 Q262.3125,295.0231 262.3125,296.0544 Z " fill="#000000"/><text fill="#000000" font-family="sans-serif" font-size="14" lengthAdjust="spacing" textLength="79" x="278.25" y="298.502">Image_data</text><line style="stroke:#181818;stroke-width:0.5;" x1="206" x2="397" y1="309.07" y2="309.07"/><ellipse cx="216" cy="324.104" fill="none" rx="3" ry="3" style="stroke:#038048;stroke-width:1.0;"/><text fill="#000000" font-family="sans-serif" font-size="14" lengthAdjust="spacing" textLength="38" x="225" y="328.0359">width</text><ellipse cx="216" cy="343.1719" fill="none" rx="3" ry="3" style="stroke:#038048;stroke-width:1.0;"/><text fill="#000000" font-family="sans-serif" font-size="14" lengthAdjust="spacing" textLength="44" x="225" y="347.1039">height</text><ellipse cx="216" cy="362.2398" fill="none" rx="3" ry="3" style="stroke:#038048;stroke-width:1.0;"/><text fill="#000000" font-family="sans-serif" font-size="14" lengthAdjust="spacing" textLength="85" x="225" y="366.1718">data_pointer</text><ellipse cx="216" cy="381.3077" fill="none" rx="3" ry="3" style="stroke:#038048;stroke-width:1.0;"/><text fill="#000000" font-family="sans-serif" font-size="14" lengthAdjust="spacing" textLength="81" x="225" y="385.2397">data_format</text><ellipse cx="216" cy="400.3756" fill="none" rx="3" ry="3" style="stroke:#038048;stroke-width:1.0;"/><text fill="#000000" font-family="sans-serif" font-size="14" lengthAdjust="spacing" textLength="106" x="225" y="404.3076">external_format</text><ellipse cx="216" cy="419.4435" fill="none" rx="3" ry="3" style="stroke:#038048;stroke-width:1.0;"/><text fill="#000000" font-family="sans-serif" font-size="14" lengthAdjust="spacing" textLength="167" x="225" y="423.3755">has_ownership : boolean</text><line style="stroke:#181818;stroke-width:0.5;" x1="206" x2="397" y1="431.4775" y2="431.4775"/><ellipse cx="216" cy="446.5115" fill="#84BE84" rx="3" ry="3" style="stroke:#038048;stroke-width:1.0;"/><text fill="#000000" font-family="sans-serif" font-size="14" lengthAdjust="spacing" textLength="153" x="225" y="450.4434">create_image() : Image</text></g><!--class Image--><g id="elem_Image"><rect codeLine="28" fill="#F1F1F1" height="48" id="Image" rx="2.5" ry="2.5" style="stroke:#181818;stroke-width:0.5;" width="75" x="264" y="566.22"/><ellipse cx="279" cy="582.22" fill="#ADD1B2" rx="11" ry="11" style="stroke:#181818;stroke-width:1.0;"/><path d="M279.1094,577.7513 Q278.1875,577.7513 277.4531,578.0638 Q276.7344,578.3763 276.2344,578.97 Q275.7344,579.5481 275.4531,580.4231 Q275.1875,581.2981 275.1875,582.3919 Q275.1875,583.8294 275.625,584.8763 Q276.0781,585.9231 276.9219,586.47 Q277.7813,587.0169 279.0938,587.0169 Q279.875,587.0169 280.5625,586.8919 Q281.2656,586.7513 282.2656,586.4388 L282.2656,588.3138 Q281.4063,588.6419 280.6406,588.7669 Q279.8906,588.8919 278.875,588.8919 Q276.9531,588.8919 275.6406,588.095 Q274.3438,587.2825 273.6875,585.8138 Q273.0313,584.3294 273.0313,582.3606 Q273.0313,580.9388 273.4219,579.7669 Q273.8281,578.5794 274.6094,577.7044 Q275.3906,576.8294 276.5313,576.3606 Q277.6719,575.8763 279.1406,575.8763 Q280.0938,575.8763 280.9844,576.0794 Q281.8906,576.2669 282.8281,576.7356 L282,578.5169 Q281.2188,578.1419 280.5625,577.9544 Q279.9063,577.7513 279.1094,577.7513 Z " fill="#000000"/><text fill="#000000" font-family="sans-serif" font-size="14" lengthAdjust="spacing" textLength="43" x="293" y="587.652">Image</text><line style="stroke:#181818;stroke-width:0.5;" x1="265" x2="338" y1="598.22" y2="598.22"/><line style="stroke:#181818;stroke-width:0.5;" x1="265" x2="338" y1="606.22" y2="606.22"/></g><!--class IRHI_texture_2D--><g id="elem_IRHI_texture_2D"><rect codeLine="33" fill="#F1F1F1" height="105.2038" id="IRHI_texture_2D" rx="2.5" ry="2.5" style="stroke:#181818;stroke-width:0.5;" width="196" x="433.5" y="315.21"/><ellipse cx="476.4" cy="331.21" fill="#B4A7E5" rx="11" ry="11" style="stroke:#181818;stroke-width:1.0;"/><path d="M478.4938,337.71 L473.5875,337.71 L473.5875,336.335 L475.0094,336.0225 L475.0094,326.7413 L473.5875,326.3975 L473.5875,325.0381 L478.4938,325.0381 L478.4938,326.3975 L477.0719,326.7413 L477.0719,336.0225 L478.4938,336.335 L478.4938,337.71 Z " fill="#000000"/><text fill="#000000" font-family="sans-serif" font-size="14" font-style="italic" lengthAdjust="spacing" textLength="102" x="496.6" y="336.642">IRHI_texture_2D</text><line style="stroke:#181818;stroke-width:0.5;" x1="434.5" x2="628.5" y1="347.21" y2="347.21"/><line style="stroke:#181818;stroke-width:0.5;" x1="434.5" x2="628.5" y1="355.21" y2="355.21"/><ellipse cx="444.5" cy="370.244" fill="#84BE84" rx="3" ry="3" style="stroke:#038048;stroke-width:1.0;"/><text fill="#000000" font-family="sans-serif" font-size="14" lengthAdjust="spacing" textLength="170" x="453.5" y="374.1759">upload_data(Image_data)</text><ellipse cx="444.5" cy="389.3119" fill="#84BE84" rx="3" ry="3" style="stroke:#038048;stroke-width:1.0;"/><text fill="#000000" font-family="sans-serif" font-size="14" lengthAdjust="spacing" textLength="169" x="453.5" y="393.2439">upload_data(RHI_texture)</text><ellipse cx="444.5" cy="408.3798" fill="#84BE84" rx="3" ry="3" style="stroke:#038048;stroke-width:1.0;"/><text fill="#000000" font-family="sans-serif" font-size="14" lengthAdjust="spacing" textLength="66" x="453.5" y="412.3118">get_data()</text></g><!--class IRHI_texture_cubemap--><g id="elem_IRHI_texture_cubemap"><rect codeLine="39" fill="#F1F1F1" height="105.2038" id="IRHI_texture_cubemap" rx="2.5" ry="2.5" style="stroke:#181818;stroke-width:0.5;" width="196" x="664.5" y="315.21"/><ellipse cx="689.4" cy="331.21" fill="#B4A7E5" rx="11" ry="11" style="stroke:#181818;stroke-width:1.0;"/><path d="M691.4938,337.71 L686.5875,337.71 L686.5875,336.335 L688.0094,336.0225 L688.0094,326.7413 L686.5875,326.3975 L686.5875,325.0381 L691.4938,325.0381 L691.4938,326.3975 L690.0719,326.7413 L690.0719,336.0225 L691.4938,336.335 L691.4938,337.71 Z " fill="#000000"/><text fill="#000000" font-family="sans-serif" font-size="14" font-style="italic" lengthAdjust="spacing" textLength="142" x="705.6" y="336.642">IRHI_texture_cubemap</text><line style="stroke:#181818;stroke-width:0.5;" x1="665.5" x2="859.5" y1="347.21" y2="347.21"/><line style="stroke:#181818;stroke-width:0.5;" x1="665.5" x2="859.5" y1="355.21" y2="355.21"/><ellipse cx="675.5" cy="370.244" fill="#84BE84" rx="3" ry="3" style="stroke:#038048;stroke-width:1.0;"/><text fill="#000000" font-family="sans-serif" font-size="14" lengthAdjust="spacing" textLength="170" x="684.5" y="374.1759">upload_data(Image_data)</text><ellipse cx="675.5" cy="389.3119" fill="#84BE84" rx="3" ry="3" style="stroke:#038048;stroke-width:1.0;"/><text fill="#000000" font-family="sans-serif" font-size="14" lengthAdjust="spacing" textLength="169" x="684.5" y="393.2439">upload_data(RHI_texture)</text><ellipse cx="675.5" cy="408.3798" fill="#84BE84" rx="3" ry="3" style="stroke:#038048;stroke-width:1.0;"/><text fill="#000000" font-family="sans-serif" font-size="14" lengthAdjust="spacing" textLength="66" x="684.5" y="412.3118">get_data()</text></g><!--class IRHI_texture_2D_array--><g id="elem_IRHI_texture_2D_array"><rect codeLine="45" fill="#F1F1F1" height="105.2038" id="IRHI_texture_2D_array" rx="2.5" ry="2.5" style="stroke:#181818;stroke-width:0.5;" width="196" x="895.5" y="315.21"/><ellipse cx="919.95" cy="331.21" fill="#B4A7E5" rx="11" ry="11" style="stroke:#181818;stroke-width:1.0;"/><path d="M922.0438,337.71 L917.1375,337.71 L917.1375,336.335 L918.5594,336.0225 L918.5594,326.7413 L917.1375,326.3975 L917.1375,325.0381 L922.0438,325.0381 L922.0438,326.3975 L920.6219,326.7413 L920.6219,336.0225 L922.0438,336.335 L922.0438,337.71 Z " fill="#000000"/><text fill="#000000" font-family="sans-serif" font-size="14" font-style="italic" lengthAdjust="spacing" textLength="143" x="936.05" y="336.642">IRHI_texture_2D_array</text><line style="stroke:#181818;stroke-width:0.5;" x1="896.5" x2="1090.5" y1="347.21" y2="347.21"/><line style="stroke:#181818;stroke-width:0.5;" x1="896.5" x2="1090.5" y1="355.21" y2="355.21"/><ellipse cx="906.5" cy="370.244" fill="#84BE84" rx="3" ry="3" style="stroke:#038048;stroke-width:1.0;"/><text fill="#000000" font-family="sans-serif" font-size="14" lengthAdjust="spacing" textLength="170" x="915.5" y="374.1759">upload_data(Image_data)</text><ellipse cx="906.5" cy="389.3119" fill="#84BE84" rx="3" ry="3" style="stroke:#038048;stroke-width:1.0;"/><text fill="#000000" font-family="sans-serif" font-size="14" lengthAdjust="spacing" textLength="169" x="915.5" y="393.2439">upload_data(RHI_texture)</text><ellipse cx="906.5" cy="408.3798" fill="#84BE84" rx="3" ry="3" style="stroke:#038048;stroke-width:1.0;"/><text fill="#000000" font-family="sans-serif" font-size="14" lengthAdjust="spacing" textLength="66" x="915.5" y="412.3118">get_data()</text></g><!--class RHI_texture_builder--><g id="elem_RHI_texture_builder"><rect codeLine="53" fill="#F1F1F1" height="162.4075" id="RHI_texture_builder" rx="2.5" ry="2.5" style="stroke:#181818;stroke-width:0.5;" width="435" x="314" y="7"/><ellipse cx="464.75" cy="23" fill="#B4A7E5" rx="11" ry="11" style="stroke:#181818;stroke-width:1.0;"/><path d="M466.8438,29.5 L461.9375,29.5 L461.9375,28.125 L463.3594,27.8125 L463.3594,18.5313 L461.9375,18.1875 L461.9375,16.8281 L466.8438,16.8281 L466.8438,18.1875 L465.4219,18.5313 L465.4219,27.8125 L466.8438,28.125 L466.8438,29.5 Z " fill="#000000"/><text fill="#000000" font-family="sans-serif" font-size="14" font-style="italic" lengthAdjust="spacing" textLength="125" x="485.25" y="28.432">RHI_texture_builder</text><line style="stroke:#181818;stroke-width:0.5;" x1="315" x2="748" y1="39" y2="39"/><line style="stroke:#181818;stroke-width:0.5;" x1="315" x2="748" y1="47" y2="47"/><ellipse cx="325" cy="62.034" fill="#84BE84" rx="3" ry="3" style="stroke:#038048;stroke-width:1.0;"/><text fill="#000000" font-family="sans-serif" font-size="14" lengthAdjust="spacing" textLength="319" x="334" y="65.9659">build_texture_2D(Image_data) : IRHI_texture_2D</text><ellipse cx="325" cy="81.1019" fill="#84BE84" rx="3" ry="3" style="stroke:#038048;stroke-width:1.0;"/><text fill="#000000" font-family="sans-serif" font-size="14" lengthAdjust="spacing" textLength="318" x="334" y="85.0339">build_texture_2D(RHI_texture) : IRHI_texture_2D</text><ellipse cx="325" cy="100.1698" fill="#84BE84" rx="3" ry="3" style="stroke:#038048;stroke-width:1.0;"/><text fill="#000000" font-family="sans-serif" font-size="14" lengthAdjust="spacing" textLength="409" x="334" y="104.1018">build_texture_cubemap(Image_data) : IRHI_texture_cubemap</text><ellipse cx="325" cy="119.2377" fill="#84BE84" rx="3" ry="3" style="stroke:#038048;stroke-width:1.0;"/><text fill="#000000" font-family="sans-serif" font-size="14" lengthAdjust="spacing" textLength="408" x="334" y="123.1697">build_texture_cubemap(RHI_texture) : IRHI_texture_cubemap</text><ellipse cx="325" cy="138.3056" fill="#84BE84" rx="3" ry="3" style="stroke:#038048;stroke-width:1.0;"/><text fill="#000000" font-family="sans-serif" font-size="14" lengthAdjust="spacing" textLength="401" x="334" y="142.2376">build_texture_2D_array(Image_data) : IRHI_texture_2D_array</text><ellipse cx="325" cy="157.3735" fill="#84BE84" rx="3" ry="3" style="stroke:#038048;stroke-width:1.0;"/><text fill="#000000" font-family="sans-serif" font-size="14" lengthAdjust="spacing" textLength="400" x="334" y="161.3055">build_texture_2D_array(RHI_texture) : IRHI_texture_2D_array</text></g><!--link Image_data to Image--><g id="link_Image_data_Image"><path codeLine="31" d="M301.5,458.92 C301.5,497.78 301.5,534.04 301.5,559.83 " fill="none" id="Image_data-to-Image" style="stroke:#181818;stroke-width:1.0;stroke-dasharray:7.0,7.0;"/><polygon fill="#181818" points="301.5,565.83,305.5,556.83,301.5,560.83,297.5,556.83,301.5,565.83" style="stroke:#181818;stroke-width:1.0;"/><text fill="#000000" font-family="sans-serif" font-size="13" lengthAdjust="spacing" textLength="43" x="257.5" y="508.267">creates</text></g><!--link RHI_texture_builder to Image_data--><g id="link_RHI_texture_builder_Image_data"><path codeLine="62" d="M370,169.83 C370,203.36 370,236.32 370,270.77 " fill="none" id="RHI_texture_builder-to-Image_data" style="stroke:#181818;stroke-width:1.0;stroke-dasharray:7.0,7.0;"/><polygon fill="#181818" points="370,276.77,374,267.77,370,271.77,366,267.77,370,276.77" style="stroke:#181818;stroke-width:1.0;"/><text fill="#000000" font-family="sans-serif" font-size="13" lengthAdjust="spacing" textLength="27" x="342" y="219.197">uses</text></g><!--link RHI_texture_builder to RHI_texture--><g id="link_RHI_texture_builder_RHI_texture"><path codeLine="63" d="M342,169.75 C342,211.33 342,253.24 342,253.24 C342,253.24 250.29,253.24 176.43,253.24 " fill="none" id="RHI_texture_builder-to-RHI_texture" style="stroke:#181818;stroke-width:1.0;stroke-dasharray:7.0,7.0;"/><polygon fill="#181818" points="170.43,253.24,179.43,257.24,175.43,253.24,179.43,249.24,170.43,253.24" style="stroke:#181818;stroke-width:1.0;"/><text fill="#000000" font-family="sans-serif" font-size="13" lengthAdjust="spacing" textLength="27" x="269.96" y="249.137">uses</text></g><!--link RHI_texture_builder to IRHI_texture_2D--><g id="link_RHI_texture_builder_IRHI_texture_2D"><path codeLine="64" d="M531.5,169.83 C531.5,216.57 531.5,267.88 531.5,308.79 " fill="none" id="RHI_texture_builder-to-IRHI_texture_2D" style="stroke:#181818;stroke-width:1.0;stroke-dasharray:7.0,7.0;"/><polygon fill="#181818" points="531.5,314.79,535.5,305.79,531.5,309.79,527.5,305.79,531.5,314.79" style="stroke:#181818;stroke-width:1.0;"/><text fill="#000000" font-family="sans-serif" font-size="13" lengthAdjust="spacing" textLength="43" x="487.5" y="238.207">creates</text></g><!--link RHI_texture_builder to IRHI_texture_cubemap--><g id="link_RHI_texture_builder_IRHI_texture_cubemap"><path codeLine="65" d="M706.75,169.83 C706.75,216.57 706.75,267.88 706.75,308.79 " fill="none" id="RHI_texture_builder-to-IRHI_texture_cubemap" style="stroke:#181818;stroke-width:1.0;stroke-dasharray:7.0,7.0;"/><polygon fill="#181818" points="706.75,314.79,710.75,305.79,706.75,309.79,702.75,305.79,706.75,314.79" style="stroke:#181818;stroke-width:1.0;"/><text fill="#000000" font-family="sans-serif" font-size="13" lengthAdjust="spacing" textLength="43" x="662.75" y="238.207">creates</text></g><!--link RHI_texture_builder to IRHI_texture_2D_array--><g id="link_RHI_texture_builder_IRHI_texture_2D_array"><path codeLine="66" d="M749.31,88.2 C869.03,88.2 993.5,88.2 993.5,88.2 C993.5,88.2 993.5,227.83 993.5,308.89 " fill="none" id="RHI_texture_builder-to-IRHI_texture_2D_array" style="stroke:#181818;stroke-width:1.0;stroke-dasharray:7.0,7.0;"/><polygon fill="#181818" points="993.5,314.89,997.5,305.89,993.5,309.89,989.5,305.89,993.5,314.89" style="stroke:#181818;stroke-width:1.0;"/><text fill="#000000" font-family="sans-serif" font-size="13" lengthAdjust="spacing" textLength="43" x="940.75" y="84.097">creates</text></g><!--SRC=[lLInReCm4Dtv2ajT4bNga353fmpDsX-m3hY0LMCZspIDelnx3zi4jn2QIbKtpk_UlRldC_PDg1OCD4mAXUxK8jF6rJhB8BVEGE5O8S5Qzlgovmu_N6UGdJF67bcVx3-4ScWKI7xGfW7dpqhHeB92A-l3HhGDj5pYEyfmSZGKDxeC9Gv2KeqXFW_Q5u8iEXxWrNeEwmjDaGeL6d38W_8q8HUgv4xpJWddqL0jrwQaHWejzKJlWMd5Pv8kMKOf7LcrRw12NeA3wD5HbAxsNpMAgexU4CvRxMqR3nBpoEQ9eJLOheyqbAr5oxOirreYA8yL1ljHHQ- -MXFe- -Zx2dVdG-g83f8EdvwU8xAD5MoM-QOEK23R9pVEDxiuKDTA3QKli1fhhITOGWvWHRvvnFjrGwReSgJR-XUjpOw3CN3wMx5KBbNBEo5fPwAOZv9EKiN- -hxsEKz96xcB4yrTqeef2-GbrTlimUlbEKFE4drvviYdMvXp_hhkOVkthBEqyBSoqz_T3wdV7yhuckvY33l_IzfrVKVU9m00]--></g></svg>