<?xml version="1.0" encoding="us-ascii" standalone="no"?><svg xmlns="http://www.w3.org/2000/svg" xmlns:xlink="http://www.w3.org/1999/xlink" contentStyleType="text/css" height="324px" preserveAspectRatio="none" style="width:855px;height:324px;background:#FFFFFF;" version="1.1" viewBox="0 0 855 324" width="855px" zoomAndPan="magnify"><defs/><g><!--cluster Tick_context: ??????--><g id="cluster_Tick_context: &#24103;&#26356;&#26032;&#19978;&#19979;&#25991;"><path d="M8.5,6.602 L190.8125,6.602 A3.75,3.75 0 0 1 193.3125,9.102 L200.3125,31.6699 L845.5,31.6699 A2.5,2.5 0 0 1 848,34.1699 L848,315.102 A2.5,2.5 0 0 1 845.5,317.602 L8.5,317.602 A2.5,2.5 0 0 1 6,315.102 L6,9.102 A2.5,2.5 0 0 1 8.5,6.602 " fill="none" style="stroke:#000000;stroke-width:1.5;"/><line style="stroke:#000000;stroke-width:1.5;" x1="6" x2="200.3125" y1="31.6699" y2="31.6699"/><text fill="#000000" font-family="sans-serif" font-size="14" font-weight="bold" lengthAdjust="spacing" textLength="181.3125" x="10" y="23.5679">Tick_context: &#24103;&#26356;&#26032;&#19978;&#19979;&#25991;</text></g><!--class Logic_tick_context--><g id="elem_Logic_tick_context"><rect codeLine="18" fill="#F1F1F1" height="105.2038" id="Logic_tick_context" rx="2.5" ry="2.5" style="stroke:#181818;stroke-width:0.5;" width="454" x="22" y="166.002"/><ellipse cx="185.25" cy="182.002" fill="#ADD1B2" rx="11" ry="11" style="stroke:#181818;stroke-width:1.0;"/><path d="M185.3594,177.5332 Q184.4375,177.5332 183.7031,177.8457 Q182.9844,178.1582 182.4844,178.752 Q181.9844,179.3301 181.7031,180.2051 Q181.4375,181.0801 181.4375,182.1739 Q181.4375,183.6114 181.875,184.6582 Q182.3281,185.7051 183.1719,186.252 Q184.0313,186.7989 185.3438,186.7989 Q186.125,186.7989 186.8125,186.6739 Q187.5156,186.5332 188.5156,186.2207 L188.5156,188.0957 Q187.6563,188.4239 186.8906,188.5489 Q186.1406,188.6739 185.125,188.6739 Q183.2031,188.6739 181.8906,187.877 Q180.5938,187.0645 179.9375,185.5957 Q179.2813,184.1114 179.2813,182.1426 Q179.2813,180.7207 179.6719,179.5489 Q180.0781,178.3614 180.8594,177.4864 Q181.6406,176.6114 182.7813,176.1426 Q183.9219,175.6582 185.3906,175.6582 Q186.3438,175.6582 187.2344,175.8614 Q188.1406,176.0489 189.0781,176.5176 L188.25,178.2989 Q187.4688,177.9239 186.8125,177.7364 Q186.1563,177.5332 185.3594,177.5332 Z " fill="#000000"/><text fill="#000000" font-family="sans-serif" font-size="14" lengthAdjust="spacing" textLength="119" x="205.75" y="187.434">Logic_tick_context</text><line style="stroke:#181818;stroke-width:0.5;" x1="23" x2="475" y1="198.002" y2="198.002"/><ellipse cx="33" cy="213.0359" fill="none" rx="3" ry="3" style="stroke:#038048;stroke-width:1.0;"/><text fill="#000000" font-family="sans-serif" font-size="14" lengthAdjust="spacing" textLength="292" x="42" y="216.9679">Input_state input_state ' &#24403;&#21069;&#24103;&#29992;&#25143;&#36755;&#20837;&#29366;&#24577;</text><ellipse cx="33" cy="232.1039" fill="none" rx="3" ry="3" style="stroke:#038048;stroke-width:1.0;"/><text fill="#000000" font-family="sans-serif" font-size="14" lengthAdjust="spacing" textLength="269" x="42" y="236.0358">float delta_time ' &#19978;&#19968;&#24103;&#36923;&#36753;&#26356;&#26032;&#20197;&#26469;&#26102;&#38388;</text><line style="stroke:#181818;stroke-width:0.5;" x1="23" x2="475" y1="244.1378" y2="244.1378"/><ellipse cx="33" cy="259.1718" fill="#84BE84" rx="3" ry="3" style="stroke:#038048;stroke-width:1.0;"/><text fill="#000000" font-family="sans-serif" font-size="14" lengthAdjust="spacing" textLength="428" x="42" y="263.1038">Swap_data&amp; logic_swap_data ' &#36923;&#36753;&#23618;&#21521;&#28210;&#26579;&#23618;&#20256;&#36882;&#25968;&#25454;&#36890;&#36947; (&#24341;&#29992;)</text></g><!--class Render_tick_context--><g id="elem_Render_tick_context"><rect codeLine="24" fill="#F1F1F1" height="86.1358" id="Render_tick_context" rx="2.5" ry="2.5" style="stroke:#181818;stroke-width:0.5;" width="398" x="50" y="44.532"/><ellipse cx="178.25" cy="60.532" fill="#ADD1B2" rx="11" ry="11" style="stroke:#181818;stroke-width:1.0;"/><path d="M178.3594,56.0632 Q177.4375,56.0632 176.7031,56.3757 Q175.9844,56.6882 175.4844,57.282 Q174.9844,57.8601 174.7031,58.7351 Q174.4375,59.6101 174.4375,60.7039 Q174.4375,62.1414 174.875,63.1882 Q175.3281,64.2351 176.1719,64.782 Q177.0313,65.3289 178.3438,65.3289 Q179.125,65.3289 179.8125,65.2039 Q180.5156,65.0632 181.5156,64.7507 L181.5156,66.6257 Q180.6563,66.9539 179.8906,67.0789 Q179.1406,67.2039 178.125,67.2039 Q176.2031,67.2039 174.8906,66.407 Q173.5938,65.5945 172.9375,64.1257 Q172.2813,62.6414 172.2813,60.6726 Q172.2813,59.2507 172.6719,58.0789 Q173.0781,56.8914 173.8594,56.0164 Q174.6406,55.1414 175.7813,54.6726 Q176.9219,54.1882 178.3906,54.1882 Q179.3438,54.1882 180.2344,54.3914 Q181.1406,54.5789 182.0781,55.0476 L181.25,56.8289 Q180.4688,56.4539 179.8125,56.2664 Q179.1563,56.0632 178.3594,56.0632 Z " fill="#000000"/><text fill="#000000" font-family="sans-serif" font-size="14" lengthAdjust="spacing" textLength="133" x="198.75" y="65.964">Render_tick_context</text><line style="stroke:#181818;stroke-width:0.5;" x1="51" x2="447" y1="76.532" y2="76.532"/><ellipse cx="61" cy="91.5659" fill="none" rx="3" ry="3" style="stroke:#038048;stroke-width:1.0;"/><text fill="#000000" font-family="sans-serif" font-size="14" lengthAdjust="spacing" textLength="269" x="70" y="95.4979">float delta_time ' &#19978;&#19968;&#24103;&#28210;&#26579;&#26356;&#26032;&#20197;&#26469;&#26102;&#38388;</text><line style="stroke:#181818;stroke-width:0.5;" x1="51" x2="447" y1="103.5999" y2="103.5999"/><ellipse cx="61" cy="118.6339" fill="#84BE84" rx="3" ry="3" style="stroke:#038048;stroke-width:1.0;"/><text fill="#000000" font-family="sans-serif" font-size="14" lengthAdjust="spacing" textLength="372" x="70" y="122.5658">Swap_data&amp; render_swap_data ' &#28210;&#26579;&#23618;&#36755;&#20837;&#25968;&#25454;&#28304; (&#24341;&#29992;)</text></g><!--class Input_state--><g id="elem_Input_state"><rect codeLine="30" fill="#F1F1F1" height="48" id="Input_state" rx="2.5" ry="2.5" style="stroke:#181818;stroke-width:0.5;" width="108" x="670" y="190.602"/><ellipse cx="685" cy="206.602" fill="#ADD1B2" rx="11" ry="11" style="stroke:#181818;stroke-width:1.0;"/><path d="M685.1094,202.1332 Q684.1875,202.1332 683.4531,202.4457 Q682.7344,202.7582 682.2344,203.352 Q681.7344,203.9301 681.4531,204.8051 Q681.1875,205.6801 681.1875,206.7739 Q681.1875,208.2114 681.625,209.2582 Q682.0781,210.3051 682.9219,210.852 Q683.7813,211.3989 685.0938,211.3989 Q685.875,211.3989 686.5625,211.2739 Q687.2656,211.1332 688.2656,210.8207 L688.2656,212.6957 Q687.4063,213.0239 686.6406,213.1489 Q685.8906,213.2739 684.875,213.2739 Q682.9531,213.2739 681.6406,212.477 Q680.3438,211.6645 679.6875,210.1957 Q679.0313,208.7114 679.0313,206.7426 Q679.0313,205.3207 679.4219,204.1489 Q679.8281,202.9614 680.6094,202.0864 Q681.3906,201.2114 682.5313,200.7426 Q683.6719,200.2582 685.1406,200.2582 Q686.0938,200.2582 686.9844,200.4614 Q687.8906,200.6489 688.8281,201.1176 L688,202.8989 Q687.2188,202.5239 686.5625,202.3364 Q685.9063,202.1332 685.1094,202.1332 Z " fill="#000000"/><text fill="#000000" font-family="sans-serif" font-size="14" lengthAdjust="spacing" textLength="76" x="699" y="212.034">Input_state</text><line style="stroke:#181818;stroke-width:0.5;" x1="671" x2="777" y1="222.602" y2="222.602"/><line style="stroke:#181818;stroke-width:0.5;" x1="671" x2="777" y1="230.602" y2="230.602"/></g><!--class Swap_data--><g id="elem_Swap_data"><rect fill="#F1F1F1" height="48" id="Swap_data" rx="2.5" ry="2.5" style="stroke:#181818;stroke-width:0.5;" width="104" x="672" y="107.602"/><ellipse cx="687" cy="123.602" fill="#ADD1B2" rx="11" ry="11" style="stroke:#181818;stroke-width:1.0;"/><path d="M687.1094,119.1332 Q686.1875,119.1332 685.4531,119.4457 Q684.7344,119.7582 684.2344,120.352 Q683.7344,120.9301 683.4531,121.8051 Q683.1875,122.6801 683.1875,123.7739 Q683.1875,125.2114 683.625,126.2582 Q684.0781,127.3051 684.9219,127.852 Q685.7813,128.3989 687.0938,128.3989 Q687.875,128.3989 688.5625,128.2739 Q689.2656,128.1332 690.2656,127.8207 L690.2656,129.6957 Q689.4063,130.0239 688.6406,130.1489 Q687.8906,130.2739 686.875,130.2739 Q684.9531,130.2739 683.6406,129.477 Q682.3438,128.6645 681.6875,127.1957 Q681.0313,125.7114 681.0313,123.7426 Q681.0313,122.3207 681.4219,121.1489 Q681.8281,119.9614 682.6094,119.0864 Q683.3906,118.2114 684.5313,117.7426 Q685.6719,117.2582 687.1406,117.2582 Q688.0938,117.2582 688.9844,117.4614 Q689.8906,117.6489 690.8281,118.1176 L690,119.8989 Q689.2188,119.5239 688.5625,119.3364 Q687.9063,119.1332 687.1094,119.1332 Z " fill="#000000"/><text fill="#000000" font-family="sans-serif" font-size="14" lengthAdjust="spacing" textLength="72" x="701" y="129.034">Swap_data</text><line style="stroke:#181818;stroke-width:0.5;" x1="673" x2="775" y1="139.602" y2="139.602"/><line style="stroke:#181818;stroke-width:0.5;" x1="673" x2="775" y1="147.602" y2="147.602"/></g><g id="elem_LogicContextNote"><path d="M629,273.752 L629,301.458 A0,0 0 0 0 629,301.458 L819,301.458 A0,0 0 0 0 819,301.458 L819,283.752 L809,273.752 L637,273.752 L476.46,251.632 L629,273.752 L629,273.752 A0,0 0 0 0 629,273.752 " fill="#FEFFDD" style="stroke:#181818;stroke-width:0.5;"/><path d="M809,273.752 L809,283.752 L819,283.752 L809,273.752 " fill="#FEFFDD" style="stroke:#181818;stroke-width:0.5;"/><text fill="#000000" font-family="sans-serif" font-size="13" lengthAdjust="spacing" textLength="169" x="635" y="292.649">&#20026;&#27599;&#24103;&#36923;&#36753;&#26356;&#26032;&#25552;&#20379;&#24517;&#35201;&#36755;&#20837;</text></g><g id="elem_RenderContextNote"><path d="M616,44.752 L616,72.458 L832,72.458 L832,54.752 L822,44.752 L616,44.752 " fill="#FEFFDD" style="stroke:#181818;stroke-width:0.5;"/><path d="M822,44.752 L822,54.752 L832,54.752 L822,44.752 " fill="#FEFFDD" style="stroke:#181818;stroke-width:1.0;"/><text fill="#000000" font-family="sans-serif" font-size="13" lengthAdjust="spacing" textLength="195" x="622" y="63.649">&#20026;&#28210;&#26579;&#31995;&#32479;&#27599;&#24103;&#26356;&#26032;&#25552;&#20379;&#24517;&#35201;&#36755;&#20837;</text></g><!--reverse link Logic_tick_context to Input_state--><g id="link_Logic_tick_context_Input_state"><path codeLine="39" d="M488.4596,216.5805 C560.5996,215.9705 621.99,215.452 669.71,215.052 " fill="none" id="Logic_tick_context-backto-Input_state" style="stroke:#181818;stroke-width:1.0;"/><polygon fill="#181818" points="476.46,216.682,482.4936,220.6311,488.4596,216.5805,482.426,212.6314,476.46,216.682" style="stroke:#181818;stroke-width:1.0;"/><polygon fill="#000000" points="535.4998,206.5928,526.4303,203.7303,526.4798,209.6079,535.4998,206.5928" style="stroke:#000000;stroke-width:1.0;"/><text fill="#000000" font-family="sans-serif" font-size="13" lengthAdjust="spacing" textLength="26" x="539.5" y="211.679">&#21253;&#21547;</text></g><!--link Logic_tick_context to Swap_data--><g id="link_Logic_tick_context_Swap_data"><path codeLine="40" d="M476.46,176.952 C549.55,163.502 618.0189,150.9066 665.6789,142.1466 " fill="none" id="Logic_tick_context-to-Swap_data" style="stroke:#181818;stroke-width:1.0;"/><polygon fill="#181818" points="671.58,141.062,662.0052,138.7548,666.6624,141.9659,663.4514,146.623,671.58,141.062" style="stroke:#181818;stroke-width:1.0;"/><polygon fill="#000000" points="515.9175,147.2605,506.49,146.0063,507.5533,151.7872,515.9175,147.2605" style="stroke:#000000;stroke-width:1.0;"/><text fill="#000000" font-family="sans-serif" font-size="13" lengthAdjust="spacing" textLength="65" x="520" y="153.209">&#24341;&#29992;&#24182;&#20462;&#25913;</text></g><!--link Render_tick_context to Swap_data--><g id="link_Render_tick_context_Swap_data"><path codeLine="41" d="M448.2,106.042 C529.91,113.642 611.9158,121.2659 665.7358,126.2759 " fill="none" id="Render_tick_context-to-Swap_data" style="stroke:#181818;stroke-width:1.0;"/><polygon fill="#181818" points="671.71,126.832,663.1195,122.015,666.7315,126.3685,662.378,129.9806,671.71,126.832" style="stroke:#181818;stroke-width:1.0;"/><polygon fill="#000000" points="515.9785,103.5481,507.2445,99.7841,506.7001,105.6367,515.9785,103.5481" style="stroke:#000000;stroke-width:1.0;"/><text fill="#000000" font-family="sans-serif" font-size="13" lengthAdjust="spacing" textLength="65" x="520" y="108.129">&#24341;&#29992;&#24182;&#35835;&#21462;</text></g><!--link Render_tick_context to RenderContextNote--><g id="link_Render_tick_context_RenderContextNote"><path codeLine="48" d="M448.38,69.502 C467.84,68.042 487.3,66.702 506,65.602 C541.65,63.492 580.64,61.992 615.61,60.932 " fill="none" id="Render_tick_context-RenderContextNote" style="stroke:#181818;stroke-width:1.0;stroke-dasharray:7.0,7.0;"/></g><!--SRC=[bLHVJzDG57_VfpZsGKIp-U0RKLx01nFqGOoloxMzWuRQBkrTX1YJJLWGa30S3CE2B0QKnCWVGHmKnuUnlLs_XMUzfHJOoEX3svsTy_jpxc_JQ8O1Cy1KHqOPAAf9PQOQUg871cb6rIbOZEWACHLW4rbgGSOmWJ1cggzoBFme6xgbMepgyaJYbYAcdX9i6GyVKVKbWXlcWxDdL1ymDCG9xb7D6YKcLT9PPe9aCQMlxxpmK8gwXf0OfDOTYoZwKJSNzl5QtJsTvCkxV7xRETxWyryzkyo_JC6T0SEaC4WOWSVZyYZHHoWCCpCdivn9hTwkAMuYveKgZwLnYuoEipvmwhDEVOvNfeKweQjhj2oHnmXgbYw2klNll7h0AxiHkWHl4u2Nh17BWY5ZH9NJB3OJVjswxi4JFPjZQOm2ew36tdl0_LjsP-OHtblQuX_-D1jbjxZfpHxoV24sF_o6PDCABlKsQ06JTLP023zlDnkBxjvxjxJ8wx_uUXdVdPEQd_yaLk3dL_r26Uwu9yl8qXl3pMW6mTHIZH4K_xebA32OHq42DdHjR_ArJRvowAyS1EFl4Z7ppwckKBEp-vXwKxJ6vKUIXNSXcH-NRgfNu5ol5_UzKV4djvp6MlDtvRvNhRl5VM_FZfc97zMv2TpoqhPN_VmlN_1FQhmsxVsSQNjMFP1AfIvITXSyqHjF7OZeEaTpwC9RdMf9tRTl11eqjydctMJoWb4C-CUYM_e1_Pqcaid-ytDizGTdunuTEgVRVEae76oNX8wJpHtRNQZWP6ZfcH7z8sh4LDb4KDUn2f9JF-Ox2vTIoHTAJgFgdXQRtmhYC2GWuMznGB2tC3jPIgMkjbwY32A5I_ViTK5_BR5mVvcvtKwG-cep1YRn7m00]--></g></svg>