<?xml version="1.0" encoding="us-ascii" standalone="no"?><svg xmlns="http://www.w3.org/2000/svg" xmlns:xlink="http://www.w3.org/1999/xlink" contentStyleType="text/css" height="622px" preserveAspectRatio="none" style="width:1379px;height:622px;background:#FFFFFF;" version="1.1" viewBox="0 0 1379 622" width="1379px" zoomAndPan="magnify"><defs/><g><text fill="#000000" font-family="sans-serif" font-size="14" font-weight="bold" lengthAdjust="spacing" textLength="235.0625" x="564.9688" y="24.9659">&#36164;&#28304;&#23618; (Resource Layer) - &#25972;&#20307;&#26550;&#26500;</text><!--cluster ??? (Resource Layer)--><g id="cluster_&#36164;&#28304;&#23618; (Resource Layer)"><path d="M8.5,250.1979 L173.375,250.1979 A3.75,3.75 0 0 1 175.875,252.6979 L182.875,275.2658 L1369.5,275.2658 A2.5,2.5 0 0 1 1372,277.7658 L1372,613.4679 A2.5,2.5 0 0 1 1369.5,615.9679 L8.5,615.9679 A2.5,2.5 0 0 1 6,613.4679 L6,252.6979 A2.5,2.5 0 0 1 8.5,250.1979 " fill="none" style="stroke:#000000;stroke-width:1.5;"/><line style="stroke:#000000;stroke-width:1.5;" x1="6" x2="182.875" y1="275.2658" y2="275.2658"/><text fill="#000000" font-family="sans-serif" font-size="14" font-weight="bold" lengthAdjust="spacing" textLength="163.875" x="10" y="267.1639">&#36164;&#28304;&#23618; (Resource Layer)</text></g><!--entity FS--><g id="elem_FS"><rect fill="#F1F1F1" height="68.1358" rx="2.5" ry="2.5" style="stroke:#181818;stroke-width:0.5;" width="123" x="488.5" y="507.7779"/><rect fill="#F1F1F1" height="10" style="stroke:#181818;stroke-width:0.5;" width="15" x="591.5" y="512.7779"/><rect fill="#F1F1F1" height="2" style="stroke:#181818;stroke-width:0.5;" width="4" x="589.5" y="514.7779"/><rect fill="#F1F1F1" height="2" style="stroke:#181818;stroke-width:0.5;" width="4" x="589.5" y="518.7779"/><text fill="#000000" font-family="sans-serif" font-size="14" lengthAdjust="spacing" textLength="56" x="503.5" y="542.7439">&#25991;&#20214;&#26381;&#21153;</text><text fill="#000000" font-family="sans-serif" font-size="14" lengthAdjust="spacing" textLength="83" x="503.5" y="561.8118">(File Service)</text></g><g id="elem_GMN4"><path d="M646,501.4379 L646,537.8479 L611.66,541.8479 L646,545.8479 L646,582.262 A0,0 0 0 0 646,582.262 L864,582.262 A0,0 0 0 0 864,582.262 L864,511.4379 L854,501.4379 L646,501.4379 A0,0 0 0 0 646,501.4379 " fill="#FEFFDD" style="stroke:#181818;stroke-width:0.5;"/><path d="M854,501.4379 L854,511.4379 L864,511.4379 L854,501.4379 " fill="#FEFFDD" style="stroke:#181818;stroke-width:0.5;"/><text fill="#000000" font-family="sans-serif" font-size="13" lengthAdjust="spacing" textLength="150" x="652" y="520.3349">- &#36328;&#24179;&#21488;&#25991;&#20214;&#31995;&#32479;&#25805;&#20316;&#25277;&#35937;</text><text fill="#000000" font-family="sans-serif" font-size="13" lengthAdjust="spacing" textLength="166" x="652" y="538.0409">- &#36335;&#24452;&#31649;&#29702; (&#26681;&#30446;&#24405;&#35774;&#32622;/&#33719;&#21462;)</text><text fill="#000000" font-family="sans-serif" font-size="13" lengthAdjust="spacing" textLength="174" x="652" y="555.747">- &#25991;&#26412;&#25991;&#20214;&#35835;&#20889;, &#30446;&#24405;&#21019;&#24314;/&#36941;&#21382;</text><text fill="#000000" font-family="sans-serif" font-size="13" lengthAdjust="spacing" textLength="197" x="652" y="573.453">- &#36328;&#24179;&#21488;&#25991;&#20214;&#25805;&#20316; (&#22797;&#21046;/&#31227;&#21160;/&#21024;&#38500;)</text></g><!--entity RLM--><g id="elem_RLM"><rect fill="#F1F1F1" height="68.1358" rx="2.5" ry="2.5" style="stroke:#181818;stroke-width:0.5;" width="222" x="518" y="303.3979"/><rect fill="#F1F1F1" height="10" style="stroke:#181818;stroke-width:0.5;" width="15" x="720" y="308.3979"/><rect fill="#F1F1F1" height="2" style="stroke:#181818;stroke-width:0.5;" width="4" x="718" y="310.3979"/><rect fill="#F1F1F1" height="2" style="stroke:#181818;stroke-width:0.5;" width="4" x="718" y="314.3979"/><text fill="#000000" font-family="sans-serif" font-size="14" lengthAdjust="spacing" textLength="98" x="533" y="338.3639">&#36164;&#28304;&#21152;&#36733;&#22120;&#27169;&#22359;</text><text fill="#000000" font-family="sans-serif" font-size="14" lengthAdjust="spacing" textLength="182" x="533" y="357.4318">(Resource Loaders Module)</text></g><g id="elem_GMN8"><path d="M774.5,288.1979 L774.5,333.4679 L740.3,337.4679 L774.5,341.4679 L774.5,386.728 A0,0 0 0 0 774.5,386.728 L1007.5,386.728 A0,0 0 0 0 1007.5,386.728 L1007.5,298.1979 L997.5,288.1979 L774.5,288.1979 A0,0 0 0 0 774.5,288.1979 " fill="#FEFFDD" style="stroke:#181818;stroke-width:0.5;"/><path d="M997.5,288.1979 L997.5,298.1979 L1007.5,298.1979 L997.5,288.1979 " fill="#FEFFDD" style="stroke:#181818;stroke-width:0.5;"/><text fill="#000000" font-family="sans-serif" font-size="13" lengthAdjust="spacing" textLength="4" x="780.5" y="307.0949">-</text><text fill="#000000" font-family="sans-serif" font-size="13" font-weight="bold" lengthAdjust="spacing" textLength="153.9063" x="787.5" y="307.0949">&#25991;&#26412;&#21152;&#36733;&#22120; (Text Loader)</text><text fill="#000000" font-family="sans-serif" font-size="13" lengthAdjust="spacing" textLength="3" x="941.4063" y="307.0949">:</text><text fill="#000000" font-family="sans-serif" font-size="13" lengthAdjust="spacing" textLength="188" x="786.5" y="324.8009">&#21152;&#36733;&#24182;&#31649;&#29702; Text &#23545;&#35937;&#30340;&#20849;&#20139;&#25351;&#38024;</text><text fill="#000000" font-family="sans-serif" font-size="13" lengthAdjust="spacing" textLength="4" x="780.5" y="342.507">-</text><text fill="#000000" font-family="sans-serif" font-size="13" font-weight="bold" lengthAdjust="spacing" textLength="166.3125" x="787.5" y="342.507">&#22270;&#20687;&#21152;&#36733;&#22120; (Image Loader)</text><text fill="#000000" font-family="sans-serif" font-size="13" lengthAdjust="spacing" textLength="3" x="953.8125" y="342.507">:</text><text fill="#000000" font-family="sans-serif" font-size="13" lengthAdjust="spacing" textLength="200" x="786.5" y="360.213">&#21152;&#36733;&#24182;&#31649;&#29702; Image &#23545;&#35937;&#30340;&#20849;&#20139;&#25351;&#38024;</text><text fill="#000000" font-family="sans-serif" font-size="13" lengthAdjust="spacing" textLength="206" x="786.5" y="377.919">(&#22788;&#29702;&#19981;&#21516;&#20687;&#32032;&#26684;&#24335;, stb_image&#23553;&#35013;)</text></g><!--entity RM--><g id="elem_RM"><rect fill="#F1F1F1" height="68.1358" rx="2.5" ry="2.5" style="stroke:#181818;stroke-width:0.5;" width="175" x="1180.5" y="507.7779"/><rect fill="#F1F1F1" height="10" style="stroke:#181818;stroke-width:0.5;" width="15" x="1335.5" y="512.7779"/><rect fill="#F1F1F1" height="2" style="stroke:#181818;stroke-width:0.5;" width="4" x="1333.5" y="514.7779"/><rect fill="#F1F1F1" height="2" style="stroke:#181818;stroke-width:0.5;" width="4" x="1333.5" y="518.7779"/><text fill="#000000" font-family="sans-serif" font-size="14" lengthAdjust="spacing" textLength="70" x="1195.5" y="542.7439">&#36164;&#28304;&#31649;&#29702;&#22120;</text><text fill="#000000" font-family="sans-serif" font-size="14" lengthAdjust="spacing" textLength="135" x="1195.5" y="561.8118">(Resource Manager)</text></g><g id="elem_GMN12"><path d="M899,483.7279 L899,599.964 A0,0 0 0 0 899,599.964 L1145,599.964 A0,0 0 0 0 1145,599.964 L1145,545.8479 L1180.42,541.8479 L1145,537.8479 L1145,493.7279 L1135,483.7279 L899,483.7279 A0,0 0 0 0 899,483.7279 " fill="#FEFFDD" style="stroke:#181818;stroke-width:0.5;"/><path d="M1135,483.7279 L1135,493.7279 L1145,493.7279 L1135,483.7279 " fill="#FEFFDD" style="stroke:#181818;stroke-width:0.5;"/><text fill="#000000" font-family="sans-serif" font-size="13" lengthAdjust="spacing" textLength="177" x="905" y="502.6249">- &#27169;&#26495;&#21270;&#36164;&#28304;&#31649;&#29702; (Key_type, T)</text><text fill="#000000" font-family="sans-serif" font-size="13" lengthAdjust="spacing" textLength="225" x="905" y="520.3309">- &#23384;&#20648;&#19982;&#31649;&#29702;&#20849;&#20139;&#36164;&#28304; (std::shared_ptr)</text><text fill="#000000" font-family="sans-serif" font-size="13" lengthAdjust="spacing" textLength="4" x="905" y="538.037">-</text><text fill="#000000" font-family="sans-serif" font-size="13" font-weight="bold" lengthAdjust="spacing" textLength="127.0625" x="912" y="538.037">&#26680;&#24515;: &#36164;&#28304;&#20381;&#36182;&#22270;&#31649;&#29702;</text><text fill="#000000" font-family="sans-serif" font-size="13" lengthAdjust="spacing" textLength="121" x="905" y="555.743">- &#28155;&#21152;/&#33719;&#21462;/&#31227;&#38500;&#36164;&#28304;</text><text fill="#000000" font-family="sans-serif" font-size="13" lengthAdjust="spacing" textLength="85" x="905" y="573.449">- &#24490;&#29615;&#20381;&#36182;&#26816;&#27979;</text><text fill="#000000" font-family="sans-serif" font-size="13" lengthAdjust="spacing" textLength="129" x="905" y="591.155">- &#26597;&#35810;&#20381;&#36182;&#39033;/&#34987;&#20381;&#36182;&#39033;</text></g><!--entity HashUtil--><g id="elem_HashUtil"><rect fill="#F1F1F1" height="49.0679" rx="2.5" ry="2.5" style="stroke:#181818;stroke-width:0.5;" width="136" x="77" y="312.9279"/><rect fill="#F1F1F1" height="10" style="stroke:#181818;stroke-width:0.5;" width="15" x="193" y="317.9279"/><rect fill="#F1F1F1" height="2" style="stroke:#181818;stroke-width:0.5;" width="4" x="191" y="319.9279"/><rect fill="#F1F1F1" height="2" style="stroke:#181818;stroke-width:0.5;" width="4" x="191" y="323.9279"/><text fill="#000000" font-family="sans-serif" font-size="14" lengthAdjust="spacing" textLength="96" x="92" y="347.8939">&#21704;&#24076; (Hashing)</text></g><g id="elem_GMN16"><path d="M22.5,527.9979 L22.5,555.7039 A0,0 0 0 0 22.5,555.7039 L267.5,555.7039 A0,0 0 0 0 267.5,555.7039 L267.5,537.9979 L257.5,527.9979 L149,527.9979 L145,362.4779 L141,527.9979 L22.5,527.9979 A0,0 0 0 0 22.5,527.9979 " fill="#FEFFDD" style="stroke:#181818;stroke-width:0.5;"/><path d="M257.5,527.9979 L257.5,537.9979 L267.5,537.9979 L257.5,527.9979 " fill="#FEFFDD" style="stroke:#181818;stroke-width:0.5;"/><text fill="#000000" font-family="sans-serif" font-size="13" lengthAdjust="spacing" textLength="224" x="28.5" y="546.8949">FNV-1a, &#33258;&#23450;&#20041;&#23383;&#33410;&#24207;&#21015;&#21704;&#24076;, &#21704;&#24076;&#21512;&#24182;</text></g><!--entity GuidUtil--><g id="elem_GuidUtil"><rect fill="#F1F1F1" height="49.0679" rx="2.5" ry="2.5" style="stroke:#181818;stroke-width:0.5;" width="229" x="253.5" y="312.9279"/><rect fill="#F1F1F1" height="10" style="stroke:#181818;stroke-width:0.5;" width="15" x="462.5" y="317.9279"/><rect fill="#F1F1F1" height="2" style="stroke:#181818;stroke-width:0.5;" width="4" x="460.5" y="319.9279"/><rect fill="#F1F1F1" height="2" style="stroke:#181818;stroke-width:0.5;" width="4" x="460.5" y="323.9279"/><text fill="#000000" font-family="sans-serif" font-size="14" lengthAdjust="spacing" textLength="189" x="268.5" y="347.8939">GUID&#29983;&#25104; (GUID Generation)</text></g><g id="elem_GMN20"><path d="M302.5,527.9979 L302.5,555.7039 A0,0 0 0 0 302.5,555.7039 L453.5,555.7039 A0,0 0 0 0 453.5,555.7039 L453.5,537.9979 L443.5,527.9979 L381.34,527.9979 L369.19,362.4779 L373.34,527.9979 L302.5,527.9979 A0,0 0 0 0 302.5,527.9979 " fill="#FEFFDD" style="stroke:#181818;stroke-width:0.5;"/><path d="M443.5,527.9979 L443.5,537.9979 L453.5,537.9979 L443.5,527.9979 " fill="#FEFFDD" style="stroke:#181818;stroke-width:0.5;"/><text fill="#000000" font-family="sans-serif" font-size="13" lengthAdjust="spacing" textLength="130" x="308.5" y="546.8949">&#39034;&#24207;&#21807;&#19968;ID&#29983;&#25104;&#19982;&#23553;&#35013;</text></g><!--entity GuiFilePanel--><g id="elem_GuiFilePanel"><rect fill="#C2F0FF" height="58.1358" rx="2.5" ry="2.5" style="stroke:#181818;stroke-width:0.5;" width="161" x="979.5" y="47.0679"/><text fill="#000000" font-family="sans-serif" font-size="14" lengthAdjust="spacing" textLength="94" x="989.5" y="72.0339">GUI&#23618; File&#38754;&#26495;</text><text fill="#000000" font-family="sans-serif" font-size="14" lengthAdjust="spacing" textLength="141" x="989.5" y="91.1018">(GUI Layer File Panel)</text></g><!--entity App--><g id="elem_App"><rect fill="#C2F0FF" height="58.1358" rx="2.5" ry="2.5" style="stroke:#181818;stroke-width:0.5;" width="176" x="1180" y="47.0679"/><text fill="#000000" font-family="sans-serif" font-size="14" lengthAdjust="spacing" textLength="156" x="1190" y="72.0339">RTR Runtime / &#19978;&#23618;&#24212;&#29992;</text><text fill="#000000" font-family="sans-serif" font-size="14" lengthAdjust="spacing" textLength="124" x="1190" y="91.1018">(Application Layer)</text></g><!--link RLM to FS--><g id="link_RLM_FS"><path d="M615.95,371.8879 C601.32,409.3879 579.8923,464.2689 565.2423,501.7889 " fill="none" id="RLM-to-FS" style="stroke:#181818;stroke-width:1.0;stroke-dasharray:7.0,7.0;"/><polygon fill="#181818" points="563.06,507.3779,570.0595,500.4492,564.8786,502.7204,562.6074,497.5395,563.06,507.3779" style="stroke:#181818;stroke-width:1.0;"/><text fill="#000000" font-family="sans-serif" font-size="13" lengthAdjust="spacing" textLength="41" x="620.08" y="431.6249">&#171;uses&#187;</text><text fill="#000000" font-family="sans-serif" font-size="13" lengthAdjust="spacing" textLength="86" x="597.58" y="449.3309">(&#35835;&#21462;&#25991;&#20214;&#25968;&#25454;)</text></g><!--link RLM to RM--><g id="link_RLM_RM"><path d="M713.17,371.9179 C727.68,377.1979 742.7,382.3479 757,386.7279 C934.37,441.1279 989.79,417.2779 1163,483.7279 C1179.76,490.1579 1191.9134,495.8934 1207.6334,504.4734 " fill="none" id="RLM-to-RM" style="stroke:#181818;stroke-width:1.0;stroke-dasharray:7.0,7.0;"/><polygon fill="#181818" points="1212.9,507.3479,1206.9164,499.5251,1208.5112,504.9525,1203.0837,506.5472,1212.9,507.3479" style="stroke:#181818;stroke-width:1.0;"/><text fill="#000000" font-family="sans-serif" font-size="13" lengthAdjust="spacing" textLength="66" x="1088.79" y="431.6249">&#171;provides&#187;</text><text fill="#000000" font-family="sans-serif" font-size="13" lengthAdjust="spacing" textLength="99" x="1072.29" y="449.3309">(&#21152;&#36733;&#30340;&#36164;&#28304;&#23454;&#20363;)</text></g><!--link GuiFilePanel to FS--><g id="link_GuiFilePanel_FS"><path d="M1069.25,105.6579 C1090.07,175.9279 1131.78,358.5679 1038,453.7279 C973.88,518.7979 713.74,452.1879 628,483.7279 C613.35,489.1179 603.8336,494.5161 591.5636,503.8061 " fill="none" id="GuiFilePanel-to-FS" style="stroke:#181818;stroke-width:1.0;stroke-dasharray:7.0,7.0;"/><polygon fill="#181818" points="586.78,507.4279,596.3699,505.1843,590.7663,504.4098,591.5408,498.8062,586.78,507.4279" style="stroke:#181818;stroke-width:1.0;"/><text fill="#000000" font-family="sans-serif" font-size="13" lengthAdjust="spacing" textLength="41" x="1137.48" y="212.0949">&#171;uses&#187;</text><text fill="#000000" font-family="sans-serif" font-size="13" lengthAdjust="spacing" textLength="125" x="1095.48" y="229.8009">(&#21487;&#35270;&#21270;&#36164;&#28304;&#31649;&#29702;&#25509;&#21475;)</text></g><!--link App to RM--><g id="link_App_RM"><path d="M1268,105.4479 C1268,186.6579 1268,414.1579 1268,501.4179 " fill="none" id="App-to-RM" style="stroke:#181818;stroke-width:1.0;stroke-dasharray:7.0,7.0;"/><polygon fill="#181818" points="1268,507.4179,1272,498.4179,1268,502.4179,1264,498.4179,1268,507.4179" style="stroke:#181818;stroke-width:1.0;"/><text fill="#000000" font-family="sans-serif" font-size="13" lengthAdjust="spacing" textLength="41" x="1294" y="212.0949">&#171;uses&#187;</text><text fill="#000000" font-family="sans-serif" font-size="13" lengthAdjust="spacing" textLength="91" x="1269" y="229.8009">(&#35831;&#27714;/&#31649;&#29702;&#36164;&#28304;)</text></g><!--SRC=[ZLLjJnj74FxkNp6Y7sfR6AjVhGW9jOMWGeeSqa-LqCLUx5FjE-jkpOkgIWbnm7KmHWLC2Mys90fA6XkK07w9dJzpUtV-5vtr7kPC8CfziNTsvdbcdfdTfJ9D4B3FCsPZdPqjWJTCT3MjHGXCI8j4yq40pAsFHcl3FBWm3p8UJqgA_27520pS7JC0VteyW5z4JQPKXIWK1ipYYj6yCFVoB5V-NV6EoiZwa6XpSeIWlwJ3wCDkYA9I0feSYrDGPw-C_0k0VNd2wXzOuLHWMH-QLlFGtCWRhJqprxBFods-LTREM9MojRuCNhDKjtOhhBLbLzfMgnAqrovPeUXp-IEakVUV0BQhJRQyCmWYX6LtMRCHx3pDixNbkxCHUO2NlSgpx4NGUjDakPCWovOwEwy44L6YtUg-aCOHCbUoMossSsAUbDd-DcfqhQegHOccmwGQJISSkS8JaxVeTMKLAVhzegmUD7YdoG9ry7n-VwZd3E0urIySqRgUh5f7NQsN6VRyp6YyCrTNElza-nZORfizAxWOnfDyEhw9GhX-dGEuf1dqDcfvjhwANDR7abdwn3uL1a6dZsTa3i9Edzh7pxz9Py6DgReLdfGKHD4SQLtA9iYi4DQjAtR8tF_CLejkHF3-GXPdw6AA3CAqUxJO-t_PqebHMtEOkrMAIF3gD1eAwN598z6P5DLy_TqhrTZdPo7dT1hjVVkyY7eB7B_VdT4bZbl9cMi-V3Xr8igTIFkjjLOLCERn4_FyXHlXyBLTFHARdN8zQ1-zwos-BYlRoBBQAdZlItfSLc92GxvuHEL4Zw6hvcELKZKPWj47lmL-a0R1NddBAY-D-j_i_RQTMsAD0ijk2xn14BziFOi3SvDpxD7uJzRcePb52Vb_62CAqIGgguhW7qlBqRlvE-K6vzgi6hKdLq3O8355dhyydkyX40Z0k48HDC9HTMxWzYyEPLeduBxDWAeWHI94rq6Jvc6MRqKbAddmRCBGq33UQH22U_SmJXyUnY7arqsXwDmYMwTclkAxbIYbgNDo54UIhwEWNUtBYaub1Gd1YuLVpvBkuwdGE86ROzvB9JpPJSL15kc8Guh7qRcMAWT6-mLcX2dzl81wA582ANl205b89UG8lYABaCJUe0cJcrMrFb4y6ebWaZ6qyDxnHuDlT_QFy20XATh4so6YfYI597gDvAQk1RuRcPgQ6FznP7hyrmUUlfsXeTkaPOMg_MRvna4rrrwpmd5Nu_juRn8ja21p226bU27T6KADOt84vjLq8jeh5kPb6hzLJwvpZ518TfVNhT7TPOUdmn1Eeq190a4mQZaKWJKshKr-4OsukA_UK2mUpVqrSuCerMcTQuekpREbe2XHb8ib_Wy0]--></g></svg>