<?xml version="1.0" encoding="us-ascii" standalone="no"?><svg xmlns="http://www.w3.org/2000/svg" xmlns:xlink="http://www.w3.org/1999/xlink" contentStyleType="text/css" height="662px" preserveAspectRatio="none" style="width:1315px;height:662px;background:#FFFFFF;" version="1.1" viewBox="0 0 1315 662" width="1315px" zoomAndPan="magnify"><defs/><g><!--class RHI_geometry--><g id="elem_RHI_geometry"><rect codeLine="3" fill="#F1F1F1" height="67.0679" id="RHI_geometry" rx="2.5" ry="2.5" style="stroke:#181818;stroke-width:0.5;" width="211" x="84.5" y="308.626"/><ellipse cx="141.25" cy="324.626" fill="#B4A7E5" rx="11" ry="11" style="stroke:#181818;stroke-width:1.0;"/><path d="M143.3438,331.126 L138.4375,331.126 L138.4375,329.751 L139.8594,329.4385 L139.8594,320.1573 L138.4375,319.8135 L138.4375,318.4541 L143.3438,318.4541 L143.3438,319.8135 L141.9219,320.1573 L141.9219,329.4385 L143.3438,329.751 L143.3438,331.126 Z " fill="#000000"/><text fill="#000000" font-family="sans-serif" font-size="14" font-style="italic" lengthAdjust="spacing" textLength="89" x="161.75" y="330.058">RHI_geometry</text><line style="stroke:#181818;stroke-width:0.5;" x1="85.5" x2="294.5" y1="340.626" y2="340.626"/><line style="stroke:#181818;stroke-width:0.5;" x1="85.5" x2="294.5" y1="348.626" y2="348.626"/><ellipse cx="95.5" cy="363.66" fill="#84BE84" rx="3" ry="3" style="stroke:#038048;stroke-width:1.0;"/><text fill="#000000" font-family="sans-serif" font-size="14" font-style="italic" lengthAdjust="spacing" textLength="185" x="104.5" y="367.592">some_rhi_geometry_method()</text></g><!--class RHI_linker_T--><g id="elem_RHI_linker_T"><rect codeLine="8" fill="#F1F1F1" height="105.2038" id="RHI_linker_T" rx="2.5" ry="2.5" style="stroke:#181818;stroke-width:0.5;" width="226" x="282" y="10.016"/><ellipse cx="353.25" cy="26.016" fill="#A9DCDF" rx="11" ry="11" style="stroke:#181818;stroke-width:1.0;"/><path d="M356.5938,31.266 L355.125,27.516 L350.6875,27.516 L349.25,31.266 L347.125,31.266 L352.0781,18.5473 L353.8281,18.5473 L358.75,31.266 L356.5938,31.266 Z M353.25,22.3129 Q353.2031,22.1566 353.0781,21.7973 Q352.9531,21.4379 352.8438,21.0629 Q352.7344,20.6723 352.9375,20.6098 Q353.0938,20.7973 353,21.1566 Q352.9063,21.5004 352.8125,21.7973 Q352.7188,22.0785 352.6406,22.3129 L351.4063,25.6254 L354.4844,25.6254 L353.25,22.3129 Z " fill="#000000"/><text fill="#000000" font-family="sans-serif" font-size="14" font-style="italic" lengthAdjust="spacing" textLength="65" x="373.75" y="31.448">RHI_linker</text><rect fill="#FFFFFF" height="18.3441" style="stroke:#181818;stroke-width:1.0;stroke-dasharray:2.0,2.0;" width="8" x="503" y="7.016"/><text fill="#000000" font-family="sans-serif" font-size="12" font-style="italic" lengthAdjust="spacing" textLength="6" x="504" y="20.8441">T</text><line style="stroke:#181818;stroke-width:0.5;" x1="283" x2="507" y1="42.016" y2="42.016"/><polygon fill="none" points="293,52.05,297,56.05,293,60.05,289,56.05" style="stroke:#B38D22;stroke-width:1.0;"/><text fill="#000000" font-family="sans-serif" font-size="14" lengthAdjust="spacing" textLength="104" x="302" y="60.982">rhi_resource : T</text><line style="stroke:#181818;stroke-width:0.5;" x1="283" x2="507" y1="69.0839" y2="69.0839"/><ellipse cx="293" cy="84.1179" fill="#84BE84" rx="3" ry="3" style="stroke:#038048;stroke-width:1.0;"/><text fill="#000000" font-family="sans-serif" font-size="14" lengthAdjust="spacing" textLength="200" x="302" y="88.0499">link(device : RHI_device) : void</text><ellipse cx="293" cy="103.1858" fill="#84BE84" rx="3" ry="3" style="stroke:#038048;stroke-width:1.0;"/><text fill="#000000" font-family="sans-serif" font-size="14" lengthAdjust="spacing" textLength="140" x="302" y="107.1178">get_rhi_resource() : T</text></g><!--class BoundingBox--><g id="elem_BoundingBox"><rect codeLine="15" fill="#F1F1F1" height="86.1358" id="BoundingBox" rx="2.5" ry="2.5" style="stroke:#181818;stroke-width:0.5;" width="284" x="7" y="569.096"/><ellipse cx="99.75" cy="585.096" fill="#F1F1F1" rx="11" ry="11" style="stroke:#181818;stroke-width:1.0;"/><path d="M104.3125,588.0804 Q104.3125,589.2523 103.7344,590.0804 Q103.1719,590.9085 102.125,591.346 Q101.0938,591.7679 99.7188,591.7679 Q99.0156,591.7679 98.375,591.6898 Q97.75,591.6273 97.2188,591.5023 Q96.6875,591.3616 96.1094,591.096 L96.1094,589.0491 Q97.0938,589.4866 97.9688,589.7054 Q98.8438,589.9085 99.7813,589.9085 Q100.6406,589.9085 101.1875,589.7054 Q101.7344,589.4866 101.9844,589.1116 Q102.25,588.7366 102.25,588.221 Q102.25,587.7054 102.0313,587.3616 Q101.8281,587.0179 101.2344,586.6898 Q100.6563,586.3616 99.5625,585.971 Q98.7656,585.6585 98.1406,585.3304 Q97.5313,584.9866 97.1094,584.5335 Q96.6875,584.0648 96.4688,583.471 Q96.2656,582.8773 96.2656,582.1116 Q96.2656,581.0648 96.7969,580.3148 Q97.3438,579.5491 98.2813,579.1585 Q99.2188,578.7523 100.4063,578.7523 Q101.4531,578.7523 102.2969,578.9554 Q103.1563,579.1429 104.0938,579.5648 L103.4375,581.3773 Q102.5625,580.9866 101.8438,580.8148 Q101.1406,580.6273 100.375,580.6273 Q99.6719,580.6273 99.2188,580.8304 Q98.7813,581.0179 98.5625,581.3616 Q98.3438,581.6898 98.3438,582.1273 Q98.3438,582.6741 98.5625,583.0179 Q98.7813,583.3616 99.3125,583.6741 Q99.8594,583.971 100.8281,584.3304 Q101.9219,584.7366 102.6875,585.221 Q103.4688,585.6898 103.8906,586.3773 Q104.3125,587.0491 104.3125,588.0804 Z " fill="#000000"/><text fill="#000000" font-family="sans-serif" font-size="14" lengthAdjust="spacing" textLength="90" x="120.25" y="590.528">BoundingBox</text><line style="stroke:#181818;stroke-width:0.5;" x1="8" x2="290" y1="601.096" y2="601.096"/><ellipse cx="18" cy="616.13" fill="none" rx="3" ry="3" style="stroke:#038048;stroke-width:1.0;"/><text fill="#000000" font-family="sans-serif" font-size="14" lengthAdjust="spacing" textLength="256" x="27" y="620.062">min_point : float[3] ' Example member</text><ellipse cx="18" cy="635.1979" fill="none" rx="3" ry="3" style="stroke:#038048;stroke-width:1.0;"/><text fill="#000000" font-family="sans-serif" font-size="14" lengthAdjust="spacing" textLength="258" x="27" y="639.1299">max_point : float[3] ' Example member</text><line style="stroke:#181818;stroke-width:0.5;" x1="8" x2="290" y1="647.2319" y2="647.2319"/></g><!--class BoundingSphere--><g id="elem_BoundingSphere"><rect codeLine="20" fill="#F1F1F1" height="86.1358" id="BoundingSphere" rx="2.5" ry="2.5" style="stroke:#181818;stroke-width:0.5;" width="258" x="326" y="569.096"/><ellipse cx="393.75" cy="585.096" fill="#F1F1F1" rx="11" ry="11" style="stroke:#181818;stroke-width:1.0;"/><path d="M398.3125,588.0804 Q398.3125,589.2523 397.7344,590.0804 Q397.1719,590.9085 396.125,591.346 Q395.0938,591.7679 393.7188,591.7679 Q393.0156,591.7679 392.375,591.6898 Q391.75,591.6273 391.2188,591.5023 Q390.6875,591.3616 390.1094,591.096 L390.1094,589.0491 Q391.0938,589.4866 391.9688,589.7054 Q392.8438,589.9085 393.7813,589.9085 Q394.6406,589.9085 395.1875,589.7054 Q395.7344,589.4866 395.9844,589.1116 Q396.25,588.7366 396.25,588.221 Q396.25,587.7054 396.0313,587.3616 Q395.8281,587.0179 395.2344,586.6898 Q394.6563,586.3616 393.5625,585.971 Q392.7656,585.6585 392.1406,585.3304 Q391.5313,584.9866 391.1094,584.5335 Q390.6875,584.0648 390.4688,583.471 Q390.2656,582.8773 390.2656,582.1116 Q390.2656,581.0648 390.7969,580.3148 Q391.3438,579.5491 392.2813,579.1585 Q393.2188,578.7523 394.4063,578.7523 Q395.4531,578.7523 396.2969,578.9554 Q397.1563,579.1429 398.0938,579.5648 L397.4375,581.3773 Q396.5625,580.9866 395.8438,580.8148 Q395.1406,580.6273 394.375,580.6273 Q393.6719,580.6273 393.2188,580.8304 Q392.7813,581.0179 392.5625,581.3616 Q392.3438,581.6898 392.3438,582.1273 Q392.3438,582.6741 392.5625,583.0179 Q392.7813,583.3616 393.3125,583.6741 Q393.8594,583.971 394.8281,584.3304 Q395.9219,584.7366 396.6875,585.221 Q397.4688,585.6898 397.8906,586.3773 Q398.3125,587.0491 398.3125,588.0804 Z " fill="#000000"/><text fill="#000000" font-family="sans-serif" font-size="14" lengthAdjust="spacing" textLength="114" x="414.25" y="590.528">BoundingSphere</text><line style="stroke:#181818;stroke-width:0.5;" x1="327" x2="583" y1="601.096" y2="601.096"/><ellipse cx="337" cy="616.13" fill="none" rx="3" ry="3" style="stroke:#038048;stroke-width:1.0;"/><text fill="#000000" font-family="sans-serif" font-size="14" lengthAdjust="spacing" textLength="232" x="346" y="620.062">center : float[3] ' Example member</text><ellipse cx="337" cy="635.1979" fill="none" rx="3" ry="3" style="stroke:#038048;stroke-width:1.0;"/><text fill="#000000" font-family="sans-serif" font-size="14" lengthAdjust="spacing" textLength="226" x="346" y="639.1299">radius : float    ' Example member</text><line style="stroke:#181818;stroke-width:0.5;" x1="327" x2="583" y1="647.2319" y2="647.2319"/></g><!--class Render_object--><g id="elem_Render_object"><rect codeLine="26" fill="#F1F1F1" height="48" id="Render_object" rx="2.5" ry="2.5" style="stroke:#181818;stroke-width:0.5;" width="120" x="747" y="38.616"/><ellipse cx="762" cy="54.616" fill="#A9DCDF" rx="11" ry="11" style="stroke:#181818;stroke-width:1.0;"/><path d="M765.3438,59.866 L763.875,56.116 L759.4375,56.116 L758,59.866 L755.875,59.866 L760.8281,47.1473 L762.5781,47.1473 L767.5,59.866 L765.3438,59.866 Z M762,50.9129 Q761.9531,50.7566 761.8281,50.3973 Q761.7031,50.0379 761.5938,49.6629 Q761.4844,49.2723 761.6875,49.2098 Q761.8438,49.3973 761.75,49.7566 Q761.6563,50.1004 761.5625,50.3973 Q761.4688,50.6785 761.3906,50.9129 L760.1563,54.2254 L763.2344,54.2254 L762,50.9129 Z " fill="#000000"/><text fill="#000000" font-family="sans-serif" font-size="14" font-style="italic" lengthAdjust="spacing" textLength="88" x="776" y="60.048">Render_object</text><line style="stroke:#181818;stroke-width:0.5;" x1="748" x2="866" y1="70.616" y2="70.616"/><line style="stroke:#181818;stroke-width:0.5;" x1="748" x2="866" y1="78.616" y2="78.616"/></g><!--class Geometry--><g id="elem_Geometry"><rect codeLine="30" fill="#F1F1F1" height="295.8829" id="Geometry" rx="2.5" ry="2.5" style="stroke:#181818;stroke-width:0.5;" width="953" x="330.5" y="194.216"/><ellipse cx="770.25" cy="210.216" fill="#ADD1B2" rx="11" ry="11" style="stroke:#181818;stroke-width:1.0;"/><path d="M770.3594,205.7473 Q769.4375,205.7473 768.7031,206.0598 Q767.9844,206.3723 767.4844,206.966 Q766.9844,207.5441 766.7031,208.4191 Q766.4375,209.2941 766.4375,210.3879 Q766.4375,211.8254 766.875,212.8723 Q767.3281,213.9191 768.1719,214.466 Q769.0313,215.0129 770.3438,215.0129 Q771.125,215.0129 771.8125,214.8879 Q772.5156,214.7473 773.5156,214.4348 L773.5156,216.3098 Q772.6563,216.6379 771.8906,216.7629 Q771.1406,216.8879 770.125,216.8879 Q768.2031,216.8879 766.8906,216.091 Q765.5938,215.2785 764.9375,213.8098 Q764.2813,212.3254 764.2813,210.3566 Q764.2813,208.9348 764.6719,207.7629 Q765.0781,206.5754 765.8594,205.7004 Q766.6406,204.8254 767.7813,204.3566 Q768.9219,203.8723 770.3906,203.8723 Q771.3438,203.8723 772.2344,204.0754 Q773.1406,204.2629 774.0781,204.7316 L773.25,206.5129 Q772.4688,206.1379 771.8125,205.9504 Q771.1563,205.7473 770.3594,205.7473 Z " fill="#000000"/><text fill="#000000" font-family="sans-serif" font-size="14" lengthAdjust="spacing" textLength="65" x="790.75" y="215.648">Geometry</text><line style="stroke:#181818;stroke-width:0.5;" x1="331.5" x2="1282.5" y1="226.216" y2="226.216"/><rect fill="none" height="6" style="stroke:#C82930;stroke-width:1.0;" width="6" x="338.5" y="238.25"/><text fill="#000000" font-family="sans-serif" font-size="14" lengthAdjust="spacing" textLength="586" x="350.5" y="245.182">m_vertex_attributes : std::unordered_map&lt;int, std::shared_ptr&lt;Vertex_attribute_base&gt;&gt;</text><rect fill="none" height="6" style="stroke:#C82930;stroke-width:1.0;" width="6" x="338.5" y="257.3179"/><text fill="#000000" font-family="sans-serif" font-size="14" lengthAdjust="spacing" textLength="390" x="350.5" y="264.2499">m_element_attribute : std::shared_ptr&lt;Element_atrribute&gt;</text><line style="stroke:#181818;stroke-width:0.5;" x1="331.5" x2="1282.5" y1="272.3519" y2="272.3519"/><ellipse cx="341.5" cy="287.3858" fill="#84BE84" rx="3" ry="3" style="stroke:#038048;stroke-width:1.0;"/><text fill="#000000" font-family="sans-serif" font-size="14" lengthAdjust="spacing" textLength="927" x="350.5" y="291.3178">Geometry(vertex_attrs : std::unordered_map&lt;int, std::shared_ptr&lt;Vertex_attribute_base&gt;&gt;, elem_attr : std::shared_ptr&lt;Element_atrribute&gt;)</text><text fill="#000000" font-family="sans-serif" font-size="14" lengthAdjust="spacing" textLength="4" x="350.5" y="310.3857">&#160;</text><ellipse cx="341.5" cy="325.5217" fill="#84BE84" rx="3" ry="3" style="stroke:#038048;stroke-width:1.0;"/><text fill="#000000" font-family="sans-serif" font-size="14" lengthAdjust="spacing" text-decoration="underline" textLength="275" x="350.5" y="329.4536">create_box() : std::shared_ptr&lt;Geometry&gt;</text><ellipse cx="341.5" cy="344.5896" fill="#84BE84" rx="3" ry="3" style="stroke:#038048;stroke-width:1.0;"/><text fill="#000000" font-family="sans-serif" font-size="14" lengthAdjust="spacing" text-decoration="underline" textLength="289" x="350.5" y="348.5215">create_plane() : std::shared_ptr&lt;Geometry&gt;</text><ellipse cx="341.5" cy="363.6575" fill="#84BE84" rx="3" ry="3" style="stroke:#038048;stroke-width:1.0;"/><text fill="#000000" font-family="sans-serif" font-size="14" lengthAdjust="spacing" text-decoration="underline" textLength="340" x="350.5" y="367.5895">create_screen_plane() : std::shared_ptr&lt;Geometry&gt;</text><ellipse cx="341.5" cy="382.7254" fill="#84BE84" rx="3" ry="3" style="stroke:#038048;stroke-width:1.0;"/><text fill="#000000" font-family="sans-serif" font-size="14" lengthAdjust="spacing" text-decoration="underline" textLength="298" x="350.5" y="386.6574">create_sphere() : std::shared_ptr&lt;Geometry&gt;</text><text fill="#000000" font-family="sans-serif" font-size="14" lengthAdjust="spacing" textLength="4" x="350.5" y="405.7253">&#160;</text><ellipse cx="341.5" cy="420.8612" fill="#84BE84" rx="3" ry="3" style="stroke:#038048;stroke-width:1.0;"/><text fill="#000000" font-family="sans-serif" font-size="14" lengthAdjust="spacing" text-decoration="underline" textLength="462" x="350.5" y="424.7932">compute_bounding_box(positions : Position_attribute) : BoundingBox</text><ellipse cx="341.5" cy="439.9292" fill="#84BE84" rx="3" ry="3" style="stroke:#038048;stroke-width:1.0;"/><text fill="#000000" font-family="sans-serif" font-size="14" lengthAdjust="spacing" text-decoration="underline" textLength="509" x="350.5" y="443.8611">compute_bounding_sphere(positions : Position_attribute) : BoundingSphere</text><text fill="#000000" font-family="sans-serif" font-size="14" lengthAdjust="spacing" textLength="4" x="350.5" y="462.929">&#160;</text><ellipse cx="341.5" cy="478.065" fill="#84BE84" rx="3" ry="3" style="stroke:#038048;stroke-width:1.0;"/><text fill="#000000" font-family="sans-serif" font-size="14" lengthAdjust="spacing" textLength="395" x="350.5" y="481.997">link(device : RHI_device) : void ' Overrides RHI_linker_T::link</text></g><!--class Vertex_attribute_base--><g id="elem_Vertex_attribute_base"><rect fill="#F1F1F1" height="48" id="Vertex_attribute_base" rx="2.5" ry="2.5" style="stroke:#181818;stroke-width:0.5;" width="177" x="618.5" y="588.166"/><ellipse cx="633.5" cy="604.166" fill="#ADD1B2" rx="11" ry="11" style="stroke:#181818;stroke-width:1.0;"/><path d="M633.6094,599.6973 Q632.6875,599.6973 631.9531,600.0098 Q631.2344,600.3223 630.7344,600.916 Q630.2344,601.4941 629.9531,602.3691 Q629.6875,603.2441 629.6875,604.3379 Q629.6875,605.7754 630.125,606.8223 Q630.5781,607.8691 631.4219,608.416 Q632.2813,608.9629 633.5938,608.9629 Q634.375,608.9629 635.0625,608.8379 Q635.7656,608.6973 636.7656,608.3848 L636.7656,610.2598 Q635.9063,610.5879 635.1406,610.7129 Q634.3906,610.8379 633.375,610.8379 Q631.4531,610.8379 630.1406,610.041 Q628.8438,609.2285 628.1875,607.7598 Q627.5313,606.2754 627.5313,604.3066 Q627.5313,602.8848 627.9219,601.7129 Q628.3281,600.5254 629.1094,599.6504 Q629.8906,598.7754 631.0313,598.3066 Q632.1719,597.8223 633.6406,597.8223 Q634.5938,597.8223 635.4844,598.0254 Q636.3906,598.2129 637.3281,598.6816 L636.5,600.4629 Q635.7188,600.0879 635.0625,599.9004 Q634.4063,599.6973 633.6094,599.6973 Z " fill="#000000"/><text fill="#000000" font-family="sans-serif" font-size="14" lengthAdjust="spacing" textLength="145" x="647.5" y="609.598">Vertex_attribute_base</text><line style="stroke:#181818;stroke-width:0.5;" x1="619.5" x2="794.5" y1="620.166" y2="620.166"/><line style="stroke:#181818;stroke-width:0.5;" x1="619.5" x2="794.5" y1="628.166" y2="628.166"/></g><!--class Element_atrribute--><g id="elem_Element_atrribute"><rect fill="#F1F1F1" height="48" id="Element_atrribute" rx="2.5" ry="2.5" style="stroke:#181818;stroke-width:0.5;" width="153" x="830.5" y="588.166"/><ellipse cx="845.5" cy="604.166" fill="#ADD1B2" rx="11" ry="11" style="stroke:#181818;stroke-width:1.0;"/><path d="M845.6094,599.6973 Q844.6875,599.6973 843.9531,600.0098 Q843.2344,600.3223 842.7344,600.916 Q842.2344,601.4941 841.9531,602.3691 Q841.6875,603.2441 841.6875,604.3379 Q841.6875,605.7754 842.125,606.8223 Q842.5781,607.8691 843.4219,608.416 Q844.2813,608.9629 845.5938,608.9629 Q846.375,608.9629 847.0625,608.8379 Q847.7656,608.6973 848.7656,608.3848 L848.7656,610.2598 Q847.9063,610.5879 847.1406,610.7129 Q846.3906,610.8379 845.375,610.8379 Q843.4531,610.8379 842.1406,610.041 Q840.8438,609.2285 840.1875,607.7598 Q839.5313,606.2754 839.5313,604.3066 Q839.5313,602.8848 839.9219,601.7129 Q840.3281,600.5254 841.1094,599.6504 Q841.8906,598.7754 843.0313,598.3066 Q844.1719,597.8223 845.6406,597.8223 Q846.5938,597.8223 847.4844,598.0254 Q848.3906,598.2129 849.3281,598.6816 L848.5,600.4629 Q847.7188,600.0879 847.0625,599.9004 Q846.4063,599.6973 845.6094,599.6973 Z " fill="#000000"/><text fill="#000000" font-family="sans-serif" font-size="14" lengthAdjust="spacing" textLength="121" x="859.5" y="609.598">Element_atrribute</text><line style="stroke:#181818;stroke-width:0.5;" x1="831.5" x2="982.5" y1="620.166" y2="620.166"/><line style="stroke:#181818;stroke-width:0.5;" x1="831.5" x2="982.5" y1="628.166" y2="628.166"/></g><!--class RHI_device--><g id="elem_RHI_device"><rect fill="#F1F1F1" height="48" id="RHI_device" rx="2.5" ry="2.5" style="stroke:#181818;stroke-width:0.5;" width="105" x="1018.5" y="588.166"/><ellipse cx="1033.5" cy="604.166" fill="#ADD1B2" rx="11" ry="11" style="stroke:#181818;stroke-width:1.0;"/><path d="M1033.6094,599.6973 Q1032.6875,599.6973 1031.9531,600.0098 Q1031.2344,600.3223 1030.7344,600.916 Q1030.2344,601.4941 1029.9531,602.3691 Q1029.6875,603.2441 1029.6875,604.3379 Q1029.6875,605.7754 1030.125,606.8223 Q1030.5781,607.8691 1031.4219,608.416 Q1032.2813,608.9629 1033.5938,608.9629 Q1034.375,608.9629 1035.0625,608.8379 Q1035.7656,608.6973 1036.7656,608.3848 L1036.7656,610.2598 Q1035.9063,610.5879 1035.1406,610.7129 Q1034.3906,610.8379 1033.375,610.8379 Q1031.4531,610.8379 1030.1406,610.041 Q1028.8438,609.2285 1028.1875,607.7598 Q1027.5313,606.2754 1027.5313,604.3066 Q1027.5313,602.8848 1027.9219,601.7129 Q1028.3281,600.5254 1029.1094,599.6504 Q1029.8906,598.7754 1031.0313,598.3066 Q1032.1719,597.8223 1033.6406,597.8223 Q1034.5938,597.8223 1035.4844,598.0254 Q1036.3906,598.2129 1037.3281,598.6816 L1036.5,600.4629 Q1035.7188,600.0879 1035.0625,599.9004 Q1034.4063,599.6973 1033.6094,599.6973 Z " fill="#000000"/><text fill="#000000" font-family="sans-serif" font-size="14" lengthAdjust="spacing" textLength="73" x="1047.5" y="609.598">RHI_device</text><line style="stroke:#181818;stroke-width:0.5;" x1="1019.5" x2="1122.5" y1="620.166" y2="620.166"/><line style="stroke:#181818;stroke-width:0.5;" x1="1019.5" x2="1122.5" y1="628.166" y2="628.166"/></g><!--class Position_attribute--><g id="elem_Position_attribute"><rect fill="#F1F1F1" height="48" id="Position_attribute" rx="2.5" ry="2.5" style="stroke:#181818;stroke-width:0.5;" width="150" x="1158" y="588.166"/><ellipse cx="1173" cy="604.166" fill="#ADD1B2" rx="11" ry="11" style="stroke:#181818;stroke-width:1.0;"/><path d="M1173.1094,599.6973 Q1172.1875,599.6973 1171.4531,600.0098 Q1170.7344,600.3223 1170.2344,600.916 Q1169.7344,601.4941 1169.4531,602.3691 Q1169.1875,603.2441 1169.1875,604.3379 Q1169.1875,605.7754 1169.625,606.8223 Q1170.0781,607.8691 1170.9219,608.416 Q1171.7813,608.9629 1173.0938,608.9629 Q1173.875,608.9629 1174.5625,608.8379 Q1175.2656,608.6973 1176.2656,608.3848 L1176.2656,610.2598 Q1175.4063,610.5879 1174.6406,610.7129 Q1173.8906,610.8379 1172.875,610.8379 Q1170.9531,610.8379 1169.6406,610.041 Q1168.3438,609.2285 1167.6875,607.7598 Q1167.0313,606.2754 1167.0313,604.3066 Q1167.0313,602.8848 1167.4219,601.7129 Q1167.8281,600.5254 1168.6094,599.6504 Q1169.3906,598.7754 1170.5313,598.3066 Q1171.6719,597.8223 1173.1406,597.8223 Q1174.0938,597.8223 1174.9844,598.0254 Q1175.8906,598.2129 1176.8281,598.6816 L1176,600.4629 Q1175.2188,600.0879 1174.5625,599.9004 Q1173.9063,599.6973 1173.1094,599.6973 Z " fill="#000000"/><text fill="#000000" font-family="sans-serif" font-size="14" lengthAdjust="spacing" textLength="118" x="1187" y="609.598">Position_attribute</text><line style="stroke:#181818;stroke-width:0.5;" x1="1159" x2="1307" y1="620.166" y2="620.166"/><line style="stroke:#181818;stroke-width:0.5;" x1="1159" x2="1307" y1="628.166" y2="628.166"/></g><!--reverse link RHI_linker_T to RHI_geometry--><g id="link_RHI_linker_T_RHI_geometry"><path d="M345.9853,129.9744 C304.2653,186.4544 249.51,260.596 214.32,308.236 " fill="none" id="RHI_linker_T-backto-RHI_geometry" style="stroke:#181818;stroke-width:1.0;"/><polygon fill="none" points="356.68,115.496,341.1592,126.4095,350.8114,133.5393,356.68,115.496" style="stroke:#181818;stroke-width:1.0;"/></g><!--reverse link Render_object to Geometry--><g id="link_Render_object_Geometry"><path d="M807,104.806 C807,129.296 807,152.096 807,193.926 " fill="none" id="Render_object-backto-Geometry" style="stroke:#181818;stroke-width:1.0;"/><polygon fill="none" points="807,86.806,801,104.806,813,104.806,807,86.806" style="stroke:#181818;stroke-width:1.0;"/></g><!--reverse link RHI_linker_T to Geometry--><g id="link_RHI_linker_T_Geometry"><path codeLine="47" d="M486.9393,125.5516 C520.3593,148.0616 546.43,165.626 588.14,193.726 " fill="none" id="RHI_linker_T-backto-Geometry" style="stroke:#181818;stroke-width:1.0;"/><polygon fill="none" points="472.01,115.496,483.5874,130.5281,490.2912,120.5752,472.01,115.496" style="stroke:#181818;stroke-width:1.0;"/><text fill="#000000" font-family="sans-serif" font-size="13" lengthAdjust="spacing" textLength="101" x="541.02" y="160.113">&lt;RHI_geometry&gt;</text></g><!--reverse link Geometry to Vertex_attribute_base--><g id="link_Geometry_Vertex_attribute_base"><path codeLine="52" d="M747.835,501.7389 C733.675,539.6889 724.24,564.956 715.76,587.686 " fill="none" id="Geometry-backto-Vertex_attribute_base" style="stroke:#181818;stroke-width:1.0;"/><polygon fill="none" points="752.03,490.496,746.1849,494.7191,747.835,501.7389,753.6801,497.5158,752.03,490.496" style="stroke:#181818;stroke-width:1.0;"/><text fill="#000000" font-family="sans-serif" font-size="13" lengthAdjust="spacing" textLength="20" x="740.35" y="534.993">0..*</text><text fill="#000000" font-family="sans-serif" font-size="13" lengthAdjust="spacing" textLength="121" x="584.8971" y="558.6199">m_vertex_attributes</text><text fill="#000000" font-family="sans-serif" font-size="13" lengthAdjust="spacing" textLength="77" x="606.8971" y="576.3259">(shader_slot)</text></g><!--reverse link Geometry to Element_atrribute--><g id="link_Geometry_Element_atrribute"><path codeLine="53" d="M866.165,501.7389 C880.325,539.6889 889.76,564.956 898.24,587.686 " fill="none" id="Geometry-backto-Element_atrribute" style="stroke:#181818;stroke-width:1.0;"/><polygon fill="none" points="861.97,490.496,860.3199,497.5158,866.165,501.7389,867.8151,494.7191,861.97,490.496" style="stroke:#181818;stroke-width:1.0;"/><text fill="#000000" font-family="sans-serif" font-size="13" lengthAdjust="spacing" textLength="20" x="878.45" y="534.993">0..1</text><text fill="#000000" font-family="sans-serif" font-size="13" lengthAdjust="spacing" textLength="126" x="803.1821" y="576.3132">m_element_attribute</text></g><!--link Geometry to RHI_device--><g id="link_Geometry_RHI_device"><path codeLine="55" d="M952.13,490.496 C989.51,528.446 1021.2694,560.6815 1043.6594,583.4115 " fill="none" id="Geometry-to-RHI_device" style="stroke:#181818;stroke-width:1.0;stroke-dasharray:7.0,7.0;"/><polygon fill="#181818" points="1047.87,587.686,1044.4038,578.4673,1044.3612,584.1239,1038.7045,584.0813,1047.87,587.686" style="stroke:#181818;stroke-width:1.0;"/><text fill="#000000" font-family="sans-serif" font-size="13" lengthAdjust="spacing" textLength="102" x="993.99" y="534.993">uses during link()</text></g><!--link Geometry to BoundingBox--><g id="link_Geometry_BoundingBox"><path codeLine="56" d="M445.28,490.496 C374.95,519.136 312.1972,544.7037 258.9172,566.3937 " fill="none" id="Geometry-to-BoundingBox" style="stroke:#181818;stroke-width:1.0;stroke-dasharray:7.0,7.0;"/><polygon fill="#181818" points="253.36,568.656,263.2039,568.9674,257.991,566.7708,260.1875,561.5578,253.36,568.656" style="stroke:#181818;stroke-width:1.0;"/><text fill="#000000" font-family="sans-serif" font-size="13" lengthAdjust="spacing" textLength="92" x="362.83" y="534.993">creates/returns</text></g><!--link Geometry to BoundingSphere--><g id="link_Geometry_BoundingSphere"><path codeLine="57" d="M613.49,490.496 C575.79,519.196 543.9434,543.4408 515.4234,565.1608 " fill="none" id="Geometry-to-BoundingSphere" style="stroke:#181818;stroke-width:1.0;stroke-dasharray:7.0,7.0;"/><polygon fill="#181818" points="510.65,568.796,520.2335,566.5254,514.6278,565.7666,515.3865,560.1609,510.65,568.796" style="stroke:#181818;stroke-width:1.0;"/><text fill="#000000" font-family="sans-serif" font-size="13" lengthAdjust="spacing" textLength="92" x="569.86" y="534.993">creates/returns</text></g><!--link Geometry to Position_attribute--><g id="link_Geometry_Position_attribute"><path codeLine="58" d="M1058.31,490.356 C1074.2,500.286 1089.87,510.256 1105,520.096 C1138.71,542.046 1171.2378,565.3793 1196.8478,584.2293 " fill="none" id="Geometry-to-Position_attribute" style="stroke:#181818;stroke-width:1.0;stroke-dasharray:7.0,7.0;"/><polygon fill="#181818" points="1201.68,587.786,1196.8028,579.2295,1197.6532,584.8221,1192.0606,585.6725,1201.68,587.786" style="stroke:#181818;stroke-width:1.0;"/><text fill="#000000" font-family="sans-serif" font-size="13" lengthAdjust="spacing" textLength="176" x="1131" y="534.993">uses in compute_bounding_*</text></g><!--SRC=[hLLTRzCm57tFhxWA3qt6Ma2yHLKb1cCW3PZOs0kWo8rlMqDYHxRJ5PNzTwwTj4dJIgqczj0rxhdd7f_xaG7Sv4pQRv-kuMtEZ85tWiqrAs2cD5oXAj3gFy0a1uqviyWXKqMf94fhWa18Yth6CeIl7pwcymqSLnObD_um5_8twlGErW70SrYpgR6QPVOH3A5JlH3Rk9G-5uf7SV0O10CO3eUE0Quz0qGphGeeDIw5gWp9eDmh6pjOi265pDyXR1EFxoOXi5qfTERLF0ENNQDHbQOh973d9JfOn2cDFtE1zKDCJqibk0VDqQRTw2ZsyLlX5wgINCWvtAkyAX1khQuoQo3wZ0-rPkDFji0BjMeiAeHCIqNM4kCiLyn-V_qJ1d2vOaMP8nHOJ57NIBOw0KcQUhbkomLgRD9bw8fuD9TcN93j3Gpexr2YfcfKVJ9QJN-XoyeCDitLthvNiTs8TKkrRS6M0Dwhh38rJHrzjTTuFJg08HJf4ZMrJCgirM9QMNItCPOdIIML9Zpoj63bcFmyhy_DWhd3qkhnVIysdTAj9fE66NCioCRsvmrpX-5oYz4rPX9uOpVYeuwy_w3i79meVtoIc3Xm5NsJPMYC8W5k_ZjEPQhAEKmH6EUq17p_u6W-yeFGDpOokR89aDoulkFQM6P5zWYPHkOagfKVcBwiZHUJWr4bRIfyGfoX_oYV7kwdvKXWBv9sf2z5Ct3-mgKomWebNN5lck-jPuw-imkEy3MQJgUiHpuuQS5H7toXach1SNTn9edxHiEvizZ7Vxjpci2u-ouWPzgjG2yG9tOXIhFxVd6Zl7rGX0qFJEiF6P7rRgvTUyKX7Eny4X2-78tEmZt2lI4DOMyCckXNOT26ZqQJZac4g0pvmYljrhltCju5TrTwqdIHUQ7HLbgQmz1c8nz1xvTueqR8_Huv2_u1]--></g></svg>