<svg xmlns="http://www.w3.org/2000/svg" xmlns:xlink="http://www.w3.org/1999/xlink" contentStyleType="text/css" data-diagram-type="CLASS" height="466px" preserveAspectRatio="none" style="width:1875px;height:466px;background:#FFFFFF;" version="1.1" viewBox="0 0 1875 466" width="1875px" zoomAndPan="magnify"><title>image loader class diagram</title><defs/><g><text fill="#000000" font-family="sans-serif" font-size="14" font-weight="bold" lengthAdjust="spacing" textLength="191.2778" x="835.2649" y="24.9659">image loader class diagram</text><!--class C_0006040600221558325913--><g class="entity" data-entity="C_0006040600221558325913" data-source-line="3" data-uid="ent0002" id="entity_C_0006040600221558325913"><rect fill="#F1F1F1" height="124.2717" rx="2.5" ry="2.5" style="stroke:#181818;stroke-width:0.5;" width="125.4777" x="1743.33" y="143.7179"/><ellipse cx="1758.33" cy="159.7179" fill="#EB937F" rx="11" ry="11" style="stroke:#181818;stroke-width:1;"/><path d="M1761.7988,166.2179 L1754.4863,166.2179 L1754.4863,153.546 L1761.7988,153.546 L1761.7988,155.421 L1756.5331,155.421 L1756.5331,158.6867 L1761.4863,158.6867 L1761.4863,160.546 L1756.5331,160.546 L1756.5331,164.3429 L1761.7988,164.3429 L1761.7988,166.2179 Z " fill="#000000"/><text fill="#000000" font-family="sans-serif" font-size="14" lengthAdjust="spacing" textLength="93.4777" x="1772.33" y="165.1499">Image_format</text><line style="stroke:#181818;stroke-width:0.5;" x1="1744.33" x2="1867.8077" y1="175.7179" y2="175.7179"/><text fill="#000000" font-family="sans-serif" font-size="14" lengthAdjust="spacing" textLength="27.9999" x="1749.33" y="194.6839">RGB</text><text fill="#000000" font-family="sans-serif" font-size="14" lengthAdjust="spacing" textLength="35.7699" x="1749.33" y="213.7518">GRAY</text><text fill="#000000" font-family="sans-serif" font-size="14" lengthAdjust="spacing" textLength="78.2877" x="1749.33" y="232.8197">RGB_ALPHA</text><text fill="#000000" font-family="sans-serif" font-size="14" lengthAdjust="spacing" textLength="86.0577" x="1749.33" y="251.8876">GRAY_ALPHA</text><line style="stroke:#181818;stroke-width:0.5;" x1="1744.33" x2="1867.8077" y1="259.9896" y2="259.9896"/></g><!--class C_0013325158447238405943--><g class="entity" data-entity="C_0013325158447238405943" data-source-line="10" data-uid="ent0003" id="entity_C_0013325158447238405943"><rect fill="#F1F1F1" height="303.8829" rx="2.5" ry="2.5" style="stroke:#181818;stroke-width:0.5;" width="713.2855" x="970.04" y="155.9179"/><ellipse cx="1301.3348" cy="171.9179" fill="#ADD1B2" rx="11" ry="11" style="stroke:#181818;stroke-width:1;"/><path d="M1301.4442,167.4492 Q1300.5223,167.4492 1299.7879,167.7617 Q1299.0692,168.0742 1298.5692,168.6679 Q1298.0692,169.246 1297.7879,170.121 Q1297.5223,170.996 1297.5223,172.0898 Q1297.5223,173.5273 1297.9598,174.5742 Q1298.4129,175.621 1299.2567,176.1679 Q1300.1161,176.7148 1301.4286,176.7148 Q1302.2098,176.7148 1302.8973,176.5898 Q1303.6004,176.4492 1304.6004,176.1367 L1304.6004,178.0117 Q1303.7411,178.3398 1302.9754,178.4648 Q1302.2254,178.5898 1301.2098,178.5898 Q1299.2879,178.5898 1297.9754,177.7929 Q1296.6786,176.9804 1296.0223,175.5117 Q1295.3661,174.0273 1295.3661,172.0585 Q1295.3661,170.6367 1295.7567,169.4648 Q1296.1629,168.2773 1296.9442,167.4023 Q1297.7254,166.5273 1298.8661,166.0585 Q1300.0067,165.5742 1301.4754,165.5742 Q1302.4286,165.5742 1303.3192,165.7773 Q1304.2254,165.9648 1305.1629,166.4335 L1304.3348,168.2148 Q1303.5536,167.8398 1302.8973,167.6523 Q1302.2411,167.4492 1301.4442,167.4492 Z " fill="#000000"/><text fill="#000000" font-family="sans-serif" font-size="14" lengthAdjust="spacing" textLength="42.1958" x="1321.8348" y="177.3499">Image</text><line style="stroke:#181818;stroke-width:0.5;" x1="971.04" x2="1682.3255" y1="187.9179" y2="187.9179"/><ellipse cx="981.04" cy="202.9519" fill="#84BE84" rx="3" ry="3" style="stroke:#038048;stroke-width:1;"/><text fill="#000000" font-family="sans-serif" font-size="14" lengthAdjust="spacing" textLength="687.2855" x="990.04" y="206.8839">Image(Image_format format, const unsigned char * data, unsigned int data_size, bool flip_y = true) : void</text><ellipse cx="981.04" cy="222.0198" fill="#84BE84" rx="3" ry="3" style="stroke:#038048;stroke-width:1;"/><text fill="#000000" font-family="sans-serif" font-size="14" lengthAdjust="spacing" textLength="509.1082" x="990.04" y="225.9518">Image(Image_format format, const std::string &amp; path, bool flip_y = true) : void</text><ellipse cx="981.04" cy="241.0877" fill="#84BE84" rx="3" ry="3" style="stroke:#038048;stroke-width:1;"/><text fill="#000000" font-family="sans-serif" font-size="14" lengthAdjust="spacing" textLength="97.4396" x="990.04" y="245.0197">~Image() : void</text><line style="stroke:#181818;stroke-width:1;stroke-dasharray:1.0,2.0;" x1="971.04" x2="1682.3255" y1="253.1217" y2="253.1217"/><ellipse cx="981.04" cy="268.1556" fill="#84BE84" rx="3" ry="3" style="stroke:#038048;stroke-width:1;"/><text fill="#000000" font-family="sans-serif" font-size="14" lengthAdjust="spacing" textLength="134.7355" x="990.04" y="272.0876">channels() const : int</text><ellipse cx="981.04" cy="287.2235" fill="#84BE84" rx="3" ry="3" style="stroke:#038048;stroke-width:1;"/><text fill="#000000" font-family="sans-serif" font-size="14" lengthAdjust="spacing" textLength="258.341" x="990.04" y="291.1555">data_ptr() const : const unsigned char *</text><ellipse cx="981.04" cy="306.2915" fill="#84BE84" rx="3" ry="3" style="stroke:#038048;stroke-width:1;"/><text fill="#000000" font-family="sans-serif" font-size="14" lengthAdjust="spacing" textLength="136.3735" x="990.04" y="310.2234">data_size() const : int</text><ellipse cx="981.04" cy="325.3594" fill="#84BE84" rx="3" ry="3" style="stroke:#038048;stroke-width:1;"/><text fill="#000000" font-family="sans-serif" font-size="14" lengthAdjust="spacing" textLength="118.4675" x="990.04" y="329.2914">height() const : int</text><ellipse cx="981.04" cy="344.4273" fill="#84BE84" rx="3" ry="3" style="stroke:#038048;stroke-width:1;"/><text fill="#000000" font-family="sans-serif" font-size="14" lengthAdjust="spacing" textLength="112.9236" x="990.04" y="348.3593">width() const : int</text><line style="stroke:#181818;stroke-width:0.5;" x1="971.04" x2="1682.3255" y1="356.4613" y2="356.4613"/><polygon fill="none" points="981.04,366.4952,985.04,370.4952,981.04,374.4952,977.04,370.4952" style="stroke:#B38D22;stroke-width:1;"/><text fill="#000000" font-family="sans-serif" font-size="14" lengthAdjust="spacing" textLength="106.3996" x="990.04" y="375.4272">m_channels : int</text><polygon fill="none" points="981.04,385.5631,985.04,389.5631,981.04,393.5631,977.04,389.5631" style="stroke:#B38D22;stroke-width:1;"/><text fill="#000000" font-family="sans-serif" font-size="14" lengthAdjust="spacing" textLength="204.3432" x="990.04" y="394.4951">m_data : const unsigned char *</text><polygon fill="none" points="981.04,404.631,985.04,408.631,981.04,412.631,977.04,408.631" style="stroke:#B38D22;stroke-width:1;"/><text fill="#000000" font-family="sans-serif" font-size="14" lengthAdjust="spacing" textLength="173.0673" x="990.04" y="413.563">m_data_size : unsigned int</text><polygon fill="none" points="981.04,423.699,985.04,427.699,981.04,431.699,977.04,427.699" style="stroke:#B38D22;stroke-width:1;"/><text fill="#000000" font-family="sans-serif" font-size="14" lengthAdjust="spacing" textLength="90.1316" x="990.04" y="432.6309">m_height : int</text><polygon fill="none" points="981.04,442.7669,985.04,446.7669,981.04,450.7669,977.04,446.7669" style="stroke:#B38D22;stroke-width:1;"/><text fill="#000000" font-family="sans-serif" font-size="14" lengthAdjust="spacing" textLength="84.5877" x="990.04" y="451.6989">m_width : int</text></g><!--class C_0013284035013791430036--><g class="entity" data-entity="C_0013284035013791430036" data-source-line="28" data-uid="ent0004" id="entity_C_0013284035013791430036"><rect fill="#F1F1F1" height="86.1358" rx="2.5" ry="2.5" style="stroke:#181818;stroke-width:0.5;" width="903.041" x="7" y="162.7879"/><ellipse cx="408.9527" cy="178.7879" fill="#ADD1B2" rx="11" ry="11" style="stroke:#181818;stroke-width:1;"/><path d="M409.062,174.3192 Q408.1402,174.3192 407.4058,174.6317 Q406.687,174.9442 406.187,175.5379 Q405.687,176.116 405.4058,176.991 Q405.1402,177.866 405.1402,178.9598 Q405.1402,180.3973 405.5777,181.4442 Q406.0308,182.491 406.8745,183.0379 Q407.7339,183.5848 409.0464,183.5848 Q409.8277,183.5848 410.5152,183.4598 Q411.2183,183.3192 412.2183,183.0067 L412.2183,184.8817 Q411.3589,185.2098 410.5933,185.3348 Q409.8433,185.4598 408.8277,185.4598 Q406.9058,185.4598 405.5933,184.6629 Q404.2964,183.8504 403.6402,182.3817 Q402.9839,180.8973 402.9839,178.9285 Q402.9839,177.5067 403.3745,176.3348 Q403.7808,175.1473 404.562,174.2723 Q405.3433,173.3973 406.4839,172.9285 Q407.6245,172.4442 409.0933,172.4442 Q410.0464,172.4442 410.937,172.6473 Q411.8433,172.8348 412.7808,173.3035 L411.9527,175.0848 Q411.1714,174.7098 410.5152,174.5223 Q409.8589,174.3192 409.062,174.3192 Z " fill="#000000"/><text fill="#000000" font-family="sans-serif" font-size="14" lengthAdjust="spacing" textLength="90.6357" x="429.4527" y="184.2199">Image_loader</text><line style="stroke:#181818;stroke-width:0.5;" x1="8" x2="909.041" y1="194.7879" y2="194.7879"/><ellipse cx="18" cy="209.8219" fill="#84BE84" rx="3" ry="3" style="stroke:#038048;stroke-width:1;"/><text fill="#000000" font-family="sans-serif" font-size="14" lengthAdjust="spacing" text-decoration="underline" textLength="877.041" x="27" y="213.7539">load_from_data(Image_format format, const unsigned char * data, unsigned int data_size, bool flip_y = true) : std::shared_ptr&lt;Image&gt;</text><ellipse cx="18" cy="228.8898" fill="#84BE84" rx="3" ry="3" style="stroke:#038048;stroke-width:1;"/><text fill="#000000" font-family="sans-serif" font-size="14" lengthAdjust="spacing" text-decoration="underline" textLength="699.6615" x="27" y="232.8218">load_from_path(Image_format format, const std::string &amp; path, bool flip_y = true) : std::shared_ptr&lt;Image&gt;</text><line style="stroke:#181818;stroke-width:0.5;" x1="8" x2="909.041" y1="240.9238" y2="240.9238"/></g><!--link C_0013325158447238405943 to C_0006040600221558325913--><g class="link" data-entity-1="C_0013325158447238405943" data-entity-2="C_0006040600221558325913" data-source-line="34" data-uid="lnk5" id="link_C_0013325158447238405943_C_0006040600221558325913"><path codeLine="34" d="M1683.68,231.7979 C1705.54,227.1179 1719.7927,224.0828 1737.0927,220.3828" fill="none" id="C_0013325158447238405943-to-C_0006040600221558325913" style="stroke:#181818;stroke-width:1;stroke-dasharray:7.0,7.0;"/><polygon fill="#181818" points="1742.96,219.1279,1733.3225,217.0987,1738.0706,220.1736,1734.9956,224.9217,1742.96,219.1279" style="stroke:#181818;stroke-width:1;"/></g><!--link C_0013284035013791430036 to C_0006040600221558325913--><g class="link" data-entity-1="C_0013284035013791430036" data-entity-2="C_0006040600221558325913" data-source-line="35" data-uid="lnk6" id="link_C_0013284035013791430036_C_0006040600221558325913"><path codeLine="35" d="M640.45,162.3079 C882.27,111.6479 1322.29,46.0679 1683.33,138.8579 C1703.77,144.1079 1719.2161,150.6821 1737.5961,160.9021" fill="none" id="C_0013284035013791430036-to-C_0006040600221558325913" style="stroke:#181818;stroke-width:1;stroke-dasharray:7.0,7.0;"/><polygon fill="#181818" points="1742.84,163.8179,1736.9181,155.9483,1738.4701,161.3881,1733.0303,162.9401,1742.84,163.8179" style="stroke:#181818;stroke-width:1;"/></g><!--link C_0013284035013791430036 to C_0013325158447238405943--><g class="link" data-entity-1="C_0013284035013791430036" data-entity-2="C_0013325158447238405943" data-source-line="36" data-uid="lnk7" id="link_C_0013284035013791430036_C_0013325158447238405943"><path codeLine="36" d="M829.36,249.4079 C875.92,254.8879 917.5112,259.7857 963.8412,265.2457" fill="none" id="C_0013284035013791430036-to-C_0013325158447238405943" style="stroke:#181818;stroke-width:1;stroke-dasharray:7.0,7.0;"/><polygon fill="#181818" points="969.8,265.9479,961.33,260.922,964.8344,265.3627,960.3937,268.8671,969.8,265.9479" style="stroke:#181818;stroke-width:1;"/></g><!--SRC=[jLHTQzim57tNhxXqiBPBOYn_v8kja0sM3J8OVHZiIIYMx0XiAKXAorRItpx9yj8qYyTWsuEnxhcwvrph7jaAMtCG3Qqur8eohg6egJ701AqqRL3DImjMWHRLnZfKyy8A9H6NkmOkFlf2KYhTK7i1rC0x4iVnECxS4oS9plDfckGpd8RzVLbuGBVBjsXvk_Zg5sIn-lnXqORTSez2Lq7me8HJLu_pQPPDadIQnVaiIxkTVMadDMX9hevxX_0QGg6aiR2JHbIICoWsLCChODJIuHCgf6qXOiHtFeIrKZMKjTYIR_06hDxnQvZ3dHBi3wICPVEviLh82bx2bjhDxmaV0-C1Y28qS5rAoMlZq40wzosYGTlZrkeZ_EptTJlzrvnIRBYV-obwBvZTd824e1SD-TbA1ph4K_SAT_bMscqwFc6V2-fFNArk5pwt10dcFN96uWQUvcuncU4iZUDq_CmPlwQTCnwCfLOKUnXuEb9g5Vhxtru99d3rdFbvlMxbRiwsuntoR_pK8-hck4UzjoUARlhlUE_9_btLsLkEBfTSSasjE-DxuLpXXYkhqQwfXt37jN7_A8YZSOH7E1zLwp9Rbwn0bwlLbq-7V5joYF0imj44hjvpfZJjmb4QbKM6hty0]--></g></svg>