<svg xmlns="http://www.w3.org/2000/svg" xmlns:xlink="http://www.w3.org/1999/xlink" contentStyleType="text/css" data-diagram-type="CLASS" height="688px" preserveAspectRatio="none" style="width:1027px;height:688px;background:#FFFFFF;" version="1.1" viewBox="0 0 1027 688" width="1027px" zoomAndPan="magnify"><title>image loader class diagram</title><defs/><g><text fill="#000000" font-family="sans-serif" font-size="14" font-weight="bold" lengthAdjust="spacing" textLength="191.2778" x="410.9438" y="24.9659">image loader class diagram</text><!--class C_0006040600221558325913--><g class="entity" data-entity="C_0006040600221558325913" data-source-line="2" data-uid="ent0002" id="entity_C_0006040600221558325913"><rect fill="#F1F1F1" height="124.2717" rx="2.5" ry="2.5" style="stroke:#181818;stroke-width:0.5;" width="125.4777" x="395.78" y="557.0879"/><ellipse cx="410.78" cy="573.0879" fill="#EB937F" rx="11" ry="11" style="stroke:#181818;stroke-width:1;"/><path d="M414.2488,579.5879 L406.9363,579.5879 L406.9363,566.916 L414.2488,566.916 L414.2488,568.791 L408.9831,568.791 L408.9831,572.0567 L413.9363,572.0567 L413.9363,573.916 L408.9831,573.916 L408.9831,577.7129 L414.2488,577.7129 L414.2488,579.5879 Z " fill="#000000"/><text fill="#000000" font-family="sans-serif" font-size="14" lengthAdjust="spacing" textLength="93.4777" x="424.78" y="578.5199">Image_format</text><line style="stroke:#181818;stroke-width:0.5;" x1="396.78" x2="520.2577" y1="589.0879" y2="589.0879"/><text fill="#000000" font-family="sans-serif" font-size="14" lengthAdjust="spacing" textLength="27.9999" x="401.78" y="608.0539">RGB</text><text fill="#000000" font-family="sans-serif" font-size="14" lengthAdjust="spacing" textLength="35.7699" x="401.78" y="627.1218">GRAY</text><text fill="#000000" font-family="sans-serif" font-size="14" lengthAdjust="spacing" textLength="78.2877" x="401.78" y="646.1897">RGB_ALPHA</text><text fill="#000000" font-family="sans-serif" font-size="14" lengthAdjust="spacing" textLength="86.0577" x="401.78" y="665.2576">GRAY_ALPHA</text><line style="stroke:#181818;stroke-width:0.5;" x1="396.78" x2="520.2577" y1="673.3596" y2="673.3596"/></g><!--class C_0013325158447238405943--><g class="entity" data-entity="C_0013325158447238405943" data-source-line="9" data-uid="ent0003" id="entity_C_0013325158447238405943"><rect fill="#F1F1F1" height="303.8829" rx="2.5" ry="2.5" style="stroke:#181818;stroke-width:0.5;" width="713.2855" x="306.88" y="193.2079"/><ellipse cx="638.1748" cy="209.2079" fill="#ADD1B2" rx="11" ry="11" style="stroke:#181818;stroke-width:1;"/><path d="M638.2842,204.7392 Q637.3623,204.7392 636.6279,205.0517 Q635.9092,205.3642 635.4092,205.9579 Q634.9092,206.536 634.6279,207.411 Q634.3623,208.286 634.3623,209.3798 Q634.3623,210.8173 634.7998,211.8642 Q635.2529,212.911 636.0967,213.4579 Q636.9561,214.0048 638.2686,214.0048 Q639.0498,214.0048 639.7373,213.8798 Q640.4404,213.7392 641.4404,213.4267 L641.4404,215.3017 Q640.5811,215.6298 639.8154,215.7548 Q639.0654,215.8798 638.0498,215.8798 Q636.1279,215.8798 634.8154,215.0829 Q633.5186,214.2704 632.8623,212.8017 Q632.2061,211.3173 632.2061,209.3485 Q632.2061,207.9267 632.5967,206.7548 Q633.0029,205.5673 633.7842,204.6923 Q634.5654,203.8173 635.7061,203.3485 Q636.8467,202.8642 638.3154,202.8642 Q639.2686,202.8642 640.1592,203.0673 Q641.0654,203.2548 642.0029,203.7235 L641.1748,205.5048 Q640.3936,205.1298 639.7373,204.9423 Q639.0811,204.7392 638.2842,204.7392 Z " fill="#000000"/><text fill="#000000" font-family="sans-serif" font-size="14" lengthAdjust="spacing" textLength="42.1958" x="658.6748" y="214.6399">Image</text><line style="stroke:#181818;stroke-width:0.5;" x1="307.88" x2="1019.1655" y1="225.2079" y2="225.2079"/><ellipse cx="317.88" cy="240.2419" fill="#84BE84" rx="3" ry="3" style="stroke:#038048;stroke-width:1;"/><text fill="#000000" font-family="sans-serif" font-size="14" lengthAdjust="spacing" textLength="687.2855" x="326.88" y="244.1739">Image(Image_format format, const unsigned char * data, unsigned int data_size, bool flip_y = true) : void</text><ellipse cx="317.88" cy="259.3098" fill="#84BE84" rx="3" ry="3" style="stroke:#038048;stroke-width:1;"/><text fill="#000000" font-family="sans-serif" font-size="14" lengthAdjust="spacing" textLength="509.1082" x="326.88" y="263.2418">Image(Image_format format, const std::string &amp; path, bool flip_y = true) : void</text><ellipse cx="317.88" cy="278.3777" fill="#84BE84" rx="3" ry="3" style="stroke:#038048;stroke-width:1;"/><text fill="#000000" font-family="sans-serif" font-size="14" lengthAdjust="spacing" textLength="97.4396" x="326.88" y="282.3097">~Image() : void</text><line style="stroke:#181818;stroke-width:1;stroke-dasharray:1.0,2.0;" x1="307.88" x2="1019.1655" y1="290.4117" y2="290.4117"/><ellipse cx="317.88" cy="305.4456" fill="#84BE84" rx="3" ry="3" style="stroke:#038048;stroke-width:1;"/><text fill="#000000" font-family="sans-serif" font-size="14" lengthAdjust="spacing" textLength="134.7355" x="326.88" y="309.3776">channels() const : int</text><ellipse cx="317.88" cy="324.5135" fill="#84BE84" rx="3" ry="3" style="stroke:#038048;stroke-width:1;"/><text fill="#000000" font-family="sans-serif" font-size="14" lengthAdjust="spacing" textLength="258.341" x="326.88" y="328.4455">data_ptr() const : const unsigned char *</text><ellipse cx="317.88" cy="343.5815" fill="#84BE84" rx="3" ry="3" style="stroke:#038048;stroke-width:1;"/><text fill="#000000" font-family="sans-serif" font-size="14" lengthAdjust="spacing" textLength="136.3735" x="326.88" y="347.5134">data_size() const : int</text><ellipse cx="317.88" cy="362.6494" fill="#84BE84" rx="3" ry="3" style="stroke:#038048;stroke-width:1;"/><text fill="#000000" font-family="sans-serif" font-size="14" lengthAdjust="spacing" textLength="118.4675" x="326.88" y="366.5814">height() const : int</text><ellipse cx="317.88" cy="381.7173" fill="#84BE84" rx="3" ry="3" style="stroke:#038048;stroke-width:1;"/><text fill="#000000" font-family="sans-serif" font-size="14" lengthAdjust="spacing" textLength="112.9236" x="326.88" y="385.6493">width() const : int</text><line style="stroke:#181818;stroke-width:0.5;" x1="307.88" x2="1019.1655" y1="393.7513" y2="393.7513"/><polygon fill="none" points="317.88,403.7852,321.88,407.7852,317.88,411.7852,313.88,407.7852" style="stroke:#B38D22;stroke-width:1;"/><text fill="#000000" font-family="sans-serif" font-size="14" lengthAdjust="spacing" textLength="106.3996" x="326.88" y="412.7172">m_channels : int</text><polygon fill="none" points="317.88,422.8531,321.88,426.8531,317.88,430.8531,313.88,426.8531" style="stroke:#B38D22;stroke-width:1;"/><text fill="#000000" font-family="sans-serif" font-size="14" lengthAdjust="spacing" textLength="204.3432" x="326.88" y="431.7851">m_data : const unsigned char *</text><polygon fill="none" points="317.88,441.921,321.88,445.921,317.88,449.921,313.88,445.921" style="stroke:#B38D22;stroke-width:1;"/><text fill="#000000" font-family="sans-serif" font-size="14" lengthAdjust="spacing" textLength="173.0673" x="326.88" y="450.853">m_data_size : unsigned int</text><polygon fill="none" points="317.88,460.989,321.88,464.989,317.88,468.989,313.88,464.989" style="stroke:#B38D22;stroke-width:1;"/><text fill="#000000" font-family="sans-serif" font-size="14" lengthAdjust="spacing" textLength="90.1316" x="326.88" y="469.9209">m_height : int</text><polygon fill="none" points="317.88,480.0569,321.88,484.0569,317.88,488.0569,313.88,484.0569" style="stroke:#B38D22;stroke-width:1;"/><text fill="#000000" font-family="sans-serif" font-size="14" lengthAdjust="spacing" textLength="84.5877" x="326.88" y="488.9889">m_width : int</text></g><!--class C_0013284035013791430036--><g class="entity" data-entity="C_0013284035013791430036" data-source-line="27" data-uid="ent0004" id="entity_C_0013284035013791430036"><rect fill="#F1F1F1" height="86.1358" rx="2.5" ry="2.5" style="stroke:#181818;stroke-width:0.5;" width="903.041" x="7" y="47.0679"/><ellipse cx="408.9527" cy="63.0679" fill="#ADD1B2" rx="11" ry="11" style="stroke:#181818;stroke-width:1;"/><path d="M409.062,58.5992 Q408.1402,58.5992 407.4058,58.9117 Q406.687,59.2242 406.187,59.8179 Q405.687,60.396 405.4058,61.271 Q405.1402,62.146 405.1402,63.2398 Q405.1402,64.6773 405.5777,65.7242 Q406.0308,66.771 406.8745,67.3179 Q407.7339,67.8648 409.0464,67.8648 Q409.8277,67.8648 410.5152,67.7398 Q411.2183,67.5992 412.2183,67.2867 L412.2183,69.1617 Q411.3589,69.4898 410.5933,69.6148 Q409.8433,69.7398 408.8277,69.7398 Q406.9058,69.7398 405.5933,68.9429 Q404.2964,68.1304 403.6402,66.6617 Q402.9839,65.1773 402.9839,63.2085 Q402.9839,61.7867 403.3745,60.6148 Q403.7808,59.4273 404.562,58.5523 Q405.3433,57.6773 406.4839,57.2085 Q407.6245,56.7242 409.0933,56.7242 Q410.0464,56.7242 410.937,56.9273 Q411.8433,57.1148 412.7808,57.5835 L411.9527,59.3648 Q411.1714,58.9898 410.5152,58.8023 Q409.8589,58.5992 409.062,58.5992 Z " fill="#000000"/><text fill="#000000" font-family="sans-serif" font-size="14" lengthAdjust="spacing" textLength="90.6357" x="429.4527" y="68.4999">Image_loader</text><line style="stroke:#181818;stroke-width:0.5;" x1="8" x2="909.041" y1="79.0679" y2="79.0679"/><ellipse cx="18" cy="94.1019" fill="#84BE84" rx="3" ry="3" style="stroke:#038048;stroke-width:1;"/><text fill="#000000" font-family="sans-serif" font-size="14" lengthAdjust="spacing" text-decoration="underline" textLength="877.041" x="27" y="98.0339">load_from_data(Image_format format, const unsigned char * data, unsigned int data_size, bool flip_y = true) : std::shared_ptr&lt;Image&gt;</text><ellipse cx="18" cy="113.1698" fill="#84BE84" rx="3" ry="3" style="stroke:#038048;stroke-width:1;"/><text fill="#000000" font-family="sans-serif" font-size="14" lengthAdjust="spacing" text-decoration="underline" textLength="699.6615" x="27" y="117.1018">load_from_path(Image_format format, const std::string &amp; path, bool flip_y = true) : std::shared_ptr&lt;Image&gt;</text><line style="stroke:#181818;stroke-width:0.5;" x1="8" x2="909.041" y1="125.2038" y2="125.2038"/></g><!--link C_0013325158447238405943 to C_0006040600221558325913--><g class="link" data-entity-1="C_0013325158447238405943" data-entity-2="C_0006040600221558325913" data-source-line="33" data-uid="lnk5" id="link_C_0013325158447238405943_C_0006040600221558325913"><path codeLine="33" d="M549.63,497.2979 C533.87,518.2179 522.0911,533.8563 508.5711,551.7963" fill="none" id="C_0013325158447238405943-to-C_0006040600221558325913" style="stroke:#181818;stroke-width:1;stroke-dasharray:7.0,7.0;"/><polygon fill="#181818" points="504.96,556.5879,513.5711,551.8078,507.9693,552.5949,507.1822,546.993,504.96,556.5879" style="stroke:#181818;stroke-width:1;"/></g><!--link C_0013284035013791430036 to C_0006040600221558325913--><g class="link" data-entity-1="C_0013284035013791430036" data-entity-2="C_0006040600221558325913" data-source-line="34" data-uid="lnk6" id="link_C_0013284035013791430036_C_0006040600221558325913"><path codeLine="34" d="M351.33,133.4879 C326.73,148.5179 303.67,168.1279 289.52,193.2079 C223.15,310.8279 227.82,376.9479 289.52,497.0879 C311.7,540.2779 351.9102,568.7431 390.1202,588.6731" fill="none" id="C_0013284035013791430036-to-C_0006040600221558325913" style="stroke:#181818;stroke-width:1;stroke-dasharray:7.0,7.0;"/><polygon fill="#181818" points="395.44,591.4479,389.3101,583.7392,391.0068,589.1356,385.6104,590.8323,395.44,591.4479" style="stroke:#181818;stroke-width:1;"/></g><!--link C_0013284035013791430036 to C_0013325158447238405943--><g class="link" data-entity-1="C_0013284035013791430036" data-entity-2="C_0013325158447238405943" data-source-line="35" data-uid="lnk7" id="link_C_0013284035013791430036_C_0013325158447238405943"><path codeLine="35" d="M492.83,133.4879 C506.57,150.4379 519.5117,166.417 537.0617,188.067" fill="none" id="C_0013284035013791430036-to-C_0013325158447238405943" style="stroke:#181818;stroke-width:1;stroke-dasharray:7.0,7.0;"/><polygon fill="#181818" points="540.84,192.7279,538.2799,183.2176,537.6914,188.8438,532.0653,188.2553,540.84,192.7279" style="stroke:#181818;stroke-width:1;"/></g><!--SRC=[jLDTQzim57tNhxXqiBPBOYH_v8kja0sM3Z8OVIZiIIYMR0jiEKXAorRItrxPyj8qZSTWsuEnxhdtddCb7LbfIm6oOhc0icPSQ4XBPWnmoNBDAYJKjeApBqq1pMfTCNi6pC0dYZ4UuzXzE0n9aaoZC9cHoDVtPU41tIm_ekNDudkpe8lLj-j56tRB7VBgNd2lH2BNJv9f74_2Q1hZP1P7NMLVsaaDMfABmzd1_uQGrifOs2eZSoKuf0NJy0uuispuZ4fbMuWQ-LCCOLtN9MIbtD0Vy06itefBcCDTBVaVI1dBvtDZjLGvl8KDiyNl2Hyzunu80ZHmKoebIkDGJpflHaI3TiQDrGVuoVrrbSrkZYaA8VF27gFtajlY2AGKlQdehr4wq24DTQzmbs-bNT7X2JSvh_xCrUfsuKjBK6_I0sU4xiAZn2qcCn9764VZ5yvudNREU32MMPdkOD3GqKpNVhx_xHLl0jSlU7DVxrkvgvFZD0xvDtxg4NNtk4EzhoS8hlhVUE_9_btNoLUEpfT22SsiE-DxwLpXBbVbesrL3k5EQ2Dh1JWO1sH4ab6-pk9rnbDqlbhTVjtdsvPzH6O12IPmyLdmMhCk74L1biRayWa0]--></g></svg>