<svg xmlns="http://www.w3.org/2000/svg" xmlns:xlink="http://www.w3.org/1999/xlink" contentStyleType="text/css" data-diagram-type="CLASS" height="281px" preserveAspectRatio="none" style="width:947px;height:281px;background:#FFFFFF;" version="1.1" viewBox="0 0 947 281" width="947px" zoomAndPan="magnify"><title>Text loader class diagram</title><defs/><g><text fill="#000000" font-family="sans-serif" font-size="14" font-weight="bold" lengthAdjust="spacing" textLength="177.9184" x="377.7651" y="24.9659">Text loader class diagram</text><!--class C_0001127392007066144031--><g class="entity" data-entity="C_0001127392007066144031" data-source-line="3" data-uid="ent0002" id="entity_C_0001127392007066144031"><rect fill="#F1F1F1" height="227.6113" rx="2.5" ry="2.5" style="stroke:#181818;stroke-width:0.5;" width="428.2885" x="512.16" y="47.0679"/><ellipse cx="707.9843" cy="63.0679" fill="#ADD1B2" rx="11" ry="11" style="stroke:#181818;stroke-width:1;"/><path d="M708.0937,58.5992 Q707.1718,58.5992 706.4374,58.9117 Q705.7187,59.2242 705.2187,59.8179 Q704.7187,60.396 704.4374,61.271 Q704.1718,62.146 704.1718,63.2398 Q704.1718,64.6773 704.6093,65.7242 Q705.0624,66.771 705.9062,67.3179 Q706.7656,67.8648 708.0781,67.8648 Q708.8593,67.8648 709.5468,67.7398 Q710.2499,67.5992 711.2499,67.2867 L711.2499,69.1617 Q710.3906,69.4898 709.6249,69.6148 Q708.8749,69.7398 707.8593,69.7398 Q705.9374,69.7398 704.6249,68.9429 Q703.3281,68.1304 702.6718,66.6617 Q702.0156,65.1773 702.0156,63.2085 Q702.0156,61.7867 702.4062,60.6148 Q702.8124,59.4273 703.5937,58.5523 Q704.3749,57.6773 705.5156,57.2085 Q706.6562,56.7242 708.1249,56.7242 Q709.0781,56.7242 709.9687,56.9273 Q710.8749,57.1148 711.8124,57.5835 L710.9843,59.3648 Q710.2031,58.9898 709.5468,58.8023 Q708.8906,58.5992 708.0937,58.5992 Z " fill="#000000"/><text fill="#000000" font-family="sans-serif" font-size="14" lengthAdjust="spacing" textLength="28.1399" x="728.4843" y="68.4999">Text</text><line style="stroke:#181818;stroke-width:0.5;" x1="513.16" x2="939.4485" y1="79.0679" y2="79.0679"/><ellipse cx="523.16" cy="94.1019" fill="#84BE84" rx="3" ry="3" style="stroke:#038048;stroke-width:1;"/><text fill="#000000" font-family="sans-serif" font-size="14" lengthAdjust="spacing" textLength="228.6051" x="532.16" y="98.0339">Text(const std::string &amp; path) : void</text><ellipse cx="523.16" cy="113.1698" fill="#84BE84" rx="3" ry="3" style="stroke:#038048;stroke-width:1;"/><text fill="#000000" font-family="sans-serif" font-size="14" lengthAdjust="spacing" textLength="187.9913" x="532.16" y="117.1018">Text(const char * data) : void</text><ellipse cx="523.16" cy="132.2377" fill="#84BE84" rx="3" ry="3" style="stroke:#038048;stroke-width:1;"/><text fill="#000000" font-family="sans-serif" font-size="14" lengthAdjust="spacing" textLength="214.1012" x="532.16" y="136.1697">~Text() constexpr = default : void</text><line style="stroke:#181818;stroke-width:1;stroke-dasharray:1.0,2.0;" x1="513.16" x2="939.4485" y1="144.2717" y2="144.2717"/><ellipse cx="523.16" cy="159.3056" fill="#84BE84" rx="3" ry="3" style="stroke:#038048;stroke-width:1;"/><text fill="#000000" font-family="sans-serif" font-size="14" lengthAdjust="spacing" textLength="168.7554" x="532.16" y="163.2376">c_str() const : const char *</text><ellipse cx="523.16" cy="178.3735" fill="#84BE84" rx="3" ry="3" style="stroke:#038048;stroke-width:1;"/><text fill="#000000" font-family="sans-serif" font-size="14" lengthAdjust="spacing" textLength="228.5911" x="532.16" y="182.3055">content() const : const std::string &amp;</text><ellipse cx="523.16" cy="197.4415" fill="#84BE84" rx="3" ry="3" style="stroke:#038048;stroke-width:1;"/><text fill="#000000" font-family="sans-serif" font-size="14" lengthAdjust="spacing" textLength="129.6255" x="532.16" y="201.3734">empty() const : bool</text><rect fill="#F24D5C" height="6" style="stroke:#C82930;stroke-width:1;" width="6" x="520.16" y="213.5094"/><text fill="#000000" font-family="sans-serif" font-size="14" lengthAdjust="spacing" textLength="402.2885" x="532.16" y="220.4414">load_from_file(const std::string &amp; path, std::string &amp; str) : void</text><ellipse cx="523.16" cy="235.5773" fill="#84BE84" rx="3" ry="3" style="stroke:#038048;stroke-width:1;"/><text fill="#000000" font-family="sans-serif" font-size="14" lengthAdjust="spacing" textLength="100.7856" x="532.16" y="239.5093">size() const : int</text><line style="stroke:#181818;stroke-width:0.5;" x1="513.16" x2="939.4485" y1="247.6113" y2="247.6113"/><rect fill="none" height="6" style="stroke:#C82930;stroke-width:1;" width="6" x="520.16" y="259.6452"/><text fill="#000000" font-family="sans-serif" font-size="14" lengthAdjust="spacing" textLength="122.0376" x="532.16" y="266.5772">m_text : std::string</text></g><!--class C_0002976562922246231494--><g class="entity" data-entity="C_0002976562922246231494" data-source-line="17" data-uid="ent0003" id="entity_C_0002976562922246231494"><rect fill="#F1F1F1" height="113.2038" rx="2.5" ry="2.5" style="stroke:#181818;stroke-width:0.5;" width="445.1585" x="7" y="104.2679"/><ellipse cx="187.0394" cy="120.2679" fill="#ADD1B2" rx="11" ry="11" style="stroke:#181818;stroke-width:1;"/><path d="M187.1488,115.7992 Q186.2269,115.7992 185.4925,116.1117 Q184.7738,116.4242 184.2738,117.0179 Q183.7738,117.596 183.4925,118.471 Q183.2269,119.346 183.2269,120.4398 Q183.2269,121.8773 183.6644,122.9242 Q184.1175,123.971 184.9613,124.5179 Q185.8206,125.0648 187.1331,125.0648 Q187.9144,125.0648 188.6019,124.9398 Q189.305,124.7992 190.305,124.4867 L190.305,126.3617 Q189.4456,126.6898 188.68,126.8148 Q187.93,126.9398 186.9144,126.9398 Q184.9925,126.9398 183.68,126.1429 Q182.3831,125.3304 181.7269,123.8617 Q181.0706,122.3773 181.0706,120.4085 Q181.0706,118.9867 181.4613,117.8148 Q181.8675,116.6273 182.6488,115.7523 Q183.43,114.8773 184.5706,114.4085 Q185.7113,113.9242 187.18,113.9242 Q188.1331,113.9242 189.0238,114.1273 Q189.93,114.3148 190.8675,114.7835 L190.0394,116.5648 Q189.2581,116.1898 188.6019,116.0023 Q187.9456,115.7992 187.1488,115.7992 Z " fill="#000000"/><text fill="#000000" font-family="sans-serif" font-size="14" lengthAdjust="spacing" textLength="76.5797" x="207.5394" y="125.6999">Text_loader</text><line style="stroke:#181818;stroke-width:0.5;" x1="8" x2="451.1585" y1="136.2679" y2="136.2679"/><ellipse cx="18" cy="151.3019" fill="#84BE84" rx="3" ry="3" style="stroke:#038048;stroke-width:1;"/><text fill="#000000" font-family="sans-serif" font-size="14" lengthAdjust="spacing" textLength="185.5973" x="27" y="155.2339">Text_loader() = default : void</text><ellipse cx="18" cy="170.3698" fill="#84BE84" rx="3" ry="3" style="stroke:#038048;stroke-width:1;"/><text fill="#000000" font-family="sans-serif" font-size="14" lengthAdjust="spacing" textLength="262.541" x="27" y="174.3018">~Text_loader() constexpr = default : void</text><line style="stroke:#181818;stroke-width:1;stroke-dasharray:1.0,2.0;" x1="8" x2="451.1585" y1="182.4038" y2="182.4038"/><ellipse cx="18" cy="197.4377" fill="#84BE84" rx="3" ry="3" style="stroke:#038048;stroke-width:1;"/><text fill="#000000" font-family="sans-serif" font-size="14" lengthAdjust="spacing" text-decoration="underline" textLength="419.1585" x="27" y="201.3697">load_from_path(const std::string &amp; path) : std::shared_ptr&lt;Text&gt;</text><line style="stroke:#181818;stroke-width:0.5;" x1="8" x2="451.1585" y1="209.4717" y2="209.4717"/></g><!--link C_0002976562922246231494 to C_0001127392007066144031--><g class="link" data-entity-1="C_0002976562922246231494" data-entity-2="C_0001127392007066144031" data-source-line="25" data-uid="lnk4" id="link_C_0002976562922246231494_C_0001127392007066144031"><path codeLine="25" d="M452.62,160.8679 C472.27,160.8679 486.13,160.8679 505.71,160.8679" fill="none" id="C_0002976562922246231494-to-C_0001127392007066144031" style="stroke:#181818;stroke-width:1;stroke-dasharray:7.0,7.0;"/><polygon fill="#181818" points="511.71,160.8679,502.71,156.8679,506.71,160.8679,502.71,164.8679,511.71,160.8679" style="stroke:#181818;stroke-width:1;"/></g><!--SRC=[VLBBJiCm4BpxArOSeAN4YjEGAXNqWWGNk26kbXjlKaj9NDbRdYhVJj872PHoitTcn-kP9KCbmYE-4fHMQNIGbSfxq4OLJbMin9o0B3XJBAYfEip8s9fjMITjumae3pSo34CXeiauZS9m4YQ9YEDmB7R4Op1yi56hCSXixGaywUdKapDr0QUmLBGOmXIUhT4_QDb2EJW7hKXr-EU6C8GD1L-N3gv1OwvM9UqvdBDH9XlzFQq1-eeDQcl2cWxm7uEn4LPBUkkHvjQMB6WDbBcpbSnDYKU_TF6hrXowNtZpZZrXKnEJaWMLf3QYQR-LhVifo6ryNHXHEaakaoYDeYXEeh68qxWVnX_mFeoTL3F6WODRbpl2_sP_U59aiZMCEcjQ1_vDUrjjya0jb-IksWTdhGbhTdHmpcV7Dv2TtM6DJX5gU36qQ3UyBe9LLLx0CphVh3E4FE4Y49T1CS_ZUQupTdP___JmZMzQlcyYvO9FO72BsZgrkmPZdcUn67u1]--></g></svg>