<svg xmlns="http://www.w3.org/2000/svg" xmlns:xlink="http://www.w3.org/1999/xlink" contentStyleType="text/css" data-diagram-type="CLASS" height="454px" preserveAspectRatio="none" style="width:459px;height:454px;background:#FFFFFF;" version="1.1" viewBox="0 0 459 454" width="459px" zoomAndPan="magnify"><title>Text loader class diagram</title><defs/><g><text fill="#000000" font-family="sans-serif" font-size="14" font-weight="bold" lengthAdjust="spacing" textLength="177.9184" x="133.62" y="24.9659">Text loader class diagram</text><!--class C_0001127392007066144031--><g class="entity" data-entity="C_0001127392007066144031" data-source-line="2" data-uid="ent0002" id="entity_C_0001127392007066144031"><rect fill="#F1F1F1" height="227.6113" rx="2.5" ry="2.5" style="stroke:#181818;stroke-width:0.5;" width="428.2885" x="15.43" y="220.2679"/><ellipse cx="211.2543" cy="236.2679" fill="#ADD1B2" rx="11" ry="11" style="stroke:#181818;stroke-width:1;"/><path d="M211.3637,231.7992 Q210.4418,231.7992 209.7074,232.1117 Q208.9887,232.4242 208.4887,233.0179 Q207.9887,233.596 207.7074,234.471 Q207.4418,235.346 207.4418,236.4398 Q207.4418,237.8773 207.8793,238.9242 Q208.3324,239.971 209.1762,240.5179 Q210.0356,241.0648 211.3481,241.0648 Q212.1293,241.0648 212.8168,240.9398 Q213.5199,240.7992 214.5199,240.4867 L214.5199,242.3617 Q213.6606,242.6898 212.8949,242.8148 Q212.1449,242.9398 211.1293,242.9398 Q209.2074,242.9398 207.8949,242.1429 Q206.5981,241.3304 205.9418,239.8617 Q205.2856,238.3773 205.2856,236.4085 Q205.2856,234.9867 205.6762,233.8148 Q206.0824,232.6273 206.8637,231.7523 Q207.6449,230.8773 208.7856,230.4085 Q209.9262,229.9242 211.3949,229.9242 Q212.3481,229.9242 213.2387,230.1273 Q214.1449,230.3148 215.0824,230.7835 L214.2543,232.5648 Q213.4731,232.1898 212.8168,232.0023 Q212.1606,231.7992 211.3637,231.7992 Z " fill="#000000"/><text fill="#000000" font-family="sans-serif" font-size="14" lengthAdjust="spacing" textLength="28.1399" x="231.7543" y="241.6999">Text</text><line style="stroke:#181818;stroke-width:0.5;" x1="16.43" x2="442.7185" y1="252.2679" y2="252.2679"/><ellipse cx="26.43" cy="267.3019" fill="#84BE84" rx="3" ry="3" style="stroke:#038048;stroke-width:1;"/><text fill="#000000" font-family="sans-serif" font-size="14" lengthAdjust="spacing" textLength="228.6051" x="35.43" y="271.2339">Text(const std::string &amp; path) : void</text><ellipse cx="26.43" cy="286.3698" fill="#84BE84" rx="3" ry="3" style="stroke:#038048;stroke-width:1;"/><text fill="#000000" font-family="sans-serif" font-size="14" lengthAdjust="spacing" textLength="187.9913" x="35.43" y="290.3018">Text(const char * data) : void</text><ellipse cx="26.43" cy="305.4377" fill="#84BE84" rx="3" ry="3" style="stroke:#038048;stroke-width:1;"/><text fill="#000000" font-family="sans-serif" font-size="14" lengthAdjust="spacing" textLength="214.1012" x="35.43" y="309.3697">~Text() constexpr = default : void</text><line style="stroke:#181818;stroke-width:1;stroke-dasharray:1.0,2.0;" x1="16.43" x2="442.7185" y1="317.4717" y2="317.4717"/><ellipse cx="26.43" cy="332.5056" fill="#84BE84" rx="3" ry="3" style="stroke:#038048;stroke-width:1;"/><text fill="#000000" font-family="sans-serif" font-size="14" lengthAdjust="spacing" textLength="168.7554" x="35.43" y="336.4376">c_str() const : const char *</text><ellipse cx="26.43" cy="351.5735" fill="#84BE84" rx="3" ry="3" style="stroke:#038048;stroke-width:1;"/><text fill="#000000" font-family="sans-serif" font-size="14" lengthAdjust="spacing" textLength="228.5911" x="35.43" y="355.5055">content() const : const std::string &amp;</text><ellipse cx="26.43" cy="370.6415" fill="#84BE84" rx="3" ry="3" style="stroke:#038048;stroke-width:1;"/><text fill="#000000" font-family="sans-serif" font-size="14" lengthAdjust="spacing" textLength="129.6255" x="35.43" y="374.5734">empty() const : bool</text><rect fill="#F24D5C" height="6" style="stroke:#C82930;stroke-width:1;" width="6" x="23.43" y="386.7094"/><text fill="#000000" font-family="sans-serif" font-size="14" lengthAdjust="spacing" textLength="402.2885" x="35.43" y="393.6414">load_from_file(const std::string &amp; path, std::string &amp; str) : void</text><ellipse cx="26.43" cy="408.7773" fill="#84BE84" rx="3" ry="3" style="stroke:#038048;stroke-width:1;"/><text fill="#000000" font-family="sans-serif" font-size="14" lengthAdjust="spacing" textLength="100.7856" x="35.43" y="412.7093">size() const : int</text><line style="stroke:#181818;stroke-width:0.5;" x1="16.43" x2="442.7185" y1="420.8113" y2="420.8113"/><rect fill="none" height="6" style="stroke:#C82930;stroke-width:1;" width="6" x="23.43" y="432.8452"/><text fill="#000000" font-family="sans-serif" font-size="14" lengthAdjust="spacing" textLength="122.0376" x="35.43" y="439.7772">m_text : std::string</text></g><!--class C_0002976562922246231494--><g class="entity" data-entity="C_0002976562922246231494" data-source-line="16" data-uid="ent0003" id="entity_C_0002976562922246231494"><rect fill="#F1F1F1" height="113.2038" rx="2.5" ry="2.5" style="stroke:#181818;stroke-width:0.5;" width="445.1585" x="7" y="47.0679"/><ellipse cx="187.0394" cy="63.0679" fill="#ADD1B2" rx="11" ry="11" style="stroke:#181818;stroke-width:1;"/><path d="M187.1488,58.5992 Q186.2269,58.5992 185.4925,58.9117 Q184.7738,59.2242 184.2738,59.8179 Q183.7738,60.396 183.4925,61.271 Q183.2269,62.146 183.2269,63.2398 Q183.2269,64.6773 183.6644,65.7242 Q184.1175,66.771 184.9613,67.3179 Q185.8206,67.8648 187.1331,67.8648 Q187.9144,67.8648 188.6019,67.7398 Q189.305,67.5992 190.305,67.2867 L190.305,69.1617 Q189.4456,69.4898 188.68,69.6148 Q187.93,69.7398 186.9144,69.7398 Q184.9925,69.7398 183.68,68.9429 Q182.3831,68.1304 181.7269,66.6617 Q181.0706,65.1773 181.0706,63.2085 Q181.0706,61.7867 181.4613,60.6148 Q181.8675,59.4273 182.6488,58.5523 Q183.43,57.6773 184.5706,57.2085 Q185.7113,56.7242 187.18,56.7242 Q188.1331,56.7242 189.0238,56.9273 Q189.93,57.1148 190.8675,57.5835 L190.0394,59.3648 Q189.2581,58.9898 188.6019,58.8023 Q187.9456,58.5992 187.1488,58.5992 Z " fill="#000000"/><text fill="#000000" font-family="sans-serif" font-size="14" lengthAdjust="spacing" textLength="76.5797" x="207.5394" y="68.4999">Text_loader</text><line style="stroke:#181818;stroke-width:0.5;" x1="8" x2="451.1585" y1="79.0679" y2="79.0679"/><ellipse cx="18" cy="94.1019" fill="#84BE84" rx="3" ry="3" style="stroke:#038048;stroke-width:1;"/><text fill="#000000" font-family="sans-serif" font-size="14" lengthAdjust="spacing" textLength="185.5973" x="27" y="98.0339">Text_loader() = default : void</text><ellipse cx="18" cy="113.1698" fill="#84BE84" rx="3" ry="3" style="stroke:#038048;stroke-width:1;"/><text fill="#000000" font-family="sans-serif" font-size="14" lengthAdjust="spacing" textLength="262.541" x="27" y="117.1018">~Text_loader() constexpr = default : void</text><line style="stroke:#181818;stroke-width:1;stroke-dasharray:1.0,2.0;" x1="8" x2="451.1585" y1="125.2038" y2="125.2038"/><ellipse cx="18" cy="140.2377" fill="#84BE84" rx="3" ry="3" style="stroke:#038048;stroke-width:1;"/><text fill="#000000" font-family="sans-serif" font-size="14" lengthAdjust="spacing" text-decoration="underline" textLength="419.1585" x="27" y="144.1697">load_from_path(const std::string &amp; path) : std::shared_ptr&lt;Text&gt;</text><line style="stroke:#181818;stroke-width:0.5;" x1="8" x2="451.1585" y1="152.2717" y2="152.2717"/></g><!--link C_0002976562922246231494 to C_0001127392007066144031--><g class="link" data-entity-1="C_0002976562922246231494" data-entity-2="C_0001127392007066144031" data-source-line="24" data-uid="lnk4" id="link_C_0002976562922246231494_C_0001127392007066144031"><path codeLine="24" d="M229.58,160.5379 C229.58,178.6379 229.58,193.3979 229.58,214.1079" fill="none" id="C_0002976562922246231494-to-C_0001127392007066144031" style="stroke:#181818;stroke-width:1;stroke-dasharray:7.0,7.0;"/><polygon fill="#181818" points="229.58,220.1079,233.58,211.1079,229.58,215.1079,225.58,211.1079,229.58,220.1079" style="stroke:#181818;stroke-width:1;"/></g><!--SRC=[VLBBRi8m4BpxArOz52Z4YaC82cgvL6elz5RrQfdO0Kj9ZEo5qYBwxKru9PJ2pRipErxF63Lc2jxL6Y4pGYeBIIQS0wd5p8gSxAkxYd07mi4pztsViM3OZmFV7_fHnCBGxxC3yHeC6zAjDDg9AHo2GpaQERIwcC4zB0JEEp22bT7oZ9RCXOK7a095ZV_i21tOKTHwOU49f4h5CiCZXrBIJNYfVwILG5EnH4s1gi0B_6mnqbNv0hyQfAan6V4getXgJSvJdQchJ-hzwPM7-XLEVwk6i2wGS4wyd6CLnQWvIhRD5FW-fZgC81v6WoY8Wo08ew3FmZXiXl4FV0pZ85MkSU7WtkMQSDliZKE1Ejb2jxQcSk1csljkcOUIV87siRfmN9cm9LSNftHy_GUIrgigb1Me97ngd5S_kPXvopphmKfPfqq1FeqeyzZ0cqtJS9hAXBGcau-t4xuRELKifemEeVsYfB7YK7fzcYOXw_m2]--></g></svg>