<?xml version="1.0" encoding="us-ascii" standalone="no"?><svg xmlns="http://www.w3.org/2000/svg" xmlns:xlink="http://www.w3.org/1999/xlink" contentStyleType="text/css" height="793px" preserveAspectRatio="none" style="width:302px;height:793px;background:#FFFFFF;" version="1.1" viewBox="0 0 302 793" width="302px" zoomAndPan="magnify"><defs/><g><ellipse cx="139.5" cy="20" fill="#222222" rx="10" ry="10" style="stroke:#222222;stroke-width:1.0;"/><rect fill="#F1F1F1" height="36.3441" rx="12.5" ry="12.5" style="stroke:#181818;stroke-width:0.5;" width="80" x="99.5" y="50"/><text fill="#000000" font-family="sans-serif" font-size="12" lengthAdjust="spacing" textLength="60" x="109.5" y="72.8281">&#24320;&#22987;&#28210;&#26579;&#24103;</text><rect fill="#F1F1F1" height="36.3441" rx="12.5" ry="12.5" style="stroke:#181818;stroke-width:0.5;" width="92" x="93.5" y="106.3441"/><text fill="#000000" font-family="sans-serif" font-size="12" lengthAdjust="spacing" textLength="72" x="103.5" y="129.1722">&#36941;&#21382;&#29289;&#20307;&#21015;&#34920;</text><rect fill="#F1F1F1" height="36.3441" rx="12.5" ry="12.5" style="stroke:#181818;stroke-width:0.5;" width="109" x="85" y="206.6882"/><text fill="#000000" font-family="sans-serif" font-size="12" lengthAdjust="spacing" textLength="89" x="95" y="229.5163">&#36824;&#26377;&#29289;&#20307;&#26410;&#22788;&#29702;?</text><rect fill="#F1F1F1" height="36.3441" rx="12.5" ry="12.5" style="stroke:#181818;stroke-width:0.5;" width="116" x="81.5" y="312.5233"/><text fill="#000000" font-family="sans-serif" font-size="12" lengthAdjust="spacing" textLength="96" x="91.5" y="335.3514">&#22788;&#29702;&#20960;&#20309;&#19982;&#20809;&#26629;&#21270;</text><rect fill="#F1F1F1" height="36.3441" rx="12.5" ry="12.5" style="stroke:#181818;stroke-width:0.5;" width="152" x="63.5" y="368.8674"/><text fill="#000000" font-family="sans-serif" font-size="12" lengthAdjust="spacing" textLength="132" x="73.5" y="391.6955">&#36827;&#34892;&#29255;&#20803;&#30528;&#33394;&#65292;&#22788;&#29702;&#20809;&#29031;</text><polygon fill="#F1F1F1" points="91,439.0395,188,439.0395,200,451.0395,188,463.0395,91,463.0395,79,451.0395,91,439.0395" style="stroke:#181818;stroke-width:0.5;"/><text fill="#000000" font-family="sans-serif" font-size="11" lengthAdjust="spacing" textLength="97" x="91" y="455.3074">&#28145;&#24230;/&#27169;&#26495;&#27979;&#35797;&#36890;&#36807;?</text><text fill="#000000" font-family="sans-serif" font-size="11" lengthAdjust="spacing" textLength="11" x="68" y="447.8165">&#26159;</text><text fill="#000000" font-family="sans-serif" font-size="11" lengthAdjust="spacing" textLength="11" x="200" y="447.8165">&#21542;</text><rect fill="#F1F1F1" height="36.3441" rx="12.5" ry="12.5" style="stroke:#181818;stroke-width:0.5;" width="116" x="11" y="473.0395"/><text fill="#000000" font-family="sans-serif" font-size="12" lengthAdjust="spacing" textLength="96" x="21" y="495.8675">&#28151;&#21512;&#24182;&#20889;&#20837;&#24103;&#32531;&#20914;</text><rect fill="#F1F1F1" height="36.3441" rx="12.5" ry="12.5" style="stroke:#181818;stroke-width:0.5;" width="68" x="176" y="473.0395"/><text fill="#000000" font-family="sans-serif" font-size="12" lengthAdjust="spacing" textLength="48" x="186" y="495.8675">&#20002;&#24323;&#29255;&#20803;</text><polygon fill="#F1F1F1" points="139.5,515.3836,151.5,527.3836,139.5,539.3836,127.5,527.3836,139.5,515.3836" style="stroke:#181818;stroke-width:0.5;"/><polygon fill="#F1F1F1" points="127.5,263.0323,151.5,263.0323,163.5,275.0323,151.5,287.0323,127.5,287.0323,115.5,275.0323,127.5,263.0323" style="stroke:#181818;stroke-width:0.5;"/><text fill="#000000" font-family="sans-serif" font-size="11" lengthAdjust="spacing" textLength="11" x="143.5" y="298.7913">&#26159;</text><text fill="#000000" font-family="sans-serif" font-size="11" lengthAdjust="spacing" textLength="11" x="134" y="279.3003">&#26159;</text><polygon fill="#F1F1F1" points="139.5,559.3836,151.5,571.3836,139.5,583.3836,127.5,571.3836,139.5,559.3836" style="stroke:#181818;stroke-width:0.5;"/><polygon fill="#F1F1F1" points="139.5,162.6882,151.5,174.6882,139.5,186.6882,127.5,174.6882,139.5,162.6882" style="stroke:#181818;stroke-width:0.5;"/><polygon fill="#F1F1F1" points="98.5,603.3836,180.5,603.3836,192.5,615.3836,180.5,627.3836,98.5,627.3836,86.5,615.3836,98.5,603.3836" style="stroke:#181818;stroke-width:0.5;"/><text fill="#000000" font-family="sans-serif" font-size="11" lengthAdjust="spacing" textLength="82" x="98.5" y="619.6515">&#36824;&#26377;&#29289;&#20307;&#26410;&#22788;&#29702;?</text><rect fill="#F1F1F1" height="36.3441" rx="12.5" ry="12.5" style="stroke:#181818;stroke-width:0.5;" width="56" x="111.5" y="647.3836"/><text fill="#000000" font-family="sans-serif" font-size="12" lengthAdjust="spacing" textLength="36" x="121.5" y="670.2117">&#21518;&#22788;&#29702;</text><rect fill="#F1F1F1" height="36.3441" rx="12.5" ry="12.5" style="stroke:#181818;stroke-width:0.5;" width="92" x="93.5" y="703.7277"/><text fill="#000000" font-family="sans-serif" font-size="12" lengthAdjust="spacing" textLength="72" x="103.5" y="726.5558">&#26174;&#31034;&#26368;&#32456;&#22270;&#20687;</text><ellipse cx="139.5" cy="771.0718" fill="none" rx="11" ry="11" style="stroke:#222222;stroke-width:1.0;"/><ellipse cx="139.5" cy="771.0718" fill="#222222" rx="6" ry="6" style="stroke:#222222;stroke-width:1.0;"/><line style="stroke:#181818;stroke-width:1.0;" x1="139.5" x2="139.5" y1="30" y2="50"/><polygon fill="#181818" points="135.5,40,139.5,50,143.5,40,139.5,44" style="stroke:#181818;stroke-width:1.0;"/><line style="stroke:#181818;stroke-width:1.0;" x1="139.5" x2="139.5" y1="86.3441" y2="106.3441"/><polygon fill="#181818" points="135.5,96.3441,139.5,106.3441,143.5,96.3441,139.5,100.3441" style="stroke:#181818;stroke-width:1.0;"/><line style="stroke:#181818;stroke-width:1.0;" x1="139.5" x2="139.5" y1="348.8674" y2="368.8674"/><polygon fill="#181818" points="135.5,358.8674,139.5,368.8674,143.5,358.8674,139.5,362.8674" style="stroke:#181818;stroke-width:1.0;"/><line style="stroke:#181818;stroke-width:1.0;" x1="79" x2="69" y1="451.0395" y2="451.0395"/><line style="stroke:#181818;stroke-width:1.0;" x1="69" x2="69" y1="451.0395" y2="473.0395"/><polygon fill="#181818" points="65,463.0395,69,473.0395,73,463.0395,69,467.0395" style="stroke:#181818;stroke-width:1.0;"/><line style="stroke:#181818;stroke-width:1.0;" x1="200" x2="210" y1="451.0395" y2="451.0395"/><line style="stroke:#181818;stroke-width:1.0;" x1="210" x2="210" y1="451.0395" y2="473.0395"/><polygon fill="#181818" points="206,463.0395,210,473.0395,214,463.0395,210,467.0395" style="stroke:#181818;stroke-width:1.0;"/><line style="stroke:#181818;stroke-width:1.0;" x1="69" x2="69" y1="509.3836" y2="527.3836"/><line style="stroke:#181818;stroke-width:1.0;" x1="69" x2="127.5" y1="527.3836" y2="527.3836"/><polygon fill="#181818" points="117.5,523.3836,127.5,527.3836,117.5,531.3836,121.5,527.3836" style="stroke:#181818;stroke-width:1.0;"/><line style="stroke:#181818;stroke-width:1.0;" x1="210" x2="210" y1="509.3836" y2="527.3836"/><line style="stroke:#181818;stroke-width:1.0;" x1="210" x2="151.5" y1="527.3836" y2="527.3836"/><polygon fill="#181818" points="161.5,523.3836,151.5,527.3836,161.5,531.3836,157.5,527.3836" style="stroke:#181818;stroke-width:1.0;"/><line style="stroke:#181818;stroke-width:1.0;" x1="139.5" x2="139.5" y1="405.2115" y2="439.0395"/><polygon fill="#181818" points="135.5,429.0395,139.5,439.0395,143.5,429.0395,139.5,433.0395" style="stroke:#181818;stroke-width:1.0;"/><line style="stroke:#181818;stroke-width:1.0;" x1="139.5" x2="139.5" y1="287.0323" y2="312.5233"/><polygon fill="#181818" points="135.5,302.5233,139.5,312.5233,143.5,302.5233,139.5,306.5233" style="stroke:#181818;stroke-width:1.0;"/><line style="stroke:#181818;stroke-width:1.0;" x1="163.5" x2="258" y1="275.0323" y2="275.0323"/><polygon fill="#181818" points="254,409.0395,258,419.0395,262,409.0395,258,413.0395" style="stroke:#181818;stroke-width:1.0;"/><line style="stroke:#181818;stroke-width:1.0;" x1="258" x2="258" y1="275.0323" y2="571.3836"/><line style="stroke:#181818;stroke-width:1.0;" x1="258" x2="151.5" y1="571.3836" y2="571.3836"/><polygon fill="#181818" points="161.5,567.3836,151.5,571.3836,161.5,575.3836,157.5,571.3836" style="stroke:#181818;stroke-width:1.0;"/><line style="stroke:#181818;stroke-width:1.0;" x1="139.5" x2="139.5" y1="539.3836" y2="559.3836"/><polygon fill="#181818" points="135.5,549.3836,139.5,559.3836,143.5,549.3836,139.5,553.3836" style="stroke:#181818;stroke-width:1.0;"/><line style="stroke:#181818;stroke-width:1.0;" x1="139.5" x2="139.5" y1="243.0323" y2="263.0323"/><polygon fill="#181818" points="135.5,253.0323,139.5,263.0323,143.5,253.0323,139.5,257.0323" style="stroke:#181818;stroke-width:1.0;"/><line style="stroke:#181818;stroke-width:1.0;" x1="139.5" x2="139.5" y1="186.6882" y2="206.6882"/><polygon fill="#181818" points="135.5,196.6882,139.5,206.6882,143.5,196.6882,139.5,200.6882" style="stroke:#181818;stroke-width:1.0;"/><line style="stroke:#181818;stroke-width:1.0;" x1="192.5" x2="276" y1="615.3836" y2="615.3836"/><polygon fill="#181818" points="272,393.3674,276,383.3674,280,393.3674,276,389.3674" style="stroke:#181818;stroke-width:1.0;"/><line style="stroke:#181818;stroke-width:1.0;" x1="276" x2="276" y1="174.6882" y2="615.3836"/><line style="stroke:#181818;stroke-width:1.0;" x1="276" x2="151.5" y1="174.6882" y2="174.6882"/><polygon fill="#181818" points="161.5,170.6882,151.5,174.6882,161.5,178.6882,157.5,174.6882" style="stroke:#181818;stroke-width:1.0;"/><line style="stroke:#181818;stroke-width:1.0;" x1="139.5" x2="139.5" y1="583.3836" y2="603.3836"/><polygon fill="#181818" points="135.5,593.3836,139.5,603.3836,143.5,593.3836,139.5,597.3836" style="stroke:#181818;stroke-width:1.0;"/><line style="stroke:#181818;stroke-width:1.0;" x1="139.5" x2="139.5" y1="142.6882" y2="162.6882"/><polygon fill="#181818" points="135.5,152.6882,139.5,162.6882,143.5,152.6882,139.5,156.6882" style="stroke:#181818;stroke-width:1.0;"/><line style="stroke:#181818;stroke-width:1.0;" x1="139.5" x2="139.5" y1="627.3836" y2="647.3836"/><polygon fill="#181818" points="135.5,637.3836,139.5,647.3836,143.5,637.3836,139.5,641.3836" style="stroke:#181818;stroke-width:1.0;"/><line style="stroke:#181818;stroke-width:1.0;" x1="139.5" x2="139.5" y1="683.7277" y2="703.7277"/><polygon fill="#181818" points="135.5,693.7277,139.5,703.7277,143.5,693.7277,139.5,697.7277" style="stroke:#181818;stroke-width:1.0;"/><line style="stroke:#181818;stroke-width:1.0;" x1="139.5" x2="139.5" y1="740.0718" y2="760.0718"/><polygon fill="#181818" points="135.5,750.0718,139.5,760.0718,143.5,750.0718,139.5,754.0718" style="stroke:#181818;stroke-width:1.0;"/><!--SRC=[RL1DRu904BtpApZggNSu-5jCYf74M2CalT9GlYAb9CIMLaobiM9xCILfGOloPvZTzTI_K6H9RHhdDBFxthmtJvBRGvbXECWKY4OeZT6J1sd4Czp-wWOS7LklnTO3yvw4IvvXXi90QCiCMnP7SXy55WMWu0tcrzZLMoNey2jss0RoLqrMxWfzsbRl5PD2mPWLst6HEg1PQAQ1VSSV8IIVaD36bW6QYgSAiUBlpAvvceMrgDRvrKhUORCuGyiGJNFqCIAhyLvv9BdHEccXqa190gu9wq_G7q1xAS_6cGTwVBGXz2I1RO2x-CSiqcV8LEhk3xf_BdQehRgbSR6NNR5NxZaTMFEGlklGgSmT-Jiytw10mLycJ7QWtfQdIlB5u0S0]--></g></svg>