<svg xmlns="http://www.w3.org/2000/svg" xmlns:xlink="http://www.w3.org/1999/xlink" contentStyleType="text/css" data-diagram-type="CLASS" height="600px" preserveAspectRatio="none" style="width:682px;height:600px;background:#FFFFFF;" version="1.1" viewBox="0 0 682 600" width="682px" zoomAndPan="magnify"><title>File service class diagram</title><defs/><g><text fill="#000000" font-family="sans-serif" font-size="14" font-weight="bold" lengthAdjust="spacing" textLength="176.1019" x="245.9679" y="24.9659">File service class diagram</text><!--class C_0011978095187432327002--><g class="entity" data-entity="C_0011978095187432327002" data-source-line="2" data-uid="ent0002" id="entity_C_0011978095187432327002"><rect fill="#F1F1F1" height="105.2038" rx="2.5" ry="2.5" style="stroke:#181818;stroke-width:0.5;" width="352.7728" x="164.63" y="488.2279"/><ellipse cx="305.6515" cy="504.2279" fill="#ADD1B2" rx="11" ry="11" style="stroke:#181818;stroke-width:1;"/><path d="M305.7609,499.7592 Q304.839,499.7592 304.1046,500.0717 Q303.3859,500.3842 302.8859,500.9779 Q302.3859,501.556 302.1046,502.431 Q301.839,503.306 301.839,504.3998 Q301.839,505.8373 302.2765,506.8842 Q302.7296,507.931 303.5734,508.4779 Q304.4328,509.0248 305.7453,509.0248 Q306.5265,509.0248 307.214,508.8998 Q307.9171,508.7592 308.9171,508.4467 L308.9171,510.3217 Q308.0578,510.6498 307.2921,510.7748 Q306.5421,510.8998 305.5265,510.8998 Q303.6046,510.8998 302.2921,510.1029 Q300.9953,509.2904 300.339,507.8217 Q299.6828,506.3373 299.6828,504.3685 Q299.6828,502.9467 300.0734,501.7748 Q300.4796,500.5873 301.2609,499.7123 Q302.0421,498.8373 303.1828,498.3685 Q304.3234,497.8842 305.7921,497.8842 Q306.7453,497.8842 307.6359,498.0873 Q308.5421,498.2748 309.4796,498.7435 L308.6515,500.5248 Q307.8703,500.1498 307.214,499.9623 Q306.5578,499.7592 305.7609,499.7592 Z " fill="#000000"/><text fill="#000000" font-family="sans-serif" font-size="14" lengthAdjust="spacing" textLength="62.2298" x="326.1515" y="509.6599">File_node</text><line style="stroke:#181818;stroke-width:0.5;" x1="165.63" x2="516.4028" y1="520.2279" y2="520.2279"/><line style="stroke:#181818;stroke-width:0.5;" x1="165.63" x2="516.4028" y1="528.2279" y2="528.2279"/><ellipse cx="175.63" cy="543.2619" fill="none" rx="3" ry="3" style="stroke:#038048;stroke-width:1;"/><text fill="#000000" font-family="sans-serif" font-size="14" lengthAdjust="spacing" textLength="326.7728" x="184.63" y="547.1939">children : std::vector&lt;std::shared_ptr&lt;File_node&gt;&gt;</text><ellipse cx="175.63" cy="562.3298" fill="none" rx="3" ry="3" style="stroke:#038048;stroke-width:1;"/><text fill="#000000" font-family="sans-serif" font-size="14" lengthAdjust="spacing" textLength="115.7936" x="184.63" y="566.2618">is_directory : bool</text><ellipse cx="175.63" cy="581.3977" fill="none" rx="3" ry="3" style="stroke:#038048;stroke-width:1;"/><text fill="#000000" font-family="sans-serif" font-size="14" lengthAdjust="spacing" textLength="114.8136" x="184.63" y="585.3297">name : std::string</text></g><!--class C_0014223807442212390095--><g class="entity" data-entity="C_0014223807442212390095" data-source-line="9" data-uid="ent0003" id="entity_C_0014223807442212390095"><rect fill="#F1F1F1" height="380.1546" rx="2.5" ry="2.5" style="stroke:#181818;stroke-width:0.5;" width="668.0377" x="7" y="47.0679"/><ellipse cx="299.606" cy="63.0679" fill="#ADD1B2" rx="11" ry="11" style="stroke:#181818;stroke-width:1;"/><path d="M299.7154,58.5992 Q298.7935,58.5992 298.0591,58.9117 Q297.3404,59.2242 296.8404,59.8179 Q296.3404,60.396 296.0591,61.271 Q295.7935,62.146 295.7935,63.2398 Q295.7935,64.6773 296.231,65.7242 Q296.6841,66.771 297.5279,67.3179 Q298.3873,67.8648 299.6998,67.8648 Q300.481,67.8648 301.1685,67.7398 Q301.8716,67.5992 302.8716,67.2867 L302.8716,69.1617 Q302.0123,69.4898 301.2466,69.6148 Q300.4966,69.7398 299.481,69.7398 Q297.5591,69.7398 296.2466,68.9429 Q294.9498,68.1304 294.2935,66.6617 Q293.6373,65.1773 293.6373,63.2085 Q293.6373,61.7867 294.0279,60.6148 Q294.4341,59.4273 295.2154,58.5523 Q295.9966,57.6773 297.1373,57.2085 Q298.2779,56.7242 299.7466,56.7242 Q300.6998,56.7242 301.5904,56.9273 Q302.4966,57.1148 303.4341,57.5835 L302.606,59.3648 Q301.8248,58.9898 301.1685,58.8023 Q300.5123,58.5992 299.7154,58.5992 Z " fill="#000000"/><text fill="#000000" font-family="sans-serif" font-size="14" lengthAdjust="spacing" textLength="74.3257" x="320.106" y="68.4999">File_service</text><line style="stroke:#181818;stroke-width:0.5;" x1="8" x2="674.0377" y1="79.0679" y2="79.0679"/><ellipse cx="18" cy="94.1019" fill="#84BE84" rx="3" ry="3" style="stroke:#038048;stroke-width:1;"/><text fill="#000000" font-family="sans-serif" font-size="14" lengthAdjust="spacing" textLength="121.5615" x="27" y="98.0339">File_service() : void</text><line style="stroke:#181818;stroke-width:1;stroke-dasharray:1.0,2.0;" x1="8" x2="674.0377" y1="106.1358" y2="106.1358"/><ellipse cx="18" cy="121.1698" fill="#84BE84" rx="3" ry="3" style="stroke:#038048;stroke-width:1;"/><text fill="#000000" font-family="sans-serif" font-size="14" lengthAdjust="spacing" textLength="520.6581" x="27" y="125.1018">add_text_file(const std::string &amp; relative_path, const std::string &amp; content) : bool</text><ellipse cx="18" cy="140.2377" fill="#84BE84" rx="3" ry="3" style="stroke:#038048;stroke-width:1;"/><text fill="#000000" font-family="sans-serif" font-size="14" lengthAdjust="spacing" textLength="550.856" x="27" y="144.1697">build_file_tree(const std::string &amp; relative_dir = "") const : std::shared_ptr&lt;File_node&gt;</text><rect fill="#F24D5C" height="6" style="stroke:#C82930;stroke-width:1;" width="6" x="15" y="156.3056"/><text fill="#000000" font-family="sans-serif" font-size="14" lengthAdjust="spacing" textLength="642.0377" x="27" y="163.2376">build_tree_recursive(const std::filesystem::path &amp; current_path) const : std::shared_ptr&lt;File_node&gt;</text><ellipse cx="18" cy="178.3735" fill="#84BE84" rx="3" ry="3" style="stroke:#038048;stroke-width:1;"/><text fill="#000000" font-family="sans-serif" font-size="14" lengthAdjust="spacing" textLength="406.6705" x="27" y="182.3055">copy_file(const std::string &amp; src, const std::string &amp; dest) : bool</text><ellipse cx="18" cy="197.4415" fill="#84BE84" rx="3" ry="3" style="stroke:#038048;stroke-width:1;"/><text fill="#000000" font-family="sans-serif" font-size="14" lengthAdjust="spacing" text-decoration="underline" textLength="250.011" x="27" y="201.3734">create() : std::shared_ptr&lt;File_service&gt;</text><ellipse cx="18" cy="216.5094" fill="#84BE84" rx="3" ry="3" style="stroke:#038048;stroke-width:1;"/><text fill="#000000" font-family="sans-serif" font-size="14" lengthAdjust="spacing" textLength="363.3406" x="27" y="220.4414">create_directory(const std::string &amp; relative_path) : bool</text><ellipse cx="18" cy="235.5773" fill="#84BE84" rx="3" ry="3" style="stroke:#038048;stroke-width:1;"/><text fill="#000000" font-family="sans-serif" font-size="14" lengthAdjust="spacing" textLength="323.9728" x="27" y="239.5093">delete_file(const std::string &amp; relative_path) : bool</text><ellipse cx="18" cy="254.6452" fill="#84BE84" rx="3" ry="3" style="stroke:#038048;stroke-width:1;"/><text fill="#000000" font-family="sans-serif" font-size="14" lengthAdjust="spacing" textLength="333.4788" x="27" y="258.5772">exists(const std::string &amp; relative_path) const : bool</text><ellipse cx="18" cy="273.7131" fill="#84BE84" rx="3" ry="3" style="stroke:#038048;stroke-width:1;"/><text fill="#000000" font-family="sans-serif" font-size="14" lengthAdjust="spacing" textLength="454.2424" x="27" y="277.6451">get_absolute_path(const std::string &amp; relative_path) const : std::string</text><ellipse cx="18" cy="292.781" fill="#84BE84" rx="3" ry="3" style="stroke:#038048;stroke-width:1;"/><text fill="#000000" font-family="sans-serif" font-size="14" lengthAdjust="spacing" textLength="180.5153" x="27" y="296.713">get_root() const : std::string</text><ellipse cx="18" cy="311.849" fill="#84BE84" rx="3" ry="3" style="stroke:#038048;stroke-width:1;"/><text fill="#000000" font-family="sans-serif" font-size="14" lengthAdjust="spacing" textLength="371.6987" x="27" y="315.7809">is_directory(const std::string &amp; relative_path) const : bool</text><ellipse cx="18" cy="330.9169" fill="#84BE84" rx="3" ry="3" style="stroke:#038048;stroke-width:1;"/><text fill="#000000" font-family="sans-serif" font-size="14" lengthAdjust="spacing" textLength="484.5382" x="27" y="334.8489">list_files(const std::string &amp; relative_dir = "") const : std::vector&lt;std::string&gt;</text><ellipse cx="18" cy="349.9848" fill="#84BE84" rx="3" ry="3" style="stroke:#038048;stroke-width:1;"/><text fill="#000000" font-family="sans-serif" font-size="14" lengthAdjust="spacing" textLength="412.2984" x="27" y="353.9168">move_file(const std::string &amp; src, const std::string &amp; dest) : bool</text><ellipse cx="18" cy="369.0527" fill="#84BE84" rx="3" ry="3" style="stroke:#038048;stroke-width:1;"/><text fill="#000000" font-family="sans-serif" font-size="14" lengthAdjust="spacing" textLength="525.7261" x="27" y="372.9847">read_text_file(const std::string &amp; relative_path, std::string &amp; content) const : bool</text><ellipse cx="18" cy="388.1206" fill="#84BE84" rx="3" ry="3" style="stroke:#038048;stroke-width:1;"/><text fill="#000000" font-family="sans-serif" font-size="14" lengthAdjust="spacing" textLength="254.1131" x="27" y="392.0526">set_root(const std::string &amp; path) : void</text><line style="stroke:#181818;stroke-width:0.5;" x1="8" x2="674.0377" y1="400.1546" y2="400.1546"/><rect fill="none" height="6" style="stroke:#C82930;stroke-width:1;" width="6" x="15" y="412.1885"/><text fill="#000000" font-family="sans-serif" font-size="14" lengthAdjust="spacing" textLength="226.5751" x="27" y="419.1205">m_root_path : std::filesystem::path</text></g><!--reverse link C_0011978095187432327002 to C_0011978095187432327002--><g class="link" data-entity-1="C_0011978095187432327002" data-entity-2="C_0011978095187432327002" data-source-line="31" data-uid="lnk4" id="link_C_0011978095187432327002_C_0011978095187432327002"><path codeLine="31" d="M529.491,528.8128 C550.561,531.2428 552.41,534.3379 552.41,540.8279 C552.41,547.3179 538.64,551.7779 517.57,554.2179" fill="none" id="C_0011978095187432327002-backto-C_0011978095187432327002" style="stroke:#181818;stroke-width:1;"/><polygon fill="none" points="517.57,527.4379,523.0722,532.099,529.491,528.8128,523.9888,524.1517,517.57,527.4379" style="stroke:#181818;stroke-width:1;"/><ellipse cx="563.41" cy="541.6809" fill="none" rx="3" ry="3" style="stroke:#038048;stroke-width:1;"/><text fill="#000000" font-family="sans-serif" font-size="13" lengthAdjust="spacing" textLength="49.7121" x="570.41" y="546.2249">children</text></g><!--link C_0014223807442212390095 to C_0011978095187432327002--><g class="link" data-entity-1="C_0014223807442212390095" data-entity-2="C_0011978095187432327002" data-source-line="32" data-uid="lnk5" id="link_C_0014223807442212390095_C_0011978095187432327002"><path codeLine="32" d="M341.02,427.4879 C341.02,449.5079 341.02,464.3579 341.02,481.9779" fill="none" id="C_0014223807442212390095-to-C_0011978095187432327002" style="stroke:#181818;stroke-width:1;stroke-dasharray:7.0,7.0;"/><polygon fill="#181818" points="341.02,487.9779,345.02,478.9779,341.02,482.9779,337.02,478.9779,341.02,487.9779" style="stroke:#181818;stroke-width:1;"/></g><!--SRC=[fLJ1Zjem4BtxAomENL0sKHBO0j6MIwNjPNljrJBs09QI6DacNRJQV-_441AgH0lj9OapCs_UlF6CKou7-gBmOS5KIW0LERUMIiMtXXVaT1hL7gpK4aQKM_gTnN6IBEUBUFcKBEQpQJfDvt6Sdhs7pFITC4O2iLEvD53IZ5ediwm2uRHvzjzsnmr8jdVc-P9ojIA1iamgunsF6BVMEYT1oGjeGAmpgjoIZol2vv9QphCqdIxY-GpVIJfTnaYmoxd7Z9o3BjPuWXahhII98X9mAPc3DySsw38MkhIkIuT-eGPoxbG5RC_Txf7skU0_1wMRNEfQ7r0W3ycSWKzmKHRwZOv6apDseqUVa2GyGTUe3DKy68iGNVmwgJrQ1qMMrOnhUWU3pNA-W9kI14BlZyEAM2FwTP1WMn7UhSFwn0SDX07kJhht9ZqtfixhFTkBydb3Miqbv82nj_Mn3OCtPPsz9Q8HxXIt1SVuskhyu4uEzq1qBxn7CbgxyO2zEpdtyyonF2-A_QTRU3NQFWZRLEWA_lTw1DZgEqTlOEYkwxMDcds0JUlz-ECc2mllw_6RYlyU8Dn8W-jGX-7mhipePL6ImUKKHQlXPKmUVa091aT2qjyAAUAcAxVXeSWVQGKu-hgaSVGrIiBaATokDxFrHWhoyFhww-V5xaCkfsGP9T6SZbz0QiFFnt0QRSGicVm1]--></g></svg>