<svg xmlns="http://www.w3.org/2000/svg" xmlns:xlink="http://www.w3.org/1999/xlink" contentStyleType="text/css" data-diagram-type="CLASS" height="434px" preserveAspectRatio="none" style="width:1095px;height:434px;background:#FFFFFF;" version="1.1" viewBox="0 0 1095 434" width="1095px" zoomAndPan="magnify"><title>File service class diagram</title><defs/><g><text fill="#000000" font-family="sans-serif" font-size="14" font-weight="bold" lengthAdjust="spacing" textLength="176.1019" x="452.8555" y="24.9659">File service class diagram</text><!--class C_0011978095187432327002--><g class="entity" data-entity="C_0011978095187432327002" data-source-line="3" data-uid="ent0002" id="entity_C_0011978095187432327002"><rect fill="#F1F1F1" height="105.2038" rx="2.5" ry="2.5" style="stroke:#181818;stroke-width:0.5;" width="352.7728" x="736.04" y="184.5379"/><ellipse cx="877.0615" cy="200.5379" fill="#ADD1B2" rx="11" ry="11" style="stroke:#181818;stroke-width:1;"/><path d="M877.1709,196.0692 Q876.249,196.0692 875.5146,196.3817 Q874.7959,196.6942 874.2959,197.2879 Q873.7959,197.866 873.5146,198.741 Q873.249,199.616 873.249,200.7098 Q873.249,202.1473 873.6865,203.1942 Q874.1396,204.241 874.9834,204.7879 Q875.8428,205.3348 877.1553,205.3348 Q877.9365,205.3348 878.624,205.2098 Q879.3271,205.0692 880.3271,204.7567 L880.3271,206.6317 Q879.4678,206.9598 878.7021,207.0848 Q877.9521,207.2098 876.9365,207.2098 Q875.0146,207.2098 873.7021,206.4129 Q872.4053,205.6004 871.749,204.1317 Q871.0928,202.6473 871.0928,200.6785 Q871.0928,199.2567 871.4834,198.0848 Q871.8896,196.8973 872.6709,196.0223 Q873.4521,195.1473 874.5928,194.6785 Q875.7334,194.1942 877.2021,194.1942 Q878.1553,194.1942 879.0459,194.3973 Q879.9521,194.5848 880.8896,195.0535 L880.0615,196.8348 Q879.2803,196.4598 878.624,196.2723 Q877.9678,196.0692 877.1709,196.0692 Z " fill="#000000"/><text fill="#000000" font-family="sans-serif" font-size="14" lengthAdjust="spacing" textLength="62.2298" x="897.5615" y="205.9699">File_node</text><line style="stroke:#181818;stroke-width:0.5;" x1="737.04" x2="1087.8128" y1="216.5379" y2="216.5379"/><line style="stroke:#181818;stroke-width:0.5;" x1="737.04" x2="1087.8128" y1="224.5379" y2="224.5379"/><ellipse cx="747.04" cy="239.5719" fill="none" rx="3" ry="3" style="stroke:#038048;stroke-width:1;"/><text fill="#000000" font-family="sans-serif" font-size="14" lengthAdjust="spacing" textLength="326.7728" x="756.04" y="243.5039">children : std::vector&lt;std::shared_ptr&lt;File_node&gt;&gt;</text><ellipse cx="747.04" cy="258.6398" fill="none" rx="3" ry="3" style="stroke:#038048;stroke-width:1;"/><text fill="#000000" font-family="sans-serif" font-size="14" lengthAdjust="spacing" textLength="115.7936" x="756.04" y="262.5718">is_directory : bool</text><ellipse cx="747.04" cy="277.7077" fill="none" rx="3" ry="3" style="stroke:#038048;stroke-width:1;"/><text fill="#000000" font-family="sans-serif" font-size="14" lengthAdjust="spacing" textLength="114.8136" x="756.04" y="281.6397">name : std::string</text></g><!--class C_0014223807442212390095--><g class="entity" data-entity="C_0014223807442212390095" data-source-line="10" data-uid="ent0003" id="entity_C_0014223807442212390095"><rect fill="#F1F1F1" height="380.1546" rx="2.5" ry="2.5" style="stroke:#181818;stroke-width:0.5;" width="668.0377" x="7" y="47.0679"/><ellipse cx="299.606" cy="63.0679" fill="#ADD1B2" rx="11" ry="11" style="stroke:#181818;stroke-width:1;"/><path d="M299.7154,58.5992 Q298.7935,58.5992 298.0591,58.9117 Q297.3404,59.2242 296.8404,59.8179 Q296.3404,60.396 296.0591,61.271 Q295.7935,62.146 295.7935,63.2398 Q295.7935,64.6773 296.231,65.7242 Q296.6841,66.771 297.5279,67.3179 Q298.3873,67.8648 299.6998,67.8648 Q300.481,67.8648 301.1685,67.7398 Q301.8716,67.5992 302.8716,67.2867 L302.8716,69.1617 Q302.0123,69.4898 301.2466,69.6148 Q300.4966,69.7398 299.481,69.7398 Q297.5591,69.7398 296.2466,68.9429 Q294.9498,68.1304 294.2935,66.6617 Q293.6373,65.1773 293.6373,63.2085 Q293.6373,61.7867 294.0279,60.6148 Q294.4341,59.4273 295.2154,58.5523 Q295.9966,57.6773 297.1373,57.2085 Q298.2779,56.7242 299.7466,56.7242 Q300.6998,56.7242 301.5904,56.9273 Q302.4966,57.1148 303.4341,57.5835 L302.606,59.3648 Q301.8248,58.9898 301.1685,58.8023 Q300.5123,58.5992 299.7154,58.5992 Z " fill="#000000"/><text fill="#000000" font-family="sans-serif" font-size="14" lengthAdjust="spacing" textLength="74.3257" x="320.106" y="68.4999">File_service</text><line style="stroke:#181818;stroke-width:0.5;" x1="8" x2="674.0377" y1="79.0679" y2="79.0679"/><ellipse cx="18" cy="94.1019" fill="#84BE84" rx="3" ry="3" style="stroke:#038048;stroke-width:1;"/><text fill="#000000" font-family="sans-serif" font-size="14" lengthAdjust="spacing" textLength="121.5615" x="27" y="98.0339">File_service() : void</text><line style="stroke:#181818;stroke-width:1;stroke-dasharray:1.0,2.0;" x1="8" x2="674.0377" y1="106.1358" y2="106.1358"/><ellipse cx="18" cy="121.1698" fill="#84BE84" rx="3" ry="3" style="stroke:#038048;stroke-width:1;"/><text fill="#000000" font-family="sans-serif" font-size="14" lengthAdjust="spacing" textLength="520.6581" x="27" y="125.1018">add_text_file(const std::string &amp; relative_path, const std::string &amp; content) : bool</text><ellipse cx="18" cy="140.2377" fill="#84BE84" rx="3" ry="3" style="stroke:#038048;stroke-width:1;"/><text fill="#000000" font-family="sans-serif" font-size="14" lengthAdjust="spacing" textLength="550.856" x="27" y="144.1697">build_file_tree(const std::string &amp; relative_dir = "") const : std::shared_ptr&lt;File_node&gt;</text><rect fill="#F24D5C" height="6" style="stroke:#C82930;stroke-width:1;" width="6" x="15" y="156.3056"/><text fill="#000000" font-family="sans-serif" font-size="14" lengthAdjust="spacing" textLength="642.0377" x="27" y="163.2376">build_tree_recursive(const std::filesystem::path &amp; current_path) const : std::shared_ptr&lt;File_node&gt;</text><ellipse cx="18" cy="178.3735" fill="#84BE84" rx="3" ry="3" style="stroke:#038048;stroke-width:1;"/><text fill="#000000" font-family="sans-serif" font-size="14" lengthAdjust="spacing" textLength="406.6705" x="27" y="182.3055">copy_file(const std::string &amp; src, const std::string &amp; dest) : bool</text><ellipse cx="18" cy="197.4415" fill="#84BE84" rx="3" ry="3" style="stroke:#038048;stroke-width:1;"/><text fill="#000000" font-family="sans-serif" font-size="14" lengthAdjust="spacing" text-decoration="underline" textLength="250.011" x="27" y="201.3734">create() : std::shared_ptr&lt;File_service&gt;</text><ellipse cx="18" cy="216.5094" fill="#84BE84" rx="3" ry="3" style="stroke:#038048;stroke-width:1;"/><text fill="#000000" font-family="sans-serif" font-size="14" lengthAdjust="spacing" textLength="363.3406" x="27" y="220.4414">create_directory(const std::string &amp; relative_path) : bool</text><ellipse cx="18" cy="235.5773" fill="#84BE84" rx="3" ry="3" style="stroke:#038048;stroke-width:1;"/><text fill="#000000" font-family="sans-serif" font-size="14" lengthAdjust="spacing" textLength="323.9728" x="27" y="239.5093">delete_file(const std::string &amp; relative_path) : bool</text><ellipse cx="18" cy="254.6452" fill="#84BE84" rx="3" ry="3" style="stroke:#038048;stroke-width:1;"/><text fill="#000000" font-family="sans-serif" font-size="14" lengthAdjust="spacing" textLength="333.4788" x="27" y="258.5772">exists(const std::string &amp; relative_path) const : bool</text><ellipse cx="18" cy="273.7131" fill="#84BE84" rx="3" ry="3" style="stroke:#038048;stroke-width:1;"/><text fill="#000000" font-family="sans-serif" font-size="14" lengthAdjust="spacing" textLength="454.2424" x="27" y="277.6451">get_absolute_path(const std::string &amp; relative_path) const : std::string</text><ellipse cx="18" cy="292.781" fill="#84BE84" rx="3" ry="3" style="stroke:#038048;stroke-width:1;"/><text fill="#000000" font-family="sans-serif" font-size="14" lengthAdjust="spacing" textLength="180.5153" x="27" y="296.713">get_root() const : std::string</text><ellipse cx="18" cy="311.849" fill="#84BE84" rx="3" ry="3" style="stroke:#038048;stroke-width:1;"/><text fill="#000000" font-family="sans-serif" font-size="14" lengthAdjust="spacing" textLength="371.6987" x="27" y="315.7809">is_directory(const std::string &amp; relative_path) const : bool</text><ellipse cx="18" cy="330.9169" fill="#84BE84" rx="3" ry="3" style="stroke:#038048;stroke-width:1;"/><text fill="#000000" font-family="sans-serif" font-size="14" lengthAdjust="spacing" textLength="484.5382" x="27" y="334.8489">list_files(const std::string &amp; relative_dir = "") const : std::vector&lt;std::string&gt;</text><ellipse cx="18" cy="349.9848" fill="#84BE84" rx="3" ry="3" style="stroke:#038048;stroke-width:1;"/><text fill="#000000" font-family="sans-serif" font-size="14" lengthAdjust="spacing" textLength="412.2984" x="27" y="353.9168">move_file(const std::string &amp; src, const std::string &amp; dest) : bool</text><ellipse cx="18" cy="369.0527" fill="#84BE84" rx="3" ry="3" style="stroke:#038048;stroke-width:1;"/><text fill="#000000" font-family="sans-serif" font-size="14" lengthAdjust="spacing" textLength="525.7261" x="27" y="372.9847">read_text_file(const std::string &amp; relative_path, std::string &amp; content) const : bool</text><ellipse cx="18" cy="388.1206" fill="#84BE84" rx="3" ry="3" style="stroke:#038048;stroke-width:1;"/><text fill="#000000" font-family="sans-serif" font-size="14" lengthAdjust="spacing" textLength="254.1131" x="27" y="392.0526">set_root(const std::string &amp; path) : void</text><line style="stroke:#181818;stroke-width:0.5;" x1="8" x2="674.0377" y1="400.1546" y2="400.1546"/><rect fill="none" height="6" style="stroke:#C82930;stroke-width:1;" width="6" x="15" y="412.1885"/><text fill="#000000" font-family="sans-serif" font-size="14" lengthAdjust="spacing" textLength="226.5751" x="27" y="419.1205">m_root_path : std::filesystem::path</text></g><!--reverse link C_0011978095187432327002 to C_0011978095187432327002--><g class="link" data-entity-1="C_0011978095187432327002" data-entity-2="C_0011978095187432327002" data-source-line="32" data-uid="lnk4" id="link_C_0011978095187432327002_C_0011978095187432327002"><path codeLine="32" d="M873.1474,172.1193 C872.3174,153.0793 885.76,149.5379 912.42,149.5379 C939.09,149.5379 952.01,165.0679 951.18,184.1079" fill="none" id="C_0011978095187432327002-backto-C_0011978095187432327002" style="stroke:#181818;stroke-width:1;"/><polygon fill="none" points="873.67,184.1079,877.4049,177.9394,873.1474,172.1193,869.4125,178.2878,873.67,184.1079" style="stroke:#181818;stroke-width:1;"/><ellipse cx="886.92" cy="135.8909" fill="none" rx="3" ry="3" style="stroke:#038048;stroke-width:1;"/><text fill="#000000" font-family="sans-serif" font-size="13" lengthAdjust="spacing" textLength="49.7121" x="893.92" y="140.4349">children</text></g><!--link C_0014223807442212390095 to C_0011978095187432327002--><g class="link" data-entity-1="C_0014223807442212390095" data-entity-2="C_0011978095187432327002" data-source-line="33" data-uid="lnk5" id="link_C_0014223807442212390095_C_0011978095187432327002"><path codeLine="33" d="M675.3,237.1379 C695.96,237.1379 710.27,237.1379 729.77,237.1379" fill="none" id="C_0014223807442212390095-to-C_0011978095187432327002" style="stroke:#181818;stroke-width:1;stroke-dasharray:7.0,7.0;"/><polygon fill="#181818" points="735.77,237.1379,726.77,233.1379,730.77,237.1379,726.77,241.1379,735.77,237.1379" style="stroke:#181818;stroke-width:1;"/></g><!--SRC=[fLJ1Zfim4BtxAwmSkebO491iaw1jBfMsb-srLyl14s89S6HFw4Qh_VSE92Ia0ctINW0pCs_UlF4CQio1lsXwEB2LJe6dkNIEAoqpAmkMmmOv6cvrjaNwQo55RKfsz1hLaQ8q2aPSElvTX64KBUUBSFaKBUQpQJoDvs4Odxo7pFoT2S6yTAjpPQ7a2NUeagIYLCO-DzzkAoqeiKFxV4wvMZ5FEt7aPEo1ujR6vCmhPG4jY4EhounzN14-bNhXF8lZwIASp-WTnTDbI0Ixd7lCnDdhOeqdbB4oMh4WO9vKIY2yeTYGopWrfSCk7Vw5MyWbwWh4JkBsaVUvq3-44YVdkjPx4gY156ZX4roIXN_Zez7aXDtgqISayu_GDQeWDVVM4KGNlqxg3WwXI9AQSKrlRwbPs1HmKn8lDRl3i2BEflqwA70N4TuTKdtf1_TI2nAFklScFJMcpjjuNYxAvmsvQAuW1ugzhO-NC7ZJ3jqj4QrmnxWCKCYrC_aUZmxtG7GlV8DaZS7nWBqxEVVppAcyHXJtJxVmQhIR86fJOIhut-lXKQll7Bs1eRkkrxLgzW6shM_6dpQPNpI-3NvRyTy3H1jfS1qQtn_UbGa_Bqesk9o2O3MyZDd33oZ1qaWe_biJHTfqPURlY_oHLq2ZRqeU1b-3o8-U_6ozcQqtAcKFhw-_VfxjJSZv52s3A9ZpyGieO-Nfw4-3JJgB9dy0]--></g></svg>