<svg xmlns="http://www.w3.org/2000/svg" xmlns:xlink="http://www.w3.org/1999/xlink" contentStyleType="text/css" data-diagram-type="CLASS" height="353px" preserveAspectRatio="none" style="width:329px;height:353px;background:#FFFFFF;" version="1.1" viewBox="0 0 329 353" width="329px" zoomAndPan="magnify"><title>GUID class diagram</title><defs/><g><text fill="#000000" font-family="sans-serif" font-size="14" font-weight="bold" lengthAdjust="spacing" textLength="136.6815" x="89.5517" y="24.9659">GUID class diagram</text><!--class C_0015771458880914961975--><g class="entity" data-entity="C_0015771458880914961975" data-source-line="3" data-uid="ent0002" id="entity_C_0015771458880914961975"><rect fill="#F1F1F1" height="86.1358" rx="2.5" ry="2.5" style="stroke:#181818;stroke-width:0.5;" width="229.0272" x="50.38" y="260.1979"/><ellipse cx="106.8418" cy="276.1979" fill="#ADD1B2" rx="11" ry="11" style="stroke:#181818;stroke-width:1;"/><path d="M106.9512,271.7292 Q106.0293,271.7292 105.2949,272.0417 Q104.5762,272.3542 104.0762,272.9479 Q103.5762,273.526 103.2949,274.401 Q103.0293,275.276 103.0293,276.3698 Q103.0293,277.8073 103.4668,278.8542 Q103.9199,279.901 104.7637,280.4479 Q105.623,280.9948 106.9355,280.9948 Q107.7168,280.9948 108.4043,280.8698 Q109.1074,280.7292 110.1074,280.4167 L110.1074,282.2917 Q109.248,282.6198 108.4824,282.7448 Q107.7324,282.8698 106.7168,282.8698 Q104.7949,282.8698 103.4824,282.0729 Q102.1855,281.2604 101.5293,279.7917 Q100.873,278.3073 100.873,276.3385 Q100.873,274.9167 101.2637,273.7448 Q101.6699,272.5573 102.4512,271.6823 Q103.2324,270.8073 104.373,270.3385 Q105.5137,269.8542 106.9824,269.8542 Q107.9355,269.8542 108.8262,270.0573 Q109.7324,270.2448 110.6699,270.7135 L109.8418,272.4948 Q109.0605,272.1198 108.4043,271.9323 Q107.748,271.7292 106.9512,271.7292 Z " fill="#000000"/><text fill="#000000" font-family="sans-serif" font-size="14" lengthAdjust="spacing" textLength="107.6036" x="127.3418" y="281.6299">GUID_generator</text><line style="stroke:#181818;stroke-width:0.5;" x1="51.38" x2="278.4072" y1="292.1979" y2="292.1979"/><ellipse cx="61.38" cy="307.2319" fill="#84BE84" rx="3" ry="3" style="stroke:#038048;stroke-width:1;"/><text fill="#000000" font-family="sans-serif" font-size="14" lengthAdjust="spacing" text-decoration="underline" textLength="203.0272" x="70.38" y="311.1639">generate_GUID() : unsigned int</text><line style="stroke:#181818;stroke-width:0.5;" x1="51.38" x2="278.4072" y1="319.2658" y2="319.2658"/><rect fill="none" height="6" style="stroke:#C82930;stroke-width:1;" width="6" x="58.38" y="331.2998"/><text fill="#000000" font-family="sans-serif" font-size="14" lengthAdjust="spacing" text-decoration="underline" textLength="124.9075" x="70.38" y="338.2318">m_id : unsigned int</text></g><!--class C_0002861868129913488643--><g class="entity" data-entity="C_0002861868129913488643" data-source-line="9" data-uid="ent0003" id="entity_C_0002861868129913488643"><rect fill="#F1F1F1" height="178.4075" rx="2.5" ry="2.5" style="stroke:#181818;stroke-width:0.5;" width="315.7849" x="7" y="47.0679"/><ellipse cx="142.9465" cy="63.0679" fill="#ADD1B2" rx="11" ry="11" style="stroke:#181818;stroke-width:1;"/><path d="M143.0559,58.5992 Q142.134,58.5992 141.3997,58.9117 Q140.6809,59.2242 140.1809,59.8179 Q139.6809,60.396 139.3997,61.271 Q139.134,62.146 139.134,63.2398 Q139.134,64.6773 139.5715,65.7242 Q140.0247,66.771 140.8684,67.3179 Q141.7278,67.8648 143.0403,67.8648 Q143.8215,67.8648 144.509,67.7398 Q145.2122,67.5992 146.2122,67.2867 L146.2122,69.1617 Q145.3528,69.4898 144.5872,69.6148 Q143.8372,69.7398 142.8215,69.7398 Q140.8997,69.7398 139.5872,68.9429 Q138.2903,68.1304 137.634,66.6617 Q136.9778,65.1773 136.9778,63.2085 Q136.9778,61.7867 137.3684,60.6148 Q137.7747,59.4273 138.5559,58.5523 Q139.3372,57.6773 140.4778,57.2085 Q141.6184,56.7242 143.0872,56.7242 Q144.0403,56.7242 144.9309,56.9273 Q145.8372,57.1148 146.7747,57.5835 L145.9465,59.3648 Q145.1653,58.9898 144.509,58.8023 Q143.8528,58.5992 143.0559,58.5992 Z " fill="#000000"/><text fill="#000000" font-family="sans-serif" font-size="14" lengthAdjust="spacing" textLength="35.3919" x="163.4465" y="68.4999">GUID</text><line style="stroke:#181818;stroke-width:0.5;" x1="8" x2="321.7849" y1="79.0679" y2="79.0679"/><ellipse cx="18" cy="94.1019" fill="#84BE84" rx="3" ry="3" style="stroke:#038048;stroke-width:1;"/><text fill="#000000" font-family="sans-serif" font-size="14" lengthAdjust="spacing" textLength="82.6277" x="27" y="98.0339">GUID() : void</text><ellipse cx="18" cy="113.1698" fill="#84BE84" rx="3" ry="3" style="stroke:#038048;stroke-width:1;"/><text fill="#000000" font-family="sans-serif" font-size="14" lengthAdjust="spacing" textLength="198.0992" x="27" y="117.1018">GUID(unsigned int guid) : void</text><ellipse cx="18" cy="132.2377" fill="#84BE84" rx="3" ry="3" style="stroke:#038048;stroke-width:1;"/><text fill="#000000" font-family="sans-serif" font-size="14" lengthAdjust="spacing" textLength="221.3531" x="27" y="136.1697">~GUID() constexpr = default : void</text><line style="stroke:#181818;stroke-width:1;stroke-dasharray:1.0,2.0;" x1="8" x2="321.7849" y1="144.2717" y2="144.2717"/><ellipse cx="18" cy="159.3056" fill="#84BE84" rx="3" ry="3" style="stroke:#038048;stroke-width:1;"/><text fill="#000000" font-family="sans-serif" font-size="14" lengthAdjust="spacing" textLength="289.7849" x="27" y="163.2376">operator==(const GUID &amp; other) const : bool</text><line style="stroke:#181818;stroke-width:1;stroke-dasharray:1.0,2.0;" x1="8" x2="321.7849" y1="171.3396" y2="171.3396"/><ellipse cx="18" cy="186.3735" fill="#84BE84" rx="3" ry="3" style="stroke:#038048;stroke-width:1;"/><text fill="#000000" font-family="sans-serif" font-size="14" lengthAdjust="spacing" textLength="170.5053" x="27" y="190.3055">guid() const : unsigned int</text><line style="stroke:#181818;stroke-width:0.5;" x1="8" x2="321.7849" y1="198.4075" y2="198.4075"/><rect fill="none" height="6" style="stroke:#C82930;stroke-width:1;" width="6" x="15" y="210.4415"/><text fill="#000000" font-family="sans-serif" font-size="14" lengthAdjust="spacing" textLength="142.1694" x="27" y="217.3734">m_guid : unsigned int</text></g><!--SRC=[TP7DRi8m48JlUOeLXn94OyMG7wSIfrP5bUYnlKOcTeobO2FRePKGVVOcu0P4s-FkVhCxcdNIDHoMRozFK3NKMc2I2aEtGSDh1qw3aMBZkgxXbPDQ1MTgr2jAmHKtr6ap0chXiOnZdEOvJb92I5pWfCXmaQTUyjyO3i71EkfaTOIftyZBVdyuWGTebPL2SGPIkQ0iBsoqBIMx1OxN_WPNyOnac6G4pue2pnD2icH-vUglSUTgEdZOQybyUNqDH2lPPVxb-Kehw_Zdpi026AzfsxWV1g5WgdVdp1QBy4IUmxy3xJRSU7N7hxLkJdn_9BpqR_FeOkY9tq44uwKFay67T9l-lqf4xRQvXpqtjdicn2X3EC9f9DPrigvP5OnNg_VNONwI31Kk44OvXC-SQKDz6SrHNILuyWq0]--></g></svg>