<svg xmlns="http://www.w3.org/2000/svg" xmlns:xlink="http://www.w3.org/1999/xlink" contentStyleType="text/css" data-diagram-type="CLASS" height="400px" preserveAspectRatio="none" style="width:494px;height:400px;background:#FFFFFF;" version="1.1" viewBox="0 0 494 400" width="494px" zoomAndPan="magnify"><title>Hash class diagram</title><defs/><g><text fill="#000000" font-family="sans-serif" font-size="14" font-weight="bold" lengthAdjust="spacing" textLength="134.8755" x="175.7814" y="24.9659">Hash class diagram</text><!--class C_0011226729605516039040--><g class="entity" data-entity="C_0011226729605516039040" data-source-line="3" data-uid="ent0002" id="entity_C_0011226729605516039040"><rect fill="#F1F1F1" height="338.9508" rx="2.5" ry="2.5" style="stroke:#181818;stroke-width:0.5;" width="473.4384" x="7" y="47.0679"/><ellipse cx="222.6762" cy="63.0679" fill="#ADD1B2" rx="11" ry="11" style="stroke:#181818;stroke-width:1;"/><path d="M222.7856,58.5992 Q221.8637,58.5992 221.1294,58.9117 Q220.4106,59.2242 219.9106,59.8179 Q219.4106,60.396 219.1294,61.271 Q218.8637,62.146 218.8637,63.2398 Q218.8637,64.6773 219.3012,65.7242 Q219.7544,66.771 220.5981,67.3179 Q221.4575,67.8648 222.77,67.8648 Q223.5512,67.8648 224.2387,67.7398 Q224.9419,67.5992 225.9419,67.2867 L225.9419,69.1617 Q225.0825,69.4898 224.3169,69.6148 Q223.5669,69.7398 222.5512,69.7398 Q220.6294,69.7398 219.3169,68.9429 Q218.02,68.1304 217.3637,66.6617 Q216.7075,65.1773 216.7075,63.2085 Q216.7075,61.7867 217.0981,60.6148 Q217.5044,59.4273 218.2856,58.5523 Q219.0669,57.6773 220.2075,57.2085 Q221.3481,56.7242 222.8169,56.7242 Q223.77,56.7242 224.6606,56.9273 Q225.5669,57.1148 226.5044,57.5835 L225.6762,59.3648 Q224.895,58.9898 224.2387,58.8023 Q223.5825,58.5992 222.7856,58.5992 Z " fill="#000000"/><text fill="#000000" font-family="sans-serif" font-size="14" lengthAdjust="spacing" textLength="33.5859" x="243.1762" y="68.4999">Hash</text><line style="stroke:#181818;stroke-width:0.5;" x1="8" x2="479.4384" y1="79.0679" y2="79.0679"/><ellipse cx="18" cy="94.1019" fill="#84BE84" rx="3" ry="3" style="stroke:#038048;stroke-width:1;"/><text fill="#000000" font-family="sans-serif" font-size="14" lengthAdjust="spacing" textLength="142.6034" x="27" y="98.0339">Hash() = default : void</text><ellipse cx="18" cy="113.1698" fill="#84BE84" rx="3" ry="3" style="stroke:#038048;stroke-width:1;"/><text fill="#000000" font-family="sans-serif" font-size="14" lengthAdjust="spacing" textLength="229.3191" x="27" y="117.1018">Hash(const Hash &amp;) = default : void</text><ellipse cx="18" cy="132.2377" fill="#84BE84" rx="3" ry="3" style="stroke:#038048;stroke-width:1;"/><text fill="#000000" font-family="sans-serif" font-size="14" lengthAdjust="spacing" textLength="200.3252" x="27" y="136.1697">Hash(Hash &amp;&amp;) = default : void</text><ellipse cx="18" cy="151.3056" fill="#84BE84" rx="3" ry="3" style="stroke:#038048;stroke-width:1;"/><text fill="#000000" font-family="sans-serif" font-size="14" lengthAdjust="spacing" textLength="246.945" x="27" y="155.2376">Hash(unsigned long long value) : void</text><line style="stroke:#181818;stroke-width:1;stroke-dasharray:1.0,2.0;" x1="8" x2="479.4384" y1="163.3396" y2="163.3396"/><ellipse cx="18" cy="178.3735" fill="#84BE84" rx="3" ry="3" style="stroke:#038048;stroke-width:1;"/><text fill="#000000" font-family="sans-serif" font-size="14" lengthAdjust="spacing" textLength="350.2646" x="27" y="182.3055">operator=(const Hash &amp;) constexpr = default : Hash &amp;</text><ellipse cx="18" cy="197.4415" fill="#84BE84" rx="3" ry="3" style="stroke:#038048;stroke-width:1;"/><text fill="#000000" font-family="sans-serif" font-size="14" lengthAdjust="spacing" textLength="321.2708" x="27" y="201.3734">operator=(Hash &amp;&amp;) constexpr = default : Hash &amp;</text><line style="stroke:#181818;stroke-width:1;stroke-dasharray:1.0,2.0;" x1="8" x2="479.4384" y1="209.4754" y2="209.4754"/><ellipse cx="18" cy="224.5094" fill="#84BE84" rx="3" ry="3" style="stroke:#038048;stroke-width:1;"/><text fill="#000000" font-family="sans-serif" font-size="14" lengthAdjust="spacing" textLength="283.7369" x="27" y="228.4414">operator!=(const Hash &amp; other) const : bool</text><ellipse cx="18" cy="243.5773" fill="#84BE84" rx="3" ry="3" style="stroke:#038048;stroke-width:1;"/><text fill="#000000" font-family="sans-serif" font-size="14" lengthAdjust="spacing" textLength="284.395" x="27" y="247.5093">operator+(const Hash &amp; other) const : Hash</text><ellipse cx="18" cy="262.6452" fill="#84BE84" rx="3" ry="3" style="stroke:#038048;stroke-width:1;"/><text fill="#000000" font-family="sans-serif" font-size="14" lengthAdjust="spacing" textLength="267.049" x="27" y="266.5772">operator+=(const Hash &amp; other) : Hash &amp;</text><ellipse cx="18" cy="281.7131" fill="#84BE84" rx="3" ry="3" style="stroke:#038048;stroke-width:1;"/><text fill="#000000" font-family="sans-serif" font-size="14" lengthAdjust="spacing" textLength="287.9789" x="27" y="285.6451">operator==(const Hash &amp; other) const : bool</text><line style="stroke:#181818;stroke-width:1;stroke-dasharray:1.0,2.0;" x1="8" x2="479.4384" y1="293.7471" y2="293.7471"/><ellipse cx="18" cy="308.781" fill="#84BE84" rx="3" ry="3" style="stroke:#038048;stroke-width:1;"/><text fill="#000000" font-family="sans-serif" font-size="14" lengthAdjust="spacing" text-decoration="underline" textLength="447.4384" x="27" y="312.713">from_raw_data(const unsigned char * data, unsigned int size) : Hash</text><ellipse cx="18" cy="327.849" fill="#84BE84" rx="3" ry="3" style="stroke:#038048;stroke-width:1;"/><text fill="#000000" font-family="sans-serif" font-size="14" lengthAdjust="spacing" text-decoration="underline" textLength="270.409" x="27" y="331.7809">from_string(const std::string &amp; str) : Hash</text><ellipse cx="18" cy="346.9169" fill="#84BE84" rx="3" ry="3" style="stroke:#038048;stroke-width:1;"/><text fill="#000000" font-family="sans-serif" font-size="14" lengthAdjust="spacing" textLength="221.1571" x="27" y="350.8489">value() const : unsigned long long</text><line style="stroke:#181818;stroke-width:0.5;" x1="8" x2="479.4384" y1="358.9508" y2="358.9508"/><rect fill="none" height="6" style="stroke:#C82930;stroke-width:1;" width="6" x="15" y="370.9848"/><text fill="#000000" font-family="sans-serif" font-size="14" lengthAdjust="spacing" textLength="192.8212" x="27" y="377.9168">m_value : unsigned long long</text></g><!--SRC=[ZLB9Ri8m4BtxAwOS2ZGaIbY2GE9KgUs1NdkDJEmabXmRsGDKHVnxin6M0kebohnjNcAZGCdXWzeCOacj1IPeQcXE94yGK8CHQOO5QdYCGYjIgpgbemFKmcla-q4m78RJuIpq9vCWz4SpV-mtmdiqx8bJPlJwi0364xgH27FOQi4Q8jRAOjti-Qwefk_p6sL5gZW3gLLQFxPKRdZ_AFCyukWrDnIrMLpjh2R-lJONwJLxxcfBF3ISRtgwN0KQCsuQV-5OQIrFOkUXjaJFjBU3RxJ-HuEYyTuYHH4Vm4cCpYD3Tn6ZI1jl-tVZZ1fuWP8Qd52X4ApuuSVzrsaMZL1fasMHpUSrKjGfNbgNKvrOxrJkxw6IA29k7bN2su838TrthigFB_2TmEg-gzJTv780MsviSRd1zq8lS8E9cwwIyIfXCUakbr-VBLzPsYcOUO4tXTuRPzhGPdH7NXAFW_ul]--></g></svg>