<?xml version="1.0" encoding="us-ascii" standalone="no"?><svg xmlns="http://www.w3.org/2000/svg" xmlns:xlink="http://www.w3.org/1999/xlink" contentStyleType="text/css" height="1120px" preserveAspectRatio="none" style="width:1235px;height:1120px;background:#FFFFFF;" version="1.1" viewBox="0 0 1235 1120" width="1235px" zoomAndPan="magnify"><defs/><g><!--class Model--><g id="elem_Model"><rect codeLine="3" fill="#F1F1F1" height="97.4648" id="Model" rx="2.5" ry="2.5" style="stroke:#181818;stroke-width:0.5;" width="444" x="355" y="7"/><ellipse cx="551.75" cy="23" fill="#A9DCDF" rx="11" ry="11" style="stroke:#181818;stroke-width:1.0;"/><path d="M551.6133,18.3481 L550.4595,23.4199 L552.7754,23.4199 Z M550.1191,16.1069 L553.1157,16.1069 L556.4609,28.5 L554.0122,28.5 L553.2485,25.437 L549.9697,25.437 L549.2227,28.5 L546.7739,28.5 Z " fill="#000000"/><text fill="#000000" font-family="sans-serif" font-size="14" font-style="italic" lengthAdjust="spacing" textLength="42" x="572.25" y="28.291">Model</text><line style="stroke:#181818;stroke-width:0.5;" x1="356" x2="798" y1="39" y2="39"/><polygon fill="none" points="366,47.7441,370,51.7441,366,55.7441,362,51.7441" style="stroke:#B38D22;stroke-width:1.0;"/><text fill="#000000" font-family="sans-serif" font-size="14" lengthAdjust="spacing" textLength="270" x="375" y="56.5352">m_root : std::shared_ptr&lt;Model_node&gt;</text><polygon fill="none" points="366,64.2324,370,68.2324,366,72.2324,362,68.2324" style="stroke:#B38D22;stroke-width:1.0;"/><text fill="#000000" font-family="sans-serif" font-size="14" lengthAdjust="spacing" textLength="418" x="375" y="73.0234">m_materials : std::vector&lt;std::shared_ptr&lt;Model_material&gt;&gt;</text><line style="stroke:#181818;stroke-width:0.5;" x1="356" x2="798" y1="79.9766" y2="79.9766"/><ellipse cx="366" cy="93.7207" fill="#84BE84" rx="3" ry="3" style="stroke:#038048;stroke-width:1.0;"/><text fill="#000000" font-family="sans-serif" font-size="14" font-style="italic" lengthAdjust="spacing" textLength="416" x="375" y="97.5117">load(const std::string&amp; path) : std::shared_ptr&lt;Model_node&gt;</text></g><!--class Model_assimp--><g id="elem_Model_assimp"><rect codeLine="10" fill="#F1F1F1" height="163.418" id="Model_assimp" rx="2.5" ry="2.5" style="stroke:#181818;stroke-width:0.5;" width="594" x="7" y="358.39"/><ellipse cx="251.25" cy="374.39" fill="#ADD1B2" rx="11" ry="11" style="stroke:#181818;stroke-width:1.0;"/><path d="M253.7231,380.5331 Q253.1421,380.8319 252.5029,380.9813 Q251.8638,381.1307 251.1582,381.1307 Q248.6514,381.1307 247.3315,379.4789 Q246.0117,377.827 246.0117,374.7059 Q246.0117,371.5765 247.3315,369.9247 Q248.6514,368.2728 251.1582,368.2728 Q251.8638,368.2728 252.5112,368.4222 Q253.1587,368.5716 253.7231,368.8705 L253.7231,371.5931 Q253.0923,371.0121 252.4988,370.7423 Q251.9053,370.4725 251.2744,370.4725 Q249.9297,370.4725 249.2449,371.5392 Q248.5601,372.6058 248.5601,374.7059 Q248.5601,376.7977 249.2449,377.8644 Q249.9297,378.931 251.2744,378.931 Q251.9053,378.931 252.4988,378.6612 Q253.0923,378.3915 253.7231,377.8104 Z " fill="#000000"/><text fill="#000000" font-family="sans-serif" font-size="14" lengthAdjust="spacing" textLength="97" x="271.75" y="379.681">Model_assimp</text><line style="stroke:#181818;stroke-width:0.5;" x1="8" x2="600" y1="390.39" y2="390.39"/><rect fill="none" height="6" style="stroke:#C82930;stroke-width:1.0;" width="6" x="15" y="401.1341"/><text fill="#000000" font-family="sans-serif" font-size="14" lengthAdjust="spacing" textLength="190" x="27" y="407.9252">importer : Assimp::Importer</text><line style="stroke:#181818;stroke-width:0.5;" x1="8" x2="600" y1="414.8783" y2="414.8783"/><ellipse cx="18" cy="428.6224" fill="#84BE84" rx="3" ry="3" style="stroke:#038048;stroke-width:1.0;"/><text fill="#000000" font-family="sans-serif" font-size="14" lengthAdjust="spacing" textLength="107" x="27" y="432.4134">Model_assimp()</text><ellipse cx="18" cy="445.1107" fill="#84BE84" rx="3" ry="3" style="stroke:#038048;stroke-width:1.0;"/><text fill="#000000" font-family="sans-serif" font-size="14" lengthAdjust="spacing" textLength="416" x="27" y="448.9017">load(const std::string&amp; path) : std::shared_ptr&lt;Model_node&gt;</text><rect fill="#F24D5C" height="6" style="stroke:#C82930;stroke-width:1.0;" width="6" x="15" y="458.599"/><text fill="#000000" font-family="sans-serif" font-size="14" lengthAdjust="spacing" textLength="500" x="27" y="465.39">processNode(assimpNode, assimpScene) : std::shared_ptr&lt;Model_node&gt;</text><rect fill="#F24D5C" height="6" style="stroke:#C82930;stroke-width:1.0;" width="6" x="15" y="475.0873"/><text fill="#000000" font-family="sans-serif" font-size="14" lengthAdjust="spacing" textLength="377" x="27" y="481.8783">processMesh(assimpMesh, assimpScene) : Model_mesh</text><rect fill="#F24D5C" height="6" style="stroke:#C82930;stroke-width:1.0;" width="6" x="15" y="491.5755"/><text fill="#000000" font-family="sans-serif" font-size="14" lengthAdjust="spacing" textLength="568" x="27" y="498.3666">loadMaterialTextures(assimpMaterial, type) : std::vector&lt;std::shared_ptr&lt;Image&gt;&gt;</text><rect fill="#F24D5C" height="6" style="stroke:#C82930;stroke-width:1.0;" width="6" x="15" y="508.0638"/><text fill="#000000" font-family="sans-serif" font-size="14" lengthAdjust="spacing" textLength="254" x="27" y="514.8548">processMaterials(assimpScene) : void</text></g><!--class Model_node--><g id="elem_Model_node"><rect codeLine="21" fill="#F1F1F1" height="146.9297" id="Model_node" rx="2.5" ry="2.5" style="stroke:#181818;stroke-width:0.5;" width="416" x="369" y="181.46"/><ellipse cx="530.75" cy="197.46" fill="#ADD1B2" rx="11" ry="11" style="stroke:#181818;stroke-width:1.0;"/><path d="M533.2231,203.6031 Q532.6421,203.9019 532.0029,204.0513 Q531.3638,204.2007 530.6582,204.2007 Q528.1514,204.2007 526.8315,202.5489 Q525.5117,200.897 525.5117,197.7759 Q525.5117,194.6465 526.8315,192.9947 Q528.1514,191.3428 530.6582,191.3428 Q531.3638,191.3428 532.0112,191.4922 Q532.6587,191.6416 533.2231,191.9405 L533.2231,194.6631 Q532.5923,194.0821 531.9988,193.8123 Q531.4053,193.5425 530.7744,193.5425 Q529.4297,193.5425 528.7449,194.6092 Q528.0601,195.6758 528.0601,197.7759 Q528.0601,199.8677 528.7449,200.9344 Q529.4297,202.001 530.7744,202.001 Q531.4053,202.001 531.9988,201.7312 Q532.5923,201.4615 533.2231,200.8804 Z " fill="#000000"/><text fill="#000000" font-family="sans-serif" font-size="14" lengthAdjust="spacing" textLength="84" x="551.25" y="202.751">Model_node</text><line style="stroke:#181818;stroke-width:0.5;" x1="370" x2="784" y1="213.46" y2="213.46"/><rect fill="none" height="6" style="stroke:#C82930;stroke-width:1.0;" width="6" x="377" y="224.2041"/><text fill="#000000" font-family="sans-serif" font-size="14" lengthAdjust="spacing" textLength="263" x="389" y="230.9952">m_meshes : std::vector&lt;Model_mesh&gt;</text><rect fill="none" height="6" style="stroke:#C82930;stroke-width:1.0;" width="6" x="377" y="240.6924"/><text fill="#000000" font-family="sans-serif" font-size="14" lengthAdjust="spacing" textLength="390" x="389" y="247.4834">m_children : std::vector&lt;std::shared_ptr&lt;Model_node&gt;&gt;</text><rect fill="none" height="6" style="stroke:#C82930;stroke-width:1.0;" width="6" x="377" y="257.1807"/><text fill="#000000" font-family="sans-serif" font-size="14" lengthAdjust="spacing" textLength="207" x="389" y="263.9717">m_localTransform : Matrix4x4</text><line style="stroke:#181818;stroke-width:0.5;" x1="370" x2="784" y1="270.9248" y2="270.9248"/><ellipse cx="380" cy="284.669" fill="#84BE84" rx="3" ry="3" style="stroke:#038048;stroke-width:1.0;"/><text fill="#000000" font-family="sans-serif" font-size="14" lengthAdjust="spacing" textLength="248" x="389" y="288.46">addMesh(mesh : Model_mesh) : void</text><ellipse cx="380" cy="301.1573" fill="#84BE84" rx="3" ry="3" style="stroke:#038048;stroke-width:1.0;"/><text fill="#000000" font-family="sans-serif" font-size="14" lengthAdjust="spacing" textLength="367" x="389" y="304.9483">addChild(child : std::shared_ptr&lt;Model_node&gt;) : void</text><ellipse cx="380" cy="317.6455" fill="#84BE84" rx="3" ry="3" style="stroke:#038048;stroke-width:1.0;"/><text fill="#000000" font-family="sans-serif" font-size="14" lengthAdjust="spacing" textLength="222" x="389" y="321.4366">getLocalTransform() : Matrix4x4</text></g><!--class Model_mesh--><g id="elem_Model_mesh"><rect codeLine="30" fill="#F1F1F1" height="130.4414" id="Model_mesh" rx="2.5" ry="2.5" style="stroke:#181818;stroke-width:0.5;" width="622" x="352" y="551.81"/><ellipse cx="615.75" cy="567.81" fill="#ADD1B2" rx="11" ry="11" style="stroke:#181818;stroke-width:1.0;"/><path d="M618.2231,573.9531 Q617.6421,574.2519 617.0029,574.4013 Q616.3638,574.5507 615.6582,574.5507 Q613.1514,574.5507 611.8315,572.8989 Q610.5117,571.247 610.5117,568.1259 Q610.5117,564.9965 611.8315,563.3447 Q613.1514,561.6928 615.6582,561.6928 Q616.3638,561.6928 617.0112,561.8422 Q617.6587,561.9916 618.2231,562.2905 L618.2231,565.0131 Q617.5923,564.4321 616.9988,564.1623 Q616.4053,563.8925 615.7744,563.8925 Q614.4297,563.8925 613.7449,564.9592 Q613.0601,566.0258 613.0601,568.1259 Q613.0601,570.2177 613.7449,571.2844 Q614.4297,572.351 615.7744,572.351 Q616.4053,572.351 616.9988,572.0812 Q617.5923,571.8115 618.2231,571.2304 Z " fill="#000000"/><text fill="#000000" font-family="sans-serif" font-size="14" lengthAdjust="spacing" textLength="86" x="636.25" y="573.101">Model_mesh</text><line style="stroke:#181818;stroke-width:0.5;" x1="353" x2="973" y1="583.81" y2="583.81"/><rect fill="none" height="6" style="stroke:#C82930;stroke-width:1.0;" width="6" x="360" y="594.5541"/><text fill="#000000" font-family="sans-serif" font-size="14" lengthAdjust="spacing" textLength="336" x="372" y="601.3452">m_geometry : std::shared_ptr&lt;Model_geometry&gt;</text><rect fill="none" height="6" style="stroke:#C82930;stroke-width:1.0;" width="6" x="360" y="611.0424"/><text fill="#000000" font-family="sans-serif" font-size="14" lengthAdjust="spacing" textLength="213" x="372" y="617.8334">m_materialIndex : unsigned int</text><line style="stroke:#181818;stroke-width:0.5;" x1="353" x2="973" y1="624.7866" y2="624.7866"/><ellipse cx="363" cy="638.5307" fill="#84BE84" rx="3" ry="3" style="stroke:#038048;stroke-width:1.0;"/><text fill="#000000" font-family="sans-serif" font-size="14" lengthAdjust="spacing" textLength="596" x="372" y="642.3217">Model_mesh(geometry : std::shared_ptr&lt;Model_geometry&gt;, materialIdx : unsigned int)</text><ellipse cx="363" cy="655.019" fill="#84BE84" rx="3" ry="3" style="stroke:#038048;stroke-width:1.0;"/><text fill="#000000" font-family="sans-serif" font-size="14" lengthAdjust="spacing" textLength="349" x="372" y="658.81">getGeometry() : std::shared_ptr&lt;Model_geometry&gt;</text><ellipse cx="363" cy="671.5073" fill="#84BE84" rx="3" ry="3" style="stroke:#038048;stroke-width:1.0;"/><text fill="#000000" font-family="sans-serif" font-size="14" lengthAdjust="spacing" textLength="224" x="372" y="675.2983">getMaterialIndex() : unsigned int</text></g><!--class Model_geometry--><g id="elem_Model_geometry"><rect codeLine="38" fill="#F1F1F1" height="212.8828" id="Model_geometry" rx="2.5" ry="2.5" style="stroke:#181818;stroke-width:0.5;" width="348" x="387" y="759.25"/><ellipse cx="499.75" cy="775.25" fill="#ADD1B2" rx="11" ry="11" style="stroke:#181818;stroke-width:1.0;"/><path d="M502.2231,781.3931 Q501.6421,781.6919 501.0029,781.8413 Q500.3638,781.9907 499.6582,781.9907 Q497.1514,781.9907 495.8315,780.3389 Q494.5117,778.687 494.5117,775.5659 Q494.5117,772.4365 495.8315,770.7847 Q497.1514,769.1328 499.6582,769.1328 Q500.3638,769.1328 501.0112,769.2822 Q501.6587,769.4316 502.2231,769.7305 L502.2231,772.4531 Q501.5923,771.8721 500.9988,771.6023 Q500.4053,771.3325 499.7744,771.3325 Q498.4297,771.3325 497.7449,772.3992 Q497.0601,773.4658 497.0601,775.5659 Q497.0601,777.6577 497.7449,778.7244 Q498.4297,779.791 499.7744,779.791 Q500.4053,779.791 500.9988,779.5212 Q501.5923,779.2515 502.2231,778.6704 Z " fill="#000000"/><text fill="#000000" font-family="sans-serif" font-size="14" lengthAdjust="spacing" textLength="114" x="520.25" y="780.541">Model_geometry</text><line style="stroke:#181818;stroke-width:0.5;" x1="388" x2="734" y1="791.25" y2="791.25"/><rect fill="none" height="6" style="stroke:#C82930;stroke-width:1.0;" width="6" x="395" y="801.9941"/><text fill="#000000" font-family="sans-serif" font-size="14" lengthAdjust="spacing" textLength="241" x="407" y="808.7852">m_positions : std::vector&lt;Vector3&gt;</text><rect fill="none" height="6" style="stroke:#C82930;stroke-width:1.0;" width="6" x="395" y="818.4824"/><text fill="#000000" font-family="sans-serif" font-size="14" lengthAdjust="spacing" textLength="250" x="407" y="825.2734">m_texCoords : std::vector&lt;Vector2&gt;</text><rect fill="none" height="6" style="stroke:#C82930;stroke-width:1.0;" width="6" x="395" y="834.9707"/><text fill="#000000" font-family="sans-serif" font-size="14" lengthAdjust="spacing" textLength="234" x="407" y="841.7617">m_normals : std::vector&lt;Vector3&gt;</text><rect fill="none" height="6" style="stroke:#C82930;stroke-width:1.0;" width="6" x="395" y="851.459"/><text fill="#000000" font-family="sans-serif" font-size="14" lengthAdjust="spacing" textLength="238" x="407" y="858.25">m_tangents : std::vector&lt;Vector3&gt;</text><rect fill="none" height="6" style="stroke:#C82930;stroke-width:1.0;" width="6" x="395" y="867.9473"/><text fill="#000000" font-family="sans-serif" font-size="14" lengthAdjust="spacing" textLength="259" x="407" y="874.7383">m_indices : std::vector&lt;unsigned int&gt;</text><line style="stroke:#181818;stroke-width:0.5;" x1="388" x2="734" y1="881.6914" y2="881.6914"/><ellipse cx="398" cy="895.4355" fill="#84BE84" rx="3" ry="3" style="stroke:#038048;stroke-width:1.0;"/><text fill="#000000" font-family="sans-serif" font-size="14" lengthAdjust="spacing" textLength="303" x="407" y="899.2266">getPositions() : const std::vector&lt;Vector3&gt;&amp;</text><ellipse cx="398" cy="911.9238" fill="#84BE84" rx="3" ry="3" style="stroke:#038048;stroke-width:1.0;"/><text fill="#000000" font-family="sans-serif" font-size="14" lengthAdjust="spacing" textLength="317" x="407" y="915.7148">getTexCoords() : const std::vector&lt;Vector2&gt;&amp;</text><ellipse cx="398" cy="928.4121" fill="#84BE84" rx="3" ry="3" style="stroke:#038048;stroke-width:1.0;"/><text fill="#000000" font-family="sans-serif" font-size="14" lengthAdjust="spacing" textLength="298" x="407" y="932.2031">getNormals() : const std::vector&lt;Vector3&gt;&amp;</text><ellipse cx="398" cy="944.9004" fill="#84BE84" rx="3" ry="3" style="stroke:#038048;stroke-width:1.0;"/><text fill="#000000" font-family="sans-serif" font-size="14" lengthAdjust="spacing" textLength="305" x="407" y="948.6914">getTangents() : const std::vector&lt;Vector3&gt;&amp;</text><ellipse cx="398" cy="961.3887" fill="#84BE84" rx="3" ry="3" style="stroke:#038048;stroke-width:1.0;"/><text fill="#000000" font-family="sans-serif" font-size="14" lengthAdjust="spacing" textLength="322" x="407" y="965.1797">getIndices() : const std::vector&lt;unsigned int&gt;&amp;</text></g><!--class Model_material--><g id="elem_Model_material"><rect codeLine="51" fill="#F1F1F1" height="163.418" id="Model_material" rx="2.5" ry="2.5" style="stroke:#181818;stroke-width:0.5;" width="458" x="770" y="783.98"/><ellipse cx="942.25" cy="799.98" fill="#ADD1B2" rx="11" ry="11" style="stroke:#181818;stroke-width:1.0;"/><path d="M944.7231,806.1231 Q944.1421,806.4219 943.5029,806.5713 Q942.8638,806.7207 942.1582,806.7207 Q939.6514,806.7207 938.3315,805.0689 Q937.0117,803.417 937.0117,800.2959 Q937.0117,797.1665 938.3315,795.5147 Q939.6514,793.8628 942.1582,793.8628 Q942.8638,793.8628 943.5112,794.0122 Q944.1587,794.1616 944.7231,794.4605 L944.7231,797.1831 Q944.0923,796.6021 943.4988,796.3323 Q942.9053,796.0625 942.2744,796.0625 Q940.9297,796.0625 940.2449,797.1292 Q939.5601,798.1958 939.5601,800.2959 Q939.5601,802.3877 940.2449,803.4544 Q940.9297,804.521 942.2744,804.521 Q942.9053,804.521 943.4988,804.2512 Q944.0923,803.9815 944.7231,803.4004 Z " fill="#000000"/><text fill="#000000" font-family="sans-serif" font-size="14" lengthAdjust="spacing" textLength="105" x="962.75" y="805.271">Model_material</text><line style="stroke:#181818;stroke-width:0.5;" x1="771" x2="1227" y1="815.98" y2="815.98"/><rect fill="none" height="6" style="stroke:#C82930;stroke-width:1.0;" width="6" x="778" y="826.7241"/><text fill="#000000" font-family="sans-serif" font-size="14" lengthAdjust="spacing" textLength="164" x="790" y="833.5152">m_ambientColor : Color</text><rect fill="none" height="6" style="stroke:#C82930;stroke-width:1.0;" width="6" x="778" y="843.2124"/><text fill="#000000" font-family="sans-serif" font-size="14" lengthAdjust="spacing" textLength="155" x="790" y="850.0034">m_diffuseColor : Color</text><rect fill="none" height="6" style="stroke:#C82930;stroke-width:1.0;" width="6" x="778" y="859.7007"/><text fill="#000000" font-family="sans-serif" font-size="14" lengthAdjust="spacing" textLength="166" x="790" y="866.4917">m_specularColor : Color</text><rect fill="none" height="6" style="stroke:#C82930;stroke-width:1.0;" width="6" x="778" y="876.189"/><text fill="#000000" font-family="sans-serif" font-size="14" lengthAdjust="spacing" textLength="127" x="790" y="882.98">m_shininess : float</text><rect fill="none" height="6" style="stroke:#C82930;stroke-width:1.0;" width="6" x="778" y="892.6773"/><text fill="#000000" font-family="sans-serif" font-size="14" lengthAdjust="spacing" textLength="112" x="790" y="899.4683">m_opacity : float</text><rect fill="none" height="6" style="stroke:#C82930;stroke-width:1.0;" width="6" x="778" y="909.1655"/><text fill="#000000" font-family="sans-serif" font-size="14" lengthAdjust="spacing" textLength="432" x="790" y="915.9566">m_textures : std::map&lt;TextureType, std::shared_ptr&lt;Image&gt;&gt;</text><line style="stroke:#181818;stroke-width:0.5;" x1="771" x2="1227" y1="922.9097" y2="922.9097"/><ellipse cx="781" cy="936.6538" fill="#84BE84" rx="3" ry="3" style="stroke:#038048;stroke-width:1.0;"/><text fill="#000000" font-family="sans-serif" font-size="14" lengthAdjust="spacing" textLength="393" x="790" y="940.4448">getTexture(type : TextureType) : std::shared_ptr&lt;Image&gt;</text></g><!--class Image--><g id="elem_Image"><rect codeLine="62" fill="#F1F1F1" height="64.4883" id="Image" rx="2.5" ry="2.5" style="stroke:#181818;stroke-width:0.5;" width="432" x="112" y="1049.13"/><ellipse cx="302.75" cy="1065.13" fill="#ADD1B2" rx="11" ry="11" style="stroke:#181818;stroke-width:1.0;"/><path d="M305.2231,1071.2731 Q304.6421,1071.5719 304.0029,1071.7213 Q303.3638,1071.8707 302.6582,1071.8707 Q300.1514,1071.8707 298.8315,1070.2189 Q297.5117,1068.567 297.5117,1065.4459 Q297.5117,1062.3165 298.8315,1060.6647 Q300.1514,1059.0128 302.6582,1059.0128 Q303.3638,1059.0128 304.0112,1059.1622 Q304.6587,1059.3116 305.2231,1059.6105 L305.2231,1062.3331 Q304.5923,1061.7521 303.9988,1061.4823 Q303.4053,1061.2125 302.7744,1061.2125 Q301.4297,1061.2125 300.7449,1062.2792 Q300.0601,1063.3458 300.0601,1065.4459 Q300.0601,1067.5377 300.7449,1068.6044 Q301.4297,1069.671 302.7744,1069.671 Q303.4053,1069.671 303.9988,1069.4012 Q304.5923,1069.1315 305.2231,1068.5504 Z " fill="#000000"/><text fill="#000000" font-family="sans-serif" font-size="14" lengthAdjust="spacing" textLength="42" x="323.25" y="1070.421">Image</text><line style="stroke:#181818;stroke-width:0.5;" x1="113" x2="543" y1="1081.13" y2="1081.13"/><line style="stroke:#181818;stroke-width:0.5;" x1="113" x2="543" y1="1089.13" y2="1089.13"/><ellipse cx="123" cy="1102.8741" fill="#84BE84" rx="3" ry="3" style="stroke:#038048;stroke-width:1.0;"/><text fill="#000000" font-family="sans-serif" font-size="14" lengthAdjust="spacing" text-decoration="underline" textLength="406" x="132" y="1106.6652">create(const std::string&amp; filePath) : std::shared_ptr&lt;Image&gt;</text></g><!--reverse link Model to Model_assimp--><g id="link_Model_Model_assimp"><path d="M428.6874,113.3701 C393.3974,132.1901 374.48,148.81 351,181.46 C314.3,232.49 303.53,303.54 301.39,358.11 " fill="none" id="Model-backto-Model_assimp" style="stroke:#181818;stroke-width:1.0;"/><polygon fill="none" points="444.57,104.9,425.864,108.0759,431.5108,118.6643,444.57,104.9" style="stroke:#181818;stroke-width:1.0;"/></g><!--link Model to Model_node--><g id="link_Model_Model_node"><path codeLine="68" d="M577,104.72 C577,127.63 577,137.55 577,163.01 " fill="none" id="Model-to-Model_node" style="stroke:#181818;stroke-width:1.0;"/><polygon fill="none" points="577,181.01,583,163.01,571,163.01,577,181.01" style="stroke:#181818;stroke-width:1.0;"/><polygon fill="#000000" points="582,148.1153,584.9389,139.0702,579.0611,139.0702,582,148.1153" style="stroke:#000000;stroke-width:1.0;"/><text fill="#000000" font-family="sans-serif" font-size="13" lengthAdjust="spacing" textLength="102" x="591" y="148.0284">uses (root node)</text></g><!--link Model to Model_material--><g id="link_Model_Model_material"><path codeLine="69" d="M799.46,98.83 C884.27,119.76 966.72,147.82 992,181.46 C1126.08,359.85 1070.2686,633.5084 1029.4486,772.1784 " fill="none" id="Model-to-Model_material" style="stroke:#181818;stroke-width:1.0;"/><polygon fill="none" points="1026.06,783.69,1031.5915,779.0637,1029.4486,772.1784,1023.9171,776.8046,1026.06,783.69" style="stroke:#181818;stroke-width:1.0;"/><polygon fill="#000000" points="1081.5561,444.9869,1081.4137,435.4774,1075.8514,437.3773,1081.5561,444.9869" style="stroke:#000000;stroke-width:1.0;"/><text fill="#000000" font-family="sans-serif" font-size="13" lengthAdjust="spacing" textLength="60" x="1088.94" y="445.1684">has many</text></g><!--reverse link Model_node to Model_mesh--><g id="link_Model_node_Model_mesh"><path codeLine="72" d="M607.8157,340.2437 C611.0457,350.1037 610.38,348.74 613,358.39 C630.59,423.25 644.51,498.9 653.15,551.37 " fill="none" id="Model_node-backto-Model_mesh" style="stroke:#181818;stroke-width:1.0;"/><polygon fill="none" points="604.08,328.84,602.1466,335.7871,607.8157,340.2437,609.7491,333.2966,604.08,328.84" style="stroke:#181818;stroke-width:1.0;"/><text fill="#000000" font-family="sans-serif" font-size="13" lengthAdjust="spacing" textLength="54" x="648.29" y="445.1684">contains</text><text fill="#000000" font-family="sans-serif" font-size="13" lengthAdjust="spacing" textLength="6" x="645.7445" y="540.9534">*</text></g><!--reverse link Model_node to Model_node--><g id="link_Model_node_Model_node"><path codeLine="73" d="M797.1077,239.5757 C818.3077,242.9857 820,246.83 820,254.92 C820,263.02 806.46,268.77 785.26,272.18 " fill="none" id="Model_node-backto-Model_node" style="stroke:#181818;stroke-width:1.0;"/><polygon fill="none" points="785.26,237.67,790.5486,242.5721,797.1077,239.5757,791.8191,234.6736,785.26,237.67" style="stroke:#181818;stroke-width:1.0;"/><polygon fill="#000000" points="825.794,260.0118,827.2592,250.6148,821.456,251.5482,825.794,260.0118" style="stroke:#000000;stroke-width:1.0;"/><text fill="#000000" font-family="sans-serif" font-size="13" lengthAdjust="spacing" textLength="146" x="839" y="259.9884">has children (recursive)</text><text fill="#000000" font-family="sans-serif" font-size="13" lengthAdjust="spacing" textLength="6" x="792.8522" y="270.1045">*</text></g><!--reverse link Model_mesh to Model_geometry--><g id="link_Model_mesh_Model_geometry"><path codeLine="75" d="M574.9252,691.9695 C567.5352,701.1295 568.64,701.72 564,712.25 C557.6,726.78 554.03,742.88 552.32,759.01 " fill="none" id="Model_mesh-backto-Model_geometry" style="stroke:#181818;stroke-width:1.0;"/><polygon fill="#181818" points="582.46,682.63,575.5794,684.7881,574.9252,691.9695,581.8058,689.8114,582.46,682.63" style="stroke:#181818;stroke-width:1.0;"/><polygon fill="#000000" points="567.4024,725.6432,573.0773,718.0112,567.5076,716.1332,567.4024,725.6432" style="stroke:#000000;stroke-width:1.0;"/><text fill="#000000" font-family="sans-serif" font-size="13" lengthAdjust="spacing" textLength="69" x="578" y="725.8184">aggregates</text><text fill="#000000" font-family="sans-serif" font-size="13" lengthAdjust="spacing" textLength="8" x="543.4284" y="748.5609">1</text></g><!--link Model_mesh to Model_material--><g id="link_Model_mesh_Model_material"><path codeLine="76" d="M750.84,682.51 C792.94,713.42 838.9631,747.2097 883.6631,780.0197 " fill="none" id="Model_mesh-to-Model_material" style="stroke:#181818;stroke-width:1.0;stroke-dasharray:7.0,7.0;"/><polygon fill="#181818" points="888.5,783.57,883.6115,775.02,884.4693,780.6114,878.8778,781.4691,888.5,783.57" style="stroke:#181818;stroke-width:1.0;"/><text fill="#000000" font-family="sans-serif" font-size="13" lengthAdjust="spacing" textLength="134" x="811.88" y="725.8184">references (via index)</text></g><!--reverse link Model_material to Image--><g id="link_Model_material_Image"><path codeLine="78" d="M806.6375,952.1996 C784.6575,960.9296 773.53,964.84 752,972.13 C661.52,1002.79 557.62,1029.45 475.32,1048.64 " fill="none" id="Model_material-backto-Image" style="stroke:#181818;stroke-width:1.0;"/><polygon fill="none" points="817.79,947.77,810.7372,946.2673,806.6375,952.1996,813.6903,953.7023,817.79,947.77" style="stroke:#181818;stroke-width:1.0;"/><polygon fill="#000000" points="649.0492,1012.1827,658.5553,1012.4766,656.9125,1006.8329,649.0492,1012.1827" style="stroke:#000000;stroke-width:1.0;"/><text fill="#000000" font-family="sans-serif" font-size="13" lengthAdjust="spacing" textLength="99" x="662.85" y="1015.6984">holds (textures)</text><text fill="#000000" font-family="sans-serif" font-size="13" lengthAdjust="spacing" textLength="6" x="497.733" y="1038.3178">*</text></g><!--link Model_assimp to Image--><g id="link_Model_assimp_Image"><path codeLine="79" d="M307.04,522.06 C312.38,664.35 323.0049,947.2442 326.5949,1042.8542 " fill="none" id="Model_assimp-to-Image" style="stroke:#181818;stroke-width:1.0;stroke-dasharray:7.0,7.0;"/><polygon fill="#181818" points="326.82,1048.85,330.4795,1039.7063,326.6324,1043.8535,322.4851,1040.0064,326.82,1048.85" style="stroke:#181818;stroke-width:1.0;"/><text fill="#000000" font-family="sans-serif" font-size="13" lengthAdjust="spacing" textLength="125" x="315.69" y="725.8184">uses (Image::create)</text></g><!--SRC=[fLPHQzim47xthn0Tj7QN5BRroPH0by48jAMiPQz1bIwEm9QCf8I4hlzz9rboR2TfC_QIsF9tTzzz9t_o1RbzCLPJPibtQe1CIsfCGkCQSxVaNd4eoMj2o2TIpRLIbkJ4M9xdPaary7bjzOq7pIN-JWAmeXQqeAM9w3Kmg_JDuSY8dhZmp-GrSdWZfQ8yPKeQ6ufQBMHnJcfgbza7JDwIv89CbMGQB91PLPTGWRJK2YL3ivqUvtWbgfh0neBatSR71DULHefOyDQZydmMbZpXRe8qyql_GzoLhBLYOCm3BgHDOdSv8itr4mC9_v3c7imof76NUsd26F2HZtBaxyDCdb6GbGOJmyFoYDXjlQDmPBopYXOmwLE9EoCTS5WhmPkPDTB_e9QI9wjNpDVlpSer66PJUTemt6YxZYO1nfQYv1haIJlIAnWZIyLG1qsbMIXTERaeJdDplRdsewQSUtrTiPwMRLS1DNKCKi_Z_T7r0WkmTpq2QTQZW99rfV4ieZG5g0gitXuj5m6nrVWcpYI73KQjf16514w4j9sjxegafoSVaJOl7sRDOfC_0phDJcBhO-wxT7rWZ_10cfPmbATMHZWt66wUt_xlMnJ5mcQgbEQ7OLyZJE9izXrlc8lA0ate0vIGNB2zFTtjhPNWCVRWs-yupY3pUGnuZjsy6_1r5_3Gz7Lo_j3XgVXPq-iHUA_dyxtD7kRVJfHMBmABJrMfd5lx__28YyLYPU3G8rC3MvLK7tos5598D2vSNw0nsh2kQig4tGvMRN3BEBcArZV1GP_HBqVak4F6uJXiwimLStH23xqLJN1Zch_0g9LcGExe5a-gr7bhAHO2U1OaysYl51wnnfs3x8tWuOWQ7Zgf5gA4noEdrQwmhrpwCnMLgatIcFTu_6VIzMfyCGsgaleF2BUIaKaBLSDfvcH93Ng6t28gIJfvr7XCpYxFkbxdTusbGfhZmC31PMsFWLJZqBKHQyybwMIyTB5VpeQkaHDQ51eAP6aY-oRWwcgotuA61M0TzngdQq5n0wD7PMsX28n4c-aWHrMYqQHn8xKwnUyJLojY6qtzNPutayoIlm00]--></g></svg>