<?xml version="1.0" encoding="us-ascii" standalone="no"?><svg xmlns="http://www.w3.org/2000/svg" xmlns:xlink="http://www.w3.org/1999/xlink" contentStyleType="text/css" height="567px" preserveAspectRatio="none" style="width:1899px;height:567px;background:#FFFFFF;" version="1.1" viewBox="0 0 1899 567" width="1899px" zoomAndPan="magnify"><defs/><g><text fill="#000000" font-family="sans-serif" font-size="14" font-weight="bold" lengthAdjust="spacing" textLength="293.8125" x="795.5938" y="24.9659">RHI_linker: RHI&#36164;&#28304;&#19982;&#28210;&#26579;&#22120;&#21069;&#31471;&#30340;&#20132;&#20114;&#26041;&#24335;</text><!--class RHI_Device--><g id="elem_RHI_Device"><rect codeLine="18" fill="#F1F1F1" height="110.6158" id="RHI_Device" rx="2.5" ry="2.5" style="stroke:#181818;stroke-width:0.5;" width="397" x="1252.5" y="181.7639"/><ellipse cx="1412.25" cy="204.47" fill="#A9DCDF" rx="11" ry="11" style="stroke:#181818;stroke-width:1.0;"/><path d="M1415.5938,209.72 L1414.125,205.97 L1409.6875,205.97 L1408.25,209.72 L1406.125,209.72 L1411.0781,197.0012 L1412.8281,197.0012 L1417.75,209.72 L1415.5938,209.72 Z M1412.25,200.7668 Q1412.2031,200.6106 1412.0781,200.2512 Q1411.9531,199.8918 1411.8438,199.5168 Q1411.7344,199.1262 1411.9375,199.0637 Q1412.0938,199.2512 1412,199.6106 Q1411.9063,199.9543 1411.8125,200.2512 Q1411.7188,200.5325 1411.6406,200.7668 L1410.4063,204.0793 L1413.4844,204.0793 L1412.25,200.7668 Z " fill="#000000"/><text fill="#000000" font-family="sans-serif" font-size="12" font-style="italic" lengthAdjust="spacing" textLength="65" x="1434.75" y="199.592">&#171;RHIDevice&#187;</text><text fill="#000000" font-family="sans-serif" font-size="14" font-style="italic" lengthAdjust="spacing" textLength="69" x="1432.75" y="218.074">RHI_Device</text><line style="stroke:#181818;stroke-width:0.5;" x1="1253.5" x2="1648.5" y1="227.176" y2="227.176"/><ellipse cx="1263.5" cy="242.2099" fill="#84BE84" rx="3" ry="3" style="stroke:#038048;stroke-width:1.0;"/><text fill="#000000" font-family="sans-serif" font-size="14" font-style="italic" lengthAdjust="spacing" textLength="371" x="1272.5" y="246.1419">create_specific_texture(params: ...): RHI_Texture_Resource*</text><ellipse cx="1263.5" cy="261.2778" fill="#84BE84" rx="3" ry="3" style="stroke:#038048;stroke-width:1.0;"/><text fill="#000000" font-family="sans-serif" font-size="14" font-style="italic" lengthAdjust="spacing" textLength="353" x="1272.5" y="265.2098">create_specific_buffer(params: ...): RHI_Buffer_Resource*</text><ellipse cx="1263.5" cy="280.3458" fill="#84BE84" rx="3" ry="3" style="stroke:#038048;stroke-width:1.0;"/><text fill="#000000" font-family="sans-serif" font-size="14" font-style="italic" lengthAdjust="spacing" textLength="297" x="1272.5" y="284.2777">destroy_rhi_resource(resource_handle: ...): void</text></g><!--class RendererFrontend--><g id="elem_RendererFrontend"><rect codeLine="26" fill="#F1F1F1" height="175.8195" id="RendererFrontend" rx="2.5" ry="2.5" style="stroke:#181818;stroke-width:0.5;" width="425" x="7" y="217.1539"/><ellipse cx="153.25" cy="239.86" fill="#ADD1B2" rx="11" ry="11" style="stroke:#181818;stroke-width:1.0;"/><path d="M153.3594,235.3912 Q152.4375,235.3912 151.7031,235.7037 Q150.9844,236.0162 150.4844,236.61 Q149.9844,237.1881 149.7031,238.0631 Q149.4375,238.9381 149.4375,240.0318 Q149.4375,241.4693 149.875,242.5162 Q150.3281,243.5631 151.1719,244.11 Q152.0313,244.6568 153.3438,244.6568 Q154.125,244.6568 154.8125,244.5318 Q155.5156,244.3912 156.5156,244.0787 L156.5156,245.9537 Q155.6563,246.2818 154.8906,246.4068 Q154.1406,246.5318 153.125,246.5318 Q151.2031,246.5318 149.8906,245.735 Q148.5938,244.9225 147.9375,243.4537 Q147.2813,241.9693 147.2813,240.0006 Q147.2813,238.5787 147.6719,237.4068 Q148.0781,236.2193 148.8594,235.3443 Q149.6406,234.4693 150.7813,234.0006 Q151.9219,233.5162 153.3906,233.5162 Q154.3438,233.5162 155.2344,233.7193 Q156.1406,233.9068 157.0781,234.3756 L156.25,236.1568 Q155.4688,235.7818 154.8125,235.5943 Q154.1563,235.3912 153.3594,235.3912 Z " fill="#000000"/><text fill="#000000" font-family="sans-serif" font-size="12" font-style="italic" lengthAdjust="spacing" textLength="110" x="180.75" y="234.982">&#171;RendererFrontend&#187;</text><text fill="#000000" font-family="sans-serif" font-size="14" lengthAdjust="spacing" textLength="124" x="173.75" y="253.464">RendererFrontend</text><line style="stroke:#181818;stroke-width:0.5;" x1="8" x2="431" y1="262.566" y2="262.566"/><rect fill="none" height="6" style="stroke:#C82930;stroke-width:1.0;" width="6" x="15" y="274.5999"/><text fill="#000000" font-family="sans-serif" font-size="14" lengthAdjust="spacing" textLength="177" x="27" y="281.5319">m_rhi_device: RHI_Device*</text><rect fill="none" height="6" style="stroke:#C82930;stroke-width:1.0;" width="6" x="15" y="293.6678"/><text fill="#000000" font-family="sans-serif" font-size="14" lengthAdjust="spacing" textLength="352" x="27" y="300.5998">m_texture_linker: RHI_linker&lt;RHI_Texture_Resource&gt;</text><rect fill="none" height="6" style="stroke:#C82930;stroke-width:1.0;" width="6" x="15" y="312.7358"/><text fill="#000000" font-family="sans-serif" font-size="14" lengthAdjust="spacing" textLength="399" x="27" y="319.6677">m_material_buffer_linker: RHI_linker&lt;RHI_Buffer_Resource&gt;</text><line style="stroke:#181818;stroke-width:0.5;" x1="8" x2="431" y1="327.7697" y2="327.7697"/><ellipse cx="18" cy="342.8037" fill="#84BE84" rx="3" ry="3" style="stroke:#038048;stroke-width:1.0;"/><text fill="#000000" font-family="sans-serif" font-size="14" lengthAdjust="spacing" textLength="265" x="27" y="346.7357">RendererFrontend(device: RHI_Device*)</text><ellipse cx="18" cy="361.8716" fill="#84BE84" rx="3" ry="3" style="stroke:#038048;stroke-width:1.0;"/><text fill="#000000" font-family="sans-serif" font-size="14" lengthAdjust="spacing" textLength="254" x="27" y="365.8036">initialize_resources(): void ' &#21021;&#22987;&#21270;&#36164;&#28304;</text><ellipse cx="18" cy="380.9395" fill="#84BE84" rx="3" ry="3" style="stroke:#038048;stroke-width:1.0;"/><text fill="#000000" font-family="sans-serif" font-size="14" lengthAdjust="spacing" textLength="202" x="27" y="384.8715">render_scene(): void ' &#28210;&#26579;&#22330;&#26223;</text></g><!--class RHI_linker--><g id="elem_RHI_linker"><rect codeLine="37" fill="#F1F1F1" height="509.9741" id="RHI_linker" rx="2.5" ry="2.5" style="stroke:#181818;stroke-width:0.5;" width="450" x="645" y="50.0839"/><ellipse cx="788.25" cy="72.79" fill="#ADD1B2" rx="11" ry="11" style="stroke:#181818;stroke-width:1.0;"/><path d="M788.3594,68.3212 Q787.4375,68.3212 786.7031,68.6337 Q785.9844,68.9462 785.4844,69.54 Q784.9844,70.1181 784.7031,70.9931 Q784.4375,71.8681 784.4375,72.9618 Q784.4375,74.3993 784.875,75.4462 Q785.3281,76.4931 786.1719,77.04 Q787.0313,77.5868 788.3438,77.5868 Q789.125,77.5868 789.8125,77.4618 Q790.5156,77.3212 791.5156,77.0087 L791.5156,78.8837 Q790.6563,79.2118 789.8906,79.3368 Q789.1406,79.4618 788.125,79.4618 Q786.2031,79.4618 784.8906,78.665 Q783.5938,77.8525 782.9375,76.3837 Q782.2813,74.8993 782.2813,72.9306 Q782.2813,71.5087 782.6719,70.3368 Q783.0781,69.1493 783.8594,68.2743 Q784.6406,67.3993 785.7813,66.9306 Q786.9219,66.4462 788.3906,66.4462 Q789.3438,66.4462 790.2344,66.6493 Q791.1406,66.8368 792.0781,67.3056 L791.25,69.0868 Q790.4688,68.7118 789.8125,68.5243 Q789.1563,68.3212 788.3594,68.3212 Z " fill="#000000"/><text fill="#000000" font-family="sans-serif" font-size="12" font-style="italic" lengthAdjust="spacing" textLength="62" x="811.75" y="67.912">&#171;Template&#187;</text><text fill="#000000" font-family="sans-serif" font-size="14" lengthAdjust="spacing" textLength="68" x="808.75" y="86.394">RHI_linker</text><rect fill="#FFFFFF" height="18.3441" style="stroke:#181818;stroke-width:1.0;stroke-dasharray:2.0,2.0;" width="85" x="1013" y="47.0839"/><text fill="#000000" font-family="sans-serif" font-size="12" font-style="italic" lengthAdjust="spacing" textLength="83" x="1014" y="60.912">T_RHI_Resource</text><line style="stroke:#181818;stroke-width:0.5;" x1="646" x2="1094" y1="95.496" y2="95.496"/><rect fill="none" height="6" style="stroke:#C82930;stroke-width:1.0;" width="6" x="653" y="107.5299"/><text fill="#000000" font-family="sans-serif" font-size="14" lengthAdjust="spacing" textLength="247" x="665" y="114.4619">m_actual_resource: T_RHI_Resource*</text><rect fill="none" height="6" style="stroke:#C82930;stroke-width:1.0;" width="6" x="653" y="126.5978"/><text fill="#000000" font-family="sans-serif" font-size="14" lengthAdjust="spacing" textLength="177" x="665" y="133.5298">m_rhi_device: RHI_Device*</text><rect fill="none" height="6" style="stroke:#C82930;stroke-width:1.0;" width="6" x="653" y="145.6658"/><text fill="#000000" font-family="sans-serif" font-size="14" lengthAdjust="spacing" textLength="327" x="665" y="152.5977">m_creation_parameters: any ' &#23384;&#20648;&#21019;&#24314;&#25152;&#38656;&#30340;&#21442;&#25968;</text><rect fill="none" height="6" style="stroke:#C82930;stroke-width:1.0;" width="6" x="653" y="164.7337"/><text fill="#000000" font-family="sans-serif" font-size="14" lengthAdjust="spacing" textLength="167" x="665" y="171.6657">m_is_loaded: bool = false</text><text fill="#000000" font-family="sans-serif" font-size="14" lengthAdjust="spacing" textLength="4" x="665" y="190.7336">&#160;</text><text fill="#000000" font-family="sans-serif" font-size="14" lengthAdjust="spacing" textLength="4" x="665" y="209.8015">&#160;</text><text fill="#000000" font-family="sans-serif" font-size="14" lengthAdjust="spacing" textLength="67" x="665" y="228.8694">note right</text><text fill="#000000" font-family="sans-serif" font-size="14" font-weight="bold" lengthAdjust="spacing" textLength="109.6875" x="665" y="247.9373">RHI_linker &#20316;&#29992;:</text><text fill="#000000" font-family="sans-serif" font-size="14" lengthAdjust="spacing" textLength="178" x="665" y="267.0052">&#36830;&#25509;&#28210;&#26579;&#22120;&#21069;&#31471;&#19982;RHI&#36164;&#28304;&#12290;</text><line style="stroke:#181818;stroke-width:1.0;" x1="665" x2="675" y1="276.1072" y2="276.1072"/><text fill="#000000" font-family="sans-serif" font-size="14" font-weight="bold" lengthAdjust="spacing" textLength="62.1875" x="665" y="296.0732">&#20027;&#35201;&#29305;&#24615;:</text><rect fill="none" height="6" style="stroke:#C82930;stroke-width:1.0;" width="6" x="653" y="308.2091"/><text fill="#000000" font-family="sans-serif" font-size="14" lengthAdjust="spacing" textLength="108" x="665" y="315.1411">&#23553;&#35013;RHI&#23618;&#32454;&#33410;&#12290;</text><rect fill="none" height="6" style="stroke:#C82930;stroke-width:1.0;" width="6" x="653" y="327.277"/><text fill="#000000" font-family="sans-serif" font-size="14" lengthAdjust="spacing" textLength="162" x="665" y="334.209">&#21521;&#21069;&#31471;&#25552;&#20379;&#26356;&#31616;&#27905;&#30340;API&#12290;</text><rect fill="none" height="6" style="stroke:#C82930;stroke-width:1.0;" width="6" x="653" y="346.3449"/><text fill="#000000" font-family="sans-serif" font-size="14" lengthAdjust="spacing" textLength="130" x="665" y="353.2769">&#23454;&#29616;&#28789;&#27963;&#30340;&#36164;&#28304;&#31649;&#29702;:</text><text fill="#000000" font-family="sans-serif" font-size="14" lengthAdjust="spacing" textLength="60" x="665" y="372.3448">end note</text><line style="stroke:#181818;stroke-width:0.5;" x1="646" x2="1094" y1="380.4468" y2="380.4468"/><ellipse cx="656" cy="395.4808" fill="#84BE84" rx="3" ry="3" style="stroke:#038048;stroke-width:1.0;"/><text fill="#000000" font-family="sans-serif" font-size="14" lengthAdjust="spacing" textLength="361" x="665" y="399.4127">RHI_linker(device: RHI_Device*, creation_params: any)</text><ellipse cx="656" cy="414.5487" fill="#84BE84" rx="3" ry="3" style="stroke:#038048;stroke-width:1.0;"/><text fill="#000000" font-family="sans-serif" font-size="14" lengthAdjust="spacing" textLength="305" x="665" y="418.4807">~RHI_linker() ' &#33509;&#25317;&#26377;&#36164;&#28304;&#65292;&#21017;&#36127;&#36131;&#22312;&#26512;&#26500;&#26102;&#37322;&#25918;</text><text fill="#000000" font-family="sans-serif" font-size="14" lengthAdjust="spacing" textLength="4" x="665" y="437.5486">&#160;</text><ellipse cx="656" cy="452.6845" fill="#84BE84" rx="3" ry="3" style="stroke:#038048;stroke-width:1.0;"/><text fill="#000000" font-family="sans-serif" font-size="14" lengthAdjust="spacing" textLength="424" x="665" y="456.6165">get_resource(): T_RHI_Resource* ' &#33719;&#21462;&#36164;&#28304;&#65292;&#24517;&#35201;&#26102;&#25191;&#34892;&#24816;&#24615;&#21019;&#24314;</text><ellipse cx="656" cy="471.7524" fill="#84BE84" rx="3" ry="3" style="stroke:#038048;stroke-width:1.0;"/><text fill="#000000" font-family="sans-serif" font-size="14" lengthAdjust="spacing" textLength="322" x="665" y="475.6844">ensure_loaded(): bool          ' &#29992;&#20110;&#39044;&#29983;&#25104;/&#26174;&#24335;&#21152;&#36733;</text><ellipse cx="656" cy="490.8204" fill="#84BE84" rx="3" ry="3" style="stroke:#038048;stroke-width:1.0;"/><text fill="#000000" font-family="sans-serif" font-size="14" lengthAdjust="spacing" textLength="301" x="665" y="494.7523">release_resource(): void       ' &#26174;&#24335;&#37322;&#25918;RHI&#36164;&#28304;</text><ellipse cx="656" cy="509.8883" fill="#84BE84" rx="3" ry="3" style="stroke:#038048;stroke-width:1.0;"/><text fill="#000000" font-family="sans-serif" font-size="14" lengthAdjust="spacing" textLength="100" x="665" y="513.8202">is_ready(): bool</text><rect fill="#F24D5C" height="6" style="stroke:#C82930;stroke-width:1.0;" width="6" x="653" y="525.9562"/><text fill="#000000" font-family="sans-serif" font-size="14" lengthAdjust="spacing" textLength="249" x="665" y="532.8882">&#24816;&#24615;&#21019;&#24314; (&#39318;&#27425;&#35843;&#29992; `get_resource()` &#26102;)</text><rect fill="#F24D5C" height="6" style="stroke:#C82930;stroke-width:1.0;" width="6" x="653" y="545.0241"/><text fill="#000000" font-family="sans-serif" font-size="14" lengthAdjust="spacing" textLength="233" x="665" y="551.9561">&#39044;&#29983;&#25104; (&#36890;&#36807; `ensure_loaded()` &#23454;&#29616;)</text></g><!--class T_RHI_Resource--><g id="elem_T_RHI_Resource"><rect codeLine="64" fill="#F1F1F1" height="91.5479" id="T_RHI_Resource" rx="2.5" ry="2.5" style="stroke:#181818;stroke-width:0.5;" width="398" x="1252" y="327.2939"/><ellipse cx="1397.75" cy="350" fill="#A9DCDF" rx="11" ry="11" style="stroke:#181818;stroke-width:1.0;"/><path d="M1401.0938,355.25 L1399.625,351.5 L1395.1875,351.5 L1393.75,355.25 L1391.625,355.25 L1396.5781,342.5312 L1398.3281,342.5312 L1403.25,355.25 L1401.0938,355.25 Z M1397.75,346.2968 Q1397.7031,346.1406 1397.5781,345.7812 Q1397.4531,345.4218 1397.3438,345.0468 Q1397.2344,344.6562 1397.4375,344.5937 Q1397.5938,344.7812 1397.5,345.1406 Q1397.4063,345.4843 1397.3125,345.7812 Q1397.2188,346.0625 1397.1406,346.2968 L1395.9063,349.6093 L1398.9844,349.6093 L1397.75,346.2968 Z " fill="#000000"/><text fill="#000000" font-family="sans-serif" font-size="12" font-style="italic" lengthAdjust="spacing" textLength="84" x="1425.25" y="345.122">&#171;RHI_Resource&#187;</text><text fill="#000000" font-family="sans-serif" font-size="14" font-style="italic" lengthAdjust="spacing" textLength="98" x="1418.25" y="363.604">T_RHI_Resource</text><line style="stroke:#181818;stroke-width:0.5;" x1="1253" x2="1649" y1="372.706" y2="372.706"/><ellipse cx="1263" cy="387.7399" fill="#84BE84" rx="3" ry="3" style="stroke:#038048;stroke-width:1.0;"/><text fill="#000000" font-family="sans-serif" font-size="14" font-style="italic" lengthAdjust="spacing" textLength="372" x="1272" y="391.6719">get_native_id(): opaque_handle ' &#33719;&#21462;&#24213;&#23618;API&#30340;&#21407;&#29983;&#21477;&#26564;/ID</text><ellipse cx="1263" cy="406.8078" fill="#84BE84" rx="3" ry="3" style="stroke:#038048;stroke-width:1.0;"/><text fill="#000000" font-family="sans-serif" font-size="14" lengthAdjust="spacing" textLength="189" x="1272" y="410.7398">is_valid(): bool ' &#36164;&#28304;&#26159;&#21542;&#26377;&#25928;</text></g><!--class RHI_Texture_Resource--><g id="elem_RHI_Texture_Resource"><rect codeLine="70" fill="#F1F1F1" height="32" id="RHI_Texture_Resource" rx="2.5" ry="2.5" style="stroke:#181818;stroke-width:0.5;" width="181" x="1711" y="323.0639"/><ellipse cx="1726" cy="339.0639" fill="#ADD1B2" rx="11" ry="11" style="stroke:#181818;stroke-width:1.0;"/><path d="M1726.1094,334.5952 Q1725.1875,334.5952 1724.4531,334.9077 Q1723.7344,335.2202 1723.2344,335.8139 Q1722.7344,336.3921 1722.4531,337.2671 Q1722.1875,338.1421 1722.1875,339.2358 Q1722.1875,340.6733 1722.625,341.7202 Q1723.0781,342.7671 1723.9219,343.3139 Q1724.7813,343.8608 1726.0938,343.8608 Q1726.875,343.8608 1727.5625,343.7358 Q1728.2656,343.5952 1729.2656,343.2827 L1729.2656,345.1577 Q1728.4063,345.4858 1727.6406,345.6108 Q1726.8906,345.7358 1725.875,345.7358 Q1723.9531,345.7358 1722.6406,344.9389 Q1721.3438,344.1264 1720.6875,342.6577 Q1720.0313,341.1733 1720.0313,339.2046 Q1720.0313,337.7827 1720.4219,336.6108 Q1720.8281,335.4233 1721.6094,334.5483 Q1722.3906,333.6733 1723.5313,333.2046 Q1724.6719,332.7202 1726.1406,332.7202 Q1727.0938,332.7202 1727.9844,332.9233 Q1728.8906,333.1108 1729.8281,333.5796 L1729,335.3608 Q1728.2188,334.9858 1727.5625,334.7983 Q1726.9063,334.5952 1726.1094,334.5952 Z " fill="#000000"/><text fill="#000000" font-family="sans-serif" font-size="14" lengthAdjust="spacing" textLength="149" x="1740" y="344.4959">RHI_Texture_Resource</text></g><!--class RHI_Buffer_Resource--><g id="elem_RHI_Buffer_Resource"><rect codeLine="73" fill="#F1F1F1" height="32" id="RHI_Buffer_Resource" rx="2.5" ry="2.5" style="stroke:#181818;stroke-width:0.5;" width="172" x="1715.5" y="390.0639"/><ellipse cx="1730.5" cy="406.0639" fill="#ADD1B2" rx="11" ry="11" style="stroke:#181818;stroke-width:1.0;"/><path d="M1730.6094,401.5952 Q1729.6875,401.5952 1728.9531,401.9077 Q1728.2344,402.2202 1727.7344,402.8139 Q1727.2344,403.3921 1726.9531,404.2671 Q1726.6875,405.1421 1726.6875,406.2358 Q1726.6875,407.6733 1727.125,408.7202 Q1727.5781,409.7671 1728.4219,410.3139 Q1729.2813,410.8608 1730.5938,410.8608 Q1731.375,410.8608 1732.0625,410.7358 Q1732.7656,410.5952 1733.7656,410.2827 L1733.7656,412.1577 Q1732.9063,412.4858 1732.1406,412.6108 Q1731.3906,412.7358 1730.375,412.7358 Q1728.4531,412.7358 1727.1406,411.9389 Q1725.8438,411.1264 1725.1875,409.6577 Q1724.5313,408.1733 1724.5313,406.2046 Q1724.5313,404.7827 1724.9219,403.6108 Q1725.3281,402.4233 1726.1094,401.5483 Q1726.8906,400.6733 1728.0313,400.2046 Q1729.1719,399.7202 1730.6406,399.7202 Q1731.5938,399.7202 1732.4844,399.9233 Q1733.3906,400.1108 1734.3281,400.5796 L1733.5,402.3608 Q1732.7188,401.9858 1732.0625,401.7983 Q1731.4063,401.5952 1730.6094,401.5952 Z " fill="#000000"/><text fill="#000000" font-family="sans-serif" font-size="14" lengthAdjust="spacing" textLength="140" x="1744.5" y="411.4959">RHI_Buffer_Resource</text></g><!--reverse link T_RHI_Resource to RHI_Texture_Resource--><g id="link_T_RHI_Resource_RHI_Texture_Resource"><path d="M1668.3454,351.9611 C1689.3154,349.9211 1691.89,349.6639 1710.66,347.8339 " fill="none" id="T_RHI_Resource-backto-RHI_Texture_Resource" style="stroke:#181818;stroke-width:1.0;"/><polygon fill="none" points="1650.43,353.7039,1668.9264,357.9329,1667.7645,345.9893,1650.43,353.7039" style="stroke:#181818;stroke-width:1.0;"/></g><!--reverse link T_RHI_Resource to RHI_Buffer_Resource--><g id="link_T_RHI_Resource_RHI_Buffer_Resource"><path d="M1668.3495,393.5549 C1690.9995,395.7049 1695.18,396.0939 1715.14,397.9839 " fill="none" id="T_RHI_Resource-backto-RHI_Buffer_Resource" style="stroke:#181818;stroke-width:1.0;"/><polygon fill="none" points="1650.43,391.8539,1667.7825,399.5281,1668.9164,387.5818,1650.43,391.8539" style="stroke:#181818;stroke-width:1.0;"/></g><!--reverse link RendererFrontend to RHI_linker--><g id="link_RendererFrontend_RHI_linker"><path codeLine="81" d="M444.39,305.0639 C512.38,305.0639 575.89,305.0639 644.74,305.0639 " fill="none" id="RendererFrontend-backto-RHI_linker" style="stroke:#181818;stroke-width:1.0;"/><polygon fill="none" points="432.39,305.0639,438.39,309.0639,444.39,305.0639,438.39,301.0639,432.39,305.0639" style="stroke:#181818;stroke-width:1.0;"/><text fill="#000000" font-family="sans-serif" font-size="13" lengthAdjust="spacing" textLength="151" x="463" y="300.961">(&#36890;&#36807;&#38142;&#25509;&#22120;&#31649;&#29702;&#36164;&#28304;&#35775;&#38382;)</text><text fill="#000000" font-family="sans-serif" font-size="13" lengthAdjust="spacing" textLength="46" x="591.3698" y="319.2236">linkers*</text></g><!--link RHI_linker to T_RHI_Resource--><g id="link_RHI_linker_T_RHI_Resource"><path codeLine="85" d="M1095.27,331.4039 C1146.8,337.4539 1195.2709,343.1543 1245.6109,349.0643 " fill="none" id="RHI_linker-to-T_RHI_Resource" style="stroke:#181818;stroke-width:1.0;stroke-dasharray:7.0,7.0;"/><polygon fill="#181818" points="1251.57,349.7639,1243.0978,344.7418,1246.6041,349.1809,1242.165,352.6872,1251.57,349.7639" style="stroke:#181818;stroke-width:1.0;"/><text fill="#000000" font-family="sans-serif" font-size="13" lengthAdjust="spacing" textLength="73" x="1137" y="330.891">(&#31649;&#29702;&#20854;&#23454;&#20363;)</text></g><!--link RHI_linker to RHI_Device--><g id="link_RHI_linker_RHI_Device"><path codeLine="88" d="M1095.27,278.7239 C1146.95,272.6539 1195.601,266.9441 1246.071,261.0141 " fill="none" id="RHI_linker-to-RHI_Device" style="stroke:#181818;stroke-width:1.0;stroke-dasharray:7.0,7.0;"/><polygon fill="#181818" points="1252.03,260.3139,1242.6247,257.3915,1247.0642,260.8974,1243.5583,265.3368,1252.03,260.3139" style="stroke:#181818;stroke-width:1.0;"/><text fill="#000000" font-family="sans-serif" font-size="13" lengthAdjust="spacing" textLength="95" x="1126" y="260.871">(&#22996;&#25176;RHI&#25805;&#20316;&#33267;)</text></g><!--SRC=[ZLPRKzj657xNhzZc1PjoUVTGpoJ1IPdIa35kP_eaXBq4JOH599cMPj8nZWdN00cNS2SquTAaCH18OcoCVqorAtdQcVw57cbbMPR9D1vcM6dF-Suvttxdh3HHap2AVjl5IsBoFbP2rjhyaAM51Jq_H_FlwSuYMJiaKq-DjqV6UbOllDOBp-dAERcOvpW93sX8av4YtXlKK49KS5mJvIJ7VPN00s8IevlTrtjx-PiztJrHT5UGS2obF4Z9eefTYrZa-xlTrsCHtclQRU7TbgK4JaRbn4zOakIVNGyhsMYaj-U7wCs8rxvNmrYw8QLgsD78dSv8D1BbRqLxxiJWeSxy_cYzCS1sHdxiSa6_6nJkY-xsdHx8ySPjBu8lBsRH4uMGZbMF8YJluIXES1mtA2OmmaF3sYWQmaFzM57XPPCL5NNY4J6E4PqkcIUxnaaH1UZMdZdnXenF0kzwVbhFpz2LYNylPicdzqOkJMPNWfpGhsgA4DTGN19KbMNFS3ewu86jms7qa4FeQ_ImQlu8nHKiQ9XNXt5S713Zl8P_qL8A3WmBYZ2aXb1RMrlGLW4VOpjy5AjoIedZvl-3wayD363b2gGRziRdWH8OLl8ehmoAlE8O1QeBVb189YHSnHkHnGJuDrcFY8n_r8ihhcJ9v0Of5jgDtAwny0H4Ia-NkKSMpNgfR2mTUdIEGCi-TNCEapYPm0fMRYboKeErnQVlbKDhAngoCqxON8SyPz3ix3hSUdlBMNTSHN3OSHi2LXLHa1n2F-VkOpNCsRJwamrSaLxGjXIJeWPHn5-nIxeQS1W6Vida5ZcO0R4nRcqNnGRdrJXEOe-fm-HcWQuTCS8zJDF3NRfL1brpDQawLSHukvch1G3LCMWH2ShtK0mAIG4NrHH3gDwh-OjEmfOgZ2RU5YS6Va6WGdBKglFTAiaSCkdGgNHbCmtQ8FCPkdpiE8igByb20YT2g5-M9VGD6X0ac66CRxUSgvXkGVMHMLJ6_syUro0aOixiKVZRd6A4M_q-kMQUxPXdhyZc8TrUeDjP-k9ZPMAQBbsouFUmLckOO0Cr5kZS9pA_KaCiZvlxOu12fmxCtLdw-9Yc3rZjDY1EghPWxN8jHBjWzzU4e8tqmbpbzwonj4Cd5zhfwYLS1MJwfLagEHAHiA3YkhHicLGHc0UhmkrS9aWLl8J4Q3Kkl4pA6cRN2sTvT_I7FShIIvkGJgYZlJzixvhbRJgtvsjhkCRSA7-bCxPXA_ogU7g-28mOK-T0H0sg5P7ZCVFLEBYIaunHV69EPrnlH1QUCN0wlw1VRj2DCnZBz6mCX7FzRfV7BhTjp1qROn_eMH7sM19iEeKunaShyfu12bJsL-YVk-RnOsjUzTMVRn-2WmkwZkuXW5TwtInFe3xVyVKv6LW-rYYps7Jx4pdfd1J9zWoxVCXEmRv_wcLapyhz32b_iFPtqmsNZy_Sle1gNNt57MILbOIk6C6yQAjC7XOUfAgJtbKjAIm3-S2erP1pEr0icT-ZEzdshiwgNaPWVjLqskJKH5UFoC8-T19TdgpLIyO_wQL5f-hN1Vro1WL0Gdg-W1eBPiQCdA1dSlbdDe9deBQ1X8Vs7GMo8hbret0E9qvEjk6SKO3aIgImtu8gRrVj__Jb1VI3yMug2AdM0lcc-nV5kLWaJzwxSLuVaEFv5lJF-Xz_psTR4Al5YMDn0aq0d9mQfqLhQRFal_lOF6fll3v1Ly0VVASmDJlnrxCUON4DQ384lCO0rEPhNhXGLSALnKjeOMXUXikGp5ovyY8NzDyhBy_fqnogFpYxHhEyOSqs-zw1-ylgHnZpkSSEvj5UmtapQk3pDf_MyszOSV1eAUvPYJmxf9ix5eedUbjRs8y2HR08y5N28FmfUtYiVlHjxR5930wLjV4gWtJnAIWJv7avG_OpZcH1bFQG8CzdAqjfUZGMl28d3pRaGmwMwDGgl6E0viHfaFiF]--></g></svg>