<?xml version="1.0" encoding="us-ascii" standalone="no"?><svg xmlns="http://www.w3.org/2000/svg" xmlns:xlink="http://www.w3.org/1999/xlink" contentStyleType="text/css" height="735px" preserveAspectRatio="none" style="width:1455px;height:735px;background:#FFFFFF;" version="1.1" viewBox="0 0 1455 735" width="1455px" zoomAndPan="magnify"><defs/><g><!--class Depth_state--><g id="elem_Depth_state"><rect codeLine="3" fill="#F1F1F1" height="162.4075" id="Depth_state" rx="2.5" ry="2.5" style="stroke:#181818;stroke-width:0.5;" width="292" x="7" y="528.09"/><ellipse cx="108.75" cy="544.09" fill="#F1F1F1" rx="11" ry="11" style="stroke:#181818;stroke-width:1.0;"/><path d="M113.3125,547.0744 Q113.3125,548.2463 112.7344,549.0744 Q112.1719,549.9025 111.125,550.34 Q110.0938,550.7619 108.7188,550.7619 Q108.0156,550.7619 107.375,550.6838 Q106.75,550.6213 106.2188,550.4963 Q105.6875,550.3556 105.1094,550.09 L105.1094,548.0431 Q106.0938,548.4806 106.9688,548.6994 Q107.8438,548.9025 108.7813,548.9025 Q109.6406,548.9025 110.1875,548.6994 Q110.7344,548.4806 110.9844,548.1056 Q111.25,547.7306 111.25,547.215 Q111.25,546.6994 111.0313,546.3556 Q110.8281,546.0119 110.2344,545.6838 Q109.6563,545.3556 108.5625,544.965 Q107.7656,544.6525 107.1406,544.3244 Q106.5313,543.9806 106.1094,543.5275 Q105.6875,543.0588 105.4688,542.465 Q105.2656,541.8713 105.2656,541.1056 Q105.2656,540.0588 105.7969,539.3088 Q106.3438,538.5431 107.2813,538.1525 Q108.2188,537.7463 109.4063,537.7463 Q110.4531,537.7463 111.2969,537.9494 Q112.1563,538.1369 113.0938,538.5588 L112.4375,540.3713 Q111.5625,539.9806 110.8438,539.8088 Q110.1406,539.6213 109.375,539.6213 Q108.6719,539.6213 108.2188,539.8244 Q107.7813,540.0119 107.5625,540.3556 Q107.3438,540.6838 107.3438,541.1213 Q107.3438,541.6681 107.5625,542.0119 Q107.7813,542.3556 108.3125,542.6681 Q108.8594,542.965 109.8281,543.3244 Q110.9219,543.7306 111.6875,544.215 Q112.4688,544.6838 112.8906,545.3713 Q113.3125,546.0431 113.3125,547.0744 Z " fill="#000000"/><text fill="#000000" font-family="sans-serif" font-size="14" lengthAdjust="spacing" textLength="80" x="129.25" y="549.522">Depth_state</text><line style="stroke:#181818;stroke-width:0.5;" x1="8" x2="298" y1="560.09" y2="560.09"/><ellipse cx="18" cy="575.124" fill="none" rx="3" ry="3" style="stroke:#038048;stroke-width:1.0;"/><text fill="#000000" font-family="sans-serif" font-size="14" lengthAdjust="spacing" textLength="189" x="27" y="579.0559">enable_depth_test : boolean</text><ellipse cx="18" cy="594.1919" fill="none" rx="3" ry="3" style="stroke:#038048;stroke-width:1.0;"/><text fill="#000000" font-family="sans-serif" font-size="14" lengthAdjust="spacing" textLength="198" x="27" y="598.1239">enable_depth_write : boolean</text><ellipse cx="18" cy="613.2598" fill="none" rx="3" ry="3" style="stroke:#038048;stroke-width:1.0;"/><text fill="#000000" font-family="sans-serif" font-size="14" lengthAdjust="spacing" textLength="197" x="27" y="617.1918">depth_compare_function : int</text><line style="stroke:#181818;stroke-width:0.5;" x1="8" x2="298" y1="625.2938" y2="625.2938"/><ellipse cx="18" cy="640.3277" fill="#84BE84" rx="3" ry="3" style="stroke:#038048;stroke-width:1.0;"/><text fill="#000000" font-family="sans-serif" font-size="14" lengthAdjust="spacing" text-decoration="underline" textLength="237" x="27" y="644.2597">opaque_object_state() : Depth_state</text><ellipse cx="18" cy="659.3956" fill="#84BE84" rx="3" ry="3" style="stroke:#038048;stroke-width:1.0;"/><text fill="#000000" font-family="sans-serif" font-size="14" lengthAdjust="spacing" text-decoration="underline" textLength="266" x="27" y="663.3276">transparent_object_state() : Depth_state</text><ellipse cx="18" cy="678.4635" fill="#84BE84" rx="3" ry="3" style="stroke:#038048;stroke-width:1.0;"/><text fill="#000000" font-family="sans-serif" font-size="14" lengthAdjust="spacing" text-decoration="underline" textLength="184" x="27" y="682.3955">skybox_state() : Depth_state</text></g><!--class Polygon_offset_state--><g id="elem_Polygon_offset_state"><rect codeLine="12" fill="#F1F1F1" height="181.4754" id="Polygon_offset_state" rx="2.5" ry="2.5" style="stroke:#181818;stroke-width:0.5;" width="276" x="334" y="518.55"/><ellipse cx="399.75" cy="534.55" fill="#F1F1F1" rx="11" ry="11" style="stroke:#181818;stroke-width:1.0;"/><path d="M404.3125,537.5344 Q404.3125,538.7063 403.7344,539.5344 Q403.1719,540.3625 402.125,540.8 Q401.0938,541.2219 399.7188,541.2219 Q399.0156,541.2219 398.375,541.1438 Q397.75,541.0813 397.2188,540.9563 Q396.6875,540.8156 396.1094,540.55 L396.1094,538.5031 Q397.0938,538.9406 397.9688,539.1594 Q398.8438,539.3625 399.7813,539.3625 Q400.6406,539.3625 401.1875,539.1594 Q401.7344,538.9406 401.9844,538.5656 Q402.25,538.1906 402.25,537.675 Q402.25,537.1594 402.0313,536.8156 Q401.8281,536.4719 401.2344,536.1438 Q400.6563,535.8156 399.5625,535.425 Q398.7656,535.1125 398.1406,534.7844 Q397.5313,534.4406 397.1094,533.9875 Q396.6875,533.5188 396.4688,532.925 Q396.2656,532.3313 396.2656,531.5656 Q396.2656,530.5188 396.7969,529.7688 Q397.3438,529.0031 398.2813,528.6125 Q399.2188,528.2063 400.4063,528.2063 Q401.4531,528.2063 402.2969,528.4094 Q403.1563,528.5969 404.0938,529.0188 L403.4375,530.8313 Q402.5625,530.4406 401.8438,530.2688 Q401.1406,530.0813 400.375,530.0813 Q399.6719,530.0813 399.2188,530.2844 Q398.7813,530.4719 398.5625,530.8156 Q398.3438,531.1438 398.3438,531.5813 Q398.3438,532.1281 398.5625,532.4719 Q398.7813,532.8156 399.3125,533.1281 Q399.8594,533.425 400.8281,533.7844 Q401.9219,534.1906 402.6875,534.675 Q403.4688,535.1438 403.8906,535.8313 Q404.3125,536.5031 404.3125,537.5344 Z " fill="#000000"/><text fill="#000000" font-family="sans-serif" font-size="14" lengthAdjust="spacing" textLength="136" x="420.25" y="539.982">Polygon_offset_state</text><line style="stroke:#181818;stroke-width:0.5;" x1="335" x2="609" y1="550.55" y2="550.55"/><ellipse cx="345" cy="565.584" fill="none" rx="3" ry="3" style="stroke:#038048;stroke-width:1.0;"/><text fill="#000000" font-family="sans-serif" font-size="14" lengthAdjust="spacing" textLength="197" x="354" y="569.5159">enable_point_offset : boolean</text><ellipse cx="345" cy="584.6519" fill="none" rx="3" ry="3" style="stroke:#038048;stroke-width:1.0;"/><text fill="#000000" font-family="sans-serif" font-size="14" lengthAdjust="spacing" textLength="187" x="354" y="588.5839">enable_line_offset : boolean</text><ellipse cx="345" cy="603.7198" fill="none" rx="3" ry="3" style="stroke:#038048;stroke-width:1.0;"/><text fill="#000000" font-family="sans-serif" font-size="14" lengthAdjust="spacing" textLength="179" x="354" y="607.6518">enable_fill_offset : boolean</text><ellipse cx="345" cy="622.7877" fill="none" rx="3" ry="3" style="stroke:#038048;stroke-width:1.0;"/><text fill="#000000" font-family="sans-serif" font-size="14" lengthAdjust="spacing" textLength="125" x="354" y="626.7197">offset_factor : float</text><ellipse cx="345" cy="641.8556" fill="none" rx="3" ry="3" style="stroke:#038048;stroke-width:1.0;"/><text fill="#000000" font-family="sans-serif" font-size="14" lengthAdjust="spacing" textLength="120" x="354" y="645.7876">offset_units : float</text><line style="stroke:#181818;stroke-width:0.5;" x1="335" x2="609" y1="653.8896" y2="653.8896"/><ellipse cx="345" cy="668.9235" fill="#84BE84" rx="3" ry="3" style="stroke:#038048;stroke-width:1.0;"/><text fill="#000000" font-family="sans-serif" font-size="14" lengthAdjust="spacing" text-decoration="underline" textLength="243" x="354" y="672.8555">default_state() : Polygon_offset_state</text><ellipse cx="345" cy="687.9915" fill="#84BE84" rx="3" ry="3" style="stroke:#038048;stroke-width:1.0;"/><text fill="#000000" font-family="sans-serif" font-size="14" lengthAdjust="spacing" text-decoration="underline" textLength="250" x="354" y="691.9234">enabled_state() : Polygon_offset_state</text></g><!--class Stencil_state--><g id="elem_Stencil_state"><rect codeLine="22" fill="#F1F1F1" height="238.6792" id="Stencil_state" rx="2.5" ry="2.5" style="stroke:#181818;stroke-width:0.5;" width="276" x="645" y="489.95"/><ellipse cx="736.75" cy="505.95" fill="#F1F1F1" rx="11" ry="11" style="stroke:#181818;stroke-width:1.0;"/><path d="M741.3125,508.9344 Q741.3125,510.1063 740.7344,510.9344 Q740.1719,511.7625 739.125,512.2 Q738.0938,512.6219 736.7188,512.6219 Q736.0156,512.6219 735.375,512.5438 Q734.75,512.4813 734.2188,512.3563 Q733.6875,512.2156 733.1094,511.95 L733.1094,509.9031 Q734.0938,510.3406 734.9688,510.5594 Q735.8438,510.7625 736.7813,510.7625 Q737.6406,510.7625 738.1875,510.5594 Q738.7344,510.3406 738.9844,509.9656 Q739.25,509.5906 739.25,509.075 Q739.25,508.5594 739.0313,508.2156 Q738.8281,507.8719 738.2344,507.5438 Q737.6563,507.2156 736.5625,506.825 Q735.7656,506.5125 735.1406,506.1844 Q734.5313,505.8406 734.1094,505.3875 Q733.6875,504.9188 733.4688,504.325 Q733.2656,503.7313 733.2656,502.9656 Q733.2656,501.9188 733.7969,501.1688 Q734.3438,500.4031 735.2813,500.0125 Q736.2188,499.6063 737.4063,499.6063 Q738.4531,499.6063 739.2969,499.8094 Q740.1563,499.9969 741.0938,500.4188 L740.4375,502.2313 Q739.5625,501.8406 738.8438,501.6688 Q738.1406,501.4813 737.375,501.4813 Q736.6719,501.4813 736.2188,501.6844 Q735.7813,501.8719 735.5625,502.2156 Q735.3438,502.5438 735.3438,502.9813 Q735.3438,503.5281 735.5625,503.8719 Q735.7813,504.2156 736.3125,504.5281 Q736.8594,504.825 737.8281,505.1844 Q738.9219,505.5906 739.6875,506.075 Q740.4688,506.5438 740.8906,507.2313 Q741.3125,507.9031 741.3125,508.9344 Z " fill="#000000"/><text fill="#000000" font-family="sans-serif" font-size="14" lengthAdjust="spacing" textLength="84" x="757.25" y="511.382">Stencil_state</text><line style="stroke:#181818;stroke-width:0.5;" x1="646" x2="920" y1="521.95" y2="521.95"/><ellipse cx="656" cy="536.984" fill="none" rx="3" ry="3" style="stroke:#038048;stroke-width:1.0;"/><text fill="#000000" font-family="sans-serif" font-size="14" lengthAdjust="spacing" textLength="193" x="665" y="540.9159">enable_stencil_test : boolean</text><ellipse cx="656" cy="556.0519" fill="none" rx="3" ry="3" style="stroke:#038048;stroke-width:1.0;"/><text fill="#000000" font-family="sans-serif" font-size="14" lengthAdjust="spacing" textLength="151" x="665" y="559.9839">compare_function : int</text><ellipse cx="656" cy="575.1198" fill="none" rx="3" ry="3" style="stroke:#038048;stroke-width:1.0;"/><text fill="#000000" font-family="sans-serif" font-size="14" lengthAdjust="spacing" textLength="124" x="665" y="579.0518">stencil_fail_op : int</text><ellipse cx="656" cy="594.1877" fill="none" rx="3" ry="3" style="stroke:#038048;stroke-width:1.0;"/><text fill="#000000" font-family="sans-serif" font-size="14" lengthAdjust="spacing" textLength="120" x="665" y="598.1197">depth_fail_op : int</text><ellipse cx="656" cy="613.2556" fill="none" rx="3" ry="3" style="stroke:#038048;stroke-width:1.0;"/><text fill="#000000" font-family="sans-serif" font-size="14" lengthAdjust="spacing" textLength="84" x="665" y="617.1876">pass_op : int</text><ellipse cx="656" cy="632.3235" fill="none" rx="3" ry="3" style="stroke:#038048;stroke-width:1.0;"/><text fill="#000000" font-family="sans-serif" font-size="14" lengthAdjust="spacing" textLength="137" x="665" y="636.2555">reference_value : int</text><ellipse cx="656" cy="651.3915" fill="none" rx="3" ry="3" style="stroke:#038048;stroke-width:1.0;"/><text fill="#000000" font-family="sans-serif" font-size="14" lengthAdjust="spacing" textLength="65" x="665" y="655.3234">mask : int</text><line style="stroke:#181818;stroke-width:0.5;" x1="646" x2="920" y1="663.4254" y2="663.4254"/><ellipse cx="656" cy="678.4594" fill="#84BE84" rx="3" ry="3" style="stroke:#038048;stroke-width:1.0;"/><text fill="#000000" font-family="sans-serif" font-size="14" lengthAdjust="spacing" text-decoration="underline" textLength="201" x="665" y="682.3914">disabled_state() : Stencil_state</text><ellipse cx="656" cy="697.5273" fill="#84BE84" rx="3" ry="3" style="stroke:#038048;stroke-width:1.0;"/><text fill="#000000" font-family="sans-serif" font-size="14" lengthAdjust="spacing" text-decoration="underline" textLength="250" x="665" y="701.4593">opaque_replace_state() : Stencil_state</text><ellipse cx="656" cy="716.5952" fill="#84BE84" rx="3" ry="3" style="stroke:#038048;stroke-width:1.0;"/><text fill="#000000" font-family="sans-serif" font-size="14" lengthAdjust="spacing" text-decoration="underline" textLength="246" x="665" y="720.5272">edge_detection_state() : Stencil_state</text></g><!--class Blend_state--><g id="elem_Blend_state"><rect codeLine="35" fill="#F1F1F1" height="162.4075" id="Blend_state" rx="2.5" ry="2.5" style="stroke:#181818;stroke-width:0.5;" width="246" x="956" y="528.09"/><ellipse cx="1035.75" cy="544.09" fill="#F1F1F1" rx="11" ry="11" style="stroke:#181818;stroke-width:1.0;"/><path d="M1040.3125,547.0744 Q1040.3125,548.2463 1039.7344,549.0744 Q1039.1719,549.9025 1038.125,550.34 Q1037.0938,550.7619 1035.7188,550.7619 Q1035.0156,550.7619 1034.375,550.6838 Q1033.75,550.6213 1033.2188,550.4963 Q1032.6875,550.3556 1032.1094,550.09 L1032.1094,548.0431 Q1033.0938,548.4806 1033.9688,548.6994 Q1034.8438,548.9025 1035.7813,548.9025 Q1036.6406,548.9025 1037.1875,548.6994 Q1037.7344,548.4806 1037.9844,548.1056 Q1038.25,547.7306 1038.25,547.215 Q1038.25,546.6994 1038.0313,546.3556 Q1037.8281,546.0119 1037.2344,545.6838 Q1036.6563,545.3556 1035.5625,544.965 Q1034.7656,544.6525 1034.1406,544.3244 Q1033.5313,543.9806 1033.1094,543.5275 Q1032.6875,543.0588 1032.4688,542.465 Q1032.2656,541.8713 1032.2656,541.1056 Q1032.2656,540.0588 1032.7969,539.3088 Q1033.3438,538.5431 1034.2813,538.1525 Q1035.2188,537.7463 1036.4063,537.7463 Q1037.4531,537.7463 1038.2969,537.9494 Q1039.1563,538.1369 1040.0938,538.5588 L1039.4375,540.3713 Q1038.5625,539.9806 1037.8438,539.8088 Q1037.1406,539.6213 1036.375,539.6213 Q1035.6719,539.6213 1035.2188,539.8244 Q1034.7813,540.0119 1034.5625,540.3556 Q1034.3438,540.6838 1034.3438,541.1213 Q1034.3438,541.6681 1034.5625,542.0119 Q1034.7813,542.3556 1035.3125,542.6681 Q1035.8594,542.965 1036.8281,543.3244 Q1037.9219,543.7306 1038.6875,544.215 Q1039.4688,544.6838 1039.8906,545.3713 Q1040.3125,546.0431 1040.3125,547.0744 Z " fill="#000000"/><text fill="#000000" font-family="sans-serif" font-size="14" lengthAdjust="spacing" textLength="78" x="1056.25" y="549.522">Blend_state</text><line style="stroke:#181818;stroke-width:0.5;" x1="957" x2="1201" y1="560.09" y2="560.09"/><ellipse cx="967" cy="575.124" fill="none" rx="3" ry="3" style="stroke:#038048;stroke-width:1.0;"/><text fill="#000000" font-family="sans-serif" font-size="14" lengthAdjust="spacing" textLength="157" x="976" y="579.0559">enable_blend : boolean</text><ellipse cx="967" cy="594.1919" fill="none" rx="3" ry="3" style="stroke:#038048;stroke-width:1.0;"/><text fill="#000000" font-family="sans-serif" font-size="14" lengthAdjust="spacing" textLength="159" x="976" y="598.1239">source_color_factor : int</text><ellipse cx="967" cy="613.2598" fill="none" rx="3" ry="3" style="stroke:#038048;stroke-width:1.0;"/><text fill="#000000" font-family="sans-serif" font-size="14" lengthAdjust="spacing" textLength="190" x="976" y="617.1918">destination_color_factor : int</text><ellipse cx="967" cy="632.3277" fill="none" rx="3" ry="3" style="stroke:#038048;stroke-width:1.0;"/><text fill="#000000" font-family="sans-serif" font-size="14" lengthAdjust="spacing" textLength="140" x="976" y="636.2597">blend_operation : int</text><line style="stroke:#181818;stroke-width:0.5;" x1="957" x2="1201" y1="644.3617" y2="644.3617"/><ellipse cx="967" cy="659.3956" fill="#84BE84" rx="3" ry="3" style="stroke:#038048;stroke-width:1.0;"/><text fill="#000000" font-family="sans-serif" font-size="14" lengthAdjust="spacing" text-decoration="underline" textLength="195" x="976" y="663.3276">disabled_state() : Blend_state</text><ellipse cx="967" cy="678.4635" fill="#84BE84" rx="3" ry="3" style="stroke:#038048;stroke-width:1.0;"/><text fill="#000000" font-family="sans-serif" font-size="14" lengthAdjust="spacing" text-decoration="underline" textLength="220" x="976" y="682.3955">alpha_blend_state() : Blend_state</text></g><!--class Cull_state--><g id="elem_Cull_state"><rect codeLine="44" fill="#F1F1F1" height="143.3396" id="Cull_state" rx="2.5" ry="2.5" style="stroke:#181818;stroke-width:0.5;" width="211" x="1237.5" y="537.62"/><ellipse cx="1306.25" cy="553.62" fill="#F1F1F1" rx="11" ry="11" style="stroke:#181818;stroke-width:1.0;"/><path d="M1310.8125,556.6044 Q1310.8125,557.7763 1310.2344,558.6044 Q1309.6719,559.4325 1308.625,559.87 Q1307.5938,560.2919 1306.2188,560.2919 Q1305.5156,560.2919 1304.875,560.2138 Q1304.25,560.1513 1303.7188,560.0263 Q1303.1875,559.8856 1302.6094,559.62 L1302.6094,557.5731 Q1303.5938,558.0106 1304.4688,558.2294 Q1305.3438,558.4325 1306.2813,558.4325 Q1307.1406,558.4325 1307.6875,558.2294 Q1308.2344,558.0106 1308.4844,557.6356 Q1308.75,557.2606 1308.75,556.745 Q1308.75,556.2294 1308.5313,555.8856 Q1308.3281,555.5419 1307.7344,555.2138 Q1307.1563,554.8856 1306.0625,554.495 Q1305.2656,554.1825 1304.6406,553.8544 Q1304.0313,553.5106 1303.6094,553.0575 Q1303.1875,552.5888 1302.9688,551.995 Q1302.7656,551.4013 1302.7656,550.6356 Q1302.7656,549.5888 1303.2969,548.8388 Q1303.8438,548.0731 1304.7813,547.6825 Q1305.7188,547.2763 1306.9063,547.2763 Q1307.9531,547.2763 1308.7969,547.4794 Q1309.6563,547.6669 1310.5938,548.0888 L1309.9375,549.9013 Q1309.0625,549.5106 1308.3438,549.3388 Q1307.6406,549.1513 1306.875,549.1513 Q1306.1719,549.1513 1305.7188,549.3544 Q1305.2813,549.5419 1305.0625,549.8856 Q1304.8438,550.2138 1304.8438,550.6513 Q1304.8438,551.1981 1305.0625,551.5419 Q1305.2813,551.8856 1305.8125,552.1981 Q1306.3594,552.495 1307.3281,552.8544 Q1308.4219,553.2606 1309.1875,553.745 Q1309.9688,554.2138 1310.3906,554.9013 Q1310.8125,555.5731 1310.8125,556.6044 Z " fill="#000000"/><text fill="#000000" font-family="sans-serif" font-size="14" lengthAdjust="spacing" textLength="65" x="1326.75" y="559.052">Cull_state</text><line style="stroke:#181818;stroke-width:0.5;" x1="1238.5" x2="1447.5" y1="569.62" y2="569.62"/><ellipse cx="1248.5" cy="584.654" fill="none" rx="3" ry="3" style="stroke:#038048;stroke-width:1.0;"/><text fill="#000000" font-family="sans-serif" font-size="14" lengthAdjust="spacing" textLength="142" x="1257.5" y="588.5859">enable_cull : boolean</text><ellipse cx="1248.5" cy="603.7219" fill="none" rx="3" ry="3" style="stroke:#038048;stroke-width:1.0;"/><text fill="#000000" font-family="sans-serif" font-size="14" lengthAdjust="spacing" textLength="88" x="1257.5" y="607.6539">cull_face : int</text><ellipse cx="1248.5" cy="622.7898" fill="none" rx="3" ry="3" style="stroke:#038048;stroke-width:1.0;"/><text fill="#000000" font-family="sans-serif" font-size="14" lengthAdjust="spacing" textLength="168" x="1257.5" y="626.7218">front_face_definition : int</text><line style="stroke:#181818;stroke-width:0.5;" x1="1238.5" x2="1447.5" y1="634.8238" y2="634.8238"/><ellipse cx="1248.5" cy="649.8577" fill="#84BE84" rx="3" ry="3" style="stroke:#038048;stroke-width:1.0;"/><text fill="#000000" font-family="sans-serif" font-size="14" lengthAdjust="spacing" text-decoration="underline" textLength="182" x="1257.5" y="653.7897">disabled_state() : Cull_state</text><ellipse cx="1248.5" cy="668.9256" fill="#84BE84" rx="3" ry="3" style="stroke:#038048;stroke-width:1.0;"/><text fill="#000000" font-family="sans-serif" font-size="14" lengthAdjust="spacing" text-decoration="underline" textLength="185" x="1257.5" y="672.8576">cull_back_state() : Cull_state</text></g><!--class Pipeline_state--><g id="elem_Pipeline_state"><rect codeLine="52" fill="#F1F1F1" height="181.4754" id="Pipeline_state" rx="2.5" ry="2.5" style="stroke:#181818;stroke-width:0.5;" width="311" x="627.5" y="248.48"/><ellipse cx="732.25" cy="264.48" fill="#F1F1F1" rx="11" ry="11" style="stroke:#181818;stroke-width:1.0;"/><path d="M736.8125,267.4644 Q736.8125,268.6363 736.2344,269.4644 Q735.6719,270.2925 734.625,270.73 Q733.5938,271.1519 732.2188,271.1519 Q731.5156,271.1519 730.875,271.0738 Q730.25,271.0113 729.7188,270.8863 Q729.1875,270.7456 728.6094,270.48 L728.6094,268.4331 Q729.5938,268.8706 730.4688,269.0894 Q731.3438,269.2925 732.2813,269.2925 Q733.1406,269.2925 733.6875,269.0894 Q734.2344,268.8706 734.4844,268.4956 Q734.75,268.1206 734.75,267.605 Q734.75,267.0894 734.5313,266.7456 Q734.3281,266.4019 733.7344,266.0738 Q733.1563,265.7456 732.0625,265.355 Q731.2656,265.0425 730.6406,264.7144 Q730.0313,264.3706 729.6094,263.9175 Q729.1875,263.4488 728.9688,262.855 Q728.7656,262.2613 728.7656,261.4956 Q728.7656,260.4488 729.2969,259.6988 Q729.8438,258.9331 730.7813,258.5425 Q731.7188,258.1363 732.9063,258.1363 Q733.9531,258.1363 734.7969,258.3394 Q735.6563,258.5269 736.5938,258.9488 L735.9375,260.7613 Q735.0625,260.3706 734.3438,260.1988 Q733.6406,260.0113 732.875,260.0113 Q732.1719,260.0113 731.7188,260.2144 Q731.2813,260.4019 731.0625,260.7456 Q730.8438,261.0738 730.8438,261.5113 Q730.8438,262.0581 731.0625,262.4019 Q731.2813,262.7456 731.8125,263.0581 Q732.3594,263.355 733.3281,263.7144 Q734.4219,264.1206 735.1875,264.605 Q735.9688,265.0738 736.3906,265.7613 Q736.8125,266.4331 736.8125,267.4644 Z " fill="#000000"/><text fill="#000000" font-family="sans-serif" font-size="14" lengthAdjust="spacing" textLength="93" x="752.75" y="269.912">Pipeline_state</text><line style="stroke:#181818;stroke-width:0.5;" x1="628.5" x2="937.5" y1="280.48" y2="280.48"/><ellipse cx="638.5" cy="295.514" fill="none" rx="3" ry="3" style="stroke:#038048;stroke-width:1.0;"/><text fill="#000000" font-family="sans-serif" font-size="14" lengthAdjust="spacing" textLength="171" x="647.5" y="299.4459">depth_state : Depth_state</text><ellipse cx="638.5" cy="314.5819" fill="none" rx="3" ry="3" style="stroke:#038048;stroke-width:1.0;"/><text fill="#000000" font-family="sans-serif" font-size="14" lengthAdjust="spacing" textLength="168" x="647.5" y="318.5139">blend_state : Blend_state</text><ellipse cx="638.5" cy="333.6498" fill="none" rx="3" ry="3" style="stroke:#038048;stroke-width:1.0;"/><text fill="#000000" font-family="sans-serif" font-size="14" lengthAdjust="spacing" textLength="285" x="647.5" y="337.5818">polygon_offset_state : Polygon_offset_state</text><ellipse cx="638.5" cy="352.7177" fill="none" rx="3" ry="3" style="stroke:#038048;stroke-width:1.0;"/><text fill="#000000" font-family="sans-serif" font-size="14" lengthAdjust="spacing" textLength="179" x="647.5" y="356.6497">stencil_state : Stencil_state</text><ellipse cx="638.5" cy="371.7856" fill="none" rx="3" ry="3" style="stroke:#038048;stroke-width:1.0;"/><text fill="#000000" font-family="sans-serif" font-size="14" lengthAdjust="spacing" textLength="140" x="647.5" y="375.7176">cull_state : Cull_state</text><line style="stroke:#181818;stroke-width:0.5;" x1="628.5" x2="937.5" y1="383.8196" y2="383.8196"/><ellipse cx="638.5" cy="398.8535" fill="#84BE84" rx="3" ry="3" style="stroke:#038048;stroke-width:1.0;"/><text fill="#000000" font-family="sans-serif" font-size="14" lengthAdjust="spacing" text-decoration="underline" textLength="265" x="647.5" y="402.7855">shadow_pipeline_state() : Pipeline_state</text><ellipse cx="638.5" cy="417.9215" fill="#84BE84" rx="3" ry="3" style="stroke:#038048;stroke-width:1.0;"/><text fill="#000000" font-family="sans-serif" font-size="14" lengthAdjust="spacing" text-decoration="underline" textLength="264" x="647.5" y="421.8534">opaque_pipeline_state() : Pipeline_state</text></g><!--class RHI_pipeline_state--><g id="elem_RHI_pipeline_state"><rect codeLine="62" fill="#F1F1F1" height="181.4754" id="RHI_pipeline_state" rx="2.5" ry="2.5" style="stroke:#181818;stroke-width:0.5;" width="370" x="598" y="7"/><ellipse cx="720.75" cy="23" fill="#A9DCDF" rx="11" ry="11" style="stroke:#181818;stroke-width:1.0;"/><path d="M724.0938,28.25 L722.625,24.5 L718.1875,24.5 L716.75,28.25 L714.625,28.25 L719.5781,15.5313 L721.3281,15.5313 L726.25,28.25 L724.0938,28.25 Z M720.75,19.2969 Q720.7031,19.1406 720.5781,18.7813 Q720.4531,18.4219 720.3438,18.0469 Q720.2344,17.6563 720.4375,17.5938 Q720.5938,17.7813 720.5,18.1406 Q720.4063,18.4844 720.3125,18.7813 Q720.2188,19.0625 720.1406,19.2969 L718.9063,22.6094 L721.9844,22.6094 L720.75,19.2969 Z " fill="#000000"/><text fill="#000000" font-family="sans-serif" font-size="14" font-style="italic" lengthAdjust="spacing" textLength="116" x="741.25" y="28.432">RHI_pipeline_state</text><line style="stroke:#181818;stroke-width:0.5;" x1="599" x2="967" y1="39" y2="39"/><polygon fill="none" points="609,49.034,613,53.034,609,57.034,605,53.034" style="stroke:#B38D22;stroke-width:1.0;"/><text fill="#000000" font-family="sans-serif" font-size="14" lengthAdjust="spacing" textLength="205" x="618" y="57.9659">_pipeline_state : Pipeline_state</text><line style="stroke:#181818;stroke-width:0.5;" x1="599" x2="967" y1="66.0679" y2="66.0679"/><ellipse cx="609" cy="81.1019" fill="#84BE84" rx="3" ry="3" style="stroke:#038048;stroke-width:1.0;"/><text fill="#000000" font-family="sans-serif" font-size="14" lengthAdjust="spacing" textLength="45" x="618" y="85.0339">apply()</text><polygon fill="#FFFF44" points="609,95.1698,613,99.1698,609,103.1698,605,99.1698" style="stroke:#B38D22;stroke-width:1.0;"/><text fill="#000000" font-family="sans-serif" font-size="14" font-style="italic" lengthAdjust="spacing" textLength="232" x="618" y="104.1018">apply_blend_state(state: Blend_state)</text><polygon fill="#FFFF44" points="609,114.2377,613,118.2377,609,122.2377,605,118.2377" style="stroke:#B38D22;stroke-width:1.0;"/><text fill="#000000" font-family="sans-serif" font-size="14" font-style="italic" lengthAdjust="spacing" textLength="208" x="618" y="123.1697">apply_cull_state(state: Cull_state)</text><polygon fill="#FFFF44" points="609,133.3056,613,137.3056,609,141.3056,605,137.3056" style="stroke:#B38D22;stroke-width:1.0;"/><text fill="#000000" font-family="sans-serif" font-size="14" font-style="italic" lengthAdjust="spacing" textLength="235" x="618" y="142.2376">apply_depth_state(state: Depth_state)</text><polygon fill="#FFFF44" points="609,152.3735,613,156.3735,609,160.3735,605,156.3735" style="stroke:#B38D22;stroke-width:1.0;"/><text fill="#000000" font-family="sans-serif" font-size="14" font-style="italic" lengthAdjust="spacing" textLength="344" x="618" y="161.3055">apply_polygon_offset_state(state: Polygon_offset_state)</text><polygon fill="#FFFF44" points="609,171.4415,613,175.4415,609,179.4415,605,175.4415" style="stroke:#B38D22;stroke-width:1.0;"/><text fill="#000000" font-family="sans-serif" font-size="14" font-style="italic" lengthAdjust="spacing" textLength="243" x="618" y="180.3734">apply_stencil_state(state: Stencil_state)</text></g><!--reverse link Pipeline_state to Depth_state--><g id="link_Pipeline_state_Depth_state"><path codeLine="72" d="M615.27,308.97 C428.71,308.97 153,308.97 153,308.97 C153,308.97 153,438.69 153,527.62 " fill="none" id="Pipeline_state-backto-Depth_state" style="stroke:#181818;stroke-width:1.0;"/><polygon fill="#181818" points="627.27,308.97,621.27,304.97,615.27,308.97,621.27,312.97,627.27,308.97" style="stroke:#181818;stroke-width:1.0;"/></g><!--reverse link Pipeline_state to Blend_state--><g id="link_Pipeline_state_Blend_state"><path codeLine="73" d="M929.75,442.27 C929.75,520.68 929.75,609.29 929.75,609.29 C929.75,609.29 940.28,609.29 955.75,609.29 " fill="none" id="Pipeline_state-backto-Blend_state" style="stroke:#181818;stroke-width:1.0;"/><polygon fill="#181818" points="929.75,430.27,925.75,436.27,929.75,442.27,933.75,436.27,929.75,430.27" style="stroke:#181818;stroke-width:1.0;"/></g><!--reverse link Pipeline_state to Polygon_offset_state--><g id="link_Pipeline_state_Polygon_offset_state"><path codeLine="74" d="M615.03,369.46 C601.03,369.46 604,369.46 604,369.46 C604,369.46 604,450.43 604,518.28 " fill="none" id="Pipeline_state-backto-Polygon_offset_state" style="stroke:#181818;stroke-width:1.0;"/><polygon fill="#181818" points="627.03,369.46,621.03,365.46,615.03,369.46,621.03,373.46,627.03,369.46" style="stroke:#181818;stroke-width:1.0;"/></g><!--reverse link Pipeline_state to Stencil_state--><g id="link_Pipeline_state_Stencil_state"><path codeLine="75" d="M783,442.27 C783,461.41 783,469.88 783,489.88 " fill="none" id="Pipeline_state-backto-Stencil_state" style="stroke:#181818;stroke-width:1.0;"/><polygon fill="#181818" points="783,430.27,779,436.27,783,442.27,787,436.27,783,430.27" style="stroke:#181818;stroke-width:1.0;"/></g><!--reverse link Pipeline_state to Cull_state--><g id="link_Pipeline_state_Cull_state"><path codeLine="76" d="M950.99,339.21 C1116.69,339.21 1343,339.21 1343,339.21 C1343,339.21 1343,457.26 1343,537.27 " fill="none" id="Pipeline_state-backto-Cull_state" style="stroke:#181818;stroke-width:1.0;"/><polygon fill="#181818" points="938.99,339.21,944.99,343.21,950.99,339.21,944.99,335.21,938.99,339.21" style="stroke:#181818;stroke-width:1.0;"/></g><!--reverse link RHI_pipeline_state to Pipeline_state--><g id="link_RHI_pipeline_state_Pipeline_state"><path codeLine="78" d="M783,200.69 C783,220.2 783,228.83 783,248.35 " fill="none" id="RHI_pipeline_state-backto-Pipeline_state" style="stroke:#181818;stroke-width:1.0;"/><polygon fill="#181818" points="783,188.69,779,194.69,783,200.69,787,194.69,783,188.69" style="stroke:#181818;stroke-width:1.0;"/><text fill="#000000" font-family="sans-serif" font-size="13" lengthAdjust="spacing" textLength="89" x="693" y="214.417">_pipeline_state</text></g><!--SRC=[bLH1Rjim4Bpx5GHwYLla0pcsFRIteds0iAAMCMkQPCbLKYFmtqjHPaGggoIz631dHhixd6KyQkiXm4aORP7E7eKBT72xNQGmIX9VqTEXYmI4ucadn2U15dg3tP01maZYJlJE6GJx4dyCEWbRmen8Tqg5iLEZbQITJIHjIIJ6qrHDoqkYEWz_HknS_nibpLtSx1EpwgeLK00Rf-zQ-WzLF9vxztU3UNdsueSpvtjdEwTKHE9CyKvFXJFEspBP_2f1QMDumhMi0aak94mP1rGZezKKAw2QS405ewdDu8PfDND3mrkQnPzVX5PgmnaJhn2J5pu86Ieg1Ud7-GgPC_Jot4ECxKb0XIaE4hi7C2DMo0dYyVblxPMEwy6RoTY81lG69BvFWyFzj224UU1DpUBiPuDsu7pj9s1bQ7HZI9r8PrnOqh8u5qbRo8KtAFcZoKKCq5p8wnvLFRPSCFu0SwSRz6NGBwDXyoFJ-Jet4pNrNb-f2ixc3PdiLJhjm_lxNqgtr5od1tdakTNpe3tczQxx7whtS_q25QSBsZgOmiozDvkRkwnB8QuJU9sbm5i3nmCCxh7ppJZp_ZT7x1wyhKg6GPyiIwaJqgHz5J-_VL_fidaVnFgKwI35otjpljbFtPJlNf8s7pUfox-DonkYnQMYMQpQa5JNN3JLNM-8kFijQkwIDpxJN7lHDtU_dqnVnVFZxMqJHmQkyyZ0R0uPNXj3Xb05SSTa8TTQ1s55slq3]--></g></svg>