<?xml version="1.0" encoding="us-ascii" standalone="no"?><svg xmlns="http://www.w3.org/2000/svg" xmlns:xlink="http://www.w3.org/1999/xlink" contentStyleType="text/css" height="1052px" preserveAspectRatio="none" style="width:1327px;height:1052px;background:#FFFFFF;" version="1.1" viewBox="0 0 1327 1052" width="1327px" zoomAndPan="magnify"><defs/><g><text fill="#000000" font-family="sans-serif" font-size="14" font-weight="bold" lengthAdjust="spacing" textLength="201.5" x="556.005" y="24.9659">RHI_renderer Class Diagram</text><!--cluster Helper Structures--><g id="cluster_Helper Structures"><path d="M743.5,541.4279 L870.5,541.4279 A3.75,3.75 0 0 1 873,543.9279 L880,566.4958 L1297.5,566.4958 A2.5,2.5 0 0 1 1300,568.9958 L1300,1042.5679 A2.5,2.5 0 0 1 1297.5,1045.0679 L743.5,1045.0679 A2.5,2.5 0 0 1 741,1042.5679 L741,543.9279 A2.5,2.5 0 0 1 743.5,541.4279 " fill="none" style="stroke:#000000;stroke-width:1.5;"/><line style="stroke:#000000;stroke-width:1.5;" x1="741" x2="880" y1="566.4958" y2="566.4958"/><text fill="#000000" font-family="sans-serif" font-size="14" font-weight="bold" lengthAdjust="spacing" textLength="126" x="745" y="558.3939">Helper Structures</text><text fill="#000000" font-family="sans-serif" font-size="14" font-style="italic" lengthAdjust="spacing" textLength="62" x="993.5" y="583.4618">&#171;Utilities&#187;</text></g><!--class Color--><g id="elem_Color"><rect codeLine="28" fill="#F1F1F1" height="156.7516" id="Color" rx="2.5" ry="2.5" style="stroke:#181818;stroke-width:0.5;" width="277" x="816.5" y="872.3179"/><ellipse cx="929.25" cy="895.0239" fill="#ADD1B2" rx="11" ry="11" style="stroke:#181818;stroke-width:1.0;"/><path d="M929.3594,890.5552 Q928.4375,890.5552 927.7031,890.8677 Q926.9844,891.1802 926.4844,891.7739 Q925.9844,892.3521 925.7031,893.2271 Q925.4375,894.1021 925.4375,895.1958 Q925.4375,896.6333 925.875,897.6802 Q926.3281,898.7271 927.1719,899.2739 Q928.0313,899.8208 929.3438,899.8208 Q930.125,899.8208 930.8125,899.6958 Q931.5156,899.5552 932.5156,899.2427 L932.5156,901.1177 Q931.6563,901.4458 930.8906,901.5708 Q930.1406,901.6958 929.125,901.6958 Q927.2031,901.6958 925.8906,900.8989 Q924.5938,900.0864 923.9375,898.6177 Q923.2813,897.1333 923.2813,895.1646 Q923.2813,893.7427 923.6719,892.5708 Q924.0781,891.3833 924.8594,890.5083 Q925.6406,889.6333 926.7813,889.1646 Q927.9219,888.6802 929.3906,888.6802 Q930.3438,888.6802 931.2344,888.8833 Q932.1406,889.0708 933.0781,889.5396 L932.25,891.3208 Q931.4688,890.9458 930.8125,890.7583 Q930.1563,890.5552 929.3594,890.5552 Z " fill="#000000"/><text fill="#000000" font-family="sans-serif" font-size="12" font-style="italic" lengthAdjust="spacing" textLength="47" x="947.75" y="890.146">&#171;Helper&#187;</text><text fill="#000000" font-family="sans-serif" font-size="14" lengthAdjust="spacing" textLength="35" x="953.75" y="908.628">Color</text><line style="stroke:#181818;stroke-width:0.5;" x1="817.5" x2="1092.5" y1="917.7299" y2="917.7299"/><ellipse cx="827.5" cy="932.7639" fill="none" rx="3" ry="3" style="stroke:#038048;stroke-width:1.0;"/><text fill="#000000" font-family="sans-serif" font-size="14" lengthAdjust="spacing" textLength="44" x="836.5" y="936.6959">r: float</text><ellipse cx="827.5" cy="951.8318" fill="none" rx="3" ry="3" style="stroke:#038048;stroke-width:1.0;"/><text fill="#000000" font-family="sans-serif" font-size="14" lengthAdjust="spacing" textLength="47" x="836.5" y="955.7638">g: float</text><ellipse cx="827.5" cy="970.8997" fill="none" rx="3" ry="3" style="stroke:#038048;stroke-width:1.0;"/><text fill="#000000" font-family="sans-serif" font-size="14" lengthAdjust="spacing" textLength="47" x="836.5" y="974.8317">b: float</text><ellipse cx="827.5" cy="989.9677" fill="none" rx="3" ry="3" style="stroke:#038048;stroke-width:1.0;"/><text fill="#000000" font-family="sans-serif" font-size="14" lengthAdjust="spacing" textLength="46" x="836.5" y="993.8996">a: float</text><line style="stroke:#181818;stroke-width:0.5;" x1="817.5" x2="1092.5" y1="1002.0016" y2="1002.0016"/><ellipse cx="827.5" cy="1017.0356" fill="#84BE84" rx="3" ry="3" style="stroke:#038048;stroke-width:1.0;"/><text fill="#000000" font-family="sans-serif" font-size="14" lengthAdjust="spacing" textLength="251" x="836.5" y="1020.9676">Color(r: float, g: float, b: float, a: float)</text></g><!--class Clear_state--><g id="elem_Clear_state"><rect codeLine="36" fill="#F1F1F1" height="194.8874" id="Clear_state" rx="2.5" ry="2.5" style="stroke:#181818;stroke-width:0.5;" width="396" x="757" y="598.4279"/><ellipse cx="913.75" cy="621.1339" fill="#ADD1B2" rx="11" ry="11" style="stroke:#181818;stroke-width:1.0;"/><path d="M913.8594,616.6652 Q912.9375,616.6652 912.2031,616.9777 Q911.4844,617.2902 910.9844,617.8839 Q910.4844,618.4621 910.2031,619.3371 Q909.9375,620.2121 909.9375,621.3058 Q909.9375,622.7433 910.375,623.7902 Q910.8281,624.8371 911.6719,625.3839 Q912.5313,625.9308 913.8438,625.9308 Q914.625,625.9308 915.3125,625.8058 Q916.0156,625.6652 917.0156,625.3527 L917.0156,627.2277 Q916.1563,627.5558 915.3906,627.6808 Q914.6406,627.8058 913.625,627.8058 Q911.7031,627.8058 910.3906,627.0089 Q909.0938,626.1964 908.4375,624.7277 Q907.7813,623.2433 907.7813,621.2746 Q907.7813,619.8527 908.1719,618.6808 Q908.5781,617.4933 909.3594,616.6183 Q910.1406,615.7433 911.2813,615.2746 Q912.4219,614.7902 913.8906,614.7902 Q914.8438,614.7902 915.7344,614.9933 Q916.6406,615.1808 917.5781,615.6496 L916.75,617.4308 Q915.9688,617.0558 915.3125,616.8683 Q914.6563,616.6652 913.8594,616.6652 Z " fill="#000000"/><text fill="#000000" font-family="sans-serif" font-size="12" font-style="italic" lengthAdjust="spacing" textLength="47" x="947.75" y="616.256">&#171;Helper&#187;</text><text fill="#000000" font-family="sans-serif" font-size="14" lengthAdjust="spacing" textLength="74" x="934.25" y="634.738">Clear_state</text><line style="stroke:#181818;stroke-width:0.5;" x1="758" x2="1152" y1="643.8399" y2="643.8399"/><ellipse cx="768" cy="658.8739" fill="none" rx="3" ry="3" style="stroke:#038048;stroke-width:1.0;"/><text fill="#000000" font-family="sans-serif" font-size="14" lengthAdjust="spacing" textLength="201" x="777" y="662.8059">clear_color_buffer: bool = true</text><ellipse cx="768" cy="677.9418" fill="none" rx="3" ry="3" style="stroke:#038048;stroke-width:1.0;"/><text fill="#000000" font-family="sans-serif" font-size="14" lengthAdjust="spacing" textLength="208" x="777" y="681.8738">clear_depth_buffer: bool = true</text><ellipse cx="768" cy="697.0097" fill="none" rx="3" ry="3" style="stroke:#038048;stroke-width:1.0;"/><text fill="#000000" font-family="sans-serif" font-size="14" lengthAdjust="spacing" textLength="212" x="777" y="700.9417">clear_stencil_buffer: bool = true</text><ellipse cx="768" cy="716.0777" fill="none" rx="3" ry="3" style="stroke:#038048;stroke-width:1.0;"/><text fill="#000000" font-family="sans-serif" font-size="14" lengthAdjust="spacing" textLength="172" x="777" y="720.0096">default_color_value: Color</text><ellipse cx="768" cy="735.1456" fill="none" rx="3" ry="3" style="stroke:#038048;stroke-width:1.0;"/><text fill="#000000" font-family="sans-serif" font-size="14" lengthAdjust="spacing" textLength="215" x="777" y="739.0776">default_depth_value: float = 1.0f</text><ellipse cx="768" cy="754.2135" fill="none" rx="3" ry="3" style="stroke:#038048;stroke-width:1.0;"/><text fill="#000000" font-family="sans-serif" font-size="14" lengthAdjust="spacing" textLength="190" x="777" y="758.1455">default_stencil_value: int = 0</text><line style="stroke:#181818;stroke-width:0.5;" x1="758" x2="1152" y1="766.2474" y2="766.2474"/><ellipse cx="768" cy="781.2814" fill="#84BE84" rx="3" ry="3" style="stroke:#038048;stroke-width:1.0;"/><text fill="#000000" font-family="sans-serif" font-size="14" lengthAdjust="spacing" textLength="370" x="777" y="785.2134">Clear_state() ' Initializes default_color_value to soft pink</text></g><!--class Viewport--><g id="elem_Viewport"><rect codeLine="47" fill="#F1F1F1" height="129.6837" id="Viewport" rx="2.5" ry="2.5" style="stroke:#181818;stroke-width:0.5;" width="96" x="1188" y="631.0279"/><ellipse cx="1205.25" cy="653.7339" fill="#ADD1B2" rx="11" ry="11" style="stroke:#181818;stroke-width:1.0;"/><path d="M1205.3594,649.2652 Q1204.4375,649.2652 1203.7031,649.5777 Q1202.9844,649.8902 1202.4844,650.4839 Q1201.9844,651.0621 1201.7031,651.9371 Q1201.4375,652.8121 1201.4375,653.9058 Q1201.4375,655.3433 1201.875,656.3902 Q1202.3281,657.4371 1203.1719,657.9839 Q1204.0313,658.5308 1205.3438,658.5308 Q1206.125,658.5308 1206.8125,658.4058 Q1207.5156,658.2652 1208.5156,657.9527 L1208.5156,659.8277 Q1207.6563,660.1558 1206.8906,660.2808 Q1206.1406,660.4058 1205.125,660.4058 Q1203.2031,660.4058 1201.8906,659.6089 Q1200.5938,658.7964 1199.9375,657.3277 Q1199.2813,655.8433 1199.2813,653.8746 Q1199.2813,652.4527 1199.6719,651.2808 Q1200.0781,650.0933 1200.8594,649.2183 Q1201.6406,648.3433 1202.7813,647.8746 Q1203.9219,647.3902 1205.3906,647.3902 Q1206.3438,647.3902 1207.2344,647.5933 Q1208.1406,647.7808 1209.0781,648.2496 L1208.25,650.0308 Q1207.4688,649.6558 1206.8125,649.4683 Q1206.1563,649.2652 1205.3594,649.2652 Z " fill="#000000"/><text fill="#000000" font-family="sans-serif" font-size="12" font-style="italic" lengthAdjust="spacing" textLength="47" x="1225.75" y="648.856">&#171;Helper&#187;</text><text fill="#000000" font-family="sans-serif" font-size="14" lengthAdjust="spacing" textLength="59" x="1219.75" y="667.338">Viewport</text><line style="stroke:#181818;stroke-width:0.5;" x1="1189" x2="1283" y1="676.4399" y2="676.4399"/><ellipse cx="1199" cy="691.4739" fill="none" rx="3" ry="3" style="stroke:#038048;stroke-width:1.0;"/><text fill="#000000" font-family="sans-serif" font-size="14" lengthAdjust="spacing" textLength="33" x="1208" y="695.4059">x: int</text><ellipse cx="1199" cy="710.5418" fill="none" rx="3" ry="3" style="stroke:#038048;stroke-width:1.0;"/><text fill="#000000" font-family="sans-serif" font-size="14" lengthAdjust="spacing" textLength="33" x="1208" y="714.4738">y: int</text><ellipse cx="1199" cy="729.6097" fill="none" rx="3" ry="3" style="stroke:#038048;stroke-width:1.0;"/><text fill="#000000" font-family="sans-serif" font-size="14" lengthAdjust="spacing" textLength="64" x="1208" y="733.5417">width: int</text><ellipse cx="1199" cy="748.6777" fill="none" rx="3" ry="3" style="stroke:#038048;stroke-width:1.0;"/><text fill="#000000" font-family="sans-serif" font-size="14" lengthAdjust="spacing" textLength="70" x="1208" y="752.6096">height: int</text></g><!--class RHI_shader_program--><g id="elem_RHI_shader_program"><rect codeLine="15" fill="#F1F1F1" height="32" id="RHI_shader_program" rx="2.5" ry="2.5" style="stroke:#181818;stroke-width:0.5;" width="174" x="7" y="679.8679"/><ellipse cx="22" cy="695.8679" fill="#ADD1B2" rx="11" ry="11" style="stroke:#181818;stroke-width:1.0;"/><path d="M22.1094,691.3992 Q21.1875,691.3992 20.4531,691.7117 Q19.7344,692.0242 19.2344,692.6179 Q18.7344,693.196 18.4531,694.071 Q18.1875,694.946 18.1875,696.0398 Q18.1875,697.4773 18.625,698.5242 Q19.0781,699.571 19.9219,700.1179 Q20.7813,700.6648 22.0938,700.6648 Q22.875,700.6648 23.5625,700.5398 Q24.2656,700.3992 25.2656,700.0867 L25.2656,701.9617 Q24.4063,702.2898 23.6406,702.4148 Q22.8906,702.5398 21.875,702.5398 Q19.9531,702.5398 18.6406,701.7429 Q17.3438,700.9304 16.6875,699.4617 Q16.0313,697.9773 16.0313,696.0085 Q16.0313,694.5867 16.4219,693.4148 Q16.8281,692.2273 17.6094,691.3523 Q18.3906,690.4773 19.5313,690.0085 Q20.6719,689.5242 22.1406,689.5242 Q23.0938,689.5242 23.9844,689.7273 Q24.8906,689.9148 25.8281,690.3835 L25,692.1648 Q24.2188,691.7898 23.5625,691.6023 Q22.9063,691.3992 22.1094,691.3992 Z " fill="#000000"/><text fill="#000000" font-family="sans-serif" font-size="14" lengthAdjust="spacing" textLength="142" x="36" y="701.2999">RHI_shader_program</text></g><!--class RHI_geometry--><g id="elem_RHI_geometry"><rect codeLine="18" fill="#F1F1F1" height="32" id="RHI_geometry" rx="2.5" ry="2.5" style="stroke:#181818;stroke-width:0.5;" width="126" x="216" y="679.8679"/><ellipse cx="231" cy="695.8679" fill="#ADD1B2" rx="11" ry="11" style="stroke:#181818;stroke-width:1.0;"/><path d="M231.1094,691.3992 Q230.1875,691.3992 229.4531,691.7117 Q228.7344,692.0242 228.2344,692.6179 Q227.7344,693.196 227.4531,694.071 Q227.1875,694.946 227.1875,696.0398 Q227.1875,697.4773 227.625,698.5242 Q228.0781,699.571 228.9219,700.1179 Q229.7813,700.6648 231.0938,700.6648 Q231.875,700.6648 232.5625,700.5398 Q233.2656,700.3992 234.2656,700.0867 L234.2656,701.9617 Q233.4063,702.2898 232.6406,702.4148 Q231.8906,702.5398 230.875,702.5398 Q228.9531,702.5398 227.6406,701.7429 Q226.3438,700.9304 225.6875,699.4617 Q225.0313,697.9773 225.0313,696.0085 Q225.0313,694.5867 225.4219,693.4148 Q225.8281,692.2273 226.6094,691.3523 Q227.3906,690.4773 228.5313,690.0085 Q229.6719,689.5242 231.1406,689.5242 Q232.0938,689.5242 232.9844,689.7273 Q233.8906,689.9148 234.8281,690.3835 L234,692.1648 Q233.2188,691.7898 232.5625,691.6023 Q231.9063,691.3992 231.1094,691.3992 Z " fill="#000000"/><text fill="#000000" font-family="sans-serif" font-size="14" lengthAdjust="spacing" textLength="94" x="245" y="701.2999">RHI_geometry</text></g><!--class RHI_frame_buffer_base--><g id="elem_RHI_frame_buffer_base"><rect codeLine="21" fill="#F1F1F1" height="32" id="RHI_frame_buffer_base" rx="2.5" ry="2.5" style="stroke:#181818;stroke-width:0.5;" width="188" x="377" y="679.8679"/><ellipse cx="392" cy="695.8679" fill="#ADD1B2" rx="11" ry="11" style="stroke:#181818;stroke-width:1.0;"/><path d="M392.1094,691.3992 Q391.1875,691.3992 390.4531,691.7117 Q389.7344,692.0242 389.2344,692.6179 Q388.7344,693.196 388.4531,694.071 Q388.1875,694.946 388.1875,696.0398 Q388.1875,697.4773 388.625,698.5242 Q389.0781,699.571 389.9219,700.1179 Q390.7813,700.6648 392.0938,700.6648 Q392.875,700.6648 393.5625,700.5398 Q394.2656,700.3992 395.2656,700.0867 L395.2656,701.9617 Q394.4063,702.2898 393.6406,702.4148 Q392.8906,702.5398 391.875,702.5398 Q389.9531,702.5398 388.6406,701.7429 Q387.3438,700.9304 386.6875,699.4617 Q386.0313,697.9773 386.0313,696.0085 Q386.0313,694.5867 386.4219,693.4148 Q386.8281,692.2273 387.6094,691.3523 Q388.3906,690.4773 389.5313,690.0085 Q390.6719,689.5242 392.1406,689.5242 Q393.0938,689.5242 393.9844,689.7273 Q394.8906,689.9148 395.8281,690.3835 L395,692.1648 Q394.2188,691.7898 393.5625,691.6023 Q392.9063,691.3992 392.1094,691.3992 Z " fill="#000000"/><text fill="#000000" font-family="sans-serif" font-size="14" lengthAdjust="spacing" textLength="156" x="406" y="701.2999">RHI_frame_buffer_base</text></g><!--class RHI_renderer--><g id="elem_RHI_renderer"><rect codeLine="57" fill="#F1F1F1" height="429.3583" id="RHI_renderer" rx="2.5" ry="2.5" style="stroke:#181818;stroke-width:0.5;" width="780" x="176" y="47.0679"/><ellipse cx="519.75" cy="63.0679" fill="#A9DCDF" rx="11" ry="11" style="stroke:#181818;stroke-width:1.0;"/><path d="M523.0938,68.3179 L521.625,64.5679 L517.1875,64.5679 L515.75,68.3179 L513.625,68.3179 L518.5781,55.5992 L520.3281,55.5992 L525.25,68.3179 L523.0938,68.3179 Z M519.75,59.3648 Q519.7031,59.2085 519.5781,58.8492 Q519.4531,58.4898 519.3438,58.1148 Q519.2344,57.7242 519.4375,57.6617 Q519.5938,57.8492 519.5,58.2085 Q519.4063,58.5523 519.3125,58.8492 Q519.2188,59.1304 519.1406,59.3648 L517.9063,62.6773 L520.9844,62.6773 L519.75,59.3648 Z " fill="#000000"/><text fill="#000000" font-family="sans-serif" font-size="14" font-style="italic" lengthAdjust="spacing" textLength="84" x="540.25" y="68.4999">RHI_renderer</text><line style="stroke:#181818;stroke-width:0.5;" x1="177" x2="955" y1="79.0679" y2="79.0679"/><polygon fill="none" points="187,89.1019,191,93.1019,187,97.1019,183,93.1019" style="stroke:#B38D22;stroke-width:1.0;"/><text fill="#000000" font-family="sans-serif" font-size="14" lengthAdjust="spacing" textLength="289" x="196" y="98.0339">m_shader_program: RHI_shader_program*</text><polygon fill="none" points="187,108.1698,191,112.1698,187,116.1698,183,112.1698" style="stroke:#B38D22;stroke-width:1.0;"/><text fill="#000000" font-family="sans-serif" font-size="14" lengthAdjust="spacing" textLength="193" x="196" y="117.1018">m_geometry: RHI_geometry*</text><polygon fill="none" points="187,127.2377,191,131.2377,187,135.2377,183,131.2377" style="stroke:#B38D22;stroke-width:1.0;"/><text fill="#000000" font-family="sans-serif" font-size="14" lengthAdjust="spacing" textLength="279" x="196" y="136.1697">m_frame_buffer: RHI_frame_buffer_base*</text><polygon fill="none" points="187,146.3056,191,150.3056,187,154.3056,183,150.3056" style="stroke:#B38D22;stroke-width:1.0;"/><text fill="#000000" font-family="sans-serif" font-size="14" lengthAdjust="spacing" textLength="173" x="196" y="155.2376">m_clear_state: Clear_state</text><line style="stroke:#181818;stroke-width:0.5;" x1="177" x2="955" y1="163.3396" y2="163.3396"/><ellipse cx="187" cy="178.3735" fill="#84BE84" rx="3" ry="3" style="stroke:#038048;stroke-width:1.0;"/><text fill="#000000" font-family="sans-serif" font-size="14" lengthAdjust="spacing" textLength="399" x="196" y="182.3055">init(): void ' Initializes held resources to nullptr, resets state</text><text fill="#000000" font-family="sans-serif" font-size="14" lengthAdjust="spacing" textLength="4" x="196" y="201.3734">&#160;</text><ellipse cx="187" cy="216.5094" fill="#84BE84" rx="3" ry="3" style="stroke:#038048;stroke-width:1.0;"/><text fill="#000000" font-family="sans-serif" font-size="14" lengthAdjust="spacing" textLength="399" x="196" y="220.4414">set_shader_program(program: RHI_shader_program*): void</text><ellipse cx="187" cy="235.5773" fill="#84BE84" rx="3" ry="3" style="stroke:#038048;stroke-width:1.0;"/><text fill="#000000" font-family="sans-serif" font-size="14" lengthAdjust="spacing" textLength="308" x="196" y="239.5093">set_geometry(geometry: RHI_geometry*): void</text><ellipse cx="187" cy="254.6452" fill="#84BE84" rx="3" ry="3" style="stroke:#038048;stroke-width:1.0;"/><text fill="#000000" font-family="sans-serif" font-size="14" lengthAdjust="spacing" textLength="418" x="196" y="258.5772">set_frame_buffer(frame_buffer: RHI_frame_buffer_base*): void</text><text fill="#000000" font-family="sans-serif" font-size="14" lengthAdjust="spacing" textLength="4" x="196" y="277.6451">&#160;</text><ellipse cx="187" cy="292.781" fill="#84BE84" rx="3" ry="3" style="stroke:#038048;stroke-width:1.0;"/><text fill="#000000" font-family="sans-serif" font-size="14" font-style="italic" lengthAdjust="spacing" textLength="418" x="196" y="296.713">draw(primitive_type: PrimitiveType, count: int, offset: int = 0): void</text><ellipse cx="187" cy="311.849" fill="#84BE84" rx="3" ry="3" style="stroke:#038048;stroke-width:1.0;"/><text fill="#000000" font-family="sans-serif" font-size="14" font-style="italic" lengthAdjust="spacing" textLength="754" x="196" y="315.7809">draw_instanced(primitive_type: PrimitiveType, count: int, instance_count: int, offset: int = 0, base_instance: int = 0): void</text><text fill="#000000" font-family="sans-serif" font-size="14" lengthAdjust="spacing" textLength="4" x="196" y="334.8489">&#160;</text><ellipse cx="187" cy="349.9848" fill="#84BE84" rx="3" ry="3" style="stroke:#038048;stroke-width:1.0;"/><text fill="#000000" font-family="sans-serif" font-size="14" lengthAdjust="spacing" textLength="523" x="196" y="353.9168">{virtual} clear(): void ' Clears currently bound framebuffer using m_clear_state</text><ellipse cx="187" cy="369.0527" fill="#84BE84" rx="3" ry="3" style="stroke:#038048;stroke-width:1.0;"/><text fill="#000000" font-family="sans-serif" font-size="14" lengthAdjust="spacing" textLength="551" x="196" y="372.9847">{virtual} apply_clear_state(): void ' Applies m_clear_state values to the graphics API</text><ellipse cx="187" cy="388.1206" fill="#84BE84" rx="3" ry="3" style="stroke:#038048;stroke-width:1.0;"/><text fill="#000000" font-family="sans-serif" font-size="14" lengthAdjust="spacing" textLength="494" x="196" y="392.0526">change_clear_state(modifier_func: std::function&lt;void(Clear_state&amp;)&gt;): void</text><text fill="#000000" font-family="sans-serif" font-size="14" lengthAdjust="spacing" textLength="4" x="196" y="411.1205">&#160;</text><ellipse cx="187" cy="426.2565" fill="#84BE84" rx="3" ry="3" style="stroke:#038048;stroke-width:1.0;"/><text fill="#000000" font-family="sans-serif" font-size="14" font-style="italic" lengthAdjust="spacing" textLength="153" x="196" y="430.1884">get_viewport(): Viewport</text><ellipse cx="187" cy="445.3244" fill="#84BE84" rx="3" ry="3" style="stroke:#038048;stroke-width:1.0;"/><text fill="#000000" font-family="sans-serif" font-size="14" font-style="italic" lengthAdjust="spacing" textLength="201" x="196" y="449.2564">set_viewport(vp: Viewport): void</text><ellipse cx="187" cy="464.3923" fill="#84BE84" rx="3" ry="3" style="stroke:#038048;stroke-width:1.0;"/><text fill="#000000" font-family="sans-serif" font-size="14" font-style="italic" lengthAdjust="spacing" textLength="506" x="196" y="468.3243">set_viewport(x: int, y: int, width: int, height: int): void ' Overload for convenience</text></g><!--class PrimitiveType--><g id="elem_PrimitiveType"><rect fill="#F1F1F1" height="32" id="PrimitiveType" rx="2.5" ry="2.5" style="stroke:#181818;stroke-width:0.5;" width="123" x="599.5" y="679.8679"/><ellipse cx="614.5" cy="695.8679" fill="#ADD1B2" rx="11" ry="11" style="stroke:#181818;stroke-width:1.0;"/><path d="M614.6094,691.3992 Q613.6875,691.3992 612.9531,691.7117 Q612.2344,692.0242 611.7344,692.6179 Q611.2344,693.196 610.9531,694.071 Q610.6875,694.946 610.6875,696.0398 Q610.6875,697.4773 611.125,698.5242 Q611.5781,699.571 612.4219,700.1179 Q613.2813,700.6648 614.5938,700.6648 Q615.375,700.6648 616.0625,700.5398 Q616.7656,700.3992 617.7656,700.0867 L617.7656,701.9617 Q616.9063,702.2898 616.1406,702.4148 Q615.3906,702.5398 614.375,702.5398 Q612.4531,702.5398 611.1406,701.7429 Q609.8438,700.9304 609.1875,699.4617 Q608.5313,697.9773 608.5313,696.0085 Q608.5313,694.5867 608.9219,693.4148 Q609.3281,692.2273 610.1094,691.3523 Q610.8906,690.4773 612.0313,690.0085 Q613.1719,689.5242 614.6406,689.5242 Q615.5938,689.5242 616.4844,689.7273 Q617.3906,689.9148 618.3281,690.3835 L617.5,692.1648 Q616.7188,691.7898 616.0625,691.6023 Q615.4063,691.3992 614.6094,691.3992 Z " fill="#000000"/><text fill="#000000" font-family="sans-serif" font-size="14" lengthAdjust="spacing" textLength="91" x="628.5" y="701.2999">PrimitiveType</text></g><!--link RHI_renderer to RHI_shader_program--><g id="link_RHI_renderer_RHI_shader_program"><path codeLine="82" d="M248.9265,484.5652 C228.2365,502.9352 217.33,513.9879 199,533.4279 C154.27,580.8679 119.4823,644.361 104.1523,674.471 " fill="none" id="RHI_renderer-RHI_shader_program" style="stroke:#181818;stroke-width:1.0;"/><polygon fill="none" points="257.9,476.5979,250.7575,477.5904,248.9265,484.5652,256.069,483.5727,257.9,476.5979" style="stroke:#181818;stroke-width:1.0;"/><polygon fill="#181818" points="101.43,679.8179,109.078,673.6124,103.6986,675.3622,101.9488,669.9827,101.43,679.8179" style="stroke:#181818;stroke-width:1.0;"/><text fill="#000000" font-family="sans-serif" font-size="13" lengthAdjust="spacing" textLength="27" x="225.92" y="521.3249">uses</text></g><!--link RHI_renderer to RHI_geometry--><g id="link_RHI_renderer_RHI_geometry"><path codeLine="83" d="M390.7265,486.4982 C377.5765,505.3982 371.72,514.6379 360,533.4279 C327.97,584.7779 300.5833,644.9559 287.8733,674.1759 " fill="none" id="RHI_renderer-RHI_geometry" style="stroke:#181818;stroke-width:1.0;"/><polygon fill="none" points="397.58,476.6479,390.8698,479.2886,390.7265,486.4982,397.4367,483.8576,397.58,476.6479" style="stroke:#181818;stroke-width:1.0;"/><polygon fill="#181818" points="285.48,679.6779,292.7379,673.0204,287.4744,675.0929,285.4019,669.8294,285.48,679.6779" style="stroke:#181818;stroke-width:1.0;"/><text fill="#000000" font-family="sans-serif" font-size="13" lengthAdjust="spacing" textLength="27" x="375.86" y="521.3249">uses</text></g><!--link RHI_renderer to RHI_frame_buffer_base--><g id="link_RHI_renderer_RHI_frame_buffer_base"><path codeLine="84" d="M516.3426,488.6279 C497.8126,572.8879 483.0793,639.9481 475.6493,673.7181 " fill="none" id="RHI_renderer-RHI_frame_buffer_base" style="stroke:#181818;stroke-width:1.0;"/><polygon fill="none" points="518.92,476.9079,513.7247,481.9088,516.3426,488.6279,521.538,483.627,518.92,476.9079" style="stroke:#181818;stroke-width:1.0;"/><polygon fill="#181818" points="474.36,679.5779,480.2005,671.6477,475.4344,674.6947,472.3873,669.9286,474.36,679.5779" style="stroke:#181818;stroke-width:1.0;"/><text fill="#000000" font-family="sans-serif" font-size="13" lengthAdjust="spacing" textLength="43" x="510.99" y="521.3249">targets</text></g><!--link RHI_renderer to Clear_state--><g id="link_RHI_renderer_Clear_state"><path codeLine="85" d="M773.2137,485.5348 C782.3237,495.5748 783.24,496.6479 792,506.4279 C818.41,535.9079 842.8381,563.8472 868.3781,593.4172 " fill="none" id="RHI_renderer-Clear_state" style="stroke:#181818;stroke-width:1.0;"/><polygon fill="#181818" points="765.15,476.6479,766.2196,483.7793,773.2137,485.5348,772.1441,478.4035,765.15,476.6479" style="stroke:#181818;stroke-width:1.0;"/><polygon fill="#181818" points="872.3,597.9579,869.4443,588.5322,869.0317,594.1739,863.3899,593.7614,872.3,597.9579" style="stroke:#181818;stroke-width:1.0;"/><text fill="#000000" font-family="sans-serif" font-size="13" lengthAdjust="spacing" textLength="230" x="806.44" y="521.3249">' Renderer owns its clear state instance</text><text fill="#000000" font-family="sans-serif" font-size="13" lengthAdjust="spacing" textLength="55" x="716.3187" y="498.5861">manages</text></g><!--link RHI_renderer to Viewport--><g id="link_RHI_renderer_Viewport"><path codeLine="88" d="M956.27,384.2979 C1034.69,422.4479 1111.24,471.3579 1171,533.4279 C1196.67,560.0879 1210.9457,592.458 1220.6357,624.958 " fill="none" id="RHI_renderer-to-Viewport" style="stroke:#181818;stroke-width:1.0;stroke-dasharray:7.0,7.0;"/><polygon fill="#181818" points="1222.35,630.7079,1223.6117,620.9402,1220.9214,625.9164,1215.9452,623.226,1222.35,630.7079" style="stroke:#181818;stroke-width:1.0;"/><text fill="#000000" font-family="sans-serif" font-size="13" lengthAdjust="spacing" textLength="160" x="1159.51" y="521.3249">(uses in method signature)</text></g><!--link RHI_renderer to PrimitiveType--><g id="link_RHI_renderer_PrimitiveType"><path codeLine="91" d="M613.08,476.9079 C631.61,561.1679 648.9207,639.9481 656.3507,673.7181 " fill="none" id="RHI_renderer-to-PrimitiveType" style="stroke:#181818;stroke-width:1.0;stroke-dasharray:7.0,7.0;"/><polygon fill="#181818" points="657.64,679.5779,659.6127,669.9286,656.5656,674.6947,651.7995,671.6477,657.64,679.5779" style="stroke:#181818;stroke-width:1.0;"/><text fill="#000000" font-family="sans-serif" font-size="13" lengthAdjust="spacing" textLength="160" x="623.01" y="521.3249">(uses in method signature)</text></g><!--reverse link Clear_state to Color--><g id="link_Clear_state_Color"><path codeLine="94" d="M955,805.5379 C955,831.4679 955,847.1579 955,871.9179 " fill="none" id="Clear_state-backto-Color" style="stroke:#181818;stroke-width:1.0;"/><polygon fill="#181818" points="955,793.5379,951,799.5379,955,805.5379,959,799.5379,955,793.5379" style="stroke:#181818;stroke-width:1.0;"/><text fill="#000000" font-family="sans-serif" font-size="13" lengthAdjust="spacing" textLength="88" x="956" y="838.2149">defines default</text></g><!--SRC=[bLRRRkCs47ttLqnJe2llAaxwKBGGqW2Easw21kl0oHReaq1B8uiDJQeaPSTTvDyxf2wM52Tf_M2Rd3E7S-DmBBS2ON5z4skKAMhKC1FC6BZaRANPUZJwBiMCIuJfnVt3OZfxY6Utq_lxU3Q_dI_WzvmzyXRIbTmnWG-b_hjKt62BkBwwlRjQnCJqrJ5vv2rVvVQpPhiMzMN-S1LVVExA_qGXr7Q0c2ykYQn2pJMJArnWEg9FpbC4N1Ts1sjSBr4Rslm0nyV7y9lIMwPJkCH4CCqiLzB02Imm8-TbWgaB1ioKnYeGQ9pQAF51SN4oEQCunOLMBZxmRGJmWTGBZGQbDS0WKUk22s9YCWN1vIFzhRIWrXezTmXNgDPezUubLItX2QJCCWWsg2q-dN1Ar1CiounCDkCULqRa65UYUCaCrgJJfR6Q9HRyNgOqU6G51BNy2nDhYAc9qZMAWWJtLfU9BScUaoOOGMd8dUMkLpDZ7wE29OziXN3qGli8piw-MYwuvMZEpxrHbT4p9SYOixDAfHO1V08TGIOKi_LorLyk-qlMNthIe648M-MmrGjRbJ7faD-jFGAPZerb5WzPbNXnulZhA4UmL4h0hq3EOW-LOc7pTr76KjLnyGQEIfwLmjQdRfWeCQfS702g0sk0Tuw8VfoSPWDSSsIDvDBXJflOxGCGZAboRYGbZGd-3-N-W2LW5HYLMIYepZt51_YYBD5ULk2zr9VT8Oe09wj9M6VDsHl2wUJdd_pFB_JjjiQ3FFt1SLieRGybwSdxL2zstSMMfpRlRkJecakpyzov0GTQOj3UeWkwHLNDisPhVmTRBMVFzx0UT8peG1VvM2ERLX3r6aCZxLxkwF1rRw39FejHDwKkW9_8Msw3SGGRnTD1YdCKAT2DLQLEQ4dPbQKGXTMXsqLgIXqUMWyS2TvoiZwnLMty2rvnUuZlUXlybs0q19xXMvEgPqWrsvAbV4r-Rp2skuAYTDUi7sWPKXClPLKO8QWie_FRczArQy0QSqdnSS_8_-5lbE8t3WrzwsxvNnXJMRFXsfPCF5VDfPDZNmC6ab9JULgnepvJqklKVGLAm-MgNpi3KbOKOjULTmwOaeoQUryV_0NtPMHp1Ag28kU9WUdTZQTESlTeznZNAkKPfmncfKmYghOqYjnVzr2VkRE2JZd_C3v_BSShAfXDtIIScKt36E9C5xSfzi1Nijp3FzMvsjM_-_uITblBFafpUiAfCQU-5oPARb1oDtMunbFt7HJLK9BpeXezUZr57H-V7nf38ZYYXzaSlO9kPuntS2_d1rAmJ5CqXpeVdKxtkIJacaaQ0EYvTsDCmxsb0OjJu_1Phjf7M_7EwnwhCsxVt5sKk1-4x0a5deOvcwlKz0sPJCxt6f4VKEX0MOF1y9LaRWeP7pwiToyXO19GbkiGfBBqMbdc9hcnutFt-tKB-ZJlcT6DMyxSq5WDGjKaDkgAASwra09SZR_jItpaXjr_0G00]--></g></svg>