<svg xmlns="http://www.w3.org/2000/svg" xmlns:xlink="http://www.w3.org/1999/xlink" contentStyleType="text/css" data-diagram-type="CLASS" height="265px" preserveAspectRatio="none" style="width:1294px;height:265px;background:#FFFFFF;" version="1.1" viewBox="0 0 1294 265" width="1294px" zoomAndPan="magnify"><title>Event class diagram</title><defs/><g><text fill="#000000" font-family="sans-serif" font-size="14" font-weight="bold" lengthAdjust="spacing" textLength="138.225" x="571.2757" y="24.9659">Event class diagram</text><!--class C_0012375021817616023984--><g class="entity" data-entity="C_0012375021817616023984" data-source-line="3" data-uid="ent0002" id="entity_C_0012375021817616023984"><rect fill="#F1F1F1" height="208.5433" rx="2.5" ry="2.5" style="stroke:#181818;stroke-width:0.5;" width="478.1563" x="805.62" y="50.0839"/><ellipse cx="1003.7651" cy="66.0839" fill="#ADD1B2" rx="11" ry="11" style="stroke:#181818;stroke-width:1;"/><path d="M1003.8745,61.6152 Q1002.9526,61.6152 1002.2182,61.9277 Q1001.4995,62.2402 1000.9995,62.8339 Q1000.4995,63.4121 1000.2182,64.2871 Q999.9526,65.1621 999.9526,66.2558 Q999.9526,67.6933 1000.3901,68.7402 Q1000.8432,69.7871 1001.687,70.3339 Q1002.5464,70.8808 1003.8589,70.8808 Q1004.6401,70.8808 1005.3276,70.7558 Q1006.0307,70.6152 1007.0307,70.3027 L1007.0307,72.1777 Q1006.1714,72.5058 1005.4057,72.6308 Q1004.6557,72.7558 1003.6401,72.7558 Q1001.7182,72.7558 1000.4057,71.9589 Q999.1089,71.1464 998.4526,69.6777 Q997.7964,68.1933 997.7964,66.2246 Q997.7964,64.8027 998.187,63.6308 Q998.5932,62.4433 999.3745,61.5683 Q1000.1557,60.6933 1001.2964,60.2246 Q1002.437,59.7402 1003.9057,59.7402 Q1004.8589,59.7402 1005.7495,59.9433 Q1006.6557,60.1308 1007.5932,60.5996 L1006.7651,62.3808 Q1005.9839,62.0058 1005.3276,61.8183 Q1004.6714,61.6152 1003.8745,61.6152 Z " fill="#000000"/><text fill="#000000" font-family="sans-serif" font-size="14" lengthAdjust="spacing" textLength="36.4978" x="1024.2651" y="71.5159">Event</text><rect fill="#FFFFFF" height="18.3441" style="stroke:#181818;stroke-width:1;stroke-dasharray:2.0,2.0;" width="34.8682" x="1251.9081" y="47.0839"/><text fill="#000000" font-family="sans-serif" font-size="12" font-style="italic" lengthAdjust="spacing" textLength="32.8682" x="1252.9081" y="60.912">Args...</text><line style="stroke:#181818;stroke-width:0.5;" x1="806.62" x2="1282.7763" y1="82.0839" y2="82.0839"/><ellipse cx="816.62" cy="97.1179" fill="#84BE84" rx="3" ry="3" style="stroke:#038048;stroke-width:1;"/><text fill="#000000" font-family="sans-serif" font-size="14" lengthAdjust="spacing" textLength="145.5154" x="825.62" y="101.0499">Event() = default : void</text><ellipse cx="816.62" cy="116.1858" fill="#84BE84" rx="3" ry="3" style="stroke:#038048;stroke-width:1;"/><text fill="#000000" font-family="sans-serif" font-size="14" lengthAdjust="spacing" textLength="452.1563" x="825.62" y="120.1178">Event(const std::vector&lt;std::function&lt;void (Args...)&gt;&gt; &amp; actions) : void</text><ellipse cx="816.62" cy="135.2537" fill="#84BE84" rx="3" ry="3" style="stroke:#038048;stroke-width:1;"/><text fill="#000000" font-family="sans-serif" font-size="14" lengthAdjust="spacing" textLength="360.5266" x="825.62" y="139.1857">Event(const std::function&lt;void (Args...)&gt; &amp; action) : void</text><line style="stroke:#181818;stroke-width:1;stroke-dasharray:1.0,2.0;" x1="806.62" x2="1282.7763" y1="147.2877" y2="147.2877"/><ellipse cx="816.62" cy="162.3217" fill="#84BE84" rx="3" ry="3" style="stroke:#038048;stroke-width:1;"/><text fill="#000000" font-family="sans-serif" font-size="14" lengthAdjust="spacing" textLength="349.1027" x="825.62" y="166.2536">add(const std::function&lt;void (Args...)&gt; &amp; action) : void</text><ellipse cx="816.62" cy="181.3896" fill="#84BE84" rx="3" ry="3" style="stroke:#038048;stroke-width:1;"/><text fill="#000000" font-family="sans-serif" font-size="14" lengthAdjust="spacing" textLength="79.0997" x="825.62" y="185.3215">clear() : void</text><ellipse cx="816.62" cy="200.4575" fill="#84BE84" rx="3" ry="3" style="stroke:#038048;stroke-width:1;"/><text fill="#000000" font-family="sans-serif" font-size="14" lengthAdjust="spacing" textLength="172.6473" x="825.62" y="204.3895">execute(Args... args) : void</text><ellipse cx="816.62" cy="219.5254" fill="#84BE84" rx="3" ry="3" style="stroke:#038048;stroke-width:1;"/><text fill="#000000" font-family="sans-serif" font-size="14" lengthAdjust="spacing" textLength="374.2745" x="825.62" y="223.4574">remove(const std::function&lt;void (Args...)&gt; &amp; action) : void</text><line style="stroke:#181818;stroke-width:0.5;" x1="806.62" x2="1282.7763" y1="231.5594" y2="231.5594"/><rect fill="#F24D5C" height="6" style="stroke:#C82930;stroke-width:1;" width="6" x="813.62" y="243.5933"/><text fill="#000000" font-family="sans-serif" font-size="14" lengthAdjust="spacing" textLength="338.2388" x="825.62" y="250.5253">m_events : std::vector&lt;std::function&lt;void (Args...)&gt;&gt;</text></g><!--class C_0011026497464562777238--><g class="entity" data-entity="C_0011026497464562777238" data-source-line="16" data-uid="ent0003" id="entity_C_0011026497464562777238"><rect fill="#F1F1F1" height="189.4754" rx="2.5" ry="2.5" style="stroke:#181818;stroke-width:0.5;" width="657.6216" x="7" y="59.6139"/><ellipse cx="270.7699" cy="75.6139" fill="#ADD1B2" rx="11" ry="11" style="stroke:#181818;stroke-width:1;"/><path d="M270.8793,71.1452 Q269.9574,71.1452 269.223,71.4577 Q268.5043,71.7702 268.0043,72.3639 Q267.5043,72.9421 267.223,73.8171 Q266.9574,74.6921 266.9574,75.7858 Q266.9574,77.2233 267.3949,78.2702 Q267.848,79.3171 268.6918,79.8639 Q269.5511,80.4108 270.8636,80.4108 Q271.6449,80.4108 272.3324,80.2858 Q273.0355,80.1452 274.0355,79.8327 L274.0355,81.7077 Q273.1761,82.0358 272.4105,82.1608 Q271.6605,82.2858 270.6449,82.2858 Q268.723,82.2858 267.4105,81.4889 Q266.1136,80.6764 265.4574,79.2077 Q264.8011,77.7233 264.8011,75.7546 Q264.8011,74.3327 265.1918,73.1608 Q265.598,71.9733 266.3793,71.0983 Q267.1605,70.2233 268.3011,69.7546 Q269.4418,69.2702 270.9105,69.2702 Q271.8636,69.2702 272.7543,69.4733 Q273.6605,69.6608 274.598,70.1296 L273.7699,71.9108 Q272.9886,71.5358 272.3324,71.3483 Q271.6761,71.1452 270.8793,71.1452 Z " fill="#000000"/><text fill="#000000" font-family="sans-serif" font-size="14" lengthAdjust="spacing" textLength="84.7137" x="291.2699" y="81.0459">Event_center</text><rect fill="#FFFFFF" height="18.3441" style="stroke:#181818;stroke-width:1;stroke-dasharray:2.0,2.0;" width="34.8682" x="632.7534" y="56.6139"/><text fill="#000000" font-family="sans-serif" font-size="12" font-style="italic" lengthAdjust="spacing" textLength="32.8682" x="633.7534" y="70.442">Args...</text><line style="stroke:#181818;stroke-width:0.5;" x1="8" x2="663.6216" y1="91.6139" y2="91.6139"/><rect fill="#F24D5C" height="6" style="stroke:#C82930;stroke-width:1;" width="6" x="15" y="103.6479"/><text fill="#000000" font-family="sans-serif" font-size="14" lengthAdjust="spacing" textLength="193.7312" x="27" y="110.5799">Event_center() = default : void</text><line style="stroke:#181818;stroke-width:1;stroke-dasharray:1.0,2.0;" x1="8" x2="663.6216" y1="118.6819" y2="118.6819"/><ellipse cx="18" cy="133.7158" fill="#84BE84" rx="3" ry="3" style="stroke:#038048;stroke-width:1;"/><text fill="#000000" font-family="sans-serif" font-size="14" lengthAdjust="spacing" textLength="606.4499" x="27" y="137.6478">add_action(const std::string &amp; event_name, const std::function&lt;void (Args...)&gt; &amp; action) : void</text><ellipse cx="18" cy="152.7837" fill="#84BE84" rx="3" ry="3" style="stroke:#038048;stroke-width:1;"/><text fill="#000000" font-family="sans-serif" font-size="14" lengthAdjust="spacing" textLength="486.2322" x="27" y="156.7157">register_event(const std::string &amp; event_name, Event&lt;Args...&gt; event) : void</text><ellipse cx="18" cy="171.8517" fill="#84BE84" rx="3" ry="3" style="stroke:#038048;stroke-width:1;"/><text fill="#000000" font-family="sans-serif" font-size="14" lengthAdjust="spacing" textLength="631.6216" x="27" y="175.7836">remove_action(const std::string &amp; event_name, const std::function&lt;void (Args...)&gt; &amp; action) : void</text><ellipse cx="18" cy="190.9196" fill="#84BE84" rx="3" ry="3" style="stroke:#038048;stroke-width:1;"/><text fill="#000000" font-family="sans-serif" font-size="14" lengthAdjust="spacing" textLength="420.0684" x="27" y="194.8515">trigger_event(const std::string &amp; event_name, Args... args) : void</text><ellipse cx="18" cy="209.9875" fill="#84BE84" rx="3" ry="3" style="stroke:#038048;stroke-width:1;"/><text fill="#000000" font-family="sans-serif" font-size="14" lengthAdjust="spacing" textLength="362.0806" x="27" y="213.9195">unregister_event(const std::string &amp; event_name) : void</text><line style="stroke:#181818;stroke-width:0.5;" x1="8" x2="663.6216" y1="222.0214" y2="222.0214"/><rect fill="none" height="6" style="stroke:#C82930;stroke-width:1;" width="6" x="15" y="234.0554"/><text fill="#000000" font-family="sans-serif" font-size="14" lengthAdjust="spacing" textLength="397.2766" x="27" y="240.9874">event_map : std::unordered_map&lt;std::string,Event&lt;Args...&gt;&gt;</text></g><!--reverse link C_0011026497464562777238 to C_0012375021817616023984--><g class="link" data-entity-1="C_0011026497464562777238" data-entity-2="C_0012375021817616023984" data-source-line="28" data-uid="lnk4" id="link_C_0011026497464562777238_C_0012375021817616023984"><path codeLine="28" d="M676.91,154.3539 C724.18,154.3539 760.06,154.3539 805.14,154.3539" fill="none" id="C_0011026497464562777238-backto-C_0012375021817616023984" style="stroke:#181818;stroke-width:1;"/><polygon fill="none" points="664.91,154.3539,670.91,158.3539,676.91,154.3539,670.91,150.3539,664.91,154.3539" style="stroke:#181818;stroke-width:1;"/><rect fill="none" height="6" style="stroke:#C82930;stroke-width:1;" width="6" x="697.62" y="142.7069"/><text fill="#000000" font-family="sans-serif" font-size="13" lengthAdjust="spacing" textLength="67.2101" x="707.62" y="150.251">event_map</text></g><!--SRC=[jLHDYzim4BthLmnxw2Oa5fRZs4b80ylIzh9xxTLehR7MO4j5ahqBfV-ziftF4jDje1VBCqzlljuWLxeAuKkBoa5USMj1b5mQNfCA2mTEWodbg_DUWxahjIB3hRkUidqmqb9ATtV0BJncOSYYHReC8xPYQSAIC5giL_6UCWR3JpBheqscy1a45hof76oWrQKu8BbMre5rOhDfVHtQRFl_eb5zKTlkBapsrKntE_W4l4ViT3pI6Fj8Fd8f9JCkn6taMLuXDvEJZU-ODmuF7E3-FA46QztYRQcoZ0HrXbsZrli-FY_owqBNBFSVD5VaPM6KnEiqJk9b4gLf6YrMv_9UWRsymNdGQohlvviDxPptRfqfbVITzarbYjSuXzjaC2XBwmiOvlFN99SBFa1_glH_2_QHfFnmlTUtgL7_rFR59Wtkclyuh5AZj15eK7JExLcC-UMmkdKQNGST1EDFmGPEMGcv_uOA3NSeuArqhzq3fMJGrDKSMZJM3mj2cb0Mi6KWNuhufH0vkNzw-lvyn7lAqM9hocWAawyejE5xCrZG8e_Pz3S0]--></g></svg>