<?xml version="1.0" encoding="us-ascii" standalone="no"?><svg xmlns="http://www.w3.org/2000/svg" xmlns:xlink="http://www.w3.org/1999/xlink" contentStyleType="text/css" height="730px" preserveAspectRatio="none" style="width:1691px;height:730px;background:#FFFFFF;" version="1.1" viewBox="0 0 1691 730" width="1691px" zoomAndPan="magnify"><defs/><g><text fill="#000000" font-family="sans-serif" font-size="14" font-weight="bold" lengthAdjust="spacing" textLength="158.8125" x="759.0938" y="24.9659">&#30456;&#26426;&#31995;&#32479;&#19982;&#32452;&#20214;&#38598;&#25104;&#35774;&#35745;</text><!--class Component_base--><g id="elem_Component_base"><rect codeLine="5" fill="#F1F1F1" height="48" id="Component_base" rx="2.5" ry="2.5" style="stroke:#181818;stroke-width:0.5;" width="139" x="156" y="491.7479"/><ellipse cx="171" cy="507.7479" fill="#A9DCDF" rx="11" ry="11" style="stroke:#181818;stroke-width:1.0;"/><path d="M174.3438,512.9979 L172.875,509.2479 L168.4375,509.2479 L167,512.9979 L164.875,512.9979 L169.8281,500.2792 L171.5781,500.2792 L176.5,512.9979 L174.3438,512.9979 Z M171,504.0448 Q170.9531,503.8885 170.8281,503.5292 Q170.7031,503.1698 170.5938,502.7948 Q170.4844,502.4042 170.6875,502.3417 Q170.8438,502.5292 170.75,502.8885 Q170.6563,503.2323 170.5625,503.5292 Q170.4688,503.8104 170.3906,504.0448 L169.1563,507.3573 L172.2344,507.3573 L171,504.0448 Z " fill="#000000"/><text fill="#000000" font-family="sans-serif" font-size="14" font-style="italic" lengthAdjust="spacing" textLength="107" x="185" y="513.1799">Component_base</text><line style="stroke:#181818;stroke-width:0.5;" x1="157" x2="294" y1="523.7479" y2="523.7479"/><line style="stroke:#181818;stroke-width:0.5;" x1="157" x2="294" y1="531.7479" y2="531.7479"/></g><!--class Node--><g id="elem_Node"><rect codeLine="10" fill="#F1F1F1" height="48" id="Node" rx="2.5" ry="2.5" style="stroke:#181818;stroke-width:0.5;" width="68" x="607.5" y="675.9479"/><ellipse cx="622.5" cy="691.9479" fill="#ADD1B2" rx="11" ry="11" style="stroke:#181818;stroke-width:1.0;"/><path d="M622.6094,687.4792 Q621.6875,687.4792 620.9531,687.7917 Q620.2344,688.1042 619.7344,688.6979 Q619.2344,689.276 618.9531,690.151 Q618.6875,691.026 618.6875,692.1198 Q618.6875,693.5573 619.125,694.6042 Q619.5781,695.651 620.4219,696.1979 Q621.2813,696.7448 622.5938,696.7448 Q623.375,696.7448 624.0625,696.6198 Q624.7656,696.4792 625.7656,696.1667 L625.7656,698.0417 Q624.9063,698.3698 624.1406,698.4948 Q623.3906,698.6198 622.375,698.6198 Q620.4531,698.6198 619.1406,697.8229 Q617.8438,697.0104 617.1875,695.5417 Q616.5313,694.0573 616.5313,692.0885 Q616.5313,690.6667 616.9219,689.4948 Q617.3281,688.3073 618.1094,687.4323 Q618.8906,686.5573 620.0313,686.0885 Q621.1719,685.6042 622.6406,685.6042 Q623.5938,685.6042 624.4844,685.8073 Q625.3906,685.9948 626.3281,686.4635 L625.5,688.2448 Q624.7188,687.8698 624.0625,687.6823 Q623.4063,687.4792 622.6094,687.4792 Z " fill="#000000"/><text fill="#000000" font-family="sans-serif" font-size="14" lengthAdjust="spacing" textLength="36" x="636.5" y="697.3799">Node</text><line style="stroke:#181818;stroke-width:0.5;" x1="608.5" x2="674.5" y1="707.9479" y2="707.9479"/><line style="stroke:#181818;stroke-width:0.5;" x1="608.5" x2="674.5" y1="715.9479" y2="715.9479"/></g><!--class Node_component--><g id="elem_Node_component"><rect codeLine="16" fill="#F1F1F1" height="67.0679" id="Node_component" rx="2.5" ry="2.5" style="stroke:#181818;stroke-width:0.5;" width="225" x="1459" y="240.7979"/><ellipse cx="1508.25" cy="256.7979" fill="#ADD1B2" rx="11" ry="11" style="stroke:#181818;stroke-width:1.0;"/><path d="M1508.3594,252.3292 Q1507.4375,252.3292 1506.7031,252.6417 Q1505.9844,252.9542 1505.4844,253.5479 Q1504.9844,254.126 1504.7031,255.001 Q1504.4375,255.876 1504.4375,256.9698 Q1504.4375,258.4073 1504.875,259.4542 Q1505.3281,260.501 1506.1719,261.0479 Q1507.0313,261.5948 1508.3438,261.5948 Q1509.125,261.5948 1509.8125,261.4698 Q1510.5156,261.3292 1511.5156,261.0167 L1511.5156,262.8917 Q1510.6563,263.2198 1509.8906,263.3448 Q1509.1406,263.4698 1508.125,263.4698 Q1506.2031,263.4698 1504.8906,262.6729 Q1503.5938,261.8604 1502.9375,260.3917 Q1502.2813,258.9073 1502.2813,256.9385 Q1502.2813,255.5167 1502.6719,254.3448 Q1503.0781,253.1573 1503.8594,252.2823 Q1504.6406,251.4073 1505.7813,250.9385 Q1506.9219,250.4542 1508.3906,250.4542 Q1509.3438,250.4542 1510.2344,250.6573 Q1511.1406,250.8448 1512.0781,251.3135 L1511.25,253.0948 Q1510.4688,252.7198 1509.8125,252.5323 Q1509.1563,252.3292 1508.3594,252.3292 Z " fill="#000000"/><text fill="#000000" font-family="sans-serif" font-size="14" lengthAdjust="spacing" textLength="118" x="1528.75" y="262.2299">Node_component</text><line style="stroke:#181818;stroke-width:0.5;" x1="1460" x2="1683" y1="272.7979" y2="272.7979"/><rect fill="none" height="6" style="stroke:#C82930;stroke-width:1.0;" width="6" x="1467" y="284.8319"/><text fill="#000000" font-family="sans-serif" font-size="14" lengthAdjust="spacing" textLength="199" x="1479" y="291.7639">Node node ' &#20851;&#32852;&#30340; Node &#23454;&#20363;</text><line style="stroke:#181818;stroke-width:0.5;" x1="1460" x2="1683" y1="299.8658" y2="299.8658"/></g><!--class GameObject--><g id="elem_GameObject"><rect codeLine="22" fill="#F1F1F1" height="67.0679" id="GameObject" rx="2.5" ry="2.5" style="stroke:#181818;stroke-width:0.5;" width="377" x="37" y="47.0679"/><ellipse cx="179.75" cy="63.0679" fill="#ADD1B2" rx="11" ry="11" style="stroke:#181818;stroke-width:1.0;"/><path d="M179.8594,58.5992 Q178.9375,58.5992 178.2031,58.9117 Q177.4844,59.2242 176.9844,59.8179 Q176.4844,60.396 176.2031,61.271 Q175.9375,62.146 175.9375,63.2398 Q175.9375,64.6773 176.375,65.7242 Q176.8281,66.771 177.6719,67.3179 Q178.5313,67.8648 179.8438,67.8648 Q180.625,67.8648 181.3125,67.7398 Q182.0156,67.5992 183.0156,67.2867 L183.0156,69.1617 Q182.1563,69.4898 181.3906,69.6148 Q180.6406,69.7398 179.625,69.7398 Q177.7031,69.7398 176.3906,68.9429 Q175.0938,68.1304 174.4375,66.6617 Q173.7813,65.1773 173.7813,63.2085 Q173.7813,61.7867 174.1719,60.6148 Q174.5781,59.4273 175.3594,58.5523 Q176.1406,57.6773 177.2813,57.2085 Q178.4219,56.7242 179.8906,56.7242 Q180.8438,56.7242 181.7344,56.9273 Q182.6406,57.1148 183.5781,57.5835 L182.75,59.3648 Q181.9688,58.9898 181.3125,58.8023 Q180.6563,58.5992 179.8594,58.5992 Z " fill="#000000"/><text fill="#000000" font-family="sans-serif" font-size="14" lengthAdjust="spacing" textLength="83" x="200.25" y="68.4999">GameObject</text><line style="stroke:#181818;stroke-width:0.5;" x1="38" x2="413" y1="79.0679" y2="79.0679"/><rect fill="none" height="6" style="stroke:#C82930;stroke-width:1.0;" width="6" x="45" y="91.1019"/><text fill="#000000" font-family="sans-serif" font-size="14" lengthAdjust="spacing" textLength="351" x="57" y="98.0339">List&lt;Component_base&gt; components ' &#21253;&#21547;&#30340;&#32452;&#20214;&#21015;&#34920;</text><line style="stroke:#181818;stroke-width:0.5;" x1="38" x2="413" y1="106.1358" y2="106.1358"/></g><!--class Camera--><g id="elem_Camera"><rect codeLine="28" fill="#F1F1F1" height="162.4075" id="Camera" rx="2.5" ry="2.5" style="stroke:#181818;stroke-width:0.5;" width="417" x="433" y="434.5379"/><ellipse cx="612.75" cy="450.5379" fill="#A9DCDF" rx="11" ry="11" style="stroke:#181818;stroke-width:1.0;"/><path d="M616.0938,455.7879 L614.625,452.0379 L610.1875,452.0379 L608.75,455.7879 L606.625,455.7879 L611.5781,443.0692 L613.3281,443.0692 L618.25,455.7879 L616.0938,455.7879 Z M612.75,446.8348 Q612.7031,446.6785 612.5781,446.3192 Q612.4531,445.9598 612.3438,445.5848 Q612.2344,445.1942 612.4375,445.1317 Q612.5938,445.3192 612.5,445.6785 Q612.4063,446.0223 612.3125,446.3192 Q612.2188,446.6004 612.1406,446.8348 L610.9063,450.1473 L613.9844,450.1473 L612.75,446.8348 Z " fill="#000000"/><text fill="#000000" font-family="sans-serif" font-size="14" font-style="italic" lengthAdjust="spacing" textLength="49" x="633.25" y="455.9699">Camera</text><line style="stroke:#181818;stroke-width:0.5;" x1="434" x2="849" y1="466.5379" y2="466.5379"/><rect fill="none" height="6" style="stroke:#C82930;stroke-width:1.0;" width="6" x="441" y="478.5719"/><text fill="#000000" font-family="sans-serif" font-size="14" lengthAdjust="spacing" textLength="190" x="453" y="485.5039">float near_plane ' &#36817;&#35009;&#21098;&#24179;&#38754;</text><rect fill="none" height="6" style="stroke:#C82930;stroke-width:1.0;" width="6" x="441" y="497.6398"/><text fill="#000000" font-family="sans-serif" font-size="14" lengthAdjust="spacing" textLength="178" x="453" y="504.5718">float far_plane ' &#36828;&#35009;&#21098;&#24179;&#38754;</text><line style="stroke:#181818;stroke-width:0.5;" x1="434" x2="849" y1="512.6738" y2="512.6738"/><ellipse cx="444" cy="527.7077" fill="#84BE84" rx="3" ry="3" style="stroke:#038048;stroke-width:1.0;"/><text fill="#000000" font-family="sans-serif" font-size="14" lengthAdjust="spacing" textLength="385" x="453" y="531.6397">view_matrix(): Matrix ' &#35745;&#31639;&#35270;&#22270;&#21464;&#25442;&#30697;&#38453; (&#20174;&#19990;&#30028;&#21040;&#30456;&#26426;&#31354;&#38388;)</text><ellipse cx="444" cy="546.7756" fill="#84BE84" rx="3" ry="3" style="stroke:#038048;stroke-width:1.0;"/><text fill="#000000" font-family="sans-serif" font-size="14" font-style="italic" lengthAdjust="spacing" textLength="391" x="453" y="550.7076">projection_matrix(): Matrix ' &#34394;&#20989;&#25968;&#65292;&#30001;&#23376;&#31867;&#23454;&#29616;&#25237;&#24433;&#30697;&#38453;&#29983;&#25104;</text><ellipse cx="444" cy="565.8435" fill="#84BE84" rx="3" ry="3" style="stroke:#038048;stroke-width:1.0;"/><text fill="#000000" font-family="sans-serif" font-size="14" lengthAdjust="spacing" textLength="306" x="453" y="569.7755">adjust_zoom(zoom_factor: float) ' &#21160;&#24577;&#35843;&#25972;&#32553;&#25918;</text><ellipse cx="444" cy="584.9115" fill="#84BE84" rx="3" ry="3" style="stroke:#038048;stroke-width:1.0;"/><text fill="#000000" font-family="sans-serif" font-size="14" lengthAdjust="spacing" textLength="265" x="453" y="588.8434">set_aspect_ratio(ratio: float) ' &#35774;&#32622;&#32437;&#27178;&#27604;</text></g><!--class Perspective_camera--><g id="elem_Perspective_camera"><rect codeLine="41" fill="#F1F1F1" height="105.2038" id="Perspective_camera" rx="2.5" ry="2.5" style="stroke:#181818;stroke-width:0.5;" width="325" x="479" y="221.7379"/><ellipse cx="570.75" cy="237.7379" fill="#ADD1B2" rx="11" ry="11" style="stroke:#181818;stroke-width:1.0;"/><path d="M570.8594,233.2692 Q569.9375,233.2692 569.2031,233.5817 Q568.4844,233.8942 567.9844,234.4879 Q567.4844,235.066 567.2031,235.941 Q566.9375,236.816 566.9375,237.9098 Q566.9375,239.3473 567.375,240.3942 Q567.8281,241.441 568.6719,241.9879 Q569.5313,242.5348 570.8438,242.5348 Q571.625,242.5348 572.3125,242.4098 Q573.0156,242.2692 574.0156,241.9567 L574.0156,243.8317 Q573.1563,244.1598 572.3906,244.2848 Q571.6406,244.4098 570.625,244.4098 Q568.7031,244.4098 567.3906,243.6129 Q566.0938,242.8004 565.4375,241.3317 Q564.7813,239.8473 564.7813,237.8785 Q564.7813,236.4567 565.1719,235.2848 Q565.5781,234.0973 566.3594,233.2223 Q567.1406,232.3473 568.2813,231.8785 Q569.4219,231.3942 570.8906,231.3942 Q571.8438,231.3942 572.7344,231.5973 Q573.6406,231.7848 574.5781,232.2535 L573.75,234.0348 Q572.9688,233.6598 572.3125,233.4723 Q571.6563,233.2692 570.8594,233.2692 Z " fill="#000000"/><text fill="#000000" font-family="sans-serif" font-size="14" lengthAdjust="spacing" textLength="133" x="591.25" y="243.1699">Perspective_camera</text><line style="stroke:#181818;stroke-width:0.5;" x1="480" x2="803" y1="253.7379" y2="253.7379"/><rect fill="none" height="6" style="stroke:#C82930;stroke-width:1.0;" width="6" x="487" y="265.7719"/><text fill="#000000" font-family="sans-serif" font-size="14" lengthAdjust="spacing" textLength="113" x="499" y="272.7039">float FOV ' &#35270;&#22330;&#35282;</text><rect fill="none" height="6" style="stroke:#C82930;stroke-width:1.0;" width="6" x="487" y="284.8398"/><text fill="#000000" font-family="sans-serif" font-size="14" lengthAdjust="spacing" textLength="168" x="499" y="291.7718">float aspect_ratio ' &#32437;&#27178;&#27604;</text><line style="stroke:#181818;stroke-width:0.5;" x1="480" x2="803" y1="299.8738" y2="299.8738"/><ellipse cx="490" cy="314.9077" fill="#84BE84" rx="3" ry="3" style="stroke:#038048;stroke-width:1.0;"/><text fill="#000000" font-family="sans-serif" font-size="14" lengthAdjust="spacing" textLength="299" x="499" y="318.8397">projection_matrix(): Matrix ' &#23454;&#29616;&#36879;&#35270;&#25237;&#24433;&#30697;&#38453;</text></g><!--class Orthographic_camera--><g id="elem_Orthographic_camera"><rect codeLine="50" fill="#F1F1F1" height="162.4075" id="Orthographic_camera" rx="2.5" ry="2.5" style="stroke:#181818;stroke-width:0.5;" width="585" x="839" y="193.1279"/><ellipse cx="1053.75" cy="209.1279" fill="#ADD1B2" rx="11" ry="11" style="stroke:#181818;stroke-width:1.0;"/><path d="M1053.8594,204.6592 Q1052.9375,204.6592 1052.2031,204.9717 Q1051.4844,205.2842 1050.9844,205.8779 Q1050.4844,206.456 1050.2031,207.331 Q1049.9375,208.206 1049.9375,209.2998 Q1049.9375,210.7373 1050.375,211.7842 Q1050.8281,212.831 1051.6719,213.3779 Q1052.5313,213.9248 1053.8438,213.9248 Q1054.625,213.9248 1055.3125,213.7998 Q1056.0156,213.6592 1057.0156,213.3467 L1057.0156,215.2217 Q1056.1563,215.5498 1055.3906,215.6748 Q1054.6406,215.7998 1053.625,215.7998 Q1051.7031,215.7998 1050.3906,215.0029 Q1049.0938,214.1904 1048.4375,212.7217 Q1047.7813,211.2373 1047.7813,209.2685 Q1047.7813,207.8467 1048.1719,206.6748 Q1048.5781,205.4873 1049.3594,204.6123 Q1050.1406,203.7373 1051.2813,203.2685 Q1052.4219,202.7842 1053.8906,202.7842 Q1054.8438,202.7842 1055.7344,202.9873 Q1056.6406,203.1748 1057.5781,203.6435 L1056.75,205.4248 Q1055.9688,205.0498 1055.3125,204.8623 Q1054.6563,204.6592 1053.8594,204.6592 Z " fill="#000000"/><text fill="#000000" font-family="sans-serif" font-size="14" lengthAdjust="spacing" textLength="147" x="1074.25" y="214.5599">Orthographic_camera</text><line style="stroke:#181818;stroke-width:0.5;" x1="840" x2="1423" y1="225.1279" y2="225.1279"/><rect fill="none" height="6" style="stroke:#C82930;stroke-width:1.0;" width="6" x="847" y="237.1619"/><text fill="#000000" font-family="sans-serif" font-size="14" lengthAdjust="spacing" textLength="151" x="859" y="244.0939">float left ' &#25237;&#24433;&#36793;&#30028;&#65306;&#24038;</text><rect fill="none" height="6" style="stroke:#C82930;stroke-width:1.0;" width="6" x="847" y="256.2298"/><text fill="#000000" font-family="sans-serif" font-size="14" lengthAdjust="spacing" textLength="162" x="859" y="263.1618">float right ' &#25237;&#24433;&#36793;&#30028;&#65306;&#21491;</text><rect fill="none" height="6" style="stroke:#C82930;stroke-width:1.0;" width="6" x="847" y="275.2977"/><text fill="#000000" font-family="sans-serif" font-size="14" lengthAdjust="spacing" textLength="151" x="859" y="282.2297">float top ' &#25237;&#24433;&#36793;&#30028;&#65306;&#19978;</text><rect fill="none" height="6" style="stroke:#C82930;stroke-width:1.0;" width="6" x="847" y="294.3656"/><text fill="#000000" font-family="sans-serif" font-size="14" lengthAdjust="spacing" textLength="177" x="859" y="301.2976">float bottom ' &#25237;&#24433;&#36793;&#30028;&#65306;&#19979;</text><line style="stroke:#181818;stroke-width:0.5;" x1="840" x2="1423" y1="309.3996" y2="309.3996"/><ellipse cx="850" cy="324.4335" fill="#84BE84" rx="3" ry="3" style="stroke:#038048;stroke-width:1.0;"/><text fill="#000000" font-family="sans-serif" font-size="14" lengthAdjust="spacing" textLength="299" x="859" y="328.3655">projection_matrix(): Matrix ' &#23454;&#29616;&#27491;&#20132;&#25237;&#24433;&#30697;&#38453;</text><ellipse cx="850" cy="343.5015" fill="#84BE84" rx="3" ry="3" style="stroke:#038048;stroke-width:1.0;"/><text fill="#000000" font-family="sans-serif" font-size="14" lengthAdjust="spacing" textLength="559" x="859" y="347.4334">adapt_to_window_aspect_ratio(window_ratio: float) ' &#26681;&#25454;&#31383;&#21475;&#32437;&#27178;&#27604;&#33258;&#21160;&#36866;&#37197;&#36793;&#30028;&#39640;&#24230;</text></g><!--class Camera_component--><g id="elem_Camera_component"><rect codeLine="61" fill="#F1F1F1" height="105.2038" id="Camera_component" rx="2.5" ry="2.5" style="stroke:#181818;stroke-width:0.5;" width="437" x="7" y="221.7379"/><ellipse cx="154.25" cy="237.7379" fill="#ADD1B2" rx="11" ry="11" style="stroke:#181818;stroke-width:1.0;"/><path d="M154.3594,233.2692 Q153.4375,233.2692 152.7031,233.5817 Q151.9844,233.8942 151.4844,234.4879 Q150.9844,235.066 150.7031,235.941 Q150.4375,236.816 150.4375,237.9098 Q150.4375,239.3473 150.875,240.3942 Q151.3281,241.441 152.1719,241.9879 Q153.0313,242.5348 154.3438,242.5348 Q155.125,242.5348 155.8125,242.4098 Q156.5156,242.2692 157.5156,241.9567 L157.5156,243.8317 Q156.6563,244.1598 155.8906,244.2848 Q155.1406,244.4098 154.125,244.4098 Q152.2031,244.4098 150.8906,243.6129 Q149.5938,242.8004 148.9375,241.3317 Q148.2813,239.8473 148.2813,237.8785 Q148.2813,236.4567 148.6719,235.2848 Q149.0781,234.0973 149.8594,233.2223 Q150.6406,232.3473 151.7813,231.8785 Q152.9219,231.3942 154.3906,231.3942 Q155.3438,231.3942 156.2344,231.5973 Q157.1406,231.7848 158.0781,232.2535 L157.25,234.0348 Q156.4688,233.6598 155.8125,233.4723 Q155.1563,233.2692 154.3594,233.2692 Z " fill="#000000"/><text fill="#000000" font-family="sans-serif" font-size="14" lengthAdjust="spacing" textLength="134" x="174.75" y="243.1699">Camera_component</text><line style="stroke:#181818;stroke-width:0.5;" x1="8" x2="443" y1="253.7379" y2="253.7379"/><rect fill="none" height="6" style="stroke:#C82930;stroke-width:1.0;" width="6" x="15" y="265.7719"/><text fill="#000000" font-family="sans-serif" font-size="14" lengthAdjust="spacing" textLength="310" x="27" y="272.7039">Camera camera_instance ' &#20851;&#32852;&#30340; Camera &#23454;&#20363;</text><line style="stroke:#181818;stroke-width:0.5;" x1="8" x2="443" y1="280.8058" y2="280.8058"/><ellipse cx="18" cy="295.8398" fill="#84BE84" rx="3" ry="3" style="stroke:#038048;stroke-width:1.0;"/><text fill="#000000" font-family="sans-serif" font-size="14" lengthAdjust="spacing" textLength="378" x="27" y="299.7718">tick() ' &#26356;&#26032;&#24182;&#25552;&#21462;&#35270;&#22270;&#12289;&#25237;&#24433;&#30697;&#38453;&#12289;&#20301;&#32622;&#12289;&#26041;&#21521;&#31561;&#25968;&#25454;&#20379;&#28210;&#26579;</text><ellipse cx="18" cy="314.9077" fill="#84BE84" rx="3" ry="3" style="stroke:#038048;stroke-width:1.0;"/><text fill="#000000" font-family="sans-serif" font-size="14" lengthAdjust="spacing" textLength="411" x="27" y="318.8397">add_resize_callback(callback: Function) ' &#27880;&#20876;&#31383;&#21475;&#23610;&#23544;&#21464;&#21270;&#22238;&#35843;</text></g><!--class Perspective_camera_component--><g id="elem_Perspective_camera_component"><rect codeLine="69" fill="#F1F1F1" height="48" id="Perspective_camera_component" rx="2.5" ry="2.5" style="stroke:#181818;stroke-width:0.5;" width="247" x="1272" y="56.5979"/><ellipse cx="1287" cy="72.5979" fill="#ADD1B2" rx="11" ry="11" style="stroke:#181818;stroke-width:1.0;"/><path d="M1287.1094,68.1292 Q1286.1875,68.1292 1285.4531,68.4417 Q1284.7344,68.7542 1284.2344,69.3479 Q1283.7344,69.926 1283.4531,70.801 Q1283.1875,71.676 1283.1875,72.7698 Q1283.1875,74.2073 1283.625,75.2542 Q1284.0781,76.301 1284.9219,76.8479 Q1285.7813,77.3948 1287.0938,77.3948 Q1287.875,77.3948 1288.5625,77.2698 Q1289.2656,77.1292 1290.2656,76.8167 L1290.2656,78.6917 Q1289.4063,79.0198 1288.6406,79.1448 Q1287.8906,79.2698 1286.875,79.2698 Q1284.9531,79.2698 1283.6406,78.4729 Q1282.3438,77.6604 1281.6875,76.1917 Q1281.0313,74.7073 1281.0313,72.7385 Q1281.0313,71.3167 1281.4219,70.1448 Q1281.8281,68.9573 1282.6094,68.0823 Q1283.3906,67.2073 1284.5313,66.7385 Q1285.6719,66.2542 1287.1406,66.2542 Q1288.0938,66.2542 1288.9844,66.4573 Q1289.8906,66.6448 1290.8281,67.1135 L1290,68.8948 Q1289.2188,68.5198 1288.5625,68.3323 Q1287.9063,68.1292 1287.1094,68.1292 Z " fill="#000000"/><text fill="#000000" font-family="sans-serif" font-size="14" lengthAdjust="spacing" textLength="215" x="1301" y="78.0299">Perspective_camera_component</text><line style="stroke:#181818;stroke-width:0.5;" x1="1273" x2="1518" y1="88.5979" y2="88.5979"/><line style="stroke:#181818;stroke-width:0.5;" x1="1273" x2="1518" y1="96.5979" y2="96.5979"/></g><!--class Orthographic_camera_component--><g id="elem_Orthographic_camera_component"><rect codeLine="74" fill="#F1F1F1" height="48" id="Orthographic_camera_component" rx="2.5" ry="2.5" style="stroke:#181818;stroke-width:0.5;" width="261" x="800" y="56.5979"/><ellipse cx="815" cy="72.5979" fill="#ADD1B2" rx="11" ry="11" style="stroke:#181818;stroke-width:1.0;"/><path d="M815.1094,68.1292 Q814.1875,68.1292 813.4531,68.4417 Q812.7344,68.7542 812.2344,69.3479 Q811.7344,69.926 811.4531,70.801 Q811.1875,71.676 811.1875,72.7698 Q811.1875,74.2073 811.625,75.2542 Q812.0781,76.301 812.9219,76.8479 Q813.7813,77.3948 815.0938,77.3948 Q815.875,77.3948 816.5625,77.2698 Q817.2656,77.1292 818.2656,76.8167 L818.2656,78.6917 Q817.4063,79.0198 816.6406,79.1448 Q815.8906,79.2698 814.875,79.2698 Q812.9531,79.2698 811.6406,78.4729 Q810.3438,77.6604 809.6875,76.1917 Q809.0313,74.7073 809.0313,72.7385 Q809.0313,71.3167 809.4219,70.1448 Q809.8281,68.9573 810.6094,68.0823 Q811.3906,67.2073 812.5313,66.7385 Q813.6719,66.2542 815.1406,66.2542 Q816.0938,66.2542 816.9844,66.4573 Q817.8906,66.6448 818.8281,67.1135 L818,68.8948 Q817.2188,68.5198 816.5625,68.3323 Q815.9063,68.1292 815.1094,68.1292 Z " fill="#000000"/><text fill="#000000" font-family="sans-serif" font-size="14" lengthAdjust="spacing" textLength="229" x="829" y="78.0299">Orthographic_camera_component</text><line style="stroke:#181818;stroke-width:0.5;" x1="801" x2="1060" y1="88.5979" y2="88.5979"/><line style="stroke:#181818;stroke-width:0.5;" x1="801" x2="1060" y1="96.5979" y2="96.5979"/></g><!--link Perspective_camera to Camera--><g id="link_Perspective_camera_Camera"><path codeLine="84" d="M641.5,327.2879 C641.5,358.4979 641.5,380.8879 641.5,416.1779 " fill="none" id="Perspective_camera-to-Camera" style="stroke:#181818;stroke-width:1.0;"/><polygon fill="none" points="641.5,434.1779,647.5,416.1779,635.5,416.1779,641.5,434.1779" style="stroke:#181818;stroke-width:1.0;"/></g><!--link Orthographic_camera to Camera--><g id="link_Orthographic_camera_Camera"><path codeLine="85" d="M966.63,355.8879 C915.08,381.0779 874.3724,400.9652 822.8024,426.1652 " fill="none" id="Orthographic_camera-to-Camera" style="stroke:#181818;stroke-width:1.0;"/><polygon fill="none" points="806.63,434.0679,825.4367,431.556,820.1682,420.7744,806.63,434.0679" style="stroke:#181818;stroke-width:1.0;"/></g><!--link Camera_component to Component_base--><g id="link_Camera_component_Component_base"><path codeLine="87" d="M225.5,327.2879 C225.5,378.3079 225.5,435.8179 225.5,473.5279 " fill="none" id="Camera_component-to-Component_base" style="stroke:#181818;stroke-width:1.0;"/><polygon fill="none" points="225.5,491.5279,231.5,473.5279,219.5,473.5279,225.5,491.5279" style="stroke:#181818;stroke-width:1.0;"/></g><!--link Perspective_camera_component to Camera_component--><g id="link_Perspective_camera_component_Camera_component"><path codeLine="88" d="M1271.73,94.9179 C1035.93,120.5179 538.79,175.5879 461.5,193.1279 C429.11,200.4879 412.0148,204.9715 380.0248,215.5815 " fill="none" id="Perspective_camera_component-to-Camera_component" style="stroke:#181818;stroke-width:1.0;"/><polygon fill="none" points="362.94,221.2479,381.9136,221.2764,378.136,209.8865,362.94,221.2479" style="stroke:#181818;stroke-width:1.0;"/></g><!--link Orthographic_camera_component to Camera_component--><g id="link_Orthographic_camera_component_Camera_component"><path codeLine="89" d="M818.86,105.0479 C723.35,125.8379 582.54,158.2579 461.5,193.1279 C432.18,201.5779 418.1957,205.7641 388.5657,215.6441 " fill="none" id="Orthographic_camera_component-to-Camera_component" style="stroke:#181818;stroke-width:1.0;"/><polygon fill="none" points="371.49,221.3379,390.4637,221.336,386.6678,209.9522,371.49,221.3379" style="stroke:#181818;stroke-width:1.0;"/></g><!--link Camera to Node--><g id="link_Camera_Node"><path codeLine="93" d="M641.5,597.1879 C641.5,625.7879 641.5,649.8079 641.5,669.7679 " fill="none" id="Camera-to-Node" style="stroke:#181818;stroke-width:1.0;stroke-dasharray:7.0,7.0;"/><polygon fill="#181818" points="641.5,675.7679,645.5,666.7679,641.5,670.7679,637.5,666.7679,641.5,675.7679" style="stroke:#181818;stroke-width:1.0;"/><polygon fill="#000000" points="646.5,641.8009,649.4389,632.7558,643.5611,632.7558,646.5,641.8009" style="stroke:#000000;stroke-width:1.0;"/><text fill="#000000" font-family="sans-serif" font-size="13" lengthAdjust="spacing" textLength="78" x="655.5" y="641.8449">&#20381;&#36182;&#31354;&#38388;&#20449;&#24687;</text></g><!--reverse link Camera_component to Camera--><g id="link_Camera_component_Camera"><path codeLine="97" d="M326.4203,333.414 C380.6803,364.644 440.4,399.0179 501.66,434.2679 " fill="none" id="Camera_component-backto-Camera" style="stroke:#181818;stroke-width:1.0;"/><polygon fill="#181818" points="316.02,327.4279,319.2248,333.8877,326.4203,333.414,323.2155,326.9542,316.02,327.4279" style="stroke:#181818;stroke-width:1.0;"/><polygon fill="#000000" points="455.3036,397.885,448.93,390.826,445.9981,395.9204,455.3036,397.885" style="stroke:#000000;stroke-width:1.0;"/><text fill="#000000" font-family="sans-serif" font-size="13" lengthAdjust="spacing" textLength="63" x="459.97" y="400.4349">&#31649;&#29702; / &#21253;&#21547;</text><text fill="#000000" font-family="sans-serif" font-size="13" lengthAdjust="spacing" textLength="7" x="319.6256" y="348.874">1</text><text fill="#000000" font-family="sans-serif" font-size="13" lengthAdjust="spacing" textLength="7" x="480.9979" y="422.623">1</text></g><!--link Perspective_camera_component to Node_component--><g id="link_Perspective_camera_component_Node_component"><path codeLine="101" d="M1416.73,104.7279 C1447.81,138.5879 1501.8124,197.4179 1537.3024,236.0779 " fill="none" id="Perspective_camera_component-to-Node_component" style="stroke:#181818;stroke-width:1.0;stroke-dasharray:7.0,7.0;"/><polygon fill="#181818" points="1541.36,240.4979,1538.2203,231.1629,1537.9787,236.8146,1532.327,236.573,1541.36,240.4979" style="stroke:#181818;stroke-width:1.0;"/><polygon fill="#000000" points="1476.1212,157.6643,1472.1696,149.0136,1467.8395,152.9884,1476.1212,157.6643" style="stroke:#000000;stroke-width:1.0;"/><text fill="#000000" font-family="sans-serif" font-size="13" lengthAdjust="spacing" textLength="143" x="1481.74" y="159.0249">&#26597;&#25214; Node &#29992;&#20110;&#26500;&#24314;&#30456;&#26426;</text></g><!--link Orthographic_camera_component to Node_component--><g id="link_Orthographic_camera_component_Node_component"><path codeLine="102" d="M1031.11,105.0279 C1103.45,121.6879 1203.36,144.3679 1291.5,163.1279 C1358,177.2879 1378.24,168.2279 1441.5,193.1279 C1471.73,205.0379 1497.8292,220.533 1522.0092,236.983 " fill="none" id="Orthographic_camera_component-to-Node_component" style="stroke:#181818;stroke-width:1.0;stroke-dasharray:7.0,7.0;"/><polygon fill="#181818" points="1526.97,240.3579,1521.7787,231.9883,1522.836,237.5455,1517.2788,238.6028,1526.97,240.3579" style="stroke:#181818;stroke-width:1.0;"/><polygon fill="#000000" points="1301.3286,155.2789,1293.3565,150.0927,1291.8307,155.769,1301.3286,155.2789" style="stroke:#000000;stroke-width:1.0;"/><text fill="#000000" font-family="sans-serif" font-size="13" lengthAdjust="spacing" textLength="143" x="1305.5" y="159.0249">&#26597;&#25214; Node &#29992;&#20110;&#26500;&#24314;&#30456;&#26426;</text></g><!--reverse link GameObject to Camera_component--><g id="link_GameObject_Camera_component"><path codeLine="105" d="M225.5,126.5579 C225.5,155.8979 225.5,187.3079 225.5,221.3279 " fill="none" id="GameObject-backto-Camera_component" style="stroke:#181818;stroke-width:1.0;"/><polygon fill="#181818" points="225.5,114.5579,221.5,120.5579,225.5,126.5579,229.5,120.5579,225.5,114.5579" style="stroke:#181818;stroke-width:1.0;"/><polygon fill="#000000" points="230.5,158.9809,233.4389,149.9358,227.5611,149.9358,230.5,158.9809" style="stroke:#000000;stroke-width:1.0;"/><text fill="#000000" font-family="sans-serif" font-size="13" lengthAdjust="spacing" textLength="26" x="239.5" y="159.0249">&#21253;&#21547;</text><text fill="#000000" font-family="sans-serif" font-size="13" lengthAdjust="spacing" textLength="7" x="217.8766" y="136.0803">1</text><text fill="#000000" font-family="sans-serif" font-size="13" lengthAdjust="spacing" textLength="20" x="204.1563" y="210.0067">0..*</text></g><!--SRC=[lLRDLnfN5D_pLxpZHaYZRRUSratFIJTjxQfRpgWOIP7Xm2Js9Cqv60L1FfCW644HhG5DvQFuCO3W7vDvRsPM-HToPzw3pC24s2xA0iVXldj_ztVlxxuxZPHQN-xLSA6lbAlaS4izshK97i7hHd919CMEtEhAtP8afkJkfjIzKWiH4it06QLMjjccaTHDIUquZYN1WTIFarILvCxblKrSwiZDherR20e1Rb50Yruk64G_yAj-tkVs2Qu5BkX6psm8FjE8kcP7dcjkSR53tjJ1vo2yvXFzmYy1h6ONsIasgR-lNEPm-4e-xQZv2-csJDRh3XkDfHiF8-W6EBrBaaUuUK125IUIUab8_7redUJZIkzlU91lJacsBv_7sAdPsTalmN4j3b82KDcgr4afgMkSpj7mk7O0f1WH6UmfjXbgwTE-852ufQndXxdIywDeY2YIQ1hNsqgpBFLU0oO6w4TkrJs_yCWDV6jCqgY6buE8Ftc2mdVcMioX8R2WXYCHnfbtu9EL9fg7xXZ5GOj0jdk0upFrXjW1RbW5SYZYsmtAFuEoxEKv0VdSNC3bzt8-ZGFbzgLol8vZPxZTKlUFJ8RB9hkYoSuKXEJQfBMZl_eAFV6urrohd13m_65tED7F-fFceLQMQtcb4e7AqjwGIwVgxYMoQsqjvkIT18usc0xq3d8mZyy6YJv7_W2laUlXVPOXtkpXhHxPQNouISZP9ZxF04rGLZdL8DixkDUa4ULi2MJ5d7DBZnu71TTJdb-rQr-kPGZ41voK0uTMdkqg2QqhZGsoSq6RbXqDkWKN5_G37bU00qns_TjmagfTxboIwXcfPsaXrL0QIA1vKcoiTtvr1tHddYVGkCPQ3khnOFutpIamMEmebLUctumuD0aEOpAiaucZE2Wo8rEiodQbd934ZXFHz4crJE8bRGnbKdAb2_muc5REZwNENnQfpGU45VvXWFElU1QjS_EwbmMjd_JWIhyDtV3XPWzVlpLP1JmFLwpCqYsJcS3xnuqaSTjajC0B0hzgPHV_DwJHdCT8qngBymikWNUjUNnB_9gvKzYxqOOXXssIhCbdUPm-7fPGsJe3YjNG2pMSf2ZLTxkuyzOu5qn3tJWEB4OWcnEq32wFBoXmlaNpF6GcR2AoX0JFukzs7MNXWkGQk7r5qXcOlbJIscWta03_VXhvkJREl8H93yg4zAH-WOZ_aDBh8L5Bhe0xw7cgjRtNky11cC634pruxDChe0TkLN4aGUd1ZGwkYp18S2A72mSWpt5vKLO-AwynRg3JrRqCp69oiAc63kaiSI9IEY6n_iYDSXyPxnwfLmI168UNLejow3u2LxZRiHBtuBuQauu9jeLq_a_SLier00Vatz_berthjJsf7OF-X1K6ucXhIxW5r-cTNMZDtgsGs2qxPq7fpCoVSwnvRLR8ZR_RnWH2VpNTrBQ9NMDmz-cjRNB5hCzeontRhnWdJ8BqBIqMo0sqmzOlNLnq2OCRj1UHn2I9dv1YJBTriEnWVvYZXvtCbN5xGtEKr4sSYOu4DY2cRa7kCjpW6GWKaiIpaH4nTcZgsobqRsP6_yjCuVhG7Q2lsSP3mqza6BzAV441k5Z5qGAqAibV6SWoS3jjBGH4zayCKe2L0LB4ZOYsuUgx9LK0ZeJLZUhOK7mVUZ6vDmR46rwP58cCGQW0WO_9kVutdq20OIrbr8yLp4v70LHNhYH7LE2m6HmCA_lDxEozgN57JbDrxpeTo3Ni4OSmuDMjRQL-GNPJTvyB7m40]--></g></svg>