<?xml version="1.0" encoding="us-ascii" standalone="no"?><svg xmlns="http://www.w3.org/2000/svg" xmlns:xlink="http://www.w3.org/1999/xlink" contentStyleType="text/css" height="866px" preserveAspectRatio="none" style="width:910px;height:866px;background:#FFFFFF;" version="1.1" viewBox="0 0 910 866" width="910px" zoomAndPan="magnify"><defs/><g><!--class Shader_feature--><g id="elem_Shader_feature"><rect codeLine="8" fill="#F1F1F1" height="162.4075" id="Shader_feature" rx="2.5" ry="2.5" style="stroke:#181818;stroke-width:0.5;" width="253" x="148.25" y="696.8318"/><ellipse cx="219" cy="712.8318" fill="#EB937F" rx="11" ry="11" style="stroke:#181818;stroke-width:1.0;"/><path d="M222.4688,719.3318 L215.1563,719.3318 L215.1563,706.6599 L222.4688,706.6599 L222.4688,708.5349 L217.2031,708.5349 L217.2031,711.8006 L222.1563,711.8006 L222.1563,713.6599 L217.2031,713.6599 L217.2031,717.4568 L222.4688,717.4568 L222.4688,719.3318 Z " fill="#000000"/><text fill="#000000" font-family="sans-serif" font-size="14" lengthAdjust="spacing" textLength="103" x="239.5" y="718.2638">Shader_feature</text><line style="stroke:#181818;stroke-width:0.5;" x1="149.25" x2="400.25" y1="728.8318" y2="728.8318"/><text fill="#000000" font-family="sans-serif" font-size="14" lengthAdjust="spacing" textLength="69" x="154.25" y="747.7978">SHADOWS</text><text fill="#000000" font-family="sans-serif" font-size="14" lengthAdjust="spacing" textLength="90" x="154.25" y="766.8657">ALBEDO_MAP</text><text fill="#000000" font-family="sans-serif" font-size="14" lengthAdjust="spacing" textLength="96" x="154.25" y="785.9336">NORMAL_MAP</text><text fill="#000000" font-family="sans-serif" font-size="14" lengthAdjust="spacing" textLength="104" x="154.25" y="805.0015">SPECULAR_MAP</text><text fill="#000000" font-family="sans-serif" font-size="14" lengthAdjust="spacing" textLength="102" x="154.25" y="824.0694">METALLIC_MAP</text><line style="stroke:#181818;stroke-width:1.0;" x1="149.25" x2="400.25" y1="832.1714" y2="832.1714"/><text fill="#000000" font-family="sans-serif" font-size="14" lengthAdjust="spacing" textLength="241" x="154.25" y="851.1373">+shader_feature_to_defines(): string</text></g><!--class ShaderFeatureDependencyGraph--><g id="elem_ShaderFeatureDependencyGraph"><rect codeLine="19" fill="#F1F1F1" height="143.3396" id="ShaderFeatureDependencyGraph" rx="2.5" ry="2.5" style="stroke:#181818;stroke-width:0.5;" width="562" x="160.75" y="493.4918"/><ellipse cx="318" cy="509.4918" fill="#ADD1B2" rx="11" ry="11" style="stroke:#181818;stroke-width:1.0;"/><path d="M318.1094,505.0231 Q317.1875,505.0231 316.4531,505.3356 Q315.7344,505.6481 315.2344,506.2418 Q314.7344,506.8199 314.4531,507.6949 Q314.1875,508.5699 314.1875,509.6637 Q314.1875,511.1012 314.625,512.1481 Q315.0781,513.1949 315.9219,513.7418 Q316.7813,514.2887 318.0938,514.2887 Q318.875,514.2887 319.5625,514.1637 Q320.2656,514.0231 321.2656,513.7106 L321.2656,515.5856 Q320.4063,515.9137 319.6406,516.0387 Q318.8906,516.1637 317.875,516.1637 Q315.9531,516.1637 314.6406,515.3668 Q313.3438,514.5543 312.6875,513.0856 Q312.0313,511.6012 312.0313,509.6324 Q312.0313,508.2106 312.4219,507.0387 Q312.8281,505.8512 313.6094,504.9762 Q314.3906,504.1012 315.5313,503.6324 Q316.6719,503.1481 318.1406,503.1481 Q319.0938,503.1481 319.9844,503.3512 Q320.8906,503.5387 321.8281,504.0074 L321,505.7887 Q320.2188,505.4137 319.5625,505.2262 Q318.9063,505.0231 318.1094,505.0231 Z " fill="#000000"/><text fill="#000000" font-family="sans-serif" font-size="14" lengthAdjust="spacing" textLength="239" x="338.5" y="514.9238">Shader_feature_dependency_graph</text><line style="stroke:#181818;stroke-width:0.5;" x1="161.75" x2="721.75" y1="525.4918" y2="525.4918"/><text fill="#000000" font-family="sans-serif" font-size="14" lengthAdjust="spacing" textLength="534" x="166.75" y="544.4578">+g_shader_feature_dependency_graph: static ShaderFeatureDependencyGraph</text><line style="stroke:#181818;stroke-width:1.0;" x1="161.75" x2="721.75" y1="552.5597" y2="552.5597"/><text fill="#000000" font-family="sans-serif" font-size="14" lengthAdjust="spacing" textLength="493" x="166.75" y="571.5257">+add_dependency(feature: Shader_feature, dependency: Shader_feature)</text><text fill="#000000" font-family="sans-serif" font-size="14" lengthAdjust="spacing" textLength="550" x="166.75" y="590.5936">+is_dependent(feature: Shader_feature, check_dependency: Shader_feature): bool</text><text fill="#000000" font-family="sans-serif" font-size="14" lengthAdjust="spacing" textLength="446" x="166.75" y="609.6615">+get_dependencies(feature: Shader_feature): set&lt;Shader_feature&gt;</text><text fill="#000000" font-family="sans-serif" font-size="14" lengthAdjust="spacing" textLength="468" x="166.75" y="628.7294">+get_all_dependencies(feature: Shader_feature): set&lt;Shader_feature&gt;</text></g><!--class Shader--><g id="elem_Shader"><rect codeLine="28" fill="#F1F1F1" height="399.2225" id="Shader" rx="2.5" ry="2.5" style="stroke:#181818;stroke-width:0.5;" width="545" x="169.25" y="34.2718"/><ellipse cx="415.5" cy="50.2718" fill="#A9DCDF" rx="11" ry="11" style="stroke:#181818;stroke-width:1.0;"/><path d="M418.8438,55.5218 L417.375,51.7718 L412.9375,51.7718 L411.5,55.5218 L409.375,55.5218 L414.3281,42.8031 L416.0781,42.8031 L421,55.5218 L418.8438,55.5218 Z M415.5,46.5687 Q415.4531,46.4124 415.3281,46.0531 Q415.2031,45.6937 415.0938,45.3187 Q414.9844,44.9281 415.1875,44.8656 Q415.3438,45.0531 415.25,45.4124 Q415.1563,45.7562 415.0625,46.0531 Q414.9688,46.3343 414.8906,46.5687 L413.6563,49.8812 L416.7344,49.8812 L415.5,46.5687 Z " fill="#000000"/><text fill="#000000" font-family="sans-serif" font-size="14" font-style="italic" lengthAdjust="spacing" textLength="44" x="436" y="55.7038">Shader</text><line style="stroke:#181818;stroke-width:0.5;" x1="170.25" x2="713.25" y1="66.2718" y2="66.2718"/><text fill="#000000" font-family="sans-serif" font-size="14" lengthAdjust="spacing" textLength="176" x="175.25" y="85.2378">-base_shader_code: string</text><text fill="#000000" font-family="sans-serif" font-size="14" lengthAdjust="spacing" textLength="263" x="175.25" y="104.3057">-main_uniforms: map&lt;string, Uniform&gt;</text><text fill="#000000" font-family="sans-serif" font-size="14" lengthAdjust="spacing" textLength="435" x="175.25" y="123.3736">-feature_uniforms: map&lt;Shader_feature, map&lt;string, Uniform&gt;&gt;</text><text fill="#000000" font-family="sans-serif" font-size="14" lengthAdjust="spacing" textLength="307" x="175.25" y="142.4415">-shader_feature_whitelist: Shader_feature_set</text><text fill="#000000" font-family="sans-serif" font-size="14" lengthAdjust="spacing" textLength="262" x="175.25" y="161.5094">-active_feature_set: Shader_feature_set</text><line style="stroke:#181818;stroke-width:1.0;" x1="170.25" x2="713.25" y1="169.6114" y2="169.6114"/><text fill="#000000" font-family="sans-serif" font-size="14" lengthAdjust="spacing" textLength="313" x="175.25" y="188.5773">+g_shader_cache: static map&lt;string, Shader*&gt;</text><line style="stroke:#181818;stroke-width:1.0;" x1="170.25" x2="713.25" y1="196.6793" y2="196.6793"/><text fill="#000000" font-family="sans-serif" font-size="14" lengthAdjust="spacing" textLength="432" x="175.25" y="215.6453">+Shader(base_code, main_uniforms, feature_uniforms, whitelist)</text><text fill="#000000" font-family="sans-serif" font-size="14" lengthAdjust="spacing" textLength="188" x="175.25" y="234.7132">+is_cached(key: string): bool</text><text fill="#000000" font-family="sans-serif" font-size="14" lengthAdjust="spacing" textLength="279" x="175.25" y="253.7811">+get_cached_shader(key: string): Shader*</text><text fill="#000000" font-family="sans-serif" font-size="14" lengthAdjust="spacing" textLength="348" x="175.25" y="272.849">+add_shader_to_cache(key: string, shader: Shader*)</text><text fill="#000000" font-family="sans-serif" font-size="14" lengthAdjust="spacing" textLength="533" x="175.25" y="291.9169">+get_shader_variant(requested_features: Shader_feature_set): Shader_program</text><text fill="#000000" font-family="sans-serif" font-size="14" lengthAdjust="spacing" textLength="181" x="175.25" y="310.9848">-get_shader_codes(): string</text><text fill="#000000" font-family="sans-serif" font-size="14" lengthAdjust="spacing" textLength="312" x="175.25" y="330.0528">-get_shader_uniforms(): map&lt;string, Uniform&gt;</text><text fill="#000000" font-family="sans-serif" font-size="14" lengthAdjust="spacing" textLength="436" x="175.25" y="349.1207">+get_all_shader_variants_permutation(): list&lt;Shader_feature_set&gt;</text><text fill="#000000" font-family="sans-serif" font-size="14" lengthAdjust="spacing" textLength="212" x="175.25" y="368.1886">+generate_all_shader_variants()</text><text fill="#000000" font-family="sans-serif" font-size="14" lengthAdjust="spacing" textLength="175" x="175.25" y="387.2565">+link_all_shader_variants()</text><text fill="#000000" font-family="sans-serif" font-size="14" lengthAdjust="spacing" textLength="347" x="175.25" y="406.3244">+get_shader_code_from_url(url: string): static string</text><text fill="#000000" font-family="sans-serif" font-size="14" lengthAdjust="spacing" textLength="389" x="175.25" y="425.3923">+load_shader_code_with_includes(url: string): static string</text></g><!--class ShaderProgram--><g id="elem_ShaderProgram"><rect codeLine="51" fill="#F1F1F1" height="48" id="ShaderProgram" rx="2.5" ry="2.5" style="stroke:#181818;stroke-width:0.5;" width="145" x="758.25" y="541.1618"/><ellipse cx="773.25" cy="557.1618" fill="#ADD1B2" rx="11" ry="11" style="stroke:#181818;stroke-width:1.0;"/><path d="M773.3594,552.6931 Q772.4375,552.6931 771.7031,553.0056 Q770.9844,553.3181 770.4844,553.9118 Q769.9844,554.4899 769.7031,555.3649 Q769.4375,556.2399 769.4375,557.3337 Q769.4375,558.7712 769.875,559.8181 Q770.3281,560.8649 771.1719,561.4118 Q772.0313,561.9587 773.3438,561.9587 Q774.125,561.9587 774.8125,561.8337 Q775.5156,561.6931 776.5156,561.3806 L776.5156,563.2556 Q775.6563,563.5837 774.8906,563.7087 Q774.1406,563.8337 773.125,563.8337 Q771.2031,563.8337 769.8906,563.0368 Q768.5938,562.2243 767.9375,560.7556 Q767.2813,559.2712 767.2813,557.3024 Q767.2813,555.8806 767.6719,554.7087 Q768.0781,553.5212 768.8594,552.6462 Q769.6406,551.7712 770.7813,551.3024 Q771.9219,550.8181 773.3906,550.8181 Q774.3438,550.8181 775.2344,551.0212 Q776.1406,551.2087 777.0781,551.6774 L776.25,553.4587 Q775.4688,553.0837 774.8125,552.8962 Q774.1563,552.6931 773.3594,552.6931 Z " fill="#000000"/><text fill="#000000" font-family="sans-serif" font-size="14" lengthAdjust="spacing" textLength="113" x="787.25" y="562.5938">Shader_program</text><line style="stroke:#181818;stroke-width:0.5;" x1="759.25" x2="902.25" y1="573.1618" y2="573.1618"/><line style="stroke:#181818;stroke-width:0.5;" x1="759.25" x2="902.25" y1="581.1618" y2="581.1618"/></g><!--reverse link ShaderFeatureDependencyGraph to Shader_feature--><g id="link_ShaderFeatureDependencyGraph_Shader_feature"><path codeLine="59" d="M281,649.2318 C281,668.2918 281,676.9918 281,696.5118 " fill="none" id="ShaderFeatureDependencyGraph-backto-Shader_feature" style="stroke:#181818;stroke-width:1.0;"/><polygon fill="#181818" points="281,637.2318,277,643.2318,281,649.2318,285,643.2318,281,637.2318" style="stroke:#181818;stroke-width:1.0;"/><polygon fill="#000000" points="286,662.7248,288.9389,653.6797,283.0611,653.6797,286,662.7248" style="stroke:#000000;stroke-width:1.0;"/><text fill="#000000" font-family="sans-serif" font-size="13" lengthAdjust="spacing" textLength="52" x="295" y="662.7688">&#31649;&#29702;&#20381;&#36182;</text><text fill="#000000" font-family="sans-serif" font-size="13" lengthAdjust="spacing" textLength="7" x="258.3449" y="658.8418">1</text><text fill="#000000" font-family="sans-serif" font-size="13" lengthAdjust="spacing" textLength="34" x="246.009" y="685.1423">many</text></g><!--link Shader to ShaderFeatureDependencyGraph--><g id="link_Shader_ShaderFeatureDependencyGraph"><path codeLine="62" d="M532.58,433.7618 C532.58,454.8018 532.58,475.0718 532.58,493.1318 " fill="none" id="Shader-ShaderFeatureDependencyGraph" style="stroke:#181818;stroke-width:1.0;"/><text fill="#000000" font-family="sans-serif" font-size="13" lengthAdjust="spacing" textLength="26" x="636.08" y="441.3488">&#20351;&#29992;</text><text fill="#000000" font-family="sans-serif" font-size="13" lengthAdjust="spacing" textLength="234" x="533.58" y="459.0548">(g_shader_feature_dependency_graph)</text><text fill="#000000" font-family="sans-serif" font-size="13" lengthAdjust="spacing" textLength="7" x="528.7184" y="455.1601">1</text><text fill="#000000" font-family="sans-serif" font-size="13" lengthAdjust="spacing" textLength="7" x="534.5859" y="481.7606">1</text></g><!--reverse link Shader to ShaderProgram--><g id="link_Shader_ShaderProgram"><path codeLine="65" d="M726.56,233.8818 C791.69,233.8818 830.75,233.8818 830.75,233.8818 C830.75,233.8818 830.75,464.3018 830.75,540.8018 " fill="none" id="Shader-backto-ShaderProgram" style="stroke:#181818;stroke-width:1.0;"/><polygon fill="#181818" points="714.56,233.8818,720.56,237.8818,726.56,233.8818,720.56,229.8818,714.56,233.8818" style="stroke:#181818;stroke-width:1.0;"/><polygon fill="#000000" points="796.3573,324.8395,796.2326,315.3297,790.6668,317.2192,796.3573,324.8395" style="stroke:#000000;stroke-width:1.0;"/><text fill="#000000" font-family="sans-serif" font-size="13" lengthAdjust="spacing" textLength="26" x="803.75" y="325.1488">&#21019;&#24314;</text><text fill="#000000" font-family="sans-serif" font-size="13" lengthAdjust="spacing" textLength="7" x="721.8995" y="230.5624">1</text><text fill="#000000" font-family="sans-serif" font-size="13" lengthAdjust="spacing" textLength="7" x="822.8531" y="529.3689">1</text></g><!--reverse link Shader to Shader--><g id="link_Shader_Shader"><path codeLine="68" d="M441.75,22.0818 C441.75,10.9918 441.75,16.2718 441.75,16.2718 C441.75,16.2718 165,16.2718 165,16.2718 C165,16.2718 165,463.4918 165,463.4918 C165,463.4918 350.92,463.4918 350.92,463.4918 C350.92,463.4918 350.92,451.9118 350.92,433.9518 " fill="none" id="Shader-backto-Shader" style="stroke:#181818;stroke-width:1.0;"/><polygon fill="none" points="441.75,34.0818,445.75,28.0818,441.75,22.0818,437.75,28.0818,441.75,34.0818" style="stroke:#181818;stroke-width:1.0;"/><polygon fill="#000000" points="16,186.1848,25.0451,189.1238,25.0451,183.2459,16,186.1848" style="stroke:#000000;stroke-width:1.0;"/><text fill="#000000" font-family="sans-serif" font-size="13" lengthAdjust="spacing" textLength="124" x="35" y="191.2288">g_shader_cache &#23384;&#20648;</text><text fill="#000000" font-family="sans-serif" font-size="13" lengthAdjust="spacing" textLength="7" x="434.6023" y="22.206">1</text><text fill="#000000" font-family="sans-serif" font-size="13" lengthAdjust="spacing" textLength="20" x="327.2964" y="455.357">0..*</text></g><!--link Shader to Shader_feature--><g id="link_Shader_Shader_feature"><path codeLine="71" d="M169.14,233.8818 C159.87,233.8818 154.5,233.8818 154.5,233.8818 C154.5,233.8818 154.5,538.7718 154.5,690.5718 " fill="none" id="Shader-to-Shader_feature" style="stroke:#181818;stroke-width:1.0;"/><polygon fill="#181818" points="154.5,696.5718,158.5,687.5718,154.5,691.5718,150.5,687.5718,154.5,696.5718" style="stroke:#181818;stroke-width:1.0;"/><text fill="#000000" font-family="sans-serif" font-size="13" lengthAdjust="spacing" textLength="26" x="81" y="435.8088">&#29983;&#25104;</text><text fill="#000000" font-family="sans-serif" font-size="13" lengthAdjust="spacing" textLength="119" x="34.5" y="453.5148">features &amp; uniforms</text><text fill="#000000" font-family="sans-serif" font-size="13" lengthAdjust="spacing" textLength="7" x="153.943" y="230.5369">1</text><text fill="#000000" font-family="sans-serif" font-size="13" lengthAdjust="spacing" textLength="7" x="135.7051" y="684.9278">*</text></g><!--SRC=[fLLDRzD04BtdLunye6wQL72DgagXBHzIIgk6YWkIjR4dyQhshjbT5mBYmW7roA52I0WXRbpWnWK4_1bA-HdC-YkssuO3aPBOkpDlvhsPdLs1-o7624m4eCqyucBMqKTS94on6Fo8QJqqHl59Ql2kByMOFqMuNZCX3pJp144g4yeEVLPWHwInxY3zWZCEMO3Aco8pgK87ddM0FkCxm-sz1-FiUJYwkREzv-qEzxFNUti7kyDHzJhUtzaw70qFgeNTdVl3qUZkLhNGxsT_QxeHoJFI2t1AsMbtTK3SbANstAQtPLcXxcJisXcIKu8YGE7FlPbYIUW0qv3RtCfDjYkBszQWeBGsy_Ho99i5CznVYjQWn8AWXk8Mm0Defjo3XKrxRpK7uhh2CLV3-27wHzuIi05Cf8mAkcWMffnKlWBMYezcexcukS1WKVG_E5HHDg7gCjz0ew1bg_KdJ6DP6by6M3L3jXipBhnKyAbKiHv0p9ADVBi7X_bgdck_h6hJjYtXPVu5GAix7eVSOCIrQHFrY6RkGPpuCTRNhxRjjvhGPrJDgkFgQUK8tSs6NxxePbfPaIoJcZ0zQDFlGKLWqMDPqC0zmdafyeMMoKsAB5kMHMQBtY-uq57EtEhcFSWtAw_LHOp2xPWfpgZV5JvAKHkAMf3GbybOnVSI9Ucynha-DJohItsOjFTBQQp9bNrKzNmpIUqbgEBKLaiA2s25tRYOPGKYK363bo6vXH8qcO-MxRUOULCbOozLaKlVMb6A3gfnNeia2ngkZxa9FIxyABKABVEduzeSkuNOjIcxdwyKntS53Z2Xaj7Wqi30bt728moAwaEzLYjGNLKwkz1Yf2ife6U58AIXCMbOvim5c131u1Epdjy91nXbqkkG9zekB9tuCHDiXhhLHPsbFiuD1xhzFZZaF7TQhZ20yyyVpb-z_FNZtPylhs5paGAa-aAa2rSBkCUSmIoI4nOHEz9S-3Jx2mGRsaQ-uIodDO1Vtt-Udtw4XyBzvsssMalHLsIqoB8eIfM8hYVIRMHI5di0PoTlpxvzRJ2t8uWg9hB2sm40SbhkLTZWQeocVJQRAPnbDMpmbZRSzVNrRXcHGZM799nzUdFsukE_D0Swmr0UyQozoWqwbhefzIOutSjAVFh-zychXw8SGt2j0knq_W80]--></g></svg>