<?xml version="1.0" encoding="us-ascii" standalone="no"?><svg xmlns="http://www.w3.org/2000/svg" xmlns:xlink="http://www.w3.org/1999/xlink" contentStyleType="text/css" height="821px" preserveAspectRatio="none" style="width:782px;height:821px;background:#FFFFFF;" version="1.1" viewBox="0 0 782 821" width="782px" zoomAndPan="magnify"><defs/><g><text fill="#000000" font-family="sans-serif" font-size="14" font-weight="bold" lengthAdjust="spacing" textLength="375.9375" x="196.0313" y="24.9659">&#24179;&#21488;&#23618; (Platform Layer) - RHI Modules as Components</text><!--cluster ??? (Platform Layer)--><g id="cluster_&#24179;&#21488;&#23618; (Platform Layer)"><path d="M8.5,46.6699 L168.375,46.6699 A3.75,3.75 0 0 1 170.875,49.1699 L177.875,71.7378 L772.5,71.7378 A2.5,2.5 0 0 1 775,74.2378 L775,700.1699 A2.5,2.5 0 0 1 772.5,702.6699 L8.5,702.6699 A2.5,2.5 0 0 1 6,700.1699 L6,49.1699 A2.5,2.5 0 0 1 8.5,46.6699 " fill="none" style="stroke:#000000;stroke-width:1.5;"/><line style="stroke:#000000;stroke-width:1.5;" x1="6" x2="177.875" y1="71.7378" y2="71.7378"/><text fill="#000000" font-family="sans-serif" font-size="14" font-weight="bold" lengthAdjust="spacing" textLength="158.875" x="10" y="63.6358">&#24179;&#21488;&#23618; (Platform Layer)</text></g><!--cluster RHI_Abstraction_Package--><g id="cluster_RHI_Abstraction_Package"><path d="M467.5,188.6699 L707.3125,188.6699 A3.75,3.75 0 0 1 709.8125,191.1699 L716.8125,232.8057 L740.5,232.8057 A2.5,2.5 0 0 1 743,235.3057 L743,668.1699 A2.5,2.5 0 0 1 740.5,670.6699 L467.5,670.6699 A2.5,2.5 0 0 1 465,668.1699 L465,191.1699 A2.5,2.5 0 0 1 467.5,188.6699 " fill="none" style="stroke:#000000;stroke-width:1.5;"/><line style="stroke:#000000;stroke-width:1.5;" x1="465" x2="716.8125" y1="232.8057" y2="232.8057"/><text fill="#000000" font-family="sans-serif" font-size="14" font-weight="bold" lengthAdjust="spacing" textLength="238.8125" x="469" y="205.6358">RHI &#25277;&#35937;&#23618; (RHI Abstraction Layer)</text><text fill="#000000" font-family="sans-serif" font-size="14" font-weight="bold" lengthAdjust="spacing" textLength="202.9375" x="486.9375" y="224.7038">(Render Hardware Interface)</text></g><!--cluster RHIFunctions_Module--><g id="cluster_RHIFunctions_Module"><rect fill="none" height="152" rx="2.5" ry="2.5" style="stroke:#181818;stroke-width:1.0;" width="206" x="501" y="486.6699"/><rect fill="none" height="10" style="stroke:#181818;stroke-width:1.0;" width="15" x="687" y="491.6699"/><rect fill="none" height="2" style="stroke:#181818;stroke-width:1.0;" width="4" x="685" y="493.6699"/><rect fill="none" height="2" style="stroke:#181818;stroke-width:1.0;" width="4" x="685" y="497.6699"/><text fill="#000000" font-family="sans-serif" font-size="14" font-weight="bold" lengthAdjust="spacing" textLength="131.5625" x="538.2188" y="514.6358">RHI_functions &#27169;&#22359;</text></g><!--cluster RHIResources_Module--><g id="cluster_RHIResources_Module"><rect fill="none" height="152" rx="2.5" ry="2.5" style="stroke:#181818;stroke-width:1.0;" width="214" x="497" y="310.6699"/><rect fill="none" height="10" style="stroke:#181818;stroke-width:1.0;" width="15" x="691" y="315.6699"/><rect fill="none" height="2" style="stroke:#181818;stroke-width:1.0;" width="4" x="689" y="317.6699"/><rect fill="none" height="2" style="stroke:#181818;stroke-width:1.0;" width="4" x="689" y="321.6699"/><text fill="#000000" font-family="sans-serif" font-size="14" font-weight="bold" lengthAdjust="spacing" textLength="134.5625" x="536.7188" y="338.6358">RHI_resources &#27169;&#22359;</text></g><!--cluster AdaptationLayer--><g id="cluster_AdaptationLayer"><path d="M40.5,154.6699 L311.625,154.6699 A3.75,3.75 0 0 1 314.125,157.1699 L321.125,198.8057 L327.5,198.8057 A2.5,2.5 0 0 1 330,201.3057 L330,668.1699 A2.5,2.5 0 0 1 327.5,670.6699 L40.5,670.6699 A2.5,2.5 0 0 1 38,668.1699 L38,157.1699 A2.5,2.5 0 0 1 40.5,154.6699 " fill="none" style="stroke:#000000;stroke-width:1.5;"/><line style="stroke:#000000;stroke-width:1.5;" x1="38" x2="321.125" y1="198.8057" y2="198.8057"/><text fill="#000000" font-family="sans-serif" font-size="14" font-weight="bold" lengthAdjust="spacing" textLength="270.125" x="42" y="171.6358">&#24179;&#21488;&#36866;&#37197;&#23618; (Platform Adaptation Layer)</text><text fill="#000000" font-family="sans-serif" font-size="14" font-weight="bold" lengthAdjust="spacing" textLength="159.75" x="97.1875" y="190.7038">(RHI Implementations)</text></g><g id="elem_GMN14"><path d="M494.92,136.8199 L494.92,164.5259 L713.0763,164.5259 L713.0763,146.8199 L703.0763,136.8199 L494.92,136.8199 " fill="#FEFFDD" style="stroke:#181818;stroke-width:0.5;"/><path d="M703.0763,136.8199 L703.0763,146.8199 L713.0763,146.8199 L703.0763,136.8199 " fill="#FEFFDD" style="stroke:#181818;stroke-width:1.0;"/><text fill="#000000" font-family="sans-serif" font-size="13" font-weight="bold" lengthAdjust="spacing" textLength="197.1563" x="500.92" y="155.7169">&#24179;&#21488;&#25277;&#35937; (Platform Abstraction)</text></g><g id="elem_GMN30"><path d="M76.12,84.9699 L76.12,130.3819 L291.87,130.3819 L291.87,94.9699 L281.87,84.9699 L76.12,84.9699 " fill="#FEFFDD" style="stroke:#181818;stroke-width:0.5;"/><path d="M281.87,84.9699 L281.87,94.9699 L291.87,94.9699 L281.87,84.9699 " fill="#FEFFDD" style="stroke:#181818;stroke-width:1.0;"/><text fill="#000000" font-family="sans-serif" font-size="13" font-weight="bold" lengthAdjust="spacing" textLength="194.75" x="82.12" y="103.8669">&#24179;&#21488;&#36866;&#37197; (Platform Adaptation)</text><text fill="#000000" font-family="sans-serif" font-size="13" lengthAdjust="spacing" textLength="163" x="82.12" y="121.5729">&#38024;&#23545;&#19981;&#21516;&#22270;&#24418;API&#30340;&#20855;&#20307;&#23454;&#29616;</text></g><!--entity Unified_RHI_Interface--><g id="elem_Unified_RHI_Interface"><ellipse cx="604" cy="285.6699" fill="#F1F1F1" rx="8" ry="8" style="stroke:#181818;stroke-width:0.5;"/><text fill="#000000" font-family="sans-serif" font-size="14" lengthAdjust="spacing" textLength="234" x="487" y="317.6358">&#32479;&#19968;RHI&#25509;&#21475; (Unified RHI Interface)</text></g><g id="elem_GMN7"><path d="M517,524.4099 L517,622.94 L691,622.94 L691,534.4099 L681,524.4099 L517,524.4099 " fill="#FEFFDD" style="stroke:#181818;stroke-width:0.5;"/><path d="M681,524.4099 L681,534.4099 L691,534.4099 L681,524.4099 " fill="#FEFFDD" style="stroke:#181818;stroke-width:1.0;"/><text fill="#000000" font-family="sans-serif" font-size="13" lengthAdjust="spacing" textLength="108" x="523" y="543.3069">&#31649;&#29702;GPU&#28210;&#26579;&#33021;&#21147;:</text><text fill="#000000" font-family="sans-serif" font-size="13" lengthAdjust="spacing" textLength="123" x="523" y="561.0129">- &#28210;&#26579;&#31649;&#36947; (Pipelines)</text><text fill="#000000" font-family="sans-serif" font-size="13" lengthAdjust="spacing" textLength="105" x="523" y="578.7189">- &#30528;&#33394;&#22120; (Shaders)</text><text fill="#000000" font-family="sans-serif" font-size="13" lengthAdjust="spacing" textLength="153" x="523" y="596.425">- &#28210;&#26579;&#29366;&#24577; (Render States)</text><text fill="#000000" font-family="sans-serif" font-size="13" lengthAdjust="spacing" textLength="20" x="523" y="614.131">- &#31561;</text></g><g id="elem_GMN11"><path d="M513,348.4099 L513,446.94 L695,446.94 L695,358.4099 L685,348.4099 L513,348.4099 " fill="#FEFFDD" style="stroke:#181818;stroke-width:0.5;"/><path d="M685,348.4099 L685,358.4099 L695,358.4099 L685,348.4099 " fill="#FEFFDD" style="stroke:#181818;stroke-width:1.0;"/><text fill="#000000" font-family="sans-serif" font-size="13" lengthAdjust="spacing" textLength="108" x="519" y="367.3069">&#31649;&#29702;GPU&#35774;&#22791;&#36164;&#28304;:</text><text fill="#000000" font-family="sans-serif" font-size="13" lengthAdjust="spacing" textLength="96" x="519" y="385.0129">- &#32441;&#29702; (Textures)</text><text fill="#000000" font-family="sans-serif" font-size="13" lengthAdjust="spacing" textLength="99" x="519" y="402.7189">- &#32531;&#20914;&#21306; (Buffers)</text><text fill="#000000" font-family="sans-serif" font-size="13" lengthAdjust="spacing" textLength="161" x="519" y="420.425">- &#28210;&#26579;&#30446;&#26631; (Render Targets)</text><text fill="#000000" font-family="sans-serif" font-size="13" lengthAdjust="spacing" textLength="20" x="519" y="438.131">- &#31561;</text></g><!--entity OpenGL_RHI--><g id="elem_OpenGL_RHI"><rect fill="#F1F1F1" height="49.0679" rx="2.5" ry="2.5" style="stroke:#181818;stroke-width:0.5;" width="234" x="67" y="597.1399"/><rect fill="#F1F1F1" height="10" style="stroke:#181818;stroke-width:0.5;" width="15" x="281" y="602.1399"/><rect fill="#F1F1F1" height="2" style="stroke:#181818;stroke-width:0.5;" width="4" x="279" y="604.1399"/><rect fill="#F1F1F1" height="2" style="stroke:#181818;stroke-width:0.5;" width="4" x="279" y="608.1399"/><text fill="#000000" font-family="sans-serif" font-size="14" lengthAdjust="spacing" textLength="194" x="82" y="632.1058">OpenGL RHI Implementation</text></g><g id="elem_GMN19"><path d="M137,534.8199 L137,562.5259 A0,0 0 0 0 137,562.5259 L180,562.5259 L184,596.8599 L188,562.5259 L231,562.5259 A0,0 0 0 0 231,562.5259 L231,544.8199 L221,534.8199 L137,534.8199 A0,0 0 0 0 137,534.8199 " fill="#FEFFDD" style="stroke:#181818;stroke-width:0.5;"/><path d="M221,534.8199 L221,544.8199 L231,544.8199 L221,534.8199 " fill="#FEFFDD" style="stroke:#181818;stroke-width:0.5;"/><text fill="#000000" font-family="sans-serif" font-size="13" lengthAdjust="spacing" textLength="73" x="143" y="553.7169">(&#24403;&#21069;&#24050;&#23454;&#29616;)</text></g><!--entity DX12_RHI--><g id="elem_DX12_RHI"><rect fill="#F1F1F1" height="49.0679" rx="2.5" ry="2.5" style="stroke:#181818;stroke-width:0.5;" width="244" x="62" y="451.1399"/><rect fill="#F1F1F1" height="10" style="stroke:#181818;stroke-width:0.5;" width="15" x="286" y="456.1399"/><rect fill="#F1F1F1" height="2" style="stroke:#181818;stroke-width:0.5;" width="4" x="284" y="458.1399"/><rect fill="#F1F1F1" height="2" style="stroke:#181818;stroke-width:0.5;" width="4" x="284" y="462.1399"/><text fill="#000000" font-family="sans-serif" font-size="14" lengthAdjust="spacing" textLength="204" x="77" y="486.1058">DirectX12 RHI Implementation</text></g><g id="elem_GMN23"><path d="M150,388.8199 L150,416.5259 A0,0 0 0 0 150,416.5259 L180,416.5259 L184,450.8599 L188,416.5259 L218,416.5259 A0,0 0 0 0 218,416.5259 L218,398.8199 L208,388.8199 L150,388.8199 A0,0 0 0 0 150,388.8199 " fill="#FEFFDD" style="stroke:#181818;stroke-width:0.5;"/><path d="M208,388.8199 L208,398.8199 L218,398.8199 L208,388.8199 " fill="#FEFFDD" style="stroke:#181818;stroke-width:0.5;"/><text fill="#000000" font-family="sans-serif" font-size="13" lengthAdjust="spacing" textLength="47" x="156" y="407.7169">(&#24453;&#23454;&#29616;)</text></g><!--entity Vulkan_RHI--><g id="elem_Vulkan_RHI"><rect fill="#F1F1F1" height="49.0679" rx="2.5" ry="2.5" style="stroke:#181818;stroke-width:0.5;" width="225" x="71.5" y="305.1399"/><rect fill="#F1F1F1" height="10" style="stroke:#181818;stroke-width:0.5;" width="15" x="276.5" y="310.1399"/><rect fill="#F1F1F1" height="2" style="stroke:#181818;stroke-width:0.5;" width="4" x="274.5" y="312.1399"/><rect fill="#F1F1F1" height="2" style="stroke:#181818;stroke-width:0.5;" width="4" x="274.5" y="316.1399"/><text fill="#000000" font-family="sans-serif" font-size="14" lengthAdjust="spacing" textLength="185" x="86.5" y="340.1058">Vulkan RHI Implementation</text></g><g id="elem_GMN27"><path d="M150,242.8199 L150,270.5259 A0,0 0 0 0 150,270.5259 L180,270.5259 L184,304.8599 L188,270.5259 L218,270.5259 A0,0 0 0 0 218,270.5259 L218,252.8199 L208,242.8199 L150,242.8199 A0,0 0 0 0 150,242.8199 " fill="#FEFFDD" style="stroke:#181818;stroke-width:0.5;"/><path d="M208,242.8199 L208,252.8199 L218,252.8199 L208,242.8199 " fill="#FEFFDD" style="stroke:#181818;stroke-width:0.5;"/><text fill="#000000" font-family="sans-serif" font-size="13" lengthAdjust="spacing" textLength="47" x="156" y="261.7169">(&#24453;&#23454;&#29616;)</text></g><!--entity UpperLayer--><g id="elem_UpperLayer"><ellipse cx="184" cy="727.0999" fill="#F1F1F1" rx="8" ry="8" style="stroke:#181818;stroke-width:0.5;"/><path d="M184,735.0999 L184,762.0999 M171,743.0999 L197,743.0999 M184,762.0999 L171,777.0999 M184,762.0999 L197,777.0999 " fill="none" style="stroke:#181818;stroke-width:0.5;"/><text fill="#000000" font-family="sans-serif" font-size="14" lengthAdjust="spacing" textLength="56" x="135.5" y="793.5658">&#19978;&#23618;&#27169;&#22359;</text><text fill="#000000" font-family="sans-serif" font-size="14" lengthAdjust="spacing" textLength="97" x="135.5" y="812.6338">(Upper Layers)</text></g><!--link Unified_RHI_Interface to GMN7--><g id="link_Unified_RHI_Interface_GMN7"><path d="M594.85,285.1099 C561.4,283.6399 445.18,283.6099 397.5,350.1699 C372.91,384.4999 377,408.2599 397.5,445.1699 C423.03,491.1299 472.57,522.7799 516.72,543.1599 " fill="none" id="Unified_RHI_Interface-GMN7" style="stroke:#181818;stroke-width:1.0;stroke-dasharray:7.0,7.0;"/></g><!--link GMN7 to GMN11--><g id="link_GMN7_GMN11"><path d="M604,524.1699 C604,498.4799 604,472.7799 604,447.0899 " fill="none" id="GMN7-GMN11" style="stroke:#181818;stroke-width:1.0;stroke-dasharray:7.0,7.0;"/></g><!--link GMN14 to RHI_Abstraction_Package--><g id="link_GMN14_RHI_Abstraction_Package"><path d="M604,164.9299 C604,170.9849 604,177.0399 604,183.0949 C604,184.6086 604,186.1224 604,187.6361 C604,187.8254 604,188.0146 604,188.2038 C604,188.2984 604,188.393 604,188.4876 " fill="none" id="GMN14-RHI_Abstraction_Package" style="stroke:#181818;stroke-width:1.0;stroke-dasharray:7.0,7.0;"/></g><!--link GMN30 to AdaptationLayer--><g id="link_GMN30_AdaptationLayer"><path d="M184,130.8499 C184,136.8949 184,142.9393 184,148.9833 C184,150.4944 184,152.0053 184,153.5163 C184,153.8941 184,154.2718 184,154.6496 " fill="none" id="GMN30-AdaptationLayer" style="stroke:#181818;stroke-width:1.0;stroke-dasharray:7.0,7.0;"/></g><!--link UpperLayer to Unified_RHI_Interface--><g id="link_UpperLayer_Unified_RHI_Interface"><path d="M232.87,751.9799 C293.64,729.2099 395.97,680.6199 441,599.6699 C455.43,573.7299 430.98,356.2599 449,332.6699 C485.31,285.1299 562.5342,284.0067 588.8642,284.9867 " fill="none" id="UpperLayer-to-Unified_RHI_Interface" style="stroke:#181818;stroke-width:1.0;"/><polygon fill="#181818" points="594.86,285.2099,586.015,280.8779,589.8635,285.0239,585.7175,288.8724,594.86,285.2099" style="stroke:#181818;stroke-width:1.0;"/><text fill="#000000" font-family="sans-serif" font-size="13" lengthAdjust="spacing" textLength="41" x="377" y="595.5669">&#171;uses&#187;</text></g><!--link OpenGL_RHI to Unified_RHI_Interface--><g id="link_OpenGL_RHI_Unified_RHI_Interface"><path d="M301.23,601.4499 C317.02,595.8699 332.44,588.7499 346,579.6699 C404.28,540.6499 416.55,519.4099 441,453.6699 C450.39,428.4099 432.26,353.7899 449,332.6699 C485.99,286.0099 550.0482,283.9172 576.5682,284.7172 " fill="none" id="OpenGL_RHI-to-Unified_RHI_Interface" style="stroke:#181818;stroke-width:1.0;stroke-dasharray:7.0,7.0;"/><polygon fill="none" points="594.56,285.2599,576.7491,278.7199,576.3873,290.7144,594.56,285.2599" style="stroke:#181818;stroke-width:1.0;"/><text fill="#000000" font-family="sans-serif" font-size="13" lengthAdjust="spacing" textLength="85" x="355" y="449.5669">&#171;implements&#187;</text></g><!--link DX12_RHI to Unified_RHI_Interface--><g id="link_DX12_RHI_Unified_RHI_Interface"><path d="M306.41,451.3799 C320.18,446.4899 333.68,440.6499 346,433.6699 C359.95,425.7699 435.22,340.8599 449,332.6699 C499.47,302.6999 552.9575,292.8612 576.9475,289.3712 " fill="none" id="DX12_RHI-to-Unified_RHI_Interface" style="stroke:#181818;stroke-width:1.0;stroke-dasharray:7.0,7.0;"/><polygon fill="none" points="594.76,286.7799,576.0837,283.4337,577.8113,295.3087,594.76,286.7799" style="stroke:#181818;stroke-width:1.0;"/><text fill="#000000" font-family="sans-serif" font-size="13" lengthAdjust="spacing" textLength="85" x="355" y="336.0969">&#171;implements&#187;</text></g><!--link Vulkan_RHI to Unified_RHI_Interface--><g id="link_Vulkan_RHI_Unified_RHI_Interface"><path d="M296.74,317.9099 C404.84,306.5299 539.7189,292.3342 576.7689,288.4342 " fill="none" id="Vulkan_RHI-to-Unified_RHI_Interface" style="stroke:#181818;stroke-width:1.0;stroke-dasharray:7.0,7.0;"/><polygon fill="none" points="594.67,286.5499,576.1408,282.4672,577.397,294.4013,594.67,286.5499" style="stroke:#181818;stroke-width:1.0;"/><text fill="#000000" font-family="sans-serif" font-size="13" lengthAdjust="spacing" textLength="85" x="355" y="298.9769">&#171;implements&#187;</text></g><!--SRC=[fLLRJnD157xVNt7I5riY9Ff820bA11ACX8lnWQGPTcVR2TkPpUvKHJG111GYGkJ1A474IyAB21Zbel1hcBRy2sTcs-ssx3P1DuIav_9zvpg74-vW4CS_nEgUs9-3z923kCsy0WoYAUnbe1s6-mVWBhEA3lO1-N2R5Ln6CUM-uM2R0sVWaLoUWqKyR7B2g85CpZn8dHyjIyZIphROV3jEqsEkYxq0ri-a59IMQ85XkCYSH3aCgUHOKZ1j622_q5Q5Lbe-hUnlQtlrisV2vnxISLJT9FKmffRaxaUUzGXv60OenvwDJ1p48Vso4R_iK1L_MhEfZzGS85N-lNL-D2DTIg-_YjNFa1wZn2ROqdLg0gwgieeWL1aXgbahfSuaQnUfvlSXg5ajjZirUJPeGoGkzL76CKmmpbcXGQw-ykvsUMsnRsYiT7HGsbglF3yLonkTbypQ8T1ByulPTLbuucA7KEndOapBcpELfGFnRWVI8tbagMuc0ox_AitCGgq18npn1D1lImrIQQyJ2uNF4ilcOPyLFHCtbssu9l-FibLspyIN5vMVywMJjRYobK-EfI6aH_5ZNlGIKlkpBXOFnAiJIDygsdRhUctibZw-2EirYhmSvlzQiFf_dIjdBZ0xSTWxeQqjsBrWeoBh5p7FjBKrxM3WSp4pTx6mqhYrFHPoPSCRDr4jIS5rS47sJ-kgRq7TMDj6cXLfzpqNqxv1k0oY8GAjMZOZfiagzxg5J3SjJjV5qeeuF12x7yglzpAn4zQhNxK7DsuciVPANIlEcbupdYsquhfVT2OHJI8AjAsewXPDPF6Jq5po-WG4tOnjfHo0SNhnvgNuVdn-j2BMNecDCt7wgMTeeFn-NYmSdikYQbP3RkmrQ6-N1mGxGQVpnFMLH2aYrm0ArUjIz6LiUGonBwfHlnOIepl-RPKvT7L96B-xMv7SPjJqiCnO8P76iOCqePhjqfY2Xv53dhIA9J987HrFMmKJiggGmbcuYbEagrTna-ch8I8cuJAXUWSwOqyAebRScob1B6pBIw1huPlCnMfo8eLf3AD3EepcYG_opsJq8PwIfPkOKWu5cC24vkGfzOaLu2KyHH83EOpcGhlm-bxNSGPumIWpscZHOVm5]--></g></svg>