<?xml version="1.0" encoding="us-ascii" standalone="no"?><svg xmlns="http://www.w3.org/2000/svg" xmlns:xlink="http://www.w3.org/1999/xlink" contentStyleType="text/css" height="795px" preserveAspectRatio="none" style="width:1274px;height:795px;background:#FFFFFF;" version="1.1" viewBox="0 0 1274 795" width="1274px" zoomAndPan="magnify"><defs/><g><!--cluster Pkg_RenderSystem--><g id="cluster_Pkg_RenderSystem"><path d="M739.5,610.49 L908.5,610.49 A3.75,3.75 0 0 1 911,612.99 L918,632.9783 L918.5,632.9783 A2.5,2.5 0 0 1 921,635.4783 L921,785.99 A2.5,2.5 0 0 1 918.5,788.49 L739.5,788.49 A2.5,2.5 0 0 1 737,785.99 L737,612.99 A2.5,2.5 0 0 1 739.5,610.49 " fill="none" style="stroke:#000000;stroke-width:1.5;"/><line style="stroke:#000000;stroke-width:1.5;" x1="737" x2="918" y1="632.9783" y2="632.9783"/><text fill="#000000" font-family="sans-serif" font-size="14" font-weight="bold" lengthAdjust="spacing" textLength="168" x="741" y="626.0252">Rendering System Core</text></g><path d="M1117.5,6 L1240.5,6 A3.75,3.75 0 0 1 1243,8.5 L1250,28.4883 L1254.5,28.4883 A2.5,2.5 0 0 1 1257,30.9883 L1257,56.4766 A2.5,2.5 0 0 1 1254.5,58.9766 L1117.5,58.9766 A2.5,2.5 0 0 1 1115,56.4766 L1115,8.5 A2.5,2.5 0 0 1 1117.5,6 " fill="#F1F1F1" style="stroke:#181818;stroke-width:0.5;"/><line style="stroke:#181818;stroke-width:0.5;" x1="1115" x2="1250" y1="28.4883" y2="28.4883"/><text fill="#000000" font-family="sans-serif" font-size="14" font-weight="bold" lengthAdjust="spacing" textLength="122" x="1119" y="21.5352">Attribute Buffers</text><path d="M763.5,313 L879.5,313 A3.75,3.75 0 0 1 882,315.5 L889,335.4883 L893.5,335.4883 A2.5,2.5 0 0 1 896,337.9883 L896,363.4766 A2.5,2.5 0 0 1 893.5,365.9766 L763.5,365.9766 A2.5,2.5 0 0 1 761,363.4766 L761,315.5 A2.5,2.5 0 0 1 763.5,313 " fill="#F1F1F1" style="stroke:#181818;stroke-width:0.5;"/><line style="stroke:#181818;stroke-width:0.5;" x1="761" x2="889" y1="335.4883" y2="335.4883"/><text fill="#000000" font-family="sans-serif" font-size="14" font-weight="bold" lengthAdjust="spacing" textLength="115" x="765" y="328.5352">Memory Buffers</text><path d="M786.5,65 L856.5,65 A3.75,3.75 0 0 1 859,67.5 L866,87.4883 L870.5,87.4883 A2.5,2.5 0 0 1 873,89.9883 L873,115.4766 A2.5,2.5 0 0 1 870.5,117.9766 L786.5,117.9766 A2.5,2.5 0 0 1 784,115.4766 L784,67.5 A2.5,2.5 0 0 1 786.5,65 " fill="#F1F1F1" style="stroke:#181818;stroke-width:0.5;"/><line style="stroke:#181818;stroke-width:0.5;" x1="784" x2="866" y1="87.4883" y2="87.4883"/><text fill="#000000" font-family="sans-serif" font-size="14" font-weight="bold" lengthAdjust="spacing" textLength="69" x="788" y="80.5352">Geometry</text><path d="M793,471 L850,471 A3.75,3.75 0 0 1 852.5,473.5 L859.5,493.4883 L864,493.4883 A2.5,2.5 0 0 1 866.5,495.9883 L866.5,521.4766 A2.5,2.5 0 0 1 864,523.9766 L793,523.9766 A2.5,2.5 0 0 1 790.5,521.4766 L790.5,473.5 A2.5,2.5 0 0 1 793,471 " fill="#F1F1F1" style="stroke:#181818;stroke-width:0.5;"/><line style="stroke:#181818;stroke-width:0.5;" x1="790.5" x2="859.5" y1="493.4883" y2="493.4883"/><text fill="#000000" font-family="sans-serif" font-size="14" font-weight="bold" lengthAdjust="spacing" textLength="56" x="794.5" y="486.5352">Shaders</text><path d="M789.5,225 L853.5,225 A3.75,3.75 0 0 1 856,227.5 L863,247.4883 L867.5,247.4883 A2.5,2.5 0 0 1 870,249.9883 L870,275.4766 A2.5,2.5 0 0 1 867.5,277.9766 L789.5,277.9766 A2.5,2.5 0 0 1 787,275.4766 L787,227.5 A2.5,2.5 0 0 1 789.5,225 " fill="#F1F1F1" style="stroke:#181818;stroke-width:0.5;"/><line style="stroke:#181818;stroke-width:0.5;" x1="787" x2="863" y1="247.4883" y2="247.4883"/><text fill="#000000" font-family="sans-serif" font-size="14" font-weight="bold" lengthAdjust="spacing" textLength="63" x="791" y="240.5352">Textures</text><path d="M377,392 L445,392 A3.75,3.75 0 0 1 447.5,394.5 L454.5,414.4883 L459,414.4883 A2.5,2.5 0 0 1 461.5,416.9883 L461.5,442.4766 A2.5,2.5 0 0 1 459,444.9766 L377,444.9766 A2.5,2.5 0 0 1 374.5,442.4766 L374.5,394.5 A2.5,2.5 0 0 1 377,392 " fill="#F1F1F1" style="stroke:#181818;stroke-width:0.5;"/><line style="stroke:#181818;stroke-width:0.5;" x1="374.5" x2="454.5" y1="414.4883" y2="414.4883"/><text fill="#000000" font-family="sans-serif" font-size="14" font-weight="bold" lengthAdjust="spacing" textLength="67" x="378.5" y="407.5352">Materials</text><path d="M364,225 L458,225 A3.75,3.75 0 0 1 460.5,227.5 L467.5,247.4883 L472,247.4883 A2.5,2.5 0 0 1 474.5,249.9883 L474.5,275.4766 A2.5,2.5 0 0 1 472,277.9766 L364,277.9766 A2.5,2.5 0 0 1 361.5,275.4766 L361.5,227.5 A2.5,2.5 0 0 1 364,225 " fill="#F1F1F1" style="stroke:#181818;stroke-width:0.5;"/><line style="stroke:#181818;stroke-width:0.5;" x1="361.5" x2="467.5" y1="247.4883" y2="247.4883"/><text fill="#000000" font-family="sans-serif" font-size="14" font-weight="bold" lengthAdjust="spacing" textLength="93" x="365.5" y="240.5352">Frame Buffer</text><path d="M8.5,238 L60.5,238 A3.75,3.75 0 0 1 63,240.5 L70,260.4883 L74.5,260.4883 A2.5,2.5 0 0 1 77,262.9883 L77,288.4766 A2.5,2.5 0 0 1 74.5,290.9766 L8.5,290.9766 A2.5,2.5 0 0 1 6,288.4766 L6,240.5 A2.5,2.5 0 0 1 8.5,238 " fill="#F1F1F1" style="stroke:#181818;stroke-width:0.5;"/><line style="stroke:#181818;stroke-width:0.5;" x1="6" x2="70" y1="260.4883" y2="260.4883"/><text fill="#000000" font-family="sans-serif" font-size="14" font-weight="bold" lengthAdjust="spacing" textLength="51" x="10" y="253.5352">Skybox</text><!--entity RP--><g id="elem_RP"><polygon fill="#F1F1F1" points="753.5,655.25,763.5,645.25,903.5,645.25,903.5,681.7383,893.5,691.7383,753.5,691.7383,753.5,655.25" style="stroke:#181818;stroke-width:0.5;"/><line style="stroke:#181818;stroke-width:0.5;" x1="893.5" x2="903.5" y1="655.25" y2="645.25"/><line style="stroke:#181818;stroke-width:0.5;" x1="753.5" x2="893.5" y1="655.25" y2="655.25"/><line style="stroke:#181818;stroke-width:0.5;" x1="893.5" x2="893.5" y1="655.25" y2="691.7383"/><text fill="#000000" font-family="sans-serif" font-size="14" lengthAdjust="spacing" textLength="110" x="768.5" y="678.7852">Render_Pipeline</text></g><!--entity RPass--><g id="elem_RPass"><polygon fill="#F1F1F1" points="765.5,736.25,775.5,726.25,891.5,726.25,891.5,762.7383,881.5,772.7383,765.5,772.7383,765.5,736.25" style="stroke:#181818;stroke-width:0.5;"/><line style="stroke:#181818;stroke-width:0.5;" x1="881.5" x2="891.5" y1="736.25" y2="726.25"/><line style="stroke:#181818;stroke-width:0.5;" x1="765.5" x2="881.5" y1="736.25" y2="736.25"/><line style="stroke:#181818;stroke-width:0.5;" x1="881.5" x2="881.5" y1="736.25" y2="772.7383"/><text fill="#000000" font-family="sans-serif" font-size="14" lengthAdjust="spacing" textLength="86" x="780.5" y="759.7852">Render_Pass</text></g><!--class RO--><g id="elem_RO"><rect codeLine="4" fill="#F1F1F1" height="48" id="RO" rx="2.5" ry="2.5" style="stroke:#181818;stroke-width:0.5;" width="130" x="1121" y="424.49"/><ellipse cx="1136" cy="440.49" fill="#ADD1B2" rx="11" ry="11" style="stroke:#181818;stroke-width:1.0;"/><path d="M1138.4731,446.6331 Q1137.8921,446.9319 1137.2529,447.0813 Q1136.6138,447.2307 1135.9082,447.2307 Q1133.4014,447.2307 1132.0815,445.5789 Q1130.7617,443.927 1130.7617,440.8059 Q1130.7617,437.6765 1132.0815,436.0247 Q1133.4014,434.3728 1135.9082,434.3728 Q1136.6138,434.3728 1137.2612,434.5222 Q1137.9087,434.6716 1138.4731,434.9705 L1138.4731,437.6931 Q1137.8423,437.1121 1137.2488,436.8423 Q1136.6553,436.5725 1136.0244,436.5725 Q1134.6797,436.5725 1133.9949,437.6392 Q1133.3101,438.7058 1133.3101,440.8059 Q1133.3101,442.8977 1133.9949,443.9644 Q1134.6797,445.031 1136.0244,445.031 Q1136.6553,445.031 1137.2488,444.7612 Q1137.8423,444.4915 1138.4731,443.9104 Z " fill="#000000"/><text fill="#000000" font-family="sans-serif" font-size="14" lengthAdjust="spacing" textLength="98" x="1150" y="445.781">Render_object</text><line style="stroke:#181818;stroke-width:0.5;" x1="1122" x2="1250" y1="456.49" y2="456.49"/><line style="stroke:#181818;stroke-width:0.5;" x1="1122" x2="1250" y1="464.49" y2="464.49"/></g><!--class RHI_L--><g id="elem_RHI_L"><rect codeLine="6" fill="#F1F1F1" height="48" id="RHI_L" rx="2.5" ry="2.5" style="stroke:#181818;stroke-width:0.5;" width="154" x="1109" y="189.49"/><ellipse cx="1124" cy="205.49" fill="#B4A7E5" rx="11" ry="11" style="stroke:#181818;stroke-width:1.0;"/><path d="M1120.4277,201.7551 L1120.4277,199.5969 L1127.8071,199.5969 L1127.8071,201.7551 L1125.3418,201.7551 L1125.3418,209.8318 L1127.8071,209.8318 L1127.8071,211.99 L1120.4277,211.99 L1120.4277,209.8318 L1122.8931,209.8318 L1122.8931,201.7551 Z " fill="#000000"/><text fill="#000000" font-family="sans-serif" font-size="14" font-style="italic" lengthAdjust="spacing" textLength="69" x="1138" y="210.781">RHI_linker</text><rect fill="#FFFFFF" height="16.1328" style="stroke:#181818;stroke-width:1.0;stroke-dasharray:2.0,2.0;" width="51" x="1215" y="186.49"/><text fill="#000000" font-family="sans-serif" font-size="12" font-style="italic" lengthAdjust="spacing" textLength="49" x="1216" y="199.0916">RHIType</text><line style="stroke:#181818;stroke-width:0.5;" x1="1110" x2="1262" y1="221.49" y2="221.49"/><line style="stroke:#181818;stroke-width:0.5;" x1="1110" x2="1262" y1="229.49" y2="229.49"/></g><!--link Pkg_MB to RO--><g id="link_Pkg_MB_RO"><path codeLine="16" d="M896.45,351.85 C947.28,362.13 1018.51,378.47 1079,399.49 C1098.53,406.28 1103.0829,407.6921 1121.0329,416.2521 " fill="none" id="Pkg_MB-to-RO" style="stroke:#181818;stroke-width:1.0;stroke-dasharray:7.0,7.0;"/><polygon fill="none" points="1137.28,424,1123.6155,410.8363,1118.4502,421.6678,1137.28,424" style="stroke:#181818;stroke-width:1.0;"/></g><!--link Pkg_MB to RHI_L--><g id="link_Pkg_MB_RHI_L"><path codeLine="17" d="M896.37,315.79 C959.12,293.55 1035.6045,266.4444 1099.0445,243.9544 " fill="none" id="Pkg_MB-to-RHI_L" style="stroke:#181818;stroke-width:1.0;stroke-dasharray:7.0,7.0;"/><polygon fill="none" points="1116.01,237.94,1097.0397,238.2992,1101.0493,249.6096,1116.01,237.94" style="stroke:#181818;stroke-width:1.0;"/></g><!--link Pkg_G to RO--><g id="link_Pkg_G_RO"><path codeLine="23" d="M868.68,118.23 C920.37,154.64 1012.57,223.56 1079,295.49 C1117.15,336.8 1143.241,377.1404 1161.911,408.6804 " fill="none" id="Pkg_G-to-RO" style="stroke:#181818;stroke-width:1.0;stroke-dasharray:7.0,7.0;"/><polygon fill="none" points="1171.08,424.17,1167.0742,405.624,1156.7478,411.7367,1171.08,424.17" style="stroke:#181818;stroke-width:1.0;"/></g><!--link Pkg_G to RHI_L--><g id="link_Pkg_G_RHI_L"><path codeLine="24" d="M873.15,86.68 C924.73,82.86 1012,82.36 1079,112.49 C1116.32,129.27 1137.5534,150.7116 1156.3834,174.8316 " fill="none" id="Pkg_G-to-RHI_L" style="stroke:#181818;stroke-width:1.0;stroke-dasharray:7.0,7.0;"/><polygon fill="none" points="1167.46,189.02,1161.1129,171.1394,1151.654,178.5238,1167.46,189.02" style="stroke:#181818;stroke-width:1.0;"/></g><!--reverse link Pkg_G to Pkg_AB--><g id="link_Pkg_G_Pkg_AB"><path codeLine="25" d="M885.1712,80.8114 C904.6412,77.1314 916.04,75.09 937,71.49 C996.82,61.22 1064.94,50.59 1114.63,43.02 " fill="none" id="Pkg_G-backto-Pkg_AB" style="stroke:#181818;stroke-width:1.0;"/><polygon fill="#181818" points="873.38,83.04,880.0185,85.8561,885.1712,80.8114,878.5327,77.9953,873.38,83.04" style="stroke:#181818;stroke-width:1.0;"/><polygon fill="#000000" points="978.4335,39.4727,969.0311,38.0428,969.9863,43.8425,978.4335,39.4727" style="stroke:#000000;stroke-width:1.0;"/><text fill="#000000" font-family="sans-serif" font-size="13" lengthAdjust="spacing" textLength="64" x="982.5" y="45.1984">consumes</text></g><!--link Pkg_S to RO--><g id="link_Pkg_S_RO"><path codeLine="30" d="M866.87,492.34 C927.13,484.03 1028.6386,470.0377 1102.7886,459.8177 " fill="none" id="Pkg_S-to-RO" style="stroke:#181818;stroke-width:1.0;stroke-dasharray:7.0,7.0;"/><polygon fill="none" points="1120.62,457.36,1101.9693,453.8739,1103.6078,465.7615,1120.62,457.36" style="stroke:#181818;stroke-width:1.0;"/></g><!--link Pkg_S to RHI_L--><g id="link_Pkg_S_RHI_L"><path codeLine="31" d="M866.04,470.72 C915.18,434.43 1004.97,367.19 1079,306.49 C1106.64,283.83 1123.8535,268.8145 1145.0435,249.7345 " fill="none" id="Pkg_S-to-RHI_L" style="stroke:#181818;stroke-width:1.0;stroke-dasharray:7.0,7.0;"/><polygon fill="none" points="1158.42,237.69,1141.0287,245.2757,1149.0584,254.1933,1158.42,237.69" style="stroke:#181818;stroke-width:1.0;"/></g><!--link Pkg_T to RO--><g id="link_Pkg_T_RO"><path codeLine="36" d="M870.38,263.69 C921.51,279.96 1010.64,311.78 1079,354.49 C1110.71,374.3 1129.5051,390.8999 1149.8051,411.5299 " fill="none" id="Pkg_T-to-RO" style="stroke:#181818;stroke-width:1.0;stroke-dasharray:7.0,7.0;"/><polygon fill="none" points="1162.43,424.36,1154.0818,407.3216,1145.5284,415.7382,1162.43,424.36" style="stroke:#181818;stroke-width:1.0;"/></g><!--link Pkg_T to RHI_L--><g id="link_Pkg_T_RHI_L"><path codeLine="37" d="M870.26,244.84 C890.32,241.72 914.89,238.11 937,235.49 C994.41,228.68 1041.5862,224.4016 1090.6862,220.5116 " fill="none" id="Pkg_T-to-RHI_L" style="stroke:#181818;stroke-width:1.0;stroke-dasharray:7.0,7.0;"/><polygon fill="none" points="1108.63,219.09,1090.2124,214.5304,1091.1601,226.4929,1108.63,219.09" style="stroke:#181818;stroke-width:1.0;"/></g><!--link Pkg_M to RO--><g id="link_Pkg_M_RO"><path codeLine="42" d="M449.86,445.26 C471.71,462.87 502.45,485.07 533,498.49 C695.08,569.7 754.42,570.89 929,541.49 C1003.37,528.96 1068.0809,503.4367 1118.6309,480.3167 " fill="none" id="Pkg_M-to-RO" style="stroke:#181818;stroke-width:1.0;stroke-dasharray:7.0,7.0;"/><polygon fill="none" points="1135,472.83,1116.1353,474.8604,1121.1264,485.7731,1135,472.83" style="stroke:#181818;stroke-width:1.0;"/></g><!--reverse link Pkg_M to Pkg_S--><g id="link_Pkg_M_Pkg_S"><path codeLine="43" d="M472.912,441.9502 C493.982,450.5402 508.86,455.55 533,461.49 C623.78,483.82 733.87,492.58 790.26,495.79 " fill="none" id="Pkg_M-backto-Pkg_S" style="stroke:#181818;stroke-width:1.0;"/><polygon fill="#181818" points="461.8,437.42,465.8459,443.3891,472.912,441.9502,468.8661,435.9811,461.8,437.42" style="stroke:#181818;stroke-width:1.0;"/><polygon fill="#000000" points="542.9296,453.9816,534.5035,449.5711,533.5203,455.3662,542.9296,453.9816" style="stroke:#000000;stroke-width:1.0;"/><text fill="#000000" font-family="sans-serif" font-size="13" lengthAdjust="spacing" textLength="173" x="547" y="458.0584">uses shader programs from</text></g><!--reverse link Pkg_M to Pkg_T--><g id="link_Pkg_M_Pkg_T"><path codeLine="44" d="M473.0481,396.3902 C552.2281,364.0302 709.07,299.91 786.65,268.19 " fill="none" id="Pkg_M-backto-Pkg_T" style="stroke:#181818;stroke-width:1.0;"/><polygon fill="#181818" points="461.94,400.93,469.0073,402.3628,473.0481,396.3902,465.9808,394.9574,461.94,400.93" style="stroke:#181818;stroke-width:1.0;"/><polygon fill="#000000" points="561.6282,286.0433,552.1436,286.7455,554.3678,292.1863,561.6282,286.0433" style="stroke:#000000;stroke-width:1.0;"/><text fill="#000000" font-family="sans-serif" font-size="13" lengthAdjust="spacing" textLength="135" x="566" y="292.8484">applies textures from</text></g><!--link Pkg_FB to RO--><g id="link_Pkg_FB_RO"><path codeLine="49" d="M434.84,278.47 C453.98,308.3 489.12,355.09 533,377.49 C634.67,429.38 959.036,443.0766 1102.696,446.7766 " fill="none" id="Pkg_FB-to-RO" style="stroke:#181818;stroke-width:1.0;stroke-dasharray:7.0,7.0;"/><polygon fill="none" points="1120.69,447.24,1102.8504,440.7785,1102.5415,452.7746,1120.69,447.24" style="stroke:#181818;stroke-width:1.0;"/></g><!--link Pkg_FB to RHI_L--><g id="link_Pkg_FB_RHI_L"><path codeLine="50" d="M474.83,240.45 C493.31,237 514,233.35 533,230.49 C773.28,194.3 836.34,189.93 1079,202.49 C1088.61,202.99 1080.7583,202.1737 1090.7183,203.0437 " fill="none" id="Pkg_FB-to-RHI_L" style="stroke:#181818;stroke-width:1.0;stroke-dasharray:7.0,7.0;"/><polygon fill="none" points="1108.65,204.61,1091.2404,197.0664,1090.1962,209.0209,1108.65,204.61" style="stroke:#181818;stroke-width:1.0;"/></g><!--reverse link Pkg_FB to Pkg_T--><g id="link_Pkg_FB_Pkg_T"><path codeLine="51" d="M486.94,251.49 C570.31,251.49 713.18,251.49 786.71,251.49 " fill="none" id="Pkg_FB-backto-Pkg_T" style="stroke:#181818;stroke-width:1.0;"/><polygon fill="#181818" points="474.94,251.49,480.94,255.49,486.94,251.49,480.94,247.49,474.94,251.49" style="stroke:#181818;stroke-width:1.0;"/><polygon fill="#000000" points="630.5,244.99,621.4549,242.0511,621.4549,247.9289,630.5,244.99" style="stroke:#000000;stroke-width:1.0;"/><text fill="#000000" font-family="sans-serif" font-size="13" lengthAdjust="spacing" textLength="185" x="482.6455" y="264.4532">uses textures as attachments</text></g><!--reverse link Pkg_Sky to Pkg_G--><g id="link_Pkg_Sky_Pkg_G"><path codeLine="56" d="M89.2187,254.1968 C216.5587,226.1268 643.38,132.07 783.84,101.11 " fill="none" id="Pkg_Sky-backto-Pkg_G" style="stroke:#181818;stroke-width:1.0;"/><polygon fill="#181818" points="77.5,256.78,84.2204,259.3946,89.2187,254.1968,82.4983,251.5822,77.5,256.78" style="stroke:#181818;stroke-width:1.0;"/><polygon fill="#000000" points="342.8828,154.2092,333.4172,153.2858,334.6822,159.0259,342.8828,154.2092" style="stroke:#000000;stroke-width:1.0;"/><text fill="#000000" font-family="sans-serif" font-size="13" lengthAdjust="spacing" textLength="155" x="347" y="160.1984">uses geometry for shape</text></g><!--reverse link Pkg_Sky to Pkg_M--><g id="link_Pkg_Sky_Pkg_M"><path codeLine="57" d="M88.4983,283.4038 C157.3183,311.7038 299.23,370.06 374.09,400.84 " fill="none" id="Pkg_Sky-backto-Pkg_M" style="stroke:#181818;stroke-width:1.0;"/><polygon fill="#181818" points="77.4,278.84,81.4279,284.8213,88.4983,283.4038,84.4704,277.4225,77.4,278.84" style="stroke:#181818;stroke-width:1.0;"/><polygon fill="#000000" points="116.6243,287.5068,109.3765,281.3488,107.1412,286.785,116.6243,287.5068" style="stroke:#000000;stroke-width:1.0;"/><text fill="#000000" font-family="sans-serif" font-size="13" lengthAdjust="spacing" textLength="181" x="121" y="290.5184">uses material for appearance</text></g><!--link RP to RO--><g id="link_RP_RO"><path codeLine="68" d="M903.75,669.17 C956.81,666.24 1027.62,655.01 1079,619.49 C1131.86,582.94 1161.4674,516.2352 1175.0774,478.4352 " fill="none" id="RP-to-RO" style="stroke:#181818;stroke-width:1.0;stroke-dasharray:7.0,7.0;"/><polygon fill="#181818" points="1177.11,472.79,1170.2976,479.9028,1175.4162,477.4944,1177.8246,482.6129,1177.11,472.79" style="stroke:#181818;stroke-width:1.0;"/><text fill="#000000" font-family="sans-serif" font-size="13" lengthAdjust="spacing" textLength="140" x="938" y="616.0584">manages global list of</text></g><!--link RPass to RO--><g id="link_RPass_RO"><path codeLine="69" d="M891.96,750.05 C947.02,747.34 1026.44,735.22 1079,691.49 C1148.35,633.79 1172.6718,527.9214 1180.7218,478.6914 " fill="none" id="RPass-to-RO" style="stroke:#181818;stroke-width:1.0;stroke-dasharray:7.0,7.0;"/><polygon fill="#181818" points="1181.69,472.77,1176.2901,481.0065,1180.8831,477.7045,1184.1852,482.2975,1181.69,472.77" style="stroke:#181818;stroke-width:1.0;"/><text fill="#000000" font-family="sans-serif" font-size="13" lengthAdjust="spacing" textLength="97" x="959.5" y="688.0584">receives &amp; uses</text></g><!--SRC=[RLJRRjim37tNLn1-wDe1pGSCHO1cGBm2CnOaVWyKctOqsv8XoKMDBly-obUfxPj97HwUGqgkiR1W5MXHNYtaGcDcXPACPJKt1g8ZoXprMLt-qa44tC3n3xpV61FIeYvuXeJvzNAkXQnGFz5dshUu7P6K_yrOoxEAbuHxjbQBIsSHTbrHe3O3wb2Lv-STl3Dsyx09Dahtdu3939o2pURVbXI5uOUsCQe6hUuNajZZY0EAs6SO4zyV7sU9Fo1JqdGD6jXw_AShptsD9w87e0PZCF5JnezT1_18KdopdSQL9NKi4qaQY4o_jfbmMeZWjJSiNqWIpchnTI9RdI5BPh01hLQbves1Ggk6V8RebD2yRMj11NQIF2DNANiYc9UygDdlV3dxS7VxtSV9KyPl6WqQbvR4oQtbsRL1QSbni8-glwYtTHrL7oo4mfaudhsNqnM1GcatY1OdvpuwcT7DDEa1JTD0hhdCN0dx1gVUM6pWfv9EBDpJJCKhvkEGx1L1I65TSOucqw9rhmrK0S53UrZTZ7aXovLPus9kF9rEd4i0gVAbx7mGBTBJ70kE1tVn7URs1PAU-uHo3ty1tXYLRJR35QOrD5oIB9fOhIvaeXR6alg8ZLKhZluZIBuDt0qpYzX_]--></g></svg>