<?xml version="1.0" encoding="us-ascii" standalone="no"?><svg xmlns="http://www.w3.org/2000/svg" xmlns:xlink="http://www.w3.org/1999/xlink" contentStyleType="text/css" height="937px" preserveAspectRatio="none" style="width:1577px;height:937px;background:#FFFFFF;" version="1.1" viewBox="0 0 1577 937" width="1577px" zoomAndPan="magnify"><defs/><g><!--cluster RHI_resources--><g id="cluster_RHI_resources"><path d="M8.5,6 L111.5,6 A3.75,3.75 0 0 1 114,8.5 L121,28.4883 L1567.5,28.4883 A2.5,2.5 0 0 1 1570,30.9883 L1570,928.29 A2.5,2.5 0 0 1 1567.5,930.79 L8.5,930.79 A2.5,2.5 0 0 1 6,928.29 L6,8.5 A2.5,2.5 0 0 1 8.5,6 " fill="none" style="stroke:#000000;stroke-width:1.5;"/><line style="stroke:#000000;stroke-width:1.5;" x1="6" x2="121" y1="28.4883" y2="28.4883"/><text fill="#000000" font-family="sans-serif" font-size="14" font-weight="bold" lengthAdjust="spacing" textLength="102" x="10" y="21.5352">RHI_resources</text></g><!--cluster Frontend--><g id="cluster_Frontend"><path d="M486.5,49 L551.5,49 A3.75,3.75 0 0 1 554,51.5 L561,71.4883 L653.5,71.4883 A2.5,2.5 0 0 1 656,73.9883 L656,145.5 A2.5,2.5 0 0 1 653.5,148 L486.5,148 A2.5,2.5 0 0 1 484,145.5 L484,51.5 A2.5,2.5 0 0 1 486.5,49 " fill="none" style="stroke:#000000;stroke-width:1.5;"/><line style="stroke:#000000;stroke-width:1.5;" x1="484" x2="561" y1="71.4883" y2="71.4883"/><text fill="#000000" font-family="sans-serif" font-size="14" font-weight="bold" lengthAdjust="spacing" textLength="64" x="488" y="64.5352">Frontend</text></g><!--cluster RHI_functions--><g id="cluster_RHI_functions"><path d="M721.5,200.73 L823.5,200.73 A3.75,3.75 0 0 1 826,203.23 L833,223.2183 L852.5,223.2183 A2.5,2.5 0 0 1 855,225.7183 L855,297.23 A2.5,2.5 0 0 1 852.5,299.73 L721.5,299.73 A2.5,2.5 0 0 1 719,297.23 L719,203.23 A2.5,2.5 0 0 1 721.5,200.73 " fill="none" style="stroke:#000000;stroke-width:1.5;"/><line style="stroke:#000000;stroke-width:1.5;" x1="719" x2="833" y1="223.2183" y2="223.2183"/><text fill="#000000" font-family="sans-serif" font-size="14" font-weight="bold" lengthAdjust="spacing" textLength="101" x="723" y="216.2652">RHI_functions</text></g><!--class Linker--><g id="elem_Linker"><rect codeLine="3" fill="#F1F1F1" height="97.4648" id="Linker" rx="2.5" ry="2.5" style="stroke:#181818;stroke-width:0.5;" width="259" x="440.5" y="211"/><ellipse cx="525.25" cy="227" fill="#ADD1B2" rx="11" ry="11" style="stroke:#181818;stroke-width:1.0;"/><path d="M527.7231,233.1431 Q527.1421,233.4419 526.5029,233.5913 Q525.8638,233.7407 525.1582,233.7407 Q522.6514,233.7407 521.3315,232.0889 Q520.0117,230.437 520.0117,227.3159 Q520.0117,224.1865 521.3315,222.5347 Q522.6514,220.8828 525.1582,220.8828 Q525.8638,220.8828 526.5112,221.0322 Q527.1587,221.1816 527.7231,221.4805 L527.7231,224.2031 Q527.0923,223.6221 526.4988,223.3523 Q525.9053,223.0825 525.2744,223.0825 Q523.9297,223.0825 523.2449,224.1492 Q522.5601,225.2158 522.5601,227.3159 Q522.5601,229.4077 523.2449,230.4744 Q523.9297,231.541 525.2744,231.541 Q525.9053,231.541 526.4988,231.2712 Q527.0923,231.0015 527.7231,230.4204 Z " fill="#000000"/><text fill="#000000" font-family="sans-serif" font-size="14" lengthAdjust="spacing" textLength="69" x="545.75" y="232.291">RHI_linker</text><rect fill="#FFFFFF" height="16.1328" style="stroke:#181818;stroke-width:1.0;stroke-dasharray:2.0,2.0;" width="10" x="692.5" y="208"/><text fill="#000000" font-family="sans-serif" font-size="12" font-style="italic" lengthAdjust="spacing" textLength="8" x="693.5" y="220.6016">T</text><line style="stroke:#181818;stroke-width:0.5;" x1="441.5" x2="698.5" y1="243" y2="243"/><line style="stroke:#181818;stroke-width:0.5;" x1="441.5" x2="698.5" y1="251" y2="251"/><ellipse cx="451.5" cy="264.7441" fill="#84BE84" rx="3" ry="3" style="stroke:#038048;stroke-width:1.0;"/><text fill="#000000" font-family="sans-serif" font-size="14" lengthAdjust="spacing" textLength="183" x="460.5" y="268.5352">GetOrCreateresource() : T*</text><ellipse cx="451.5" cy="281.2324" fill="#84BE84" rx="3" ry="3" style="stroke:#038048;stroke-width:1.0;"/><text fill="#000000" font-family="sans-serif" font-size="14" lengthAdjust="spacing" textLength="233" x="460.5" y="285.0234">LinkResource(nativeResource : T*)</text><ellipse cx="451.5" cy="297.7207" fill="#84BE84" rx="3" ry="3" style="stroke:#038048;stroke-width:1.0;"/><text fill="#000000" font-family="sans-serif" font-size="14" lengthAdjust="spacing" textLength="109" x="460.5" y="301.5117">IsLinked() : bool</text></g><!--class Buffer--><g id="elem_Buffer"><rect codeLine="9" fill="#F1F1F1" height="146.9297" id="Buffer" rx="2.5" ry="2.5" style="stroke:#181818;stroke-width:0.5;" width="325" x="447.5" y="759.62"/><ellipse cx="569.75" cy="775.62" fill="#ADD1B2" rx="11" ry="11" style="stroke:#181818;stroke-width:1.0;"/><path d="M572.2231,781.7631 Q571.6421,782.0619 571.0029,782.2113 Q570.3638,782.3607 569.6582,782.3607 Q567.1514,782.3607 565.8315,780.7089 Q564.5117,779.057 564.5117,775.9359 Q564.5117,772.8065 565.8315,771.1547 Q567.1514,769.5028 569.6582,769.5028 Q570.3638,769.5028 571.0112,769.6522 Q571.6587,769.8016 572.2231,770.1005 L572.2231,772.8231 Q571.5923,772.2421 570.9988,771.9723 Q570.4053,771.7025 569.7744,771.7025 Q568.4297,771.7025 567.7449,772.7692 Q567.0601,773.8358 567.0601,775.9359 Q567.0601,778.0277 567.7449,779.0944 Q568.4297,780.161 569.7744,780.161 Q570.4053,780.161 570.9988,779.8912 Q571.5923,779.6215 572.2231,779.0404 Z " fill="#000000"/><text fill="#000000" font-family="sans-serif" font-size="14" lengthAdjust="spacing" textLength="72" x="590.25" y="780.911">RHI_buffer</text><line style="stroke:#181818;stroke-width:0.5;" x1="448.5" x2="771.5" y1="791.62" y2="791.62"/><rect fill="none" height="6" style="stroke:#C82930;stroke-width:1.0;" width="6" x="455.5" y="802.3641"/><text fill="#000000" font-family="sans-serif" font-size="14" lengthAdjust="spacing" textLength="299" x="467.5" y="809.1552">type : BufferType ' VERTEX, INDEX, UNIFORM</text><rect fill="none" height="6" style="stroke:#C82930;stroke-width:1.0;" width="6" x="455.5" y="818.8524"/><text fill="#000000" font-family="sans-serif" font-size="14" lengthAdjust="spacing" textLength="270" x="467.5" y="825.6434">usage : BufferUsage ' STATIC, DYNAMIC</text><rect fill="none" height="6" style="stroke:#C82930;stroke-width:1.0;" width="6" x="455.5" y="835.3407"/><text fill="#000000" font-family="sans-serif" font-size="14" lengthAdjust="spacing" textLength="78" x="467.5" y="842.1317">size : size_t</text><line style="stroke:#181818;stroke-width:0.5;" x1="448.5" x2="771.5" y1="849.0848" y2="849.0848"/><ellipse cx="458.5" cy="862.829" fill="#84BE84" rx="3" ry="3" style="stroke:#038048;stroke-width:1.0;"/><text fill="#000000" font-family="sans-serif" font-size="14" lengthAdjust="spacing" textLength="202" x="467.5" y="866.62">UploadData(data, size, offset)</text><ellipse cx="458.5" cy="879.3173" fill="#84BE84" rx="3" ry="3" style="stroke:#038048;stroke-width:1.0;"/><text fill="#000000" font-family="sans-serif" font-size="14" lengthAdjust="spacing" textLength="94" x="467.5" y="883.1083">MapMemory()</text><ellipse cx="458.5" cy="895.8055" fill="#84BE84" rx="3" ry="3" style="stroke:#038048;stroke-width:1.0;"/><text fill="#000000" font-family="sans-serif" font-size="14" lengthAdjust="spacing" textLength="114" x="467.5" y="899.5966">UnmapMemory()</text></g><!--class RHIResource--><g id="elem_RHIResource"><rect fill="#F1F1F1" height="48" id="RHIResource" rx="2.5" ry="2.5" style="stroke:#181818;stroke-width:0.5;" width="118" x="608" y="385.47"/><ellipse cx="623" cy="401.47" fill="#B4A7E5" rx="11" ry="11" style="stroke:#181818;stroke-width:1.0;"/><path d="M619.4277,397.7351 L619.4277,395.5769 L626.8071,395.5769 L626.8071,397.7351 L624.3418,397.7351 L624.3418,405.8118 L626.8071,405.8118 L626.8071,407.97 L619.4277,407.97 L619.4277,405.8118 L621.8931,405.8118 L621.8931,397.7351 Z " fill="#000000"/><text fill="#000000" font-family="sans-serif" font-size="14" font-style="italic" lengthAdjust="spacing" textLength="86" x="637" y="406.761">RHIResource</text><line style="stroke:#181818;stroke-width:0.5;" x1="609" x2="725" y1="417.47" y2="417.47"/><line style="stroke:#181818;stroke-width:0.5;" x1="609" x2="725" y1="425.47" y2="425.47"/></g><!--class Texture--><g id="elem_Texture"><rect codeLine="18" fill="#F1F1F1" height="163.418" id="Texture" rx="2.5" ry="2.5" style="stroke:#181818;stroke-width:0.5;" width="405" x="937.5" y="751.37"/><ellipse cx="1095.75" cy="767.37" fill="#ADD1B2" rx="11" ry="11" style="stroke:#181818;stroke-width:1.0;"/><path d="M1098.2231,773.5131 Q1097.6421,773.8119 1097.0029,773.9613 Q1096.3638,774.1107 1095.6582,774.1107 Q1093.1514,774.1107 1091.8315,772.4589 Q1090.5117,770.807 1090.5117,767.6859 Q1090.5117,764.5565 1091.8315,762.9047 Q1093.1514,761.2528 1095.6582,761.2528 Q1096.3638,761.2528 1097.0112,761.4022 Q1097.6587,761.5516 1098.2231,761.8505 L1098.2231,764.5731 Q1097.5923,763.9921 1096.9988,763.7223 Q1096.4053,763.4525 1095.7744,763.4525 Q1094.4297,763.4525 1093.7449,764.5192 Q1093.0601,765.5858 1093.0601,767.6859 Q1093.0601,769.7777 1093.7449,770.8444 Q1094.4297,771.911 1095.7744,771.911 Q1096.4053,771.911 1096.9988,771.6412 Q1097.5923,771.3715 1098.2231,770.7904 Z " fill="#000000"/><text fill="#000000" font-family="sans-serif" font-size="14" lengthAdjust="spacing" textLength="80" x="1116.25" y="772.661">RHI_texture</text><line style="stroke:#181818;stroke-width:0.5;" x1="938.5" x2="1341.5" y1="783.37" y2="783.37"/><rect fill="none" height="6" style="stroke:#C82930;stroke-width:1.0;" width="6" x="945.5" y="794.1141"/><text fill="#000000" font-family="sans-serif" font-size="14" lengthAdjust="spacing" textLength="379" x="957.5" y="800.9052">type : TextureType ' TEX_2D, CUBEMAP, TEX_2D_ARRAY</text><rect fill="none" height="6" style="stroke:#C82930;stroke-width:1.0;" width="6" x="945.5" y="810.6024"/><text fill="#000000" font-family="sans-serif" font-size="14" lengthAdjust="spacing" textLength="161" x="957.5" y="817.3934">format : TextureFormat</text><rect fill="none" height="6" style="stroke:#C82930;stroke-width:1.0;" width="6" x="945.5" y="827.0907"/><text fill="#000000" font-family="sans-serif" font-size="14" lengthAdjust="spacing" textLength="128" x="957.5" y="833.8817">dimensions : Vec3i</text><rect fill="none" height="6" style="stroke:#C82930;stroke-width:1.0;" width="6" x="945.5" y="843.579"/><text fill="#000000" font-family="sans-serif" font-size="14" lengthAdjust="spacing" textLength="97" x="957.5" y="850.37">mipLevels : int</text><rect fill="none" height="6" style="stroke:#C82930;stroke-width:1.0;" width="6" x="945.5" y="860.0673"/><text fill="#000000" font-family="sans-serif" font-size="14" lengthAdjust="spacing" textLength="215" x="957.5" y="866.8583">samplingParams : SamplerState</text><line style="stroke:#181818;stroke-width:0.5;" x1="938.5" x2="1341.5" y1="873.8114" y2="873.8114"/><ellipse cx="948.5" cy="887.5555" fill="#84BE84" rx="3" ry="3" style="stroke:#038048;stroke-width:1.0;"/><text fill="#000000" font-family="sans-serif" font-size="14" lengthAdjust="spacing" textLength="201" x="957.5" y="891.3466">UploadImageData(level, data)</text><ellipse cx="948.5" cy="904.0438" fill="#84BE84" rx="3" ry="3" style="stroke:#038048;stroke-width:1.0;"/><text fill="#000000" font-family="sans-serif" font-size="14" lengthAdjust="spacing" textLength="95" x="957.5" y="907.8348">Bind(slot : int)</text></g><!--class ShaderCode--><g id="elem_ShaderCode"><rect codeLine="28" fill="#F1F1F1" height="113.9531" id="ShaderCode" rx="2.5" ry="2.5" style="stroke:#181818;stroke-width:0.5;" width="384" x="29" y="776.1"/><ellipse cx="158.25" cy="792.1" fill="#ADD1B2" rx="11" ry="11" style="stroke:#181818;stroke-width:1.0;"/><path d="M160.7231,798.2431 Q160.1421,798.5419 159.5029,798.6913 Q158.8638,798.8407 158.1582,798.8407 Q155.6514,798.8407 154.3315,797.1889 Q153.0117,795.537 153.0117,792.4159 Q153.0117,789.2865 154.3315,787.6347 Q155.6514,785.9828 158.1582,785.9828 Q158.8638,785.9828 159.5112,786.1322 Q160.1587,786.2816 160.7231,786.5805 L160.7231,789.3031 Q160.0923,788.7221 159.4988,788.4523 Q158.9053,788.1825 158.2744,788.1825 Q156.9297,788.1825 156.2449,789.2492 Q155.5601,790.3158 155.5601,792.4159 Q155.5601,794.5077 156.2449,795.5744 Q156.9297,796.641 158.2744,796.641 Q158.9053,796.641 159.4988,796.3712 Q160.0923,796.1015 160.7231,795.5204 Z " fill="#000000"/><text fill="#000000" font-family="sans-serif" font-size="14" lengthAdjust="spacing" textLength="117" x="178.75" y="797.391">RHI_shader_code</text><line style="stroke:#181818;stroke-width:0.5;" x1="30" x2="412" y1="808.1" y2="808.1"/><rect fill="none" height="6" style="stroke:#C82930;stroke-width:1.0;" width="6" x="37" y="818.8441"/><text fill="#000000" font-family="sans-serif" font-size="14" lengthAdjust="spacing" textLength="358" x="49" y="825.6352">stage : ShaderStage ' VERTEX, FRAGMENT, COMPUTE</text><rect fill="none" height="6" style="stroke:#C82930;stroke-width:1.0;" width="6" x="37" y="835.3324"/><text fill="#000000" font-family="sans-serif" font-size="14" lengthAdjust="spacing" textLength="147" x="49" y="842.1234">code : byte[] or string</text><line style="stroke:#181818;stroke-width:0.5;" x1="30" x2="412" y1="849.0766" y2="849.0766"/><ellipse cx="40" cy="862.8207" fill="#84BE84" rx="3" ry="3" style="stroke:#038048;stroke-width:1.0;"/><text fill="#000000" font-family="sans-serif" font-size="14" lengthAdjust="spacing" textLength="218" x="49" y="866.6117">LoadFromString(source : string)</text><ellipse cx="40" cy="879.309" fill="#84BE84" rx="3" ry="3" style="stroke:#038048;stroke-width:1.0;"/><text fill="#000000" font-family="sans-serif" font-size="14" lengthAdjust="spacing" textLength="186" x="49" y="883.1">LoadFromFile(path : string)</text></g><!--class ShaderProgram--><g id="elem_ShaderProgram"><rect codeLine="36" fill="#F1F1F1" height="130.4414" id="ShaderProgram" rx="2.5" ry="2.5" style="stroke:#181818;stroke-width:0.5;" width="398" x="22" y="519.2"/><ellipse cx="144.75" cy="535.2" fill="#ADD1B2" rx="11" ry="11" style="stroke:#181818;stroke-width:1.0;"/><path d="M147.2231,541.3431 Q146.6421,541.6419 146.0029,541.7913 Q145.3638,541.9407 144.6582,541.9407 Q142.1514,541.9407 140.8315,540.2889 Q139.5117,538.637 139.5117,535.5159 Q139.5117,532.3865 140.8315,530.7347 Q142.1514,529.0828 144.6582,529.0828 Q145.3638,529.0828 146.0112,529.2322 Q146.6587,529.3816 147.2231,529.6805 L147.2231,532.4031 Q146.5923,531.8221 145.9988,531.5523 Q145.4053,531.2825 144.7744,531.2825 Q143.4297,531.2825 142.7449,532.3492 Q142.0601,533.4158 142.0601,535.5159 Q142.0601,537.6077 142.7449,538.6744 Q143.4297,539.741 144.7744,539.741 Q145.4053,539.741 145.9988,539.4712 Q146.5923,539.2015 147.2231,538.6204 Z " fill="#000000"/><text fill="#000000" font-family="sans-serif" font-size="14" lengthAdjust="spacing" textLength="144" x="165.25" y="540.491">RHI_shader_program</text><line style="stroke:#181818;stroke-width:0.5;" x1="23" x2="419" y1="551.2" y2="551.2"/><rect fill="none" height="6" style="stroke:#C82930;stroke-width:1.0;" width="6" x="30" y="561.9441"/><text fill="#000000" font-family="sans-serif" font-size="14" lengthAdjust="spacing" textLength="372" x="42" y="568.7352">linkedShaders : map&lt;ShaderStage, RHI_shader_code&gt;</text><line style="stroke:#181818;stroke-width:0.5;" x1="23" x2="419" y1="575.6883" y2="575.6883"/><ellipse cx="33" cy="589.4324" fill="#84BE84" rx="3" ry="3" style="stroke:#038048;stroke-width:1.0;"/><text fill="#000000" font-family="sans-serif" font-size="14" lengthAdjust="spacing" textLength="314" x="42" y="593.2234">AttachShader(shaderCode : RHI_shader_code)</text><ellipse cx="33" cy="605.9207" fill="#84BE84" rx="3" ry="3" style="stroke:#038048;stroke-width:1.0;"/><text fill="#000000" font-family="sans-serif" font-size="14" lengthAdjust="spacing" textLength="97" x="42" y="609.7117">LinkProgram()</text><ellipse cx="33" cy="622.409" fill="#84BE84" rx="3" ry="3" style="stroke:#038048;stroke-width:1.0;"/><text fill="#000000" font-family="sans-serif" font-size="14" lengthAdjust="spacing" textLength="221" x="42" y="626.2">SetUniform(name : string, value)</text><ellipse cx="33" cy="638.8973" fill="#84BE84" rx="3" ry="3" style="stroke:#038048;stroke-width:1.0;"/><text fill="#000000" font-family="sans-serif" font-size="14" lengthAdjust="spacing" textLength="40" x="42" y="642.6883">Bind()</text></g><!--class Geometry--><g id="elem_Geometry"><rect codeLine="45" fill="#F1F1F1" height="146.9297" id="Geometry" rx="2.5" ry="2.5" style="stroke:#181818;stroke-width:0.5;" width="276" x="529" y="510.95"/><ellipse cx="615.25" cy="526.95" fill="#ADD1B2" rx="11" ry="11" style="stroke:#181818;stroke-width:1.0;"/><path d="M617.7231,533.0931 Q617.1421,533.3919 616.5029,533.5413 Q615.8638,533.6907 615.1582,533.6907 Q612.6514,533.6907 611.3315,532.0389 Q610.0117,530.387 610.0117,527.2659 Q610.0117,524.1365 611.3315,522.4847 Q612.6514,520.8328 615.1582,520.8328 Q615.8638,520.8328 616.5112,520.9822 Q617.1587,521.1316 617.7231,521.4305 L617.7231,524.1531 Q617.0923,523.5721 616.4988,523.3023 Q615.9053,523.0325 615.2744,523.0325 Q613.9297,523.0325 613.2449,524.0992 Q612.5601,525.1658 612.5601,527.2659 Q612.5601,529.3577 613.2449,530.4244 Q613.9297,531.491 615.2744,531.491 Q615.9053,531.491 616.4988,531.2212 Q617.0923,530.9515 617.7231,530.3704 Z " fill="#000000"/><text fill="#000000" font-family="sans-serif" font-size="14" lengthAdjust="spacing" textLength="95" x="635.75" y="532.241">RHI_geometry</text><line style="stroke:#181818;stroke-width:0.5;" x1="530" x2="804" y1="542.95" y2="542.95"/><rect fill="none" height="6" style="stroke:#C82930;stroke-width:1.0;" width="6" x="537" y="553.6941"/><text fill="#000000" font-family="sans-serif" font-size="14" lengthAdjust="spacing" textLength="217" x="549" y="560.4852">vertexBuffers : list&lt;RHI_buffer&gt;</text><line style="stroke:#181818;stroke-width:0.5;" x1="530" x2="804" y1="567.4383" y2="567.4383"/><rect fill="#F24D5C" height="6" style="stroke:#C82930;stroke-width:1.0;" width="6" x="537" y="578.1824"/><text fill="#000000" font-family="sans-serif" font-size="14" lengthAdjust="spacing" textLength="235" x="549" y="584.9734">indexBuffer : RHI_buffer (optional)</text><ellipse cx="540" cy="597.6707" fill="#84BE84" rx="3" ry="3" style="stroke:#038048;stroke-width:1.0;"/><text fill="#000000" font-family="sans-serif" font-size="14" lengthAdjust="spacing" textLength="250" x="549" y="601.4617">AddVertexBuffer(buffer : RHI_buffer)</text><ellipse cx="540" cy="614.159" fill="#84BE84" rx="3" ry="3" style="stroke:#038048;stroke-width:1.0;"/><text fill="#000000" font-family="sans-serif" font-size="14" lengthAdjust="spacing" textLength="237" x="549" y="617.95">SetIndexBuffer(buffer : RHI_buffer)</text><ellipse cx="540" cy="630.6473" fill="#84BE84" rx="3" ry="3" style="stroke:#038048;stroke-width:1.0;"/><text fill="#000000" font-family="sans-serif" font-size="14" lengthAdjust="spacing" textLength="40" x="549" y="634.4383">Bind()</text><ellipse cx="540" cy="647.1355" fill="#84BE84" rx="3" ry="3" style="stroke:#038048;stroke-width:1.0;"/><text fill="#000000" font-family="sans-serif" font-size="14" lengthAdjust="spacing" textLength="45" x="549" y="650.9266">Draw()</text></g><!--class FrameBuffer--><g id="elem_FrameBuffer"><rect codeLine="55" fill="#F1F1F1" height="163.418" id="FrameBuffer" rx="2.5" ry="2.5" style="stroke:#181818;stroke-width:0.5;" width="377" x="839.5" y="502.71"/><ellipse cx="964.25" cy="518.71" fill="#ADD1B2" rx="11" ry="11" style="stroke:#181818;stroke-width:1.0;"/><path d="M966.7231,524.8531 Q966.1421,525.1519 965.5029,525.3013 Q964.8638,525.4507 964.1582,525.4507 Q961.6514,525.4507 960.3315,523.7989 Q959.0117,522.147 959.0117,519.0259 Q959.0117,515.8965 960.3315,514.2447 Q961.6514,512.5928 964.1582,512.5928 Q964.8638,512.5928 965.5112,512.7422 Q966.1587,512.8916 966.7231,513.1905 L966.7231,515.9131 Q966.0923,515.3321 965.4988,515.0623 Q964.9053,514.7925 964.2744,514.7925 Q962.9297,514.7925 962.2449,515.8592 Q961.5601,516.9258 961.5601,519.0259 Q961.5601,521.1177 962.2449,522.1844 Q962.9297,523.251 964.2744,523.251 Q964.9053,523.251 965.4988,522.9812 Q966.0923,522.7115 966.7231,522.1304 Z " fill="#000000"/><text fill="#000000" font-family="sans-serif" font-size="14" lengthAdjust="spacing" textLength="119" x="984.75" y="524.001">RHI_frame_buffer</text><line style="stroke:#181818;stroke-width:0.5;" x1="840.5" x2="1215.5" y1="534.71" y2="534.71"/><rect fill="none" height="6" style="stroke:#C82930;stroke-width:1.0;" width="6" x="847.5" y="545.4541"/><text fill="#000000" font-family="sans-serif" font-size="14" lengthAdjust="spacing" textLength="291" x="859.5" y="552.2452">colorAttachments : map&lt;int, RHI_texture&gt;</text><line style="stroke:#181818;stroke-width:0.5;" x1="840.5" x2="1215.5" y1="559.1983" y2="559.1983"/><rect fill="#F24D5C" height="6" style="stroke:#C82930;stroke-width:1.0;" width="6" x="847.5" y="569.9424"/><text fill="#000000" font-family="sans-serif" font-size="14" lengthAdjust="spacing" textLength="282" x="859.5" y="576.7334">depthAttachment : RHI_texture (optional)</text><rect fill="#F24D5C" height="6" style="stroke:#C82930;stroke-width:1.0;" width="6" x="847.5" y="586.4307"/><text fill="#000000" font-family="sans-serif" font-size="14" lengthAdjust="spacing" textLength="286" x="859.5" y="593.2217">stencilAttachment : RHI_texture (optional)</text><ellipse cx="850.5" cy="605.919" fill="#84BE84" rx="3" ry="3" style="stroke:#038048;stroke-width:1.0;"/><text fill="#000000" font-family="sans-serif" font-size="14" lengthAdjust="spacing" textLength="351" x="859.5" y="609.71">AttachColorTexture(slot : int, texture : RHI_texture)</text><ellipse cx="850.5" cy="622.4073" fill="#84BE84" rx="3" ry="3" style="stroke:#038048;stroke-width:1.0;"/><text fill="#000000" font-family="sans-serif" font-size="14" lengthAdjust="spacing" textLength="336" x="859.5" y="626.1983">AttachDepthStencilTexture(texture : RHI_texture)</text><ellipse cx="850.5" cy="638.8955" fill="#84BE84" rx="3" ry="3" style="stroke:#038048;stroke-width:1.0;"/><text fill="#000000" font-family="sans-serif" font-size="14" lengthAdjust="spacing" textLength="40" x="859.5" y="642.6866">Bind()</text><ellipse cx="850.5" cy="655.3838" fill="#84BE84" rx="3" ry="3" style="stroke:#038048;stroke-width:1.0;"/><text fill="#000000" font-family="sans-serif" font-size="14" lengthAdjust="spacing" textLength="60" x="859.5" y="659.1748">Unbind()</text></g><!--class PipelineState--><g id="elem_PipelineState"><rect codeLine="65" fill="#F1F1F1" height="179.9063" id="PipelineState" rx="2.5" ry="2.5" style="stroke:#181818;stroke-width:0.5;" width="265" x="1288.5" y="494.47"/><ellipse cx="1354.25" cy="510.47" fill="#ADD1B2" rx="11" ry="11" style="stroke:#181818;stroke-width:1.0;"/><path d="M1356.7231,516.6131 Q1356.1421,516.9119 1355.5029,517.0613 Q1354.8638,517.2107 1354.1582,517.2107 Q1351.6514,517.2107 1350.3315,515.5589 Q1349.0117,513.907 1349.0117,510.7859 Q1349.0117,507.6565 1350.3315,506.0047 Q1351.6514,504.3528 1354.1582,504.3528 Q1354.8638,504.3528 1355.5112,504.5022 Q1356.1587,504.6516 1356.7231,504.9505 L1356.7231,507.6731 Q1356.0923,507.0921 1355.4988,506.8223 Q1354.9053,506.5525 1354.2744,506.5525 Q1352.9297,506.5525 1352.2449,507.6192 Q1351.5601,508.6858 1351.5601,510.7859 Q1351.5601,512.8777 1352.2449,513.9444 Q1352.9297,515.011 1354.2744,515.011 Q1354.9053,515.011 1355.4988,514.7412 Q1356.0923,514.4715 1356.7231,513.8904 Z " fill="#000000"/><text fill="#000000" font-family="sans-serif" font-size="14" lengthAdjust="spacing" textLength="125" x="1374.75" y="515.761">RHI_pipeline_state</text><line style="stroke:#181818;stroke-width:0.5;" x1="1289.5" x2="1552.5" y1="526.47" y2="526.47"/><rect fill="none" height="6" style="stroke:#C82930;stroke-width:1.0;" width="6" x="1296.5" y="537.2141"/><text fill="#000000" font-family="sans-serif" font-size="14" lengthAdjust="spacing" textLength="156" x="1308.5" y="544.0052">depthTest : DepthState</text><rect fill="none" height="6" style="stroke:#C82930;stroke-width:1.0;" width="6" x="1296.5" y="553.7024"/><text fill="#000000" font-family="sans-serif" font-size="14" lengthAdjust="spacing" textLength="157" x="1308.5" y="560.4934">blendState : BlendState</text><rect fill="none" height="6" style="stroke:#C82930;stroke-width:1.0;" width="6" x="1296.5" y="570.1907"/><text fill="#000000" font-family="sans-serif" font-size="14" lengthAdjust="spacing" textLength="193" x="1308.5" y="576.9817">cullFaceState : CullFaceState</text><rect fill="none" height="6" style="stroke:#C82930;stroke-width:1.0;" width="6" x="1296.5" y="586.679"/><text fill="#000000" font-family="sans-serif" font-size="14" lengthAdjust="spacing" textLength="169" x="1308.5" y="593.47">stencilState : StencilState</text><rect fill="none" height="6" style="stroke:#C82930;stroke-width:1.0;" width="6" x="1296.5" y="603.1673"/><text fill="#000000" font-family="sans-serif" font-size="14" lengthAdjust="spacing" textLength="239" x="1308.5" y="609.9583">polygonOffset : PolygonOffsetState</text><line style="stroke:#181818;stroke-width:0.5;" x1="1289.5" x2="1552.5" y1="616.9114" y2="616.9114"/><ellipse cx="1299.5" cy="630.6555" fill="#84BE84" rx="3" ry="3" style="stroke:#038048;stroke-width:1.0;"/><text fill="#000000" font-family="sans-serif" font-size="14" lengthAdjust="spacing" textLength="217" x="1308.5" y="634.4466">SetDepthTest(func : DepthFunc)</text><ellipse cx="1299.5" cy="647.1438" fill="#84BE84" rx="3" ry="3" style="stroke:#038048;stroke-width:1.0;"/><text fill="#000000" font-family="sans-serif" font-size="14" lengthAdjust="spacing" textLength="204" x="1308.5" y="650.9348">SetBlending(func : BlendFunc)</text><ellipse cx="1299.5" cy="663.6321" fill="#84BE84" rx="3" ry="3" style="stroke:#038048;stroke-width:1.0;"/><text fill="#000000" font-family="sans-serif" font-size="14" lengthAdjust="spacing" textLength="49" x="1308.5" y="667.4231">Apply()</text></g><!--class FO--><g id="elem_FO"><rect codeLine="88" fill="#F1F1F1" height="48" id="FO" rx="2.5" ry="2.5" style="stroke:#181818;stroke-width:0.5;" width="139" x="500.5" y="84"/><ellipse cx="515.5" cy="100" fill="#ADD1B2" rx="11" ry="11" style="stroke:#181818;stroke-width:1.0;"/><path d="M517.9731,106.1431 Q517.3921,106.4419 516.7529,106.5913 Q516.1138,106.7407 515.4082,106.7407 Q512.9014,106.7407 511.5815,105.0889 Q510.2617,103.437 510.2617,100.3159 Q510.2617,97.1865 511.5815,95.5347 Q512.9014,93.8828 515.4082,93.8828 Q516.1138,93.8828 516.7612,94.0322 Q517.4087,94.1816 517.9731,94.4805 L517.9731,97.2031 Q517.3423,96.6221 516.7488,96.3523 Q516.1553,96.0825 515.5244,96.0825 Q514.1797,96.0825 513.4949,97.1492 Q512.8101,98.2158 512.8101,100.3159 Q512.8101,102.4077 513.4949,103.4744 Q514.1797,104.541 515.5244,104.541 Q516.1553,104.541 516.7488,104.2712 Q517.3423,104.0015 517.9731,103.4204 Z " fill="#000000"/><text fill="#000000" font-family="sans-serif" font-size="14" lengthAdjust="spacing" textLength="107" x="529.5" y="105.291">FrontendObject</text><line style="stroke:#181818;stroke-width:0.5;" x1="501.5" x2="638.5" y1="116" y2="116"/><line style="stroke:#181818;stroke-width:0.5;" x1="501.5" x2="638.5" y1="124" y2="124"/></g><!--class Device--><g id="elem_Device"><rect codeLine="94" fill="#F1F1F1" height="48" id="Device" rx="2.5" ry="2.5" style="stroke:#181818;stroke-width:0.5;" width="105" x="734.5" y="235.73"/><ellipse cx="749.5" cy="251.73" fill="#B4A7E5" rx="11" ry="11" style="stroke:#181818;stroke-width:1.0;"/><path d="M745.9277,247.9951 L745.9277,245.8369 L753.3071,245.8369 L753.3071,247.9951 L750.8418,247.9951 L750.8418,256.0718 L753.3071,256.0718 L753.3071,258.23 L745.9277,258.23 L745.9277,256.0718 L748.3931,256.0718 L748.3931,247.9951 Z " fill="#000000"/><text fill="#000000" font-family="sans-serif" font-size="14" font-style="italic" lengthAdjust="spacing" textLength="73" x="763.5" y="257.021">RHI_device</text><line style="stroke:#181818;stroke-width:0.5;" x1="735.5" x2="838.5" y1="267.73" y2="267.73"/><line style="stroke:#181818;stroke-width:0.5;" x1="735.5" x2="838.5" y1="275.73" y2="275.73"/></g><!--reverse link RHIResource to Buffer--><g id="link_RHIResource_Buffer"><path d="M590.75,432.1735 C556.3,444.6135 532.67,459.75 512,494.47 C471.09,563.17 490.06,597.48 512,674.37 C520.49,704.13 536.4,733.75 552.96,759.14 " fill="none" id="RHIResource-backto-Buffer" style="stroke:#181818;stroke-width:1.0;stroke-dasharray:7.0,7.0;"/><polygon fill="none" points="607.68,426.06,588.7122,426.5301,592.7878,437.8168,607.68,426.06" style="stroke:#181818;stroke-width:1.0;"/></g><!--reverse link RHIResource to Texture--><g id="link_RHIResource_Texture"><path d="M744.2,409.9828 C875.94,410.2228 1168.83,418.93 1234,494.47 C1296.1,566.45 1247.38,676.33 1199.98,751.04 " fill="none" id="RHIResource-backto-Texture" style="stroke:#181818;stroke-width:1.0;stroke-dasharray:7.0,7.0;"/><polygon fill="none" points="726.2,409.95,744.189,415.9828,744.2109,403.9828,726.2,409.95" style="stroke:#181818;stroke-width:1.0;"/></g><!--reverse link RHIResource to ShaderCode--><g id="link_RHIResource_ShaderCode"><path d="M590.1961,425.2402 C547.4761,436.0102 509.78,452.98 480,494.47 C432.12,561.17 483.4,605.96 438,674.37 C410.64,715.6 368.61,749.78 328.8,775.65 " fill="none" id="RHIResource-backto-ShaderCode" style="stroke:#181818;stroke-width:1.0;stroke-dasharray:7.0,7.0;"/><polygon fill="none" points="607.65,420.84,588.7294,419.4223,591.6629,431.0582,607.65,420.84" style="stroke:#181818;stroke-width:1.0;"/></g><!--reverse link RHIResource to ShaderProgram--><g id="link_RHIResource_ShaderProgram"><path d="M590.2236,423.9078 C545.2236,432.5578 499.9,443.42 447,463.47 C407.33,478.5 365.81,499.01 329.33,518.81 " fill="none" id="RHIResource-backto-ShaderProgram" style="stroke:#181818;stroke-width:1.0;stroke-dasharray:7.0,7.0;"/><polygon fill="none" points="607.9,420.51,589.091,418.0157,591.3562,429.7999,607.9,420.51" style="stroke:#181818;stroke-width:1.0;"/></g><!--reverse link RHIResource to Geometry--><g id="link_RHIResource_Geometry"><path d="M667,451.79 C667,471.62 667,483.17 667,510.8 " fill="none" id="RHIResource-backto-Geometry" style="stroke:#181818;stroke-width:1.0;stroke-dasharray:7.0,7.0;"/><polygon fill="none" points="667,433.79,661,451.79,673,451.79,667,433.79" style="stroke:#181818;stroke-width:1.0;"/></g><!--reverse link RHIResource to FrameBuffer--><g id="link_RHIResource_FrameBuffer"><path d="M731.922,441.5695 C769.062,459.3695 806.35,477.23 858.62,502.27 " fill="none" id="RHIResource-backto-FrameBuffer" style="stroke:#181818;stroke-width:1.0;stroke-dasharray:7.0,7.0;"/><polygon fill="none" points="715.69,433.79,729.3289,446.9802,734.5152,436.1588,715.69,433.79" style="stroke:#181818;stroke-width:1.0;"/></g><!--reverse link RHIResource to PipelineState--><g id="link_RHIResource_PipelineState"><path d="M744.4444,412.111 C874.9244,415.381 1164.45,426.44 1261,463.47 C1280.94,471.11 1300.53,482 1318.79,494.15 " fill="none" id="RHIResource-backto-PipelineState" style="stroke:#181818;stroke-width:1.0;stroke-dasharray:7.0,7.0;"/><polygon fill="none" points="726.45,411.66,744.294,418.1091,744.5947,406.1128,726.45,411.66" style="stroke:#181818;stroke-width:1.0;"/></g><!--link Linker to RHIResource--><g id="link_Linker_RHIResource"><path codeLine="76" d="M574.25,308.75 C577.38,324.63 582.77,341.73 592,355.47 C599.83,367.11 606.2147,373.5834 617.6847,381.5634 " fill="none" id="Linker-to-RHIResource" style="stroke:#181818;stroke-width:1.0;stroke-dasharray:7.0,7.0;"/><polygon fill="#181818" points="622.61,384.99,617.5065,376.5665,618.5056,382.1345,612.9377,383.1335,622.61,384.99" style="stroke:#181818;stroke-width:1.0;"/><text fill="#000000" font-family="sans-serif" font-size="13" lengthAdjust="spacing" textLength="126" x="593" y="352.0384">manages/links &lt;T&gt;</text></g><!--reverse link Geometry to Buffer--><g id="link_Geometry_Buffer"><path codeLine="78" d="M696.902,670.0632 C701.072,690.7432 699.69,701.31 693,721.37 C688.63,734.48 682.04,747.28 674.44,759.25 " fill="none" id="Geometry-backto-Buffer" style="stroke:#181818;stroke-width:1.0;"/><polygon fill="none" points="694.53,658.3,691.7949,664.9723,696.902,670.0632,699.6371,663.391,694.53,658.3" style="stroke:#181818;stroke-width:1.0;"/><text fill="#000000" font-family="sans-serif" font-size="13" lengthAdjust="spacing" textLength="129" x="697.48" y="717.9384">uses (vertex buffers)</text><text fill="#000000" font-family="sans-serif" font-size="13" lengthAdjust="spacing" textLength="6" x="674.488" y="748.8272">*</text></g><!--reverse link Geometry to Buffer--><g id="link_Geometry_Buffer"><path codeLine="79" d="M583.916,667.8195 C573.226,682.0295 571.04,688.04 565,704.37 C558.43,722.12 560.45,741.33 566.29,759.34 " fill="none" id="Geometry-backto-Buffer-1" style="stroke:#181818;stroke-width:1.0;"/><polygon fill="none" points="591.13,658.23,584.3265,660.6201,583.916,667.8195,590.7195,665.4294,591.13,658.23" style="stroke:#181818;stroke-width:1.0;"/><text fill="#000000" font-family="sans-serif" font-size="13" lengthAdjust="spacing" textLength="118" x="566" y="717.9384">uses (index buffer)</text><text fill="#000000" font-family="sans-serif" font-size="13" lengthAdjust="spacing" textLength="24" x="536.806" y="748.9261">0..1</text></g><!--reverse link ShaderProgram to ShaderCode--><g id="link_ShaderProgram_ShaderCode"><path codeLine="81" d="M221,661.9 C221,701.02 221,738.44 221,775.94 " fill="none" id="ShaderProgram-backto-ShaderCode" style="stroke:#181818;stroke-width:1.0;"/><polygon fill="none" points="221,649.9,217,655.9,221,661.9,225,655.9,221,649.9" style="stroke:#181818;stroke-width:1.0;"/><text fill="#000000" font-family="sans-serif" font-size="13" lengthAdjust="spacing" textLength="82" x="222" y="717.9384">composed of</text><text fill="#000000" font-family="sans-serif" font-size="13" lengthAdjust="spacing" textLength="6" x="214.6156" y="765.2467">*</text></g><!--reverse link FrameBuffer to Texture--><g id="link_FrameBuffer_Texture"><path codeLine="83" d="M1069.7896,677.4572 C1082.0896,704.5572 1090.84,723.82 1103.15,750.92 " fill="none" id="FrameBuffer-backto-Texture" style="stroke:#181818;stroke-width:1.0;"/><polygon fill="none" points="1064.83,666.53,1063.6674,673.6468,1069.7896,677.4572,1070.9522,670.3404,1064.83,666.53" style="stroke:#181818;stroke-width:1.0;"/><text fill="#000000" font-family="sans-serif" font-size="13" lengthAdjust="spacing" textLength="119" x="1088.36" y="717.9384">uses (attachments)</text><text fill="#000000" font-family="sans-serif" font-size="13" lengthAdjust="spacing" textLength="6" x="1093.6009" y="740.5169">*</text></g><!--link FO to Linker--><g id="link_FO_Linker"><path codeLine="90" d="M570,132.4 C570,153.29 570,178.54 570,204.74 " fill="none" id="FO-to-Linker" style="stroke:#181818;stroke-width:1.0;stroke-dasharray:7.0,7.0;"/><polygon fill="#181818" points="570,210.74,574,201.74,570,205.74,566,201.74,570,210.74" style="stroke:#181818;stroke-width:1.0;"/><text fill="#000000" font-family="sans-serif" font-size="13" lengthAdjust="spacing" textLength="99" x="571" y="177.5684">uses to manage</text></g><!--link Device to RHIResource--><g id="link_Device_RHIResource"><path codeLine="96" d="M773.65,284 C761.76,303.86 743.31,332.74 724,355.47 C715.16,365.87 708.8793,372.2846 699.1193,381.1146 " fill="none" id="Device-to-RHIResource" style="stroke:#181818;stroke-width:1.0;stroke-dasharray:7.0,7.0;"/><polygon fill="#181818" points="694.67,385.14,704.0276,382.0682,698.3778,381.7855,698.6604,376.1357,694.67,385.14" style="stroke:#181818;stroke-width:1.0;"/><text fill="#000000" font-family="sans-serif" font-size="13" lengthAdjust="spacing" textLength="45" x="736.63" y="352.0384">creates</text></g><!--SRC=[bLPRR-8u57wVNs7bfM4sT6zlLLM9SkaY3GMHKErejK8cEK1sd3Yo7MROLV_x7bz2J6Wr30yXn_u- -_WxbxYYwHUw0n8i_vYk1KXUYnHaGFxxGF2NCYgbdMDv-GN4VV8G42h99sCvbFxzH9v0pSLG05NGh1Fso1r9FdeWpLisioLL-G4Qqq1x7dOgpIwPMMN3EJDphn-wdctgxHQ4SUlHl9Ayg1WKK2f9473QeFMsJzInqZjQGgAD6_8oNYRZFoCoVHxflzNpT39VpZnIBRLK3Mjbh1iI9uDaEep8wFFpO3OTUdYP_wlX-c-jl9EjAiPfDgAAXXa-8eE82Dzk9IXVWXcjPb1mSGpzqLLPTCOlHL7mJTK2Z2g9VVy1MHp3wOAYh7yRHMIuUXpF1el83Qm7o-NWiqVUSb5GrT8dnlO0MOwxovoN4a4laFwUUvD5Nds20p0zbvS-JL9qF2zt2ofeeQTZFG0YLfXh5x9E2moBqPRfvIAY9VRbUypBB9ICAxlHUmhAFSr0h5EUMHLZOm_Hl4P8gMogM5QiRAeq6JPP3fvcu-S4DPtF5gjax37rXZhXZmh- -fjmWKi9FBnVH7ZAYU15R2R2K_bOOEyDv2Hd45PKxJkeL_Dyx-YLu3jKt3lzmevS8u3f5vcbwPXXojvxOaIae_63v_P0APhkBJgKhUvtNLAlqrgSVsVL4eDQbRdEJMmuHQjJH0wKrN2H6QTywAgo0rw04aUZnvCphf7Y00BBqJODBGNBfRflEzU31qK76gGxhSMGa5SA2uSotzz1bhruQuURIs97YMcx_lVGdXXsO2Jer_VLsQBkuFVYYHwulY6dd75X0s-1DcMmG6sgk8RcYvL1fVOjnPt40TzIJ9Sbb6dEVeJKfEDGE-WwczS-8j9mprQwv8-qjx7TlrdckzIB8ApApLcITg9GvHLWvS5Qwjveuh1mGwPRNXC98si2KX_GEUttsJxPC2Wpknn-2q-67yoQiGbDeG4DVVio70qizamFLN5stF5oRZwF25luTlSZW4a-QWuGRkioRKunmVTEDHZVTGjrE6DtSOEgOkrtLZzlIB_V9qjWLEUAtEULr2DcpbsCRcyVplIz8q51I-nxycVT62NH5oaRlLCduRXey34Wf_8FQWcIXBPz45jQiXUymVhbzlRNIw9f9exNSxkTz_5cozZliK7AYufBoF12ubX-BJUSv9IxRZlQ5g_UxLsf52T81O5LHiAKbob6fyQA8yZCLGwjc5LpESLlM8cvaGMdH7KvtqpCD_z0gcpVcNkXcinDA5nK6bVH0nkDeF4osOC4Shh_ag-yPXdP04dDXHPVZwP4CpZaAPmxPxeV9eqvOU2L4dO745jCUuknNEFZg5t6-ca7taeRwu14Jr__1m00]--></g></svg>