<?xml version="1.0" encoding="us-ascii" standalone="no"?><svg xmlns="http://www.w3.org/2000/svg" xmlns:xlink="http://www.w3.org/1999/xlink" contentStyleType="text/css" height="779px" preserveAspectRatio="none" style="width:1115px;height:779px;background:#FFFFFF;" version="1.1" viewBox="0 0 1115 779" width="1115px" zoomAndPan="magnify"><defs/><g><!--cluster RHI_functions--><g id="cluster_RHI_functions"><path d="M8.5,6 L110.5,6 A3.75,3.75 0 0 1 113,8.5 L120,28.4883 L1105.5,28.4883 A2.5,2.5 0 0 1 1108,30.9883 L1108,770.29 A2.5,2.5 0 0 1 1105.5,772.79 L8.5,772.79 A2.5,2.5 0 0 1 6,770.29 L6,8.5 A2.5,2.5 0 0 1 8.5,6 " fill="none" style="stroke:#000000;stroke-width:1.5;"/><line style="stroke:#000000;stroke-width:1.5;" x1="6" x2="120" y1="28.4883" y2="28.4883"/><text fill="#000000" font-family="sans-serif" font-size="14" font-weight="bold" lengthAdjust="spacing" textLength="101" x="10" y="21.5352">RHI_functions</text></g><!--class Device--><g id="elem_Device"><rect codeLine="5" fill="#F1F1F1" height="163.418" id="Device" rx="2.5" ry="2.5" style="stroke:#181818;stroke-width:0.5;" width="165" x="377.5" y="178.49"/><ellipse cx="419.5" cy="194.49" fill="#B4A7E5" rx="11" ry="11" style="stroke:#181818;stroke-width:1.0;"/><path d="M415.9277,190.7551 L415.9277,188.5969 L423.3071,188.5969 L423.3071,190.7551 L420.8418,190.7551 L420.8418,198.8318 L423.3071,198.8318 L423.3071,200.99 L415.9277,200.99 L415.9277,198.8318 L418.3931,198.8318 L418.3931,190.7551 Z " fill="#000000"/><text fill="#000000" font-family="sans-serif" font-size="14" font-style="italic" lengthAdjust="spacing" textLength="73" x="439.5" y="199.781">RHI_device</text><line style="stroke:#181818;stroke-width:0.5;" x1="378.5" x2="541.5" y1="210.49" y2="210.49"/><line style="stroke:#181818;stroke-width:0.5;" x1="378.5" x2="541.5" y1="218.49" y2="218.49"/><ellipse cx="388.5" cy="232.2341" fill="#84BE84" rx="3" ry="3" style="stroke:#038048;stroke-width:1.0;"/><text fill="#000000" font-family="sans-serif" font-size="14" lengthAdjust="spacing" textLength="96" x="397.5" y="236.0252">CreateBuffer()</text><ellipse cx="388.5" cy="248.7224" fill="#84BE84" rx="3" ry="3" style="stroke:#038048;stroke-width:1.0;"/><text fill="#000000" font-family="sans-serif" font-size="14" lengthAdjust="spacing" textLength="109" x="397.5" y="252.5134">CreateTexture()</text><ellipse cx="388.5" cy="265.2107" fill="#84BE84" rx="3" ry="3" style="stroke:#038048;stroke-width:1.0;"/><text fill="#000000" font-family="sans-serif" font-size="14" lengthAdjust="spacing" textLength="103" x="397.5" y="269.0017">CreateShader()</text><ellipse cx="388.5" cy="281.699" fill="#84BE84" rx="3" ry="3" style="stroke:#038048;stroke-width:1.0;"/><text fill="#000000" font-family="sans-serif" font-size="14" lengthAdjust="spacing" textLength="139" x="397.5" y="285.49">CreateFrameBuffer()</text><ellipse cx="388.5" cy="298.1873" fill="#84BE84" rx="3" ry="3" style="stroke:#038048;stroke-width:1.0;"/><text fill="#000000" font-family="sans-serif" font-size="14" lengthAdjust="spacing" textLength="118" x="397.5" y="301.9783">CreateRenderer()</text><ellipse cx="388.5" cy="314.6755" fill="#84BE84" rx="3" ry="3" style="stroke:#038048;stroke-width:1.0;"/><text fill="#000000" font-family="sans-serif" font-size="14" lengthAdjust="spacing" textLength="88" x="397.5" y="318.4666">GetAPIType()</text><ellipse cx="388.5" cy="331.1638" fill="#84BE84" rx="3" ry="3" style="stroke:#038048;stroke-width:1.0;"/><text fill="#000000" font-family="sans-serif" font-size="14" lengthAdjust="spacing" textLength="87" x="397.5" y="334.9548">CheckError()</text></g><!--class Window--><g id="elem_Window"><rect codeLine="15" fill="#F1F1F1" height="97.4648" id="Window" rx="2.5" ry="2.5" style="stroke:#181818;stroke-width:0.5;" width="135" x="596.5" y="626.35"/><ellipse cx="620.5" cy="642.35" fill="#B4A7E5" rx="11" ry="11" style="stroke:#181818;stroke-width:1.0;"/><path d="M616.9277,638.6151 L616.9277,636.4569 L624.3071,636.4569 L624.3071,638.6151 L621.8418,638.6151 L621.8418,646.6918 L624.3071,646.6918 L624.3071,648.85 L616.9277,648.85 L616.9277,646.6918 L619.3931,646.6918 L619.3931,638.6151 Z " fill="#000000"/><text fill="#000000" font-family="sans-serif" font-size="14" font-style="italic" lengthAdjust="spacing" textLength="83" x="636.5" y="647.641">RHI_window</text><line style="stroke:#181818;stroke-width:0.5;" x1="597.5" x2="730.5" y1="658.35" y2="658.35"/><line style="stroke:#181818;stroke-width:0.5;" x1="597.5" x2="730.5" y1="666.35" y2="666.35"/><ellipse cx="607.5" cy="680.0941" fill="#84BE84" rx="3" ry="3" style="stroke:#038048;stroke-width:1.0;"/><text fill="#000000" font-family="sans-serif" font-size="14" lengthAdjust="spacing" textLength="109" x="616.5" y="683.8852">CreateWindow()</text><ellipse cx="607.5" cy="696.5824" fill="#84BE84" rx="3" ry="3" style="stroke:#038048;stroke-width:1.0;"/><text fill="#000000" font-family="sans-serif" font-size="14" lengthAdjust="spacing" textLength="102" x="616.5" y="700.3734">HandleEvents()</text><ellipse cx="607.5" cy="713.0707" fill="#84BE84" rx="3" ry="3" style="stroke:#038048;stroke-width:1.0;"/><text fill="#000000" font-family="sans-serif" font-size="14" lengthAdjust="spacing" textLength="94" x="616.5" y="716.8617">SwapBuffers()</text></g><!--class Imgui--><g id="elem_Imgui"><rect codeLine="21" fill="#F1F1F1" height="97.4648" id="Imgui" rx="2.5" ry="2.5" style="stroke:#181818;stroke-width:0.5;" width="151" x="239.5" y="418.91"/><ellipse cx="277" cy="434.91" fill="#B4A7E5" rx="11" ry="11" style="stroke:#181818;stroke-width:1.0;"/><path d="M273.4277,431.1751 L273.4277,429.0169 L280.8071,429.0169 L280.8071,431.1751 L278.3418,431.1751 L278.3418,439.2518 L280.8071,439.2518 L280.8071,441.41 L273.4277,441.41 L273.4277,439.2518 L275.8931,439.2518 L275.8931,431.1751 Z " fill="#000000"/><text fill="#000000" font-family="sans-serif" font-size="14" font-style="italic" lengthAdjust="spacing" textLength="69" x="296" y="440.201">RHI_imgui</text><line style="stroke:#181818;stroke-width:0.5;" x1="240.5" x2="389.5" y1="450.91" y2="450.91"/><line style="stroke:#181818;stroke-width:0.5;" x1="240.5" x2="389.5" y1="458.91" y2="458.91"/><ellipse cx="250.5" cy="472.6541" fill="#84BE84" rx="3" ry="3" style="stroke:#038048;stroke-width:1.0;"/><text fill="#000000" font-family="sans-serif" font-size="14" lengthAdjust="spacing" textLength="68" x="259.5" y="476.4452">Initialize()</text><ellipse cx="250.5" cy="489.1424" fill="#84BE84" rx="3" ry="3" style="stroke:#038048;stroke-width:1.0;"/><text fill="#000000" font-family="sans-serif" font-size="14" lengthAdjust="spacing" textLength="82" x="259.5" y="492.9334">NewFrame()</text><ellipse cx="250.5" cy="505.6307" fill="#84BE84" rx="3" ry="3" style="stroke:#038048;stroke-width:1.0;"/><text fill="#000000" font-family="sans-serif" font-size="14" lengthAdjust="spacing" textLength="125" x="259.5" y="509.4217">RenderDrawData()</text></g><!--class ComputeTask--><g id="elem_ComputeTask"><rect codeLine="27" fill="#F1F1F1" height="97.4648" id="ComputeTask" rx="2.5" ry="2.5" style="stroke:#181818;stroke-width:0.5;" width="168" x="887" y="418.91"/><ellipse cx="906.95" cy="434.91" fill="#B4A7E5" rx="11" ry="11" style="stroke:#181818;stroke-width:1.0;"/><path d="M903.3777,431.1751 L903.3777,429.0169 L910.7571,429.0169 L910.7571,431.1751 L908.2918,431.1751 L908.2918,439.2518 L910.7571,439.2518 L910.7571,441.41 L903.3777,441.41 L903.3777,439.2518 L905.8431,439.2518 L905.8431,431.1751 Z " fill="#000000"/><text fill="#000000" font-family="sans-serif" font-size="14" font-style="italic" lengthAdjust="spacing" textLength="125" x="922.05" y="440.201">RHI_compute_task</text><line style="stroke:#181818;stroke-width:0.5;" x1="888" x2="1054" y1="450.91" y2="450.91"/><line style="stroke:#181818;stroke-width:0.5;" x1="888" x2="1054" y1="458.91" y2="458.91"/><ellipse cx="898" cy="472.6541" fill="#84BE84" rx="3" ry="3" style="stroke:#038048;stroke-width:1.0;"/><text fill="#000000" font-family="sans-serif" font-size="14" lengthAdjust="spacing" textLength="142" x="907" y="476.4452">SetComputeShader()</text><ellipse cx="898" cy="489.1424" fill="#84BE84" rx="3" ry="3" style="stroke:#038048;stroke-width:1.0;"/><text fill="#000000" font-family="sans-serif" font-size="14" lengthAdjust="spacing" textLength="69" x="907" y="492.9334">Dispatch()</text><ellipse cx="898" cy="505.6307" fill="#84BE84" rx="3" ry="3" style="stroke:#038048;stroke-width:1.0;"/><text fill="#000000" font-family="sans-serif" font-size="14" lengthAdjust="spacing" textLength="39" x="907" y="509.4217">Wait()</text></g><!--class Renderer--><g id="elem_Renderer"><rect codeLine="33" fill="#F1F1F1" height="163.418" id="Renderer" rx="2.5" ry="2.5" style="stroke:#181818;stroke-width:0.5;" width="164" x="51" y="593.37"/><ellipse cx="84.9" cy="609.37" fill="#B4A7E5" rx="11" ry="11" style="stroke:#181818;stroke-width:1.0;"/><path d="M81.3277,605.6351 L81.3277,603.4769 L88.7071,603.4769 L88.7071,605.6351 L86.2418,605.6351 L86.2418,613.7118 L88.7071,613.7118 L88.7071,615.87 L81.3277,615.87 L81.3277,613.7118 L83.7931,613.7118 L83.7931,605.6351 Z " fill="#000000"/><text fill="#000000" font-family="sans-serif" font-size="14" font-style="italic" lengthAdjust="spacing" textLength="90" x="103.1" y="614.661">RHI_renderer</text><line style="stroke:#181818;stroke-width:0.5;" x1="52" x2="214" y1="625.37" y2="625.37"/><line style="stroke:#181818;stroke-width:0.5;" x1="52" x2="214" y1="633.37" y2="633.37"/><ellipse cx="62" cy="647.1141" fill="#84BE84" rx="3" ry="3" style="stroke:#038048;stroke-width:1.0;"/><text fill="#000000" font-family="sans-serif" font-size="14" lengthAdjust="spacing" textLength="138" x="71" y="650.9052">SetShaderProgram()</text><ellipse cx="62" cy="663.6024" fill="#84BE84" rx="3" ry="3" style="stroke:#038048;stroke-width:1.0;"/><text fill="#000000" font-family="sans-serif" font-size="14" lengthAdjust="spacing" textLength="117" x="71" y="667.3934">SetVertexBuffer()</text><ellipse cx="62" cy="680.0907" fill="#84BE84" rx="3" ry="3" style="stroke:#038048;stroke-width:1.0;"/><text fill="#000000" font-family="sans-serif" font-size="14" lengthAdjust="spacing" textLength="111" x="71" y="683.8817">SetIndexBuffer()</text><ellipse cx="62" cy="696.579" fill="#84BE84" rx="3" ry="3" style="stroke:#038048;stroke-width:1.0;"/><text fill="#000000" font-family="sans-serif" font-size="14" lengthAdjust="spacing" textLength="115" x="71" y="700.37">SetFrameBuffer()</text><ellipse cx="62" cy="713.0673" fill="#84BE84" rx="3" ry="3" style="stroke:#038048;stroke-width:1.0;"/><text fill="#000000" font-family="sans-serif" font-size="14" lengthAdjust="spacing" textLength="46" x="71" y="716.8583">Clear()</text><ellipse cx="62" cy="729.5555" fill="#84BE84" rx="3" ry="3" style="stroke:#038048;stroke-width:1.0;"/><text fill="#000000" font-family="sans-serif" font-size="14" lengthAdjust="spacing" textLength="45" x="71" y="733.3466">Draw()</text><ellipse cx="62" cy="746.0438" fill="#84BE84" rx="3" ry="3" style="stroke:#038048;stroke-width:1.0;"/><text fill="#000000" font-family="sans-serif" font-size="14" lengthAdjust="spacing" textLength="111" x="71" y="749.8348">DrawInstanced()</text></g><!--entity Application--><g id="elem_Application"><ellipse cx="460" cy="49.5" fill="#F1F1F1" rx="8" ry="8" style="stroke:#181818;stroke-width:0.5;"/><path d="M460,57.5 L460,84.5 M447,65.5 L473,65.5 M460,84.5 L447,99.5 M460,84.5 L473,99.5 " fill="none" style="stroke:#181818;stroke-width:0.5;"/><text fill="#000000" font-family="sans-serif" font-size="14" lengthAdjust="spacing" textLength="78" x="421" y="114.5352">Application</text></g><!--link Device to Window--><g id="link_Device_Window"><path codeLine="45" d="M542.9,337.96 C564.87,362.01 586.69,389.91 602,418.91 C637.22,485.63 652.0798,566.7758 658.6998,620.0258 " fill="none" id="Device-to-Window" style="stroke:#181818;stroke-width:1.0;stroke-dasharray:7.0,7.0;"/><polygon fill="#181818" points="659.44,625.98,662.2991,616.5553,658.8232,621.0182,654.3602,617.5422,659.44,625.98" style="stroke:#181818;stroke-width:1.0;"/><text fill="#000000" font-family="sans-serif" font-size="13" lengthAdjust="spacing" textLength="186" x="639.41" y="472.7084">Provides rendering context to</text></g><!--link Device to Renderer--><g id="link_Device_Renderer"><path codeLine="46" d="M377.02,272.77 C293.66,289.29 169.41,328.41 111,418.91 C77.96,470.09 84.9563,533.7967 100.1063,587.3367 " fill="none" id="Device-to-Renderer" style="stroke:#181818;stroke-width:1.0;stroke-dasharray:7.0,7.0;"/><polygon fill="#181818" points="101.74,593.11,103.1384,583.3609,100.3786,588.2989,95.4406,585.5391,101.74,593.11" style="stroke:#181818;stroke-width:1.0;"/><text fill="#000000" font-family="sans-serif" font-size="13" lengthAdjust="spacing" textLength="109" x="112" y="472.7084">Creates/Manages</text></g><!--link Renderer to Device--><g id="link_Renderer_Device"><path codeLine="52" d="M215.39,670.95 C291.37,663.17 400.38,638.59 455,563.37 C458.24,558.91 459.3527,436.1699 459.7527,348.1899 " fill="none" id="Renderer-to-Device" style="stroke:#181818;stroke-width:1.0;"/><polygon fill="#181818" points="459.78,342.19,455.7391,351.1717,459.7573,347.1899,463.739,351.2081,459.78,342.19" style="stroke:#181818;stroke-width:1.0;"/><text fill="#000000" font-family="sans-serif" font-size="13" lengthAdjust="spacing" textLength="132" x="460.26" y="472.7084">Uses (GPU resources)</text></g><!--link Device to ComputeTask--><g id="link_Device_ComputeTask"><path codeLine="47" d="M542.65,292.94 C623.74,324.27 750.78,373.9 860,418.91 C868.63,422.46 872.0927,423.8956 881.0427,427.6756 " fill="none" id="Device-to-ComputeTask" style="stroke:#181818;stroke-width:1.0;stroke-dasharray:7.0,7.0;"/><polygon fill="#181818" points="886.57,430.01,879.8354,422.8235,881.964,428.0647,876.7228,430.1932,886.57,430.01" style="stroke:#181818;stroke-width:1.0;"/><text fill="#000000" font-family="sans-serif" font-size="13" lengthAdjust="spacing" textLength="76" x="784.79" y="385.4784">Executes on</text></g><!--link Device to Imgui--><g id="link_Device_Imgui"><path codeLine="48" d="M377.14,282.8 C331.97,299.27 279.92,326.99 253,371.91 C243.81,387.25 245.5035,398.7698 256.0035,413.5398 " fill="none" id="Device-to-Imgui" style="stroke:#181818;stroke-width:1.0;stroke-dasharray:7.0,7.0;"/><polygon fill="#181818" points="259.48,418.43,257.5255,408.777,256.583,414.3548,251.0052,413.4123,259.48,418.43" style="stroke:#181818;stroke-width:1.0;"/><text fill="#000000" font-family="sans-serif" font-size="13" lengthAdjust="spacing" textLength="196" x="254" y="385.4784">Provides rendering backend for</text></g><!--link Imgui to Window--><g id="link_Imgui_Window"><path codeLine="55" d="M390.73,513.22 C451.87,549.21 531.9691,596.3667 590.9291,631.0667 " fill="none" id="Imgui-to-Window" style="stroke:#181818;stroke-width:1.0;stroke-dasharray:7.0,7.0;"/><polygon fill="#181818" points="596.1,634.11,590.3725,626.0978,591.7909,631.5739,586.3148,632.9924,596.1,634.11" style="stroke:#181818;stroke-width:1.0;"/><text fill="#000000" font-family="sans-serif" font-size="13" lengthAdjust="spacing" textLength="67" x="469.6" y="559.9384">Renders to</text></g><!--link Imgui to Renderer--><g id="link_Imgui_Renderer"><path codeLine="56" d="M241.03,516.86 C229.64,525.94 218.51,535.9 209,546.37 C196.34,560.31 187.8807,571.5962 177.7407,587.8862 " fill="none" id="Imgui-to-Renderer" style="stroke:#181818;stroke-width:1.0;stroke-dasharray:7.0,7.0;"/><polygon fill="#181818" points="174.57,592.98,182.7219,587.4531,177.2123,588.7352,175.9302,583.2255,174.57,592.98" style="stroke:#181818;stroke-width:1.0;"/><text fill="#000000" font-family="sans-serif" font-size="13" lengthAdjust="spacing" textLength="106" x="210" y="559.9384">Uses for drawing</text></g><!--link Application to Device--><g id="link_Application_Device"><path codeLine="63" d="M460,117.76 C460,135.39 460,151.13 460,172.24 " fill="none" id="Application-to-Device" style="stroke:#181818;stroke-width:1.0;"/><polygon fill="#181818" points="460,178.24,464,169.24,460,173.24,456,169.24,460,178.24" style="stroke:#181818;stroke-width:1.0;"/></g><!--link Application to Window--><g id="link_Application_Window"><path codeLine="64" d="M499.12,86.89 C614.67,108.93 953.74,191.61 1072,418.91 C1091.99,457.34 1096.49,480.64 1072,516.37 C995.14,628.49 832.2608,660.3287 737.6408,669.6987 " fill="none" id="Application-to-Window" style="stroke:#181818;stroke-width:1.0;"/><polygon fill="#181818" points="731.67,670.29,741.0204,673.3836,736.6457,669.7973,740.232,665.4226,731.67,670.29" style="stroke:#181818;stroke-width:1.0;"/></g><!--link Application to Renderer--><g id="link_Application_Renderer"><path codeLine="65" d="M420.78,90.85 C374.36,104.9 296.61,133.33 243,178.49 C144.27,261.66 117.89,295.5 80,418.91 C61.15,480.31 68.06,501.15 84,563.37 C86.5,573.15 87.6738,577.5356 91.3638,587.3256 " fill="none" id="Application-to-Renderer" style="stroke:#181818;stroke-width:1.0;"/><polygon fill="#181818" points="93.48,592.94,94.0487,583.1076,91.7165,588.2613,86.5628,585.9291,93.48,592.94" style="stroke:#181818;stroke-width:1.0;"/></g><!--link Application to Imgui--><g id="link_Application_Imgui"><path codeLine="66" d="M420.71,113.9 C366.28,163.63 271.12,262.72 240,371.91 C235.17,388.85 237.8933,400.1463 248.7033,414.0263 " fill="none" id="Application-to-Imgui" style="stroke:#181818;stroke-width:1.0;"/><polygon fill="#181818" points="252.39,418.76,250.0157,409.2016,249.3177,414.8152,243.7041,414.1172,252.39,418.76" style="stroke:#181818;stroke-width:1.0;"/></g><!--link Application to ComputeTask--><g id="link_Application_ComputeTask"><path codeLine="67" d="M499.43,105.71 C574.05,154.45 740.04,265.55 870,371.91 C887.67,386.37 901.7822,399.0257 918.0222,414.3957 " fill="none" id="Application-to-ComputeTask" style="stroke:#181818;stroke-width:1.0;"/><polygon fill="#181818" points="922.38,418.52,918.5929,409.4284,918.7485,415.0831,913.0938,415.2387,922.38,418.52" style="stroke:#181818;stroke-width:1.0;"/></g><!--SRC=[VLHDRzim3BtdLn2vjCMMzhv3WQxfsc3OKFHZFGQCp2H2RScGw3ZPqFy-Ih9JEt7hGoABN-yzaiOyj_Myq5jjLgDHYUeLLmJZXxlPV5aPnTeQFuP_8v176oQtHDNOCzfeHMD03zDuRDp2ymMk7I7Jzsgv97TwTcHueYrNZWOiZslC1aD-E2m-JlX0Hi8EJBV4L_UpfrrvK6XDwlN6ETjwlus62DRQPBQE15_YSO1WClIotw79ShhPa67VCppMM2Ry_jEwkbXLEfQTXLElwinerfZhltr6lwcEylGkaoHJX_KK6JyjgMnHLanpHlyQAr-dYoTvxzL_96vC0tsQQbyYgtNlyWKrVrhRDPsBTTis7XPDrUwTNGdDlgh4VyWnRGT6GsmpoVU1wSE1oWaFY8c6HnSpuncDegpFxWGcaudmo34kprgNFjmqjlV50Ur1oOmupAEjsQ7pyyjsshx1M0XlT4OUaaYofA2ioBTbO3i-ZDkB9v5fFFt5BpIoqVx8jzjWSR_Paf9N3zOSkQOf74Qpa2-6lC3Ikl6emx5jAbG- -djREIKd5M5biDXrf6ZYJcT5cMlAleAn39b872hGXjnkdo4b466Jvdl6ayiMiU1y3ZLFR- -VtmkVzT353MjO1Cfi0I6jEyZs9j2y9cXfN7I09ZdwVNfeKhLDUVVfzYJY4gLQRZrCtHM4Gg_M30iP4eakGmh3884bElbV2jeMsOc7XRDXES0hMxPQ_YGgWtgQeR2E8DEE5ESxO15OO48pX06D4GuBz79l3OJPEcznNPNI41NrXXntKgEsLHxr2VB8Rq1jJVZKnH1KB0axOV6scsQoxzIWAKawQ6gL73H6mGSjdK4VlVq7]--></g></svg>