<svg xmlns="http://www.w3.org/2000/svg" xmlns:xlink="http://www.w3.org/1999/xlink" contentStyleType="text/css" data-diagram-type="CLASS" height="358px" preserveAspectRatio="none" style="width:838px;height:358px;background:#FFFFFF;" version="1.1" viewBox="0 0 838 358" width="838px" zoomAndPan="magnify"><title>Logging system class diagram</title><defs/><g><text fill="#000000" font-family="sans-serif" font-size="14" font-weight="bold" lengthAdjust="spacing" textLength="209.3588" x="307.7623" y="24.9659">Logging system class diagram</text><!--class C_0009796880665875106671--><g class="entity" data-entity="C_0009796880665875106671" data-source-line="3" data-uid="ent0002" id="entity_C_0009796880665875106671"><rect fill="#F1F1F1" height="132.2717" rx="2.5" ry="2.5" style="stroke:#181818;stroke-width:0.5;" width="265.0771" x="166.87" y="219.6079"/><ellipse cx="259.0306" cy="235.6079" fill="#ADD1B2" rx="11" ry="11" style="stroke:#181818;stroke-width:1;"/><path d="M259.14,231.1392 Q258.2181,231.1392 257.4838,231.4517 Q256.765,231.7642 256.265,232.3579 Q255.765,232.936 255.4838,233.811 Q255.2181,234.686 255.2181,235.7798 Q255.2181,237.2173 255.6556,238.2642 Q256.1088,239.311 256.9525,239.8579 Q257.8119,240.4048 259.1244,240.4048 Q259.9056,240.4048 260.5931,240.2798 Q261.2963,240.1392 262.2963,239.8267 L262.2963,241.7017 Q261.4369,242.0298 260.6713,242.1548 Q259.9213,242.2798 258.9056,242.2798 Q256.9838,242.2798 255.6713,241.4829 Q254.3744,240.6704 253.7181,239.2017 Q253.0619,237.7173 253.0619,235.7485 Q253.0619,234.3267 253.4525,233.1548 Q253.8588,231.9673 254.64,231.0923 Q255.4213,230.2173 256.5619,229.7485 Q257.7025,229.2642 259.1713,229.2642 Q260.1244,229.2642 261.015,229.4673 Q261.9213,229.6548 262.8588,230.1235 L262.0306,231.9048 Q261.2494,231.5298 260.5931,231.3423 Q259.9369,231.1392 259.14,231.1392 Z " fill="#000000"/><text fill="#000000" font-family="sans-serif" font-size="14" lengthAdjust="spacing" textLength="62.2438" x="279.5306" y="241.0399">Singleton</text><rect fill="#FFFFFF" height="18.3441" style="stroke:#181818;stroke-width:1;stroke-dasharray:2.0,2.0;" width="8.012" x="426.935" y="216.6079"/><text fill="#000000" font-family="sans-serif" font-size="12" font-style="italic" lengthAdjust="spacing" textLength="6.012" x="427.935" y="230.436">T</text><line style="stroke:#181818;stroke-width:0.5;" x1="167.87" x2="430.9471" y1="251.6079" y2="251.6079"/><ellipse cx="177.87" cy="266.6419" fill="#84BE84" rx="3" ry="3" style="stroke:#038048;stroke-width:1;"/><text fill="#000000" font-family="sans-serif" font-size="14" lengthAdjust="spacing" textLength="109.4796" x="186.87" y="270.5739">Singleton() : void</text><ellipse cx="177.87" cy="285.7098" fill="#84BE84" rx="3" ry="3" style="stroke:#038048;stroke-width:1;"/><text fill="#000000" font-family="sans-serif" font-size="14" lengthAdjust="spacing" textLength="117.4875" x="186.87" y="289.6418">~Singleton() : void</text><line style="stroke:#181818;stroke-width:1;stroke-dasharray:1.0,2.0;" x1="167.87" x2="430.9471" y1="297.7438" y2="297.7438"/><ellipse cx="177.87" cy="312.7777" fill="#84BE84" rx="3" ry="3" style="stroke:#038048;stroke-width:1;"/><text fill="#000000" font-family="sans-serif" font-size="14" lengthAdjust="spacing" text-decoration="underline" textLength="239.0771" x="186.87" y="316.7097">get_instance() : std::shared_ptr&lt;T&gt; &amp;</text><line style="stroke:#181818;stroke-width:0.5;" x1="167.87" x2="430.9471" y1="324.8117" y2="324.8117"/><rect fill="none" height="6" style="stroke:#C82930;stroke-width:1;" width="6" x="174.87" y="336.8456"/><text fill="#000000" font-family="sans-serif" font-size="14" lengthAdjust="spacing" text-decoration="underline" textLength="208.3192" x="186.87" y="343.7776">m_instance : std::shared_ptr&lt;T&gt;</text></g><!--class C_0018211495183074186195--><g class="entity" data-entity="C_0018211495183074186195" data-source-line="12" data-uid="ent0003" id="entity_C_0018211495183074186195"><rect fill="#F1F1F1" height="132.2717" rx="2.5" ry="2.5" style="stroke:#181818;stroke-width:0.5;" width="584.8218" x="7" y="52.6079"/><ellipse cx="241.8071" cy="68.6079" fill="#ADD1B2" rx="11" ry="11" style="stroke:#181818;stroke-width:1;"/><path d="M241.9165,64.1392 Q240.9946,64.1392 240.2602,64.4517 Q239.5415,64.7642 239.0415,65.3579 Q238.5415,65.936 238.2602,66.811 Q237.9946,67.686 237.9946,68.7798 Q237.9946,70.2173 238.4321,71.2642 Q238.8852,72.311 239.729,72.8579 Q240.5884,73.4048 241.9009,73.4048 Q242.6821,73.4048 243.3696,73.2798 Q244.0727,73.1392 245.0727,72.8267 L245.0727,74.7017 Q244.2134,75.0298 243.4477,75.1548 Q242.6977,75.2798 241.6821,75.2798 Q239.7602,75.2798 238.4477,74.4829 Q237.1509,73.6704 236.4946,72.2017 Q235.8384,70.7173 235.8384,68.7485 Q235.8384,67.3267 236.229,66.1548 Q236.6352,64.9673 237.4165,64.0923 Q238.1977,63.2173 239.3384,62.7485 Q240.479,62.2642 241.9477,62.2642 Q242.9009,62.2642 243.7915,62.4673 Q244.6977,62.6548 245.6352,63.1235 L244.8071,64.9048 Q244.0259,64.5298 243.3696,64.3423 Q242.7134,64.1392 241.9165,64.1392 Z " fill="#000000"/><text fill="#000000" font-family="sans-serif" font-size="14" lengthAdjust="spacing" textLength="106.7076" x="262.3071" y="74.0399">Logging_system</text><line style="stroke:#181818;stroke-width:0.5;" x1="8" x2="590.8218" y1="84.6079" y2="84.6079"/><ellipse cx="18" cy="99.6419" fill="#84BE84" rx="3" ry="3" style="stroke:#038048;stroke-width:1;"/><text fill="#000000" font-family="sans-serif" font-size="14" lengthAdjust="spacing" textLength="153.9434" x="27" y="103.5739">Logging_system() : void</text><ellipse cx="18" cy="118.7098" fill="#84BE84" rx="3" ry="3" style="stroke:#038048;stroke-width:1;"/><text fill="#000000" font-family="sans-serif" font-size="14" lengthAdjust="spacing" textLength="161.9514" x="27" y="122.6418">~Logging_system() : void</text><line style="stroke:#181818;stroke-width:1;stroke-dasharray:1.0,2.0;" x1="8" x2="590.8218" y1="130.7438" y2="130.7438"/><ellipse cx="18" cy="145.7777" fill="#84BE84" rx="3" ry="3" style="stroke:#038048;stroke-width:1;"/><text fill="#000000" font-family="sans-serif" font-size="14" lengthAdjust="spacing" textLength="558.8218" x="27" y="149.7097">log&lt;TARGS...&gt;(Level level, basic_format_string&lt;TARGS...&gt; fmt, TARGS &amp;&amp;... args) : void</text><line style="stroke:#181818;stroke-width:0.5;" x1="8" x2="590.8218" y1="157.8117" y2="157.8117"/><rect fill="none" height="6" style="stroke:#C82930;stroke-width:1;" width="6" x="15" y="169.8456"/><text fill="#000000" font-family="sans-serif" font-size="14" lengthAdjust="spacing" textLength="283.4709" x="27" y="176.7776">m_logger : std::shared_ptr&lt;spdlog::logger&gt;</text></g><!--class C_0015023802631964297962--><g class="entity" data-entity="C_0015023802631964297962" data-source-line="21" data-uid="ent0004" id="entity_C_0015023802631964297962"><rect fill="#F1F1F1" height="143.3396" rx="2.5" ry="2.5" style="stroke:#181818;stroke-width:0.5;" width="180.0634" x="651.82" y="47.0679"/><ellipse cx="666.82" cy="63.0679" fill="#EB937F" rx="11" ry="11" style="stroke:#181818;stroke-width:1;"/><path d="M670.2888,69.5679 L662.9763,69.5679 L662.9763,56.896 L670.2888,56.896 L670.2888,58.771 L665.0231,58.771 L665.0231,62.0367 L669.9763,62.0367 L669.9763,63.896 L665.0231,63.896 L665.0231,67.6929 L670.2888,67.6929 L670.2888,69.5679 Z " fill="#000000"/><text fill="#000000" font-family="sans-serif" font-size="14" lengthAdjust="spacing" textLength="148.0634" x="680.82" y="68.4999">Logging_system::Level</text><line style="stroke:#181818;stroke-width:0.5;" x1="652.82" x2="830.8834" y1="79.0679" y2="79.0679"/><text fill="#000000" font-family="sans-serif" font-size="14" lengthAdjust="spacing" textLength="42.3778" x="657.82" y="98.0339">debug</text><text fill="#000000" font-family="sans-serif" font-size="14" lengthAdjust="spacing" textLength="25.5499" x="657.82" y="117.1018">info</text><text fill="#000000" font-family="sans-serif" font-size="14" lengthAdjust="spacing" textLength="33.2919" x="657.82" y="136.1697">warn</text><text fill="#000000" font-family="sans-serif" font-size="14" lengthAdjust="spacing" textLength="33.7119" x="657.82" y="155.2376">error</text><text fill="#000000" font-family="sans-serif" font-size="14" lengthAdjust="spacing" textLength="29.1899" x="657.82" y="174.3055">fatal</text><line style="stroke:#181818;stroke-width:0.5;" x1="652.82" x2="830.8834" y1="182.4075" y2="182.4075"/></g><!--link C_0018211495183074186195 to C_0015023802631964297962--><g class="link" data-entity-1="C_0018211495183074186195" data-entity-2="C_0015023802631964297962" data-source-line="29" data-uid="lnk5" id="link_C_0018211495183074186195_C_0015023802631964297962"><path codeLine="29" d="M592.05,131.2379 C613.13,130.8479 627.2349,130.5213 645.4649,129.7813" fill="none" id="C_0018211495183074186195-to-C_0015023802631964297962" style="stroke:#181818;stroke-width:1;stroke-dasharray:7.0,7.0;"/><polygon fill="#181818" points="651.46,129.5379,642.3052,125.9062,646.4641,129.7407,642.6296,133.8997,651.46,129.5379" style="stroke:#181818;stroke-width:1;"/></g><!--link C_0015023802631964297962 to C_0018211495183074186195--><g class="link" data-entity-1="C_0015023802631964297962" data-entity-2="C_0018211495183074186195" data-source-line="30" data-uid="lnk6" id="link_C_0015023802631964297962_C_0018211495183074186195"><path codeLine="30" d="M651.46,107.9379 C633.23,107.1979 629.1273,106.9339 608.0473,106.5439" fill="none" id="C_0015023802631964297962-to-C_0018211495183074186195" style="stroke:#181818;stroke-width:1;"/><ellipse cx="600.0486" cy="106.3959" fill="#FFFFFF" rx="8" ry="8" style="stroke:#181818;stroke-width:1;"/><line style="stroke:#181818;stroke-width:1;" x1="608.0473" x2="592.05" y1="106.5439" y2="106.2479"/><line style="stroke:#181818;stroke-width:1;" x1="599.9006" x2="600.1966" y1="114.3945" y2="98.3973"/></g><!--SRC=[TLDDQ-Cm4BthLmmzf2ckXUNucr9O5jfBzh8jUpMABIi2MohI9AMKzhTNJh9ETualDZDltXkz9niLzWBMHagb9RWtXsA0fkVEGQkuj7mWlUWGq81LSek-QqM3ocXodBfwyiHUeD5tp_TNm1tyhACeAlCoAueeoz8YJvb_v-n4c8FXdGIJrl86AjWRrPBWyqAJKlBkaADgFY2G0ckbVQaRSHXns5QLst8hsle5hJyNB4XTdodXC14kZfEFl-PEmTJ7O2Pxh8WPIygK5QieJrYHiJBzPkyIFDhxL-sxnpd46mrw8- -UV_n-VAAKtY_NOYzwwCVdBMouKqtT6Jjmh1rQBt4UXMx0MpYKi5Zu3d0htIJj0_4vU74fx8KKt4lhiQew3eoH2BqR_a-agWxdEGUJHl6gYE9inSeiYSThZe_4ETJdqehDJXAbEqDUkTL4M6iiwJZotg-T3NIqEBjpTbqO1lDNIAuVXHQMesZXLU5s_1Eq37U3ptelhFEVFKGqeonaQIWtNRBfsePShzT_VatuWJ9LhAICvh1y4Asn_5I6Azer2Rlv0W00]--></g></svg>