<svg xmlns="http://www.w3.org/2000/svg" xmlns:xlink="http://www.w3.org/1999/xlink" contentStyleType="text/css" data-diagram-type="CLASS" height="721px" preserveAspectRatio="none" style="width:1146px;height:721px;background:#FFFFFF;" version="1.1" viewBox="0 0 1146 721" width="1146px" zoomAndPan="magnify"><title>Math class diagram</title><defs/><g><text fill="#000000" font-family="sans-serif" font-size="14" font-weight="bold" lengthAdjust="spacing" textLength="135.5475" x="498.7142" y="24.9659">Math class diagram</text><!--class C_0015450069910199784949--><g class="entity" data-entity="C_0015450069910199784949" data-source-line="3" data-uid="ent0002" id="entity_C_0015450069910199784949"><rect fill="#F1F1F1" height="151.3396" rx="2.5" ry="2.5" style="stroke:#181818;stroke-width:0.5;" width="440.1184" x="50.85" y="562.6679"/><ellipse cx="254.8083" cy="578.6679" fill="#ADD1B2" rx="11" ry="11" style="stroke:#181818;stroke-width:1;"/><path d="M254.9176,574.1992 Q253.9958,574.1992 253.2614,574.5117 Q252.5426,574.8242 252.0426,575.4179 Q251.5426,575.996 251.2614,576.871 Q250.9958,577.746 250.9958,578.8398 Q250.9958,580.2773 251.4333,581.3242 Q251.8864,582.371 252.7301,582.9179 Q253.5895,583.4648 254.902,583.4648 Q255.6833,583.4648 256.3708,583.3398 Q257.0739,583.1992 258.0739,582.8867 L258.0739,584.7617 Q257.2145,585.0898 256.4489,585.2148 Q255.6989,585.3398 254.6833,585.3398 Q252.7614,585.3398 251.4489,584.5429 Q250.152,583.7304 249.4958,582.2617 Q248.8395,580.7773 248.8395,578.8085 Q248.8395,577.3867 249.2301,576.2148 Q249.6364,575.0273 250.4176,574.1523 Q251.1989,573.2773 252.3395,572.8085 Q253.4801,572.3242 254.9489,572.3242 Q255.902,572.3242 256.7926,572.5273 Q257.6989,572.7148 258.6364,573.1835 L257.8083,574.9648 Q257.027,574.5898 256.3708,574.4023 Q255.7145,574.1992 254.9176,574.1992 Z " fill="#000000"/><text fill="#000000" font-family="sans-serif" font-size="14" lengthAdjust="spacing" textLength="23.7019" x="275.3083" y="584.0999">Ray</text><line style="stroke:#181818;stroke-width:0.5;" x1="51.85" x2="489.9684" y1="594.6679" y2="594.6679"/><ellipse cx="61.85" cy="609.7019" fill="#84BE84" rx="3" ry="3" style="stroke:#038048;stroke-width:1;"/><text fill="#000000" font-family="sans-serif" font-size="14" lengthAdjust="spacing" textLength="70.9377" x="70.85" y="613.6339">Ray() : void</text><ellipse cx="61.85" cy="628.7698" fill="#84BE84" rx="3" ry="3" style="stroke:#038048;stroke-width:1;"/><text fill="#000000" font-family="sans-serif" font-size="14" lengthAdjust="spacing" textLength="414.1184" x="70.85" y="632.7018">Ray(const glm::vec3 &amp; origin, const glm::vec3 &amp; direction) : void</text><line style="stroke:#181818;stroke-width:1;stroke-dasharray:1.0,2.0;" x1="51.85" x2="489.9684" y1="640.8038" y2="640.8038"/><ellipse cx="61.85" cy="655.8377" fill="#84BE84" rx="3" ry="3" style="stroke:#038048;stroke-width:1;"/><text fill="#000000" font-family="sans-serif" font-size="14" lengthAdjust="spacing" textLength="172.6333" x="70.85" y="659.7697">at(float t) const : glm::vec3</text><line style="stroke:#181818;stroke-width:0.5;" x1="51.85" x2="489.9684" y1="667.8717" y2="667.8717"/><ellipse cx="61.85" cy="682.9056" fill="none" rx="3" ry="3" style="stroke:#038048;stroke-width:1;"/><text fill="#000000" font-family="sans-serif" font-size="14" lengthAdjust="spacing" textLength="131.9915" x="70.85" y="686.8376">direction : glm::vec3</text><ellipse cx="61.85" cy="701.9735" fill="none" rx="3" ry="3" style="stroke:#038048;stroke-width:1;"/><text fill="#000000" font-family="sans-serif" font-size="14" lengthAdjust="spacing" textLength="112.3215" x="70.85" y="705.9055">origin : glm::vec3</text></g><!--class C_0002167986219114420181--><g class="entity" data-entity="C_0002167986219114420181" data-source-line="13" data-uid="ent0003" id="entity_C_0002167986219114420181"><rect fill="#F1F1F1" height="330.9508" rx="2.5" ry="2.5" style="stroke:#181818;stroke-width:0.5;" width="459.3824" x="637.71" y="290.8579"/><ellipse cx="819.9474" cy="306.8579" fill="#ADD1B2" rx="11" ry="11" style="stroke:#181818;stroke-width:1;"/><path d="M820.0567,302.3892 Q819.1349,302.3892 818.4005,302.7017 Q817.6817,303.0142 817.1817,303.6079 Q816.6817,304.186 816.4005,305.061 Q816.1349,305.936 816.1349,307.0298 Q816.1349,308.4673 816.5724,309.5142 Q817.0255,310.561 817.8692,311.1079 Q818.7286,311.6548 820.0411,311.6548 Q820.8224,311.6548 821.5099,311.5298 Q822.213,311.3892 823.213,311.0767 L823.213,312.9517 Q822.3536,313.2798 821.588,313.4048 Q820.838,313.5298 819.8224,313.5298 Q817.9005,313.5298 816.588,312.7329 Q815.2911,311.9204 814.6349,310.4517 Q813.9786,308.9673 813.9786,306.9985 Q813.9786,305.5767 814.3692,304.4048 Q814.7755,303.2173 815.5567,302.3423 Q816.338,301.4673 817.4786,300.9985 Q818.6192,300.5142 820.088,300.5142 Q821.0411,300.5142 821.9317,300.7173 Q822.838,300.9048 823.7755,301.3735 L822.9474,303.1548 Q822.1661,302.7798 821.5099,302.5923 Q820.8536,302.3892 820.0567,302.3892 Z " fill="#000000"/><text fill="#000000" font-family="sans-serif" font-size="14" lengthAdjust="spacing" textLength="86.4077" x="840.4474" y="312.2899">Bouding_box</text><line style="stroke:#181818;stroke-width:0.5;" x1="638.71" x2="1096.0924" y1="322.8579" y2="322.8579"/><ellipse cx="648.71" cy="337.8919" fill="#84BE84" rx="3" ry="3" style="stroke:#038048;stroke-width:1;"/><text fill="#000000" font-family="sans-serif" font-size="14" lengthAdjust="spacing" textLength="133.6435" x="657.71" y="341.8239">Bouding_box() : void</text><ellipse cx="648.71" cy="356.9598" fill="#84BE84" rx="3" ry="3" style="stroke:#038048;stroke-width:1;"/><text fill="#000000" font-family="sans-serif" font-size="14" lengthAdjust="spacing" textLength="433.3824" x="657.71" y="360.8918">Bouding_box(const glm::vec3 &amp; min, const glm::vec3 &amp; max) : void</text><ellipse cx="648.71" cy="376.0277" fill="#84BE84" rx="3" ry="3" style="stroke:#038048;stroke-width:1;"/><text fill="#000000" font-family="sans-serif" font-size="14" lengthAdjust="spacing" textLength="378.9926" x="657.71" y="379.9597">Bouding_box(const std::vector&lt;glm::vec3&gt; &amp; points) : void</text><line style="stroke:#181818;stroke-width:1;stroke-dasharray:1.0,2.0;" x1="638.71" x2="1096.0924" y1="388.0617" y2="388.0617"/><ellipse cx="648.71" cy="403.0956" fill="#84BE84" rx="3" ry="3" style="stroke:#038048;stroke-width:1;"/><text fill="#000000" font-family="sans-serif" font-size="14" lengthAdjust="spacing" textLength="400.5106" x="657.71" y="407.0276">operator*(const glm::mat4 &amp; transform) const : Bouding_box</text><ellipse cx="648.71" cy="422.1635" fill="#84BE84" rx="3" ry="3" style="stroke:#038048;stroke-width:1;"/><text fill="#000000" font-family="sans-serif" font-size="14" lengthAdjust="spacing" textLength="383.1646" x="657.71" y="426.0955">operator*=(const glm::mat4 &amp; transform) : Bouding_box &amp;</text><ellipse cx="648.71" cy="441.2315" fill="#84BE84" rx="3" ry="3" style="stroke:#038048;stroke-width:1;"/><text fill="#000000" font-family="sans-serif" font-size="14" lengthAdjust="spacing" textLength="364.7267" x="657.71" y="445.1634">operator+(const glm::vec3 &amp; point) const : Bouding_box</text><ellipse cx="648.71" cy="460.2994" fill="#84BE84" rx="3" ry="3" style="stroke:#038048;stroke-width:1;"/><text fill="#000000" font-family="sans-serif" font-size="14" lengthAdjust="spacing" textLength="390.0386" x="657.71" y="464.2314">operator+(const Bouding_box &amp; other) const : Bouding_box</text><ellipse cx="648.71" cy="479.3673" fill="#84BE84" rx="3" ry="3" style="stroke:#038048;stroke-width:1;"/><text fill="#000000" font-family="sans-serif" font-size="14" lengthAdjust="spacing" textLength="347.3807" x="657.71" y="483.2993">operator+=(const glm::vec3 &amp; point) : Bouding_box &amp;</text><ellipse cx="648.71" cy="498.4352" fill="#84BE84" rx="3" ry="3" style="stroke:#038048;stroke-width:1;"/><text fill="#000000" font-family="sans-serif" font-size="14" lengthAdjust="spacing" textLength="372.6927" x="657.71" y="502.3672">operator+=(const Bouding_box &amp; other) : Bouding_box &amp;</text><line style="stroke:#181818;stroke-width:1;stroke-dasharray:1.0,2.0;" x1="638.71" x2="1096.0924" y1="510.4692" y2="510.4692"/><ellipse cx="648.71" cy="525.5031" fill="#84BE84" rx="3" ry="3" style="stroke:#038048;stroke-width:1;"/><text fill="#000000" font-family="sans-serif" font-size="14" lengthAdjust="spacing" textLength="163.2253" x="657.71" y="529.4351">center() const : glm::vec3</text><ellipse cx="648.71" cy="544.571" fill="#84BE84" rx="3" ry="3" style="stroke:#038048;stroke-width:1;"/><text fill="#000000" font-family="sans-serif" font-size="14" lengthAdjust="spacing" textLength="163.1833" x="657.71" y="548.503">extent() const : glm::vec3</text><ellipse cx="648.71" cy="563.639" fill="#84BE84" rx="3" ry="3" style="stroke:#038048;stroke-width:1;"/><text fill="#000000" font-family="sans-serif" font-size="14" lengthAdjust="spacing" textLength="316.2028" x="657.71" y="567.5709">overlap(const Bouding_box &amp; other) const : bool</text><line style="stroke:#181818;stroke-width:0.5;" x1="638.71" x2="1096.0924" y1="575.6729" y2="575.6729"/><ellipse cx="648.71" cy="590.7069" fill="none" rx="3" ry="3" style="stroke:#038048;stroke-width:1;"/><text fill="#000000" font-family="sans-serif" font-size="14" lengthAdjust="spacing" textLength="101.9336" x="657.71" y="594.6389">max : glm::vec3</text><ellipse cx="648.71" cy="609.7748" fill="none" rx="3" ry="3" style="stroke:#038048;stroke-width:1;"/><text fill="#000000" font-family="sans-serif" font-size="14" lengthAdjust="spacing" textLength="98.9376" x="657.71" y="613.7068">min : glm::vec3</text></g><!--class C_0008896654506794898592--><g class="entity" data-entity="C_0008896654506794898592" data-source-line="33" data-uid="ent0004" id="entity_C_0008896654506794898592"><rect fill="#F1F1F1" height="143.3396" rx="2.5" ry="2.5" style="stroke:#181818;stroke-width:0.5;" width="363.1327" x="89.35" y="384.6679"/><ellipse cx="243.4054" cy="400.6679" fill="#ADD1B2" rx="11" ry="11" style="stroke:#181818;stroke-width:1;"/><path d="M243.5148,396.1992 Q242.5929,396.1992 241.8586,396.5117 Q241.1398,396.8242 240.6398,397.4179 Q240.1398,397.996 239.8586,398.871 Q239.5929,399.746 239.5929,400.8398 Q239.5929,402.2773 240.0304,403.3242 Q240.4836,404.371 241.3273,404.9179 Q242.1867,405.4648 243.4992,405.4648 Q244.2804,405.4648 244.9679,405.3398 Q245.6711,405.1992 246.6711,404.8867 L246.6711,406.7617 Q245.8117,407.0898 245.0461,407.2148 Q244.2961,407.3398 243.2804,407.3398 Q241.3586,407.3398 240.0461,406.5429 Q238.7492,405.7304 238.0929,404.2617 Q237.4367,402.7773 237.4367,400.8085 Q237.4367,399.3867 237.8273,398.2148 Q238.2336,397.0273 239.0148,396.1523 Q239.7961,395.2773 240.9367,394.8085 Q242.0773,394.3242 243.5461,394.3242 Q244.4992,394.3242 245.3898,394.5273 Q246.2961,394.7148 247.2336,395.1835 L246.4054,396.9648 Q245.6242,396.5898 244.9679,396.4023 Q244.3117,396.1992 243.5148,396.1992 Z " fill="#000000"/><text fill="#000000" font-family="sans-serif" font-size="14" lengthAdjust="spacing" textLength="46.5218" x="263.9054" y="406.0999">Sphere</text><line style="stroke:#181818;stroke-width:0.5;" x1="90.35" x2="451.4827" y1="416.6679" y2="416.6679"/><ellipse cx="100.35" cy="431.7019" fill="#84BE84" rx="3" ry="3" style="stroke:#038048;stroke-width:1;"/><text fill="#000000" font-family="sans-serif" font-size="14" lengthAdjust="spacing" textLength="93.7576" x="109.35" y="435.6339">Sphere() : void</text><ellipse cx="100.35" cy="450.7698" fill="#84BE84" rx="3" ry="3" style="stroke:#038048;stroke-width:1;"/><text fill="#000000" font-family="sans-serif" font-size="14" lengthAdjust="spacing" textLength="337.1327" x="109.35" y="454.7018">Sphere(const glm::vec3 &amp; center, float radius) : void</text><ellipse cx="100.35" cy="469.8377" fill="#84BE84" rx="3" ry="3" style="stroke:#038048;stroke-width:1;"/><text fill="#000000" font-family="sans-serif" font-size="14" lengthAdjust="spacing" textLength="270.031" x="109.35" y="473.7697">Sphere(const Bouding_box &amp; bbox) : void</text><line style="stroke:#181818;stroke-width:0.5;" x1="90.35" x2="451.4827" y1="481.8717" y2="481.8717"/><ellipse cx="100.35" cy="496.9056" fill="none" rx="3" ry="3" style="stroke:#038048;stroke-width:1;"/><text fill="#000000" font-family="sans-serif" font-size="14" lengthAdjust="spacing" textLength="115.5835" x="109.35" y="500.8376">center : glm::vec3</text><ellipse cx="100.35" cy="515.9735" fill="none" rx="3" ry="3" style="stroke:#038048;stroke-width:1;"/><text fill="#000000" font-family="sans-serif" font-size="14" lengthAdjust="spacing" textLength="82.0537" x="109.35" y="519.9055">radius : float</text></g><!--class C_0001500792012341220757--><g class="entity" data-entity="C_0001500792012341220757" data-source-line="42" data-uid="ent0005" id="entity_C_0001500792012341220757"><rect fill="#F1F1F1" height="208.5433" rx="2.5" ry="2.5" style="stroke:#181818;stroke-width:0.5;" width="545.1459" x="594.83" y="47.0679"/><ellipse cx="836.2521" cy="63.0679" fill="#ADD1B2" rx="11" ry="11" style="stroke:#181818;stroke-width:1;"/><path d="M836.3614,58.5992 Q835.4396,58.5992 834.7052,58.9117 Q833.9864,59.2242 833.4864,59.8179 Q832.9864,60.396 832.7052,61.271 Q832.4396,62.146 832.4396,63.2398 Q832.4396,64.6773 832.8771,65.7242 Q833.3302,66.771 834.1739,67.3179 Q835.0333,67.8648 836.3458,67.8648 Q837.1271,67.8648 837.8146,67.7398 Q838.5177,67.5992 839.5177,67.2867 L839.5177,69.1617 Q838.6583,69.4898 837.8927,69.6148 Q837.1427,69.7398 836.1271,69.7398 Q834.2052,69.7398 832.8927,68.9429 Q831.5958,68.1304 830.9396,66.6617 Q830.2833,65.1773 830.2833,63.2085 Q830.2833,61.7867 830.6739,60.6148 Q831.0802,59.4273 831.8614,58.5523 Q832.6427,57.6773 833.7833,57.2085 Q834.9239,56.7242 836.3927,56.7242 Q837.3458,56.7242 838.2364,56.9273 Q839.1427,57.1148 840.0802,57.5835 L839.2521,59.3648 Q838.4708,58.9898 837.8146,58.8023 Q837.1583,58.5992 836.3614,58.5992 Z " fill="#000000"/><text fill="#000000" font-family="sans-serif" font-size="14" lengthAdjust="spacing" textLength="53.8018" x="856.7521" y="68.4999">Triangle</text><line style="stroke:#181818;stroke-width:0.5;" x1="595.83" x2="1138.9759" y1="79.0679" y2="79.0679"/><ellipse cx="605.83" cy="94.1019" fill="#84BE84" rx="3" ry="3" style="stroke:#038048;stroke-width:1;"/><text fill="#000000" font-family="sans-serif" font-size="14" lengthAdjust="spacing" textLength="101.0376" x="614.83" y="98.0339">Triangle() : void</text><ellipse cx="605.83" cy="113.1698" fill="#84BE84" rx="3" ry="3" style="stroke:#038048;stroke-width:1;"/><text fill="#000000" font-family="sans-serif" font-size="14" lengthAdjust="spacing" textLength="519.1459" x="614.83" y="117.1018">Triangle(const glm::vec3 &amp; v0, const glm::vec3 &amp; v1, const glm::vec3 &amp; v2) : void</text><line style="stroke:#181818;stroke-width:1;stroke-dasharray:1.0,2.0;" x1="595.83" x2="1138.9759" y1="125.2038" y2="125.2038"/><ellipse cx="605.83" cy="140.2377" fill="#84BE84" rx="3" ry="3" style="stroke:#038048;stroke-width:1;"/><text fill="#000000" font-family="sans-serif" font-size="14" lengthAdjust="spacing" textLength="117.8656" x="614.83" y="144.1697">area() const : float</text><ellipse cx="605.83" cy="159.3056" fill="#84BE84" rx="3" ry="3" style="stroke:#038048;stroke-width:1;"/><text fill="#000000" font-family="sans-serif" font-size="14" lengthAdjust="spacing" textLength="176.0213" x="614.83" y="163.2376">centroid() const : glm::vec3</text><ellipse cx="605.83" cy="178.3735" fill="#84BE84" rx="3" ry="3" style="stroke:#038048;stroke-width:1;"/><text fill="#000000" font-family="sans-serif" font-size="14" lengthAdjust="spacing" textLength="168.6853" x="614.83" y="182.3055">normal() const : glm::vec3</text><line style="stroke:#181818;stroke-width:0.5;" x1="595.83" x2="1138.9759" y1="190.4075" y2="190.4075"/><ellipse cx="605.83" cy="205.4415" fill="none" rx="3" ry="3" style="stroke:#038048;stroke-width:1;"/><text fill="#000000" font-family="sans-serif" font-size="14" lengthAdjust="spacing" textLength="88.7036" x="614.83" y="209.3734">v0 : glm::vec3</text><ellipse cx="605.83" cy="224.5094" fill="none" rx="3" ry="3" style="stroke:#038048;stroke-width:1;"/><text fill="#000000" font-family="sans-serif" font-size="14" lengthAdjust="spacing" textLength="88.7036" x="614.83" y="228.4414">v1 : glm::vec3</text><ellipse cx="605.83" cy="243.5773" fill="none" rx="3" ry="3" style="stroke:#038048;stroke-width:1;"/><text fill="#000000" font-family="sans-serif" font-size="14" lengthAdjust="spacing" textLength="88.7036" x="614.83" y="247.5093">v2 : glm::vec3</text></g><!--class C_0007059972115507561733--><g class="entity" data-entity="C_0007059972115507561733" data-source-line="55" data-uid="ent0006" id="entity_C_0007059972115507561733"><rect fill="#F1F1F1" height="189.4754" rx="2.5" ry="2.5" style="stroke:#181818;stroke-width:0.5;" width="527.828" x="7" y="56.5979"/><ellipse cx="248.4221" cy="72.5979" fill="#ADD1B2" rx="11" ry="11" style="stroke:#181818;stroke-width:1;"/><path d="M248.5314,68.1292 Q247.6096,68.1292 246.8752,68.4417 Q246.1564,68.7542 245.6564,69.3479 Q245.1564,69.926 244.8752,70.801 Q244.6096,71.676 244.6096,72.7698 Q244.6096,74.2073 245.0471,75.2542 Q245.5002,76.301 246.3439,76.8479 Q247.2033,77.3948 248.5158,77.3948 Q249.2971,77.3948 249.9846,77.2698 Q250.6877,77.1292 251.6877,76.8167 L251.6877,78.6917 Q250.8283,79.0198 250.0627,79.1448 Q249.3127,79.2698 248.2971,79.2698 Q246.3752,79.2698 245.0627,78.4729 Q243.7658,77.6604 243.1096,76.1917 Q242.4533,74.7073 242.4533,72.7385 Q242.4533,71.3167 242.8439,70.1448 Q243.2502,68.9573 244.0314,68.0823 Q244.8127,67.2073 245.9533,66.7385 Q247.0939,66.2542 248.5627,66.2542 Q249.5158,66.2542 250.4064,66.4573 Q251.3127,66.6448 252.2502,67.1135 L251.4221,68.8948 Q250.6408,68.5198 249.9846,68.3323 Q249.3283,68.1292 248.5314,68.1292 Z " fill="#000000"/><text fill="#000000" font-family="sans-serif" font-size="14" lengthAdjust="spacing" textLength="36.4839" x="268.9221" y="78.0299">Plane</text><line style="stroke:#181818;stroke-width:0.5;" x1="8" x2="533.828" y1="88.5979" y2="88.5979"/><ellipse cx="18" cy="103.6319" fill="#84BE84" rx="3" ry="3" style="stroke:#038048;stroke-width:1;"/><text fill="#000000" font-family="sans-serif" font-size="14" lengthAdjust="spacing" textLength="83.7197" x="27" y="107.5639">Plane() : void</text><ellipse cx="18" cy="122.6998" fill="#84BE84" rx="3" ry="3" style="stroke:#038048;stroke-width:1;"/><text fill="#000000" font-family="sans-serif" font-size="14" lengthAdjust="spacing" textLength="299.9489" x="27" y="126.6318">Plane(const glm::vec3 &amp; normal, float d) : void</text><ellipse cx="18" cy="141.7677" fill="#84BE84" rx="3" ry="3" style="stroke:#038048;stroke-width:1;"/><text fill="#000000" font-family="sans-serif" font-size="14" lengthAdjust="spacing" textLength="245.363" x="27" y="145.6997">Plane(const Triangle &amp; triangle) : void</text><ellipse cx="18" cy="160.8356" fill="#84BE84" rx="3" ry="3" style="stroke:#038048;stroke-width:1;"/><text fill="#000000" font-family="sans-serif" font-size="14" lengthAdjust="spacing" textLength="501.828" x="27" y="164.7676">Plane(const glm::vec3 &amp; v0, const glm::vec3 &amp; v1, const glm::vec3 &amp; v2) : void</text><line style="stroke:#181818;stroke-width:1;stroke-dasharray:1.0,2.0;" x1="8" x2="533.828" y1="172.8696" y2="172.8696"/><ellipse cx="18" cy="187.9035" fill="#84BE84" rx="3" ry="3" style="stroke:#038048;stroke-width:1;"/><text fill="#000000" font-family="sans-serif" font-size="14" lengthAdjust="spacing" textLength="297.3029" x="27" y="191.8355">distance(const glm::vec3 &amp; point) const : float</text><line style="stroke:#181818;stroke-width:0.5;" x1="8" x2="533.828" y1="199.9375" y2="199.9375"/><ellipse cx="18" cy="214.9715" fill="none" rx="3" ry="3" style="stroke:#038048;stroke-width:1;"/><text fill="#000000" font-family="sans-serif" font-size="14" lengthAdjust="spacing" textLength="49.4478" x="27" y="218.9034">d : float</text><ellipse cx="18" cy="234.0394" fill="none" rx="3" ry="3" style="stroke:#038048;stroke-width:1;"/><text fill="#000000" font-family="sans-serif" font-size="14" lengthAdjust="spacing" textLength="121.0435" x="27" y="237.9714">normal : glm::vec3</text></g><!--link C_0008896654506794898592 to C_0002167986219114420181--><g class="link" data-entity-1="C_0008896654506794898592" data-entity-2="C_0002167986219114420181" data-source-line="67" data-uid="lnk7" id="link_C_0008896654506794898592_C_0002167986219114420181"><path codeLine="67" d="M452.7,456.3379 C510.86,456.3379 570.08,456.3379 631.24,456.3379" fill="none" id="C_0008896654506794898592-to-C_0002167986219114420181" style="stroke:#181818;stroke-width:1;stroke-dasharray:7.0,7.0;"/><polygon fill="#181818" points="637.24,456.3379,628.24,452.3379,632.24,456.3379,628.24,460.3379,637.24,456.3379" style="stroke:#181818;stroke-width:1;"/></g><!--link C_0007059972115507561733 to C_0001500792012341220757--><g class="link" data-entity-1="C_0007059972115507561733" data-entity-2="C_0001500792012341220757" data-source-line="68" data-uid="lnk8" id="link_C_0007059972115507561733_C_0001500792012341220757"><path codeLine="68" d="M535.26,151.3379 C554.98,151.3379 568.91,151.3379 588.68,151.3379" fill="none" id="C_0007059972115507561733-to-C_0001500792012341220757" style="stroke:#181818;stroke-width:1;stroke-dasharray:7.0,7.0;"/><polygon fill="#181818" points="594.68,151.3379,585.68,147.3379,589.68,151.3379,585.68,155.3379,594.68,151.3379" style="stroke:#181818;stroke-width:1;"/></g><!--SRC=[fLLDZvim4BtpAwmzx2PbWp3Xor6pXrPgBxjIrLQzHWuOWWHsP1oQgkf_hy49cCGabNfAF3DlxFTu7ej2b0IyOR43IOdh6gG5pZckh99a0WW6U97lX8noaeY2KKjLFNp5lnu0hi77ZUl2m0zSDqG8kX2XAFQHZqvrKsdmsx9bYzaSh433YbIj4aPh0VAoMgqQaYp18s1o-u8-W-jCVwA-XUDODXQph6HOddn-mgm6bBNPM7QF6sLijT4ezkVCzGCxf0NDDrjsx3cx7WmZ58SUH13wlkV266gSJUcMizPAuwv7hvbMPW4gVBpLeHPfLoeOVz_3NYHkpmegwf5gR4yubeNlzDqhB7nPBZYcTSPuDGYgRQPXrxV18nXu782sWN9tnZiRdd6Zje297U7taElfBQUFkRwrtoMiLJKXL10-CndH9aSXi-OSQmWlyVvVw6qPApjNIpECcrHJPlwsbnt8uECuHc7Otb3fLpz6SO0ytSU6TEjZrKMpy2bmhQjIuHceQybnMXpg2TYOwbR-z8KjHzLfJ5Frax6k_S3oEoympKkD9vGpA4Bo8dfB7tgU6mMHpjEGRdcU-sXC-z0rryOrNTG66gFUU71nWZKxA3eTPIvBp4QXycBXSZOrwHftNDx0YxLdTiYN4bDDkCWDvDJs80m2gKe8e-LI5ywGReNhccYggVMr38h3sHwf6N2Ml9iewk_zpl_nCTAY5fWcvFvaKj-fUrU6hwOuNOWxUPiSvsNwHPcKk4UPV6qzVIQq7Lia1JyBzRJJV76efD1okDJjw-SweGCNC5ZasypVPcbYFRs-_dZhynsaNq7aG2S2iqyaPHoVbekbaoK-dFy5]--></g></svg>