<?xml version="1.0" encoding="us-ascii" standalone="no"?><svg xmlns="http://www.w3.org/2000/svg" xmlns:xlink="http://www.w3.org/1999/xlink" contentStyleType="text/css" height="826px" preserveAspectRatio="none" style="width:1018px;height:826px;background:#FFFFFF;" version="1.1" viewBox="0 0 1018 826" width="1018px" zoomAndPan="magnify"><defs/><g><text fill="#000000" font-family="sans-serif" font-size="14" font-weight="bold" lengthAdjust="spacing" textLength="277.8125" x="363.5138" y="24.9659">&#32593;&#26684;&#28210;&#26579;&#22120;&#31995;&#32479; (Mesh Renderer System)</text><!--class Component_base--><g id="elem_Component_base"><rect codeLine="9" fill="#F1F1F1" height="48" id="Component_base" rx="2.5" ry="2.5" style="stroke:#181818;stroke-width:0.5;" width="139" x="7" y="558.4779"/><ellipse cx="22" cy="574.4779" fill="#A9DCDF" rx="11" ry="11" style="stroke:#181818;stroke-width:1.0;"/><path d="M25.3438,579.7279 L23.875,575.9779 L19.4375,575.9779 L18,579.7279 L15.875,579.7279 L20.8281,567.0092 L22.5781,567.0092 L27.5,579.7279 L25.3438,579.7279 Z M22,570.7748 Q21.9531,570.6185 21.8281,570.2592 Q21.7031,569.8998 21.5938,569.5248 Q21.4844,569.1342 21.6875,569.0717 Q21.8438,569.2592 21.75,569.6185 Q21.6563,569.9623 21.5625,570.2592 Q21.4688,570.5404 21.3906,570.7748 L20.1563,574.0873 L23.2344,574.0873 L22,570.7748 Z " fill="#000000"/><text fill="#000000" font-family="sans-serif" font-size="14" font-style="italic" lengthAdjust="spacing" textLength="107" x="36" y="579.9099">Component_base</text><line style="stroke:#181818;stroke-width:0.5;" x1="8" x2="145" y1="590.4779" y2="590.4779"/><line style="stroke:#181818;stroke-width:0.5;" x1="8" x2="145" y1="598.4779" y2="598.4779"/></g><!--class Node--><g id="elem_Node"><rect codeLine="14" fill="#F1F1F1" height="48" id="Node" rx="2.5" ry="2.5" style="stroke:#181818;stroke-width:0.5;" width="68" x="657.5" y="771.2879"/><ellipse cx="672.5" cy="787.2879" fill="#ADD1B2" rx="11" ry="11" style="stroke:#181818;stroke-width:1.0;"/><path d="M672.6094,782.8192 Q671.6875,782.8192 670.9531,783.1317 Q670.2344,783.4442 669.7344,784.0379 Q669.2344,784.616 668.9531,785.491 Q668.6875,786.366 668.6875,787.4598 Q668.6875,788.8973 669.125,789.9442 Q669.5781,790.991 670.4219,791.5379 Q671.2813,792.0848 672.5938,792.0848 Q673.375,792.0848 674.0625,791.9598 Q674.7656,791.8192 675.7656,791.5067 L675.7656,793.3817 Q674.9063,793.7098 674.1406,793.8348 Q673.3906,793.9598 672.375,793.9598 Q670.4531,793.9598 669.1406,793.1629 Q667.8438,792.3504 667.1875,790.8817 Q666.5313,789.3973 666.5313,787.4285 Q666.5313,786.0067 666.9219,784.8348 Q667.3281,783.6473 668.1094,782.7723 Q668.8906,781.8973 670.0313,781.4285 Q671.1719,780.9442 672.6406,780.9442 Q673.5938,780.9442 674.4844,781.1473 Q675.3906,781.3348 676.3281,781.8035 L675.5,783.5848 Q674.7188,783.2098 674.0625,783.0223 Q673.4063,782.8192 672.6094,782.8192 Z " fill="#000000"/><text fill="#000000" font-family="sans-serif" font-size="14" lengthAdjust="spacing" textLength="36" x="686.5" y="792.7199">Node</text><line style="stroke:#181818;stroke-width:0.5;" x1="658.5" x2="724.5" y1="803.2879" y2="803.2879"/><line style="stroke:#181818;stroke-width:0.5;" x1="658.5" x2="724.5" y1="811.2879" y2="811.2879"/></g><!--class Node_component--><g id="elem_Node_component"><rect codeLine="20" fill="#F1F1F1" height="67.0679" id="Node_component" rx="2.5" ry="2.5" style="stroke:#181818;stroke-width:0.5;" width="225" x="181" y="548.9479"/><ellipse cx="230.25" cy="564.9479" fill="#ADD1B2" rx="11" ry="11" style="stroke:#181818;stroke-width:1.0;"/><path d="M230.3594,560.4792 Q229.4375,560.4792 228.7031,560.7917 Q227.9844,561.1042 227.4844,561.6979 Q226.9844,562.276 226.7031,563.151 Q226.4375,564.026 226.4375,565.1198 Q226.4375,566.5573 226.875,567.6042 Q227.3281,568.651 228.1719,569.1979 Q229.0313,569.7448 230.3438,569.7448 Q231.125,569.7448 231.8125,569.6198 Q232.5156,569.4792 233.5156,569.1667 L233.5156,571.0417 Q232.6563,571.3698 231.8906,571.4948 Q231.1406,571.6198 230.125,571.6198 Q228.2031,571.6198 226.8906,570.8229 Q225.5938,570.0104 224.9375,568.5417 Q224.2813,567.0573 224.2813,565.0885 Q224.2813,563.6667 224.6719,562.4948 Q225.0781,561.3073 225.8594,560.4323 Q226.6406,559.5573 227.7813,559.0885 Q228.9219,558.6042 230.3906,558.6042 Q231.3438,558.6042 232.2344,558.8073 Q233.1406,558.9948 234.0781,559.4635 L233.25,561.2448 Q232.4688,560.8698 231.8125,560.6823 Q231.1563,560.4792 230.3594,560.4792 Z " fill="#000000"/><text fill="#000000" font-family="sans-serif" font-size="14" lengthAdjust="spacing" textLength="118" x="250.75" y="570.3799">Node_component</text><line style="stroke:#181818;stroke-width:0.5;" x1="182" x2="405" y1="580.9479" y2="580.9479"/><rect fill="none" height="6" style="stroke:#C82930;stroke-width:1.0;" width="6" x="189" y="592.9819"/><text fill="#000000" font-family="sans-serif" font-size="14" lengthAdjust="spacing" textLength="199" x="201" y="599.9139">Node node ' &#20851;&#32852;&#30340; Node &#23454;&#20363;</text><line style="stroke:#181818;stroke-width:0.5;" x1="182" x2="405" y1="608.0158" y2="608.0158"/></g><!--class GameObject--><g id="elem_GameObject"><rect codeLine="26" fill="#F1F1F1" height="67.0679" id="GameObject" rx="2.5" ry="2.5" style="stroke:#181818;stroke-width:0.5;" width="377" x="244" y="47.0679"/><ellipse cx="386.75" cy="63.0679" fill="#ADD1B2" rx="11" ry="11" style="stroke:#181818;stroke-width:1.0;"/><path d="M386.8594,58.5992 Q385.9375,58.5992 385.2031,58.9117 Q384.4844,59.2242 383.9844,59.8179 Q383.4844,60.396 383.2031,61.271 Q382.9375,62.146 382.9375,63.2398 Q382.9375,64.6773 383.375,65.7242 Q383.8281,66.771 384.6719,67.3179 Q385.5313,67.8648 386.8438,67.8648 Q387.625,67.8648 388.3125,67.7398 Q389.0156,67.5992 390.0156,67.2867 L390.0156,69.1617 Q389.1563,69.4898 388.3906,69.6148 Q387.6406,69.7398 386.625,69.7398 Q384.7031,69.7398 383.3906,68.9429 Q382.0938,68.1304 381.4375,66.6617 Q380.7813,65.1773 380.7813,63.2085 Q380.7813,61.7867 381.1719,60.6148 Q381.5781,59.4273 382.3594,58.5523 Q383.1406,57.6773 384.2813,57.2085 Q385.4219,56.7242 386.8906,56.7242 Q387.8438,56.7242 388.7344,56.9273 Q389.6406,57.1148 390.5781,57.5835 L389.75,59.3648 Q388.9688,58.9898 388.3125,58.8023 Q387.6563,58.5992 386.8594,58.5992 Z " fill="#000000"/><text fill="#000000" font-family="sans-serif" font-size="14" lengthAdjust="spacing" textLength="83" x="407.25" y="68.4999">GameObject</text><line style="stroke:#181818;stroke-width:0.5;" x1="245" x2="620" y1="79.0679" y2="79.0679"/><rect fill="none" height="6" style="stroke:#C82930;stroke-width:1.0;" width="6" x="252" y="91.1019"/><text fill="#000000" font-family="sans-serif" font-size="14" lengthAdjust="spacing" textLength="351" x="264" y="98.0339">List&lt;Component_base&gt; components ' &#21253;&#21547;&#30340;&#32452;&#20214;&#21015;&#34920;</text><line style="stroke:#181818;stroke-width:0.5;" x1="245" x2="620" y1="106.1358" y2="106.1358"/></g><!--class Geometry--><g id="elem_Geometry"><rect codeLine="32" fill="#F1F1F1" height="48" id="Geometry" rx="2.5" ry="2.5" style="stroke:#181818;stroke-width:0.5;" width="97" x="789" y="771.2879"/><ellipse cx="804" cy="787.2879" fill="#ADD1B2" rx="11" ry="11" style="stroke:#181818;stroke-width:1.0;"/><path d="M804.1094,782.8192 Q803.1875,782.8192 802.4531,783.1317 Q801.7344,783.4442 801.2344,784.0379 Q800.7344,784.616 800.4531,785.491 Q800.1875,786.366 800.1875,787.4598 Q800.1875,788.8973 800.625,789.9442 Q801.0781,790.991 801.9219,791.5379 Q802.7813,792.0848 804.0938,792.0848 Q804.875,792.0848 805.5625,791.9598 Q806.2656,791.8192 807.2656,791.5067 L807.2656,793.3817 Q806.4063,793.7098 805.6406,793.8348 Q804.8906,793.9598 803.875,793.9598 Q801.9531,793.9598 800.6406,793.1629 Q799.3438,792.3504 798.6875,790.8817 Q798.0313,789.3973 798.0313,787.4285 Q798.0313,786.0067 798.4219,784.8348 Q798.8281,783.6473 799.6094,782.7723 Q800.3906,781.8973 801.5313,781.4285 Q802.6719,780.9442 804.1406,780.9442 Q805.0938,780.9442 805.9844,781.1473 Q806.8906,781.3348 807.8281,781.8035 L807,783.5848 Q806.2188,783.2098 805.5625,783.0223 Q804.9063,782.8192 804.1094,782.8192 Z " fill="#000000"/><text fill="#000000" font-family="sans-serif" font-size="14" lengthAdjust="spacing" textLength="65" x="818" y="792.7199">Geometry</text><line style="stroke:#181818;stroke-width:0.5;" x1="790" x2="885" y1="803.2879" y2="803.2879"/><line style="stroke:#181818;stroke-width:0.5;" x1="790" x2="885" y1="811.2879" y2="811.2879"/></g><!--class Material--><g id="elem_Material"><rect codeLine="38" fill="#F1F1F1" height="48" id="Material" rx="2.5" ry="2.5" style="stroke:#181818;stroke-width:0.5;" width="88" x="920.5" y="771.2879"/><ellipse cx="935.5" cy="787.2879" fill="#ADD1B2" rx="11" ry="11" style="stroke:#181818;stroke-width:1.0;"/><path d="M935.6094,782.8192 Q934.6875,782.8192 933.9531,783.1317 Q933.2344,783.4442 932.7344,784.0379 Q932.2344,784.616 931.9531,785.491 Q931.6875,786.366 931.6875,787.4598 Q931.6875,788.8973 932.125,789.9442 Q932.5781,790.991 933.4219,791.5379 Q934.2813,792.0848 935.5938,792.0848 Q936.375,792.0848 937.0625,791.9598 Q937.7656,791.8192 938.7656,791.5067 L938.7656,793.3817 Q937.9063,793.7098 937.1406,793.8348 Q936.3906,793.9598 935.375,793.9598 Q933.4531,793.9598 932.1406,793.1629 Q930.8438,792.3504 930.1875,790.8817 Q929.5313,789.3973 929.5313,787.4285 Q929.5313,786.0067 929.9219,784.8348 Q930.3281,783.6473 931.1094,782.7723 Q931.8906,781.8973 933.0313,781.4285 Q934.1719,780.9442 935.6406,780.9442 Q936.5938,780.9442 937.4844,781.1473 Q938.3906,781.3348 939.3281,781.8035 L938.5,783.5848 Q937.7188,783.2098 937.0625,783.0223 Q936.4063,782.8192 935.6094,782.8192 Z " fill="#000000"/><text fill="#000000" font-family="sans-serif" font-size="14" lengthAdjust="spacing" textLength="56" x="949.5" y="792.7199">Material</text><line style="stroke:#181818;stroke-width:0.5;" x1="921.5" x2="1007.5" y1="803.2879" y2="803.2879"/><line style="stroke:#181818;stroke-width:0.5;" x1="921.5" x2="1007.5" y1="811.2879" y2="811.2879"/></g><!--class LogicSwapData--><g id="elem_LogicSwapData"><rect codeLine="44" fill="#F1F1F1" height="48" id="LogicSwapData" rx="2.5" ry="2.5" style="stroke:#181818;stroke-width:0.5;" width="134" x="505.5" y="558.4779"/><ellipse cx="520.5" cy="574.4779" fill="#ADD1B2" rx="11" ry="11" style="stroke:#181818;stroke-width:1.0;"/><path d="M520.6094,570.0092 Q519.6875,570.0092 518.9531,570.3217 Q518.2344,570.6342 517.7344,571.2279 Q517.2344,571.806 516.9531,572.681 Q516.6875,573.556 516.6875,574.6498 Q516.6875,576.0873 517.125,577.1342 Q517.5781,578.181 518.4219,578.7279 Q519.2813,579.2748 520.5938,579.2748 Q521.375,579.2748 522.0625,579.1498 Q522.7656,579.0092 523.7656,578.6967 L523.7656,580.5717 Q522.9063,580.8998 522.1406,581.0248 Q521.3906,581.1498 520.375,581.1498 Q518.4531,581.1498 517.1406,580.3529 Q515.8438,579.5404 515.1875,578.0717 Q514.5313,576.5873 514.5313,574.6185 Q514.5313,573.1967 514.9219,572.0248 Q515.3281,570.8373 516.1094,569.9623 Q516.8906,569.0873 518.0313,568.6185 Q519.1719,568.1342 520.6406,568.1342 Q521.5938,568.1342 522.4844,568.3373 Q523.3906,568.5248 524.3281,568.9935 L523.5,570.7748 Q522.7188,570.3998 522.0625,570.2123 Q521.4063,570.0092 520.6094,570.0092 Z " fill="#000000"/><text fill="#000000" font-family="sans-serif" font-size="14" lengthAdjust="spacing" textLength="102" x="534.5" y="579.9099">LogicSwapData</text><line style="stroke:#181818;stroke-width:0.5;" x1="506.5" x2="638.5" y1="590.4779" y2="590.4779"/><line style="stroke:#181818;stroke-width:0.5;" x1="506.5" x2="638.5" y1="598.4779" y2="598.4779"/></g><!--class Mesh_renderer--><g id="elem_Mesh_renderer"><rect codeLine="54" fill="#F1F1F1" height="219.6113" id="Mesh_renderer" rx="2.5" ry="2.5" style="stroke:#181818;stroke-width:0.5;" width="325" x="675" y="472.6779"/><ellipse cx="781.75" cy="488.6779" fill="#ADD1B2" rx="11" ry="11" style="stroke:#181818;stroke-width:1.0;"/><path d="M781.8594,484.2092 Q780.9375,484.2092 780.2031,484.5217 Q779.4844,484.8342 778.9844,485.4279 Q778.4844,486.006 778.2031,486.881 Q777.9375,487.756 777.9375,488.8498 Q777.9375,490.2873 778.375,491.3342 Q778.8281,492.381 779.6719,492.9279 Q780.5313,493.4748 781.8438,493.4748 Q782.625,493.4748 783.3125,493.3498 Q784.0156,493.2092 785.0156,492.8967 L785.0156,494.7717 Q784.1563,495.0998 783.3906,495.2248 Q782.6406,495.3498 781.625,495.3498 Q779.7031,495.3498 778.3906,494.5529 Q777.0938,493.7404 776.4375,492.2717 Q775.7813,490.7873 775.7813,488.8185 Q775.7813,487.3967 776.1719,486.2248 Q776.5781,485.0373 777.3594,484.1623 Q778.1406,483.2873 779.2813,482.8185 Q780.4219,482.3342 781.8906,482.3342 Q782.8438,482.3342 783.7344,482.5373 Q784.6406,482.7248 785.5781,483.1935 L784.75,484.9748 Q783.9688,484.5998 783.3125,484.4123 Q782.6563,484.2092 781.8594,484.2092 Z " fill="#000000"/><text fill="#000000" font-family="sans-serif" font-size="14" lengthAdjust="spacing" textLength="103" x="802.25" y="494.1099">Mesh_renderer</text><line style="stroke:#181818;stroke-width:0.5;" x1="676" x2="999" y1="504.6779" y2="504.6779"/><rect fill="none" height="6" style="stroke:#C82930;stroke-width:1.0;" width="6" x="683" y="516.7119"/><text fill="#000000" font-family="sans-serif" font-size="14" lengthAdjust="spacing" textLength="299" x="695" y="523.6439">Node* node_ptr ' &#32465;&#23450;&#29305;&#23450; 3D &#23545;&#35937;&#30340;&#33410;&#28857;&#25351;&#38024;</text><rect fill="none" height="6" style="stroke:#C82930;stroke-width:1.0;" width="6" x="683" y="535.7798"/><text fill="#000000" font-family="sans-serif" font-size="14" lengthAdjust="spacing" textLength="290" x="695" y="542.7118">Geometry* geometry_ptr ' &#31649;&#29702;&#30340;&#20960;&#20309;&#20307;&#25351;&#38024;</text><rect fill="none" height="6" style="stroke:#C82930;stroke-width:1.0;" width="6" x="683" y="554.8477"/><text fill="#000000" font-family="sans-serif" font-size="14" lengthAdjust="spacing" textLength="259" x="695" y="561.7797">Material* material_ptr ' &#31649;&#29702;&#30340;&#26448;&#36136;&#25351;&#38024;</text><line style="stroke:#181818;stroke-width:0.5;" x1="676" x2="999" y1="569.8817" y2="569.8817"/><ellipse cx="686" cy="584.9156" fill="#84BE84" rx="3" ry="3" style="stroke:#038048;stroke-width:1.0;"/><text fill="#000000" font-family="sans-serif" font-size="14" lengthAdjust="spacing" textLength="223" x="695" y="588.8476">Mesh_renderer(node_ptr: Node*)</text><text fill="#000000" font-family="sans-serif" font-size="14" lengthAdjust="spacing" textLength="4" x="695" y="607.9155">&#160;</text><ellipse cx="686" cy="623.0515" fill="#84BE84" rx="3" ry="3" style="stroke:#038048;stroke-width:1.0;"/><text fill="#000000" font-family="sans-serif" font-size="14" lengthAdjust="spacing" textLength="181" x="695" y="626.9834">get_geometry(): Geometry*</text><ellipse cx="686" cy="642.1194" fill="#84BE84" rx="3" ry="3" style="stroke:#038048;stroke-width:1.0;"/><text fill="#000000" font-family="sans-serif" font-size="14" lengthAdjust="spacing" textLength="217" x="695" y="646.0514">set_geometry(geom: Geometry*)</text><ellipse cx="686" cy="661.1873" fill="#84BE84" rx="3" ry="3" style="stroke:#038048;stroke-width:1.0;"/><text fill="#000000" font-family="sans-serif" font-size="14" lengthAdjust="spacing" textLength="164" x="695" y="665.1193">get_material(): Material*</text><ellipse cx="686" cy="680.2552" fill="#84BE84" rx="3" ry="3" style="stroke:#038048;stroke-width:1.0;"/><text fill="#000000" font-family="sans-serif" font-size="14" lengthAdjust="spacing" textLength="188" x="695" y="684.1872">set_material(mat: Material*)</text></g><!--class Mesh_renderer_component--><g id="elem_Mesh_renderer_component"><rect codeLine="75" fill="#F1F1F1" height="200.5433" id="Mesh_renderer_component" rx="2.5" ry="2.5" style="stroke:#181818;stroke-width:0.5;" width="579" x="143" y="193.1379"/><ellipse cx="335.75" cy="209.1379" fill="#ADD1B2" rx="11" ry="11" style="stroke:#181818;stroke-width:1.0;"/><path d="M335.8594,204.6692 Q334.9375,204.6692 334.2031,204.9817 Q333.4844,205.2942 332.9844,205.8879 Q332.4844,206.466 332.2031,207.341 Q331.9375,208.216 331.9375,209.3098 Q331.9375,210.7473 332.375,211.7942 Q332.8281,212.841 333.6719,213.3879 Q334.5313,213.9348 335.8438,213.9348 Q336.625,213.9348 337.3125,213.8098 Q338.0156,213.6692 339.0156,213.3567 L339.0156,215.2317 Q338.1563,215.5598 337.3906,215.6848 Q336.6406,215.8098 335.625,215.8098 Q333.7031,215.8098 332.3906,215.0129 Q331.0938,214.2004 330.4375,212.7317 Q329.7813,211.2473 329.7813,209.2785 Q329.7813,207.8567 330.1719,206.6848 Q330.5781,205.4973 331.3594,204.6223 Q332.1406,203.7473 333.2813,203.2785 Q334.4219,202.7942 335.8906,202.7942 Q336.8438,202.7942 337.7344,202.9973 Q338.6406,203.1848 339.5781,203.6535 L338.75,205.4348 Q337.9688,205.0598 337.3125,204.8723 Q336.6563,204.6692 335.8594,204.6692 Z " fill="#000000"/><text fill="#000000" font-family="sans-serif" font-size="14" lengthAdjust="spacing" textLength="185" x="356.25" y="214.5699">Mesh_renderer_component</text><line style="stroke:#181818;stroke-width:0.5;" x1="144" x2="721" y1="225.1379" y2="225.1379"/><rect fill="none" height="6" style="stroke:#C82930;stroke-width:1.0;" width="6" x="151" y="237.1719"/><text fill="#000000" font-family="sans-serif" font-size="14" lengthAdjust="spacing" textLength="553" x="163" y="244.1039">std::shared_ptr&lt;Mesh_renderer&gt; m_mesh_renderer ' &#31649;&#29702; Mesh_renderer &#29983;&#21629;&#21608;&#26399;</text><text fill="#000000" font-family="sans-serif" font-size="14" lengthAdjust="spacing" textLength="4" x="163" y="263.1718">&#160;</text><rect fill="none" height="6" style="stroke:#C82930;stroke-width:1.0;" width="6" x="151" y="275.3077"/><text fill="#000000" font-family="sans-serif" font-size="14" lengthAdjust="spacing" textLength="391" x="163" y="282.2397">bool m_is_cast_shadow = true ' &#25511;&#21046;&#28210;&#26579;&#22120;&#26159;&#21542;&#21442;&#19982;&#38452;&#24433;&#25237;&#23556;</text><line style="stroke:#181818;stroke-width:0.5;" x1="144" x2="721" y1="290.3417" y2="290.3417"/><ellipse cx="154" cy="305.3756" fill="#84BE84" rx="3" ry="3" style="stroke:#038048;stroke-width:1.0;"/><text fill="#000000" font-family="sans-serif" font-size="14" lengthAdjust="spacing" textLength="509" x="163" y="309.3076">on_add_to_game_object() ' &#28155;&#21152;&#33267;&#28216;&#25103;&#23545;&#35937;&#26102;&#33258;&#21160;&#21019;&#24314;&#24182;&#21021;&#22987;&#21270; Mesh_renderer</text><text fill="#000000" font-family="sans-serif" font-size="14" lengthAdjust="spacing" textLength="4" x="163" y="328.3755">&#160;</text><ellipse cx="154" cy="343.5115" fill="#84BE84" rx="3" ry="3" style="stroke:#038048;stroke-width:1.0;"/><text fill="#000000" font-family="sans-serif" font-size="14" lengthAdjust="spacing" textLength="472" x="163" y="347.4434">tick(render_pipe: LogicSwapData) ' &#27599;&#24103;&#35843;&#29992;&#65292;&#23558;&#28210;&#26579;&#25968;&#25454;&#25512;&#36865;&#21040;&#28210;&#26579;&#31649;&#32447;</text><text fill="#000000" font-family="sans-serif" font-size="14" lengthAdjust="spacing" textLength="4" x="163" y="366.5114">&#160;</text><ellipse cx="154" cy="381.6473" fill="#84BE84" rx="3" ry="3" style="stroke:#038048;stroke-width:1.0;"/><text fill="#000000" font-family="sans-serif" font-size="14" lengthAdjust="spacing" text-decoration="underline" textLength="361" x="163" y="385.5793">create(): std::shared_ptr&lt;Mesh_renderer_component&gt;</text></g><!--link Mesh_renderer_component to Component_base--><g id="link_Mesh_renderer_component_Component_base"><path codeLine="95" d="M264.33,394.1779 C229.48,417.9979 194.09,444.6979 163.5,472.6779 C134.94,498.7879 118.3382,519.9632 102.2182,543.2732 " fill="none" id="Mesh_renderer_component-to-Component_base" style="stroke:#181818;stroke-width:1.0;"/><polygon fill="none" points="91.98,558.0779,107.1531,546.6859,97.2833,539.8605,91.98,558.0779" style="stroke:#181818;stroke-width:1.0;"/></g><!--reverse link Mesh_renderer_component to Mesh_renderer--><g id="link_Mesh_renderer_component_Mesh_renderer"><path codeLine="99" d="M620.4921,400.469 C635.6421,410.149 640.43,413.6379 654.5,423.6779 C675.42,438.5979 696.81,455.4079 717.24,472.3579 " fill="none" id="Mesh_renderer_component-backto-Mesh_renderer" style="stroke:#181818;stroke-width:1.0;"/><polygon fill="#181818" points="610.38,394.0079,613.2824,400.6092,620.4921,400.469,617.5897,393.8677,610.38,394.0079" style="stroke:#181818;stroke-width:1.0;"/><polygon fill="#000000" points="684.6033,436.5131,679.096,428.7593,675.5903,433.4773,684.6033,436.5131" style="stroke:#000000;stroke-width:1.0;"/><text fill="#000000" font-family="sans-serif" font-size="13" lengthAdjust="spacing" textLength="65" x="689.59" y="438.5749">&#23553;&#35013;&#24182;&#31649;&#29702;</text><text fill="#000000" font-family="sans-serif" font-size="13" lengthAdjust="spacing" textLength="7" x="615.6411" y="415.6007">1</text><text fill="#000000" font-family="sans-serif" font-size="13" lengthAdjust="spacing" textLength="7" x="701.5381" y="460.9389">1</text></g><!--link Mesh_renderer to Node--><g id="link_Mesh_renderer_Node"><path codeLine="103" d="M743.54,692.4779 C736.43,702.3179 729.64,712.3379 723.5,722.2879 C714.02,737.6579 708.0191,750.7394 702.2891,765.2094 " fill="none" id="Mesh_renderer-to-Node" style="stroke:#181818;stroke-width:1.0;"/><polygon fill="#181818" points="700.08,770.7879,707.1126,763.8928,701.9209,766.1391,699.6746,760.9474,700.08,770.7879" style="stroke:#181818;stroke-width:1.0;"/><polygon fill="#000000" points="726.0333,736.4901,733.052,730.0723,727.9392,727.1725,726.0333,736.4901" style="stroke:#000000;stroke-width:1.0;"/><text fill="#000000" font-family="sans-serif" font-size="13" lengthAdjust="spacing" textLength="91" x="737.5" y="737.1849">&#20351;&#29992;&#20854;&#31354;&#38388;&#20449;&#24687;</text></g><!--link Mesh_renderer to Geometry--><g id="link_Mesh_renderer_Geometry"><path codeLine="104" d="M837.5,692.5879 C837.5,722.3279 837.5,745.6679 837.5,765.1379 " fill="none" id="Mesh_renderer-to-Geometry" style="stroke:#181818;stroke-width:1.0;"/><polygon fill="#181818" points="837.5,771.1379,841.5,762.1379,837.5,766.1379,833.5,762.1379,837.5,771.1379" style="stroke:#181818;stroke-width:1.0;"/><polygon fill="#000000" points="842.5,737.1409,845.4389,728.0958,839.5611,728.0958,842.5,737.1409" style="stroke:#000000;stroke-width:1.0;"/><text fill="#000000" font-family="sans-serif" font-size="13" lengthAdjust="spacing" textLength="63" x="851.5" y="737.1849">&#31649;&#29702; / &#28210;&#26579;</text></g><!--link Mesh_renderer to Material--><g id="link_Mesh_renderer_Material"><path codeLine="105" d="M905.72,692.7379 C911.78,702.6979 917.78,712.6579 923.5,722.2879 C933.05,738.3679 940.5423,751.4463 948.4823,765.5863 " fill="none" id="Mesh_renderer-to-Material" style="stroke:#181818;stroke-width:1.0;"/><polygon fill="#181818" points="951.42,770.8179,950.5012,761.012,948.9719,766.4582,943.5257,764.9289,951.42,770.8179" style="stroke:#181818;stroke-width:1.0;"/><polygon fill="#000000" points="941.3712,736.4529,939.3268,727.1647,934.2577,730.1402,941.3712,736.4529" style="stroke:#000000;stroke-width:1.0;"/><text fill="#000000" font-family="sans-serif" font-size="13" lengthAdjust="spacing" textLength="63" x="947.84" y="737.1849">&#31649;&#29702; / &#28210;&#26579;</text></g><!--link Mesh_renderer_component to Node_component--><g id="link_Mesh_renderer_component_Node_component"><path codeLine="109" d="M307.69,394.0479 C300.95,403.4179 295.08,413.3079 290.5,423.6779 C272.78,463.7779 277.1903,509.517 283.8803,542.587 " fill="none" id="Mesh_renderer_component-to-Node_component" style="stroke:#181818;stroke-width:1.0;stroke-dasharray:7.0,7.0;"/><polygon fill="#181818" points="285.07,548.4679,287.206,538.8535,284.0786,543.5672,279.3649,540.4397,285.07,548.4679" style="stroke:#181818;stroke-width:1.0;"/><polygon fill="#000000" points="294.7086,438.4679,299.0421,430.002,293.2383,429.0717,294.7086,438.4679" style="stroke:#000000;stroke-width:1.0;"/><text fill="#000000" font-family="sans-serif" font-size="13" lengthAdjust="spacing" textLength="224" x="304.5" y="438.5749">&#26597;&#25214; Node &#29992;&#20110;&#21021;&#22987;&#21270; Mesh_renderer</text></g><!--link Mesh_renderer_component to LogicSwapData--><g id="link_Mesh_renderer_component_LogicSwapData"><path codeLine="112" d="M516.71,394.0579 C522.92,403.7479 528.64,413.6879 533.5,423.6779 C555.29,468.4679 564.7661,520.562 569.0561,552.292 " fill="none" id="Mesh_renderer_component-to-LogicSwapData" style="stroke:#181818;stroke-width:1.0;stroke-dasharray:7.0,7.0;"/><polygon fill="#181818" points="569.86,558.2379,572.6181,548.7831,569.1901,553.283,564.6902,549.855,569.86,558.2379" style="stroke:#181818;stroke-width:1.0;"/><polygon fill="#000000" points="547.2004,438.2779,547.1498,428.7675,541.5693,430.6136,547.2004,438.2779" style="stroke:#000000;stroke-width:1.0;"/><text fill="#000000" font-family="sans-serif" font-size="13" lengthAdjust="spacing" textLength="91" x="554.63" y="438.5749">&#25512;&#36865;&#28210;&#26579;&#25968;&#25454;&#21040;</text></g><!--reverse link GameObject to Mesh_renderer_component--><g id="link_GameObject_Mesh_renderer_component"><path codeLine="115" d="M432.5,126.5379 C432.5,147.7279 432.5,164.4979 432.5,192.7079 " fill="none" id="GameObject-backto-Mesh_renderer_component" style="stroke:#181818;stroke-width:1.0;"/><polygon fill="#181818" points="432.5,114.5379,428.5,120.5379,432.5,126.5379,436.5,120.5379,432.5,114.5379" style="stroke:#181818;stroke-width:1.0;"/><polygon fill="#000000" points="437.5,158.9909,440.4389,149.9458,434.5611,149.9458,437.5,158.9909" style="stroke:#000000;stroke-width:1.0;"/><text fill="#000000" font-family="sans-serif" font-size="13" lengthAdjust="spacing" textLength="26" x="446.5" y="159.0349">&#21253;&#21547;</text><text fill="#000000" font-family="sans-serif" font-size="13" lengthAdjust="spacing" textLength="7" x="424.8766" y="136.0567">1</text><text fill="#000000" font-family="sans-serif" font-size="13" lengthAdjust="spacing" textLength="20" x="411.7344" y="181.2712">0..*</text></g><!--SRC=[dLRVJnfP57xdhxZfY-2kkfk-aPPaqoPDatOtsoRxIaQSABlA66QQfkasGGK1KS1M4KL5RArqMn6hjS08_34xzyxCK_-5FNVkp323OkhoWEDmxlbrl-yxPmXfjOxQhk5IHwjKoLvItozwfB0qpIErlKhsBaZZCoc_mPjLzLHMvJBoFkR5AVI4ZqpmKJwAdhuG9Nx6v_4CeRlVym4x_AwWBrJ7SBcbLcBgYOoyYfnLcXcSNb4QIqeZGmf9agsImf7lkxs28Kd7o7PQbUEAVAvknSbIMpkfq20dieSR5wKe5v9GQ9eJHNHFc9aL8dn42evp8ezUUX1yXf0UsrBNgim3oHxWt5lyUbbTA-FLDbwjakqoAJJ9wRhd5Gs7jrjaynZQfZIE81pwLPY0bft8towMIIwlT4hgXvQ-SOPpHRAohtGhPExOmw8RbbPCfnK-sIMnGpzIsYjm8yZx1n-IXEXjtu-8R6IqzYVa_VqP9_7HI5Y8m4lruWDPw_JCJ8-ZewCiGr8vW2hG0sw6_styJp12IYDhvhaLPsKwKWg6hAwOoOqmsmZzWdeJfzhScbqfhkqgdSoba8q6IUNmSHDQhxJV06HOTwXr-uqPp96G5UXHM9Jkk6ybWEnyH1f-EO7p7-sySMe3uDeV7YVtbFOwH2BhTR827OGKyVjvlNAkpZV_ZSsfP_luOXqUu1RLLbSzIlkid7XXXfUYBtfOCCumF_P9zYySkrJtJbuxg_P5tT_Mqf_fsLPJpI_IXvqOlA5KwWL-J2yqp4tRWQ4iVSU40c09796BZpYtWkjnswF-iOWJwRu0LwLbS9UbfHVBqBGnjLQ1oXcBWr6JnRshz_kbSEWl1FJJeKl6GPogawDt-5tSIlcHC1aEFNtEpTxd9CxE6w16rivnynmi8HiMMYqr03VCJtzotoiNPA-1kmiz6QA2SK-8yZqDkaVJkf5MkAgdhBLkm_NUIODXWmV1MIbAIIklujgMccx2Dxfz7p700pYrfNcAckMa_Zfb7hQGDOmcpIVB2Tm4t1gGmqQjyvm5Z64qOpxrdpD1nmvPjx0RrsDxEDc6dXklVd3NvBMgyBEgVDP11ZYjrjKtQapcaFS1Bq7aiQV67v_fRfANWbObNf-_Lv_vk-ZydJuuJ9m-hAge3xjMXm_xTtXmM5WgvyMvOssXhNMBLFJNgaehIqfdf51dyiIwGfjarEAx6UJC8M8CFBsqI59v2ZbB7Td8GmyZ4ZyPvIGgnlyRUmxH7O32AsHPb2RyVd6AY_8Jz2hlkEm3Q2OuuuAn1Pb-r3i6cyVqF2u8qt0-B0P3d2W58SQ4y1pTHLBq6Mzm_12dpcqgak8nph_7kNcOAthn3BTFoD8ww9I5AMS4cAHQPLbfjCmPoYvQY0IvYOcW90GdOIW41MCgU7qqr5SPB-rfoLFdI24Rvrho7xnKnQaIbbjKR58x-323bmlkuZocVofcNlOoE1kUvVrkyJ827UTmur2hBm28gDxM5vsgoOIGIY3JCqCz3USc35rAkPmWcKz-Sng0CDlCfYEdMi6x6RNyGIz-eHBkw1TiNRYxOLDHtzaaSFRh0SxEkxhrKfG0Rg5NA1JbWG-KETT2eGUTm0tnVoB3FaRtaiGfi01vd_3J1j35gV3ipPHMbGz9kclvUHYP0XfBN2J4-po3O3uoydUWRqLZdk8udx8y6R-BOOjzWtpX-fpsDW50OHJ0YNEyc83ja-unRZgmXOOk64vU3F9xw-TRQ7XanFZhzkFlZua2ncfYh4zZIcT7-rAmYlX558LGsEZis7r-bhg8X5vSgWSMmYwWqr0sW8wzgm2dUli3Ww3MBG7D65ZToKDR0qmR_QO_Q0RRFjbs2dbUFc37ybiYCcPk5LUQszbSPNxTDMrNRIO3oLcN-hTIBViLvmgkzNC8AVA1qka2Qw4QvM9FZxrMvSr-fOCnu9oBWx8O7GtqnmGobmz8kcEkpSQS6Q0vrrT80STMAuFHjimuDoHRRDmgTMs-xcNCRsrk3WcZ_epK77itswO79kjLsjiWrKeZfXwkz57Hvt7uiMdmq-ZeyAs1_lnMGCZZFm00]--></g></svg>