<?xml version="1.0" encoding="us-ascii" standalone="no"?><svg xmlns="http://www.w3.org/2000/svg" xmlns:xlink="http://www.w3.org/1999/xlink" contentStyleType="text/css" height="1017px" preserveAspectRatio="none" style="width:1174px;height:1017px;background:#FFFFFF;" version="1.1" viewBox="0 0 1174 1017" width="1174px" zoomAndPan="magnify"><defs/><g><rect fill="#FFFFFF" height="806.2384" style="stroke:#181818;stroke-width:1.0;" width="10" x="246.9063" y="117.7739"/><rect fill="#FFFFFF" height="680.1203" style="stroke:#181818;stroke-width:1.0;" width="10" x="251.9063" y="228.892"/><rect fill="#FFFFFF" height="68.412" style="stroke:#181818;stroke-width:1.0;" width="10" x="256.9063" y="273.598"/><rect fill="#FFFFFF" height="527.2963" style="stroke:#181818;stroke-width:1.0;" width="10" x="256.9063" y="381.716"/><rect fill="#FFFFFF" height="31.706" style="stroke:#181818;stroke-width:1.0;" width="10" x="438.3125" y="310.304"/><rect fill="#FFFFFF" height="458.8842" style="stroke:#181818;stroke-width:1.0;" width="10" x="550.3125" y="418.4221"/><rect fill="#FFFFFF" height="95.118" style="stroke:#181818;stroke-width:1.0;" width="10" x="555.3125" y="584.9521"/><rect fill="#FFFFFF" height="95.118" style="stroke:#181818;stroke-width:1.0;" width="10" x="555.3125" y="711.7762"/><rect fill="#FFFFFF" height="361.7662" style="stroke:#181818;stroke-width:1.0;" width="10" x="916.125" y="476.8341"/><rect fill="#FFFFFF" height="258.6481" style="stroke:#181818;stroke-width:1.0;" width="10" x="921.125" y="548.2461"/><rect fill="#FFFFFF" height="31.706" style="stroke:#181818;stroke-width:1.0;" width="10" x="1063.125" y="616.6582"/><rect fill="#FFFFFF" height="31.706" style="stroke:#181818;stroke-width:1.0;" width="10" x="1063.125" y="743.4822"/><rect fill="none" height="739.5324" style="stroke:#000000;stroke-width:1.5;" width="963.7188" x="204.9063" y="177.4799"/><rect fill="none" height="413.1782" style="stroke:#000000;stroke-width:1.5;" width="943.7188" x="214.9063" y="433.4221"/><line style="stroke:#181818;stroke-width:0.5;stroke-dasharray:5.0,5.0;" x1="23" x2="23" y1="84.0679" y2="934.0123"/><line style="stroke:#181818;stroke-width:0.5;stroke-dasharray:5.0,5.0;" x1="251.9063" x2="251.9063" y1="84.0679" y2="934.0123"/><line style="stroke:#181818;stroke-width:0.5;stroke-dasharray:5.0,5.0;" x1="442.8125" x2="442.8125" y1="84.0679" y2="934.0123"/><line style="stroke:#181818;stroke-width:0.5;stroke-dasharray:5.0,5.0;" x1="554.8125" x2="554.8125" y1="84.0679" y2="934.0123"/><line style="stroke:#181818;stroke-width:0.5;stroke-dasharray:5.0,5.0;" x1="920.625" x2="920.625" y1="84.0679" y2="934.0123"/><line style="stroke:#181818;stroke-width:0.5;stroke-dasharray:5.0,5.0;" x1="1067.625" x2="1067.625" y1="84.0679" y2="934.0123"/><text fill="#000000" font-family="sans-serif" font-size="14" lengthAdjust="spacing" textLength="31" x="5" y="79.9659">User</text><ellipse cx="23.5" cy="13.5" fill="#E2E2F0" rx="8" ry="8" style="stroke:#181818;stroke-width:0.5;"/><path d="M23.5,21.5 L23.5,48.5 M10.5,29.5 L36.5,29.5 M23.5,48.5 L10.5,63.5 M23.5,48.5 L36.5,63.5 " fill="none" style="stroke:#181818;stroke-width:0.5;"/><text fill="#000000" font-family="sans-serif" font-size="14" lengthAdjust="spacing" textLength="31" x="5" y="947.9782">User</text><ellipse cx="23.5" cy="960.5802" fill="#E2E2F0" rx="8" ry="8" style="stroke:#181818;stroke-width:0.5;"/><path d="M23.5,968.5802 L23.5,995.5802 M10.5,976.5802 L36.5,976.5802 M23.5,995.5802 L10.5,1010.5802 M23.5,995.5802 L36.5,1010.5802 " fill="none" style="stroke:#181818;stroke-width:0.5;"/><rect fill="#E2E2F0" height="33.0679" rx="2.5" ry="2.5" style="stroke:#181818;stroke-width:0.5;" width="54" x="224.9063" y="50"/><text fill="#000000" font-family="sans-serif" font-size="14" lengthAdjust="spacing" textLength="40" x="231.9063" y="71.9659">Editor</text><rect fill="#E2E2F0" height="33.0679" rx="2.5" ry="2.5" style="stroke:#181818;stroke-width:0.5;" width="54" x="224.9063" y="933.0123"/><text fill="#000000" font-family="sans-serif" font-size="14" lengthAdjust="spacing" textLength="40" x="231.9063" y="954.9782">Editor</text><rect fill="#E2E2F0" height="33.0679" rx="2.5" ry="2.5" style="stroke:#181818;stroke-width:0.5;" width="121" x="382.8125" y="50"/><text fill="#000000" font-family="sans-serif" font-size="14" lengthAdjust="spacing" textLength="107" x="389.8125" y="71.9659">Engine_runtime</text><rect fill="#E2E2F0" height="33.0679" rx="2.5" ry="2.5" style="stroke:#181818;stroke-width:0.5;" width="121" x="382.8125" y="933.0123"/><text fill="#000000" font-family="sans-serif" font-size="14" lengthAdjust="spacing" textLength="107" x="389.8125" y="954.9782">Engine_runtime</text><rect fill="#E2E2F0" height="33.0679" rx="2.5" ry="2.5" style="stroke:#181818;stroke-width:0.5;" width="83" x="513.8125" y="50"/><text fill="#000000" font-family="sans-serif" font-size="14" lengthAdjust="spacing" textLength="69" x="520.8125" y="71.9659">RHI_imgui</text><rect fill="#E2E2F0" height="33.0679" rx="2.5" ry="2.5" style="stroke:#181818;stroke-width:0.5;" width="83" x="513.8125" y="933.0123"/><text fill="#000000" font-family="sans-serif" font-size="14" lengthAdjust="spacing" textLength="69" x="520.8125" y="954.9782">RHI_imgui</text><rect fill="#E2E2F0" height="33.0679" rx="2.5" ry="2.5" style="stroke:#181818;stroke-width:0.5;" width="113" x="864.625" y="50"/><text fill="#000000" font-family="sans-serif" font-size="14" lengthAdjust="spacing" textLength="99" x="871.625" y="71.9659">Panel Instance</text><rect fill="#E2E2F0" height="33.0679" rx="2.5" ry="2.5" style="stroke:#181818;stroke-width:0.5;" width="113" x="864.625" y="933.0123"/><text fill="#000000" font-family="sans-serif" font-size="14" lengthAdjust="spacing" textLength="99" x="871.625" y="954.9782">Panel Instance</text><rect fill="#E2E2F0" height="33.0679" rx="2.5" ry="2.5" style="stroke:#181818;stroke-width:0.5;" width="161" x="987.625" y="50"/><text fill="#000000" font-family="sans-serif" font-size="14" lengthAdjust="spacing" textLength="147" x="994.625" y="71.9659">Engine Setting Object</text><rect fill="#E2E2F0" height="33.0679" rx="2.5" ry="2.5" style="stroke:#181818;stroke-width:0.5;" width="161" x="987.625" y="933.0123"/><text fill="#000000" font-family="sans-serif" font-size="14" lengthAdjust="spacing" textLength="147" x="994.625" y="954.9782">Engine Setting Object</text><rect fill="#FFFFFF" height="806.2384" style="stroke:#181818;stroke-width:1.0;" width="10" x="246.9063" y="117.7739"/><rect fill="#FFFFFF" height="680.1203" style="stroke:#181818;stroke-width:1.0;" width="10" x="251.9063" y="228.892"/><rect fill="#FFFFFF" height="68.412" style="stroke:#181818;stroke-width:1.0;" width="10" x="256.9063" y="273.598"/><rect fill="#FFFFFF" height="527.2963" style="stroke:#181818;stroke-width:1.0;" width="10" x="256.9063" y="381.716"/><rect fill="#FFFFFF" height="31.706" style="stroke:#181818;stroke-width:1.0;" width="10" x="438.3125" y="310.304"/><rect fill="#FFFFFF" height="458.8842" style="stroke:#181818;stroke-width:1.0;" width="10" x="550.3125" y="418.4221"/><rect fill="#FFFFFF" height="95.118" style="stroke:#181818;stroke-width:1.0;" width="10" x="555.3125" y="584.9521"/><rect fill="#FFFFFF" height="95.118" style="stroke:#181818;stroke-width:1.0;" width="10" x="555.3125" y="711.7762"/><rect fill="#FFFFFF" height="361.7662" style="stroke:#181818;stroke-width:1.0;" width="10" x="916.125" y="476.8341"/><rect fill="#FFFFFF" height="258.6481" style="stroke:#181818;stroke-width:1.0;" width="10" x="921.125" y="548.2461"/><rect fill="#FFFFFF" height="31.706" style="stroke:#181818;stroke-width:1.0;" width="10" x="1063.125" y="616.6582"/><rect fill="#FFFFFF" height="31.706" style="stroke:#181818;stroke-width:1.0;" width="10" x="1063.125" y="743.4822"/><polygon fill="#181818" points="234.9063,113.7739,244.9063,117.7739,234.9063,121.7739,238.9063,117.7739" style="stroke:#181818;stroke-width:1.0;"/><line style="stroke:#181818;stroke-width:1.0;" x1="23.5" x2="240.9063" y1="117.7739" y2="117.7739"/><text fill="#000000" font-family="sans-serif" font-size="13" font-weight="bold" lengthAdjust="spacing" textLength="7.4063" x="30.5" y="111.9649">1</text><text fill="#000000" font-family="sans-serif" font-size="13" lengthAdjust="spacing" textLength="193" x="41.9063" y="111.9649">starts application / initiates run()</text><line style="stroke:#181818;stroke-width:1.0;" x1="256.9063" x2="298.9063" y1="149.4799" y2="149.4799"/><line style="stroke:#181818;stroke-width:1.0;" x1="298.9063" x2="298.9063" y1="149.4799" y2="162.4799"/><line style="stroke:#181818;stroke-width:1.0;" x1="257.9063" x2="298.9063" y1="162.4799" y2="162.4799"/><polygon fill="#181818" points="267.9063,158.4799,257.9063,162.4799,267.9063,166.4799,263.9063,162.4799" style="stroke:#181818;stroke-width:1.0;"/><text fill="#000000" font-family="sans-serif" font-size="13" font-weight="bold" lengthAdjust="spacing" textLength="7.4063" x="263.9063" y="143.6709">2</text><text fill="#000000" font-family="sans-serif" font-size="13" lengthAdjust="spacing" textLength="29" x="275.3125" y="143.6709">run()</text><path d="M204.9063,177.4799 L278.5313,177.4799 L278.5313,187.186 L268.5313,197.186 L204.9063,197.186 L204.9063,177.4799 " fill="#EEEEEE" style="stroke:#000000;stroke-width:1.5;"/><rect fill="none" height="739.5324" style="stroke:#000000;stroke-width:1.5;" width="963.7188" x="204.9063" y="177.4799"/><text fill="#000000" font-family="sans-serif" font-size="13" font-weight="bold" lengthAdjust="spacing" textLength="28.625" x="219.9063" y="192.377">loop</text><text fill="#000000" font-family="sans-serif" font-size="11" font-weight="bold" lengthAdjust="spacing" textLength="233.4063" x="293.5313" y="191.2389">[continuous operation (one tick iteration)]</text><line style="stroke:#181818;stroke-width:1.0;" x1="256.9063" x2="303.9063" y1="215.892" y2="215.892"/><line style="stroke:#181818;stroke-width:1.0;" x1="303.9063" x2="303.9063" y1="215.892" y2="228.892"/><line style="stroke:#181818;stroke-width:1.0;" x1="262.9063" x2="303.9063" y1="228.892" y2="228.892"/><polygon fill="#181818" points="272.9063,224.892,262.9063,228.892,272.9063,232.892,268.9063,228.892" style="stroke:#181818;stroke-width:1.0;"/><text fill="#000000" font-family="sans-serif" font-size="13" font-weight="bold" lengthAdjust="spacing" textLength="7.4063" x="268.9063" y="210.083">3</text><text fill="#000000" font-family="sans-serif" font-size="13" lengthAdjust="spacing" textLength="29" x="280.3125" y="210.083">tick()</text><line style="stroke:#181818;stroke-width:1.0;" x1="261.9063" x2="308.9063" y1="260.598" y2="260.598"/><line style="stroke:#181818;stroke-width:1.0;" x1="308.9063" x2="308.9063" y1="260.598" y2="273.598"/><line style="stroke:#181818;stroke-width:1.0;" x1="267.9063" x2="308.9063" y1="273.598" y2="273.598"/><polygon fill="#181818" points="277.9063,269.598,267.9063,273.598,277.9063,277.598,273.9063,273.598" style="stroke:#181818;stroke-width:1.0;"/><text fill="#000000" font-family="sans-serif" font-size="13" font-weight="bold" lengthAdjust="spacing" textLength="7.4063" x="273.9063" y="254.789">4</text><text fill="#000000" font-family="sans-serif" font-size="13" lengthAdjust="spacing" textLength="83" x="285.3125" y="254.789">runtime_tick()</text><polygon fill="#181818" points="426.3125,306.304,436.3125,310.304,426.3125,314.304,430.3125,310.304" style="stroke:#181818;stroke-width:1.0;"/><line style="stroke:#181818;stroke-width:1.0;" x1="266.9063" x2="432.3125" y1="310.304" y2="310.304"/><text fill="#000000" font-family="sans-serif" font-size="13" font-weight="bold" lengthAdjust="spacing" textLength="7.4063" x="273.9063" y="304.495">5</text><text fill="#000000" font-family="sans-serif" font-size="13" lengthAdjust="spacing" textLength="29" x="285.3125" y="304.495">tick()</text><polygon fill="#181818" points="272.9063,338.01,262.9063,342.01,272.9063,346.01,268.9063,342.01" style="stroke:#181818;stroke-width:1.0;"/><line style="stroke:#181818;stroke-width:1.0;stroke-dasharray:2.0,2.0;" x1="266.9063" x2="442.3125" y1="342.01" y2="342.01"/><text fill="#000000" font-family="sans-serif" font-size="13" font-weight="bold" lengthAdjust="spacing" textLength="7.4063" x="278.9063" y="336.201">6</text><text fill="#000000" font-family="sans-serif" font-size="13" lengthAdjust="spacing" textLength="136" x="290.3125" y="336.201">(engine state updated)</text><line style="stroke:#181818;stroke-width:1.0;" x1="261.9063" x2="308.9063" y1="368.716" y2="368.716"/><line style="stroke:#181818;stroke-width:1.0;" x1="308.9063" x2="308.9063" y1="368.716" y2="381.716"/><line style="stroke:#181818;stroke-width:1.0;" x1="267.9063" x2="308.9063" y1="381.716" y2="381.716"/><polygon fill="#181818" points="277.9063,377.716,267.9063,381.716,277.9063,385.716,273.9063,381.716" style="stroke:#181818;stroke-width:1.0;"/><text fill="#000000" font-family="sans-serif" font-size="13" font-weight="bold" lengthAdjust="spacing" textLength="7.4063" x="273.9063" y="362.907">7</text><text fill="#000000" font-family="sans-serif" font-size="13" lengthAdjust="spacing" textLength="71" x="285.3125" y="362.907">editor_tick()</text><polygon fill="#181818" points="538.3125,414.4221,548.3125,418.4221,538.3125,422.4221,542.3125,418.4221" style="stroke:#181818;stroke-width:1.0;"/><line style="stroke:#181818;stroke-width:1.0;" x1="266.9063" x2="544.3125" y1="418.4221" y2="418.4221"/><text fill="#000000" font-family="sans-serif" font-size="13" font-weight="bold" lengthAdjust="spacing" textLength="7.4063" x="273.9063" y="412.6131">8</text><text fill="#000000" font-family="sans-serif" font-size="13" lengthAdjust="spacing" textLength="83" x="285.3125" y="412.6131">begin_frame()</text><path d="M214.9063,433.4221 L288.5313,433.4221 L288.5313,443.1281 L278.5313,453.1281 L214.9063,453.1281 L214.9063,433.4221 " fill="#EEEEEE" style="stroke:#000000;stroke-width:1.5;"/><rect fill="none" height="413.1782" style="stroke:#000000;stroke-width:1.5;" width="943.7188" x="214.9063" y="433.4221"/><text fill="#000000" font-family="sans-serif" font-size="13" font-weight="bold" lengthAdjust="spacing" textLength="28.625" x="229.9063" y="448.3191">loop</text><text fill="#000000" font-family="sans-serif" font-size="11" font-weight="bold" lengthAdjust="spacing" textLength="171.625" x="303.5313" y="447.181">[for each active Panel instance]</text><polygon fill="#181818" points="904.125,472.8341,914.125,476.8341,904.125,480.8341,908.125,476.8341" style="stroke:#181818;stroke-width:1.0;"/><line style="stroke:#181818;stroke-width:1.0;" x1="266.9063" x2="910.125" y1="476.8341" y2="476.8341"/><text fill="#000000" font-family="sans-serif" font-size="13" font-weight="bold" lengthAdjust="spacing" textLength="7.4063" x="273.9063" y="471.0251">9</text><text fill="#000000" font-family="sans-serif" font-size="13" lengthAdjust="spacing" textLength="48" x="285.3125" y="471.0251">render()</text><polygon fill="#181818" points="571.3125,504.5401,561.3125,508.5401,571.3125,512.5401,567.3125,508.5401" style="stroke:#181818;stroke-width:1.0;"/><line style="stroke:#181818;stroke-width:1.0;" x1="565.3125" x2="915.125" y1="508.5401" y2="508.5401"/><text fill="#000000" font-family="sans-serif" font-size="13" font-weight="bold" lengthAdjust="spacing" textLength="14.8125" x="577.3125" y="502.7311">10</text><text fill="#000000" font-family="sans-serif" font-size="13" lengthAdjust="spacing" textLength="88" x="596.125" y="502.7311">begin_render()</text><line style="stroke:#181818;stroke-width:1.0;" x1="926.125" x2="973.125" y1="535.2461" y2="535.2461"/><line style="stroke:#181818;stroke-width:1.0;" x1="973.125" x2="973.125" y1="535.2461" y2="548.2461"/><line style="stroke:#181818;stroke-width:1.0;" x1="932.125" x2="973.125" y1="548.2461" y2="548.2461"/><polygon fill="#181818" points="942.125,544.2461,932.125,548.2461,942.125,552.2461,938.125,548.2461" style="stroke:#181818;stroke-width:1.0;"/><text fill="#000000" font-family="sans-serif" font-size="13" font-weight="bold" lengthAdjust="spacing" textLength="14.8125" x="938.125" y="529.4371">11</text><text fill="#000000" font-family="sans-serif" font-size="13" lengthAdjust="spacing" textLength="77" x="956.9375" y="529.4371">draw_panel()</text><polygon fill="#181818" points="576.3125,580.9521,566.3125,584.9521,576.3125,588.9521,572.3125,584.9521" style="stroke:#181818;stroke-width:1.0;"/><line style="stroke:#181818;stroke-width:1.0;" x1="570.3125" x2="920.125" y1="584.9521" y2="584.9521"/><text fill="#000000" font-family="sans-serif" font-size="13" font-weight="bold" lengthAdjust="spacing" textLength="14.8125" x="582.3125" y="579.1431">12</text><text fill="#000000" font-family="sans-serif" font-size="13" lengthAdjust="spacing" textLength="313" x="601.125" y="579.1431">slider_float("shadow_bias", &amp;setting.shadow_bias, ...)</text><polygon fill="#181818" points="1051.125,612.6582,1061.125,616.6582,1051.125,620.6582,1055.125,616.6582" style="stroke:#181818;stroke-width:1.0;"/><line style="stroke:#181818;stroke-width:1.0;" x1="565.3125" x2="1057.125" y1="616.6582" y2="616.6582"/><text fill="#000000" font-family="sans-serif" font-size="13" font-weight="bold" lengthAdjust="spacing" textLength="14.8125" x="572.3125" y="610.8492">13</text><text fill="#000000" font-family="sans-serif" font-size="13" lengthAdjust="spacing" textLength="43" x="591.125" y="610.8492">update</text><polygon fill="#181818" points="576.3125,644.3642,566.3125,648.3642,576.3125,652.3642,572.3125,648.3642" style="stroke:#181818;stroke-width:1.0;"/><line style="stroke:#181818;stroke-width:1.0;stroke-dasharray:2.0,2.0;" x1="570.3125" x2="1067.125" y1="648.3642" y2="648.3642"/><text fill="#000000" font-family="sans-serif" font-size="13" font-weight="bold" lengthAdjust="spacing" textLength="14.8125" x="582.3125" y="642.5552">14</text><text fill="#000000" font-family="sans-serif" font-size="13" lengthAdjust="spacing" textLength="94" x="601.125" y="642.5552">(value updated)</text><polygon fill="#181818" points="909.125,676.0702,919.125,680.0702,909.125,684.0702,913.125,680.0702" style="stroke:#181818;stroke-width:1.0;"/><line style="stroke:#181818;stroke-width:1.0;stroke-dasharray:2.0,2.0;" x1="560.3125" x2="915.125" y1="680.0702" y2="680.0702"/><text fill="#000000" font-family="sans-serif" font-size="13" font-weight="bold" lengthAdjust="spacing" textLength="14.8125" x="567.3125" y="674.2612">15</text><text fill="#000000" font-family="sans-serif" font-size="13" lengthAdjust="spacing" textLength="214" x="586.125" y="674.2612">(UI widget rendered, input handled)</text><polygon fill="#181818" points="576.3125,707.7762,566.3125,711.7762,576.3125,715.7762,572.3125,711.7762" style="stroke:#181818;stroke-width:1.0;"/><line style="stroke:#181818;stroke-width:1.0;" x1="570.3125" x2="920.125" y1="711.7762" y2="711.7762"/><text fill="#000000" font-family="sans-serif" font-size="13" font-weight="bold" lengthAdjust="spacing" textLength="14.8125" x="582.3125" y="705.9672">16</text><text fill="#000000" font-family="sans-serif" font-size="13" lengthAdjust="spacing" textLength="289" x="601.125" y="705.9672">color_edit("ambient", &amp;setting.ambient_color, ...)</text><polygon fill="#181818" points="1051.125,739.4822,1061.125,743.4822,1051.125,747.4822,1055.125,743.4822" style="stroke:#181818;stroke-width:1.0;"/><line style="stroke:#181818;stroke-width:1.0;" x1="565.3125" x2="1057.125" y1="743.4822" y2="743.4822"/><text fill="#000000" font-family="sans-serif" font-size="13" font-weight="bold" lengthAdjust="spacing" textLength="14.8125" x="572.3125" y="737.6732">17</text><text fill="#000000" font-family="sans-serif" font-size="13" lengthAdjust="spacing" textLength="43" x="591.125" y="737.6732">update</text><polygon fill="#181818" points="576.3125,771.1882,566.3125,775.1882,576.3125,779.1882,572.3125,775.1882" style="stroke:#181818;stroke-width:1.0;"/><line style="stroke:#181818;stroke-width:1.0;stroke-dasharray:2.0,2.0;" x1="570.3125" x2="1067.125" y1="775.1882" y2="775.1882"/><text fill="#000000" font-family="sans-serif" font-size="13" font-weight="bold" lengthAdjust="spacing" textLength="14.8125" x="582.3125" y="769.3792">18</text><text fill="#000000" font-family="sans-serif" font-size="13" lengthAdjust="spacing" textLength="94" x="601.125" y="769.3792">(value updated)</text><polygon fill="#181818" points="904.125,802.8943,914.125,806.8943,904.125,810.8943,908.125,806.8943" style="stroke:#181818;stroke-width:1.0;"/><line style="stroke:#181818;stroke-width:1.0;stroke-dasharray:2.0,2.0;" x1="560.3125" x2="910.125" y1="806.8943" y2="806.8943"/><text fill="#000000" font-family="sans-serif" font-size="13" font-weight="bold" lengthAdjust="spacing" textLength="14.8125" x="567.3125" y="801.0853">19</text><text fill="#000000" font-family="sans-serif" font-size="13" lengthAdjust="spacing" textLength="214" x="586.125" y="801.0853">(UI widget rendered, input handled)</text><polygon fill="#181818" points="571.3125,834.6003,561.3125,838.6003,571.3125,842.6003,567.3125,838.6003" style="stroke:#181818;stroke-width:1.0;"/><line style="stroke:#181818;stroke-width:1.0;" x1="565.3125" x2="920.125" y1="838.6003" y2="838.6003"/><text fill="#000000" font-family="sans-serif" font-size="13" font-weight="bold" lengthAdjust="spacing" textLength="14.8125" x="577.3125" y="832.7913">20</text><text fill="#000000" font-family="sans-serif" font-size="13" lengthAdjust="spacing" textLength="77" x="596.125" y="832.7913">end_render()</text><polygon fill="#181818" points="277.9063,873.3063,267.9063,877.3063,277.9063,881.3063,273.9063,877.3063" style="stroke:#181818;stroke-width:1.0;"/><line style="stroke:#181818;stroke-width:1.0;stroke-dasharray:2.0,2.0;" x1="271.9063" x2="554.3125" y1="877.3063" y2="877.3063"/><text fill="#000000" font-family="sans-serif" font-size="13" font-weight="bold" lengthAdjust="spacing" textLength="14.8125" x="283.9063" y="871.4973">21</text><text fill="#000000" font-family="sans-serif" font-size="13" lengthAdjust="spacing" textLength="3" x="302.7188" y="871.4973">&#160;</text><polygon fill="#181818" points="543.3125,905.0123,553.3125,909.0123,543.3125,913.0123,547.3125,909.0123" style="stroke:#181818;stroke-width:1.0;"/><line style="stroke:#181818;stroke-width:1.0;" x1="256.9063" x2="549.3125" y1="909.0123" y2="909.0123"/><text fill="#000000" font-family="sans-serif" font-size="13" font-weight="bold" lengthAdjust="spacing" textLength="14.8125" x="263.9063" y="903.2033">22</text><text fill="#000000" font-family="sans-serif" font-size="13" lengthAdjust="spacing" textLength="72" x="282.7188" y="903.2033">end_frame()</text><!--SRC=[xLVDRjiu4BxhAGO-D0eGUzCqMnG-B8fjaZPfWWHDdAj0IsERBKKA9EKqVVeTaf8jARBXOj7T5eqEXZIS_ndEV6QbLRBCfwWZbbgbOMBejM3QyfGNJ5eupJZHsoGvvn8JNKhBSsmTVVfmdl1yNl8MTN3390eubyOocU80c05FIcfIcpqOW5kqbiivN4y_OsgzL4LA0YcAdBim_Alo4iP0whGrm8f2y9HPhYJy0Lnoovb50-Hpl1-vMFcI27LqbNXJKSKfb2eWLHIfB5LfG1MeWzfOaOlaynVWjgBjHq1FZpB75eVJhcbFt8D9aJbYAJFKuj55ZI495935JNgh4YHRz7SaMwNRv5cxlbv3MsxOT29kUWgb3oGBAZFSfhHvsah6YMOFW47_v7nJy85XzzXNlKcoKoHlafbcENPbrotiwVx7Ty6Cr937Yy2AeOEfjweEXkfP6sotk2iNkl9M1bj6ExUXFb-zx0MEFRFI0JdQXSgeJL9Mc5BuzZxFtrDuWSNrKA5LYiQir7GywatAoa2V5nbL9YcS5cBW1dXU2CnHKiLX-WZEx99UFGUaWXb3NbdbvS0KcF8PJwccW45icsjFqjSqldCAc_u_-TY3qw_CXU1SUk3P72qLr5tdrDrd6YU2Kqp9J2XcMvBRCzaKYmTcmJBra4mvCuC3U67231iro0Sm6etsMmPw-h5vlBP6fjjJaUo7IzYlhpD2cpmTFSDELF6IYR9pm-kdSPUt66XutLVWU5s5q8MO7L0zYjB2WibCR37QkRKx5pXLWcQ86oNVKTwrK3nW-PHJ8pSBMv4Ip_PZIWlFjQNQKcP1sGL1WA3PWE1ViBvzL6S_ipC-cv4v-geAj1uw3ICTXnipxrHce6RjqIVKdAVHZdELmksPgjzZUoMTCY7yCH7yLWe-j7DVRyXeOnutBqRdQxKMeTh6PrmomR-vGRx0QiLubWFQBqZ0pMqQb-ZLtkdVxhM-AgRM-Ww1xIJN5AYp0D7gECYCnnw_zIEtaBUdwECjgIlpdFnWpx3uPu35lmlY_St1xRz4fVyBSdp6Vxy4HdZ6SJztZRQ0e1y9hlupzDG3PZRHrrXcApIv4OG59bUNi4HjtC9zEJewF3eUlOhFD8SpdCBBrt3uQdnyE3xy4zxTte4xte_YzpUNooCmgjIKXOmRg_cq3ElvWYqPV0fxQWpN1SgBauyrWVROacibtT_rwEB-Qitm-dZuDxVKIvfyWVkhw0Hdh1GE2QKge_OQm-JkRFWckcHoNh8vkWH5xnJfrOzqTliF]--></g></svg>