<?xml version="1.0" encoding="us-ascii" standalone="no"?><svg xmlns="http://www.w3.org/2000/svg" xmlns:xlink="http://www.w3.org/1999/xlink" contentStyleType="text/css" height="882px" preserveAspectRatio="none" style="width:674px;height:882px;background:#FFFFFF;" version="1.1" viewBox="0 0 674 882" width="674px" zoomAndPan="magnify"><defs/><g><!--cluster Shadow_pass--><g id="cluster_Shadow_pass"><rect fill="none" height="251.48" rx="2.5" ry="2.5" style="stroke:#181818;stroke-width:1.0;" width="447" x="7" y="7"/><path d="M111.8125,7 L111.8125,19.0679 L101.8125,29.0679 L7,29.0679 " fill="none" style="stroke:#181818;stroke-width:1.0;"/><text fill="#000000" font-family="sans-serif" font-size="14" font-weight="bold" lengthAdjust="spacing" textLength="94.8125" x="10" y="22.9659">Shadow_pass</text></g><!--cluster Main_pass--><g id="cluster_Main_pass"><rect fill="none" height="232.4" rx="2.5" ry="2.5" style="stroke:#181818;stroke-width:1.0;" width="368" x="86" y="325.48"/><path d="M170.9375,325.48 L170.9375,337.5479 L160.9375,347.5479 L86,347.5479 " fill="none" style="stroke:#181818;stroke-width:1.0;"/><text fill="#000000" font-family="sans-serif" font-size="14" font-weight="bold" lengthAdjust="spacing" textLength="74.9375" x="89" y="341.4459">Main_pass</text></g><!--cluster Postprocess_pass--><g id="cluster_Postprocess_pass"><rect fill="none" height="251.48" rx="2.5" ry="2.5" style="stroke:#181818;stroke-width:1.0;" width="419" x="35" y="624.88"/><path d="M169,624.88 L169,636.9479 L159,646.9479 L35,646.9479 " fill="none" style="stroke:#181818;stroke-width:1.0;"/><text fill="#000000" font-family="sans-serif" font-size="14" font-weight="bold" lengthAdjust="spacing" textLength="124" x="38" y="640.8459">Postprocess_pass</text></g><!--class Shadow_pass--><g id="elem_Shadow_pass"><rect codeLine="3" fill="#F1F1F1" height="181.4754" id="Shadow_pass" rx="2.5" ry="2.5" style="stroke:#181818;stroke-width:0.5;" width="376" x="31" y="53"/><ellipse cx="169.75" cy="69" fill="#ADD1B2" rx="11" ry="11" style="stroke:#181818;stroke-width:1.0;"/><path d="M169.8594,64.5313 Q168.9375,64.5313 168.2031,64.8438 Q167.4844,65.1563 166.9844,65.75 Q166.4844,66.3281 166.2031,67.2031 Q165.9375,68.0781 165.9375,69.1719 Q165.9375,70.6094 166.375,71.6563 Q166.8281,72.7031 167.6719,73.25 Q168.5313,73.7969 169.8438,73.7969 Q170.625,73.7969 171.3125,73.6719 Q172.0156,73.5313 173.0156,73.2188 L173.0156,75.0938 Q172.1563,75.4219 171.3906,75.5469 Q170.6406,75.6719 169.625,75.6719 Q167.7031,75.6719 166.3906,74.875 Q165.0938,74.0625 164.4375,72.5938 Q163.7813,71.1094 163.7813,69.1406 Q163.7813,67.7188 164.1719,66.5469 Q164.5781,65.3594 165.3594,64.4844 Q166.1406,63.6094 167.2813,63.1406 Q168.4219,62.6563 169.8906,62.6563 Q170.8438,62.6563 171.7344,62.8594 Q172.6406,63.0469 173.5781,63.5156 L172.75,65.2969 Q171.9688,64.9219 171.3125,64.7344 Q170.6563,64.5313 169.8594,64.5313 Z " fill="#000000"/><text fill="#000000" font-family="sans-serif" font-size="14" lengthAdjust="spacing" textLength="90" x="190.25" y="74.432">Shadow_pass</text><line style="stroke:#181818;stroke-width:0.5;" x1="32" x2="406" y1="85" y2="85"/><rect fill="none" height="6" style="stroke:#C82930;stroke-width:1.0;" width="6" x="39" y="97.034"/><text fill="#000000" font-family="sans-serif" font-size="14" lengthAdjust="spacing" textLength="290" x="51" y="103.9659">m_context: Shadow_pass.Execution_context</text><rect fill="none" height="6" style="stroke:#C82930;stroke-width:1.0;" width="6" x="39" y="116.1019"/><text fill="#000000" font-family="sans-serif" font-size="14" lengthAdjust="spacing" textLength="350" x="51" y="123.0339">m_shadow_caster_material: Shadow_caster_material</text><rect fill="none" height="6" style="stroke:#C82930;stroke-width:1.0;" width="6" x="39" y="135.1698"/><text fill="#000000" font-family="sans-serif" font-size="14" lengthAdjust="spacing" textLength="170" x="51" y="142.1018">Frame_buffer: shadow_fb</text><line style="stroke:#181818;stroke-width:1.0;" x1="32" x2="406" y1="150.2038" y2="150.2038"/><ellipse cx="42" cy="165.2377" fill="#84BE84" rx="3" ry="3" style="stroke:#038048;stroke-width:1.0;"/><text fill="#000000" font-family="sans-serif" font-size="14" lengthAdjust="spacing" textLength="98" x="51" y="169.1697">Shadow_pass()</text><ellipse cx="42" cy="184.3056" fill="#84BE84" rx="3" ry="3" style="stroke:#038048;stroke-width:1.0;"/><text fill="#000000" font-family="sans-serif" font-size="14" lengthAdjust="spacing" textLength="223" x="51" y="188.2376">set_resource_flow(Resource_flow)</text><ellipse cx="42" cy="203.3735" fill="#84BE84" rx="3" ry="3" style="stroke:#038048;stroke-width:1.0;"/><text fill="#000000" font-family="sans-serif" font-size="14" lengthAdjust="spacing" textLength="203" x="51" y="207.3055">set_context(Execution_context)</text><ellipse cx="42" cy="222.4415" fill="#84BE84" rx="3" ry="3" style="stroke:#038048;stroke-width:1.0;"/><text fill="#000000" font-family="sans-serif" font-size="14" lengthAdjust="spacing" textLength="60" x="51" y="226.3734">execute()</text></g><!--class Main_pass--><g id="elem_Main_pass"><rect codeLine="30" fill="#F1F1F1" height="162.4075" id="Main_pass" rx="2.5" ry="2.5" style="stroke:#181818;stroke-width:0.5;" width="297" x="110.5" y="371.48"/><ellipse cx="219.25" cy="387.48" fill="#ADD1B2" rx="11" ry="11" style="stroke:#181818;stroke-width:1.0;"/><path d="M219.3594,383.0113 Q218.4375,383.0113 217.7031,383.3238 Q216.9844,383.6363 216.4844,384.23 Q215.9844,384.8081 215.7031,385.6831 Q215.4375,386.5581 215.4375,387.6519 Q215.4375,389.0894 215.875,390.1363 Q216.3281,391.1831 217.1719,391.73 Q218.0313,392.2769 219.3438,392.2769 Q220.125,392.2769 220.8125,392.1519 Q221.5156,392.0113 222.5156,391.6988 L222.5156,393.5738 Q221.6563,393.9019 220.8906,394.0269 Q220.1406,394.1519 219.125,394.1519 Q217.2031,394.1519 215.8906,393.355 Q214.5938,392.5425 213.9375,391.0738 Q213.2813,389.5894 213.2813,387.6206 Q213.2813,386.1988 213.6719,385.0269 Q214.0781,383.8394 214.8594,382.9644 Q215.6406,382.0894 216.7813,381.6206 Q217.9219,381.1363 219.3906,381.1363 Q220.3438,381.1363 221.2344,381.3394 Q222.1406,381.5269 223.0781,381.9956 L222.25,383.7769 Q221.4688,383.4019 220.8125,383.2144 Q220.1563,383.0113 219.3594,383.0113 Z " fill="#000000"/><text fill="#000000" font-family="sans-serif" font-size="14" lengthAdjust="spacing" textLength="71" x="239.75" y="392.912">Main_pass</text><line style="stroke:#181818;stroke-width:0.5;" x1="111.5" x2="406.5" y1="403.48" y2="403.48"/><rect fill="none" height="6" style="stroke:#C82930;stroke-width:1.0;" width="6" x="118.5" y="415.514"/><text fill="#000000" font-family="sans-serif" font-size="14" lengthAdjust="spacing" textLength="271" x="130.5" y="422.4459">m_context: Main_pass.Execution_context</text><rect fill="none" height="6" style="stroke:#C82930;stroke-width:1.0;" width="6" x="118.5" y="434.5819"/><text fill="#000000" font-family="sans-serif" font-size="14" lengthAdjust="spacing" textLength="152" x="130.5" y="441.5139">Frame_buffer: main_fb</text><line style="stroke:#181818;stroke-width:1.0;" x1="111.5" x2="406.5" y1="449.6158" y2="449.6158"/><ellipse cx="121.5" cy="464.6498" fill="#84BE84" rx="3" ry="3" style="stroke:#038048;stroke-width:1.0;"/><text fill="#000000" font-family="sans-serif" font-size="14" lengthAdjust="spacing" textLength="79" x="130.5" y="468.5818">Main_pass()</text><ellipse cx="121.5" cy="483.7177" fill="#84BE84" rx="3" ry="3" style="stroke:#038048;stroke-width:1.0;"/><text fill="#000000" font-family="sans-serif" font-size="14" lengthAdjust="spacing" textLength="223" x="130.5" y="487.6497">set_resource_flow(Resource_flow)</text><ellipse cx="121.5" cy="502.7856" fill="#84BE84" rx="3" ry="3" style="stroke:#038048;stroke-width:1.0;"/><text fill="#000000" font-family="sans-serif" font-size="14" lengthAdjust="spacing" textLength="203" x="130.5" y="506.7176">set_context(Execution_context)</text><ellipse cx="121.5" cy="521.8535" fill="#84BE84" rx="3" ry="3" style="stroke:#038048;stroke-width:1.0;"/><text fill="#000000" font-family="sans-serif" font-size="14" lengthAdjust="spacing" textLength="60" x="130.5" y="525.7855">execute()</text></g><!--class Postprocess_pass--><g id="elem_Postprocess_pass"><rect codeLine="59" fill="#F1F1F1" height="181.4754" id="Postprocess_pass" rx="2.5" ry="2.5" style="stroke:#181818;stroke-width:0.5;" width="348" x="59" y="670.88"/><ellipse cx="170.25" cy="686.88" fill="#ADD1B2" rx="11" ry="11" style="stroke:#181818;stroke-width:1.0;"/><path d="M170.3594,682.4113 Q169.4375,682.4113 168.7031,682.7238 Q167.9844,683.0363 167.4844,683.63 Q166.9844,684.2081 166.7031,685.0831 Q166.4375,685.9581 166.4375,687.0519 Q166.4375,688.4894 166.875,689.5363 Q167.3281,690.5831 168.1719,691.13 Q169.0313,691.6769 170.3438,691.6769 Q171.125,691.6769 171.8125,691.5519 Q172.5156,691.4113 173.5156,691.0988 L173.5156,692.9738 Q172.6563,693.3019 171.8906,693.4269 Q171.1406,693.5519 170.125,693.5519 Q168.2031,693.5519 166.8906,692.755 Q165.5938,691.9425 164.9375,690.4738 Q164.2813,688.9894 164.2813,687.0206 Q164.2813,685.5988 164.6719,684.4269 Q165.0781,683.2394 165.8594,682.3644 Q166.6406,681.4894 167.7813,681.0206 Q168.9219,680.5363 170.3906,680.5363 Q171.3438,680.5363 172.2344,680.7394 Q173.1406,680.9269 174.0781,681.3956 L173.25,683.1769 Q172.4688,682.8019 171.8125,682.6144 Q171.1563,682.4113 170.3594,682.4113 Z " fill="#000000"/><text fill="#000000" font-family="sans-serif" font-size="14" lengthAdjust="spacing" textLength="117" x="190.75" y="692.312">Postprocess_pass</text><line style="stroke:#181818;stroke-width:0.5;" x1="60" x2="406" y1="702.88" y2="702.88"/><rect fill="none" height="6" style="stroke:#C82930;stroke-width:1.0;" width="6" x="67" y="714.914"/><text fill="#000000" font-family="sans-serif" font-size="14" lengthAdjust="spacing" textLength="254" x="79" y="721.8459">m_gamma_material: Gamma_material</text><rect fill="none" height="6" style="stroke:#C82930;stroke-width:1.0;" width="6" x="67" y="733.9819"/><text fill="#000000" font-family="sans-serif" font-size="14" lengthAdjust="spacing" textLength="299" x="79" y="740.9139">m_screen_geometry: Screen_quad_geometry</text><rect fill="none" height="6" style="stroke:#C82930;stroke-width:1.0;" width="6" x="67" y="753.0498"/><text fill="#000000" font-family="sans-serif" font-size="14" lengthAdjust="spacing" textLength="322" x="79" y="759.9818">m_rhi_global_render_resource: Global_Resource</text><line style="stroke:#181818;stroke-width:1.0;" x1="60" x2="406" y1="768.0838" y2="768.0838"/><ellipse cx="70" cy="783.1177" fill="#84BE84" rx="3" ry="3" style="stroke:#038048;stroke-width:1.0;"/><text fill="#000000" font-family="sans-serif" font-size="14" lengthAdjust="spacing" textLength="125" x="79" y="787.0497">Postprocess_pass()</text><ellipse cx="70" cy="802.1856" fill="#84BE84" rx="3" ry="3" style="stroke:#038048;stroke-width:1.0;"/><text fill="#000000" font-family="sans-serif" font-size="14" lengthAdjust="spacing" textLength="223" x="79" y="806.1176">set_resource_flow(Resource_flow)</text><ellipse cx="70" cy="821.2535" fill="#84BE84" rx="3" ry="3" style="stroke:#038048;stroke-width:1.0;"/><text fill="#000000" font-family="sans-serif" font-size="14" lengthAdjust="spacing" textLength="322" x="79" y="825.1855">set_context(Execution_context) (currently empty)</text><ellipse cx="70" cy="840.3215" fill="#84BE84" rx="3" ry="3" style="stroke:#038048;stroke-width:1.0;"/><text fill="#000000" font-family="sans-serif" font-size="14" lengthAdjust="spacing" textLength="60" x="79" y="844.2534">execute()</text></g><!--link Shadow_pass to Main_pass--><g id="link_Shadow_pass_Main_pass"><path codeLine="73" d="M444,259.6469 C444,260.1868 444,260.7275 444,261.2687 C444,262.3512 444,263.4363 444,264.5238 C444,266.6988 444,268.8833 444,271.0754 C444,279.8439 444,288.7344 444,297.6275 C444,306.5206 444,315.4164 444,324.1953 C444,324.4696 444,318.7439 444,319.018 " fill="none" id="Shadow_pass-to-Main_pass" style="stroke:#181818;stroke-width:1.0;"/><polygon fill="#181818" points="444,325.018,448,316.018,444,320.018,440,316.018,444,325.018" style="stroke:#181818;stroke-width:1.0;"/><text fill="#000000" font-family="sans-serif" font-size="13" lengthAdjust="spacing" textLength="221" x="445" y="297.377">shadow_map_out -&gt; shadow_map_in</text></g><!--link Main_pass to Postprocess_pass--><g id="link_Main_pass_Postprocess_pass"><path codeLine="74" d="M444,558.9481 C444,559.4788 444,560.0104 444,560.5428 C444,562.6723 444,564.8151 444,566.9692 C444,571.2775 444,575.6312 444,580.0154 C444,588.7839 444,597.6744 444,606.5675 C444,611.0141 444,615.4613 444,619.8942 C444,621.0025 444,622.1098 444,623.216 C444,623.7691 444,618.322 444,618.8745 " fill="none" id="Main_pass-to-Postprocess_pass" style="stroke:#181818;stroke-width:1.0;"/><polygon fill="#181818" points="444,624.8745,448,615.8745,444,619.8745,440,615.8745,444,624.8745" style="stroke:#181818;stroke-width:1.0;"/><text fill="#000000" font-family="sans-serif" font-size="13" lengthAdjust="spacing" textLength="211" x="445" y="596.777">color_attachment_out -&gt; texture_in</text></g><!--SRC=[lPHBZfmm48RtdCAxPXJH1x1QR3APR39Ab3c0PKnrDnd0Zcr4jwBSFNxmC0OciuYoCQBgTptipoKeUwKNG2zNMlAU2AeKEfsU96qWpz6l125MMrlejrQ4CjGGnbiDDur3z_7J3LYdAzwExackl8fHfK6IXfgrelMqEx8FsrmjfEZEPv0O3I7EXVTccVj-20j87mQR0aqaADv91kHSypxz7lw5ig7IT5NxA0Bd01VxTsAMm_fWrfsxephuB8iULKy5uSKFO5fXzALI-lJL_ULkmsw6HGFhw8sDsfdxU0IXhyIMq4dO3HaTU1JF7lTIwAsJI5G2wge5ehI9C6InQmZByPZlfSEeKw0IKvaOA7ocLRlFuEpTGd3oxWAu9Acn-XL7KvJ_Iz4RnOUtydel-Cqz0Wab4LgUNfmfdoGIsl8jlaXV6J2UXolOe6skv1siLUqMQbR4UCqbeLfJTcsWrHxBZyuQQqiN8TR-3M7NU51MC4wSAvmZNd41te2Mzu3K6Id7gO_fkKGf5_OUQFqG8lgDAoqaPw3KFgahqSphXJOD3MRVvyN_F2gP16Z9MB9foXj-ThGaGIDUBQyLkTIye3KP01Y9DGcyVRpDYFUuqd-BFKfP9qr5khuZQ8I-Rpy4XEm97z0ZrHGzMTeAqBrf5zcIp8W81Wh6-_Cmo_BvHZ7UGnb7unAPRGkeatS4iRdYmyCujgmoRxqBct_Wt2PF_W00]--></g></svg>