<?xml version="1.0" encoding="us-ascii" standalone="no"?><svg xmlns="http://www.w3.org/2000/svg" xmlns:xlink="http://www.w3.org/1999/xlink" contentStyleType="text/css" height="802px" preserveAspectRatio="none" style="width:611px;height:802px;background:#FFFFFF;" version="1.1" viewBox="0 0 611 802" width="611px" zoomAndPan="magnify"><defs/><g><ellipse cx="305.5" cy="20" fill="#222222" rx="10" ry="10" style="stroke:#222222;stroke-width:1.0;"/><rect fill="#F1F1F1" height="36.3441" rx="12.5" ry="12.5" style="stroke:#181818;stroke-width:0.5;" width="273" x="169" y="50"/><text fill="#000000" font-family="sans-serif" font-size="12" lengthAdjust="spacing" textLength="253" x="179" y="72.8281">&#33719;&#21462; light_projected_depth&#65288;receiver_depth&#65289;</text><rect fill="#F1F1F1" height="52.6882" rx="12.5" ry="12.5" style="stroke:#181818;stroke-width:0.5;" width="560" x="25.5" y="106.3441"/><text fill="#000000" font-family="sans-serif" font-size="12" lengthAdjust="spacing" textLength="164" x="35.5" y="129.1722">&#35745;&#31639;&#25628;&#32034;&#21322;&#24452; search_radius\n</text><text fill="#000000" font-family="sans-serif" font-size="12" lengthAdjust="spacing" textLength="540" x="35.5" y="145.5163">search_radius = ((light_space_depth - near_plane) / light_space_depth) * (light_size / frustum_size)</text><rect fill="#F1F1F1" height="36.3441" rx="12.5" ry="12.5" style="stroke:#181818;stroke-width:0.5;" width="188" x="211.5" y="179.0323"/><text fill="#000000" font-family="sans-serif" font-size="12" lengthAdjust="spacing" textLength="168" x="221.5" y="201.8604">&#20351;&#29992; search_radius &#29983;&#25104;&#37319;&#26679;&#28857;</text><rect fill="#F1F1F1" height="52.6882" rx="12.5" ry="12.5" style="stroke:#181818;stroke-width:0.5;" width="179" x="216" y="235.3765"/><text fill="#000000" font-family="sans-serif" font-size="12" lengthAdjust="spacing" textLength="156" x="226" y="258.2045">&#33719;&#21462;&#37319;&#26679;&#21306;&#22495;&#20869;&#30340;&#28145;&#24230;&#20540;&#21015;&#34920;</text><text fill="#000000" font-family="sans-serif" font-size="12" lengthAdjust="spacing" textLength="159" x="226" y="274.5487">&#65288;&#36890;&#36807; get_sampled_depth&#65289;</text><rect fill="#F1F1F1" height="36.3441" rx="12.5" ry="12.5" style="stroke:#181818;stroke-width:0.5;" width="208" x="201.5" y="308.0647"/><text fill="#000000" font-family="sans-serif" font-size="12" lengthAdjust="spacing" textLength="188" x="211.5" y="330.8928">&#26597;&#25214;&#36974;&#25377;&#29289;&#65288;find_blocker_depth&#65289;</text><polygon fill="#F1F1F1" points="270,364.4088,341,364.4088,353,376.4088,341,388.4088,270,388.4088,258,376.4088,270,364.4088" style="stroke:#181818;stroke-width:0.5;"/><text fill="#000000" font-family="sans-serif" font-size="11" lengthAdjust="spacing" textLength="71" x="270" y="380.6768">&#25214;&#21040;&#20102;&#36974;&#25377;&#29289;?</text><text fill="#000000" font-family="sans-serif" font-size="11" lengthAdjust="spacing" textLength="11" x="247" y="373.1858">&#26159;</text><text fill="#000000" font-family="sans-serif" font-size="11" lengthAdjust="spacing" textLength="11" x="353" y="373.1858">&#21542;</text><rect fill="#F1F1F1" height="52.6882" rx="12.5" ry="12.5" style="stroke:#181818;stroke-width:0.5;" width="330" x="13" y="398.4088"/><text fill="#000000" font-family="sans-serif" font-size="12" lengthAdjust="spacing" textLength="141" x="23" y="421.2369">&#35745;&#31639; avg_blocker_depth\n</text><text fill="#000000" font-family="sans-serif" font-size="12" lengthAdjust="spacing" textLength="310" x="23" y="437.581">avg_blocker_depth = blocker_depth_sum / blocker_count</text><rect fill="#F1F1F1" height="36.3441" rx="12.5" ry="12.5" style="stroke:#181818;stroke-width:0.5;" width="140" x="363" y="398.4088"/><text fill="#000000" font-family="sans-serif" font-size="12" lengthAdjust="spacing" textLength="120" x="373" y="421.2369">&#36820;&#22238; -1.0&#65288;&#30452;&#25509;&#29031;&#20142;&#65289;</text><ellipse cx="433" cy="480.7529" fill="none" rx="11" ry="11" style="stroke:#222222;stroke-width:1.0;"/><ellipse cx="433" cy="480.7529" fill="#222222" rx="6" ry="6" style="stroke:#222222;stroke-width:1.0;"/><rect fill="#F1F1F1" height="52.6882" rx="12.5" ry="12.5" style="stroke:#181818;stroke-width:0.5;" width="589" x="11" y="511.7529"/><text fill="#000000" font-family="sans-serif" font-size="12" lengthAdjust="spacing" textLength="184" x="21" y="534.581">&#35745;&#31639;&#21322;&#24433;&#21322;&#24452; penumbra_radius\n</text><text fill="#000000" font-family="sans-serif" font-size="12" lengthAdjust="spacing" textLength="569" x="21" y="550.9251">penumbra_radius = ((receiver_depth - avg_blocker_depth) / receiver_depth) * (light_size / frustum_size)</text><rect fill="#F1F1F1" height="36.3441" rx="12.5" ry="12.5" style="stroke:#181818;stroke-width:0.5;" width="232" x="189.5" y="584.4411"/><text fill="#000000" font-family="sans-serif" font-size="12" lengthAdjust="spacing" textLength="212" x="199.5" y="607.2692">&#20351;&#29992; penumbra_radius &#29983;&#25104;&#26032;&#30340;&#37319;&#26679;&#28857;</text><rect fill="#F1F1F1" height="52.6882" rx="12.5" ry="12.5" style="stroke:#181818;stroke-width:0.5;" width="140" x="235.5" y="640.7853"/><text fill="#000000" font-family="sans-serif" font-size="12" lengthAdjust="spacing" textLength="75" x="245.5" y="663.6133">&#25191;&#34892; PCF &#28388;&#27874;</text><text fill="#000000" font-family="sans-serif" font-size="12" lengthAdjust="spacing" textLength="120" x="245.5" y="679.9575">&#65288;&#20351;&#29992;&#21160;&#24577;&#28388;&#27874;&#21322;&#24452;&#65289;</text><rect fill="#F1F1F1" height="36.3441" rx="12.5" ry="12.5" style="stroke:#181818;stroke-width:0.5;" width="116" x="247.5" y="713.4735"/><text fill="#000000" font-family="sans-serif" font-size="12" lengthAdjust="spacing" textLength="96" x="257.5" y="736.3016">&#36755;&#20986;&#26580;&#21644;&#38452;&#24433;&#32467;&#26524;</text><ellipse cx="305.5" cy="780.8176" fill="none" rx="11" ry="11" style="stroke:#222222;stroke-width:1.0;"/><ellipse cx="305.5" cy="780.8176" fill="#222222" rx="6" ry="6" style="stroke:#222222;stroke-width:1.0;"/><line style="stroke:#181818;stroke-width:1.0;" x1="305.5" x2="305.5" y1="30" y2="50"/><polygon fill="#181818" points="301.5,40,305.5,50,309.5,40,305.5,44" style="stroke:#181818;stroke-width:1.0;"/><line style="stroke:#181818;stroke-width:1.0;" x1="305.5" x2="305.5" y1="86.3441" y2="106.3441"/><polygon fill="#181818" points="301.5,96.3441,305.5,106.3441,309.5,96.3441,305.5,100.3441" style="stroke:#181818;stroke-width:1.0;"/><line style="stroke:#181818;stroke-width:1.0;" x1="305.5" x2="305.5" y1="159.0323" y2="179.0323"/><polygon fill="#181818" points="301.5,169.0323,305.5,179.0323,309.5,169.0323,305.5,173.0323" style="stroke:#181818;stroke-width:1.0;"/><line style="stroke:#181818;stroke-width:1.0;" x1="305.5" x2="305.5" y1="215.3765" y2="235.3765"/><polygon fill="#181818" points="301.5,225.3765,305.5,235.3765,309.5,225.3765,305.5,229.3765" style="stroke:#181818;stroke-width:1.0;"/><line style="stroke:#181818;stroke-width:1.0;" x1="305.5" x2="305.5" y1="288.0647" y2="308.0647"/><polygon fill="#181818" points="301.5,298.0647,305.5,308.0647,309.5,298.0647,305.5,302.0647" style="stroke:#181818;stroke-width:1.0;"/><line style="stroke:#181818;stroke-width:1.0;" x1="433" x2="433" y1="434.7529" y2="469.7529"/><polygon fill="#181818" points="429,459.7529,433,469.7529,437,459.7529,433,463.7529" style="stroke:#181818;stroke-width:1.0;"/><line style="stroke:#181818;stroke-width:1.0;" x1="258" x2="178" y1="376.4088" y2="376.4088"/><line style="stroke:#181818;stroke-width:1.0;" x1="178" x2="178" y1="376.4088" y2="398.4088"/><polygon fill="#181818" points="174,388.4088,178,398.4088,182,388.4088,178,392.4088" style="stroke:#181818;stroke-width:1.0;"/><line style="stroke:#181818;stroke-width:1.0;" x1="353" x2="433" y1="376.4088" y2="376.4088"/><line style="stroke:#181818;stroke-width:1.0;" x1="433" x2="433" y1="376.4088" y2="398.4088"/><polygon fill="#181818" points="429,388.4088,433,398.4088,437,388.4088,433,392.4088" style="stroke:#181818;stroke-width:1.0;"/><line style="stroke:#181818;stroke-width:1.0;" x1="178" x2="178" y1="451.097" y2="496.7529"/><line style="stroke:#181818;stroke-width:1.0;" x1="178" x2="305.5" y1="496.7529" y2="496.7529"/><line style="stroke:#181818;stroke-width:1.0;" x1="305.5" x2="305.5" y1="496.7529" y2="511.7529"/><polygon fill="#181818" points="301.5,501.7529,305.5,511.7529,309.5,501.7529,305.5,505.7529" style="stroke:#181818;stroke-width:1.0;"/><line style="stroke:#181818;stroke-width:1.0;" x1="305.5" x2="305.5" y1="344.4088" y2="364.4088"/><polygon fill="#181818" points="301.5,354.4088,305.5,364.4088,309.5,354.4088,305.5,358.4088" style="stroke:#181818;stroke-width:1.0;"/><line style="stroke:#181818;stroke-width:1.0;" x1="305.5" x2="305.5" y1="564.4411" y2="584.4411"/><polygon fill="#181818" points="301.5,574.4411,305.5,584.4411,309.5,574.4411,305.5,578.4411" style="stroke:#181818;stroke-width:1.0;"/><line style="stroke:#181818;stroke-width:1.0;" x1="305.5" x2="305.5" y1="620.7853" y2="640.7853"/><polygon fill="#181818" points="301.5,630.7853,305.5,640.7853,309.5,630.7853,305.5,634.7853" style="stroke:#181818;stroke-width:1.0;"/><line style="stroke:#181818;stroke-width:1.0;" x1="305.5" x2="305.5" y1="693.4735" y2="713.4735"/><polygon fill="#181818" points="301.5,703.4735,305.5,713.4735,309.5,703.4735,305.5,707.4735" style="stroke:#181818;stroke-width:1.0;"/><line style="stroke:#181818;stroke-width:1.0;" x1="305.5" x2="305.5" y1="749.8176" y2="769.8176"/><polygon fill="#181818" points="301.5,759.8176,305.5,769.8176,309.5,759.8176,305.5,763.8176" style="stroke:#181818;stroke-width:1.0;"/><!--SRC=[ZPBBJi9058RtVOgpf2RUjXBZmiIr3s3Ir7Q0QXcQTkh25HeLCAX4YHenLemNtA164c9LU1bc1bQ-WjDMC9MDotFcFxV_6uUeDf6akVvXcnwTWccaCqInxDmQqWZI5HrP9FFrKRIHXemDP0yJfMHGqwppvXchNFBM3JtOfvqTS91gQnd5LdN3TLQm58jX7XA9Q89ZgHgAci4aOA5IB5F5I8Pf65F8C073EcCJ2KdATXtYPiDG3bRfVNPvjH4V3xpgiM9bK2YmwpRVVakEpenIjEnJpwDxk_nYXxLVg7zFyn-qUDQlDrQmk7cGl-Xt2v16OgoQjSnVEyBhcNV7Ift1LfELwxpqA0fI1jQLLJEdhSUCCbAG44fQVExvUoFzWWmaWx1uEd-I9O0VDq7TICTx21TXF2kyZCMAusQ5CSESbdCnIKh8T10aQEK-cj2jqjeLJCvEpOXjUQt53k_uxaFFRuPx0ZWaPqa8wqPgH3VW-ldoGzT2sCskskeltp-Pa73yhmYyOyi7bEEg_oF-Ep62p4wV1SKOQbPwwDVBiBou1EpzbhtUX52ZBdI_mV9RKJgwRVYbEoUqu3ElIe_BW_EME9s_dx2hI_4McFCD]--></g></svg>