<?xml version="1.0" encoding="us-ascii" standalone="no"?><svg xmlns="http://www.w3.org/2000/svg" xmlns:xlink="http://www.w3.org/1999/xlink" contentStyleType="text/css" height="804px" preserveAspectRatio="none" style="width:661px;height:804px;background:#FFFFFF;" version="1.1" viewBox="0 0 661 804" width="661px" zoomAndPan="magnify"><defs/><g><!--cluster ?????--><g id="cluster_&#28210;&#26579;&#22120;&#31995;&#32479;"><rect fill="none" height="603" rx="2.5" ry="2.5" style="stroke:#181818;stroke-width:1.0;" width="469.81" x="185.38" y="7"/><text fill="#000000" font-family="sans-serif" font-size="14" font-weight="bold" lengthAdjust="spacing" textLength="72.1875" x="384.1913" y="23.9659">&#28210;&#26579;&#22120;&#31995;&#32479;</text></g><g id="elem_UC_UI"><ellipse cx="300.9993" cy="355.9999" fill="#F1F1F1" rx="83.0993" ry="19.0199" style="stroke:#181818;stroke-width:0.5;"/><text fill="#000000" font-family="sans-serif" font-size="14" lengthAdjust="spacing" textLength="112" x="241.9993" y="360.7328">&#20351;&#29992;&#30452;&#35266;&#29992;&#25143;&#30028;&#38754;</text></g><g id="elem_UC_ImportModel"><ellipse cx="300.998" cy="427.001" fill="#F1F1F1" rx="52.538" ry="16.891" style="stroke:#181818;stroke-width:0.5;"/><text fill="#000000" font-family="sans-serif" font-size="14" lengthAdjust="spacing" textLength="56" x="269.998" y="431.734">&#23548;&#20837;&#27169;&#22411;</text></g><g id="elem_UC_AdjustMaterial"><ellipse cx="300.9966" cy="61.9953" fill="#F1F1F1" rx="73.4266" ry="17.0853" style="stroke:#181818;stroke-width:0.5;"/><text fill="#000000" font-family="sans-serif" font-size="14" lengthAdjust="spacing" textLength="84" x="255.9966" y="66.7283">&#35843;&#25972;&#26448;&#36136;&#21442;&#25968;</text></g><g id="elem_UC_SetLighting"><ellipse cx="300.9966" cy="130.9953" fill="#F1F1F1" rx="73.4266" ry="17.0853" style="stroke:#181818;stroke-width:0.5;"/><text fill="#000000" font-family="sans-serif" font-size="14" lengthAdjust="spacing" textLength="84" x="255.9966" y="135.7283">&#35774;&#32622;&#20809;&#29031;&#29615;&#22659;</text></g><g id="elem_UC_RealtimePreview"><ellipse cx="300.9993" cy="282.9999" fill="#F1F1F1" rx="83.0993" ry="19.0199" style="stroke:#181818;stroke-width:0.5;"/><text fill="#000000" font-family="sans-serif" font-size="14" lengthAdjust="spacing" textLength="112" x="241.9993" y="287.7328">&#23454;&#26102;&#39044;&#35272;&#28210;&#26579;&#25928;&#26524;</text></g><g id="elem_UC_CreateRealisticMaterials"><ellipse cx="561.0926" cy="390.9985" fill="#F1F1F1" rx="78.0926" ry="18.0185" style="stroke:#181818;stroke-width:0.5;"/><text fill="#000000" font-family="sans-serif" font-size="14" lengthAdjust="spacing" textLength="98" x="509.0926" y="395.7315">&#21019;&#20316;&#30495;&#23454;&#24863;&#26448;&#36136;</text></g><g id="elem_GMN10"><path d="M215.5,183.29 L215.5,228.702 L386.5,228.702 L386.5,193.29 L376.5,183.29 L215.5,183.29 " fill="#FEFFDD" style="stroke:#181818;stroke-width:0.5;"/><path d="M376.5,183.29 L376.5,193.29 L386.5,193.29 L376.5,183.29 " fill="#FEFFDD" style="stroke:#181818;stroke-width:1.0;"/><text fill="#000000" font-family="sans-serif" font-size="13" lengthAdjust="spacing" textLength="118" x="221.5" y="202.187">&#25903;&#25345;Phong&#20809;&#29031;&#27169;&#22411;</text><text fill="#000000" font-family="sans-serif" font-size="13" lengthAdjust="spacing" textLength="150" x="221.5" y="219.893">(&#28459;&#21453;&#23556;, &#38236;&#38754;&#21453;&#23556;, &#29615;&#22659;&#20809;)</text></g><g id="elem_UC_ControlLights"><ellipse cx="301.0026" cy="496.9985" fill="#F1F1F1" rx="78.0926" ry="18.0185" style="stroke:#181818;stroke-width:0.5;"/><text fill="#000000" font-family="sans-serif" font-size="14" lengthAdjust="spacing" textLength="98" x="249.0026" y="501.7315">&#24067;&#32622;&#21644;&#25511;&#21046;&#20809;&#28304;</text></g><g id="elem_UC_CameraControl"><ellipse cx="300.9973" cy="572.0035" fill="#F1F1F1" rx="99.6173" ry="22.3235" style="stroke:#181818;stroke-width:0.5;"/><text fill="#000000" font-family="sans-serif" font-size="14" lengthAdjust="spacing" textLength="154" x="220.9973" y="576.7364">&#36827;&#34892;&#30456;&#26426;&#25511;&#21046;&#21644;&#22330;&#26223;&#23548;&#33322;</text></g><!--entity artist--><g id="elem_artist"><ellipse cx="36" cy="395.97" fill="#F1F1F1" rx="8" ry="8" style="stroke:#181818;stroke-width:0.5;"/><path d="M36,403.97 L36,430.97 M23,411.97 L49,411.97 M36,430.97 L23,445.97 M36,430.97 L49,445.97 " fill="none" style="stroke:#181818;stroke-width:0.5;"/><text fill="#000000" font-family="sans-serif" font-size="14" lengthAdjust="spacing" textLength="60" x="6" y="462.4359">3D&#33402;&#26415;&#23478;</text></g><g id="elem_GMN25"><path d="M180,629.44 L180,692.558 L422,692.558 L422,639.44 L412,629.44 L180,629.44 " fill="#FEFFDD" style="stroke:#181818;stroke-width:0.5;"/><path d="M412,629.44 L412,639.44 L422,639.44 L412,629.44 " fill="#FEFFDD" style="stroke:#181818;stroke-width:1.0;"/><text fill="#000000" font-family="sans-serif" font-size="13" lengthAdjust="spacing" textLength="143" x="186" y="648.337">&#26356;&#20851;&#27880;&#28210;&#26579;&#22120;&#30340;&#26131;&#29992;&#24615;&#12289;</text><text fill="#000000" font-family="sans-serif" font-size="13" lengthAdjust="spacing" textLength="221" x="186" y="666.043">&#35270;&#35273;&#34920;&#29616;&#21147;&#12289;&#33402;&#26415;&#21019;&#20316;&#27969;&#31243;&#30340;&#27969;&#30021;&#24615;&#12290;</text><text fill="#000000" font-family="sans-serif" font-size="13" lengthAdjust="spacing" textLength="201" x="186" y="683.749">&#26680;&#24515;&#38656;&#27714;: &#24555;&#36895;&#36845;&#20195;&#21644;&#25152;&#35265;&#21363;&#25152;&#24471;&#12290;</text></g><!--link GMN10 to UC_CreateRealisticMaterials--><g id="link_GMN10_UC_CreateRealisticMaterials"><path d="M386.7,228.39 C399,233.29 411.16,239.11 422,246 C477.17,281.03 525.78,342.81 547.72,373.16 " fill="none" id="GMN10-UC_CreateRealisticMaterials" style="stroke:#181818;stroke-width:1.0;stroke-dasharray:7.0,7.0;"/></g><!--link artist to UC_UI--><g id="link_artist_UC_UI"><path d="M66.26,412.74 C75.61,408.55 86.11,404.24 96,401 C140.81,386.34 192.72,374.97 232.96,367.32 " fill="none" id="artist-UC_UI" style="stroke:#181818;stroke-width:1.0;"/></g><!--link artist to UC_ImportModel--><g id="link_artist_UC_ImportModel"><path d="M66.4,427 C110.37,427 193.87,427 248.21,427 " fill="none" id="artist-UC_ImportModel" style="stroke:#181818;stroke-width:1.0;"/></g><!--link artist to UC_AdjustMaterial--><g id="link_artist_UC_AdjustMaterial"><path d="M39.73,387.18 C45.54,313.71 61.52,160.81 96,122 C128.98,84.88 183.61,70.2 228.05,64.63 " fill="none" id="artist-UC_AdjustMaterial" style="stroke:#181818;stroke-width:1.0;"/></g><!--link artist to UC_SetLighting--><g id="link_artist_UC_SetLighting"><path d="M40.49,387.14 C47.12,321.08 63.84,193.16 96,163 C132.48,128.79 189.78,122.36 234.37,123.6 " fill="none" id="artist-UC_SetLighting" style="stroke:#181818;stroke-width:1.0;"/></g><!--link artist to UC_RealtimePreview--><g id="link_artist_UC_RealtimePreview"><path d="M66.3,394.88 C75.39,385.71 85.73,376.03 96,368 C129.26,341.99 138.73,335.98 177.38,319 C197.8,310.04 221.08,302.56 241.84,296.79 " fill="none" id="artist-UC_RealtimePreview" style="stroke:#181818;stroke-width:1.0;"/></g><!--link artist to UC_CreateRealisticMaterials--><g id="link_artist_UC_CreateRealisticMaterials"><path d="M42.16,466.79 C53.2,532.9 86.05,662.74 177.38,710 C273.94,759.96 331.13,769.68 422,710 C529.19,639.6 553.58,466.27 558.77,409.4 " fill="none" id="artist-UC_CreateRealisticMaterials" style="stroke:#181818;stroke-width:1.0;"/></g><!--link artist to UC_ControlLights--><g id="link_artist_UC_ControlLights"><path d="M66.4,434.83 C110.5,446.56 194.38,468.89 248.71,483.35 " fill="none" id="artist-UC_ControlLights" style="stroke:#181818;stroke-width:1.0;"/></g><!--link artist to UC_CameraControl--><g id="link_artist_UC_CameraControl"><path d="M66.47,454.01 C93.57,477.64 135.74,511.46 177.38,533 C194.74,541.98 214.56,549.38 233.13,555.23 " fill="none" id="artist-UC_CameraControl" style="stroke:#181818;stroke-width:1.0;"/></g><!--link UC_RealtimePreview to UC_AdjustMaterial--><g id="link_UC_RealtimePreview_UC_AdjustMaterial"><path d="M236.15,270.69 C193.93,258.58 143.56,235.12 126.1,190.5 C109.48,148.02 170.65,100.82 177.38,96 C194.76,83.56 210.663,77.1003 231.033,72.1003 " fill="none" id="UC_RealtimePreview-to-UC_AdjustMaterial" style="stroke:#181818;stroke-width:1.0;stroke-dasharray:7.0,7.0;"/><polygon fill="#181818" points="236.86,70.67,227.1659,68.9308,232.0041,71.8619,229.073,76.7001,236.86,70.67" style="stroke:#181818;stroke-width:1.0;"/><text fill="#000000" font-family="sans-serif" font-size="13" lengthAdjust="spacing" textLength="52" x="97" y="186.397">&#23454;&#26102;&#21453;&#39304;</text></g><!--link UC_RealtimePreview to UC_SetLighting--><g id="link_UC_RealtimePreview_UC_SetLighting"><path d="M219.15,279.25 C184.69,273.1 147.65,259.52 126.1,230.5 C91.01,183.24 172.0256,156.3584 235.5056,142.6284 " fill="none" id="UC_RealtimePreview-to-UC_SetLighting" style="stroke:#181818;stroke-width:1.0;stroke-dasharray:7.0,7.0;"/><polygon fill="#181818" points="241.37,141.36,231.7278,139.353,236.483,142.417,233.419,147.1722,241.37,141.36" style="stroke:#181818;stroke-width:1.0;"/><text fill="#000000" font-family="sans-serif" font-size="13" lengthAdjust="spacing" textLength="52" x="97" y="226.397">&#23454;&#26102;&#21453;&#39304;</text></g><!--link artist to GMN25--><g id="link_artist_GMN25"><path d="M57.63,466.86 C81.17,508.5 123.48,572.84 177.38,610 C187.63,617.07 199.01,623.42 210.59,629.05 " fill="none" id="artist-GMN25" style="stroke:#181818;stroke-width:1.0;stroke-dasharray:7.0,7.0;"/></g><text fill="#000000" font-family="sans-serif" font-size="14" lengthAdjust="spacing" textLength="102" x="272.595" y="791.6459">3D&#33402;&#26415;&#23478;&#29992;&#20363;&#22270;</text><!--SRC=[VLHDRzD04BtxLwno0ebouTO34YgNIbIgGBqX8IlPfaQENTbRE22aV2A7f6dLrYh5RaA2m1OLII0XH4cJ_1Yok_Q_O1t78KkatDOxxurdvhrP6UuZW5IWISa311AI1kD8KXL1Z2DL0x47ZxtYWDWjtEp5WAW3KKEIZWGXW8bAKeOWHle_IUqSNxcqCwJ3MWoy4G0uqc5Sr5bqEfhG2vTQNS_9iWCnVbEpx5ytPjdsjbxiRI-ZSUiM5xuGjuwhfGYndJfKDRIZ9g2y3FNQEM9soVMfrtNnIPQOxOZmAF7oI4Sx8eAQ9FASvfYEchXGf0M7LbguaOiupo1w4an0Kf9SFSqgkUpvZRpd666Vn3H8rOveJw4e8oa5TpNuIeAlEQfXJKSsjMj1ZdmjB3JYRMcGbHUmsJIbU5IhpX8eAe903bHHzzT1mIOW5orIpkmUg4eox2aSt7Fb3hczmIV7k9s_1tpJPkEEliAk6VekLsi_5ypbh4mg3ZPwB4m6fujQLGLfgZmRZyvDSs9vzJAr-iGUp8bdPSpELoscesTyMsGGKr0Jvta4bY9q4TZOM3Y0k-4Lvq8hsd9HNaKkjAeK5ruZ28_xRnXyaE-JXLT_3Eu_NEs3QJct6jF9_sh4rb6Ncbpb2My5OUQWS9-PXUOR2m2nkhZG8Httty9-p9CFvy5Mffq_wGp3UCuxpobwTPTMslYznIxdwpypC_cLeMufOB63MPYnia7cJtqyoVbsclp8RW8ykV7JDM_oVJhy75YgcFQS33xki0CUNmOCg2HcDXU4k7WOl3PWwPbXvKp79MoD_m80]--></g></svg>