<?xml version="1.0" encoding="us-ascii" standalone="no"?><svg xmlns="http://www.w3.org/2000/svg" xmlns:xlink="http://www.w3.org/1999/xlink" contentStyleType="text/css" height="541px" preserveAspectRatio="none" style="width:789px;height:541px;background:#FFFFFF;" version="1.1" viewBox="0 0 789 541" width="789px" zoomAndPan="magnify"><defs/><g><!--cluster Shadow_pass--><g id="cluster_Shadow_pass"><rect fill="none" height="528.68" rx="2.5" ry="2.5" style="stroke:#181818;stroke-width:1.0;" width="776" x="7" y="7"/><path d="M111.8125,7 L111.8125,19.0679 L101.8125,29.0679 L7,29.0679 " fill="none" style="stroke:#181818;stroke-width:1.0;"/><text fill="#000000" font-family="sans-serif" font-size="14" font-weight="bold" lengthAdjust="spacing" textLength="94.8125" x="10" y="22.9659">Shadow_pass</text></g><!--class Shadow_pass--><g id="elem_Shadow_pass"><rect codeLine="3" fill="#F1F1F1" height="181.4754" id="Shadow_pass" rx="2.5" ry="2.5" style="stroke:#181818;stroke-width:0.5;" width="376" x="23" y="173.07"/><ellipse cx="161.75" cy="189.07" fill="#ADD1B2" rx="11" ry="11" style="stroke:#181818;stroke-width:1.0;"/><path d="M161.8594,184.6012 Q160.9375,184.6012 160.2031,184.9137 Q159.4844,185.2262 158.9844,185.82 Q158.4844,186.3981 158.2031,187.2731 Q157.9375,188.1481 157.9375,189.2419 Q157.9375,190.6794 158.375,191.7262 Q158.8281,192.7731 159.6719,193.32 Q160.5313,193.8669 161.8438,193.8669 Q162.625,193.8669 163.3125,193.7419 Q164.0156,193.6012 165.0156,193.2887 L165.0156,195.1637 Q164.1563,195.4919 163.3906,195.6169 Q162.6406,195.7419 161.625,195.7419 Q159.7031,195.7419 158.3906,194.945 Q157.0938,194.1325 156.4375,192.6637 Q155.7813,191.1794 155.7813,189.2106 Q155.7813,187.7887 156.1719,186.6169 Q156.5781,185.4294 157.3594,184.5544 Q158.1406,183.6794 159.2813,183.2106 Q160.4219,182.7262 161.8906,182.7262 Q162.8438,182.7262 163.7344,182.9294 Q164.6406,183.1169 165.5781,183.5856 L164.75,185.3669 Q163.9688,184.9919 163.3125,184.8044 Q162.6563,184.6012 161.8594,184.6012 Z " fill="#000000"/><text fill="#000000" font-family="sans-serif" font-size="14" lengthAdjust="spacing" textLength="90" x="182.25" y="194.502">Shadow_pass</text><line style="stroke:#181818;stroke-width:0.5;" x1="24" x2="398" y1="205.07" y2="205.07"/><rect fill="none" height="6" style="stroke:#C82930;stroke-width:1.0;" width="6" x="31" y="217.104"/><text fill="#000000" font-family="sans-serif" font-size="14" lengthAdjust="spacing" textLength="290" x="43" y="224.0359">m_context: Shadow_pass.Execution_context</text><rect fill="none" height="6" style="stroke:#C82930;stroke-width:1.0;" width="6" x="31" y="236.1719"/><text fill="#000000" font-family="sans-serif" font-size="14" lengthAdjust="spacing" textLength="350" x="43" y="243.1039">m_shadow_caster_material: Shadow_caster_material</text><rect fill="none" height="6" style="stroke:#C82930;stroke-width:1.0;" width="6" x="31" y="255.2398"/><text fill="#000000" font-family="sans-serif" font-size="14" lengthAdjust="spacing" textLength="170" x="43" y="262.1718">Frame_buffer: shadow_fb</text><line style="stroke:#181818;stroke-width:1.0;" x1="24" x2="398" y1="270.2738" y2="270.2738"/><ellipse cx="34" cy="285.3077" fill="#84BE84" rx="3" ry="3" style="stroke:#038048;stroke-width:1.0;"/><text fill="#000000" font-family="sans-serif" font-size="14" lengthAdjust="spacing" textLength="98" x="43" y="289.2397">Shadow_pass()</text><ellipse cx="34" cy="304.3756" fill="#84BE84" rx="3" ry="3" style="stroke:#038048;stroke-width:1.0;"/><text fill="#000000" font-family="sans-serif" font-size="14" lengthAdjust="spacing" textLength="223" x="43" y="308.3076">set_resource_flow(Resource_flow)</text><ellipse cx="34" cy="323.4435" fill="#84BE84" rx="3" ry="3" style="stroke:#038048;stroke-width:1.0;"/><text fill="#000000" font-family="sans-serif" font-size="14" lengthAdjust="spacing" textLength="203" x="43" y="327.3755">set_context(Execution_context)</text><ellipse cx="34" cy="342.5115" fill="#84BE84" rx="3" ry="3" style="stroke:#038048;stroke-width:1.0;"/><text fill="#000000" font-family="sans-serif" font-size="14" lengthAdjust="spacing" textLength="60" x="43" y="346.4434">execute()</text></g><!--class Render_pass--><g id="elem_Render_pass"><rect fill="#F1F1F1" height="48" id="Render_pass" rx="2.5" ry="2.5" style="stroke:#181818;stroke-width:0.5;" width="118" x="23" y="54.53"/><ellipse cx="38" cy="70.53" fill="#ADD1B2" rx="11" ry="11" style="stroke:#181818;stroke-width:1.0;"/><path d="M38.1094,66.0612 Q37.1875,66.0612 36.4531,66.3737 Q35.7344,66.6862 35.2344,67.28 Q34.7344,67.8581 34.4531,68.7331 Q34.1875,69.6081 34.1875,70.7019 Q34.1875,72.1394 34.625,73.1862 Q35.0781,74.2331 35.9219,74.78 Q36.7813,75.3269 38.0938,75.3269 Q38.875,75.3269 39.5625,75.2019 Q40.2656,75.0612 41.2656,74.7487 L41.2656,76.6237 Q40.4063,76.9519 39.6406,77.0769 Q38.8906,77.2019 37.875,77.2019 Q35.9531,77.2019 34.6406,76.405 Q33.3438,75.5925 32.6875,74.1237 Q32.0313,72.6394 32.0313,70.6706 Q32.0313,69.2487 32.4219,68.0769 Q32.8281,66.8894 33.6094,66.0144 Q34.3906,65.1394 35.5313,64.6706 Q36.6719,64.1862 38.1406,64.1862 Q39.0938,64.1862 39.9844,64.3894 Q40.8906,64.5769 41.8281,65.0456 L41,66.8269 Q40.2188,66.4519 39.5625,66.2644 Q38.9063,66.0612 38.1094,66.0612 Z " fill="#000000"/><text fill="#000000" font-family="sans-serif" font-size="14" lengthAdjust="spacing" textLength="86" x="52" y="75.962">Render_pass</text><line style="stroke:#181818;stroke-width:0.5;" x1="24" x2="140" y1="86.53" y2="86.53"/><line style="stroke:#181818;stroke-width:0.5;" x1="24" x2="140" y1="94.53" y2="94.53"/></g><!--class Execution_context--><g id="elem_Execution_context"><rect codeLine="14" fill="#F1F1F1" height="67.0679" id="Execution_context" rx="2.5" ry="2.5" style="stroke:#181818;stroke-width:0.5;" width="311" x="175.5" y="45"/><ellipse cx="266.75" cy="61" fill="#ADD1B2" rx="11" ry="11" style="stroke:#181818;stroke-width:1.0;"/><path d="M266.8594,56.5312 Q265.9375,56.5312 265.2031,56.8437 Q264.4844,57.1562 263.9844,57.75 Q263.4844,58.3281 263.2031,59.2031 Q262.9375,60.0781 262.9375,61.1719 Q262.9375,62.6094 263.375,63.6562 Q263.8281,64.7031 264.6719,65.25 Q265.5313,65.7969 266.8438,65.7969 Q267.625,65.7969 268.3125,65.6719 Q269.0156,65.5312 270.0156,65.2187 L270.0156,67.0937 Q269.1563,67.4219 268.3906,67.5469 Q267.6406,67.6719 266.625,67.6719 Q264.7031,67.6719 263.3906,66.875 Q262.0938,66.0625 261.4375,64.5937 Q260.7813,63.1094 260.7813,61.1406 Q260.7813,59.7187 261.1719,58.5469 Q261.5781,57.3594 262.3594,56.4844 Q263.1406,55.6094 264.2813,55.1406 Q265.4219,54.6562 266.8906,54.6562 Q267.8438,54.6562 268.7344,54.8594 Q269.6406,55.0469 270.5781,55.5156 L269.75,57.2969 Q268.9688,56.9219 268.3125,56.7344 Q267.6563,56.5312 266.8594,56.5312 Z " fill="#000000"/><text fill="#000000" font-family="sans-serif" font-size="14" lengthAdjust="spacing" textLength="120" x="287.25" y="66.432">Execution_context</text><line style="stroke:#181818;stroke-width:0.5;" x1="176.5" x2="485.5" y1="77" y2="77"/><ellipse cx="186.5" cy="92.034" fill="none" rx="3" ry="3" style="stroke:#038048;stroke-width:1.0;"/><text fill="#000000" font-family="sans-serif" font-size="14" lengthAdjust="spacing" textLength="285" x="195.5" y="95.9659">shadow_caster_swap_objects: List&lt;Object&gt;</text><line style="stroke:#181818;stroke-width:0.5;" x1="176.5" x2="485.5" y1="104.0679" y2="104.0679"/></g><!--class Resource_flow--><g id="elem_Resource_flow"><rect codeLine="18" fill="#F1F1F1" height="67.0679" id="Resource_flow" rx="2.5" ry="2.5" style="stroke:#181818;stroke-width:0.5;" width="245" x="521.5" y="45"/><ellipse cx="591.75" cy="61" fill="#ADD1B2" rx="11" ry="11" style="stroke:#181818;stroke-width:1.0;"/><path d="M591.8594,56.5312 Q590.9375,56.5312 590.2031,56.8437 Q589.4844,57.1562 588.9844,57.75 Q588.4844,58.3281 588.2031,59.2031 Q587.9375,60.0781 587.9375,61.1719 Q587.9375,62.6094 588.375,63.6562 Q588.8281,64.7031 589.6719,65.25 Q590.5313,65.7969 591.8438,65.7969 Q592.625,65.7969 593.3125,65.6719 Q594.0156,65.5312 595.0156,65.2187 L595.0156,67.0937 Q594.1563,67.4219 593.3906,67.5469 Q592.6406,67.6719 591.625,67.6719 Q589.7031,67.6719 588.3906,66.875 Q587.0938,66.0625 586.4375,64.5937 Q585.7813,63.1094 585.7813,61.1406 Q585.7813,59.7187 586.1719,58.5469 Q586.5781,57.3594 587.3594,56.4844 Q588.1406,55.6094 589.2813,55.1406 Q590.4219,54.6562 591.8906,54.6562 Q592.8438,54.6562 593.7344,54.8594 Q594.6406,55.0469 595.5781,55.5156 L594.75,57.2969 Q593.9688,56.9219 593.3125,56.7344 Q592.6563,56.5312 591.8594,56.5312 Z " fill="#000000"/><text fill="#000000" font-family="sans-serif" font-size="14" lengthAdjust="spacing" textLength="96" x="612.25" y="66.432">Resource_flow</text><line style="stroke:#181818;stroke-width:0.5;" x1="522.5" x2="765.5" y1="77" y2="77"/><ellipse cx="532.5" cy="92.034" fill="none" rx="3" ry="3" style="stroke:#038048;stroke-width:1.0;"/><text fill="#000000" font-family="sans-serif" font-size="14" lengthAdjust="spacing" textLength="219" x="541.5" y="95.9659">shadow_map_out: Depth_texture</text><line style="stroke:#181818;stroke-width:0.5;" x1="522.5" x2="765.5" y1="104.0679" y2="104.0679"/></g><!--class Shadow_caster_material--><g id="elem_Shadow_caster_material"><rect codeLine="22" fill="#F1F1F1" height="86.1358" id="Shadow_caster_material" rx="2.5" ry="2.5" style="stroke:#181818;stroke-width:0.5;" width="234" x="94" y="433.54"/><ellipse cx="127" cy="449.54" fill="#ADD1B2" rx="11" ry="11" style="stroke:#181818;stroke-width:1.0;"/><path d="M127.1094,445.0712 Q126.1875,445.0712 125.4531,445.3837 Q124.7344,445.6962 124.2344,446.29 Q123.7344,446.8681 123.4531,447.7431 Q123.1875,448.6181 123.1875,449.7119 Q123.1875,451.1494 123.625,452.1962 Q124.0781,453.2431 124.9219,453.79 Q125.7813,454.3369 127.0938,454.3369 Q127.875,454.3369 128.5625,454.2119 Q129.2656,454.0712 130.2656,453.7587 L130.2656,455.6337 Q129.4063,455.9619 128.6406,456.0869 Q127.8906,456.2119 126.875,456.2119 Q124.9531,456.2119 123.6406,455.415 Q122.3438,454.6025 121.6875,453.1337 Q121.0313,451.6494 121.0313,449.6806 Q121.0313,448.2587 121.4219,447.0869 Q121.8281,445.8994 122.6094,445.0244 Q123.3906,444.1494 124.5313,443.6806 Q125.6719,443.1962 127.1406,443.1962 Q128.0938,443.1962 128.9844,443.3994 Q129.8906,443.5869 130.8281,444.0556 L130,445.8369 Q129.2188,445.4619 128.5625,445.2744 Q127.9063,445.0712 127.1094,445.0712 Z " fill="#000000"/><text fill="#000000" font-family="sans-serif" font-size="14" lengthAdjust="spacing" textLength="162" x="145" y="454.972">Shadow_caster_material</text><line style="stroke:#181818;stroke-width:0.5;" x1="95" x2="327" y1="465.54" y2="465.54"/><ellipse cx="105" cy="480.574" fill="none" rx="3" ry="3" style="stroke:#038048;stroke-width:1.0;"/><text fill="#000000" font-family="sans-serif" font-size="14" lengthAdjust="spacing" textLength="208" x="114" y="484.5059">shader: Shadow_caster_shader</text><ellipse cx="105" cy="499.6419" fill="none" rx="3" ry="3" style="stroke:#038048;stroke-width:1.0;"/><text fill="#000000" font-family="sans-serif" font-size="14" lengthAdjust="spacing" textLength="94" x="114" y="503.5739">pipeline_state</text><line style="stroke:#181818;stroke-width:0.5;" x1="95" x2="327" y1="511.6758" y2="511.6758"/></g><!--reverse link Render_pass to Shadow_pass--><g id="link_Render_pass_Shadow_pass"><path d="M108.7023,117.4681 C121.3823,135.4781 129.46,146.96 147.77,172.98 " fill="none" id="Render_pass-backto-Shadow_pass" style="stroke:#181818;stroke-width:1.0;"/><polygon fill="none" points="98.34,102.75,103.7963,120.9222,113.6084,114.014,98.34,102.75" style="stroke:#181818;stroke-width:1.0;"/></g><!--link Shadow_pass to Shadow_caster_material--><g id="link_Shadow_pass_Shadow_caster_material"><path codeLine="26" d="M211,354.82 C211,382.01 211,404.6 211,427.14 " fill="none" id="Shadow_pass-to-Shadow_caster_material" style="stroke:#181818;stroke-width:1.0;stroke-dasharray:7.0,7.0;"/><polygon fill="#181818" points="211,433.14,215,424.14,211,428.14,207,424.14,211,433.14" style="stroke:#181818;stroke-width:1.0;"/><text fill="#000000" font-family="sans-serif" font-size="13" lengthAdjust="spacing" textLength="27" x="212" y="399.437">uses</text></g><!--SRC=[hLLDRzim3BtdL_0M3qNw0up0XtrqbnKRsjq5nQ4JhxRbIJBIODX_dpvjIRQR7dPnOkg9V2GVwPwMB_I4y7ocHtOXFHK2zli7Jbii2lYp0IWRRGlFyLLYTnJmf9x8hKqZ0NRGaf9rKY7oyChzbrSi1rcppX-FS65H9HLI-MgfUjQq6MydTdVDy2E7eQgGv-1SL0TxkjkPtxkGGFR1sGHAmb6mWPT8gePTigVmBOGvfjcCkmUXEK3Z- -zcgLJpl5sXxY3EMrneJzZX5vPIvF2j5dB_tRmLwxuZugdVLliRL1S-Oo_FH8SUE2uwIqeSUTBbZM7MwY1ztMDJTqY4LBUDTuYaSdzVh8N9OH0eDehF5dgdmaTQTtCDRi4pdiwNDQYHYGh7AmiQzF1OJgs-eSJaJfMSxB-xoPTgkRVT55G8V4DI7ZQ9IbjCTMRPByfgZFDoFR1NCnKSZwINVFziJCK8uRPegw8Zbrffvj5rgdYBIIh2aSKamxfBLUX19MiO9rHAMfvRxAHLx2TZJR57uo75plr6F6tY0QrWlvYZQR5un0bPYv9VdJFzd5Hdv6nzMlb2ndhT1zheVaLQ_i64x3ahKOYt93s3tLBsYROj3HRbr-Wz08gI8tR49wHIjeRV0psIA4sBv-UQd1fse0rn0l6wLa6itNTxOJRIFFx_Y41M3bmnayqLiEtbzLr3a_9QLQmJaP5h9478AixQGFDBidrFvFMfpKm-K34EybmBqF05Zt6hasdJgyi2t8eU3stRrIZcyDEdn57jEkmKkI3ngQ39OfzcOIPNFH89BxVPG-AnV4BcbfpTlQ07kg938uaPbO_6UZDwujo71_0ZkONFL59uq0q_eBoeYAR42hKDFrTvllvztUsAIG9vlhO1y-G33EfQj0jLn7UuqT7IPFFyXfRpnOMg6Kmjtcp-0G00]--></g></svg>