<?xml version="1.0" encoding="us-ascii" standalone="no"?><svg xmlns="http://www.w3.org/2000/svg" xmlns:xlink="http://www.w3.org/1999/xlink" contentStyleType="text/css" height="949px" preserveAspectRatio="none" style="width:427px;height:949px;background:#FFFFFF;" version="1.1" viewBox="0 0 427 949" width="427px" zoomAndPan="magnify"><defs/><g><text fill="#000000" font-family="sans-serif" font-size="14" font-weight="bold" lengthAdjust="spacing" textLength="158.8125" x="127.0938" y="24.9659">&#26694;&#26550;&#23618;&#26680;&#24515;&#27010;&#24565;&#23618;&#27425;&#32467;&#26500;</text><!--cluster ???--><g id="cluster_&#26694;&#26550;&#23618;"><path d="M8.5,46.6699 L52.8125,46.6699 A3.75,3.75 0 0 1 55.3125,49.1699 L62.3125,71.7378 L417.5,71.7378 A2.5,2.5 0 0 1 420,74.2378 L420,940.1899 A2.5,2.5 0 0 1 417.5,942.6899 L8.5,942.6899 A2.5,2.5 0 0 1 6,940.1899 L6,49.1699 A2.5,2.5 0 0 1 8.5,46.6699 " fill="none" style="stroke:#000000;stroke-width:1.5;"/><line style="stroke:#000000;stroke-width:1.5;" x1="6" x2="62.3125" y1="71.7378" y2="71.7378"/><text fill="#000000" font-family="sans-serif" font-size="14" font-weight="bold" lengthAdjust="spacing" textLength="43.3125" x="10" y="63.6358">&#26694;&#26550;&#23618;</text></g><!--class World--><g id="elem_World"><rect codeLine="6" fill="#F1F1F1" height="67.0679" id="World" rx="2.5" ry="2.5" style="stroke:#181818;stroke-width:0.5;" width="72" x="202" y="84.6699"/><ellipse cx="217" cy="100.6699" fill="#ADD1B2" rx="11" ry="11" style="stroke:#181818;stroke-width:1.0;"/><path d="M217.1094,96.2011 Q216.1875,96.2011 215.4531,96.5136 Q214.7344,96.8261 214.2344,97.4199 Q213.7344,97.998 213.4531,98.873 Q213.1875,99.748 213.1875,100.8418 Q213.1875,102.2793 213.625,103.3261 Q214.0781,104.373 214.9219,104.9199 Q215.7813,105.4668 217.0938,105.4668 Q217.875,105.4668 218.5625,105.3418 Q219.2656,105.2011 220.2656,104.8886 L220.2656,106.7636 Q219.4063,107.0918 218.6406,107.2168 Q217.8906,107.3418 216.875,107.3418 Q214.9531,107.3418 213.6406,106.5449 Q212.3438,105.7324 211.6875,104.2636 Q211.0313,102.7793 211.0313,100.8105 Q211.0313,99.3886 211.4219,98.2168 Q211.8281,97.0293 212.6094,96.1543 Q213.3906,95.2793 214.5313,94.8105 Q215.6719,94.3261 217.1406,94.3261 Q218.0938,94.3261 218.9844,94.5293 Q219.8906,94.7168 220.8281,95.1855 L220,96.9668 Q219.2188,96.5918 218.5625,96.4043 Q217.9063,96.2011 217.1094,96.2011 Z " fill="#000000"/><text fill="#000000" font-family="sans-serif" font-size="14" lengthAdjust="spacing" textLength="40" x="231" y="106.1019">World</text><line style="stroke:#181818;stroke-width:0.5;" x1="203" x2="273" y1="116.6699" y2="116.6699"/><line style="stroke:#181818;stroke-width:0.5;" x1="203" x2="273" y1="124.6699" y2="124.6699"/><ellipse cx="213" cy="139.7039" fill="#84BE84" rx="3" ry="3" style="stroke:#038048;stroke-width:1.0;"/><text fill="#000000" font-family="sans-serif" font-size="14" lengthAdjust="spacing" textLength="31" x="222" y="143.6358">tick()</text></g><!--class Scene--><g id="elem_Scene"><rect codeLine="10" fill="#F1F1F1" height="143.3396" id="Scene" rx="2.5" ry="2.5" style="stroke:#181818;stroke-width:0.5;" width="251" x="112.5" y="230.7399"/><ellipse cx="213.75" cy="246.7399" fill="#ADD1B2" rx="11" ry="11" style="stroke:#181818;stroke-width:1.0;"/><path d="M213.8594,242.2711 Q212.9375,242.2711 212.2031,242.5836 Q211.4844,242.8961 210.9844,243.4899 Q210.4844,244.068 210.2031,244.943 Q209.9375,245.818 209.9375,246.9118 Q209.9375,248.3493 210.375,249.3961 Q210.8281,250.443 211.6719,250.9899 Q212.5313,251.5368 213.8438,251.5368 Q214.625,251.5368 215.3125,251.4118 Q216.0156,251.2711 217.0156,250.9586 L217.0156,252.8336 Q216.1563,253.1618 215.3906,253.2868 Q214.6406,253.4118 213.625,253.4118 Q211.7031,253.4118 210.3906,252.6149 Q209.0938,251.8024 208.4375,250.3336 Q207.7813,248.8493 207.7813,246.8805 Q207.7813,245.4586 208.1719,244.2868 Q208.5781,243.0993 209.3594,242.2243 Q210.1406,241.3493 211.2813,240.8805 Q212.4219,240.3961 213.8906,240.3961 Q214.8438,240.3961 215.7344,240.5993 Q216.6406,240.7868 217.5781,241.2555 L216.75,243.0368 Q215.9688,242.6618 215.3125,242.4743 Q214.6563,242.2711 213.8594,242.2711 Z " fill="#000000"/><text fill="#000000" font-family="sans-serif" font-size="14" lengthAdjust="spacing" textLength="40" x="234.25" y="252.1719">Scene</text><line style="stroke:#181818;stroke-width:0.5;" x1="113.5" x2="362.5" y1="262.7399" y2="262.7399"/><rect fill="none" height="6" style="stroke:#C82930;stroke-width:1.0;" width="6" x="120.5" y="274.7739"/><text fill="#000000" font-family="sans-serif" font-size="14" lengthAdjust="spacing" textLength="225" x="132.5" y="281.7058">game_objects: List&lt;Game_object&gt;</text><rect fill="none" height="6" style="stroke:#C82930;stroke-width:1.0;" width="6" x="120.5" y="293.8418"/><text fill="#000000" font-family="sans-serif" font-size="14" lengthAdjust="spacing" textLength="146" x="132.5" y="300.7738">mainCamera: Camera</text><rect fill="none" height="6" style="stroke:#C82930;stroke-width:1.0;" width="6" x="120.5" y="312.9097"/><text fill="#000000" font-family="sans-serif" font-size="14" lengthAdjust="spacing" textLength="110" x="132.5" y="319.8417">mainLight: Light</text><rect fill="none" height="6" style="stroke:#C82930;stroke-width:1.0;" width="6" x="120.5" y="331.9776"/><text fill="#000000" font-family="sans-serif" font-size="14" lengthAdjust="spacing" textLength="99" x="132.5" y="338.9096">skybox: Skybox</text><line style="stroke:#181818;stroke-width:0.5;" x1="113.5" x2="362.5" y1="347.0116" y2="347.0116"/><ellipse cx="123.5" cy="362.0455" fill="#84BE84" rx="3" ry="3" style="stroke:#038048;stroke-width:1.0;"/><text fill="#000000" font-family="sans-serif" font-size="14" lengthAdjust="spacing" textLength="31" x="132.5" y="365.9775">tick()</text></g><!--class Game_object--><g id="elem_Game_object"><rect codeLine="18" fill="#F1F1F1" height="86.1358" id="Game_object" rx="2.5" ry="2.5" style="stroke:#181818;stroke-width:0.5;" width="221" x="175.5" y="453.0799"/><ellipse cx="238.75" cy="469.0799" fill="#ADD1B2" rx="11" ry="11" style="stroke:#181818;stroke-width:1.0;"/><path d="M238.8594,464.6111 Q237.9375,464.6111 237.2031,464.9236 Q236.4844,465.2361 235.9844,465.8299 Q235.4844,466.408 235.2031,467.283 Q234.9375,468.158 234.9375,469.2518 Q234.9375,470.6893 235.375,471.7361 Q235.8281,472.783 236.6719,473.3299 Q237.5313,473.8768 238.8438,473.8768 Q239.625,473.8768 240.3125,473.7518 Q241.0156,473.6111 242.0156,473.2986 L242.0156,475.1736 Q241.1563,475.5018 240.3906,475.6268 Q239.6406,475.7518 238.625,475.7518 Q236.7031,475.7518 235.3906,474.9549 Q234.0938,474.1424 233.4375,472.6736 Q232.7813,471.1893 232.7813,469.2205 Q232.7813,467.7986 233.1719,466.6268 Q233.5781,465.4393 234.3594,464.5643 Q235.1406,463.6893 236.2813,463.2205 Q237.4219,462.7361 238.8906,462.7361 Q239.8438,462.7361 240.7344,462.9393 Q241.6406,463.1268 242.5781,463.5955 L241.75,465.3768 Q240.9688,465.0018 240.3125,464.8143 Q239.6563,464.6111 238.8594,464.6111 Z " fill="#000000"/><text fill="#000000" font-family="sans-serif" font-size="14" lengthAdjust="spacing" textLength="86" x="259.25" y="474.5119">Game_object</text><line style="stroke:#181818;stroke-width:0.5;" x1="176.5" x2="395.5" y1="485.0799" y2="485.0799"/><rect fill="none" height="6" style="stroke:#C82930;stroke-width:1.0;" width="6" x="183.5" y="497.1139"/><text fill="#000000" font-family="sans-serif" font-size="14" lengthAdjust="spacing" textLength="195" x="195.5" y="504.0458">components: Component_list</text><line style="stroke:#181818;stroke-width:0.5;" x1="176.5" x2="395.5" y1="512.1478" y2="512.1478"/><ellipse cx="186.5" cy="527.1818" fill="#84BE84" rx="3" ry="3" style="stroke:#038048;stroke-width:1.0;"/><text fill="#000000" font-family="sans-serif" font-size="14" lengthAdjust="spacing" textLength="31" x="195.5" y="531.1138">tick()</text></g><!--class Component_list--><g id="elem_Component_list"><rect codeLine="23" fill="#F1F1F1" height="105.2038" id="Component_list" rx="2.5" ry="2.5" style="stroke:#181818;stroke-width:0.5;" width="240" x="22" y="618.2099"/><ellipse cx="85.75" cy="634.2099" fill="#ADD1B2" rx="11" ry="11" style="stroke:#181818;stroke-width:1.0;"/><path d="M85.8594,629.7411 Q84.9375,629.7411 84.2031,630.0536 Q83.4844,630.3661 82.9844,630.9599 Q82.4844,631.538 82.2031,632.413 Q81.9375,633.288 81.9375,634.3818 Q81.9375,635.8193 82.375,636.8661 Q82.8281,637.913 83.6719,638.4599 Q84.5313,639.0068 85.8438,639.0068 Q86.625,639.0068 87.3125,638.8818 Q88.0156,638.7411 89.0156,638.4286 L89.0156,640.3036 Q88.1563,640.6318 87.3906,640.7568 Q86.6406,640.8818 85.625,640.8818 Q83.7031,640.8818 82.3906,640.0849 Q81.0938,639.2724 80.4375,637.8036 Q79.7813,636.3193 79.7813,634.3505 Q79.7813,632.9286 80.1719,631.7568 Q80.5781,630.5693 81.3594,629.6943 Q82.1406,628.8193 83.2813,628.3505 Q84.4219,627.8661 85.8906,627.8661 Q86.8438,627.8661 87.7344,628.0693 Q88.6406,628.2568 89.5781,628.7255 L88.75,630.5068 Q87.9688,630.1318 87.3125,629.9443 Q86.6563,629.7411 85.8594,629.7411 Z " fill="#000000"/><text fill="#000000" font-family="sans-serif" font-size="14" lengthAdjust="spacing" textLength="104" x="106.25" y="639.6419">Component_list</text><line style="stroke:#181818;stroke-width:0.5;" x1="23" x2="261" y1="650.2099" y2="650.2099"/><rect fill="none" height="6" style="stroke:#C82930;stroke-width:1.0;" width="6" x="30" y="662.2439"/><text fill="#000000" font-family="sans-serif" font-size="14" lengthAdjust="spacing" textLength="208" x="42" y="669.1758">components: List&lt;Component&gt;</text><line style="stroke:#181818;stroke-width:0.5;" x1="23" x2="261" y1="677.2778" y2="677.2778"/><ellipse cx="33" cy="692.3118" fill="#84BE84" rx="3" ry="3" style="stroke:#038048;stroke-width:1.0;"/><text fill="#000000" font-family="sans-serif" font-size="14" lengthAdjust="spacing" textLength="190" x="42" y="696.2438">addComponent(Component)</text><ellipse cx="33" cy="711.3797" fill="#84BE84" rx="3" ry="3" style="stroke:#038048;stroke-width:1.0;"/><text fill="#000000" font-family="sans-serif" font-size="14" lengthAdjust="spacing" textLength="214" x="42" y="715.3117">removeComponent(Component)</text></g><!--class Component--><g id="elem_Component"><rect codeLine="29" fill="#F1F1F1" height="124.2717" id="Component" rx="2.5" ry="2.5" style="stroke:#181818;stroke-width:0.5;" width="206" x="158" y="802.4199"/><ellipse cx="217.75" cy="818.4199" fill="#ADD1B2" rx="11" ry="11" style="stroke:#181818;stroke-width:1.0;"/><path d="M217.8594,813.9511 Q216.9375,813.9511 216.2031,814.2636 Q215.4844,814.5761 214.9844,815.1699 Q214.4844,815.748 214.2031,816.623 Q213.9375,817.498 213.9375,818.5918 Q213.9375,820.0293 214.375,821.0761 Q214.8281,822.123 215.6719,822.6699 Q216.5313,823.2168 217.8438,823.2168 Q218.625,823.2168 219.3125,823.0918 Q220.0156,822.9511 221.0156,822.6386 L221.0156,824.5136 Q220.1563,824.8418 219.3906,824.9668 Q218.6406,825.0918 217.625,825.0918 Q215.7031,825.0918 214.3906,824.2949 Q213.0938,823.4824 212.4375,822.0136 Q211.7813,820.5293 211.7813,818.5605 Q211.7813,817.1386 212.1719,815.9668 Q212.5781,814.7793 213.3594,813.9043 Q214.1406,813.0293 215.2813,812.5605 Q216.4219,812.0761 217.8906,812.0761 Q218.8438,812.0761 219.7344,812.2793 Q220.6406,812.4668 221.5781,812.9355 L220.75,814.7168 Q219.9688,814.3418 219.3125,814.1543 Q218.6563,813.9511 217.8594,813.9511 Z " fill="#000000"/><text fill="#000000" font-family="sans-serif" font-size="14" lengthAdjust="spacing" textLength="78" x="238.25" y="823.8519">Component</text><line style="stroke:#181818;stroke-width:0.5;" x1="159" x2="363" y1="834.4199" y2="834.4199"/><line style="stroke:#181818;stroke-width:0.5;" x1="159" x2="363" y1="842.4199" y2="842.4199"/><ellipse cx="169" cy="857.4539" fill="#84BE84" rx="3" ry="3" style="stroke:#038048;stroke-width:1.0;"/><text fill="#000000" font-family="sans-serif" font-size="14" lengthAdjust="spacing" textLength="31" x="178" y="861.3858">tick()</text><ellipse cx="169" cy="876.5218" fill="#84BE84" rx="3" ry="3" style="stroke:#038048;stroke-width:1.0;"/><text fill="#000000" font-family="sans-serif" font-size="14" lengthAdjust="spacing" textLength="175" x="178" y="880.4538">getContext(): LogicContext</text><ellipse cx="169" cy="895.5897" fill="#84BE84" rx="3" ry="3" style="stroke:#038048;stroke-width:1.0;"/><text fill="#000000" font-family="sans-serif" font-size="14" lengthAdjust="spacing" textLength="136" x="178" y="899.5217">getTimeDelta(): float</text><ellipse cx="169" cy="914.6576" fill="#84BE84" rx="3" ry="3" style="stroke:#038048;stroke-width:1.0;"/><text fill="#000000" font-family="sans-serif" font-size="14" lengthAdjust="spacing" textLength="180" x="178" y="918.5896">getInputState(): InputState</text></g><!--link World to Scene--><g id="link_World_Scene"><path codeLine="37" d="M201.72,146.7399 C187.02,161.4299 174.61,180.5999 180,200.7399 C182.66,210.6799 183.9949,215.2259 188.5349,224.8259 " fill="none" id="World-to-Scene" style="stroke:#181818;stroke-width:1.0;"/><polygon fill="#181818" points="191.1,230.2499,190.8683,220.4038,188.9624,225.7299,183.6363,223.8239,191.1,230.2499" style="stroke:#181818;stroke-width:1.0;"/><polygon fill="#000000" points="184.1675,196.5231,188.5714,188.0936,182.7756,187.115,184.1675,196.5231" style="stroke:#000000;stroke-width:1.0;"/><text fill="#000000" font-family="sans-serif" font-size="13" lengthAdjust="spacing" textLength="55" x="194" y="196.6369">manages</text><text fill="#000000" font-family="sans-serif" font-size="13" lengthAdjust="spacing" textLength="7" x="186.8883" y="147.651">1</text><text fill="#000000" font-family="sans-serif" font-size="13" lengthAdjust="spacing" textLength="7" x="178.9025" y="218.8653">*</text></g><!--link World to Scene--><g id="link_World_Scene"><path codeLine="43" d="M248.04,152.0099 C250.49,161.5099 252.77,171.9499 254,181.7399 C255.98,197.4399 256.0765,208.3282 254.2665,224.2782 " fill="none" id="World-to-Scene-1" style="stroke:#181818;stroke-width:1.0;stroke-dasharray:7.0,7.0;"/><polygon fill="#181818" points="253.59,230.2399,258.5793,221.7483,254.1538,225.2718,250.6303,220.8463,253.59,230.2399" style="stroke:#181818;stroke-width:1.0;"/><polygon fill="#000000" points="260.6092,196.5745,262.7608,187.3105,256.9047,187.815,260.6092,196.5745" style="stroke:#000000;stroke-width:1.0;"/><text fill="#000000" font-family="sans-serif" font-size="13" lengthAdjust="spacing" textLength="57" x="269.18" y="196.6369">calls tick()</text></g><!--link Scene to Game_object--><g id="link_Scene_Game_object"><path codeLine="38" d="M194.44,374.3799 C189.55,390.6599 188.61,407.6999 196,423.0799 C201.37,434.2699 205.0857,440.1109 214.2057,448.8409 " fill="none" id="Scene-to-Game_object" style="stroke:#181818;stroke-width:1.0;"/><polygon fill="#181818" points="218.54,452.9899,214.8045,443.8769,214.9281,449.5324,209.2726,449.656,218.54,452.9899" style="stroke:#181818;stroke-width:1.0;"/><polygon fill="#000000" points="202.2828,418.7655,202.8027,409.2692,197.1216,410.7772,202.2828,418.7655" style="stroke:#000000;stroke-width:1.0;"/><text fill="#000000" font-family="sans-serif" font-size="13" lengthAdjust="spacing" textLength="55" x="210" y="418.9769">manages</text><text fill="#000000" font-family="sans-serif" font-size="13" lengthAdjust="spacing" textLength="7" x="182.9546" y="395.9804">1</text><text fill="#000000" font-family="sans-serif" font-size="13" lengthAdjust="spacing" textLength="7" x="199.7873" y="441.3895">*</text></g><!--link Scene to Game_object--><g id="link_Scene_Game_object"><path codeLine="44" d="M261.92,374.5699 C264.85,384.4199 267.64,394.4599 270,404.0799 C273.87,419.8199 276.1761,431.4028 278.7661,446.8228 " fill="none" id="Scene-to-Game_object-1" style="stroke:#181818;stroke-width:1.0;stroke-dasharray:7.0,7.0;"/><polygon fill="#181818" points="279.76,452.7399,282.214,443.2017,278.9318,447.809,274.3245,444.5268,279.76,452.7399" style="stroke:#181818;stroke-width:1.0;"/><polygon fill="#000000" points="280.0353,418.8023,280.8437,409.3262,275.1193,410.6608,280.0353,418.8023" style="stroke:#000000;stroke-width:1.0;"/><text fill="#000000" font-family="sans-serif" font-size="13" lengthAdjust="spacing" textLength="57" x="287.9" y="418.9769">calls tick()</text></g><!--link Game_object to Component_list--><g id="link_Game_object_Component_list"><path codeLine="39" d="M250.77,539.3899 C231.04,563.0499 210.1133,588.1424 189.1933,613.2224 " fill="none" id="Game_object-to-Component_list" style="stroke:#181818;stroke-width:1.0;"/><polygon fill="#181818" points="185.35,617.8299,194.1866,613.4808,188.5527,613.9903,188.0432,608.3564,185.35,617.8299" style="stroke:#181818;stroke-width:1.0;"/><polygon fill="#000000" points="224.4176,582.9027,232.4678,577.8388,227.9538,574.0741,224.4176,582.9027" style="stroke:#000000;stroke-width:1.0;"/><text fill="#000000" font-family="sans-serif" font-size="13" lengthAdjust="spacing" textLength="32" x="236.62" y="584.1069">owns</text><text fill="#000000" font-family="sans-serif" font-size="13" lengthAdjust="spacing" textLength="7" x="237.8395" y="561.264">1</text><text fill="#000000" font-family="sans-serif" font-size="13" lengthAdjust="spacing" textLength="7" x="183.7048" y="606.5127">1</text></g><!--link Component_list to Component--><g id="link_Component_list_Component"><path codeLine="40" d="M174.2,723.6999 C189.21,747.8799 204.0065,771.7216 219.6865,796.9916 " fill="none" id="Component_list-to-Component" style="stroke:#181818;stroke-width:1.0;"/><polygon fill="#181818" points="222.85,802.0899,221.5036,792.3335,220.2138,797.8413,214.7059,796.5515,222.85,802.0899" style="stroke:#181818;stroke-width:1.0;"/><polygon fill="#000000" points="209.1366,767.5212,206.864,758.2862,201.8698,761.3857,209.1366,767.5212" style="stroke:#000000;stroke-width:1.0;"/><text fill="#000000" font-family="sans-serif" font-size="13" lengthAdjust="spacing" textLength="55" x="215.5" y="768.3169">manages</text><text fill="#000000" font-family="sans-serif" font-size="13" lengthAdjust="spacing" textLength="7" x="170.6978" y="745.1216">1</text><text fill="#000000" font-family="sans-serif" font-size="13" lengthAdjust="spacing" textLength="7" x="211.0342" y="790.8223">*</text></g><!--link Game_object to Component--><g id="link_Game_object_Component"><path codeLine="45" d="M287.47,539.2799 C288.82,593.4299 289.38,690.2599 280,772.4199 C278.9,782.0499 278.3775,786.283 276.5275,796.133 " fill="none" id="Game_object-to-Component" style="stroke:#181818;stroke-width:1.0;stroke-dasharray:7.0,7.0;"/><polygon fill="#181818" points="275.42,802.0299,281.0126,793.9229,276.3429,797.1158,273.15,792.4462,275.42,802.0299" style="stroke:#181818;stroke-width:1.0;"/><polygon fill="#000000" points="292.9272,676.1684,296.2484,667.2566,290.3759,667.0064,292.9272,676.1684" style="stroke:#000000;stroke-width:1.0;"/><text fill="#000000" font-family="sans-serif" font-size="13" lengthAdjust="spacing" textLength="57" x="302.14" y="676.2169">calls tick()</text></g><!--SRC=[ZLAzRjH04Exz52CtkIEwHBGMEWaT4egKYaDGHkFrnBVS_bZUIKY4qWJ42z17fA6YIG52If6dEVCQhEqxtzhAeMmpEpFVD_FjpBgbD0MMg44eTEubSodJCwOZOSqxwMIg24vHEOeYbkoTwlPhTVDxTNTTVV-pUlXS_RXUFVogtP-tV- -_LJTVegX0iSIS8EwmCNoAm9-c1xotfShMaVhi0qkn78sRm5KK8EU230N82UIewSIc7qYmI-1OEdxnUXkQ1aYDqinygiG4MZj87ijymNKDRuAKMrwczYA1UMEV83BetvCgh2wi8LCBdMtk9yfBVaBHFc5dtMO07NOQ5COiw-AZxZOE42LfUquxGO_BsRMsDf0JpwnXkk3Hs8kpkHHhlmzwApMz8iLOmqwLnK7-o1HdF6TagW5RBnIs1sz88Kjht48M3b9qb84rVZw6_NgrLtkeqVYVM5_t6bBxzUBdCKmcKuYVnUilba2BTD3Ei8s6k73BGtIOwpZU3fQOWFreDfn1Bcor7NROwF-FhbS1cdXXCn2eb8DHHWMPZ8ouF9Jct8g6DWxdS91vGGVJRWOjiTrgRn0RO7y8Zy13m8OKFcT0kOh-0G00]--></g></svg>