<?xml version="1.0" encoding="us-ascii" standalone="no"?><svg xmlns="http://www.w3.org/2000/svg" xmlns:xlink="http://www.w3.org/1999/xlink" contentStyleType="text/css" height="1335px" preserveAspectRatio="none" style="width:1577px;height:1335px;background:#FFFFFF;" version="1.1" viewBox="0 0 1577 1335" width="1577px" zoomAndPan="magnify"><defs/><g><text fill="#000000" font-family="sans-serif" font-size="14" font-weight="bold" lengthAdjust="spacing" textLength="367" x="598" y="24.9659">RHI_device Class Diagram (Simplified, Left-to-Right)</text><!--class RHI_device--><g id="elem_RHI_device"><rect codeLine="9" fill="#F1F1F1" height="773.5129" id="RHI_device" rx="2.5" ry="2.5" style="stroke:#181818;stroke-width:0.5;" width="637" x="9" y="316.4879"/><ellipse cx="289.25" cy="332.4879" fill="#A9DCDF" rx="11" ry="11" style="stroke:#181818;stroke-width:1.0;"/><path d="M292.5938,337.7379 L291.125,333.9879 L286.6875,333.9879 L285.25,337.7379 L283.125,337.7379 L288.0781,325.0192 L289.8281,325.0192 L294.75,337.7379 L292.5938,337.7379 Z M289.25,328.7848 Q289.2031,328.6285 289.0781,328.2692 Q288.9531,327.9098 288.8438,327.5348 Q288.7344,327.1442 288.9375,327.0817 Q289.0938,327.2692 289,327.6285 Q288.9063,327.9723 288.8125,328.2692 Q288.7188,328.5504 288.6406,328.7848 L287.4063,332.0973 L290.4844,332.0973 L289.25,328.7848 Z " fill="#000000"/><text fill="#000000" font-family="sans-serif" font-size="14" font-style="italic" lengthAdjust="spacing" textLength="68" x="309.75" y="337.9199">RHI_device</text><line style="stroke:#181818;stroke-width:0.5;" x1="10" x2="645" y1="348.4879" y2="348.4879"/><polygon fill="none" points="20,358.5219,24,362.5219,20,366.5219,16,362.5219" style="stroke:#B38D22;stroke-width:1.0;"/><text fill="#000000" font-family="sans-serif" font-size="14" lengthAdjust="spacing" textLength="94" x="29" y="367.4539">type: API_type</text><ellipse cx="20" cy="382.5898" fill="#84BE84" rx="3" ry="3" style="stroke:#038048;stroke-width:1.0;"/><text fill="#000000" font-family="sans-serif" font-size="14" lengthAdjust="spacing" textLength="175" x="29" y="386.5218">RHI_device(type: API_type)</text><ellipse cx="20" cy="401.6577" fill="#84BE84" rx="3" ry="3" style="stroke:#038048;stroke-width:1.0;"/><text fill="#000000" font-family="sans-serif" font-size="14" lengthAdjust="spacing" textLength="129" x="29" y="405.5897">api_type(): API_type</text><ellipse cx="20" cy="420.7256" fill="#84BE84" rx="3" ry="3" style="stroke:#038048;stroke-width:1.0;"/><text fill="#000000" font-family="sans-serif" font-size="14" font-style="italic" lengthAdjust="spacing" textLength="116" x="29" y="424.6576">check_error(): void</text><text fill="#000000" font-family="sans-serif" font-size="14" lengthAdjust="spacing" textLength="4" x="29" y="443.7255">&#160;</text><ellipse cx="20" cy="481.9294" fill="#84BE84" rx="3" ry="3" style="stroke:#038048;stroke-width:1.0;"/><text fill="#000000" font-family="sans-serif" font-size="14" font-style="italic" lengthAdjust="spacing" textLength="320" x="29" y="485.8614">create_vertex_buffer(config: ...): RHI_vertex_buffer*</text><ellipse cx="20" cy="500.9973" fill="#84BE84" rx="3" ry="3" style="stroke:#038048;stroke-width:1.0;"/><text fill="#000000" font-family="sans-serif" font-size="14" font-style="italic" lengthAdjust="spacing" textLength="342" x="29" y="504.9293">create_element_buffer(config: ...): RHI_element_buffer*</text><ellipse cx="20" cy="520.0652" fill="#84BE84" rx="3" ry="3" style="stroke:#038048;stroke-width:1.0;"/><text fill="#000000" font-family="sans-serif" font-size="14" font-style="italic" lengthAdjust="spacing" textLength="346" x="29" y="523.9972">create_memory_buffer(config: ...): RHI_memory_buffer*</text><text fill="#000000" font-family="sans-serif" font-size="14" lengthAdjust="spacing" textLength="4" x="29" y="543.0651">&#160;</text><line style="stroke:#181818;stroke-width:1.0;stroke-dasharray:1.0,2.0;" x1="10" x2="276" y1="461.3615" y2="461.3615"/><text fill="#000000" font-family="sans-serif" font-size="14" lengthAdjust="spacing" textLength="103" x="276" y="466.2934">Buffer Creation</text><line style="stroke:#181818;stroke-width:1.0;stroke-dasharray:1.0,2.0;" x1="379" x2="645" y1="461.3615" y2="461.3615"/><ellipse cx="20" cy="581.269" fill="#84BE84" rx="3" ry="3" style="stroke:#038048;stroke-width:1.0;"/><text fill="#000000" font-family="sans-serif" font-size="14" font-style="italic" lengthAdjust="spacing" textLength="439" x="29" y="585.2009">create_geometry(vertex_sources: ..., index_source: ...): RHI_geometry*</text><text fill="#000000" font-family="sans-serif" font-size="14" lengthAdjust="spacing" textLength="4" x="29" y="604.2689">&#160;</text><line style="stroke:#181818;stroke-width:1.0;stroke-dasharray:1.0,2.0;" x1="10" x2="264.5" y1="560.701" y2="560.701"/><text fill="#000000" font-family="sans-serif" font-size="14" lengthAdjust="spacing" textLength="126" x="264.5" y="565.633">Geometry Creation</text><line style="stroke:#181818;stroke-width:1.0;stroke-dasharray:1.0,2.0;" x1="390.5" x2="645" y1="560.701" y2="560.701"/><ellipse cx="20" cy="642.4727" fill="#84BE84" rx="3" ry="3" style="stroke:#038048;stroke-width:1.0;"/><text fill="#000000" font-family="sans-serif" font-size="14" font-style="italic" lengthAdjust="spacing" textLength="476" x="29" y="646.4047">create_shader_code(source: string, type: ShaderType, ...): RHI_shader_code*</text><ellipse cx="20" cy="661.5406" fill="#84BE84" rx="3" ry="3" style="stroke:#038048;stroke-width:1.0;"/><text fill="#000000" font-family="sans-serif" font-size="14" font-style="italic" lengthAdjust="spacing" textLength="522" x="29" y="665.4726">create_shader_program(shader_map: map, layout_desc: ...): RHI_shader_program*</text><text fill="#000000" font-family="sans-serif" font-size="14" lengthAdjust="spacing" textLength="4" x="29" y="684.5405">&#160;</text><line style="stroke:#181818;stroke-width:1.0;stroke-dasharray:1.0,2.0;" x1="10" x2="273" y1="621.9048" y2="621.9048"/><text fill="#000000" font-family="sans-serif" font-size="14" lengthAdjust="spacing" textLength="109" x="273" y="626.8368">Shader Creation</text><line style="stroke:#181818;stroke-width:1.0;stroke-dasharray:1.0,2.0;" x1="382" x2="645" y1="621.9048" y2="621.9048"/><ellipse cx="20" cy="722.7444" fill="#84BE84" rx="3" ry="3" style="stroke:#038048;stroke-width:1.0;"/><text fill="#000000" font-family="sans-serif" font-size="14" font-style="italic" lengthAdjust="spacing" textLength="458" x="29" y="726.6764">create_texture_2D(width: int, height: int, tex_config: ...): RHI_texture_2D*</text><ellipse cx="20" cy="741.8123" fill="#84BE84" rx="3" ry="3" style="stroke:#038048;stroke-width:1.0;"/><text fill="#000000" font-family="sans-serif" font-size="14" font-style="italic" lengthAdjust="spacing" textLength="611" x="29" y="745.7443">create_texture_2D_array(width: int, height: int, layers: int, tex_config: ...): RHI_texture_2D_array*</text><ellipse cx="20" cy="760.8802" fill="#84BE84" rx="3" ry="3" style="stroke:#038048;stroke-width:1.0;"/><text fill="#000000" font-family="sans-serif" font-size="14" font-style="italic" lengthAdjust="spacing" textLength="363" x="29" y="764.8122">create_cube_map(size: int, tex_config: ...): RHI_cube_map*</text><ellipse cx="20" cy="779.9481" fill="#84BE84" rx="3" ry="3" style="stroke:#038048;stroke-width:1.0;"/><text fill="#000000" font-family="sans-serif" font-size="14" font-style="italic" lengthAdjust="spacing" textLength="510" x="29" y="783.8801">create_color_attachment(width: int, height: int, format_info: ...): RHI_texture_2D*</text><ellipse cx="20" cy="799.016" fill="#84BE84" rx="3" ry="3" style="stroke:#038048;stroke-width:1.0;"/><text fill="#000000" font-family="sans-serif" font-size="14" font-style="italic" lengthAdjust="spacing" textLength="514" x="29" y="802.948">create_depth_attachment(width: int, height: int, format_info: ...): RHI_texture_2D*</text><ellipse cx="20" cy="818.084" fill="#84BE84" rx="3" ry="3" style="stroke:#038048;stroke-width:1.0;"/><text fill="#000000" font-family="sans-serif" font-size="14" font-style="italic" lengthAdjust="spacing" textLength="415" x="29" y="822.0159">create_depth_cube_map(size: int, format_info: ...): RHI_cube_map*</text><text fill="#000000" font-family="sans-serif" font-size="14" lengthAdjust="spacing" textLength="4" x="29" y="841.0839">&#160;</text><line style="stroke:#181818;stroke-width:1.0;stroke-dasharray:1.0,2.0;" x1="10" x2="271.5" y1="702.1765" y2="702.1765"/><text fill="#000000" font-family="sans-serif" font-size="14" lengthAdjust="spacing" textLength="112" x="271.5" y="707.1084">Texture Creation</text><line style="stroke:#181818;stroke-width:1.0;stroke-dasharray:1.0,2.0;" x1="383.5" x2="645" y1="702.1765" y2="702.1765"/><ellipse cx="20" cy="879.2877" fill="#84BE84" rx="3" ry="3" style="stroke:#038048;stroke-width:1.0;"/><text fill="#000000" font-family="sans-serif" font-size="14" font-style="italic" lengthAdjust="spacing" textLength="427" x="29" y="883.2197">create_frame_buffer(attachments: map, desc: ...): RHI_frame_buffer*</text><ellipse cx="20" cy="898.3556" fill="#84BE84" rx="3" ry="3" style="stroke:#038048;stroke-width:1.0;"/><text fill="#000000" font-family="sans-serif" font-size="14" font-style="italic" lengthAdjust="spacing" textLength="276" x="29" y="902.2876">create_screen_buffer(...): RHI_screen_buffer*</text><text fill="#000000" font-family="sans-serif" font-size="14" lengthAdjust="spacing" textLength="4" x="29" y="921.3555">&#160;</text><line style="stroke:#181818;stroke-width:1.0;stroke-dasharray:1.0,2.0;" x1="10" x2="255" y1="858.7198" y2="858.7198"/><text fill="#000000" font-family="sans-serif" font-size="14" lengthAdjust="spacing" textLength="145" x="255" y="863.6518">Framebuffer Creation</text><line style="stroke:#181818;stroke-width:1.0;stroke-dasharray:1.0,2.0;" x1="400" x2="645" y1="858.7198" y2="858.7198"/><ellipse cx="20" cy="959.5594" fill="#84BE84" rx="3" ry="3" style="stroke:#038048;stroke-width:1.0;"/><text fill="#000000" font-family="sans-serif" font-size="14" font-style="italic" lengthAdjust="spacing" textLength="496" x="29" y="963.4914">create_compute_task(program: RHI_shader_program*, ...): RHI_compute_task*</text><text fill="#000000" font-family="sans-serif" font-size="14" lengthAdjust="spacing" textLength="4" x="29" y="982.5593">&#160;</text><line style="stroke:#181818;stroke-width:1.0;stroke-dasharray:1.0,2.0;" x1="10" x2="249.5" y1="938.9915" y2="938.9915"/><text fill="#000000" font-family="sans-serif" font-size="14" lengthAdjust="spacing" textLength="156" x="249.5" y="943.9234">Compute Task Creation</text><line style="stroke:#181818;stroke-width:1.0;stroke-dasharray:1.0,2.0;" x1="405.5" x2="645" y1="938.9915" y2="938.9915"/><ellipse cx="20" cy="1020.7631" fill="#84BE84" rx="3" ry="3" style="stroke:#038048;stroke-width:1.0;"/><text fill="#000000" font-family="sans-serif" font-size="14" font-style="italic" lengthAdjust="spacing" textLength="394" x="29" y="1024.6951">create_memory_buffer_binder(...): RHI_memory_buffer_binder*</text><ellipse cx="20" cy="1039.831" fill="#84BE84" rx="3" ry="3" style="stroke:#038048;stroke-width:1.0;"/><text fill="#000000" font-family="sans-serif" font-size="14" font-style="italic" lengthAdjust="spacing" textLength="302" x="29" y="1043.763">create_texture_builder(...): RHI_texture_builder*</text><ellipse cx="20" cy="1058.899" fill="#84BE84" rx="3" ry="3" style="stroke:#038048;stroke-width:1.0;"/><text fill="#000000" font-family="sans-serif" font-size="14" font-style="italic" lengthAdjust="spacing" textLength="220" x="29" y="1062.8309">create_renderer(...): RHI_renderer*</text><ellipse cx="20" cy="1077.9669" fill="#84BE84" rx="3" ry="3" style="stroke:#038048;stroke-width:1.0;"/><text fill="#000000" font-family="sans-serif" font-size="14" font-style="italic" lengthAdjust="spacing" textLength="284" x="29" y="1081.8989">create_pipeline_state(...): RHI_pipeline_state*</text><line style="stroke:#181818;stroke-width:1.0;stroke-dasharray:1.0,2.0;" x1="10" x2="227.5" y1="1000.1952" y2="1000.1952"/><text fill="#000000" font-family="sans-serif" font-size="14" lengthAdjust="spacing" textLength="200" x="227.5" y="1005.1272">Higher-Order Object Creation</text><line style="stroke:#181818;stroke-width:1.0;stroke-dasharray:1.0,2.0;" x1="427.5" x2="645" y1="1000.1952" y2="1000.1952"/></g><!--class RHI_vertex_buffer--><g id="elem_RHI_vertex_buffer"><rect codeLine="50" fill="#F1F1F1" height="48" id="RHI_vertex_buffer" rx="2.5" ry="2.5" style="stroke:#181818;stroke-width:0.5;" width="151" x="1163" y="70.2479"/><ellipse cx="1178" cy="86.2479" fill="#ADD1B2" rx="11" ry="11" style="stroke:#181818;stroke-width:1.0;"/><path d="M1178.1094,81.7792 Q1177.1875,81.7792 1176.4531,82.0917 Q1175.7344,82.4042 1175.2344,82.9979 Q1174.7344,83.576 1174.4531,84.451 Q1174.1875,85.326 1174.1875,86.4198 Q1174.1875,87.8573 1174.625,88.9042 Q1175.0781,89.951 1175.9219,90.4979 Q1176.7813,91.0448 1178.0938,91.0448 Q1178.875,91.0448 1179.5625,90.9198 Q1180.2656,90.7792 1181.2656,90.4667 L1181.2656,92.3417 Q1180.4063,92.6698 1179.6406,92.7948 Q1178.8906,92.9198 1177.875,92.9198 Q1175.9531,92.9198 1174.6406,92.1229 Q1173.3438,91.3104 1172.6875,89.8417 Q1172.0313,88.3573 1172.0313,86.3885 Q1172.0313,84.9667 1172.4219,83.7948 Q1172.8281,82.6073 1173.6094,81.7323 Q1174.3906,80.8573 1175.5313,80.3885 Q1176.6719,79.9042 1178.1406,79.9042 Q1179.0938,79.9042 1179.9844,80.1073 Q1180.8906,80.2948 1181.8281,80.7635 L1181,82.5448 Q1180.2188,82.1698 1179.5625,81.9823 Q1178.9063,81.7792 1178.1094,81.7792 Z " fill="#000000"/><text fill="#000000" font-family="sans-serif" font-size="14" lengthAdjust="spacing" textLength="119" x="1192" y="91.6799">RHI_vertex_buffer</text><line style="stroke:#181818;stroke-width:0.5;" x1="1164" x2="1313" y1="102.2479" y2="102.2479"/><line style="stroke:#181818;stroke-width:0.5;" x1="1164" x2="1313" y1="110.2479" y2="110.2479"/></g><!--class RHI_element_buffer--><g id="elem_RHI_element_buffer"><rect codeLine="51" fill="#F1F1F1" height="48" id="RHI_element_buffer" rx="2.5" ry="2.5" style="stroke:#181818;stroke-width:0.5;" width="165" x="1156" y="193.2479"/><ellipse cx="1171" cy="209.2479" fill="#ADD1B2" rx="11" ry="11" style="stroke:#181818;stroke-width:1.0;"/><path d="M1171.1094,204.7792 Q1170.1875,204.7792 1169.4531,205.0917 Q1168.7344,205.4042 1168.2344,205.9979 Q1167.7344,206.576 1167.4531,207.451 Q1167.1875,208.326 1167.1875,209.4198 Q1167.1875,210.8573 1167.625,211.9042 Q1168.0781,212.951 1168.9219,213.4979 Q1169.7813,214.0448 1171.0938,214.0448 Q1171.875,214.0448 1172.5625,213.9198 Q1173.2656,213.7792 1174.2656,213.4667 L1174.2656,215.3417 Q1173.4063,215.6698 1172.6406,215.7948 Q1171.8906,215.9198 1170.875,215.9198 Q1168.9531,215.9198 1167.6406,215.1229 Q1166.3438,214.3104 1165.6875,212.8417 Q1165.0313,211.3573 1165.0313,209.3885 Q1165.0313,207.9667 1165.4219,206.7948 Q1165.8281,205.6073 1166.6094,204.7323 Q1167.3906,203.8573 1168.5313,203.3885 Q1169.6719,202.9042 1171.1406,202.9042 Q1172.0938,202.9042 1172.9844,203.1073 Q1173.8906,203.2948 1174.8281,203.7635 L1174,205.5448 Q1173.2188,205.1698 1172.5625,204.9823 Q1171.9063,204.7792 1171.1094,204.7792 Z " fill="#000000"/><text fill="#000000" font-family="sans-serif" font-size="14" lengthAdjust="spacing" textLength="133" x="1185" y="214.6799">RHI_element_buffer</text><line style="stroke:#181818;stroke-width:0.5;" x1="1157" x2="1320" y1="225.2479" y2="225.2479"/><line style="stroke:#181818;stroke-width:0.5;" x1="1157" x2="1320" y1="233.2479" y2="233.2479"/></g><!--class RHI_memory_buffer--><g id="elem_RHI_memory_buffer"><rect codeLine="52" fill="#F1F1F1" height="48" id="RHI_memory_buffer" rx="2.5" ry="2.5" style="stroke:#181818;stroke-width:0.5;" width="165" x="790.5" y="314.2479"/><ellipse cx="805.5" cy="330.2479" fill="#ADD1B2" rx="11" ry="11" style="stroke:#181818;stroke-width:1.0;"/><path d="M805.6094,325.7792 Q804.6875,325.7792 803.9531,326.0917 Q803.2344,326.4042 802.7344,326.9979 Q802.2344,327.576 801.9531,328.451 Q801.6875,329.326 801.6875,330.4198 Q801.6875,331.8573 802.125,332.9042 Q802.5781,333.951 803.4219,334.4979 Q804.2813,335.0448 805.5938,335.0448 Q806.375,335.0448 807.0625,334.9198 Q807.7656,334.7792 808.7656,334.4667 L808.7656,336.3417 Q807.9063,336.6698 807.1406,336.7948 Q806.3906,336.9198 805.375,336.9198 Q803.4531,336.9198 802.1406,336.1229 Q800.8438,335.3104 800.1875,333.8417 Q799.5313,332.3573 799.5313,330.3885 Q799.5313,328.9667 799.9219,327.7948 Q800.3281,326.6073 801.1094,325.7323 Q801.8906,324.8573 803.0313,324.3885 Q804.1719,323.9042 805.6406,323.9042 Q806.5938,323.9042 807.4844,324.1073 Q808.3906,324.2948 809.3281,324.7635 L808.5,326.5448 Q807.7188,326.1698 807.0625,325.9823 Q806.4063,325.7792 805.6094,325.7792 Z " fill="#000000"/><text fill="#000000" font-family="sans-serif" font-size="14" lengthAdjust="spacing" textLength="133" x="819.5" y="335.6799">RHI_memory_buffer</text><line style="stroke:#181818;stroke-width:0.5;" x1="791.5" x2="954.5" y1="346.2479" y2="346.2479"/><line style="stroke:#181818;stroke-width:0.5;" x1="791.5" x2="954.5" y1="354.2479" y2="354.2479"/></g><!--class RHI_geometry--><g id="elem_RHI_geometry"><rect codeLine="53" fill="#F1F1F1" height="48" id="RHI_geometry" rx="2.5" ry="2.5" style="stroke:#181818;stroke-width:0.5;" width="126" x="810" y="142.2479"/><ellipse cx="825" cy="158.2479" fill="#ADD1B2" rx="11" ry="11" style="stroke:#181818;stroke-width:1.0;"/><path d="M825.1094,153.7792 Q824.1875,153.7792 823.4531,154.0917 Q822.7344,154.4042 822.2344,154.9979 Q821.7344,155.576 821.4531,156.451 Q821.1875,157.326 821.1875,158.4198 Q821.1875,159.8573 821.625,160.9042 Q822.0781,161.951 822.9219,162.4979 Q823.7813,163.0448 825.0938,163.0448 Q825.875,163.0448 826.5625,162.9198 Q827.2656,162.7792 828.2656,162.4667 L828.2656,164.3417 Q827.4063,164.6698 826.6406,164.7948 Q825.8906,164.9198 824.875,164.9198 Q822.9531,164.9198 821.6406,164.1229 Q820.3438,163.3104 819.6875,161.8417 Q819.0313,160.3573 819.0313,158.3885 Q819.0313,156.9667 819.4219,155.7948 Q819.8281,154.6073 820.6094,153.7323 Q821.3906,152.8573 822.5313,152.3885 Q823.6719,151.9042 825.1406,151.9042 Q826.0938,151.9042 826.9844,152.1073 Q827.8906,152.2948 828.8281,152.7635 L828,154.5448 Q827.2188,154.1698 826.5625,153.9823 Q825.9063,153.7792 825.1094,153.7792 Z " fill="#000000"/><text fill="#000000" font-family="sans-serif" font-size="14" lengthAdjust="spacing" textLength="94" x="839" y="163.6799">RHI_geometry</text><line style="stroke:#181818;stroke-width:0.5;" x1="811" x2="935" y1="174.2479" y2="174.2479"/><line style="stroke:#181818;stroke-width:0.5;" x1="811" x2="935" y1="182.2479" y2="182.2479"/></g><!--class RHI_shader_code--><g id="elem_RHI_shader_code"><rect codeLine="54" fill="#F1F1F1" height="48" id="RHI_shader_code" rx="2.5" ry="2.5" style="stroke:#181818;stroke-width:0.5;" width="147" x="1165" y="423.2479"/><ellipse cx="1180" cy="439.2479" fill="#ADD1B2" rx="11" ry="11" style="stroke:#181818;stroke-width:1.0;"/><path d="M1180.1094,434.7792 Q1179.1875,434.7792 1178.4531,435.0917 Q1177.7344,435.4042 1177.2344,435.9979 Q1176.7344,436.576 1176.4531,437.451 Q1176.1875,438.326 1176.1875,439.4198 Q1176.1875,440.8573 1176.625,441.9042 Q1177.0781,442.951 1177.9219,443.4979 Q1178.7813,444.0448 1180.0938,444.0448 Q1180.875,444.0448 1181.5625,443.9198 Q1182.2656,443.7792 1183.2656,443.4667 L1183.2656,445.3417 Q1182.4063,445.6698 1181.6406,445.7948 Q1180.8906,445.9198 1179.875,445.9198 Q1177.9531,445.9198 1176.6406,445.1229 Q1175.3438,444.3104 1174.6875,442.8417 Q1174.0313,441.3573 1174.0313,439.3885 Q1174.0313,437.9667 1174.4219,436.7948 Q1174.8281,435.6073 1175.6094,434.7323 Q1176.3906,433.8573 1177.5313,433.3885 Q1178.6719,432.9042 1180.1406,432.9042 Q1181.0938,432.9042 1181.9844,433.1073 Q1182.8906,433.2948 1183.8281,433.7635 L1183,435.5448 Q1182.2188,435.1698 1181.5625,434.9823 Q1180.9063,434.7792 1180.1094,434.7792 Z " fill="#000000"/><text fill="#000000" font-family="sans-serif" font-size="14" lengthAdjust="spacing" textLength="115" x="1194" y="444.6799">RHI_shader_code</text><line style="stroke:#181818;stroke-width:0.5;" x1="1166" x2="1311" y1="455.2479" y2="455.2479"/><line style="stroke:#181818;stroke-width:0.5;" x1="1166" x2="1311" y1="463.2479" y2="463.2479"/></g><!--class RHI_shader_program--><g id="elem_RHI_shader_program"><rect codeLine="55" fill="#F1F1F1" height="48" id="RHI_shader_program" rx="2.5" ry="2.5" style="stroke:#181818;stroke-width:0.5;" width="174" x="786" y="486.2479"/><ellipse cx="801" cy="502.2479" fill="#ADD1B2" rx="11" ry="11" style="stroke:#181818;stroke-width:1.0;"/><path d="M801.1094,497.7792 Q800.1875,497.7792 799.4531,498.0917 Q798.7344,498.4042 798.2344,498.9979 Q797.7344,499.576 797.4531,500.451 Q797.1875,501.326 797.1875,502.4198 Q797.1875,503.8573 797.625,504.9042 Q798.0781,505.951 798.9219,506.4979 Q799.7813,507.0448 801.0938,507.0448 Q801.875,507.0448 802.5625,506.9198 Q803.2656,506.7792 804.2656,506.4667 L804.2656,508.3417 Q803.4063,508.6698 802.6406,508.7948 Q801.8906,508.9198 800.875,508.9198 Q798.9531,508.9198 797.6406,508.1229 Q796.3438,507.3104 795.6875,505.8417 Q795.0313,504.3573 795.0313,502.3885 Q795.0313,500.9667 795.4219,499.7948 Q795.8281,498.6073 796.6094,497.7323 Q797.3906,496.8573 798.5313,496.3885 Q799.6719,495.9042 801.1406,495.9042 Q802.0938,495.9042 802.9844,496.1073 Q803.8906,496.2948 804.8281,496.7635 L804,498.5448 Q803.2188,498.1698 802.5625,497.9823 Q801.9063,497.7792 801.1094,497.7792 Z " fill="#000000"/><text fill="#000000" font-family="sans-serif" font-size="14" lengthAdjust="spacing" textLength="142" x="815" y="507.6799">RHI_shader_program</text><line style="stroke:#181818;stroke-width:0.5;" x1="787" x2="959" y1="518.2479" y2="518.2479"/><line style="stroke:#181818;stroke-width:0.5;" x1="787" x2="959" y1="526.2479" y2="526.2479"/></g><!--class RHI_texture--><g id="elem_RHI_texture"><rect codeLine="56" fill="#F1F1F1" height="80.4799" id="RHI_texture" rx="2.5" ry="2.5" style="stroke:#181818;stroke-width:0.5;" width="191" x="1143" y="608.0079"/><ellipse cx="1195.25" cy="630.7139" fill="#ADD1B2" rx="11" ry="11" style="stroke:#181818;stroke-width:1.0;"/><path d="M1195.3594,626.2452 Q1194.4375,626.2452 1193.7031,626.5577 Q1192.9844,626.8702 1192.4844,627.4639 Q1191.9844,628.0421 1191.7031,628.9171 Q1191.4375,629.7921 1191.4375,630.8858 Q1191.4375,632.3233 1191.875,633.3702 Q1192.3281,634.4171 1193.1719,634.9639 Q1194.0313,635.5108 1195.3438,635.5108 Q1196.125,635.5108 1196.8125,635.3858 Q1197.5156,635.2452 1198.5156,634.9327 L1198.5156,636.8077 Q1197.6563,637.1358 1196.8906,637.2608 Q1196.1406,637.3858 1195.125,637.3858 Q1193.2031,637.3858 1191.8906,636.5889 Q1190.5938,635.7764 1189.9375,634.3077 Q1189.2813,632.8233 1189.2813,630.8546 Q1189.2813,629.4327 1189.6719,628.2608 Q1190.0781,627.0733 1190.8594,626.1983 Q1191.6406,625.3233 1192.7813,624.8546 Q1193.9219,624.3702 1195.3906,624.3702 Q1196.3438,624.3702 1197.2344,624.5733 Q1198.1406,624.7608 1199.0781,625.2296 L1198.25,627.0108 Q1197.4688,626.6358 1196.8125,626.4483 Q1196.1563,626.2452 1195.3594,626.2452 Z " fill="#000000"/><text fill="#000000" font-family="sans-serif" font-size="12" font-style="italic" lengthAdjust="spacing" textLength="56" x="1226.75" y="625.836">&#171;abstract&#187;</text><text fill="#000000" font-family="sans-serif" font-size="14" lengthAdjust="spacing" textLength="78" x="1215.75" y="644.318">RHI_texture</text><line style="stroke:#181818;stroke-width:0.5;" x1="1144" x2="1333" y1="653.4199" y2="653.4199"/><line style="stroke:#181818;stroke-width:0.5;" x1="1144" x2="1333" y1="661.4199" y2="661.4199"/><ellipse cx="1154" cy="676.4539" fill="#84BE84" rx="3" ry="3" style="stroke:#038048;stroke-width:1.0;"/><text fill="#000000" font-family="sans-serif" font-size="14" font-style="italic" lengthAdjust="spacing" textLength="165" x="1163" y="680.3859">get_native_handle(): void*</text></g><!--class RHI_texture_2D--><g id="elem_RHI_texture_2D"><rect codeLine="59" fill="#F1F1F1" height="48" id="RHI_texture_2D" rx="2.5" ry="2.5" style="stroke:#181818;stroke-width:0.5;" width="134" x="1415.5" y="560.2479"/><ellipse cx="1430.5" cy="576.2479" fill="#ADD1B2" rx="11" ry="11" style="stroke:#181818;stroke-width:1.0;"/><path d="M1430.6094,571.7792 Q1429.6875,571.7792 1428.9531,572.0917 Q1428.2344,572.4042 1427.7344,572.9979 Q1427.2344,573.576 1426.9531,574.451 Q1426.6875,575.326 1426.6875,576.4198 Q1426.6875,577.8573 1427.125,578.9042 Q1427.5781,579.951 1428.4219,580.4979 Q1429.2813,581.0448 1430.5938,581.0448 Q1431.375,581.0448 1432.0625,580.9198 Q1432.7656,580.7792 1433.7656,580.4667 L1433.7656,582.3417 Q1432.9063,582.6698 1432.1406,582.7948 Q1431.3906,582.9198 1430.375,582.9198 Q1428.4531,582.9198 1427.1406,582.1229 Q1425.8438,581.3104 1425.1875,579.8417 Q1424.5313,578.3573 1424.5313,576.3885 Q1424.5313,574.9667 1424.9219,573.7948 Q1425.3281,572.6073 1426.1094,571.7323 Q1426.8906,570.8573 1428.0313,570.3885 Q1429.1719,569.9042 1430.6406,569.9042 Q1431.5938,569.9042 1432.4844,570.1073 Q1433.3906,570.2948 1434.3281,570.7635 L1433.5,572.5448 Q1432.7188,572.1698 1432.0625,571.9823 Q1431.4063,571.7792 1430.6094,571.7792 Z " fill="#000000"/><text fill="#000000" font-family="sans-serif" font-size="14" lengthAdjust="spacing" textLength="102" x="1444.5" y="581.6799">RHI_texture_2D</text><line style="stroke:#181818;stroke-width:0.5;" x1="1416.5" x2="1548.5" y1="592.2479" y2="592.2479"/><line style="stroke:#181818;stroke-width:0.5;" x1="1416.5" x2="1548.5" y1="600.2479" y2="600.2479"/></g><!--class RHI_texture_2D_array--><g id="elem_RHI_texture_2D_array"><rect codeLine="60" fill="#F1F1F1" height="48" id="RHI_texture_2D_array" rx="2.5" ry="2.5" style="stroke:#181818;stroke-width:0.5;" width="175" x="1395" y="655.2479"/><ellipse cx="1410" cy="671.2479" fill="#ADD1B2" rx="11" ry="11" style="stroke:#181818;stroke-width:1.0;"/><path d="M1410.1094,666.7792 Q1409.1875,666.7792 1408.4531,667.0917 Q1407.7344,667.4042 1407.2344,667.9979 Q1406.7344,668.576 1406.4531,669.451 Q1406.1875,670.326 1406.1875,671.4198 Q1406.1875,672.8573 1406.625,673.9042 Q1407.0781,674.951 1407.9219,675.4979 Q1408.7813,676.0448 1410.0938,676.0448 Q1410.875,676.0448 1411.5625,675.9198 Q1412.2656,675.7792 1413.2656,675.4667 L1413.2656,677.3417 Q1412.4063,677.6698 1411.6406,677.7948 Q1410.8906,677.9198 1409.875,677.9198 Q1407.9531,677.9198 1406.6406,677.1229 Q1405.3438,676.3104 1404.6875,674.8417 Q1404.0313,673.3573 1404.0313,671.3885 Q1404.0313,669.9667 1404.4219,668.7948 Q1404.8281,667.6073 1405.6094,666.7323 Q1406.3906,665.8573 1407.5313,665.3885 Q1408.6719,664.9042 1410.1406,664.9042 Q1411.0938,664.9042 1411.9844,665.1073 Q1412.8906,665.2948 1413.8281,665.7635 L1413,667.5448 Q1412.2188,667.1698 1411.5625,666.9823 Q1410.9063,666.7792 1410.1094,666.7792 Z " fill="#000000"/><text fill="#000000" font-family="sans-serif" font-size="14" lengthAdjust="spacing" textLength="143" x="1424" y="676.6799">RHI_texture_2D_array</text><line style="stroke:#181818;stroke-width:0.5;" x1="1396" x2="1569" y1="687.2479" y2="687.2479"/><line style="stroke:#181818;stroke-width:0.5;" x1="1396" x2="1569" y1="695.2479" y2="695.2479"/></g><!--class RHI_cube_map--><g id="elem_RHI_cube_map"><rect codeLine="61" fill="#F1F1F1" height="48" id="RHI_cube_map" rx="2.5" ry="2.5" style="stroke:#181818;stroke-width:0.5;" width="131" x="1417" y="763.2479"/><ellipse cx="1432" cy="779.2479" fill="#ADD1B2" rx="11" ry="11" style="stroke:#181818;stroke-width:1.0;"/><path d="M1432.1094,774.7792 Q1431.1875,774.7792 1430.4531,775.0917 Q1429.7344,775.4042 1429.2344,775.9979 Q1428.7344,776.576 1428.4531,777.451 Q1428.1875,778.326 1428.1875,779.4198 Q1428.1875,780.8573 1428.625,781.9042 Q1429.0781,782.951 1429.9219,783.4979 Q1430.7813,784.0448 1432.0938,784.0448 Q1432.875,784.0448 1433.5625,783.9198 Q1434.2656,783.7792 1435.2656,783.4667 L1435.2656,785.3417 Q1434.4063,785.6698 1433.6406,785.7948 Q1432.8906,785.9198 1431.875,785.9198 Q1429.9531,785.9198 1428.6406,785.1229 Q1427.3438,784.3104 1426.6875,782.8417 Q1426.0313,781.3573 1426.0313,779.3885 Q1426.0313,777.9667 1426.4219,776.7948 Q1426.8281,775.6073 1427.6094,774.7323 Q1428.3906,773.8573 1429.5313,773.3885 Q1430.6719,772.9042 1432.1406,772.9042 Q1433.0938,772.9042 1433.9844,773.1073 Q1434.8906,773.2948 1435.8281,773.7635 L1435,775.5448 Q1434.2188,775.1698 1433.5625,774.9823 Q1432.9063,774.7792 1432.1094,774.7792 Z " fill="#000000"/><text fill="#000000" font-family="sans-serif" font-size="14" lengthAdjust="spacing" textLength="99" x="1446" y="784.6799">RHI_cube_map</text><line style="stroke:#181818;stroke-width:0.5;" x1="1418" x2="1547" y1="795.2479" y2="795.2479"/><line style="stroke:#181818;stroke-width:0.5;" x1="1418" x2="1547" y1="803.2479" y2="803.2479"/></g><!--class RHI_frame_buffer--><g id="elem_RHI_frame_buffer"><rect codeLine="62" fill="#F1F1F1" height="48" id="RHI_frame_buffer" rx="2.5" ry="2.5" style="stroke:#181818;stroke-width:0.5;" width="150" x="798" y="640.2479"/><ellipse cx="813" cy="656.2479" fill="#ADD1B2" rx="11" ry="11" style="stroke:#181818;stroke-width:1.0;"/><path d="M813.1094,651.7792 Q812.1875,651.7792 811.4531,652.0917 Q810.7344,652.4042 810.2344,652.9979 Q809.7344,653.576 809.4531,654.451 Q809.1875,655.326 809.1875,656.4198 Q809.1875,657.8573 809.625,658.9042 Q810.0781,659.951 810.9219,660.4979 Q811.7813,661.0448 813.0938,661.0448 Q813.875,661.0448 814.5625,660.9198 Q815.2656,660.7792 816.2656,660.4667 L816.2656,662.3417 Q815.4063,662.6698 814.6406,662.7948 Q813.8906,662.9198 812.875,662.9198 Q810.9531,662.9198 809.6406,662.1229 Q808.3438,661.3104 807.6875,659.8417 Q807.0313,658.3573 807.0313,656.3885 Q807.0313,654.9667 807.4219,653.7948 Q807.8281,652.6073 808.6094,651.7323 Q809.3906,650.8573 810.5313,650.3885 Q811.6719,649.9042 813.1406,649.9042 Q814.0938,649.9042 814.9844,650.1073 Q815.8906,650.2948 816.8281,650.7635 L816,652.5448 Q815.2188,652.1698 814.5625,651.9823 Q813.9063,651.7792 813.1094,651.7792 Z " fill="#000000"/><text fill="#000000" font-family="sans-serif" font-size="14" lengthAdjust="spacing" textLength="118" x="827" y="661.6799">RHI_frame_buffer</text><line style="stroke:#181818;stroke-width:0.5;" x1="799" x2="947" y1="672.2479" y2="672.2479"/><line style="stroke:#181818;stroke-width:0.5;" x1="799" x2="947" y1="680.2479" y2="680.2479"/></g><!--class RHI_screen_buffer--><g id="elem_RHI_screen_buffer"><rect codeLine="63" fill="#F1F1F1" height="48" id="RHI_screen_buffer" rx="2.5" ry="2.5" style="stroke:#181818;stroke-width:0.5;" width="155" x="795.5" y="865.2479"/><ellipse cx="810.5" cy="881.2479" fill="#ADD1B2" rx="11" ry="11" style="stroke:#181818;stroke-width:1.0;"/><path d="M810.6094,876.7792 Q809.6875,876.7792 808.9531,877.0917 Q808.2344,877.4042 807.7344,877.9979 Q807.2344,878.576 806.9531,879.451 Q806.6875,880.326 806.6875,881.4198 Q806.6875,882.8573 807.125,883.9042 Q807.5781,884.951 808.4219,885.4979 Q809.2813,886.0448 810.5938,886.0448 Q811.375,886.0448 812.0625,885.9198 Q812.7656,885.7792 813.7656,885.4667 L813.7656,887.3417 Q812.9063,887.6698 812.1406,887.7948 Q811.3906,887.9198 810.375,887.9198 Q808.4531,887.9198 807.1406,887.1229 Q805.8438,886.3104 805.1875,884.8417 Q804.5313,883.3573 804.5313,881.3885 Q804.5313,879.9667 804.9219,878.7948 Q805.3281,877.6073 806.1094,876.7323 Q806.8906,875.8573 808.0313,875.3885 Q809.1719,874.9042 810.6406,874.9042 Q811.5938,874.9042 812.4844,875.1073 Q813.3906,875.2948 814.3281,875.7635 L813.5,877.5448 Q812.7188,877.1698 812.0625,876.9823 Q811.4063,876.7792 810.6094,876.7792 Z " fill="#000000"/><text fill="#000000" font-family="sans-serif" font-size="14" lengthAdjust="spacing" textLength="123" x="824.5" y="886.6799">RHI_screen_buffer</text><line style="stroke:#181818;stroke-width:0.5;" x1="796.5" x2="949.5" y1="897.2479" y2="897.2479"/><line style="stroke:#181818;stroke-width:0.5;" x1="796.5" x2="949.5" y1="905.2479" y2="905.2479"/></g><!--class RHI_compute_task--><g id="elem_RHI_compute_task"><rect codeLine="64" fill="#F1F1F1" height="48" id="RHI_compute_task" rx="2.5" ry="2.5" style="stroke:#181818;stroke-width:0.5;" width="154" x="796" y="948.2479"/><ellipse cx="811" cy="964.2479" fill="#ADD1B2" rx="11" ry="11" style="stroke:#181818;stroke-width:1.0;"/><path d="M811.1094,959.7792 Q810.1875,959.7792 809.4531,960.0917 Q808.7344,960.4042 808.2344,960.9979 Q807.7344,961.576 807.4531,962.451 Q807.1875,963.326 807.1875,964.4198 Q807.1875,965.8573 807.625,966.9042 Q808.0781,967.951 808.9219,968.4979 Q809.7813,969.0448 811.0938,969.0448 Q811.875,969.0448 812.5625,968.9198 Q813.2656,968.7792 814.2656,968.4667 L814.2656,970.3417 Q813.4063,970.6698 812.6406,970.7948 Q811.8906,970.9198 810.875,970.9198 Q808.9531,970.9198 807.6406,970.1229 Q806.3438,969.3104 805.6875,967.8417 Q805.0313,966.3573 805.0313,964.3885 Q805.0313,962.9667 805.4219,961.7948 Q805.8281,960.6073 806.6094,959.7323 Q807.3906,958.8573 808.5313,958.3885 Q809.6719,957.9042 811.1406,957.9042 Q812.0938,957.9042 812.9844,958.1073 Q813.8906,958.2948 814.8281,958.7635 L814,960.5448 Q813.2188,960.1698 812.5625,959.9823 Q811.9063,959.7792 811.1094,959.7792 Z " fill="#000000"/><text fill="#000000" font-family="sans-serif" font-size="14" lengthAdjust="spacing" textLength="122" x="825" y="969.6799">RHI_compute_task</text><line style="stroke:#181818;stroke-width:0.5;" x1="797" x2="949" y1="980.2479" y2="980.2479"/><line style="stroke:#181818;stroke-width:0.5;" x1="797" x2="949" y1="988.2479" y2="988.2479"/></g><!--class RHI_memory_buffer_binder--><g id="elem_RHI_memory_buffer_binder"><rect codeLine="65" fill="#F1F1F1" height="48" id="RHI_memory_buffer_binder" rx="2.5" ry="2.5" style="stroke:#181818;stroke-width:0.5;" width="216" x="765" y="1031.2479"/><ellipse cx="780" cy="1047.2479" fill="#ADD1B2" rx="11" ry="11" style="stroke:#181818;stroke-width:1.0;"/><path d="M780.1094,1042.7792 Q779.1875,1042.7792 778.4531,1043.0917 Q777.7344,1043.4042 777.2344,1043.9979 Q776.7344,1044.576 776.4531,1045.451 Q776.1875,1046.326 776.1875,1047.4198 Q776.1875,1048.8573 776.625,1049.9042 Q777.0781,1050.951 777.9219,1051.4979 Q778.7813,1052.0448 780.0938,1052.0448 Q780.875,1052.0448 781.5625,1051.9198 Q782.2656,1051.7792 783.2656,1051.4667 L783.2656,1053.3417 Q782.4063,1053.6698 781.6406,1053.7948 Q780.8906,1053.9198 779.875,1053.9198 Q777.9531,1053.9198 776.6406,1053.1229 Q775.3438,1052.3104 774.6875,1050.8417 Q774.0313,1049.3573 774.0313,1047.3885 Q774.0313,1045.9667 774.4219,1044.7948 Q774.8281,1043.6073 775.6094,1042.7323 Q776.3906,1041.8573 777.5313,1041.3885 Q778.6719,1040.9042 780.1406,1040.9042 Q781.0938,1040.9042 781.9844,1041.1073 Q782.8906,1041.2948 783.8281,1041.7635 L783,1043.5448 Q782.2188,1043.1698 781.5625,1042.9823 Q780.9063,1042.7792 780.1094,1042.7792 Z " fill="#000000"/><text fill="#000000" font-family="sans-serif" font-size="14" lengthAdjust="spacing" textLength="184" x="794" y="1052.6799">RHI_memory_buffer_binder</text><line style="stroke:#181818;stroke-width:0.5;" x1="766" x2="980" y1="1063.2479" y2="1063.2479"/><line style="stroke:#181818;stroke-width:0.5;" x1="766" x2="980" y1="1071.2479" y2="1071.2479"/></g><!--class RHI_texture_builder--><g id="elem_RHI_texture_builder"><rect codeLine="66" fill="#F1F1F1" height="48" id="RHI_texture_builder" rx="2.5" ry="2.5" style="stroke:#181818;stroke-width:0.5;" width="165" x="790.5" y="1114.2479"/><ellipse cx="805.5" cy="1130.2479" fill="#ADD1B2" rx="11" ry="11" style="stroke:#181818;stroke-width:1.0;"/><path d="M805.6094,1125.7792 Q804.6875,1125.7792 803.9531,1126.0917 Q803.2344,1126.4042 802.7344,1126.9979 Q802.2344,1127.576 801.9531,1128.451 Q801.6875,1129.326 801.6875,1130.4198 Q801.6875,1131.8573 802.125,1132.9042 Q802.5781,1133.951 803.4219,1134.4979 Q804.2813,1135.0448 805.5938,1135.0448 Q806.375,1135.0448 807.0625,1134.9198 Q807.7656,1134.7792 808.7656,1134.4667 L808.7656,1136.3417 Q807.9063,1136.6698 807.1406,1136.7948 Q806.3906,1136.9198 805.375,1136.9198 Q803.4531,1136.9198 802.1406,1136.1229 Q800.8438,1135.3104 800.1875,1133.8417 Q799.5313,1132.3573 799.5313,1130.3885 Q799.5313,1128.9667 799.9219,1127.7948 Q800.3281,1126.6073 801.1094,1125.7323 Q801.8906,1124.8573 803.0313,1124.3885 Q804.1719,1123.9042 805.6406,1123.9042 Q806.5938,1123.9042 807.4844,1124.1073 Q808.3906,1124.2948 809.3281,1124.7635 L808.5,1126.5448 Q807.7188,1126.1698 807.0625,1125.9823 Q806.4063,1125.7792 805.6094,1125.7792 Z " fill="#000000"/><text fill="#000000" font-family="sans-serif" font-size="14" lengthAdjust="spacing" textLength="133" x="819.5" y="1135.6799">RHI_texture_builder</text><line style="stroke:#181818;stroke-width:0.5;" x1="791.5" x2="954.5" y1="1146.2479" y2="1146.2479"/><line style="stroke:#181818;stroke-width:0.5;" x1="791.5" x2="954.5" y1="1154.2479" y2="1154.2479"/></g><!--class RHI_renderer--><g id="elem_RHI_renderer"><rect codeLine="67" fill="#F1F1F1" height="48" id="RHI_renderer" rx="2.5" ry="2.5" style="stroke:#181818;stroke-width:0.5;" width="122" x="812" y="1197.2479"/><ellipse cx="827" cy="1213.2479" fill="#ADD1B2" rx="11" ry="11" style="stroke:#181818;stroke-width:1.0;"/><path d="M827.1094,1208.7792 Q826.1875,1208.7792 825.4531,1209.0917 Q824.7344,1209.4042 824.2344,1209.9979 Q823.7344,1210.576 823.4531,1211.451 Q823.1875,1212.326 823.1875,1213.4198 Q823.1875,1214.8573 823.625,1215.9042 Q824.0781,1216.951 824.9219,1217.4979 Q825.7813,1218.0448 827.0938,1218.0448 Q827.875,1218.0448 828.5625,1217.9198 Q829.2656,1217.7792 830.2656,1217.4667 L830.2656,1219.3417 Q829.4063,1219.6698 828.6406,1219.7948 Q827.8906,1219.9198 826.875,1219.9198 Q824.9531,1219.9198 823.6406,1219.1229 Q822.3438,1218.3104 821.6875,1216.8417 Q821.0313,1215.3573 821.0313,1213.3885 Q821.0313,1211.9667 821.4219,1210.7948 Q821.8281,1209.6073 822.6094,1208.7323 Q823.3906,1207.8573 824.5313,1207.3885 Q825.6719,1206.9042 827.1406,1206.9042 Q828.0938,1206.9042 828.9844,1207.1073 Q829.8906,1207.2948 830.8281,1207.7635 L830,1209.5448 Q829.2188,1209.1698 828.5625,1208.9823 Q827.9063,1208.7792 827.1094,1208.7792 Z " fill="#000000"/><text fill="#000000" font-family="sans-serif" font-size="14" lengthAdjust="spacing" textLength="90" x="841" y="1218.6799">RHI_renderer</text><line style="stroke:#181818;stroke-width:0.5;" x1="813" x2="933" y1="1229.2479" y2="1229.2479"/><line style="stroke:#181818;stroke-width:0.5;" x1="813" x2="933" y1="1237.2479" y2="1237.2479"/></g><!--class RHI_pipeline_state--><g id="elem_RHI_pipeline_state"><rect codeLine="68" fill="#F1F1F1" height="48" id="RHI_pipeline_state" rx="2.5" ry="2.5" style="stroke:#181818;stroke-width:0.5;" width="156" x="795" y="1280.2479"/><ellipse cx="810" cy="1296.2479" fill="#ADD1B2" rx="11" ry="11" style="stroke:#181818;stroke-width:1.0;"/><path d="M810.1094,1291.7792 Q809.1875,1291.7792 808.4531,1292.0917 Q807.7344,1292.4042 807.2344,1292.9979 Q806.7344,1293.576 806.4531,1294.451 Q806.1875,1295.326 806.1875,1296.4198 Q806.1875,1297.8573 806.625,1298.9042 Q807.0781,1299.951 807.9219,1300.4979 Q808.7813,1301.0448 810.0938,1301.0448 Q810.875,1301.0448 811.5625,1300.9198 Q812.2656,1300.7792 813.2656,1300.4667 L813.2656,1302.3417 Q812.4063,1302.6698 811.6406,1302.7948 Q810.8906,1302.9198 809.875,1302.9198 Q807.9531,1302.9198 806.6406,1302.1229 Q805.3438,1301.3104 804.6875,1299.8417 Q804.0313,1298.3573 804.0313,1296.3885 Q804.0313,1294.9667 804.4219,1293.7948 Q804.8281,1292.6073 805.6094,1291.7323 Q806.3906,1290.8573 807.5313,1290.3885 Q808.6719,1289.9042 810.1406,1289.9042 Q811.0938,1289.9042 811.9844,1290.1073 Q812.8906,1290.2948 813.8281,1290.7635 L813,1292.5448 Q812.2188,1292.1698 811.5625,1291.9823 Q810.9063,1291.7792 810.1094,1291.7792 Z " fill="#000000"/><text fill="#000000" font-family="sans-serif" font-size="14" lengthAdjust="spacing" textLength="124" x="824" y="1301.6799">RHI_pipeline_state</text><line style="stroke:#181818;stroke-width:0.5;" x1="796" x2="950" y1="1312.2479" y2="1312.2479"/><line style="stroke:#181818;stroke-width:0.5;" x1="796" x2="950" y1="1320.2479" y2="1320.2479"/></g><!--reverse link RHI_texture to RHI_texture_2D--><g id="link_RHI_texture_RHI_texture_2D"><path d="M1351.8522,618.5377 C1378.8622,611.3977 1390.29,608.3679 1415.21,601.7779 " fill="none" id="RHI_texture-backto-RHI_texture_2D" style="stroke:#181818;stroke-width:1.0;"/><polygon fill="none" points="1334.45,623.1379,1353.3856,624.3384,1350.3188,612.7369,1334.45,623.1379" style="stroke:#181818;stroke-width:1.0;"/></g><!--reverse link RHI_texture to RHI_texture_2D_array--><g id="link_RHI_texture_RHI_texture_2D_array"><path d="M1352.3034,662.7003 C1372.1634,665.2503 1375.16,665.6279 1394.71,668.1279 " fill="none" id="RHI_texture-backto-RHI_texture_2D_array" style="stroke:#181818;stroke-width:1.0;"/><polygon fill="none" points="1334.45,660.4079,1351.5393,668.6514,1353.0676,656.7491,1334.45,660.4079" style="stroke:#181818;stroke-width:1.0;"/></g><!--reverse link RHI_texture to RHI_cube_map--><g id="link_RHI_texture_RHI_cube_map"><path d="M1325.7581,697.7939 C1367.4681,721.7539 1403.29,742.3279 1438.87,762.7579 " fill="none" id="RHI_texture-backto-RHI_cube_map" style="stroke:#181818;stroke-width:1.0;"/><polygon fill="none" points="1310.15,688.8279,1322.7694,702.9965,1328.7467,692.5912,1310.15,688.8279" style="stroke:#181818;stroke-width:1.0;"/></g><!--link RHI_device to RHI_vertex_buffer--><g id="link_RHI_device_RHI_vertex_buffer"><path codeLine="73" d="M538.36,316.1379 C579.16,260.7779 625.25,207.8979 676,164.2479 C813.42,46.0679 1038.4786,60.9735 1156.7886,79.0135 " fill="none" id="RHI_device-to-RHI_vertex_buffer" style="stroke:#181818;stroke-width:1.0;stroke-dasharray:7.0,7.0;"/><polygon fill="#181818" points="1162.72,79.9179,1154.4258,74.607,1157.7771,79.1642,1153.2199,82.5156,1162.72,79.9179" style="stroke:#181818;stroke-width:1.0;"/><text fill="#000000" font-family="sans-serif" font-size="13" lengthAdjust="spacing" textLength="57" x="844.5" y="63.6549">&#171;creates&#187;</text></g><!--link RHI_device to RHI_element_buffer--><g id="link_RHI_device_RHI_element_buffer"><path codeLine="74" d="M646.49,361.6979 C656.27,353.9479 666.11,346.4479 676,339.2479 C820.76,233.8479 1032.5703,216.3337 1149.8203,215.2437 " fill="none" id="RHI_device-to-RHI_element_buffer" style="stroke:#181818;stroke-width:1.0;stroke-dasharray:7.0,7.0;"/><polygon fill="#181818" points="1155.82,215.1879,1146.7832,211.2718,1150.8202,215.2344,1146.8576,219.2714,1155.82,215.1879" style="stroke:#181818;stroke-width:1.0;"/><text fill="#000000" font-family="sans-serif" font-size="13" lengthAdjust="spacing" textLength="57" x="844.5" y="224.7049">&#171;creates&#187;</text></g><!--link RHI_device to RHI_memory_buffer--><g id="link_RHI_device_RHI_memory_buffer"><path codeLine="75" d="M646.46,407.2979 C656.24,401.3179 666.09,395.6079 676,390.2479 C711.14,371.2179 747.7759,360.1176 784.2159,352.2276 " fill="none" id="RHI_device-to-RHI_memory_buffer" style="stroke:#181818;stroke-width:1.0;stroke-dasharray:7.0,7.0;"/><polygon fill="#181818" points="790.08,350.9579,780.4374,348.9531,785.1932,352.016,782.1303,356.7719,790.08,350.9579" style="stroke:#181818;stroke-width:1.0;"/><text fill="#000000" font-family="sans-serif" font-size="13" lengthAdjust="spacing" textLength="57" x="677" y="362.4749">&#171;creates&#187;</text></g><!--link RHI_device to RHI_geometry--><g id="link_RHI_device_RHI_geometry"><path codeLine="76" d="M565.59,316.0079 C599.26,279.3979 636.15,245.7579 676,218.2479 C715.55,190.9479 762.7067,178.8702 803.6667,172.7102 " fill="none" id="RHI_device-to-RHI_geometry" style="stroke:#181818;stroke-width:1.0;stroke-dasharray:7.0,7.0;"/><polygon fill="#181818" points="809.6,171.8179,800.1052,169.2009,804.6556,172.5615,801.295,177.1119,809.6,171.8179" style="stroke:#181818;stroke-width:1.0;"/><text fill="#000000" font-family="sans-serif" font-size="13" lengthAdjust="spacing" textLength="57" x="677" y="187.1449">&#171;creates&#187;</text></g><!--link RHI_device to RHI_shader_code--><g id="link_RHI_device_RHI_shader_code"><path codeLine="77" d="M646.24,514.2179 C685.3,496.4079 725.43,480.4679 765,468.2479 C870.05,435.7979 901.21,448.0379 1011,442.2479 C1062.26,439.5479 1114.126,440.6306 1158.526,442.6106 " fill="none" id="RHI_device-to-RHI_shader_code" style="stroke:#181818;stroke-width:1.0;stroke-dasharray:7.0,7.0;"/><polygon fill="#181818" points="1164.52,442.8779,1155.7071,438.4809,1159.525,442.6552,1155.3507,446.473,1164.52,442.8779" style="stroke:#181818;stroke-width:1.0;"/><text fill="#000000" font-family="sans-serif" font-size="13" lengthAdjust="spacing" textLength="57" x="844.5" y="439.4049">&#171;creates&#187;</text></g><!--link RHI_device to RHI_shader_program--><g id="link_RHI_device_RHI_shader_program"><path codeLine="78" d="M646.48,571.3579 C656.4,567.8679 666.26,564.4879 676,561.2479 C711.53,549.4279 745.5981,540.0588 780.0681,531.4688 " fill="none" id="RHI_device-to-RHI_shader_program" style="stroke:#181818;stroke-width:1.0;stroke-dasharray:7.0,7.0;"/><polygon fill="#181818" points="785.89,530.0179,776.1899,528.3129,781.0384,531.227,778.1243,536.0755,785.89,530.0179" style="stroke:#181818;stroke-width:1.0;"/><text fill="#000000" font-family="sans-serif" font-size="13" lengthAdjust="spacing" textLength="57" x="677" y="539.4149">&#171;creates&#187;</text></g><!--link RHI_device to RHI_texture_2D--><g id="link_RHI_device_RHI_texture_2D"><path codeLine="79" d="M646.47,640.4579 C686.28,633.7179 726.52,627.4379 765,622.2479 C932.09,599.7279 974.62,598.8579 1143,590.2479 C1237.51,585.4179 1341.03,584.3029 1409.3,584.1329 " fill="none" id="RHI_device-to-RHI_texture_2D" style="stroke:#181818;stroke-width:1.0;stroke-dasharray:7.0,7.0;"/><polygon fill="#181818" points="1415.3,584.1179,1406.2901,580.1403,1410.3,584.1304,1406.31,588.1403,1415.3,584.1179" style="stroke:#181818;stroke-width:1.0;"/><text fill="#000000" font-family="sans-serif" font-size="13" lengthAdjust="spacing" textLength="57" x="1033.5" y="587.7449">&#171;creates&#187;</text></g><!--link RHI_device to RHI_texture_2D_array--><g id="link_RHI_device_RHI_texture_2D_array"><path codeLine="80" d="M646.45,719.3479 C844.6,725.6279 1104.62,727.0679 1334,706.2479 C1353.7,704.4579 1368.8011,702.3994 1388.6011,698.9094 " fill="none" id="RHI_device-to-RHI_texture_2D_array" style="stroke:#181818;stroke-width:1.0;stroke-dasharray:7.0,7.0;"/><polygon fill="#181818" points="1394.51,697.8679,1384.9523,695.4909,1389.5859,698.7359,1386.341,703.3695,1394.51,697.8679" style="stroke:#181818;stroke-width:1.0;"/><text fill="#000000" font-family="sans-serif" font-size="13" lengthAdjust="spacing" textLength="57" x="1033.5" y="715.6949">&#171;creates&#187;</text></g><!--link RHI_device to RHI_cube_map--><g id="link_RHI_device_RHI_cube_map"><path codeLine="81" d="M646.18,727.0579 C656.24,727.7979 666.2,728.5279 676,729.2479 C951.29,749.4579 1273.5651,772.4623 1410.5151,782.2023 " fill="none" id="RHI_device-to-RHI_cube_map" style="stroke:#181818;stroke-width:1.0;stroke-dasharray:7.0,7.0;"/><polygon fill="#181818" points="1416.5,782.6279,1407.8064,777.9995,1411.5126,782.2732,1407.2389,785.9794,1416.5,782.6279" style="stroke:#181818;stroke-width:1.0;"/><text fill="#000000" font-family="sans-serif" font-size="13" lengthAdjust="spacing" textLength="57" x="1033.5" y="749.8649">&#171;creates&#187;</text></g><!--link RHI_device to RHI_frame_buffer--><g id="link_RHI_device_RHI_frame_buffer"><path codeLine="82" d="M646.23,680.4479 C702.79,676.3879 750.6354,672.9581 791.5354,670.0181 " fill="none" id="RHI_device-to-RHI_frame_buffer" style="stroke:#181818;stroke-width:1.0;stroke-dasharray:7.0,7.0;"/><polygon fill="#181818" points="797.52,669.5879,788.2564,666.2435,792.5329,669.9464,788.83,674.2229,797.52,669.5879" style="stroke:#181818;stroke-width:1.0;"/><text fill="#000000" font-family="sans-serif" font-size="13" lengthAdjust="spacing" textLength="57" x="677" y="670.6049">&#171;creates&#187;</text></g><!--link RHI_device to RHI_screen_buffer--><g id="link_RHI_device_RHI_screen_buffer"><path codeLine="83" d="M646.38,847.8879 C656.31,851.1979 666.2,854.3279 676,857.2479 C714.5,868.7179 752.604,875.5647 789.174,880.5047 " fill="none" id="RHI_device-to-RHI_screen_buffer" style="stroke:#181818;stroke-width:1.0;stroke-dasharray:7.0,7.0;"/><polygon fill="#181818" points="795.12,881.3079,786.7365,876.1391,790.165,880.6386,785.6655,884.0671,795.12,881.3079" style="stroke:#181818;stroke-width:1.0;"/><text fill="#000000" font-family="sans-serif" font-size="13" lengthAdjust="spacing" textLength="57" x="677" y="853.1449">&#171;creates&#187;</text></g><!--link RHI_device to RHI_compute_task--><g id="link_RHI_device_RHI_compute_task"><path codeLine="84" d="M646.12,883.9579 C656.15,888.8679 666.12,893.6479 676,898.2479 C716.05,916.9179 756.5885,932.5229 794.0585,945.8829 " fill="none" id="RHI_device-to-RHI_compute_task" style="stroke:#181818;stroke-width:1.0;stroke-dasharray:7.0,7.0;"/><polygon fill="#181818" points="799.71,947.8979,792.5761,941.1077,795.0004,946.2187,789.8894,948.643,799.71,947.8979" style="stroke:#181818;stroke-width:1.0;"/><text fill="#000000" font-family="sans-serif" font-size="13" lengthAdjust="spacing" textLength="57" x="677" y="894.1449">&#171;creates&#187;</text></g><!--link RHI_device to RHI_memory_buffer_binder--><g id="link_RHI_device_RHI_memory_buffer_binder"><path codeLine="85" d="M646.47,943.5279 C685.49,968.8679 725.54,993.0779 765,1014.2479 C776.22,1020.2679 782.968,1023.5631 795.098,1028.5331 " fill="none" id="RHI_device-to-RHI_memory_buffer_binder" style="stroke:#181818;stroke-width:1.0;stroke-dasharray:7.0,7.0;"/><polygon fill="#181818" points="800.65,1030.8079,793.8385,1023.6943,796.0233,1028.9122,790.8054,1031.097,800.65,1030.8079" style="stroke:#181818;stroke-width:1.0;"/><text fill="#000000" font-family="sans-serif" font-size="13" lengthAdjust="spacing" textLength="57" x="677" y="958.5749">&#171;creates&#187;</text></g><!--link RHI_device to RHI_texture_builder--><g id="link_RHI_device_RHI_texture_builder"><path codeLine="86" d="M646.45,1014.9479 C684.81,1044.9479 724.71,1073.1179 765,1097.2479 C775.33,1103.4279 781.2326,1106.6202 792.6526,1111.5002 " fill="none" id="RHI_device-to-RHI_texture_builder" style="stroke:#181818;stroke-width:1.0;stroke-dasharray:7.0,7.0;"/><polygon fill="#181818" points="798.17,1113.8579,791.4657,1106.6431,793.5722,1111.8932,788.3222,1113.9996,798.17,1113.8579" style="stroke:#181818;stroke-width:1.0;"/><text fill="#000000" font-family="sans-serif" font-size="13" lengthAdjust="spacing" textLength="57" x="677" y="1040.0549">&#171;creates&#187;</text></g><!--link RHI_device to RHI_renderer--><g id="link_RHI_device_RHI_renderer"><path codeLine="87" d="M645.21,1090.3779 C683.15,1123.7779 723.31,1154.5579 765,1180.2479 C779.31,1189.0679 790.2292,1194.376 805.9492,1200.416 " fill="none" id="RHI_device-to-RHI_renderer" style="stroke:#181818;stroke-width:1.0;stroke-dasharray:7.0,7.0;"/><polygon fill="#181818" points="811.55,1202.5679,804.5834,1195.6061,806.8827,1200.7746,801.7141,1203.0738,811.55,1202.5679" style="stroke:#181818;stroke-width:1.0;"/><text fill="#000000" font-family="sans-serif" font-size="13" lengthAdjust="spacing" textLength="57" x="677" y="1115.1649">&#171;creates&#187;</text></g><!--link RHI_device to RHI_pipeline_state--><g id="link_RHI_device_RHI_pipeline_state"><path codeLine="88" d="M602.59,1090.1979 C626.77,1120.5079 651.41,1150.2079 676,1178.2479 C712.07,1219.3679 718.78,1233.9979 765,1263.2479 C774.83,1269.4679 780.2636,1272.5817 791.2736,1277.4017 " fill="none" id="RHI_device-to-RHI_pipeline_state" style="stroke:#181818;stroke-width:1.0;stroke-dasharray:7.0,7.0;"/><polygon fill="#181818" points="796.77,1279.8079,790.1296,1272.5343,792.1897,1277.8027,786.9213,1279.8628,796.77,1279.8079" style="stroke:#181818;stroke-width:1.0;"/><text fill="#000000" font-family="sans-serif" font-size="13" lengthAdjust="spacing" textLength="57" x="677" y="1174.1449">&#171;creates&#187;</text></g><!--reverse link RHI_geometry to RHI_vertex_buffer--><g id="link_RHI_geometry_RHI_vertex_buffer"><path codeLine="91" d="M948.2614,151.5369 C1010.9814,139.1169 1095.86,122.2979 1162.65,109.0779 " fill="none" id="RHI_geometry-backto-RHI_vertex_buffer" style="stroke:#181818;stroke-width:1.0;"/><polygon fill="#181818" points="936.49,153.8679,943.1527,156.6262,948.2614,151.5369,941.5987,148.7786,936.49,153.8679" style="stroke:#181818;stroke-width:1.0;"/><text fill="#000000" font-family="sans-serif" font-size="13" lengthAdjust="spacing" textLength="58" x="1033" y="115.4849">combines</text><text fill="#000000" font-family="sans-serif" font-size="13" lengthAdjust="spacing" textLength="7" x="943.817" y="167.3792">1</text><text fill="#000000" font-family="sans-serif" font-size="13" lengthAdjust="spacing" textLength="10" x="1145.0584" y="125.1582">N</text></g><!--reverse link RHI_geometry to RHI_element_buffer--><g id="link_RHI_geometry_RHI_element_buffer"><path codeLine="92" d="M948.3736,176.685 C1008.9636,185.185 1089.33,196.4579 1155.74,205.7779 " fill="none" id="RHI_geometry-backto-RHI_element_buffer" style="stroke:#181818;stroke-width:1.0;"/><polygon fill="#181818" points="936.49,175.0179,941.8761,179.8127,948.3736,176.685,942.9875,171.8903,936.49,175.0179" style="stroke:#181818;stroke-width:1.0;"/><text fill="#000000" font-family="sans-serif" font-size="13" lengthAdjust="spacing" textLength="58" x="1033" y="181.5749">combines</text><text fill="#000000" font-family="sans-serif" font-size="13" lengthAdjust="spacing" textLength="7" x="943.817" y="190.8424">1</text><text fill="#000000" font-family="sans-serif" font-size="13" lengthAdjust="spacing" textLength="20" x="1128.0583" y="219.4582">0..1</text></g><!--reverse link RHI_shader_program to RHI_shader_code--><g id="link_RHI_shader_program_RHI_shader_code"><path codeLine="94" d="M971.9637,493.2685 C1034.2137,482.4785 1105.56,470.1179 1164.54,459.8979 " fill="none" id="RHI_shader_program-backto-RHI_shader_code" style="stroke:#181818;stroke-width:1.0;"/><polygon fill="#181818" points="960.14,495.3179,966.735,498.2344,971.9637,493.2685,965.3687,490.352,960.14,495.3179" style="stroke:#181818;stroke-width:1.0;"/><text fill="#000000" font-family="sans-serif" font-size="13" lengthAdjust="spacing" textLength="78" x="1023" y="465.3249">composed of</text><text fill="#000000" font-family="sans-serif" font-size="13" lengthAdjust="spacing" textLength="7" x="967.9294" y="508.6927">1</text><text fill="#000000" font-family="sans-serif" font-size="13" lengthAdjust="spacing" textLength="23" x="1133.9287" y="475.71">1..N</text></g><!--reverse link RHI_frame_buffer to RHI_texture--><g id="link_RHI_frame_buffer_RHI_texture"><path codeLine="96" d="M960.4284,660.4408 C1016.6084,657.9708 1082.12,655.0879 1142.74,652.4179 " fill="none" id="RHI_frame_buffer-backto-RHI_texture" style="stroke:#181818;stroke-width:1.0;"/><polygon fill="none" points="948.44,660.9679,954.6099,664.7005,960.4284,660.4408,954.2585,656.7082,948.44,660.9679" style="stroke:#181818;stroke-width:1.0;"/><text fill="#000000" font-family="sans-serif" font-size="13" lengthAdjust="spacing" textLength="100" x="1012" y="649.7749">has attachments</text><text fill="#000000" font-family="sans-serif" font-size="13" lengthAdjust="spacing" textLength="7" x="955.964" y="675.3961">1</text><text fill="#000000" font-family="sans-serif" font-size="13" lengthAdjust="spacing" textLength="7" x="1128.1404" y="667.312">*</text></g><!--SRC=[lLR1afiu4Btp5RtEOHclpUxiqPLobSUPJL8x5K_Plko9ag41PJ1Y9U6Dayg_HmBXaSOGcCjUREX-_LhTUYqXgSmHjXy-XZ6UQ8ImpeaGy8wIb9CZ-3jwB7EQK8ndy829d4istz8qapUUzqkC2IqGLdUx_NQrteVhXzLk5wut3vij_9sH9tg1s9v7akE-ulzMZ0gy87Rx- -tzPl_FutruzzuW7tIYHreyULwkSeDamBK9OienafGLu7da82GdaOIeNhbLoZSFu0t8SuaBM3r-3FMJClrcONpNUrExIKdhD__cHTotDjTtY3ACdaBad74DEp4QUmeJ171N9GboM7CazGg3u2fMkp0y8PVu9JpKU3zYHKBJXO87Ya-lqF5FUqWmnoCMif_51VJH7F78-BcVnV5FJQNlaHrHylE8MbC3zKrHWbKyGb6dc04juelDpjf6jGbt6Ob7jLRKm31YCVejhOBG8fqPFJHKU_Kyin9QSTEVKvUSwG7npUkHb0jGFpF8oPbLKibBH8jhPXFM5hJ7BxBYEA8YsI33Fz_v_z5OPWlLD3c33FKyc1VTsEkjUuwS3dA7X7Doxi-WYaCkHgPhoFgIHjK1TTjyGR_YJnbRP2yJonaFYPGaohJK-vUVC7uaCgH5mbxNeHXBcVqVARgwqaFvt9P6ItyfNU5XxE6JQ7Gxxy-52QFYb_AruRsJeVwnQ3ajwTlsThLhTYmhYR0ducd4SgC67ae5zyqGTGwMFSrsK9ltWzehvFCDrmV9vl1PNICZqZl7NtZGvvLTOPTxQDWE5SrTbXUUFWAEcjw9R4rz8IKjCLUNR2YaUhK2NSVK- -vvly9yFjTEs69pT3QV12Yqmtk-P9thoRAx5uxbSBfasTjJtZ9Pv_2rrMorvJ2TWxTlszANo_hsTvgHeWmBjT4d33DIn3cs5xUk-ufCZIge9zLPnzm9R4ww0NWxhmCmUzBiskqX0flM4dbViuqaEzPkj6PvMYrP9bSb5ubWNa-Do6ZPQ4CvhA-lHdj2dM4gh52NFR04JeHJLjMqm8s-X6T51S7oMbsmK5jh-9RBBhWhkc6yqvvXU2lHOQIbtD5W8-XXl2NDLs2DEWSZBW8THDeQ7L6b8ztXPLY2VkL66fsFRuwH_t10EnN3I7TONk3LXEYBZmbQtpU_mofDEQRr77cEq2Qt4vYgAPl0fqddGAWsgMhDy5o7_H44jvFkqRX4UXqQl13S1e79x4ewgjUFiPhcXi0HWmvdEdmwSKxc1MH4WFMTuVq0]--></g></svg>