<?xml version="1.0" encoding="us-ascii" standalone="no"?><svg xmlns="http://www.w3.org/2000/svg" xmlns:xlink="http://www.w3.org/1999/xlink" contentStyleType="text/css" height="831px" preserveAspectRatio="none" style="width:1282px;height:831px;background:#FFFFFF;" version="1.1" viewBox="0 0 1282 831" width="1282px" zoomAndPan="magnify"><defs/><g><text fill="#000000" font-family="Arial" font-size="14" font-weight="bold" lengthAdjust="spacing" textLength="300.875" x="483.5625" y="24.9659">RHI_window and RHI_imgui Class Diagram</text><!--class Key_event--><g id="elem_Key_event"><rect codeLine="14" fill="#F1F1F1" height="32" id="Key_event" rx="5" ry="5" style="stroke:#181818;stroke-width:0.5;" width="99" x="7" y="692.8979"/><ellipse cx="22" cy="708.8979" fill="#ADD1B2" rx="11" ry="11" style="stroke:#181818;stroke-width:1.0;"/><path d="M22.1094,704.4292 Q21.1875,704.4292 20.4531,704.7417 Q19.7344,705.0542 19.2344,705.6479 Q18.7344,706.226 18.4531,707.101 Q18.1875,707.976 18.1875,709.0698 Q18.1875,710.5073 18.625,711.5542 Q19.0781,712.601 19.9219,713.1479 Q20.7813,713.6948 22.0938,713.6948 Q22.875,713.6948 23.5625,713.5698 Q24.2656,713.4292 25.2656,713.1167 L25.2656,714.9917 Q24.4063,715.3198 23.6406,715.4448 Q22.8906,715.5698 21.875,715.5698 Q19.9531,715.5698 18.6406,714.7729 Q17.3438,713.9604 16.6875,712.4917 Q16.0313,711.0073 16.0313,709.0385 Q16.0313,707.6167 16.4219,706.4448 Q16.8281,705.2573 17.6094,704.3823 Q18.3906,703.5073 19.5313,703.0385 Q20.6719,702.5542 22.1406,702.5542 Q23.0938,702.5542 23.9844,702.7573 Q24.8906,702.9448 25.8281,703.4135 L25,705.1948 Q24.2188,704.8198 23.5625,704.6323 Q22.9063,704.4292 22.1094,704.4292 Z " fill="#000000"/><text fill="#000000" font-family="Arial" font-size="14" lengthAdjust="spacing" textLength="67" x="36" y="714.3299">Key_event</text></g><!--class Mouse_button_event--><g id="elem_Mouse_button_event"><rect codeLine="17" fill="#F1F1F1" height="32" id="Mouse_button_event" rx="5" ry="5" style="stroke:#181818;stroke-width:0.5;" width="171" x="141" y="692.8979"/><ellipse cx="156" cy="708.8979" fill="#ADD1B2" rx="11" ry="11" style="stroke:#181818;stroke-width:1.0;"/><path d="M156.1094,704.4292 Q155.1875,704.4292 154.4531,704.7417 Q153.7344,705.0542 153.2344,705.6479 Q152.7344,706.226 152.4531,707.101 Q152.1875,707.976 152.1875,709.0698 Q152.1875,710.5073 152.625,711.5542 Q153.0781,712.601 153.9219,713.1479 Q154.7813,713.6948 156.0938,713.6948 Q156.875,713.6948 157.5625,713.5698 Q158.2656,713.4292 159.2656,713.1167 L159.2656,714.9917 Q158.4063,715.3198 157.6406,715.4448 Q156.8906,715.5698 155.875,715.5698 Q153.9531,715.5698 152.6406,714.7729 Q151.3438,713.9604 150.6875,712.4917 Q150.0313,711.0073 150.0313,709.0385 Q150.0313,707.6167 150.4219,706.4448 Q150.8281,705.2573 151.6094,704.3823 Q152.3906,703.5073 153.5313,703.0385 Q154.6719,702.5542 156.1406,702.5542 Q157.0938,702.5542 157.9844,702.7573 Q158.8906,702.9448 159.8281,703.4135 L159,705.1948 Q158.2188,704.8198 157.5625,704.6323 Q156.9063,704.4292 156.1094,704.4292 Z " fill="#000000"/><text fill="#000000" font-family="Arial" font-size="14" lengthAdjust="spacing" textLength="139" x="170" y="714.3299">Mouse_button_event</text></g><!--class Mouse_move_event--><g id="elem_Mouse_move_event"><rect codeLine="20" fill="#F1F1F1" height="32" id="Mouse_move_event" rx="5" ry="5" style="stroke:#181818;stroke-width:0.5;" width="162" x="347.5" y="692.8979"/><ellipse cx="362.5" cy="708.8979" fill="#ADD1B2" rx="11" ry="11" style="stroke:#181818;stroke-width:1.0;"/><path d="M362.6094,704.4292 Q361.6875,704.4292 360.9531,704.7417 Q360.2344,705.0542 359.7344,705.6479 Q359.2344,706.226 358.9531,707.101 Q358.6875,707.976 358.6875,709.0698 Q358.6875,710.5073 359.125,711.5542 Q359.5781,712.601 360.4219,713.1479 Q361.2813,713.6948 362.5938,713.6948 Q363.375,713.6948 364.0625,713.5698 Q364.7656,713.4292 365.7656,713.1167 L365.7656,714.9917 Q364.9063,715.3198 364.1406,715.4448 Q363.3906,715.5698 362.375,715.5698 Q360.4531,715.5698 359.1406,714.7729 Q357.8438,713.9604 357.1875,712.4917 Q356.5313,711.0073 356.5313,709.0385 Q356.5313,707.6167 356.9219,706.4448 Q357.3281,705.2573 358.1094,704.3823 Q358.8906,703.5073 360.0313,703.0385 Q361.1719,702.5542 362.6406,702.5542 Q363.5938,702.5542 364.4844,702.7573 Q365.3906,702.9448 366.3281,703.4135 L365.5,705.1948 Q364.7188,704.8198 364.0625,704.6323 Q363.4063,704.4292 362.6094,704.4292 Z " fill="#000000"/><text fill="#000000" font-family="Arial" font-size="14" lengthAdjust="spacing" textLength="130" x="376.5" y="714.3299">Mouse_move_event</text></g><!--class Mouse_scroll_event--><g id="elem_Mouse_scroll_event"><rect codeLine="23" fill="#F1F1F1" height="32" id="Mouse_scroll_event" rx="5" ry="5" style="stroke:#181818;stroke-width:0.5;" width="162" x="544.5" y="692.8979"/><ellipse cx="559.5" cy="708.8979" fill="#ADD1B2" rx="11" ry="11" style="stroke:#181818;stroke-width:1.0;"/><path d="M559.6094,704.4292 Q558.6875,704.4292 557.9531,704.7417 Q557.2344,705.0542 556.7344,705.6479 Q556.2344,706.226 555.9531,707.101 Q555.6875,707.976 555.6875,709.0698 Q555.6875,710.5073 556.125,711.5542 Q556.5781,712.601 557.4219,713.1479 Q558.2813,713.6948 559.5938,713.6948 Q560.375,713.6948 561.0625,713.5698 Q561.7656,713.4292 562.7656,713.1167 L562.7656,714.9917 Q561.9063,715.3198 561.1406,715.4448 Q560.3906,715.5698 559.375,715.5698 Q557.4531,715.5698 556.1406,714.7729 Q554.8438,713.9604 554.1875,712.4917 Q553.5313,711.0073 553.5313,709.0385 Q553.5313,707.6167 553.9219,706.4448 Q554.3281,705.2573 555.1094,704.3823 Q555.8906,703.5073 557.0313,703.0385 Q558.1719,702.5542 559.6406,702.5542 Q560.5938,702.5542 561.4844,702.7573 Q562.3906,702.9448 563.3281,703.4135 L562.5,705.1948 Q561.7188,704.8198 561.0625,704.6323 Q560.4063,704.4292 559.6094,704.4292 Z " fill="#000000"/><text fill="#000000" font-family="Arial" font-size="14" lengthAdjust="spacing" textLength="130" x="573.5" y="714.3299">Mouse_scroll_event</text></g><!--class RHI_imgui--><g id="elem_RHI_imgui"><rect codeLine="29" fill="#F1F1F1" height="230.6792" id="RHI_imgui" rx="5" ry="5" style="stroke:#181818;stroke-width:0.5;" width="533" x="742" y="593.5579"/><ellipse cx="971.75" cy="609.5579" fill="#A9DCDF" rx="11" ry="11" style="stroke:#181818;stroke-width:1.0;"/><path d="M975.0938,614.8079 L973.625,611.0579 L969.1875,611.0579 L967.75,614.8079 L965.625,614.8079 L970.5781,602.0892 L972.3281,602.0892 L977.25,614.8079 L975.0938,614.8079 Z M971.75,605.8548 Q971.7031,605.6985 971.5781,605.3392 Q971.4531,604.9798 971.3438,604.6048 Q971.2344,604.2142 971.4375,604.1517 Q971.5938,604.3392 971.5,604.6985 Q971.4063,605.0423 971.3125,605.3392 Q971.2188,605.6204 971.1406,605.8548 L969.9063,609.1673 L972.9844,609.1673 L971.75,605.8548 Z " fill="#000000"/><text fill="#000000" font-family="Arial" font-size="14" font-style="italic" lengthAdjust="spacing" textLength="65" x="992.25" y="614.9899">RHI_imgui</text><line style="stroke:#181818;stroke-width:0.5;" x1="743" x2="1274" y1="625.5579" y2="625.5579"/><text fill="#000000" font-family="Arial" font-size="14" font-style="italic" lengthAdjust="spacing" textLength="129" x="748" y="644.5239">+begin_frame(): void</text><text fill="#000000" font-family="Arial" font-size="14" font-style="italic" lengthAdjust="spacing" textLength="117" x="748" y="663.5918">+end_frame(): void</text><text fill="#000000" font-family="Arial" font-size="14" font-style="italic" lengthAdjust="spacing" textLength="405" x="748" y="682.6597">+begin_render(panel_title: string, p_open: bool*, flags: int): void</text><text fill="#000000" font-family="Arial" font-size="14" font-style="italic" lengthAdjust="spacing" textLength="122" x="748" y="701.7276">+end_render(): void</text><text fill="#000000" font-family="Arial" font-size="14" font-style="italic" lengthAdjust="spacing" textLength="190" x="748" y="720.7955">+button(label: string, ...): bool</text><text fill="#000000" font-family="Arial" font-size="14" font-style="italic" lengthAdjust="spacing" textLength="328" x="748" y="739.8634">+color_edit(label: string, color_ptr: float[3], ...): bool</text><text fill="#000000" font-family="Arial" font-size="14" font-style="italic" lengthAdjust="spacing" textLength="521" x="748" y="758.9314">+slider_float(label: string, value_ptr: float*, min_val: float, max_val: float, ...): bool</text><text fill="#000000" font-family="Arial" font-size="14" font-style="italic" lengthAdjust="spacing" textLength="390" x="748" y="777.9993">+text_edit(label: string, buffer: char*, buffer_size: int, ...): bool</text><text fill="#000000" font-family="Arial" font-size="14" font-style="italic" lengthAdjust="spacing" textLength="142" x="748" y="797.0672">+is_io_captured(): bool</text><text fill="#000000" font-family="Arial" font-size="14" font-style="italic" lengthAdjust="spacing" textLength="122" x="748" y="816.1351">+frame_rate(): float</text></g><!--class RHI_window--><g id="elem_RHI_window"><rect codeLine="44" fill="#F1F1F1" height="467.4942" id="RHI_window" rx="5" ry="5" style="stroke:#181818;stroke-width:0.5;" width="581" x="138" y="47.0679"/><ellipse cx="385.75" cy="63.0679" fill="#A9DCDF" rx="11" ry="11" style="stroke:#181818;stroke-width:1.0;"/><path d="M389.0938,68.3179 L387.625,64.5679 L383.1875,64.5679 L381.75,68.3179 L379.625,68.3179 L384.5781,55.5992 L386.3281,55.5992 L391.25,68.3179 L389.0938,68.3179 Z M385.75,59.3648 Q385.7031,59.2085 385.5781,58.8492 Q385.4531,58.4898 385.3438,58.1148 Q385.2344,57.7242 385.4375,57.6617 Q385.5938,57.8492 385.5,58.2085 Q385.4063,58.5523 385.3125,58.8492 Q385.2188,59.1304 385.1406,59.3648 L383.9063,62.6773 L386.9844,62.6773 L385.75,59.3648 Z " fill="#000000"/><text fill="#000000" font-family="Arial" font-size="14" font-style="italic" lengthAdjust="spacing" textLength="77" x="406.25" y="68.4999">RHI_window</text><line style="stroke:#181818;stroke-width:0.5;" x1="139" x2="718" y1="79.0679" y2="79.0679"/><text fill="#000000" font-family="Arial" font-size="14" lengthAdjust="spacing" textLength="73" x="144" y="98.0339">#width: int</text><text fill="#000000" font-family="Arial" font-size="14" lengthAdjust="spacing" textLength="79" x="144" y="117.1018">#height: int</text><text fill="#000000" font-family="Arial" font-size="14" lengthAdjust="spacing" textLength="83" x="144" y="136.1697">#title: string</text><text fill="#000000" font-family="Arial" font-size="14" lengthAdjust="spacing" textLength="173" x="144" y="155.2376">#p_rhi_imgui: RHI_imgui*</text><line style="stroke:#181818;stroke-width:0.5;" x1="139" x2="718" y1="163.3396" y2="163.3396"/><text fill="#000000" font-family="Arial" font-size="14" lengthAdjust="spacing" textLength="322" x="144" y="182.3055">+RHI_window(width: int, height: int, title: string)</text><text fill="#000000" font-family="Arial" font-size="14" lengthAdjust="spacing" textLength="340" x="144" y="201.3734">+bind_rhi_imgui(imgui_instance: RHI_imgui*): void</text><text fill="#000000" font-family="Arial" font-size="14" lengthAdjust="spacing" textLength="4" x="144" y="220.4414">&#160;</text><text fill="#000000" font-family="Arial" font-size="14" font-style="italic" lengthAdjust="spacing" textLength="434" x="144" y="239.5093">+register_key_event_callback(callback: void(*)(Key_event event)): void</text><text fill="#000000" font-family="Arial" font-size="14" font-style="italic" lengthAdjust="spacing" textLength="569" x="144" y="258.5772">+register_mouse_button_event_callback(callback: void(*)(Mouse_button_event event)): void</text><text fill="#000000" font-family="Arial" font-size="14" font-style="italic" lengthAdjust="spacing" textLength="553" x="144" y="277.6451">+register_mouse_move_event_callback(callback: void(*)(Mouse_move_event event)): void</text><text fill="#000000" font-family="Arial" font-size="14" font-style="italic" lengthAdjust="spacing" textLength="553" x="144" y="296.713">+register_mouse_scroll_event_callback(callback: void(*)(Mouse_scroll_event event)): void</text><text fill="#000000" font-family="Arial" font-size="14" lengthAdjust="spacing" textLength="4" x="144" y="315.7809">&#160;</text><text fill="#000000" font-family="Arial" font-size="14" lengthAdjust="spacing" textLength="482" x="144" y="334.8489">+on_frame_begin(): void  // Handles event polling logic, calls poll_events</text><text fill="#000000" font-family="Arial" font-size="14" lengthAdjust="spacing" textLength="516" x="144" y="353.9168">+on_frame_end(): void    // Handles buffer swapping logic, calls swap_buffers</text><text fill="#000000" font-family="Arial" font-size="14" lengthAdjust="spacing" textLength="4" x="144" y="372.9847">&#160;</text><text fill="#000000" font-family="Arial" font-size="14" font-style="italic" lengthAdjust="spacing" textLength="329" x="144" y="392.0526">+poll_events(): void // Platform-specific event polling</text><text fill="#000000" font-family="Arial" font-size="14" font-style="italic" lengthAdjust="spacing" textLength="331" x="144" y="411.1205">+swap_buffers(): void // Platform-specific buffer swap</text><text fill="#000000" font-family="Arial" font-size="14" lengthAdjust="spacing" textLength="4" x="144" y="430.1884">&#160;</text><text fill="#000000" font-family="Arial" font-size="14" lengthAdjust="spacing" textLength="108" x="144" y="449.2564">+get_width(): int</text><text fill="#000000" font-family="Arial" font-size="14" lengthAdjust="spacing" textLength="114" x="144" y="468.3243">+get_height(): int</text><text fill="#000000" font-family="Arial" font-size="14" lengthAdjust="spacing" textLength="118" x="144" y="487.3922">+get_title(): string</text><text fill="#000000" font-family="Arial" font-size="14" lengthAdjust="spacing" textLength="193" x="144" y="506.4601">+get_rhi_imgui(): RHI_imgui*</text></g><!--reverse link RHI_window to RHI_imgui--><g id="link_RHI_window_RHI_imgui"><path codeLine="79" d="M729.021,502.5822 C774.951,536.3222 811.18,562.9379 852.45,593.2579 " fill="none" id="RHI_window-backto-RHI_imgui" style="stroke:#181818;stroke-width:1.0;"/><polygon fill="none" points="719.35,495.4779,721.8174,502.2537,729.021,502.5822,726.5536,495.8064,719.35,495.4779" style="stroke:#181818;stroke-width:1.0;"/><text fill="#000000" font-family="Arial" font-size="13" lengthAdjust="spacing" textLength="355" x="805.34" y="559.4549">' An RHI_window can optionally have an RHI_imgui instance</text><text fill="#000000" font-family="Arial" font-size="13" lengthAdjust="spacing" textLength="43" x="729.7059" y="497.2151">binds &gt;</text></g><!--link RHI_window to Key_event--><g id="link_RHI_window_Key_event"><path codeLine="82" d="M189.04,514.6279 C166,540.4979 143.72,567.0779 123.5,593.5579 C98.22,626.6579 77.8871,664.7433 66.5571,687.3633 " fill="none" id="RHI_window-to-Key_event" style="stroke:#181818;stroke-width:1.0;stroke-dasharray:7.0,7.0;"/><polygon fill="#181818" points="63.87,692.7279,71.4771,686.4723,66.1092,688.2574,64.3242,682.8895,63.87,692.7279" style="stroke:#181818;stroke-width:1.0;"/><text fill="#000000" font-family="Arial" font-size="13" lengthAdjust="spacing" textLength="78" x="161.63" y="559.4549">&#171;dispatches&#187;</text></g><!--link RHI_window to Mouse_button_event--><g id="link_RHI_window_Mouse_button_event"><path codeLine="83" d="M318.04,514.7979 C282.31,590.1879 250.7302,656.7863 236.2902,687.2463 " fill="none" id="RHI_window-to-Mouse_button_event" style="stroke:#181818;stroke-width:1.0;stroke-dasharray:7.0,7.0;"/><polygon fill="#181818" points="233.72,692.6679,241.1897,686.2489,235.8618,688.1499,233.9609,682.822,233.72,692.6679" style="stroke:#181818;stroke-width:1.0;"/><text fill="#000000" font-family="Arial" font-size="13" lengthAdjust="spacing" textLength="78" x="304.47" y="559.4549">&#171;dispatches&#187;</text></g><!--link RHI_window to Mouse_move_event--><g id="link_RHI_window_Mouse_move_event"><path codeLine="84" d="M428.5,514.7979 C428.5,590.1879 428.5,656.2079 428.5,686.6679 " fill="none" id="RHI_window-to-Mouse_move_event" style="stroke:#181818;stroke-width:1.0;stroke-dasharray:7.0,7.0;"/><polygon fill="#181818" points="428.5,692.6679,432.5,683.6679,428.5,687.6679,424.5,683.6679,428.5,692.6679" style="stroke:#181818;stroke-width:1.0;"/><text fill="#000000" font-family="Arial" font-size="13" lengthAdjust="spacing" textLength="78" x="429.5" y="559.4549">&#171;dispatches&#187;</text></g><!--link RHI_window to Mouse_scroll_event--><g id="link_RHI_window_Mouse_scroll_event"><path codeLine="85" d="M536.22,514.7979 C571.08,590.1879 601.851,656.7623 615.941,687.2223 " fill="none" id="RHI_window-to-Mouse_scroll_event" style="stroke:#181818;stroke-width:1.0;stroke-dasharray:7.0,7.0;"/><polygon fill="#181818" points="618.46,692.6679,618.3119,682.8202,616.3608,688.1299,611.0511,686.1788,618.46,692.6679" style="stroke:#181818;stroke-width:1.0;"/><text fill="#000000" font-family="Arial" font-size="13" lengthAdjust="spacing" textLength="78" x="557.16" y="559.4549">&#171;dispatches&#187;</text></g><!--SRC=[bLPHRzis47xthxXr3v4onzcmDwC8uARj6ZHjWoJeIp48D7MoE5EaHb9slAB_VKTIYcGbTjiNsIJllhiZl_j89vn4k7rtbMs5olKMcCh3K5IhHi2bPDR2Qy5MXbMJoIyv5a8XB5xTtTykBk-po-l5tLrs-UdwqosyBzbQF9eCLswOnFl6_DjeON4oAKMEW5NjTb1XjKHZ9tOjLCqe1d0VSU6S4Sl6uHNNwaxyX_3xm8GYi4QwjrgvZwoYR8nWSh1kTADoher20tyC7Mt9g4IXLb0mwJEPdC3PsHcysQ1oiLQqa5XHrL8K0dDOCajVhS3XWqkzyIGa2Eznbs5m-pe1E87Nw9YG5gHO8wnfaUiSfy2u4-ITr0QjFJSeaG1JsEf64ZX2YGOdtrhC3xgnc57PJgl3uEswo3lqAN2jJIuKSvJzCUXAR_0my4DMQpk5dVyv2cEvqL8U0z95OT5vhFZl2LotysEc9JUDGVWiZ6kOZFlDbjOPgZGoO-3X8_y6NxlrRmI_4YehwAGnIUUmqI8Vcw3AZnj434DsQ9AQAPIPyoqo1x8WvaoXpdIDQWvBhUNf50h9LdOEGhaZ8LkyGp73YIQIBL7sSMQpMHgZZEsvbjfac0itzeahjJDpoaipz-NFluy1MKcTQB9WEeRQCDdW08fAhMXdQBgTe35xs1iV3kIxvzc4bqrH88NW9JEdtJ2prF5XIqUO9tu8sX69gDIgeiwwgluYAcn5lYAMLUXAdLjlDSv0s4peZBFQ4S7ov42UWHgPeKRo5g4iJzQUgwr8jcHTTDHy5Rhw05jR7q_NNtschWorXM69ObMwVhp7jJ1JPwOKaV7pdlodav1w3v_qmDCXwdGVCWrkI-4vsS4cuPi9PHrJ78THEiA6lOygUKiDuakCkeOFZBGIWJCfbuolRJhUKXFiwL3NdM9cdN7I_ObHajCqwMKrVDC37VC8MZsHp6FepmZipuJfvVFxGGPI-pCXXjBw_I1xGZmESm8tsj4KtOrorpLDTqnGQ0CjCUbgeduZyP3QqWywFei7_jPt0roB0lcEImofwrPWio2KdQ81d9_3EtewIBg1OZerPUPlMgbNWaz3P1icOxfs7utqiSVQGukI07RBwle9df_DeeK776_k8DmZEa7VIEQe_khCriZfdkVxAJzHoK6Gup23NECEBZYdUr-RM2r9L1RQrAF4Ze-JiL_7iw5n_UIZ6iJvld7JFKK8zP_0HphrELt8uOtKLbRwpVIxbxovkmIdkxFU2DpMsZXW-J-DTPMtfRQEZ4W3dB3WdqFer-WfH0cYKO5IM-5AeKY85JVea9vbHcp8XBVlA68O6TZmXfe6BBUh1G- -onqqrYT4j7pi0VADwTeT3QlPG7fH1i6nfQXjqDc1iEgzTyGSNWHzit3nmf-06cemPmfqxP525YNR83ru1zwT2Fh00xycl0kfJF_4Ei-5hPdZ9TeKHXIY2j4EavlDBWPlnJcyVDbxNroCBPyHg1zp6SZDZpdiISSJbyd_]--></g></svg>