<?xml version="1.0" encoding="us-ascii" standalone="no"?><svg xmlns="http://www.w3.org/2000/svg" xmlns:xlink="http://www.w3.org/1999/xlink" contentStyleType="text/css" height="798px" preserveAspectRatio="none" style="width:438px;height:798px;background:#FFFFFF;" version="1.1" viewBox="0 0 438 798" width="438px" zoomAndPan="magnify"><defs/><g><ellipse cx="219" cy="20" fill="#222222" rx="10" ry="10" style="stroke:#222222;stroke-width:1.0;"/><rect fill="#F1F1F1" height="52.6882" rx="12.5" ry="12.5" style="stroke:#181818;stroke-width:0.5;" width="230" x="104" y="50"/><text fill="#000000" font-family="sans-serif" font-size="12" lengthAdjust="spacing" textLength="135" x="114" y="72.8281">&#36716;&#25442;&#29255;&#20803;&#22352;&#26631;&#33267;&#20809;&#28304;&#31354;&#38388;;</text><text fill="#000000" font-family="sans-serif" font-size="12" lengthAdjust="spacing" textLength="210" x="114" y="89.1722">&#35745;&#31639; main_uv &#19982; light_projected_depth</text><rect fill="#F1F1F1" height="36.3441" rx="12.5" ry="12.5" style="stroke:#181818;stroke-width:0.5;" width="104" x="167" y="122.6882"/><text fill="#000000" font-family="sans-serif" font-size="12" lengthAdjust="spacing" textLength="84" x="177" y="145.5163">&#29983;&#25104;&#27850;&#26494;&#30424;&#26679;&#26412;</text><rect fill="#F1F1F1" height="36.3441" rx="12.5" ry="12.5" style="stroke:#181818;stroke-width:0.5;" width="348" x="45" y="179.0323"/><text fill="#000000" font-family="sans-serif" font-size="12" lengthAdjust="spacing" textLength="328" x="55" y="201.8604">&#35745;&#31639; sampled_uv[i] = main_uv + samples[i] * sample_radius</text><rect fill="#F1F1F1" height="36.3441" rx="12.5" ry="12.5" style="stroke:#181818;stroke-width:0.5;" width="416" x="11" y="235.3765"/><text fill="#000000" font-family="sans-serif" font-size="12" lengthAdjust="spacing" textLength="396" x="21" y="258.2045">&#20174;&#38452;&#24433;&#22270;&#33719;&#21462; sampled_depth[i] = texture(shadow_map, sampled_uv[i]).r</text><rect fill="#F1F1F1" height="52.6882" rx="12.5" ry="12.5" style="stroke:#181818;stroke-width:0.5;" width="106" x="166" y="291.7206"/><text fill="#000000" font-family="sans-serif" font-size="12" lengthAdjust="spacing" textLength="86" x="176" y="314.5487">&#21021;&#22987;&#21270; sum = 0;</text><text fill="#000000" font-family="sans-serif" font-size="12" lengthAdjust="spacing" textLength="23" x="176" y="330.8928">i = 0</text><rect fill="#F1F1F1" height="52.6882" rx="12.5" ry="12.5" style="stroke:#181818;stroke-width:0.5;" width="247" x="95.5" y="408.4088"/><text fill="#000000" font-family="sans-serif" font-size="12" lengthAdjust="spacing" textLength="227" x="105.5" y="431.2369">&#27604;&#36739; light_projected_depth - shadow_bias</text><text fill="#000000" font-family="sans-serif" font-size="12" lengthAdjust="spacing" textLength="138" x="105.5" y="447.581">&#26159;&#21542; &gt; sampled_depth[i]?</text><rect fill="#F1F1F1" height="36.3441" rx="12.5" ry="12.5" style="stroke:#181818;stroke-width:0.5;" width="81" x="178.5" y="530.588"/><text fill="#000000" font-family="sans-serif" font-size="12" lengthAdjust="spacing" textLength="61" x="188.5" y="553.4161">sum += 1.0</text><polygon fill="#F1F1F1" points="207,481.097,231,481.097,243,493.097,231,505.097,207,505.097,195,493.097,207,481.097" style="stroke:#181818;stroke-width:0.5;"/><text fill="#000000" font-family="sans-serif" font-size="11" lengthAdjust="spacing" textLength="11" x="223" y="516.8559">&#26159;</text><text fill="#000000" font-family="sans-serif" font-size="11" lengthAdjust="spacing" textLength="11" x="213.5" y="497.365">&#26159;</text><polygon fill="#F1F1F1" points="219,586.9321,231,598.9321,219,610.9321,207,598.9321,219,586.9321" style="stroke:#181818;stroke-width:0.5;"/><rect fill="#F1F1F1" height="36.3441" rx="12.5" ry="12.5" style="stroke:#181818;stroke-width:0.5;" width="50" x="194" y="630.9321"/><text fill="#000000" font-family="sans-serif" font-size="12" lengthAdjust="spacing" textLength="30" x="204" y="653.7602">i += 1</text><polygon fill="#F1F1F1" points="173,364.4088,265,364.4088,277,376.4088,265,388.4088,173,388.4088,161,376.4088,173,364.4088" style="stroke:#181818;stroke-width:0.5;"/><text fill="#000000" font-family="sans-serif" font-size="11" lengthAdjust="spacing" textLength="92" x="173" y="380.6768">i &lt; sample_count?</text><rect fill="#F1F1F1" height="36.3441" rx="12.5" ry="12.5" style="stroke:#181818;stroke-width:0.5;" width="258" x="90" y="709.2762"/><text fill="#000000" font-family="sans-serif" font-size="12" lengthAdjust="spacing" textLength="238" x="100" y="732.1043">shadow_factor = sum / float(sample_count)</text><ellipse cx="219" cy="776.6203" fill="none" rx="11" ry="11" style="stroke:#222222;stroke-width:1.0;"/><ellipse cx="219" cy="776.6203" fill="#222222" rx="6" ry="6" style="stroke:#222222;stroke-width:1.0;"/><line style="stroke:#181818;stroke-width:1.0;" x1="219" x2="219" y1="30" y2="50"/><polygon fill="#181818" points="215,40,219,50,223,40,219,44" style="stroke:#181818;stroke-width:1.0;"/><line style="stroke:#181818;stroke-width:1.0;" x1="219" x2="219" y1="102.6882" y2="122.6882"/><polygon fill="#181818" points="215,112.6882,219,122.6882,223,112.6882,219,116.6882" style="stroke:#181818;stroke-width:1.0;"/><line style="stroke:#181818;stroke-width:1.0;" x1="219" x2="219" y1="159.0323" y2="179.0323"/><polygon fill="#181818" points="215,169.0323,219,179.0323,223,169.0323,219,173.0323" style="stroke:#181818;stroke-width:1.0;"/><line style="stroke:#181818;stroke-width:1.0;" x1="219" x2="219" y1="215.3765" y2="235.3765"/><polygon fill="#181818" points="215,225.3765,219,235.3765,223,225.3765,219,229.3765" style="stroke:#181818;stroke-width:1.0;"/><line style="stroke:#181818;stroke-width:1.0;" x1="219" x2="219" y1="271.7206" y2="291.7206"/><polygon fill="#181818" points="215,281.7206,219,291.7206,223,281.7206,219,285.7206" style="stroke:#181818;stroke-width:1.0;"/><line style="stroke:#181818;stroke-width:1.0;" x1="219" x2="219" y1="505.097" y2="530.588"/><polygon fill="#181818" points="215,520.588,219,530.588,223,520.588,219,524.588" style="stroke:#181818;stroke-width:1.0;"/><line style="stroke:#181818;stroke-width:1.0;" x1="243" x2="269.5" y1="493.097" y2="493.097"/><polygon fill="#181818" points="265.5,538.76,269.5,548.76,273.5,538.76,269.5,542.76" style="stroke:#181818;stroke-width:1.0;"/><line style="stroke:#181818;stroke-width:1.0;" x1="269.5" x2="269.5" y1="493.097" y2="598.9321"/><line style="stroke:#181818;stroke-width:1.0;" x1="269.5" x2="231" y1="598.9321" y2="598.9321"/><polygon fill="#181818" points="241,594.9321,231,598.9321,241,602.9321,237,598.9321" style="stroke:#181818;stroke-width:1.0;"/><line style="stroke:#181818;stroke-width:1.0;" x1="219" x2="219" y1="566.9321" y2="586.9321"/><polygon fill="#181818" points="215,576.9321,219,586.9321,223,576.9321,219,580.9321" style="stroke:#181818;stroke-width:1.0;"/><line style="stroke:#181818;stroke-width:1.0;" x1="219" x2="219" y1="461.097" y2="481.097"/><polygon fill="#181818" points="215,471.097,219,481.097,223,471.097,219,475.097" style="stroke:#181818;stroke-width:1.0;"/><line style="stroke:#181818;stroke-width:1.0;" x1="219" x2="219" y1="610.9321" y2="630.9321"/><polygon fill="#181818" points="215,620.9321,219,630.9321,223,620.9321,219,624.9321" style="stroke:#181818;stroke-width:1.0;"/><line style="stroke:#181818;stroke-width:1.0;" x1="219" x2="219" y1="388.4088" y2="408.4088"/><polygon fill="#181818" points="215,398.4088,219,408.4088,223,398.4088,219,402.4088" style="stroke:#181818;stroke-width:1.0;"/><line style="stroke:#181818;stroke-width:1.0;" x1="219" x2="219" y1="667.2762" y2="677.2762"/><line style="stroke:#181818;stroke-width:1.0;" x1="219" x2="354.5" y1="677.2762" y2="677.2762"/><polygon fill="#181818" points="350.5,538.588,354.5,528.588,358.5,538.588,354.5,534.588" style="stroke:#181818;stroke-width:1.0;"/><line style="stroke:#181818;stroke-width:1.0;" x1="354.5" x2="354.5" y1="376.4088" y2="677.2762"/><line style="stroke:#181818;stroke-width:1.0;" x1="354.5" x2="277" y1="376.4088" y2="376.4088"/><polygon fill="#181818" points="287,372.4088,277,376.4088,287,380.4088,283,376.4088" style="stroke:#181818;stroke-width:1.0;"/><line style="stroke:#181818;stroke-width:1.0;" x1="161" x2="83.5" y1="376.4088" y2="376.4088"/><polygon fill="#181818" points="79.5,524.588,83.5,534.588,87.5,524.588,83.5,528.588" style="stroke:#181818;stroke-width:1.0;"/><line style="stroke:#181818;stroke-width:1.0;" x1="83.5" x2="83.5" y1="376.4088" y2="689.2762"/><line style="stroke:#181818;stroke-width:1.0;" x1="83.5" x2="219" y1="689.2762" y2="689.2762"/><line style="stroke:#181818;stroke-width:1.0;" x1="219" x2="219" y1="689.2762" y2="709.2762"/><polygon fill="#181818" points="215,699.2762,219,709.2762,223,699.2762,219,703.2762" style="stroke:#181818;stroke-width:1.0;"/><line style="stroke:#181818;stroke-width:1.0;" x1="219" x2="219" y1="344.4088" y2="364.4088"/><polygon fill="#181818" points="215,354.4088,219,364.4088,223,354.4088,219,358.4088" style="stroke:#181818;stroke-width:1.0;"/><line style="stroke:#181818;stroke-width:1.0;" x1="219" x2="219" y1="745.6203" y2="765.6203"/><polygon fill="#181818" points="215,755.6203,219,765.6203,223,755.6203,219,759.6203" style="stroke:#181818;stroke-width:1.0;"/><!--SRC=[RO_BJi9068NtVOfPjgA8Moho86AQaKxjcDxIJi4z8O0Nx888YHBHXSQ4G0ma60my3JCjR-6qLABHrSoSV_xldECHw191o4UB8Rjv3biDMg_HVi06ZQWneVKMcmVXstpTdSebAnezXQCkC26s5By2LXzjOE0pdIYEQv-ZCa6geYA7w3BdXPr7rWpOv9Brb-5zZmrcx6781znfG_6WwHXymwySunDGs58pwSIBvPtqeRXGnRuNWrUVxNLlIXVlz7uPjMVqzcwBIimtD88kYEyYqTEXQbSL4pgxlnsbh1lJQBDFNw_eDOVu9j_ByPeuEGMXgcC30H63m-yKPTktI54I0CYpSITQrlxl3_P0wdkAeLUoM6zCWnTmz2TeKUOeh06H_v00qP6rkNALMyI9CWLmaCt5tv2bOYrsneae2rn84l8MgPi6oyHsUVfuSnzeXWs9-3Ewn5jvn7Q-0000]--></g></svg>