<?xml version="1.0" encoding="us-ascii" standalone="no"?><svg xmlns="http://www.w3.org/2000/svg" xmlns:xlink="http://www.w3.org/1999/xlink" contentStyleType="text/css" height="545px" preserveAspectRatio="none" style="width:1154px;height:545px;background:#FFFFFF;" version="1.1" viewBox="0 0 1154 545" width="1154px" zoomAndPan="magnify"><defs/><g><!--class RHI_linker_generic--><g id="elem_RHI_linker_generic"><rect codeLine="5" fill="#F1F1F1" height="67.0679" id="RHI_linker_generic" rx="2.5" ry="2.5" style="stroke:#181818;stroke-width:0.5;" width="219" x="810.5" y="163.67"/><ellipse cx="878.25" cy="179.67" fill="#B4A7E5" rx="11" ry="11" style="stroke:#181818;stroke-width:1.0;"/><path d="M880.3438,186.17 L875.4375,186.17 L875.4375,184.795 L876.8594,184.4825 L876.8594,175.2013 L875.4375,174.8575 L875.4375,173.4981 L880.3438,173.4981 L880.3438,174.8575 L878.9219,175.2013 L878.9219,184.4825 L880.3438,184.795 L880.3438,186.17 Z " fill="#000000"/><text fill="#000000" font-family="sans-serif" font-size="14" font-style="italic" lengthAdjust="spacing" textLength="65" x="898.75" y="185.102">RHI_linker</text><rect fill="#FFFFFF" height="18.3441" style="stroke:#181818;stroke-width:1.0;stroke-dasharray:2.0,2.0;" width="8" x="1024.5" y="160.67"/><text fill="#000000" font-family="sans-serif" font-size="12" font-style="italic" lengthAdjust="spacing" textLength="6" x="1025.5" y="174.4981">T</text><line style="stroke:#181818;stroke-width:0.5;" x1="811.5" x2="1028.5" y1="195.67" y2="195.67"/><line style="stroke:#181818;stroke-width:0.5;" x1="811.5" x2="1028.5" y1="203.67" y2="203.67"/><ellipse cx="821.5" cy="218.704" fill="#84BE84" rx="3" ry="3" style="stroke:#038048;stroke-width:1.0;"/><text fill="#000000" font-family="sans-serif" font-size="14" lengthAdjust="spacing" textLength="193" x="830.5" y="222.6359">link(device: RHI_Device): void</text></g><!--class Shader_code--><g id="elem_Shader_code"><rect codeLine="9" fill="#F1F1F1" height="181.4754" id="Shader_code" rx="2.5" ry="2.5" style="stroke:#181818;stroke-width:0.5;" width="600" x="437" y="357.4"/><ellipse cx="689.75" cy="373.4" fill="#ADD1B2" rx="11" ry="11" style="stroke:#181818;stroke-width:1.0;"/><path d="M689.8594,368.9313 Q688.9375,368.9313 688.2031,369.2438 Q687.4844,369.5563 686.9844,370.15 Q686.4844,370.7281 686.2031,371.6031 Q685.9375,372.4781 685.9375,373.5719 Q685.9375,375.0094 686.375,376.0563 Q686.8281,377.1031 687.6719,377.65 Q688.5313,378.1969 689.8438,378.1969 Q690.625,378.1969 691.3125,378.0719 Q692.0156,377.9313 693.0156,377.6188 L693.0156,379.4938 Q692.1563,379.8219 691.3906,379.9469 Q690.6406,380.0719 689.625,380.0719 Q687.7031,380.0719 686.3906,379.275 Q685.0938,378.4625 684.4375,376.9938 Q683.7813,375.5094 683.7813,373.5406 Q683.7813,372.1188 684.1719,370.9469 Q684.5781,369.7594 685.3594,368.8844 Q686.1406,368.0094 687.2813,367.5406 Q688.4219,367.0563 689.8906,367.0563 Q690.8438,367.0563 691.7344,367.2594 Q692.6406,367.4469 693.5781,367.9156 L692.75,369.6969 Q691.9688,369.3219 691.3125,369.1344 Q690.6563,368.9313 689.8594,368.9313 Z " fill="#000000"/><text fill="#000000" font-family="sans-serif" font-size="14" lengthAdjust="spacing" textLength="86" x="710.25" y="378.832">Shader_code</text><line style="stroke:#181818;stroke-width:0.5;" x1="438" x2="1036" y1="389.4" y2="389.4"/><rect fill="none" height="6" style="stroke:#C82930;stroke-width:1.0;" width="6" x="445" y="401.434"/><text fill="#000000" font-family="sans-serif" font-size="14" lengthAdjust="spacing" textLength="99" x="457" y="408.3659">m_code: string</text><rect fill="none" height="6" style="stroke:#C82930;stroke-width:1.0;" width="6" x="445" y="420.5019"/><text fill="#000000" font-family="sans-serif" font-size="14" lengthAdjust="spacing" textLength="261" x="457" y="427.4339">m_shader_code_type: ShaderCodeType</text><line style="stroke:#181818;stroke-width:0.5;" x1="438" x2="1036" y1="435.5358" y2="435.5358"/><ellipse cx="448" cy="450.5698" fill="#84BE84" rx="3" ry="3" style="stroke:#038048;stroke-width:1.0;"/><text fill="#000000" font-family="sans-serif" font-size="14" lengthAdjust="spacing" textLength="333" x="457" y="454.5018">Shader_code(code: string, type: ShaderCodeType)</text><ellipse cx="448" cy="469.6377" fill="#84BE84" rx="3" ry="3" style="stroke:#038048;stroke-width:1.0;"/><text fill="#000000" font-family="sans-serif" font-size="14" lengthAdjust="spacing" text-decoration="underline" textLength="501" x="457" y="473.5697">create(code: string, type: ShaderCodeType): std::shared_ptr&lt;Shader_code&gt;</text><ellipse cx="448" cy="488.7056" fill="#84BE84" rx="3" ry="3" style="stroke:#038048;stroke-width:1.0;"/><text fill="#000000" font-family="sans-serif" font-size="14" lengthAdjust="spacing" textLength="574" x="457" y="492.6376">link(device: RHI_Device): RHI_shader_code ' Connects to RHI, creates RHI_shader_code</text><ellipse cx="448" cy="507.7735" fill="#84BE84" rx="3" ry="3" style="stroke:#038048;stroke-width:1.0;"/><text fill="#000000" font-family="sans-serif" font-size="14" lengthAdjust="spacing" textLength="116" x="457" y="511.7055">get_code(): string</text><ellipse cx="448" cy="526.8415" fill="#84BE84" rx="3" ry="3" style="stroke:#038048;stroke-width:1.0;"/><text fill="#000000" font-family="sans-serif" font-size="14" lengthAdjust="spacing" textLength="187" x="457" y="530.7734">get_type(): ShaderCodeType</text></g><!--class RHI_linker<RHI_shader_code>--><g id="elem_RHI_linker&lt;RHI_shader_code&gt;"><rect fill="#F1F1F1" height="48" id="RHI_linker&lt;RHI_shader_code&gt;" rx="2.5" ry="2.5" style="stroke:#181818;stroke-width:0.5;" width="231" x="916.5" y="7"/><ellipse cx="931.5" cy="23" fill="#ADD1B2" rx="11" ry="11" style="stroke:#181818;stroke-width:1.0;"/><path d="M931.6094,18.5313 Q930.6875,18.5313 929.9531,18.8438 Q929.2344,19.1563 928.7344,19.75 Q928.2344,20.3281 927.9531,21.2031 Q927.6875,22.0781 927.6875,23.1719 Q927.6875,24.6094 928.125,25.6563 Q928.5781,26.7031 929.4219,27.25 Q930.2813,27.7969 931.5938,27.7969 Q932.375,27.7969 933.0625,27.6719 Q933.7656,27.5313 934.7656,27.2188 L934.7656,29.0938 Q933.9063,29.4219 933.1406,29.5469 Q932.3906,29.6719 931.375,29.6719 Q929.4531,29.6719 928.1406,28.875 Q926.8438,28.0625 926.1875,26.5938 Q925.5313,25.1094 925.5313,23.1406 Q925.5313,21.7188 925.9219,20.5469 Q926.3281,19.3594 927.1094,18.4844 Q927.8906,17.6094 929.0313,17.1406 Q930.1719,16.6563 931.6406,16.6563 Q932.5938,16.6563 933.4844,16.8594 Q934.3906,17.0469 935.3281,17.5156 L934.5,19.2969 Q933.7188,18.9219 933.0625,18.7344 Q932.4063,18.5313 931.6094,18.5313 Z " fill="#000000"/><text fill="#000000" font-family="sans-serif" font-size="14" lengthAdjust="spacing" textLength="199" x="945.5" y="28.432">RHI_linker&lt;RHI_shader_code&gt;</text><line style="stroke:#181818;stroke-width:0.5;" x1="917.5" x2="1146.5" y1="39" y2="39"/><line style="stroke:#181818;stroke-width:0.5;" x1="917.5" x2="1146.5" y1="47" y2="47"/></g><!--class Shader_program--><g id="elem_Shader_program"><rect codeLine="21" fill="#F1F1F1" height="162.4075" id="Shader_program" rx="2.5" ry="2.5" style="stroke:#181818;stroke-width:0.5;" width="768" x="7" y="116"/><ellipse cx="330.25" cy="132" fill="#ADD1B2" rx="11" ry="11" style="stroke:#181818;stroke-width:1.0;"/><path d="M330.3594,127.5313 Q329.4375,127.5313 328.7031,127.8438 Q327.9844,128.1563 327.4844,128.75 Q326.9844,129.3281 326.7031,130.2031 Q326.4375,131.0781 326.4375,132.1719 Q326.4375,133.6094 326.875,134.6563 Q327.3281,135.7031 328.1719,136.25 Q329.0313,136.7969 330.3438,136.7969 Q331.125,136.7969 331.8125,136.6719 Q332.5156,136.5313 333.5156,136.2188 L333.5156,138.0938 Q332.6563,138.4219 331.8906,138.5469 Q331.1406,138.6719 330.125,138.6719 Q328.2031,138.6719 326.8906,137.875 Q325.5938,137.0625 324.9375,135.5938 Q324.2813,134.1094 324.2813,132.1406 Q324.2813,130.7188 324.6719,129.5469 Q325.0781,128.3594 325.8594,127.4844 Q326.6406,126.6094 327.7813,126.1406 Q328.9219,125.6563 330.3906,125.6563 Q331.3438,125.6563 332.2344,125.8594 Q333.1406,126.0469 334.0781,126.5156 L333.25,128.2969 Q332.4688,127.9219 331.8125,127.7344 Q331.1563,127.5313 330.3594,127.5313 Z " fill="#000000"/><text fill="#000000" font-family="sans-serif" font-size="14" lengthAdjust="spacing" textLength="113" x="350.75" y="137.432">Shader_program</text><line style="stroke:#181818;stroke-width:0.5;" x1="8" x2="774" y1="148" y2="148"/><rect fill="none" height="6" style="stroke:#C82930;stroke-width:1.0;" width="6" x="15" y="160.034"/><text fill="#000000" font-family="sans-serif" font-size="14" lengthAdjust="spacing" textLength="520" x="27" y="166.9659">m_shader_codes: std::map&lt;ShaderCodeType, std::shared_ptr&lt;Shader_code&gt;&gt;</text><rect fill="none" height="6" style="stroke:#C82930;stroke-width:1.0;" width="6" x="15" y="179.1019"/><text fill="#000000" font-family="sans-serif" font-size="14" lengthAdjust="spacing" textLength="705" x="27" y="186.0339">m_uniforms: std::map&lt;string, Uniform_info&gt; ' Assuming Uniform_info is a struct/class for uniform details</text><line style="stroke:#181818;stroke-width:0.5;" x1="8" x2="774" y1="194.1358" y2="194.1358"/><ellipse cx="18" cy="209.1698" fill="#84BE84" rx="3" ry="3" style="stroke:#038048;stroke-width:1.0;"/><text fill="#000000" font-family="sans-serif" font-size="14" lengthAdjust="spacing" textLength="121" x="27" y="213.1018">Shader_program()</text><ellipse cx="18" cy="228.2377" fill="#84BE84" rx="3" ry="3" style="stroke:#038048;stroke-width:1.0;"/><text fill="#000000" font-family="sans-serif" font-size="14" lengthAdjust="spacing" text-decoration="underline" textLength="289" x="27" y="232.1697">create(): std::shared_ptr&lt;Shader_program&gt;</text><ellipse cx="18" cy="247.3056" fill="#84BE84" rx="3" ry="3" style="stroke:#038048;stroke-width:1.0;"/><text fill="#000000" font-family="sans-serif" font-size="14" lengthAdjust="spacing" textLength="420" x="27" y="251.2376">add_shader_code(shader: std::shared_ptr&lt;Shader_code&gt;): void</text><ellipse cx="18" cy="266.3735" fill="#84BE84" rx="3" ry="3" style="stroke:#038048;stroke-width:1.0;"/><text fill="#000000" font-family="sans-serif" font-size="14" lengthAdjust="spacing" textLength="742" x="27" y="270.3055">link(device: RHI_Device): RHI_shader_program ' Coordinates Shader_code linking, creates RHI_shader_program</text></g><!--class RHI_linker<RHI_shader_program>--><g id="elem_RHI_linker&lt;RHI_shader_program&gt;"><rect fill="#F1F1F1" height="48" id="RHI_linker&lt;RHI_shader_program&gt;" rx="2.5" ry="2.5" style="stroke:#181818;stroke-width:0.5;" width="258" x="521" y="7"/><ellipse cx="536" cy="23" fill="#ADD1B2" rx="11" ry="11" style="stroke:#181818;stroke-width:1.0;"/><path d="M536.1094,18.5313 Q535.1875,18.5313 534.4531,18.8438 Q533.7344,19.1563 533.2344,19.75 Q532.7344,20.3281 532.4531,21.2031 Q532.1875,22.0781 532.1875,23.1719 Q532.1875,24.6094 532.625,25.6563 Q533.0781,26.7031 533.9219,27.25 Q534.7813,27.7969 536.0938,27.7969 Q536.875,27.7969 537.5625,27.6719 Q538.2656,27.5313 539.2656,27.2188 L539.2656,29.0938 Q538.4063,29.4219 537.6406,29.5469 Q536.8906,29.6719 535.875,29.6719 Q533.9531,29.6719 532.6406,28.875 Q531.3438,28.0625 530.6875,26.5938 Q530.0313,25.1094 530.0313,23.1406 Q530.0313,21.7188 530.4219,20.5469 Q530.8281,19.3594 531.6094,18.4844 Q532.3906,17.6094 533.5313,17.1406 Q534.6719,16.6563 536.1406,16.6563 Q537.0938,16.6563 537.9844,16.8594 Q538.8906,17.0469 539.8281,17.5156 L539,19.2969 Q538.2188,18.9219 537.5625,18.7344 Q536.9063,18.5313 536.1094,18.5313 Z " fill="#000000"/><text fill="#000000" font-family="sans-serif" font-size="14" lengthAdjust="spacing" textLength="226" x="550" y="28.432">RHI_linker&lt;RHI_shader_program&gt;</text><line style="stroke:#181818;stroke-width:0.5;" x1="522" x2="778" y1="39" y2="39"/><line style="stroke:#181818;stroke-width:0.5;" x1="522" x2="778" y1="47" y2="47"/></g><!--reverse link RHI_linker<RHI_shader_code> to Shader_code--><g id="link_RHI_linker&lt;RHI_shader_code&gt;_Shader_code"><path codeLine="18" d="M1047.8319,72.2882 C1065.0819,118.6082 1089.58,206.74 1047,278.4 C1028.38,309.75 1001.66,335.64 971.63,356.91 " fill="none" id="RHI_linker&lt;RHI_shader_code&gt;-backto-Shader_code" style="stroke:#181818;stroke-width:1.0;stroke-dasharray:7.0,7.0;"/><polygon fill="none" points="1041.55,55.42,1042.2091,74.3822,1053.4546,70.1943,1041.55,55.42" style="stroke:#181818;stroke-width:1.0;"/></g><!--link RHI_linker<RHI_shader_code> to RHI_linker_generic--><g id="link_RHI_linker&lt;RHI_shader_code&gt;_RHI_linker_generic"><path codeLine="19" d="M1016.19,55.18 C996.96,83.38 974.4937,116.3104 952.6437,148.3404 " fill="none" id="RHI_linker&lt;RHI_shader_code&gt;-to-RHI_linker_generic" style="stroke:#181818;stroke-width:1.0;"/><polygon fill="none" points="942.5,163.21,957.6002,151.7216,947.6871,144.9591,942.5,163.21" style="stroke:#181818;stroke-width:1.0;"/></g><!--reverse link RHI_linker<RHI_shader_program> to Shader_program--><g id="link_RHI_linker&lt;RHI_shader_program&gt;_Shader_program"><path codeLine="31" d="M597.967,64.9868 C572.757,80.9668 552.91,93.55 518.1,115.62 " fill="none" id="RHI_linker&lt;RHI_shader_program&gt;-backto-Shader_program" style="stroke:#181818;stroke-width:1.0;stroke-dasharray:7.0,7.0;"/><polygon fill="none" points="613.17,55.35,594.7547,59.9191,601.1793,70.0545,613.17,55.35" style="stroke:#181818;stroke-width:1.0;"/></g><!--link RHI_linker<RHI_shader_program> to RHI_linker_generic--><g id="link_RHI_linker&lt;RHI_shader_program&gt;_RHI_linker_generic"><path codeLine="32" d="M690.58,55.37 C719.32,72.03 758.7,95.1 793,116 C818.05,131.26 830.4195,138.9435 853.4495,153.5835 " fill="none" id="RHI_linker&lt;RHI_shader_program&gt;-to-RHI_linker_generic" style="stroke:#181818;stroke-width:1.0;"/><polygon fill="none" points="868.64,163.24,856.6683,148.52,850.2306,158.647,868.64,163.24" style="stroke:#181818;stroke-width:1.0;"/></g><!--reverse link Shader_program to Shader_code--><g id="link_Shader_program_Shader_code"><path codeLine="34" d="M512.6011,285.688 C547.3511,310.688 576.13,331.4 611.73,357.02 " fill="none" id="Shader_program-backto-Shader_code" style="stroke:#181818;stroke-width:1.0;"/><polygon fill="none" points="502.86,278.68,505.3945,285.431,512.6011,285.688,510.0665,278.937,502.86,278.68" style="stroke:#181818;stroke-width:1.0;"/><text fill="#000000" font-family="sans-serif" font-size="13" lengthAdjust="spacing" textLength="140" x="565" y="323.297">&#32500;&#25252; shader_codes &#26144;&#23556;</text><text fill="#000000" font-family="sans-serif" font-size="13" lengthAdjust="spacing" textLength="7" x="594.0662" y="345.6967">1</text></g><!--SRC=[ZPGzJiCm5CTtd-8fIrFH1B56LIG40wnyp95bkyLgOqUsYuHADoPEmCZ00HZOE0zm3Mp7eMve2vdYz_t-_YK3FUEYmGhNCEU2cRk6WLJcHYBxS66Occ328BauEwzim8ofyLMP0DQmjbHJ9fZY19O8uC3LcQMKtNB22Xzrwj-71TnAJj4A8JB7MiFb3QOscKZAV6O6jJyKe8tYOXfCUXrMkV6Aa7XY3LVsx7j6jTAunWYsfGnzpb8RR3XP0L4Cct_bEJSj2ZkIOhHgZ1f7ZSi_jdU7Q1aOm8aKWX6ZmKZd7OL9T3_K5vuoq-utZ0HgpMvMP-u9iqAnnFcYoU_BZPlijIaJjDSBMMOB_BxtteKsIauTJylV5wY3W3Lknfl3ZlOgMuPI2y4dKjLncUw-hbjNnSL4bbRROwqNjVLiE81hm4wz1J67xT3M1w4iK6Omd-kOgB1CkXsPtK24l9O9J6ciGjg-xuUf-rp-pLGdkyDAAig59oacm9NnMct1B6JRTWFRK5keWYXfdkVhMGQ1kE2ivf9OGQG8KVQ7iQQk6sW_U9rGEzdx2TYDNw-Xp398ZfADtGj8ljxVFXzV8COHFf-UFruV4eI-0G00]--></g></svg>