<?xml version="1.0" encoding="us-ascii" standalone="no"?><svg xmlns="http://www.w3.org/2000/svg" xmlns:xlink="http://www.w3.org/1999/xlink" contentStyleType="text/css" height="346px" preserveAspectRatio="none" style="width:1143px;height:346px;background:#FFFFFF;" version="1.1" viewBox="0 0 1143 346" width="1143px" zoomAndPan="magnify"><defs/><g><text fill="#000000" font-family="sans-serif" font-size="14" font-weight="bold" lengthAdjust="spacing" textLength="293.3125" x="417.8438" y="24.9659">Overall Architecture of &#24037;&#20855;&#23618; (Tool Layer)</text><!--cluster ??? (Tool Layer)--><g id="cluster_&#24037;&#20855;&#23618; (Tool Layer)"><rect fill="none" height="293.68" rx="2.5" ry="2.5" style="stroke:#181818;stroke-width:1.0;" width="1130" x="7" y="47.0679"/><path d="M145.125,47.0679 L145.125,59.1358 L135.125,69.1358 L7,69.1358 " fill="none" style="stroke:#181818;stroke-width:1.0;"/><text fill="#000000" font-family="sans-serif" font-size="14" font-weight="bold" lengthAdjust="spacing" textLength="128.125" x="10" y="63.0339">&#24037;&#20855;&#23618; (Tool Layer)</text></g><!--class GLM--><g id="elem_GLM"><rect fill="#F1F1F1" height="61.412" id="GLM" rx="2.5" ry="2.5" style="stroke:#181818;stroke-width:0.5;" width="126" x="246" y="263.3379"/><ellipse cx="261" cy="286.0439" fill="#ADD1B2" rx="11" ry="11" style="stroke:#181818;stroke-width:1.0;"/><path d="M261.1094,281.5752 Q260.1875,281.5752 259.4531,281.8877 Q258.7344,282.2002 258.2344,282.7939 Q257.7344,283.3721 257.4531,284.2471 Q257.1875,285.1221 257.1875,286.2158 Q257.1875,287.6533 257.625,288.7002 Q258.0781,289.7471 258.9219,290.2939 Q259.7813,290.8408 261.0938,290.8408 Q261.875,290.8408 262.5625,290.7158 Q263.2656,290.5752 264.2656,290.2627 L264.2656,292.1377 Q263.4063,292.4658 262.6406,292.5908 Q261.8906,292.7158 260.875,292.7158 Q258.9531,292.7158 257.6406,291.9189 Q256.3438,291.1064 255.6875,289.6377 Q255.0313,288.1533 255.0313,286.1846 Q255.0313,284.7627 255.4219,283.5908 Q255.8281,282.4033 256.6094,281.5283 Q257.3906,280.6533 258.5313,280.1846 Q259.6719,279.7002 261.1406,279.7002 Q262.0938,279.7002 262.9844,279.9033 Q263.8906,280.0908 264.8281,280.5596 L264,282.3408 Q263.2188,281.9658 262.5625,281.7783 Q261.9063,281.5752 261.1094,281.5752 Z " fill="#000000"/><text fill="#000000" font-family="sans-serif" font-size="12" font-style="italic" lengthAdjust="spacing" textLength="98" x="273" y="281.166">&#171;External Library&#187;</text><text fill="#000000" font-family="sans-serif" font-size="14" lengthAdjust="spacing" textLength="30" x="307" y="299.648">GLM</text><line style="stroke:#181818;stroke-width:0.5;" x1="247" x2="371" y1="308.7499" y2="308.7499"/><line style="stroke:#181818;stroke-width:0.5;" x1="247" x2="371" y1="316.7499" y2="316.7499"/></g><!--class spdlog--><g id="elem_spdlog"><rect fill="#F1F1F1" height="61.412" id="spdlog" rx="2.5" ry="2.5" style="stroke:#181818;stroke-width:0.5;" width="126" x="415" y="263.3379"/><ellipse cx="430" cy="286.0439" fill="#ADD1B2" rx="11" ry="11" style="stroke:#181818;stroke-width:1.0;"/><path d="M430.1094,281.5752 Q429.1875,281.5752 428.4531,281.8877 Q427.7344,282.2002 427.2344,282.7939 Q426.7344,283.3721 426.4531,284.2471 Q426.1875,285.1221 426.1875,286.2158 Q426.1875,287.6533 426.625,288.7002 Q427.0781,289.7471 427.9219,290.2939 Q428.7813,290.8408 430.0938,290.8408 Q430.875,290.8408 431.5625,290.7158 Q432.2656,290.5752 433.2656,290.2627 L433.2656,292.1377 Q432.4063,292.4658 431.6406,292.5908 Q430.8906,292.7158 429.875,292.7158 Q427.9531,292.7158 426.6406,291.9189 Q425.3438,291.1064 424.6875,289.6377 Q424.0313,288.1533 424.0313,286.1846 Q424.0313,284.7627 424.4219,283.5908 Q424.8281,282.4033 425.6094,281.5283 Q426.3906,280.6533 427.5313,280.1846 Q428.6719,279.7002 430.1406,279.7002 Q431.0938,279.7002 431.9844,279.9033 Q432.8906,280.0908 433.8281,280.5596 L433,282.3408 Q432.2188,281.9658 431.5625,281.7783 Q430.9063,281.5752 430.1094,281.5752 Z " fill="#000000"/><text fill="#000000" font-family="sans-serif" font-size="12" font-style="italic" lengthAdjust="spacing" textLength="98" x="442" y="281.166">&#171;External Library&#187;</text><text fill="#000000" font-family="sans-serif" font-size="14" lengthAdjust="spacing" textLength="46" x="468" y="299.648">spdlog</text><line style="stroke:#181818;stroke-width:0.5;" x1="416" x2="540" y1="308.7499" y2="308.7499"/><line style="stroke:#181818;stroke-width:0.5;" x1="416" x2="540" y1="316.7499" y2="316.7499"/></g><!--class nlohmann_json--><g id="elem_nlohmann_json"><rect fill="#F1F1F1" height="61.412" id="nlohmann_json" rx="2.5" ry="2.5" style="stroke:#181818;stroke-width:0.5;" width="135" x="603.5" y="263.3379"/><ellipse cx="618.5" cy="286.0439" fill="#ADD1B2" rx="11" ry="11" style="stroke:#181818;stroke-width:1.0;"/><path d="M618.6094,281.5752 Q617.6875,281.5752 616.9531,281.8877 Q616.2344,282.2002 615.7344,282.7939 Q615.2344,283.3721 614.9531,284.2471 Q614.6875,285.1221 614.6875,286.2158 Q614.6875,287.6533 615.125,288.7002 Q615.5781,289.7471 616.4219,290.2939 Q617.2813,290.8408 618.5938,290.8408 Q619.375,290.8408 620.0625,290.7158 Q620.7656,290.5752 621.7656,290.2627 L621.7656,292.1377 Q620.9063,292.4658 620.1406,292.5908 Q619.3906,292.7158 618.375,292.7158 Q616.4531,292.7158 615.1406,291.9189 Q613.8438,291.1064 613.1875,289.6377 Q612.5313,288.1533 612.5313,286.1846 Q612.5313,284.7627 612.9219,283.5908 Q613.3281,282.4033 614.1094,281.5283 Q614.8906,280.6533 616.0313,280.1846 Q617.1719,279.7002 618.6406,279.7002 Q619.5938,279.7002 620.4844,279.9033 Q621.3906,280.0908 622.3281,280.5596 L621.5,282.3408 Q620.7188,281.9658 620.0625,281.7783 Q619.4063,281.5752 618.6094,281.5752 Z " fill="#000000"/><text fill="#000000" font-family="sans-serif" font-size="12" font-style="italic" lengthAdjust="spacing" textLength="98" x="635" y="281.166">&#171;External Library&#187;</text><text fill="#000000" font-family="sans-serif" font-size="14" lengthAdjust="spacing" textLength="103" x="632.5" y="299.648">nlohmann_json</text><line style="stroke:#181818;stroke-width:0.5;" x1="604.5" x2="737.5" y1="308.7499" y2="308.7499"/><line style="stroke:#181818;stroke-width:0.5;" x1="604.5" x2="737.5" y1="316.7499" y2="316.7499"/></g><!--class chrono--><g id="elem_chrono"><rect fill="#F1F1F1" height="61.412" id="chrono" rx="2.5" ry="2.5" style="stroke:#181818;stroke-width:0.5;" width="126" x="793" y="263.3379"/><ellipse cx="808" cy="286.0439" fill="#ADD1B2" rx="11" ry="11" style="stroke:#181818;stroke-width:1.0;"/><path d="M808.1094,281.5752 Q807.1875,281.5752 806.4531,281.8877 Q805.7344,282.2002 805.2344,282.7939 Q804.7344,283.3721 804.4531,284.2471 Q804.1875,285.1221 804.1875,286.2158 Q804.1875,287.6533 804.625,288.7002 Q805.0781,289.7471 805.9219,290.2939 Q806.7813,290.8408 808.0938,290.8408 Q808.875,290.8408 809.5625,290.7158 Q810.2656,290.5752 811.2656,290.2627 L811.2656,292.1377 Q810.4063,292.4658 809.6406,292.5908 Q808.8906,292.7158 807.875,292.7158 Q805.9531,292.7158 804.6406,291.9189 Q803.3438,291.1064 802.6875,289.6377 Q802.0313,288.1533 802.0313,286.1846 Q802.0313,284.7627 802.4219,283.5908 Q802.8281,282.4033 803.6094,281.5283 Q804.3906,280.6533 805.5313,280.1846 Q806.6719,279.7002 808.1406,279.7002 Q809.0938,279.7002 809.9844,279.9033 Q810.8906,280.0908 811.8281,280.5596 L811,282.3408 Q810.2188,281.9658 809.5625,281.7783 Q808.9063,281.5752 808.1094,281.5752 Z " fill="#000000"/><text fill="#000000" font-family="sans-serif" font-size="12" font-style="italic" lengthAdjust="spacing" textLength="98" x="820" y="281.166">&#171;External Library&#187;</text><text fill="#000000" font-family="sans-serif" font-size="14" lengthAdjust="spacing" textLength="47" x="845.5" y="299.648">chrono</text><line style="stroke:#181818;stroke-width:0.5;" x1="794" x2="918" y1="308.7499" y2="308.7499"/><line style="stroke:#181818;stroke-width:0.5;" x1="794" x2="918" y1="316.7499" y2="316.7499"/></g><!--entity DesignPatterns--><g id="elem_DesignPatterns"><path d="M26,85.0679 L148.125,85.0679 A3.75,3.75 0 0 1 150.625,87.5679 L157.625,110.1358 L210,110.1358 A2.5,2.5 0 0 1 212.5,112.6358 L212.5,181.8396 A2.5,2.5 0 0 1 210,184.3396 L26,184.3396 A2.5,2.5 0 0 1 23.5,181.8396 L23.5,87.5679 A2.5,2.5 0 0 1 26,85.0679 " fill="#F1F1F1" style="stroke:#181818;stroke-width:0.5;"/><line style="stroke:#181818;stroke-width:0.5;" x1="23.5" x2="157.625" y1="110.1358" y2="110.1358"/><text fill="#000000" font-family="sans-serif" font-size="14" font-weight="bold" lengthAdjust="spacing" textLength="109.125" x="33.5" y="103.0339">DesignPatterns</text><text fill="#000000" font-family="sans-serif" font-size="14" font-style="italic" lengthAdjust="spacing" textLength="61" x="82.5" y="132.1018">&#171;Module&#187;</text><text fill="#000000" font-family="sans-serif" font-size="14" lengthAdjust="spacing" textLength="70" x="33.5" y="151.1697">&#35774;&#35745;&#27169;&#24335;&#24211;</text><text fill="#000000" font-family="sans-serif" font-size="14" lengthAdjust="spacing" textLength="159" x="33.5" y="170.2376">(Design Pattern Library)</text></g><!--entity MathLib--><g id="elem_MathLib"><path d="M249.5,85.0679 L320.5625,85.0679 A3.75,3.75 0 0 1 323.0625,87.5679 L330.0625,110.1358 L368.5,110.1358 A2.5,2.5 0 0 1 371,112.6358 L371,181.8396 A2.5,2.5 0 0 1 368.5,184.3396 L249.5,184.3396 A2.5,2.5 0 0 1 247,181.8396 L247,87.5679 A2.5,2.5 0 0 1 249.5,85.0679 " fill="#F1F1F1" style="stroke:#181818;stroke-width:0.5;"/><line style="stroke:#181818;stroke-width:0.5;" x1="247" x2="330.0625" y1="110.1358" y2="110.1358"/><text fill="#000000" font-family="sans-serif" font-size="14" font-weight="bold" lengthAdjust="spacing" textLength="58.0625" x="257" y="103.0339">MathLib</text><text fill="#000000" font-family="sans-serif" font-size="14" font-style="italic" lengthAdjust="spacing" textLength="61" x="273.5" y="132.1018">&#171;Module&#187;</text><text fill="#000000" font-family="sans-serif" font-size="14" lengthAdjust="spacing" textLength="42" x="257" y="151.1697">&#25968;&#23398;&#24211;</text><text fill="#000000" font-family="sans-serif" font-size="14" lengthAdjust="spacing" textLength="94" x="257" y="170.2376">(Math Library)</text></g><!--entity LoggingLib--><g id="elem_LoggingLib"><path d="M408.5,85.0679 L500.875,85.0679 A3.75,3.75 0 0 1 503.375,87.5679 L510.375,110.1358 L547.5,110.1358 A2.5,2.5 0 0 1 550,112.6358 L550,181.8396 A2.5,2.5 0 0 1 547.5,184.3396 L408.5,184.3396 A2.5,2.5 0 0 1 406,181.8396 L406,87.5679 A2.5,2.5 0 0 1 408.5,85.0679 " fill="#F1F1F1" style="stroke:#181818;stroke-width:0.5;"/><line style="stroke:#181818;stroke-width:0.5;" x1="406" x2="510.375" y1="110.1358" y2="110.1358"/><text fill="#000000" font-family="sans-serif" font-size="14" font-weight="bold" lengthAdjust="spacing" textLength="79.375" x="416" y="103.0339">LoggingLib</text><text fill="#000000" font-family="sans-serif" font-size="14" font-style="italic" lengthAdjust="spacing" textLength="61" x="442.5" y="132.1018">&#171;Module&#187;</text><text fill="#000000" font-family="sans-serif" font-size="14" lengthAdjust="spacing" textLength="42" x="416" y="151.1697">&#26085;&#24535;&#24211;</text><text fill="#000000" font-family="sans-serif" font-size="14" lengthAdjust="spacing" textLength="114" x="416" y="170.2376">(Logging Library)</text></g><!--entity SerializationLib--><g id="elem_SerializationLib"><path d="M587.5,85.0679 L710.5,85.0679 A3.75,3.75 0 0 1 713,87.5679 L720,110.1358 L754.5,110.1358 A2.5,2.5 0 0 1 757,112.6358 L757,181.8396 A2.5,2.5 0 0 1 754.5,184.3396 L587.5,184.3396 A2.5,2.5 0 0 1 585,181.8396 L585,87.5679 A2.5,2.5 0 0 1 587.5,85.0679 " fill="#F1F1F1" style="stroke:#181818;stroke-width:0.5;"/><line style="stroke:#181818;stroke-width:0.5;" x1="585" x2="720" y1="110.1358" y2="110.1358"/><text fill="#000000" font-family="sans-serif" font-size="14" font-weight="bold" lengthAdjust="spacing" textLength="110" x="595" y="103.0339">SerializationLib</text><text fill="#000000" font-family="sans-serif" font-size="14" font-style="italic" lengthAdjust="spacing" textLength="61" x="635.5" y="132.1018">&#171;Module&#187;</text><text fill="#000000" font-family="sans-serif" font-size="14" lengthAdjust="spacing" textLength="56" x="595" y="151.1697">&#24207;&#21015;&#21270;&#24211;</text><text fill="#000000" font-family="sans-serif" font-size="14" lengthAdjust="spacing" textLength="142" x="595" y="170.2376">(Serialization Library)</text></g><!--entity TimerLib--><g id="elem_TimerLib"><path d="M794.5,85.0679 L870,85.0679 A3.75,3.75 0 0 1 872.5,87.5679 L879.5,110.1358 L917.5,110.1358 A2.5,2.5 0 0 1 920,112.6358 L920,181.8396 A2.5,2.5 0 0 1 917.5,184.3396 L794.5,184.3396 A2.5,2.5 0 0 1 792,181.8396 L792,87.5679 A2.5,2.5 0 0 1 794.5,85.0679 " fill="#F1F1F1" style="stroke:#181818;stroke-width:0.5;"/><line style="stroke:#181818;stroke-width:0.5;" x1="792" x2="879.5" y1="110.1358" y2="110.1358"/><text fill="#000000" font-family="sans-serif" font-size="14" font-weight="bold" lengthAdjust="spacing" textLength="62.5" x="802" y="103.0339">TimerLib</text><text fill="#000000" font-family="sans-serif" font-size="14" font-style="italic" lengthAdjust="spacing" textLength="61" x="820.5" y="132.1018">&#171;Module&#187;</text><text fill="#000000" font-family="sans-serif" font-size="14" lengthAdjust="spacing" textLength="56" x="802" y="151.1697">&#35745;&#26102;&#22120;&#24211;</text><text fill="#000000" font-family="sans-serif" font-size="14" lengthAdjust="spacing" textLength="98" x="802" y="170.2376">(Timer Library)</text></g><!--entity EnumsMacros--><g id="elem_EnumsMacros"><path d="M957,85.0679 L1069.8125,85.0679 A3.75,3.75 0 0 1 1072.3125,87.5679 L1079.3125,110.1358 L1119,110.1358 A2.5,2.5 0 0 1 1121.5,112.6358 L1121.5,181.8396 A2.5,2.5 0 0 1 1119,184.3396 L957,184.3396 A2.5,2.5 0 0 1 954.5,181.8396 L954.5,87.5679 A2.5,2.5 0 0 1 957,85.0679 " fill="#F1F1F1" style="stroke:#181818;stroke-width:0.5;"/><line style="stroke:#181818;stroke-width:0.5;" x1="954.5" x2="1079.3125" y1="110.1358" y2="110.1358"/><text fill="#000000" font-family="sans-serif" font-size="14" font-weight="bold" lengthAdjust="spacing" textLength="99.8125" x="964.5" y="103.0339">EnumsMacros</text><text fill="#000000" font-family="sans-serif" font-size="14" font-style="italic" lengthAdjust="spacing" textLength="61" x="1002.5" y="132.1018">&#171;Module&#187;</text><text fill="#000000" font-family="sans-serif" font-size="14" lengthAdjust="spacing" textLength="56" x="964.5" y="151.1697">&#26522;&#20030;&#21644;&#23439;</text><text fill="#000000" font-family="sans-serif" font-size="14" lengthAdjust="spacing" textLength="137" x="964.5" y="170.2376">(Enums and Macros)</text></g><!--link MathLib to GLM--><g id="link_MathLib_GLM"><path codeLine="14" d="M309,184.6179 C309,210.2379 309,234.7979 309,256.9279 " fill="none" id="MathLib-to-GLM" style="stroke:#181818;stroke-width:1.0;stroke-dasharray:7.0,7.0;"/><polygon fill="#181818" points="309,262.9279,313,253.9279,309,257.9279,305,253.9279,309,262.9279" style="stroke:#181818;stroke-width:1.0;"/><text fill="#000000" font-family="sans-serif" font-size="13" lengthAdjust="spacing" textLength="27" x="310" y="229.2349">uses</text></g><!--link LoggingLib to spdlog--><g id="link_LoggingLib_spdlog"><path codeLine="19" d="M478,184.6179 C478,210.2379 478,234.7979 478,256.9279 " fill="none" id="LoggingLib-to-spdlog" style="stroke:#181818;stroke-width:1.0;stroke-dasharray:7.0,7.0;"/><polygon fill="#181818" points="478,262.9279,482,253.9279,478,257.9279,474,253.9279,478,262.9279" style="stroke:#181818;stroke-width:1.0;"/><text fill="#000000" font-family="sans-serif" font-size="13" lengthAdjust="spacing" textLength="27" x="479" y="229.2349">uses</text></g><!--link SerializationLib to nlohmann_json--><g id="link_SerializationLib_nlohmann_json"><path codeLine="24" d="M671,184.6179 C671,210.2379 671,234.7979 671,256.9279 " fill="none" id="SerializationLib-to-nlohmann_json" style="stroke:#181818;stroke-width:1.0;stroke-dasharray:7.0,7.0;"/><polygon fill="#181818" points="671,262.9279,675,253.9279,671,257.9279,667,253.9279,671,262.9279" style="stroke:#181818;stroke-width:1.0;"/><text fill="#000000" font-family="sans-serif" font-size="13" lengthAdjust="spacing" textLength="27" x="672" y="229.2349">uses</text></g><!--link TimerLib to chrono--><g id="link_TimerLib_chrono"><path codeLine="29" d="M856,184.6179 C856,210.2379 856,234.7979 856,256.9279 " fill="none" id="TimerLib-to-chrono" style="stroke:#181818;stroke-width:1.0;stroke-dasharray:7.0,7.0;"/><polygon fill="#181818" points="856,262.9279,860,253.9279,856,257.9279,852,253.9279,856,262.9279" style="stroke:#181818;stroke-width:1.0;"/><text fill="#000000" font-family="sans-serif" font-size="13" lengthAdjust="spacing" textLength="27" x="857" y="229.2349">uses</text></g><!--SRC=[XPBBIWCn68NtynG_iwgRFe2K0S7gfaN1BWM9qpYDPfAIfDegRWJ1HQ6WQD65q4Mb6ujkh1IfBsDA7yEvbjv2imW3vyp_dUG4KSelV58dpBCiHHJ5i7UE1Q8KjeHR8GgxgYOmy1FGWww-7UZF6yYKEATGG0qiDYohYjmpv66mLnjioELs1FAnuy2LPK6mfdzC-gD9lpFkTVHFImyV3bbc6qlYCTX7Ic71e42E1HADQ4YHbsiqd88anBR49OEvaApeute1CtxyqEzlCQ28LCKuDXG3RNbUkATYDkk0lLiesh09DOdb8gpTrR_j65RWdXVSh96Nw4RaZ1vHPRLCkMS0ws5BtxLryobc7s1142MNI15kliWvrroEcHXBfYWCexpY8yQEJYLdXanXk-ql_ToBCvM8ZuKnIwIQCap5YErM16VSrC3hoz_tIDytTRyLGFEivaj0h1mqw0ekbxYH8TQMQmZUailzAcUOgQJsN2vV3zyTekbH76VMbBQqphTmWUliwPbN-Yph7m00]--></g></svg>