<?xml version="1.0" encoding="us-ascii" standalone="no"?><svg xmlns="http://www.w3.org/2000/svg" xmlns:xlink="http://www.w3.org/1999/xlink" contentStyleType="text/css" height="905px" preserveAspectRatio="none" style="width:775px;height:905px;background:#FFFFFF;" version="1.1" viewBox="0 0 775 905" width="775px" zoomAndPan="magnify"><defs/><g><!--class Engine_runtime_descriptor--><g id="elem_Engine_runtime_descriptor"><rect codeLine="5" fill="#F1F1F1" height="105.2038" id="Engine_runtime_descriptor" rx="2.5" ry="2.5" style="stroke:#181818;stroke-width:0.5;" width="214" x="554" y="7"/><ellipse cx="569" cy="23" fill="#ADD1B2" rx="11" ry="11" style="stroke:#181818;stroke-width:1.0;"/><path d="M569.1094,18.5313 Q568.1875,18.5313 567.4531,18.8438 Q566.7344,19.1563 566.2344,19.75 Q565.7344,20.3281 565.4531,21.2031 Q565.1875,22.0781 565.1875,23.1719 Q565.1875,24.6094 565.625,25.6563 Q566.0781,26.7031 566.9219,27.25 Q567.7813,27.7969 569.0938,27.7969 Q569.875,27.7969 570.5625,27.6719 Q571.2656,27.5313 572.2656,27.2188 L572.2656,29.0938 Q571.4063,29.4219 570.6406,29.5469 Q569.8906,29.6719 568.875,29.6719 Q566.9531,29.6719 565.6406,28.875 Q564.3438,28.0625 563.6875,26.5938 Q563.0313,25.1094 563.0313,23.1406 Q563.0313,21.7188 563.4219,20.5469 Q563.8281,19.3594 564.6094,18.4844 Q565.3906,17.6094 566.5313,17.1406 Q567.6719,16.6563 569.1406,16.6563 Q570.0938,16.6563 570.9844,16.8594 Q571.8906,17.0469 572.8281,17.5156 L572,19.2969 Q571.2188,18.9219 570.5625,18.7344 Q569.9063,18.5313 569.1094,18.5313 Z " fill="#000000"/><text fill="#000000" font-family="sans-serif" font-size="14" lengthAdjust="spacing" textLength="182" x="583" y="28.432">Engine_runtime_descriptor</text><line style="stroke:#181818;stroke-width:0.5;" x1="555" x2="767" y1="39" y2="39"/><text fill="#000000" font-family="sans-serif" font-size="14" lengthAdjust="spacing" textLength="72" x="560" y="57.9659">+width: int</text><text fill="#000000" font-family="sans-serif" font-size="14" lengthAdjust="spacing" textLength="78" x="560" y="77.0339">+height: int</text><text fill="#000000" font-family="sans-serif" font-size="14" lengthAdjust="spacing" textLength="111" x="560" y="96.1018">+title: std::string</text><line style="stroke:#181818;stroke-width:0.5;" x1="555" x2="767" y1="104.2038" y2="104.2038"/></g><!--class Engine_runtime--><g id="elem_Engine_runtime"><rect codeLine="12" fill="#F1F1F1" height="448.4263" id="Engine_runtime" rx="2.5" ry="2.5" style="stroke:#181818;stroke-width:0.5;" width="412" x="7" y="277.39"/><ellipse cx="155.25" cy="293.39" fill="#ADD1B2" rx="11" ry="11" style="stroke:#181818;stroke-width:1.0;"/><path d="M155.3594,288.9213 Q154.4375,288.9213 153.7031,289.2338 Q152.9844,289.5463 152.4844,290.14 Q151.9844,290.7181 151.7031,291.5931 Q151.4375,292.4681 151.4375,293.5619 Q151.4375,294.9994 151.875,296.0463 Q152.3281,297.0931 153.1719,297.64 Q154.0313,298.1869 155.3438,298.1869 Q156.125,298.1869 156.8125,298.0619 Q157.5156,297.9213 158.5156,297.6088 L158.5156,299.4838 Q157.6563,299.8119 156.8906,299.9369 Q156.1406,300.0619 155.125,300.0619 Q153.2031,300.0619 151.8906,299.265 Q150.5938,298.4525 149.9375,296.9838 Q149.2813,295.4994 149.2813,293.5306 Q149.2813,292.1088 149.6719,290.9369 Q150.0781,289.7494 150.8594,288.8744 Q151.6406,287.9994 152.7813,287.5306 Q153.9219,287.0463 155.3906,287.0463 Q156.3438,287.0463 157.2344,287.2494 Q158.1406,287.4369 159.0781,287.9056 L158.25,289.6869 Q157.4688,289.3119 156.8125,289.1244 Q156.1563,288.9213 155.3594,288.9213 Z " fill="#000000"/><text fill="#000000" font-family="sans-serif" font-size="14" lengthAdjust="spacing" textLength="107" x="175.75" y="298.822">Engine_runtime</text><line style="stroke:#181818;stroke-width:0.5;" x1="8" x2="418" y1="309.39" y2="309.39"/><text fill="#000000" font-family="sans-serif" font-size="14" lengthAdjust="spacing" textLength="132" x="13" y="328.3559">-m_delta_time: float</text><text fill="#000000" font-family="sans-serif" font-size="14" lengthAdjust="spacing" textLength="193" x="13" y="347.4239">-m_swap_data[2]: Swap_data</text><text fill="#000000" font-family="sans-serif" font-size="14" lengthAdjust="spacing" textLength="216" x="13" y="366.4918">-m_render_swap_data_index: int</text><text fill="#000000" font-family="sans-serif" font-size="14" lengthAdjust="spacing" textLength="202" x="13" y="385.5597">-m_logic_swap_data_index: int</text><text fill="#000000" font-family="sans-serif" font-size="14" lengthAdjust="spacing" textLength="291" x="13" y="404.6276">-m_rhi_device: std::shared_ptr&lt;RHI_device&gt;</text><text fill="#000000" font-family="sans-serif" font-size="14" lengthAdjust="spacing" textLength="329" x="13" y="423.6955">-m_input_system: std::shared_ptr&lt;Input_system&gt;</text><text fill="#000000" font-family="sans-serif" font-size="14" lengthAdjust="spacing" textLength="351" x="13" y="442.7634">-m_render_system: std::shared_ptr&lt;Render_system&gt;</text><text fill="#000000" font-family="sans-serif" font-size="14" lengthAdjust="spacing" textLength="362" x="13" y="461.8314">-m_window_system: std::shared_ptr&lt;Window_system&gt;</text><text fill="#000000" font-family="sans-serif" font-size="14" lengthAdjust="spacing" textLength="228" x="13" y="480.8993">-m_world: std::shared_ptr&lt;World&gt;</text><text fill="#000000" font-family="sans-serif" font-size="14" lengthAdjust="spacing" textLength="225" x="13" y="499.9672">-m_timer: std::shared_ptr&lt;Timer&gt;</text><line style="stroke:#181818;stroke-width:0.5;" x1="8" x2="418" y1="508.0692" y2="508.0692"/><text fill="#000000" font-family="sans-serif" font-size="14" lengthAdjust="spacing" textLength="192" x="13" y="527.0351">+Engine_runtime(descriptor)</text><text fill="#000000" font-family="sans-serif" font-size="14" lengthAdjust="spacing" textLength="131" x="13" y="546.103">+~Engine_runtime()</text><text fill="#000000" font-family="sans-serif" font-size="14" lengthAdjust="spacing" textLength="400" x="13" y="565.1709">+static create(descriptor): std::shared_ptr&lt;Engine_runtime&gt;</text><text fill="#000000" font-family="sans-serif" font-size="14" lengthAdjust="spacing" textLength="109" x="13" y="584.2389">+is_active(): bool</text><text fill="#000000" font-family="sans-serif" font-size="14" lengthAdjust="spacing" textLength="76" x="13" y="603.3068">+run(): void</text><text fill="#000000" font-family="sans-serif" font-size="14" lengthAdjust="spacing" textLength="123" x="13" y="622.3747">+tick(float dt): void</text><text fill="#000000" font-family="sans-serif" font-size="14" lengthAdjust="spacing" textLength="152" x="13" y="641.4426">+get_delta_time(): float</text><text fill="#000000" font-family="sans-serif" font-size="14" lengthAdjust="spacing" textLength="103" x="13" y="660.5105">+get_fps(): float</text><text fill="#000000" font-family="sans-serif" font-size="14" lengthAdjust="spacing" textLength="87" x="13" y="679.5784">+swap(): void</text><text fill="#000000" font-family="sans-serif" font-size="14" lengthAdjust="spacing" textLength="229" x="13" y="698.6464">+render_swap_data(): Swap_data&amp;</text><text fill="#000000" font-family="sans-serif" font-size="14" lengthAdjust="spacing" textLength="215" x="13" y="717.7143">+logic_swap_data(): Swap_data&amp;</text></g><!--class Swap_data--><g id="elem_Swap_data"><rect codeLine="40" fill="#F1F1F1" height="61.412" id="Swap_data" rx="2.5" ry="2.5" style="stroke:#181818;stroke-width:0.5;" width="104" x="609" y="146.89"/><ellipse cx="624" cy="169.596" fill="#ADD1B2" rx="11" ry="11" style="stroke:#181818;stroke-width:1.0;"/><path d="M624.1094,165.1273 Q623.1875,165.1273 622.4531,165.4398 Q621.7344,165.7523 621.2344,166.346 Q620.7344,166.9241 620.4531,167.7991 Q620.1875,168.6741 620.1875,169.7679 Q620.1875,171.2054 620.625,172.2523 Q621.0781,173.2991 621.9219,173.846 Q622.7813,174.3929 624.0938,174.3929 Q624.875,174.3929 625.5625,174.2679 Q626.2656,174.1273 627.2656,173.8148 L627.2656,175.6898 Q626.4063,176.0179 625.6406,176.1429 Q624.8906,176.2679 623.875,176.2679 Q621.9531,176.2679 620.6406,175.471 Q619.3438,174.6585 618.6875,173.1898 Q618.0313,171.7054 618.0313,169.7366 Q618.0313,168.3148 618.4219,167.1429 Q618.8281,165.9554 619.6094,165.0804 Q620.3906,164.2054 621.5313,163.7366 Q622.6719,163.2523 624.1406,163.2523 Q625.0938,163.2523 625.9844,163.4554 Q626.8906,163.6429 627.8281,164.1116 L627,165.8929 Q626.2188,165.5179 625.5625,165.3304 Q624.9063,165.1273 624.1094,165.1273 Z " fill="#000000"/><text fill="#000000" font-family="sans-serif" font-size="12" font-style="italic" lengthAdjust="spacing" textLength="42" x="653" y="164.7181">&#171;struct&#187;</text><text fill="#000000" font-family="sans-serif" font-size="14" lengthAdjust="spacing" textLength="72" x="638" y="183.2">Swap_data</text><line style="stroke:#181818;stroke-width:0.5;" x1="610" x2="712" y1="192.302" y2="192.302"/><line style="stroke:#181818;stroke-width:0.5;" x1="610" x2="712" y1="200.302" y2="200.302"/></g><!--class Logic_tick_context--><g id="elem_Logic_tick_context"><rect codeLine="41" fill="#F1F1F1" height="61.412" id="Logic_tick_context" rx="2.5" ry="2.5" style="stroke:#181818;stroke-width:0.5;" width="151" x="585.5" y="242.89"/><ellipse cx="600.5" cy="265.596" fill="#ADD1B2" rx="11" ry="11" style="stroke:#181818;stroke-width:1.0;"/><path d="M600.6094,261.1273 Q599.6875,261.1273 598.9531,261.4398 Q598.2344,261.7523 597.7344,262.346 Q597.2344,262.9241 596.9531,263.7991 Q596.6875,264.6741 596.6875,265.7679 Q596.6875,267.2054 597.125,268.2523 Q597.5781,269.2991 598.4219,269.846 Q599.2813,270.3929 600.5938,270.3929 Q601.375,270.3929 602.0625,270.2679 Q602.7656,270.1273 603.7656,269.8148 L603.7656,271.6898 Q602.9063,272.0179 602.1406,272.1429 Q601.3906,272.2679 600.375,272.2679 Q598.4531,272.2679 597.1406,271.471 Q595.8438,270.6585 595.1875,269.1898 Q594.5313,267.7054 594.5313,265.7366 Q594.5313,264.3148 594.9219,263.1429 Q595.3281,261.9554 596.1094,261.0804 Q596.8906,260.2054 598.0313,259.7366 Q599.1719,259.2523 600.6406,259.2523 Q601.5938,259.2523 602.4844,259.4554 Q603.3906,259.6429 604.3281,260.1116 L603.5,261.8929 Q602.7188,261.5179 602.0625,261.3304 Q601.4063,261.1273 600.6094,261.1273 Z " fill="#000000"/><text fill="#000000" font-family="sans-serif" font-size="12" font-style="italic" lengthAdjust="spacing" textLength="42" x="653" y="260.7181">&#171;struct&#187;</text><text fill="#000000" font-family="sans-serif" font-size="14" lengthAdjust="spacing" textLength="119" x="614.5" y="279.2">Logic_tick_context</text><line style="stroke:#181818;stroke-width:0.5;" x1="586.5" x2="735.5" y1="288.302" y2="288.302"/><line style="stroke:#181818;stroke-width:0.5;" x1="586.5" x2="735.5" y1="296.302" y2="296.302"/></g><!--class Render_tick_context--><g id="elem_Render_tick_context"><rect codeLine="42" fill="#F1F1F1" height="61.412" id="Render_tick_context" rx="2.5" ry="2.5" style="stroke:#181818;stroke-width:0.5;" width="165" x="578.5" y="338.89"/><ellipse cx="593.5" cy="361.596" fill="#ADD1B2" rx="11" ry="11" style="stroke:#181818;stroke-width:1.0;"/><path d="M593.6094,357.1273 Q592.6875,357.1273 591.9531,357.4398 Q591.2344,357.7523 590.7344,358.346 Q590.2344,358.9241 589.9531,359.7991 Q589.6875,360.6741 589.6875,361.7679 Q589.6875,363.2054 590.125,364.2523 Q590.5781,365.2991 591.4219,365.846 Q592.2813,366.3929 593.5938,366.3929 Q594.375,366.3929 595.0625,366.2679 Q595.7656,366.1273 596.7656,365.8148 L596.7656,367.6898 Q595.9063,368.0179 595.1406,368.1429 Q594.3906,368.2679 593.375,368.2679 Q591.4531,368.2679 590.1406,367.471 Q588.8438,366.6585 588.1875,365.1898 Q587.5313,363.7054 587.5313,361.7366 Q587.5313,360.3148 587.9219,359.1429 Q588.3281,357.9554 589.1094,357.0804 Q589.8906,356.2054 591.0313,355.7366 Q592.1719,355.2523 593.6406,355.2523 Q594.5938,355.2523 595.4844,355.4554 Q596.3906,355.6429 597.3281,356.1116 L596.5,357.8929 Q595.7188,357.5179 595.0625,357.3304 Q594.4063,357.1273 593.6094,357.1273 Z " fill="#000000"/><text fill="#000000" font-family="sans-serif" font-size="12" font-style="italic" lengthAdjust="spacing" textLength="42" x="653" y="356.7181">&#171;struct&#187;</text><text fill="#000000" font-family="sans-serif" font-size="14" lengthAdjust="spacing" textLength="133" x="607.5" y="375.2">Render_tick_context</text><line style="stroke:#181818;stroke-width:0.5;" x1="579.5" x2="742.5" y1="384.302" y2="384.302"/><line style="stroke:#181818;stroke-width:0.5;" x1="579.5" x2="742.5" y1="392.302" y2="392.302"/></g><!--class RHI_device--><g id="elem_RHI_device"><rect codeLine="43" fill="#F1F1F1" height="48" id="RHI_device" rx="2.5" ry="2.5" style="stroke:#181818;stroke-width:0.5;" width="105" x="608.5" y="435.6"/><ellipse cx="623.5" cy="451.6" fill="#ADD1B2" rx="11" ry="11" style="stroke:#181818;stroke-width:1.0;"/><path d="M623.6094,447.1313 Q622.6875,447.1313 621.9531,447.4438 Q621.2344,447.7563 620.7344,448.35 Q620.2344,448.9281 619.9531,449.8031 Q619.6875,450.6781 619.6875,451.7719 Q619.6875,453.2094 620.125,454.2563 Q620.5781,455.3031 621.4219,455.85 Q622.2813,456.3969 623.5938,456.3969 Q624.375,456.3969 625.0625,456.2719 Q625.7656,456.1313 626.7656,455.8188 L626.7656,457.6938 Q625.9063,458.0219 625.1406,458.1469 Q624.3906,458.2719 623.375,458.2719 Q621.4531,458.2719 620.1406,457.475 Q618.8438,456.6625 618.1875,455.1938 Q617.5313,453.7094 617.5313,451.7406 Q617.5313,450.3188 617.9219,449.1469 Q618.3281,447.9594 619.1094,447.0844 Q619.8906,446.2094 621.0313,445.7406 Q622.1719,445.2563 623.6406,445.2563 Q624.5938,445.2563 625.4844,445.4594 Q626.3906,445.6469 627.3281,446.1156 L626.5,447.8969 Q625.7188,447.5219 625.0625,447.3344 Q624.4063,447.1313 623.6094,447.1313 Z " fill="#000000"/><text fill="#000000" font-family="sans-serif" font-size="14" lengthAdjust="spacing" textLength="73" x="637.5" y="457.032">RHI_device</text><line style="stroke:#181818;stroke-width:0.5;" x1="609.5" x2="712.5" y1="467.6" y2="467.6"/><line style="stroke:#181818;stroke-width:0.5;" x1="609.5" x2="712.5" y1="475.6" y2="475.6"/></g><!--class Input_system--><g id="elem_Input_system"><rect codeLine="44" fill="#F1F1F1" height="48" id="Input_system" rx="2.5" ry="2.5" style="stroke:#181818;stroke-width:0.5;" width="122" x="600" y="518.6"/><ellipse cx="615" cy="534.6" fill="#ADD1B2" rx="11" ry="11" style="stroke:#181818;stroke-width:1.0;"/><path d="M615.1094,530.1313 Q614.1875,530.1313 613.4531,530.4438 Q612.7344,530.7563 612.2344,531.35 Q611.7344,531.9281 611.4531,532.8031 Q611.1875,533.6781 611.1875,534.7719 Q611.1875,536.2094 611.625,537.2563 Q612.0781,538.3031 612.9219,538.85 Q613.7813,539.3969 615.0938,539.3969 Q615.875,539.3969 616.5625,539.2719 Q617.2656,539.1313 618.2656,538.8188 L618.2656,540.6938 Q617.4063,541.0219 616.6406,541.1469 Q615.8906,541.2719 614.875,541.2719 Q612.9531,541.2719 611.6406,540.475 Q610.3438,539.6625 609.6875,538.1938 Q609.0313,536.7094 609.0313,534.7406 Q609.0313,533.3188 609.4219,532.1469 Q609.8281,530.9594 610.6094,530.0844 Q611.3906,529.2094 612.5313,528.7406 Q613.6719,528.2563 615.1406,528.2563 Q616.0938,528.2563 616.9844,528.4594 Q617.8906,528.6469 618.8281,529.1156 L618,530.8969 Q617.2188,530.5219 616.5625,530.3344 Q615.9063,530.1313 615.1094,530.1313 Z " fill="#000000"/><text fill="#000000" font-family="sans-serif" font-size="14" lengthAdjust="spacing" textLength="90" x="629" y="540.032">Input_system</text><line style="stroke:#181818;stroke-width:0.5;" x1="601" x2="721" y1="550.6" y2="550.6"/><line style="stroke:#181818;stroke-width:0.5;" x1="601" x2="721" y1="558.6" y2="558.6"/></g><!--class Render_system--><g id="elem_Render_system"><rect codeLine="45" fill="#F1F1F1" height="48" id="Render_system" rx="2.5" ry="2.5" style="stroke:#181818;stroke-width:0.5;" width="134" x="594" y="601.6"/><ellipse cx="609" cy="617.6" fill="#ADD1B2" rx="11" ry="11" style="stroke:#181818;stroke-width:1.0;"/><path d="M609.1094,613.1313 Q608.1875,613.1313 607.4531,613.4438 Q606.7344,613.7563 606.2344,614.35 Q605.7344,614.9281 605.4531,615.8031 Q605.1875,616.6781 605.1875,617.7719 Q605.1875,619.2094 605.625,620.2563 Q606.0781,621.3031 606.9219,621.85 Q607.7813,622.3969 609.0938,622.3969 Q609.875,622.3969 610.5625,622.2719 Q611.2656,622.1313 612.2656,621.8188 L612.2656,623.6938 Q611.4063,624.0219 610.6406,624.1469 Q609.8906,624.2719 608.875,624.2719 Q606.9531,624.2719 605.6406,623.475 Q604.3438,622.6625 603.6875,621.1938 Q603.0313,619.7094 603.0313,617.7406 Q603.0313,616.3188 603.4219,615.1469 Q603.8281,613.9594 604.6094,613.0844 Q605.3906,612.2094 606.5313,611.7406 Q607.6719,611.2563 609.1406,611.2563 Q610.0938,611.2563 610.9844,611.4594 Q611.8906,611.6469 612.8281,612.1156 L612,613.8969 Q611.2188,613.5219 610.5625,613.3344 Q609.9063,613.1313 609.1094,613.1313 Z " fill="#000000"/><text fill="#000000" font-family="sans-serif" font-size="14" lengthAdjust="spacing" textLength="102" x="623" y="623.032">Render_system</text><line style="stroke:#181818;stroke-width:0.5;" x1="595" x2="727" y1="633.6" y2="633.6"/><line style="stroke:#181818;stroke-width:0.5;" x1="595" x2="727" y1="641.6" y2="641.6"/></g><!--class Window_system--><g id="elem_Window_system"><rect codeLine="46" fill="#F1F1F1" height="48" id="Window_system" rx="2.5" ry="2.5" style="stroke:#181818;stroke-width:0.5;" width="139" x="591.5" y="684.6"/><ellipse cx="606.5" cy="700.6" fill="#ADD1B2" rx="11" ry="11" style="stroke:#181818;stroke-width:1.0;"/><path d="M606.6094,696.1313 Q605.6875,696.1313 604.9531,696.4438 Q604.2344,696.7563 603.7344,697.35 Q603.2344,697.9281 602.9531,698.8031 Q602.6875,699.6781 602.6875,700.7719 Q602.6875,702.2094 603.125,703.2563 Q603.5781,704.3031 604.4219,704.85 Q605.2813,705.3969 606.5938,705.3969 Q607.375,705.3969 608.0625,705.2719 Q608.7656,705.1313 609.7656,704.8188 L609.7656,706.6938 Q608.9063,707.0219 608.1406,707.1469 Q607.3906,707.2719 606.375,707.2719 Q604.4531,707.2719 603.1406,706.475 Q601.8438,705.6625 601.1875,704.1938 Q600.5313,702.7094 600.5313,700.7406 Q600.5313,699.3188 600.9219,698.1469 Q601.3281,696.9594 602.1094,696.0844 Q602.8906,695.2094 604.0313,694.7406 Q605.1719,694.2563 606.6406,694.2563 Q607.5938,694.2563 608.4844,694.4594 Q609.3906,694.6469 610.3281,695.1156 L609.5,696.8969 Q608.7188,696.5219 608.0625,696.3344 Q607.4063,696.1313 606.6094,696.1313 Z " fill="#000000"/><text fill="#000000" font-family="sans-serif" font-size="14" lengthAdjust="spacing" textLength="107" x="620.5" y="706.032">Window_system</text><line style="stroke:#181818;stroke-width:0.5;" x1="592.5" x2="729.5" y1="716.6" y2="716.6"/><line style="stroke:#181818;stroke-width:0.5;" x1="592.5" x2="729.5" y1="724.6" y2="724.6"/></g><!--class World--><g id="elem_World"><rect codeLine="47" fill="#F1F1F1" height="48" id="World" rx="2.5" ry="2.5" style="stroke:#181818;stroke-width:0.5;" width="72" x="625" y="767.6"/><ellipse cx="640" cy="783.6" fill="#ADD1B2" rx="11" ry="11" style="stroke:#181818;stroke-width:1.0;"/><path d="M640.1094,779.1313 Q639.1875,779.1313 638.4531,779.4438 Q637.7344,779.7563 637.2344,780.35 Q636.7344,780.9281 636.4531,781.8031 Q636.1875,782.6781 636.1875,783.7719 Q636.1875,785.2094 636.625,786.2563 Q637.0781,787.3031 637.9219,787.85 Q638.7813,788.3969 640.0938,788.3969 Q640.875,788.3969 641.5625,788.2719 Q642.2656,788.1313 643.2656,787.8188 L643.2656,789.6938 Q642.4063,790.0219 641.6406,790.1469 Q640.8906,790.2719 639.875,790.2719 Q637.9531,790.2719 636.6406,789.475 Q635.3438,788.6625 634.6875,787.1938 Q634.0313,785.7094 634.0313,783.7406 Q634.0313,782.3188 634.4219,781.1469 Q634.8281,779.9594 635.6094,779.0844 Q636.3906,778.2094 637.5313,777.7406 Q638.6719,777.2563 640.1406,777.2563 Q641.0938,777.2563 641.9844,777.4594 Q642.8906,777.6469 643.8281,778.1156 L643,779.8969 Q642.2188,779.5219 641.5625,779.3344 Q640.9063,779.1313 640.1094,779.1313 Z " fill="#000000"/><text fill="#000000" font-family="sans-serif" font-size="14" lengthAdjust="spacing" textLength="40" x="654" y="789.032">World</text><line style="stroke:#181818;stroke-width:0.5;" x1="626" x2="696" y1="799.6" y2="799.6"/><line style="stroke:#181818;stroke-width:0.5;" x1="626" x2="696" y1="807.6" y2="807.6"/></g><!--class Timer--><g id="elem_Timer"><rect codeLine="48" fill="#F1F1F1" height="48" id="Timer" rx="2.5" ry="2.5" style="stroke:#181818;stroke-width:0.5;" width="71" x="625.5" y="850.6"/><ellipse cx="640.5" cy="866.6" fill="#ADD1B2" rx="11" ry="11" style="stroke:#181818;stroke-width:1.0;"/><path d="M640.6094,862.1313 Q639.6875,862.1313 638.9531,862.4438 Q638.2344,862.7563 637.7344,863.35 Q637.2344,863.9281 636.9531,864.8031 Q636.6875,865.6781 636.6875,866.7719 Q636.6875,868.2094 637.125,869.2563 Q637.5781,870.3031 638.4219,870.85 Q639.2813,871.3969 640.5938,871.3969 Q641.375,871.3969 642.0625,871.2719 Q642.7656,871.1313 643.7656,870.8188 L643.7656,872.6938 Q642.9063,873.0219 642.1406,873.1469 Q641.3906,873.2719 640.375,873.2719 Q638.4531,873.2719 637.1406,872.475 Q635.8438,871.6625 635.1875,870.1938 Q634.5313,868.7094 634.5313,866.7406 Q634.5313,865.3188 634.9219,864.1469 Q635.3281,862.9594 636.1094,862.0844 Q636.8906,861.2094 638.0313,860.7406 Q639.1719,860.2563 640.6406,860.2563 Q641.5938,860.2563 642.4844,860.4594 Q643.3906,860.6469 644.3281,861.1156 L643.5,862.8969 Q642.7188,862.5219 642.0625,862.3344 Q641.4063,862.1313 640.6094,862.1313 Z " fill="#000000"/><text fill="#000000" font-family="sans-serif" font-size="14" lengthAdjust="spacing" textLength="39" x="654.5" y="872.032">Timer</text><line style="stroke:#181818;stroke-width:0.5;" x1="626.5" x2="695.5" y1="882.6" y2="882.6"/><line style="stroke:#181818;stroke-width:0.5;" x1="626.5" x2="695.5" y1="890.6" y2="890.6"/></g><!--reverse link Engine_runtime to RHI_device--><g id="link_Engine_runtime_RHI_device"><path codeLine="52" d="M431.3271,481.1343 C501.0571,474.5643 561.15,468.91 608,464.5 " fill="none" id="Engine_runtime-backto-RHI_device" style="stroke:#181818;stroke-width:1.0;"/><polygon fill="#181818" points="419.38,482.26,425.7288,485.6795,431.3271,481.1343,424.9783,477.7148,419.38,482.26" style="stroke:#181818;stroke-width:1.0;"/></g><!--reverse link Engine_runtime to Input_system--><g id="link_Engine_runtime_Input_system"><path codeLine="53" d="M431.3297,521.578 C497.1697,527.628 553.12,532.78 599.94,537.08 " fill="none" id="Engine_runtime-backto-Input_system" style="stroke:#181818;stroke-width:1.0;"/><polygon fill="#181818" points="419.38,520.48,424.9888,525.0122,431.3297,521.578,425.7208,517.0458,419.38,520.48" style="stroke:#181818;stroke-width:1.0;"/></g><!--reverse link Engine_runtime to Render_system--><g id="link_Engine_runtime_Render_system"><path codeLine="54" d="M430.9415,561.9144 C493.9215,579.4244 547.23,594.25 593.72,607.17 " fill="none" id="Engine_runtime-backto-Render_system" style="stroke:#181818;stroke-width:1.0;"/><polygon fill="#181818" points="419.38,558.7,424.0893,564.161,430.9415,561.9144,426.2322,556.4534,419.38,558.7" style="stroke:#181818;stroke-width:1.0;"/></g><!--reverse link Engine_runtime to Window_system--><g id="link_Engine_runtime_Window_system"><path codeLine="55" d="M430.2657,610.6089 C474.3257,631.8889 510.05,648.41 554,667.6 C566.93,673.24 580.91,678.93 594.33,684.2 " fill="none" id="Engine_runtime-backto-Window_system" style="stroke:#181818;stroke-width:1.0;"/><polygon fill="#181818" points="419.46,605.39,423.1232,611.6014,430.2657,610.6089,426.6025,604.3976,419.46,605.39" style="stroke:#181818;stroke-width:1.0;"/></g><!--reverse link Engine_runtime to World--><g id="link_Engine_runtime_World"><path codeLine="56" d="M428.9023,671.9662 C472.1023,702.5662 508.59,725.76 554,750.6 C576.5,762.91 603.49,773.29 624.6,780.53 " fill="none" id="Engine_runtime-backto-World" style="stroke:#181818;stroke-width:1.0;"/><polygon fill="#181818" points="419.11,665.03,421.6941,671.7622,428.9023,671.9662,426.3182,665.234,419.11,665.03" style="stroke:#181818;stroke-width:1.0;"/></g><!--reverse link Engine_runtime to Timer--><g id="link_Engine_runtime_Timer"><path codeLine="57" d="M425.2994,734.3966 C468.0094,773.7066 505.94,803.47 554,833.6 C576.07,847.43 603.56,857.9 625.02,864.8 " fill="none" id="Engine_runtime-backto-Timer" style="stroke:#181818;stroke-width:1.0;"/><polygon fill="#181818" points="416.47,726.27,418.1759,733.2764,425.2994,734.3966,423.5936,727.3901,416.47,726.27" style="stroke:#181818;stroke-width:1.0;"/></g><!--reverse link Engine_runtime to Swap_data--><g id="link_Engine_runtime_Swap_data"><path codeLine="58" d="M428.9169,313.4775 C471.8969,279.7175 508.57,253.68 554,225.6 C571.1,215.03 590.92,205.43 608.76,197.64 " fill="none" id="Engine_runtime-backto-Swap_data" style="stroke:#181818;stroke-width:1.0;"/><polygon fill="#181818" points="419.48,320.89,426.6693,320.3294,428.9169,313.4775,421.7276,314.0381,419.48,320.89" style="stroke:#181818;stroke-width:1.0;"/><text fill="#000000" font-family="sans-serif" font-size="13" lengthAdjust="spacing" textLength="7" x="593.9216" y="215.6007">2</text></g><!--link Engine_runtime to Engine_runtime_descriptor--><g id="link_Engine_runtime_Engine_runtime_descriptor"><path codeLine="61" d="M402.83,276.94 C449.95,226.11 501.94,174.07 554,129.6 C560.79,123.8 563.2615,121.6416 570.7315,116.1316 " fill="none" id="Engine_runtime-to-Engine_runtime_descriptor" style="stroke:#181818;stroke-width:1.0;stroke-dasharray:7.0,7.0;"/><polygon fill="#181818" points="575.56,112.57,565.9428,114.6934,571.5362,115.538,570.6916,121.1315,575.56,112.57" style="stroke:#181818;stroke-width:1.0;"/><text fill="#000000" font-family="sans-serif" font-size="13" lengthAdjust="spacing" textLength="63" x="455" y="152.497">configures</text></g><!--link Engine_runtime to Logic_tick_context--><g id="link_Engine_runtime_Logic_tick_context"><path codeLine="62" d="M419.27,390.32 C463.45,367.1 510.08,343.15 554,321.6 C565.43,315.99 572.1994,312.7483 584.1294,307.2583 " fill="none" id="Engine_runtime-to-Logic_tick_context" style="stroke:#181818;stroke-width:1.0;stroke-dasharray:7.0,7.0;"/><polygon fill="#181818" points="589.58,304.75,579.732,304.8787,585.0379,306.8402,583.0763,312.1461,589.58,304.75" style="stroke:#181818;stroke-width:1.0;"/><text fill="#000000" font-family="sans-serif" font-size="13" lengthAdjust="spacing" textLength="73" x="450" y="336.067">uses in tick()</text></g><!--link Engine_runtime to Render_tick_context--><g id="link_Engine_runtime_Render_tick_context"><path codeLine="63" d="M419.38,440.82 C475.62,424.17 527.6065,408.7822 572.4265,395.5222 " fill="none" id="Engine_runtime-to-Render_tick_context" style="stroke:#181818;stroke-width:1.0;stroke-dasharray:7.0,7.0;"/><polygon fill="#181818" points="578.18,393.82,568.415,392.5376,573.3854,395.2385,570.6845,400.2089,578.18,393.82" style="stroke:#181818;stroke-width:1.0;"/><text fill="#000000" font-family="sans-serif" font-size="13" lengthAdjust="spacing" textLength="73" x="450" y="408.197">uses in tick()</text></g><!--SRC=[XLNRRjGm47tFLupsWRP02-fZL4L2N4G55LMBu06Xo9lCRaPrxCYUx7QBohTZUxEvj-pB9dFEN7qyaRXYO0s6rWL3JWOp9gqYUqUg4aQKa4bXxJjcGykQyJBJwfOU4Dv6qH5yG9iPgbWRi6pgZ67b7Z-gDIbCJQsOIWHIn2GaFOWGESGRSTAy2_Gd0lTx1LlAkOYTDpU60dsDVGiJIunTwZoENNvIw-ZHbtKbI8sh26bdapSPZ-3Qq4OmmXMMIpJmGnWIIuasmATGkYebYzJxnB2IMd2BsAseqbom-7N-EuRRmrkB6rGvcewMadk_xthn7AdNb3rFCGMv8ZQKjLqNmc2ULcmkRZvVDbZIyjqPrfpQdMKifnwNFJIPbFg4qqqVxhoshbgzVTBhPn_kUMaZyncsDtSiFt0pPNttvYHg3kyBxk2wNahA3kVtgLP1oxPHo_3KZpl9dJI4loF6mMxPAJU3pA1JHzzlMjCmGj8489iALyh6XOnXgRLix8xcBHjDUQlexEuuI0jo7a9hv9u0lLydmJswgkpOxDKqIZ6MeeTRmRveI2CjZZZXadtZmWqvN2YqR_RNtq9jCOVbRZJivjwr8U3YOk-G90tqDIJqxQTkmp3UyvJJIEy_fFOQD8Q-oeU11hQ1GWyshyFcEQZDzts3CYmoMr1btVjxNLRQaZV1yMYpBFHMsGMuILctWJnHeN9Jsf20JZNWjjv-yq8Pf7iIZUAyF3tjDpQ33hgSynwqF4COzZz72CEO0VQJcG4MvulUAWoVYygNeRBTT59EEEsaU5UXVUt_A1DIxa1O21yZP3JMZqjg1y3ciA4d0pixIvxvnCJkBDIArhLnott6SqQCiLUsTSjuVqLd4yxfS-Bt3m00]--></g></svg>